<svg xmlns="http://www.w3.org/2000/svg" width="438" height="186" viewBox="0 0 438 186" font-family="Segoe UI, -apple-system, BlinkMacSystemFont, Helvetica, Arial, sans-serif">
<defs><filter id="cs" x="-20%" y="-20%" width="140%" height="140%"><feDropShadow dx="0" dy="1" stdDeviation="1.3" flood-color="#000" flood-opacity="0.1"/></filter></defs>
<rect width="438" height="186" fill="#ffffff"/>
<rect x="0" y="78.0" width="438" height="90.0" fill="#ffffff"/>
<line x1="0" y1="78.0" x2="438" y2="78.0" stroke="#e6e4e2"/>
<text x="293.2" y="127.5" font-size="13" font-weight="700" fill="#323130">Workload root</text>
<line x1="0" y1="185.5" x2="438" y2="185.5" stroke="#e6e4e2"/>
<text x="40" y="34" font-size="18" font-weight="700" fill="#242424">Single node</text>
<text x="40" y="52" font-size="12" fill="#605e5c">Signals live inside each entity; health rolls up to the workload root.</text>
<g transform="translate(40.0,0)">
<g fill="none" stroke-linecap="butt" stroke-linejoin="round">
</g>
<g filter="url(#cs)"><rect x="0.0" y="96.0" width="201" height="58" rx="10" fill="#f2f8f2" stroke="#a0d8a0" stroke-width="2"/></g><g transform="translate(6.0,115.16) scale(0.82)"><path d="M12 3.2l7.6 4.4v8.8L12 20.8l-7.6-4.4V7.6z" fill="none" stroke="#605e5c" stroke-width="1.6" stroke-linecap="round" stroke-linejoin="round"/><path d="M4.6 7.8l7.4 4.3 7.4-4.3M12 12.1v8.6" fill="none" stroke="#605e5c" stroke-width="1.6" stroke-linecap="round" stroke-linejoin="round"/></g><text x="34.0" y="128.5" font-size="12.5" font-weight="600" fill="#242424">The only node</text><rect x="128.7" y="116.00" width="64.3" height="18" rx="9" fill="#ffffff" stroke="#a0d8a0" stroke-width="1"/><circle cx="139.7" cy="125.0" r="6" fill="#4c9a2a"/><path d="M137.0 125.0 l1.9 1.9 l3.4 -3.9" fill="none" stroke="#ffffff" stroke-width="1.4" stroke-linecap="round" stroke-linejoin="round"/><text x="148.7" y="128.57" font-size="10.5" fill="#323130">Healthy</text>
</g></svg>