<svg xmlns="http://www.w3.org/2000/svg" width="927" height="887" viewBox="0 0 927 887" font-family="Segoe UI, -apple-system, BlinkMacSystemFont, Helvetica, Arial, sans-serif">
<defs><filter id="cs" x="-20%" y="-20%" width="140%" height="140%"><feDropShadow dx="0" dy="1" stdDeviation="1.3" flood-color="#000" flood-opacity="0.1"/></filter></defs>
<rect width="927" height="887" fill="#ffffff"/>
<rect x="0" y="78.0" width="927" height="118.0" fill="#ffffff"/>
<line x1="0" y1="78.0" x2="927" y2="78.0" stroke="#e6e4e2"/>
<text x="760.9" y="141.5" font-size="13" font-weight="700" fill="#323130">Workload root</text>
<rect x="0" y="196.0" width="927" height="216.0" fill="#faf9f8"/>
<line x1="0" y1="196.0" x2="927" y2="196.0" stroke="#e6e4e2"/>
<text x="760.9" y="308.5" font-size="13" font-weight="700" fill="#323130">Business &amp; user flows</text>
<rect x="0" y="412.0" width="927" height="457.0" fill="#ffffff"/>
<line x1="0" y1="412.0" x2="927" y2="412.0" stroke="#e6e4e2"/>
<text x="760.9" y="636.5" font-size="13" font-weight="700" fill="#323130">Application</text>
<text x="760.9" y="653.5" font-size="13" font-weight="700" fill="#323130">components</text>
<line x1="0" y1="886.5" x2="927" y2="886.5" stroke="#e6e4e2"/>
<text x="40" y="34" font-size="18" font-weight="700" fill="#242424">diagram</text>
<text x="40" y="52" font-size="12" fill="#605e5c">Signals live inside each entity; health rolls up to the workload root.</text>
<text x="523.5" y="48" font-size="11.5" font-weight="600" fill="#605e5c" text-anchor="end">Legend</text>
<circle cx="541.5" cy="44" r="4.5" fill="#4c9a2a"/>
<text x="551.5" y="48" font-size="11.5" fill="#323130">Healthy</text>
<circle cx="607.3" cy="44" r="4.5" fill="#c26a00"/>
<text x="617.3" y="48" font-size="11.5" fill="#323130">Degraded</text>
<circle cx="684.8" cy="44" r="4.5" fill="#c50f18"/>
<text x="694.8" y="48" font-size="11.5" fill="#323130">Unhealthy</text>
<circle cx="763.6" cy="44" r="4.5" fill="#8a8886"/>
<text x="773.6" y="48" font-size="11.5" fill="#323130">Unknown</text>
<g transform="translate(832.5,37.0) scale(0.875)"><rect x="1.5" y="8" width="2.6" height="6" rx="0.6" fill="#8661c5"/><rect x="5.7" y="4.5" width="2.6" height="9.5" rx="0.6" fill="#0078D4"/><rect x="9.9" y="6.5" width="2.6" height="7.5" rx="0.6" fill="#3fb0ac"/></g>
<text x="850.5" y="48" font-size="11.5" fill="#323130">Metric</text>
<g transform="translate(40.0,0)">
<g fill="none" stroke-linecap="butt" stroke-linejoin="round">
<path d="M149.4 430.0 L149.4 389.0 Q149.4 382.0 156.4 382.0 L279.6 382.0" stroke="#a0d8a0" stroke-width="1.7"/>
<path d="M279.6 382.0 L279.6 272.0" stroke="#605e5c" stroke-width="1.7"/>
<path d="M372.4 430.0 L372.4 397.0 Q372.4 390.0 365.4 390.0 L279.6 390.0" stroke="#a0d8a0" stroke-width="1.7"/>
<path d="M279.6 390.0 L279.6 272.0" stroke="#605e5c" stroke-width="1.7"/>
<path d="M584.9 430.0 L584.9 401.0 Q584.9 394.0 577.9 394.0 L279.6 394.0" stroke="#a0d8a0" stroke-width="1.7"/>
<path d="M279.6 394.0 L279.6 272.0" stroke="#605e5c" stroke-width="1.7"/>
<path d="M361.9 593.0 L361.9 564.0 Q361.9 557.0 368.9 557.0 L486.9 557.0" stroke="#a0d8a0" stroke-width="1.7"/>
<path d="M486.9 557.0 L486.9 385.5 Q486.9 382.0 490.4 382.0 L490.4 382.0 Q493.9 382.0 493.9 378.5 L493.9 272.0" stroke="#605e5c" stroke-width="1.7"/>
<path d="M590.9 430.0 L590.9 393.0 Q590.9 386.0 583.9 386.0 L493.9 386.0" stroke="#a0d8a0" stroke-width="1.7"/>
<path d="M493.9 386.0 L493.9 272.0" stroke="#605e5c" stroke-width="1.7"/>
<path d="M474.9 752.0 L474.9 560.0 Q474.9 553.0 467.9 553.0 L274.9 553.0 Q267.9 553.0 267.9 546.0 L267.9 393.0 Q267.9 386.0 274.9 386.0 L296.1 386.0 Q303.1 386.0 303.1 379.0 L303.1 362.0" stroke="#605e5c" stroke-width="1.7"/>
<path d="M238.4 752.0 L238.4 723.0 Q238.4 716.0 245.4 716.0 L474.9 716.0" stroke="#db7500" stroke-width="1.7"/>
<path d="M474.9 716.0 L474.9 560.0 Q474.9 553.0 467.9 553.0 L274.9 553.0 Q267.9 553.0 267.9 546.0 L267.9 393.0 Q267.9 386.0 274.9 386.0 L296.1 386.0 Q303.1 386.0 303.1 379.0 L303.1 362.0" stroke="#605e5c" stroke-width="1.7"/>
<path d="M279.6 214.0 L279.6 181.0 Q279.6 174.0 286.6 174.0 L409.6 174.0" stroke="#a0d8a0" stroke-width="1.7"/>
<path d="M409.6 174.0 L409.6 154.0" stroke="#605e5c" stroke-width="1.7"/>
<path d="M517.1 214.0 L517.1 185.0 Q517.1 178.0 510.1 178.0 L409.6 178.0" stroke="#a0d8a0" stroke-width="1.7"/>
<path d="M409.6 178.0 L409.6 154.0" stroke="#605e5c" stroke-width="1.7"/>
<path d="M409.6 304.0 L409.6 154.0" stroke="#605e5c" stroke-width="1.7"/>
</g>
<g filter="url(#cs)"><rect x="50.9" y="430.0" width="197" height="103" rx="10" fill="#f2f8f2" stroke="#a0d8a0" stroke-width="2"/></g><g transform="translate(56.9,437.16) scale(0.82)"><circle cx="12" cy="12" r="8.4" fill="none" stroke="#605e5c" stroke-width="1.6" stroke-linecap="round" stroke-linejoin="round"/><path d="M3.6 12h16.8M12 3.6c3 3 3 13.8 0 16.8M12 3.6c-3 3-3 13.8 0 16.8" fill="none" stroke="#605e5c" stroke-width="1.6" stroke-linecap="round" stroke-linejoin="round"/></g><text x="84.9" y="450.5" font-size="12.5" font-weight="600" fill="#242424">Web frontend</text><rect x="175.6" y="438.00" width="64.3" height="18" rx="9" fill="#ffffff" stroke="#a0d8a0" stroke-width="1"/><circle cx="186.6" cy="447.0" r="6" fill="#4c9a2a"/><path d="M183.9 447.0 l1.9 1.9 l3.4 -3.9" fill="none" stroke="#ffffff" stroke-width="1.4" stroke-linecap="round" stroke-linejoin="round"/><text x="195.6" y="450.57" font-size="10.5" fill="#323130">Healthy</text><line x1="51.9" y1="467.0" x2="246.9" y2="467.0" stroke="#e6e4e2"/><circle cx="66.9" cy="482.0" r="6" fill="#4c9a2a"/><path d="M64.2 482.0 l1.9 1.9 l3.4 -3.9" fill="none" stroke="#ffffff" stroke-width="1.4" stroke-linecap="round" stroke-linejoin="round"/><g transform="translate(82.9,475.0) scale(0.875)"><rect x="1.5" y="8" width="2.6" height="6" rx="0.6" fill="#8661c5"/><rect x="5.7" y="4.5" width="2.6" height="9.5" rx="0.6" fill="#0078D4"/><rect x="9.9" y="6.5" width="2.6" height="7.5" rx="0.6" fill="#3fb0ac"/></g><text x="102.9" y="485.5" font-size="10.5" fill="#242424">Web latency</text><text x="235.9" y="485.5" font-size="10.5" font-weight="400" fill="#605e5c" text-anchor="end">2</text><line x1="60.9" y1="491.0" x2="237.9" y2="491.0" stroke="#e6e4e2" stroke-opacity="0.7"/><circle cx="66.9" cy="500.0" r="6" fill="#4c9a2a"/><path d="M64.2 500.0 l1.9 1.9 l3.4 -3.9" fill="none" stroke="#ffffff" stroke-width="1.4" stroke-linecap="round" stroke-linejoin="round"/><g transform="translate(82.9,493.0) scale(0.875)"><rect x="1.5" y="8" width="2.6" height="6" rx="0.6" fill="#8661c5"/><rect x="5.7" y="4.5" width="2.6" height="9.5" rx="0.6" fill="#0078D4"/><rect x="9.9" y="6.5" width="2.6" height="7.5" rx="0.6" fill="#3fb0ac"/></g><text x="102.9" y="503.5" font-size="10.5" fill="#242424">HTTP 5xx rate</text><text x="235.9" y="503.5" font-size="10.5" font-weight="400" fill="#605e5c" text-anchor="end">1</text><line x1="60.9" y1="509.0" x2="237.9" y2="509.0" stroke="#e6e4e2" stroke-opacity="0.7"/><circle cx="66.9" cy="518.0" r="6" fill="#4c9a2a"/><path d="M64.2 518.0 l1.9 1.9 l3.4 -3.9" fill="none" stroke="#ffffff" stroke-width="1.4" stroke-linecap="round" stroke-linejoin="round"/><g transform="translate(82.9,511.0) scale(0.875)"><rect x="1.5" y="8" width="2.6" height="6" rx="0.6" fill="#8661c5"/><rect x="5.7" y="4.5" width="2.6" height="9.5" rx="0.6" fill="#0078D4"/><rect x="9.9" y="6.5" width="2.6" height="7.5" rx="0.6" fill="#3fb0ac"/></g><text x="102.9" y="521.5" font-size="10.5" fill="#242424">Request rate</text><text x="235.9" y="521.5" font-size="10.5" font-weight="400" fill="#605e5c" text-anchor="end">2</text>
<g filter="url(#cs)"><rect x="277.9" y="430.0" width="189" height="103" rx="10" fill="#f2f8f2" stroke="#a0d8a0" stroke-width="2"/></g><g transform="translate(283.9,437.16) scale(0.82)"><rect x="4" y="4.5" width="16" height="6" rx="1.2" fill="none" stroke="#605e5c" stroke-width="1.6" stroke-linecap="round" stroke-linejoin="round"/><rect x="4" y="13.5" width="16" height="6" rx="1.2" fill="none" stroke="#605e5c" stroke-width="1.6" stroke-linecap="round" stroke-linejoin="round"/><path d="M7.2 7.5h.01M7.2 16.5h.01" fill="none" stroke="#605e5c" stroke-width="1.6" stroke-linecap="round" stroke-linejoin="round"/></g><text x="311.9" y="450.5" font-size="12.5" font-weight="600" fill="#242424">App hosting</text><rect x="394.6" y="438.00" width="64.3" height="18" rx="9" fill="#ffffff" stroke="#a0d8a0" stroke-width="1"/><circle cx="405.6" cy="447.0" r="6" fill="#4c9a2a"/><path d="M402.9 447.0 l1.9 1.9 l3.4 -3.9" fill="none" stroke="#ffffff" stroke-width="1.4" stroke-linecap="round" stroke-linejoin="round"/><text x="414.6" y="450.57" font-size="10.5" fill="#323130">Healthy</text><line x1="278.9" y1="467.0" x2="465.9" y2="467.0" stroke="#e6e4e2"/><circle cx="293.9" cy="482.0" r="6" fill="#4c9a2a"/><path d="M291.2 482.0 l1.9 1.9 l3.4 -3.9" fill="none" stroke="#ffffff" stroke-width="1.4" stroke-linecap="round" stroke-linejoin="round"/><g transform="translate(309.9,475.0) scale(0.875)"><rect x="1.5" y="8" width="2.6" height="6" rx="0.6" fill="#8661c5"/><rect x="5.7" y="4.5" width="2.6" height="9.5" rx="0.6" fill="#0078D4"/><rect x="9.9" y="6.5" width="2.6" height="7.5" rx="0.6" fill="#3fb0ac"/></g><text x="329.9" y="485.5" font-size="10.5" fill="#242424">CPU</text><text x="454.9" y="485.5" font-size="10.5" font-weight="400" fill="#605e5c" text-anchor="end">0</text><line x1="287.9" y1="491.0" x2="456.9" y2="491.0" stroke="#e6e4e2" stroke-opacity="0.7"/><circle cx="293.9" cy="500.0" r="6" fill="#4c9a2a"/><path d="M291.2 500.0 l1.9 1.9 l3.4 -3.9" fill="none" stroke="#ffffff" stroke-width="1.4" stroke-linecap="round" stroke-linejoin="round"/><g transform="translate(309.9,493.0) scale(0.875)"><rect x="1.5" y="8" width="2.6" height="6" rx="0.6" fill="#8661c5"/><rect x="5.7" y="4.5" width="2.6" height="9.5" rx="0.6" fill="#0078D4"/><rect x="9.9" y="6.5" width="2.6" height="7.5" rx="0.6" fill="#3fb0ac"/></g><text x="329.9" y="503.5" font-size="10.5" fill="#242424">Memory</text><text x="454.9" y="503.5" font-size="10.5" font-weight="400" fill="#605e5c" text-anchor="end">1</text><line x1="287.9" y1="509.0" x2="456.9" y2="509.0" stroke="#e6e4e2" stroke-opacity="0.7"/><circle cx="293.9" cy="518.0" r="6" fill="#4c9a2a"/><path d="M291.2 518.0 l1.9 1.9 l3.4 -3.9" fill="none" stroke="#ffffff" stroke-width="1.4" stroke-linecap="round" stroke-linejoin="round"/><g transform="translate(309.9,511.0) scale(0.875)"><rect x="1.5" y="8" width="2.6" height="6" rx="0.6" fill="#8661c5"/><rect x="5.7" y="4.5" width="2.6" height="9.5" rx="0.6" fill="#0078D4"/><rect x="9.9" y="6.5" width="2.6" height="7.5" rx="0.6" fill="#3fb0ac"/></g><text x="329.9" y="521.5" font-size="10.5" fill="#242424">Restart count</text><text x="454.9" y="521.5" font-size="10.5" font-weight="400" fill="#605e5c" text-anchor="end">0</text>
<g filter="url(#cs)"><rect x="496.9" y="430.0" width="176" height="103" rx="10" fill="#f2f8f2" stroke="#a0d8a0" stroke-width="2"/></g><g transform="translate(502.9,437.16) scale(0.82)"><ellipse cx="12" cy="6" rx="7" ry="2.8" fill="none" stroke="#605e5c" stroke-width="1.6" stroke-linecap="round" stroke-linejoin="round"/><path d="M5 6v12c0 1.55 3.13 2.8 7 2.8s7-1.25 7-2.8V6" fill="none" stroke="#605e5c" stroke-width="1.6" stroke-linecap="round" stroke-linejoin="round"/><path d="M5 12c0 1.55 3.13 2.8 7 2.8s7-1.25 7-2.8" fill="none" stroke="#605e5c" stroke-width="1.6" stroke-linecap="round" stroke-linejoin="round"/></g><text x="530.9" y="450.5" font-size="12.5" font-weight="600" fill="#242424">Database</text><rect x="600.6" y="438.00" width="64.3" height="18" rx="9" fill="#ffffff" stroke="#a0d8a0" stroke-width="1"/><circle cx="611.6" cy="447.0" r="6" fill="#4c9a2a"/><path d="M608.9 447.0 l1.9 1.9 l3.4 -3.9" fill="none" stroke="#ffffff" stroke-width="1.4" stroke-linecap="round" stroke-linejoin="round"/><text x="620.6" y="450.57" font-size="10.5" fill="#323130">Healthy</text><line x1="497.9" y1="467.0" x2="671.9" y2="467.0" stroke="#e6e4e2"/><circle cx="512.9" cy="482.0" r="6" fill="#4c9a2a"/><path d="M510.2 482.0 l1.9 1.9 l3.4 -3.9" fill="none" stroke="#ffffff" stroke-width="1.4" stroke-linecap="round" stroke-linejoin="round"/><g transform="translate(528.9,475.0) scale(0.875)"><rect x="1.5" y="8" width="2.6" height="6" rx="0.6" fill="#8661c5"/><rect x="5.7" y="4.5" width="2.6" height="9.5" rx="0.6" fill="#0078D4"/><rect x="9.9" y="6.5" width="2.6" height="7.5" rx="0.6" fill="#3fb0ac"/></g><text x="548.9" y="485.5" font-size="10.5" fill="#242424">Connection</text><text x="660.9" y="485.5" font-size="10.5" font-weight="400" fill="#605e5c" text-anchor="end">2</text><line x1="506.9" y1="491.0" x2="662.9" y2="491.0" stroke="#e6e4e2" stroke-opacity="0.7"/><circle cx="512.9" cy="500.0" r="6" fill="#4c9a2a"/><path d="M510.2 500.0 l1.9 1.9 l3.4 -3.9" fill="none" stroke="#ffffff" stroke-width="1.4" stroke-linecap="round" stroke-linejoin="round"/><g transform="translate(528.9,493.0) scale(0.875)"><rect x="1.5" y="8" width="2.6" height="6" rx="0.6" fill="#8661c5"/><rect x="5.7" y="4.5" width="2.6" height="9.5" rx="0.6" fill="#0078D4"/><rect x="9.9" y="6.5" width="2.6" height="7.5" rx="0.6" fill="#3fb0ac"/></g><text x="548.9" y="503.5" font-size="10.5" fill="#242424">DTU utilization</text><text x="660.9" y="503.5" font-size="10.5" font-weight="400" fill="#605e5c" text-anchor="end">0</text><line x1="506.9" y1="509.0" x2="662.9" y2="509.0" stroke="#e6e4e2" stroke-opacity="0.7"/><circle cx="512.9" cy="518.0" r="6" fill="#4c9a2a"/><path d="M510.2 518.0 l1.9 1.9 l3.4 -3.9" fill="none" stroke="#ffffff" stroke-width="1.4" stroke-linecap="round" stroke-linejoin="round"/><g transform="translate(528.9,511.0) scale(0.875)"><rect x="1.5" y="8" width="2.6" height="6" rx="0.6" fill="#8661c5"/><rect x="5.7" y="4.5" width="2.6" height="9.5" rx="0.6" fill="#0078D4"/><rect x="9.9" y="6.5" width="2.6" height="7.5" rx="0.6" fill="#3fb0ac"/></g><text x="548.9" y="521.5" font-size="10.5" fill="#242424">Failed connections</text><text x="660.9" y="521.5" font-size="10.5" font-weight="400" fill="#605e5c" text-anchor="end">2</text>
<g filter="url(#cs)"><rect x="258.9" y="593.0" width="206" height="103" rx="10" fill="#f2f8f2" stroke="#a0d8a0" stroke-width="2"/></g><g transform="translate(264.9,600.16) scale(0.82)"><ellipse cx="12" cy="6" rx="7" ry="2.8" fill="none" stroke="#605e5c" stroke-width="1.6" stroke-linecap="round" stroke-linejoin="round"/><path d="M5 6v12c0 1.55 3.13 2.8 7 2.8s7-1.25 7-2.8V6" fill="none" stroke="#605e5c" stroke-width="1.6" stroke-linecap="round" stroke-linejoin="round"/><path d="M5 12c0 1.55 3.13 2.8 7 2.8s7-1.25 7-2.8" fill="none" stroke="#605e5c" stroke-width="1.6" stroke-linecap="round" stroke-linejoin="round"/></g><text x="292.9" y="613.5" font-size="12.5" font-weight="600" fill="#242424">Analytics store</text><rect x="392.6" y="601.00" width="64.3" height="18" rx="9" fill="#ffffff" stroke="#a0d8a0" stroke-width="1"/><circle cx="403.6" cy="610.0" r="6" fill="#4c9a2a"/><path d="M400.9 610.0 l1.9 1.9 l3.4 -3.9" fill="none" stroke="#ffffff" stroke-width="1.4" stroke-linecap="round" stroke-linejoin="round"/><text x="412.6" y="613.57" font-size="10.5" fill="#323130">Healthy</text><line x1="259.9" y1="630.0" x2="463.9" y2="630.0" stroke="#e6e4e2"/><circle cx="274.9" cy="645.0" r="6" fill="#4c9a2a"/><path d="M272.2 645.0 l1.9 1.9 l3.4 -3.9" fill="none" stroke="#ffffff" stroke-width="1.4" stroke-linecap="round" stroke-linejoin="round"/><g transform="translate(290.9,638.0) scale(0.875)"><rect x="1.5" y="8" width="2.6" height="6" rx="0.6" fill="#8661c5"/><rect x="5.7" y="4.5" width="2.6" height="9.5" rx="0.6" fill="#0078D4"/><rect x="9.9" y="6.5" width="2.6" height="7.5" rx="0.6" fill="#3fb0ac"/></g><text x="310.9" y="648.5" font-size="10.5" fill="#242424">Pipeline lag</text><text x="452.9" y="648.5" font-size="10.5" font-weight="400" fill="#605e5c" text-anchor="end">0</text><line x1="268.9" y1="654.0" x2="454.9" y2="654.0" stroke="#e6e4e2" stroke-opacity="0.7"/><circle cx="274.9" cy="663.0" r="6" fill="#4c9a2a"/><path d="M272.2 663.0 l1.9 1.9 l3.4 -3.9" fill="none" stroke="#ffffff" stroke-width="1.4" stroke-linecap="round" stroke-linejoin="round"/><g transform="translate(290.9,656.0) scale(0.875)"><rect x="1.5" y="8" width="2.6" height="6" rx="0.6" fill="#8661c5"/><rect x="5.7" y="4.5" width="2.6" height="9.5" rx="0.6" fill="#0078D4"/><rect x="9.9" y="6.5" width="2.6" height="7.5" rx="0.6" fill="#3fb0ac"/></g><text x="310.9" y="666.5" font-size="10.5" fill="#242424">Ingestion errors</text><text x="452.9" y="666.5" font-size="10.5" font-weight="400" fill="#605e5c" text-anchor="end">0</text><line x1="268.9" y1="672.0" x2="454.9" y2="672.0" stroke="#e6e4e2" stroke-opacity="0.7"/><circle cx="274.9" cy="681.0" r="6" fill="#4c9a2a"/><path d="M272.2 681.0 l1.9 1.9 l3.4 -3.9" fill="none" stroke="#ffffff" stroke-width="1.4" stroke-linecap="round" stroke-linejoin="round"/><g transform="translate(290.9,674.0) scale(0.875)"><rect x="1.5" y="8" width="2.6" height="6" rx="0.6" fill="#8661c5"/><rect x="5.7" y="4.5" width="2.6" height="9.5" rx="0.6" fill="#0078D4"/><rect x="9.9" y="6.5" width="2.6" height="7.5" rx="0.6" fill="#3fb0ac"/></g><text x="310.9" y="684.5" font-size="10.5" fill="#242424">Data freshness</text><text x="452.9" y="684.5" font-size="10.5" font-weight="400" fill="#605e5c" text-anchor="end">1</text>
<g filter="url(#cs)"><rect x="137.9" y="752.0" width="201" height="103" rx="10" fill="#fbf2e7" stroke="#db7500" stroke-width="2"/></g><g transform="translate(143.9,759.16) scale(0.82)"><rect x="4" y="5" width="16" height="3" rx="1" fill="none" stroke="#605e5c" stroke-width="1.6" stroke-linecap="round" stroke-linejoin="round"/><rect x="4" y="10.5" width="16" height="3" rx="1" fill="none" stroke="#605e5c" stroke-width="1.6" stroke-linecap="round" stroke-linejoin="round"/><rect x="4" y="16" width="10" height="3" rx="1" fill="none" stroke="#605e5c" stroke-width="1.6" stroke-linecap="round" stroke-linejoin="round"/></g><text x="171.9" y="772.5" font-size="12.5" font-weight="600" fill="#242424">Order queue</text><rect x="255.9" y="760.00" width="75.0" height="18" rx="9" fill="#ffffff" stroke="#db7500" stroke-width="1"/><circle cx="266.9" cy="769.0" r="6" fill="#c26a00"/><text x="275.9" y="772.57" font-size="10.5" fill="#323130">Degraded</text><line x1="138.9" y1="789.0" x2="337.9" y2="789.0" stroke="#e6e4e2"/><circle cx="153.9" cy="804.0" r="6" fill="#c26a00"/><g transform="translate(169.9,797.0) scale(0.875)"><rect x="1.5" y="8" width="2.6" height="6" rx="0.6" fill="#8661c5"/><rect x="5.7" y="4.5" width="2.6" height="9.5" rx="0.6" fill="#0078D4"/><rect x="9.9" y="6.5" width="2.6" height="7.5" rx="0.6" fill="#3fb0ac"/></g><text x="189.9" y="807.5" font-size="10.5" fill="#242424">Queue depth</text><text x="326.9" y="807.5" font-size="10.5" font-weight="600" fill="#c26a00" text-anchor="end">18</text><line x1="147.9" y1="813.0" x2="328.9" y2="813.0" stroke="#e6e4e2" stroke-opacity="0.7"/><circle cx="153.9" cy="822.0" r="6" fill="#4c9a2a"/><path d="M151.2 822.0 l1.9 1.9 l3.4 -3.9" fill="none" stroke="#ffffff" stroke-width="1.4" stroke-linecap="round" stroke-linejoin="round"/><g transform="translate(169.9,815.0) scale(0.875)"><rect x="1.5" y="8" width="2.6" height="6" rx="0.6" fill="#8661c5"/><rect x="5.7" y="4.5" width="2.6" height="9.5" rx="0.6" fill="#0078D4"/><rect x="9.9" y="6.5" width="2.6" height="7.5" rx="0.6" fill="#3fb0ac"/></g><text x="189.9" y="825.5" font-size="10.5" fill="#242424">Oldest message age</text><text x="326.9" y="825.5" font-size="10.5" font-weight="400" fill="#605e5c" text-anchor="end">0</text><line x1="147.9" y1="831.0" x2="328.9" y2="831.0" stroke="#e6e4e2" stroke-opacity="0.7"/><circle cx="153.9" cy="840.0" r="6" fill="#4c9a2a"/><path d="M151.2 840.0 l1.9 1.9 l3.4 -3.9" fill="none" stroke="#ffffff" stroke-width="1.4" stroke-linecap="round" stroke-linejoin="round"/><g transform="translate(169.9,833.0) scale(0.875)"><rect x="1.5" y="8" width="2.6" height="6" rx="0.6" fill="#8661c5"/><rect x="5.7" y="4.5" width="2.6" height="9.5" rx="0.6" fill="#0078D4"/><rect x="9.9" y="6.5" width="2.6" height="7.5" rx="0.6" fill="#3fb0ac"/></g><text x="189.9" y="843.5" font-size="10.5" fill="#242424">Dead-letter count</text><text x="326.9" y="843.5" font-size="10.5" font-weight="400" fill="#605e5c" text-anchor="end">2</text>
<g filter="url(#cs)"><rect x="368.9" y="752.0" width="217" height="103" rx="10" fill="#f2f8f2" stroke="#a0d8a0" stroke-width="2"/></g><g transform="translate(374.9,759.16) scale(0.82)"><path d="M12 3.2l7.6 4.4v8.8L12 20.8l-7.6-4.4V7.6z" fill="none" stroke="#605e5c" stroke-width="1.6" stroke-linecap="round" stroke-linejoin="round"/><path d="M4.6 7.8l7.4 4.3 7.4-4.3M12 12.1v8.6" fill="none" stroke="#605e5c" stroke-width="1.6" stroke-linecap="round" stroke-linejoin="round"/></g><text x="402.9" y="772.5" font-size="12.5" font-weight="600" fill="#242424">Shipping service</text><rect x="513.6" y="760.00" width="64.3" height="18" rx="9" fill="#ffffff" stroke="#a0d8a0" stroke-width="1"/><circle cx="524.6" cy="769.0" r="6" fill="#4c9a2a"/><path d="M521.9 769.0 l1.9 1.9 l3.4 -3.9" fill="none" stroke="#ffffff" stroke-width="1.4" stroke-linecap="round" stroke-linejoin="round"/><text x="533.6" y="772.57" font-size="10.5" fill="#323130">Healthy</text><line x1="369.9" y1="789.0" x2="584.9" y2="789.0" stroke="#e6e4e2"/><circle cx="384.9" cy="804.0" r="6" fill="#4c9a2a"/><path d="M382.2 804.0 l1.9 1.9 l3.4 -3.9" fill="none" stroke="#ffffff" stroke-width="1.4" stroke-linecap="round" stroke-linejoin="round"/><g transform="translate(400.9,797.0) scale(0.875)"><rect x="1.5" y="8" width="2.6" height="6" rx="0.6" fill="#8661c5"/><rect x="5.7" y="4.5" width="2.6" height="9.5" rx="0.6" fill="#0078D4"/><rect x="9.9" y="6.5" width="2.6" height="7.5" rx="0.6" fill="#3fb0ac"/></g><text x="420.9" y="807.5" font-size="10.5" fill="#242424">Carrier API availability</text><text x="573.9" y="807.5" font-size="10.5" font-weight="400" fill="#605e5c" text-anchor="end">2</text><line x1="378.9" y1="813.0" x2="575.9" y2="813.0" stroke="#e6e4e2" stroke-opacity="0.7"/><circle cx="384.9" cy="822.0" r="6" fill="#4c9a2a"/><path d="M382.2 822.0 l1.9 1.9 l3.4 -3.9" fill="none" stroke="#ffffff" stroke-width="1.4" stroke-linecap="round" stroke-linejoin="round"/><g transform="translate(400.9,815.0) scale(0.875)"><rect x="1.5" y="8" width="2.6" height="6" rx="0.6" fill="#8661c5"/><rect x="5.7" y="4.5" width="2.6" height="9.5" rx="0.6" fill="#0078D4"/><rect x="9.9" y="6.5" width="2.6" height="7.5" rx="0.6" fill="#3fb0ac"/></g><text x="420.9" y="825.5" font-size="10.5" fill="#242424">Carrier API latency</text><text x="573.9" y="825.5" font-size="10.5" font-weight="400" fill="#605e5c" text-anchor="end">1</text><line x1="378.9" y1="831.0" x2="575.9" y2="831.0" stroke="#e6e4e2" stroke-opacity="0.7"/><circle cx="384.9" cy="840.0" r="6" fill="#4c9a2a"/><path d="M382.2 840.0 l1.9 1.9 l3.4 -3.9" fill="none" stroke="#ffffff" stroke-width="1.4" stroke-linecap="round" stroke-linejoin="round"/><g transform="translate(400.9,833.0) scale(0.875)"><rect x="1.5" y="8" width="2.6" height="6" rx="0.6" fill="#8661c5"/><rect x="5.7" y="4.5" width="2.6" height="9.5" rx="0.6" fill="#0078D4"/><rect x="9.9" y="6.5" width="2.6" height="7.5" rx="0.6" fill="#3fb0ac"/></g><text x="420.9" y="843.5" font-size="10.5" fill="#242424">Error rate</text><text x="573.9" y="843.5" font-size="10.5" font-weight="400" fill="#605e5c" text-anchor="end">1</text>
<g filter="url(#cs)"><rect x="159.6" y="214.0" width="240" height="58" rx="10" fill="#f2f8f2" stroke="#a0d8a0" stroke-width="2"/></g><g transform="translate(165.6,233.16) scale(0.82)"><circle cx="5.5" cy="6" r="2" fill="none" stroke="#605e5c" stroke-width="1.6" stroke-linecap="round" stroke-linejoin="round"/><circle cx="5.5" cy="18" r="2" fill="none" stroke="#605e5c" stroke-width="1.6" stroke-linecap="round" stroke-linejoin="round"/><circle cx="18.5" cy="12" r="2" fill="none" stroke="#605e5c" stroke-width="1.6" stroke-linecap="round" stroke-linejoin="round"/><path d="M7.5 6h3a4 4 0 0 1 4 4M7.5 18h3a4 4 0 0 0 4-4" fill="none" stroke="#605e5c" stroke-width="1.6" stroke-linecap="round" stroke-linejoin="round"/></g><text x="193.6" y="246.5" font-size="12.5" font-weight="600" fill="#242424">Shop and commerce</text><rect x="327.3" y="234.00" width="64.3" height="18" rx="9" fill="#ffffff" stroke="#a0d8a0" stroke-width="1"/><circle cx="338.3" cy="243.0" r="6" fill="#4c9a2a"/><path d="M335.6 243.0 l1.9 1.9 l3.4 -3.9" fill="none" stroke="#ffffff" stroke-width="1.4" stroke-linecap="round" stroke-linejoin="round"/><text x="347.3" y="246.57" font-size="10.5" fill="#323130">Healthy</text>
<g filter="url(#cs)"><rect x="429.6" y="214.0" width="175" height="58" rx="10" fill="#f2f8f2" stroke="#a0d8a0" stroke-width="2"/></g><g transform="translate(435.6,233.16) scale(0.82)"><path d="M4 20h16" fill="none" stroke="#605e5c" stroke-width="1.6" stroke-linecap="round" stroke-linejoin="round"/><path d="M6.5 20v-6M12 20V6.5M17.5 20v-9" fill="none" stroke="#605e5c" stroke-width="1.6" stroke-linecap="round" stroke-linejoin="round"/></g><text x="463.6" y="246.5" font-size="12.5" font-weight="600" fill="#242424">Reporting</text><rect x="532.3" y="234.00" width="64.3" height="18" rx="9" fill="#ffffff" stroke="#a0d8a0" stroke-width="1"/><circle cx="543.3" cy="243.0" r="6" fill="#4c9a2a"/><path d="M540.6 243.0 l1.9 1.9 l3.4 -3.9" fill="none" stroke="#ffffff" stroke-width="1.4" stroke-linecap="round" stroke-linejoin="round"/><text x="552.3" y="246.57" font-size="10.5" fill="#323130">Healthy</text>
<g filter="url(#cs)"><rect x="291.1" y="304.0" width="182" height="58" rx="10" fill="#fbf2e7" stroke="#db7500" stroke-width="2"/></g><g transform="translate(297.1,323.16) scale(0.82)"><path d="M12 3.2l7.6 4.4v8.8L12 20.8l-7.6-4.4V7.6z" fill="none" stroke="#605e5c" stroke-width="1.6" stroke-linecap="round" stroke-linejoin="round"/><path d="M4.6 7.8l7.4 4.3 7.4-4.3M12 12.1v8.6" fill="none" stroke="#605e5c" stroke-width="1.6" stroke-linecap="round" stroke-linejoin="round"/></g><text x="325.1" y="336.5" font-size="12.5" font-weight="600" fill="#242424">Logistics</text><rect x="390.1" y="324.00" width="75.0" height="18" rx="9" fill="#ffffff" stroke="#db7500" stroke-width="1"/><circle cx="401.1" cy="333.0" r="6" fill="#c26a00"/><text x="410.1" y="336.57" font-size="10.5" fill="#323130">Degraded</text>
<g filter="url(#cs)"><rect x="285.9" y="96.0" width="212" height="58" rx="10" fill="#fbf2e7" stroke="#db7500" stroke-width="2"/></g><g transform="translate(291.9,115.16) scale(0.82)"><circle cx="12" cy="12" r="8.4" fill="none" stroke="#605e5c" stroke-width="1.6" stroke-linecap="round" stroke-linejoin="round"/><path d="M4.2 12h3l2-3.6 2.8 7.2 1.8-3.6h4" fill="none" stroke="#605e5c" stroke-width="1.6" stroke-linecap="round" stroke-linejoin="round"/></g><text x="319.9" y="128.5" font-size="12.5" font-weight="600" fill="#242424">Workload root</text><rect x="414.9" y="116.00" width="75.0" height="18" rx="9" fill="#ffffff" stroke="#db7500" stroke-width="1"/><circle cx="425.9" cy="125.0" r="6" fill="#c26a00"/><text x="434.9" y="128.57" font-size="10.5" fill="#323130">Degraded</text>
</g></svg>