<svg xmlns="http://www.w3.org/2000/svg" width="1590" height="507" viewBox="0 0 1590 507" font-family="Segoe UI, -apple-system, BlinkMacSystemFont, Helvetica, Arial, sans-serif">
<defs><filter id="cs" x="-20%" y="-20%" width="140%" height="140%"><feDropShadow dx="0" dy="1" stdDeviation="1.3" flood-color="#000" flood-opacity="0.1"/></filter></defs>
<rect width="1590" height="507" fill="#ffffff"/>
<rect x="0" y="78.0" width="1590" height="114.0" fill="#ffffff"/>
<line x1="0" y1="78.0" x2="1590" y2="78.0" stroke="#e6e4e2"/>
<text x="1424.0" y="139.5" font-size="13" font-weight="700" fill="#323130">Workload root</text>
<rect x="0" y="192.0" width="1590" height="114.0" fill="#faf9f8"/>
<line x1="0" y1="192.0" x2="1590" y2="192.0" stroke="#e6e4e2"/>
<text x="1424.0" y="253.5" font-size="13" font-weight="700" fill="#323130">Business &amp; user flows</text>
<rect x="0" y="306.0" width="1590" height="135.0" fill="#ffffff"/>
<line x1="0" y1="306.0" x2="1590" y2="306.0" stroke="#e6e4e2"/>
<text x="1424.0" y="369.5" font-size="13" font-weight="700" fill="#323130">Application</text>
<text x="1424.0" y="386.5" font-size="13" font-weight="700" fill="#323130">components</text>
<line x1="0" y1="458.5" x2="1590" y2="458.5" stroke="#e6e4e2"/>
<text x="40" y="34" font-size="18" font-weight="700" fill="#242424">diagram</text>
<text x="40" y="52" font-size="12" fill="#605e5c">Signals live inside each entity; health rolls up to the workload root.</text>
<text x="40.0" y="497.0" font-size="11.5" font-weight="600" fill="#605e5c">Legend</text>
<circle cx="99.7" cy="493.0" r="4.5" fill="#4c9a2a"/>
<text x="109.7" y="497.0" font-size="11.5" fill="#323130">Healthy</text>
<circle cx="165.5" cy="493.0" r="4.5" fill="#c26a00"/>
<text x="175.5" y="497.0" font-size="11.5" fill="#323130">Degraded</text>
<circle cx="243.0" cy="493.0" r="4.5" fill="#c50f18"/>
<text x="253.0" y="497.0" font-size="11.5" fill="#323130">Unhealthy</text>
<circle cx="321.8" cy="493.0" r="4.5" fill="#8a8886"/>
<text x="331.8" y="497.0" font-size="11.5" fill="#323130">Unknown</text>
<g transform="translate(390.7,486.0) scale(0.875)"><rect x="1.5" y="8" width="2.6" height="6" rx="0.6" fill="#8661c5"/><rect x="5.7" y="4.5" width="2.6" height="9.5" rx="0.6" fill="#0078D4"/><rect x="9.9" y="6.5" width="2.6" height="7.5" rx="0.6" fill="#3fb0ac"/></g>
<text x="408.7" y="497.0" font-size="11.5" fill="#323130">Metric</text>
<g transform="translate(40.0,0)">
<g fill="none" stroke-linecap="butt" stroke-linejoin="round">
<path d="M98.5 324.0 L98.5 295.0 Q98.5 288.0 105.5 288.0 L294.2 288.0 Q301.2 288.0 301.2 281.0 L301.2 268.0" stroke="#a0d8a0" stroke-width="1.7"/>
<path d="M404.0 324.0 L404.0 268.0" stroke="#a0d8a0" stroke-width="1.7"/>
<path d="M458.0 324.0 L458.0 268.0" stroke="#a0d8a0" stroke-width="1.7"/>
<path d="M610.0 324.0 L610.0 268.0" stroke="#a0d8a0" stroke-width="1.7"/>
<path d="M664.0 324.0 L664.0 268.0" stroke="#a0d8a0" stroke-width="1.7"/>
<path d="M1227.5 324.0 L1227.5 295.0 Q1227.5 288.0 1220.5 288.0 L1047.6 288.0 Q1040.6 288.0 1040.6 281.0 L1040.6 268.0" stroke="#a0d8a0" stroke-width="1.7"/>
<path d="M963.6 324.0 L963.6 268.0" stroke="#db7500" stroke-width="1.7"/>
<path d="M407.2 210.0 L407.2 181.0 Q407.2 174.0 414.2 174.0 L580.1 174.0 Q587.1 174.0 587.1 167.0 L587.1 154.0" stroke="#a0d8a0" stroke-width="1.7"/>
<path d="M675.1 210.0 L675.1 154.0" stroke="#a0d8a0" stroke-width="1.7"/>
<path d="M963.6 210.0 L963.6 181.0 Q963.6 174.0 956.6 174.0 L774.1 174.0 Q767.1 174.0 767.1 167.0 L767.1 154.0" stroke="#db7500" stroke-width="1.7"/>
</g>
<g filter="url(#cs)"><rect x="0.0" y="324.0" width="197" height="103" rx="10" fill="#f2f8f2" stroke="#a0d8a0" stroke-width="2"/></g><g transform="translate(6.0,331.16) scale(0.82)"><circle cx="12" cy="12" r="8.4" fill="none" stroke="#605e5c" stroke-width="1.6" stroke-linecap="round" stroke-linejoin="round"/><path d="M3.6 12h16.8M12 3.6c3 3 3 13.8 0 16.8M12 3.6c-3 3-3 13.8 0 16.8" fill="none" stroke="#605e5c" stroke-width="1.6" stroke-linecap="round" stroke-linejoin="round"/></g><text x="34.0" y="344.5" font-size="12.5" font-weight="600" fill="#242424">Web frontend</text><rect x="124.7" y="332.00" width="64.3" height="18" rx="9" fill="#ffffff" stroke="#a0d8a0" stroke-width="1"/><circle cx="135.7" cy="341.0" r="6" fill="#4c9a2a"/><path d="M133.0 341.0 l1.9 1.9 l3.4 -3.9" fill="none" stroke="#ffffff" stroke-width="1.4" stroke-linecap="round" stroke-linejoin="round"/><text x="144.7" y="344.57" font-size="10.5" fill="#323130">Healthy</text><line x1="1.0" y1="361.0" x2="196.0" y2="361.0" stroke="#e6e4e2"/><circle cx="16.0" cy="376.0" r="6" fill="#4c9a2a"/><path d="M13.3 376.0 l1.9 1.9 l3.4 -3.9" fill="none" stroke="#ffffff" stroke-width="1.4" stroke-linecap="round" stroke-linejoin="round"/><g transform="translate(32.0,369.0) scale(0.875)"><rect x="1.5" y="8" width="2.6" height="6" rx="0.6" fill="#8661c5"/><rect x="5.7" y="4.5" width="2.6" height="9.5" rx="0.6" fill="#0078D4"/><rect x="9.9" y="6.5" width="2.6" height="7.5" rx="0.6" fill="#3fb0ac"/></g><text x="52.0" y="379.5" font-size="10.5" fill="#242424">Web latency</text><text x="185.0" y="379.5" font-size="10.5" font-weight="400" fill="#605e5c" text-anchor="end">2</text><line x1="10.0" y1="385.0" x2="187.0" y2="385.0" stroke="#e6e4e2" stroke-opacity="0.7"/><circle cx="16.0" cy="394.0" r="6" fill="#4c9a2a"/><path d="M13.3 394.0 l1.9 1.9 l3.4 -3.9" fill="none" stroke="#ffffff" stroke-width="1.4" stroke-linecap="round" stroke-linejoin="round"/><g transform="translate(32.0,387.0) scale(0.875)"><rect x="1.5" y="8" width="2.6" height="6" rx="0.6" fill="#8661c5"/><rect x="5.7" y="4.5" width="2.6" height="9.5" rx="0.6" fill="#0078D4"/><rect x="9.9" y="6.5" width="2.6" height="7.5" rx="0.6" fill="#3fb0ac"/></g><text x="52.0" y="397.5" font-size="10.5" fill="#242424">HTTP 5xx rate</text><text x="185.0" y="397.5" font-size="10.5" font-weight="400" fill="#605e5c" text-anchor="end">1</text><line x1="10.0" y1="403.0" x2="187.0" y2="403.0" stroke="#e6e4e2" stroke-opacity="0.7"/><circle cx="16.0" cy="412.0" r="6" fill="#4c9a2a"/><path d="M13.3 412.0 l1.9 1.9 l3.4 -3.9" fill="none" stroke="#ffffff" stroke-width="1.4" stroke-linecap="round" stroke-linejoin="round"/><g transform="translate(32.0,405.0) scale(0.875)"><rect x="1.5" y="8" width="2.6" height="6" rx="0.6" fill="#8661c5"/><rect x="5.7" y="4.5" width="2.6" height="9.5" rx="0.6" fill="#0078D4"/><rect x="9.9" y="6.5" width="2.6" height="7.5" rx="0.6" fill="#3fb0ac"/></g><text x="52.0" y="415.5" font-size="10.5" fill="#242424">Request rate</text><text x="185.0" y="415.5" font-size="10.5" font-weight="400" fill="#605e5c" text-anchor="end">2</text>
<g filter="url(#cs)"><rect x="227.0" y="324.0" width="189" height="103" rx="10" fill="#f2f8f2" stroke="#a0d8a0" stroke-width="2"/></g><g transform="translate(233.0,331.16) scale(0.82)"><rect x="4" y="4.5" width="16" height="6" rx="1.2" fill="none" stroke="#605e5c" stroke-width="1.6" stroke-linecap="round" stroke-linejoin="round"/><rect x="4" y="13.5" width="16" height="6" rx="1.2" fill="none" stroke="#605e5c" stroke-width="1.6" stroke-linecap="round" stroke-linejoin="round"/><path d="M7.2 7.5h.01M7.2 16.5h.01" fill="none" stroke="#605e5c" stroke-width="1.6" stroke-linecap="round" stroke-linejoin="round"/></g><text x="261.0" y="344.5" font-size="12.5" font-weight="600" fill="#242424">App hosting</text><rect x="343.7" y="332.00" width="64.3" height="18" rx="9" fill="#ffffff" stroke="#a0d8a0" stroke-width="1"/><circle cx="354.7" cy="341.0" r="6" fill="#4c9a2a"/><path d="M352.0 341.0 l1.9 1.9 l3.4 -3.9" fill="none" stroke="#ffffff" stroke-width="1.4" stroke-linecap="round" stroke-linejoin="round"/><text x="363.7" y="344.57" font-size="10.5" fill="#323130">Healthy</text><line x1="228.0" y1="361.0" x2="415.0" y2="361.0" stroke="#e6e4e2"/><circle cx="243.0" cy="376.0" r="6" fill="#4c9a2a"/><path d="M240.3 376.0 l1.9 1.9 l3.4 -3.9" fill="none" stroke="#ffffff" stroke-width="1.4" stroke-linecap="round" stroke-linejoin="round"/><g transform="translate(259.0,369.0) scale(0.875)"><rect x="1.5" y="8" width="2.6" height="6" rx="0.6" fill="#8661c5"/><rect x="5.7" y="4.5" width="2.6" height="9.5" rx="0.6" fill="#0078D4"/><rect x="9.9" y="6.5" width="2.6" height="7.5" rx="0.6" fill="#3fb0ac"/></g><text x="279.0" y="379.5" font-size="10.5" fill="#242424">CPU</text><text x="404.0" y="379.5" font-size="10.5" font-weight="400" fill="#605e5c" text-anchor="end">0</text><line x1="237.0" y1="385.0" x2="406.0" y2="385.0" stroke="#e6e4e2" stroke-opacity="0.7"/><circle cx="243.0" cy="394.0" r="6" fill="#4c9a2a"/><path d="M240.3 394.0 l1.9 1.9 l3.4 -3.9" fill="none" stroke="#ffffff" stroke-width="1.4" stroke-linecap="round" stroke-linejoin="round"/><g transform="translate(259.0,387.0) scale(0.875)"><rect x="1.5" y="8" width="2.6" height="6" rx="0.6" fill="#8661c5"/><rect x="5.7" y="4.5" width="2.6" height="9.5" rx="0.6" fill="#0078D4"/><rect x="9.9" y="6.5" width="2.6" height="7.5" rx="0.6" fill="#3fb0ac"/></g><text x="279.0" y="397.5" font-size="10.5" fill="#242424">Memory</text><text x="404.0" y="397.5" font-size="10.5" font-weight="400" fill="#605e5c" text-anchor="end">1</text><line x1="237.0" y1="403.0" x2="406.0" y2="403.0" stroke="#e6e4e2" stroke-opacity="0.7"/><circle cx="243.0" cy="412.0" r="6" fill="#4c9a2a"/><path d="M240.3 412.0 l1.9 1.9 l3.4 -3.9" fill="none" stroke="#ffffff" stroke-width="1.4" stroke-linecap="round" stroke-linejoin="round"/><g transform="translate(259.0,405.0) scale(0.875)"><rect x="1.5" y="8" width="2.6" height="6" rx="0.6" fill="#8661c5"/><rect x="5.7" y="4.5" width="2.6" height="9.5" rx="0.6" fill="#0078D4"/><rect x="9.9" y="6.5" width="2.6" height="7.5" rx="0.6" fill="#3fb0ac"/></g><text x="279.0" y="415.5" font-size="10.5" fill="#242424">Restart count</text><text x="404.0" y="415.5" font-size="10.5" font-weight="400" fill="#605e5c" text-anchor="end">0</text>
<g filter="url(#cs)"><rect x="446.0" y="324.0" width="176" height="103" rx="10" fill="#f2f8f2" stroke="#a0d8a0" stroke-width="2"/></g><g transform="translate(452.0,331.16) scale(0.82)"><ellipse cx="12" cy="6" rx="7" ry="2.8" fill="none" stroke="#605e5c" stroke-width="1.6" stroke-linecap="round" stroke-linejoin="round"/><path d="M5 6v12c0 1.55 3.13 2.8 7 2.8s7-1.25 7-2.8V6" fill="none" stroke="#605e5c" stroke-width="1.6" stroke-linecap="round" stroke-linejoin="round"/><path d="M5 12c0 1.55 3.13 2.8 7 2.8s7-1.25 7-2.8" fill="none" stroke="#605e5c" stroke-width="1.6" stroke-linecap="round" stroke-linejoin="round"/></g><text x="480.0" y="344.5" font-size="12.5" font-weight="600" fill="#242424">Database</text><rect x="549.7" y="332.00" width="64.3" height="18" rx="9" fill="#ffffff" stroke="#a0d8a0" stroke-width="1"/><circle cx="560.7" cy="341.0" r="6" fill="#4c9a2a"/><path d="M558.0 341.0 l1.9 1.9 l3.4 -3.9" fill="none" stroke="#ffffff" stroke-width="1.4" stroke-linecap="round" stroke-linejoin="round"/><text x="569.7" y="344.57" font-size="10.5" fill="#323130">Healthy</text><line x1="447.0" y1="361.0" x2="621.0" y2="361.0" stroke="#e6e4e2"/><circle cx="462.0" cy="376.0" r="6" fill="#4c9a2a"/><path d="M459.3 376.0 l1.9 1.9 l3.4 -3.9" fill="none" stroke="#ffffff" stroke-width="1.4" stroke-linecap="round" stroke-linejoin="round"/><g transform="translate(478.0,369.0) scale(0.875)"><rect x="1.5" y="8" width="2.6" height="6" rx="0.6" fill="#8661c5"/><rect x="5.7" y="4.5" width="2.6" height="9.5" rx="0.6" fill="#0078D4"/><rect x="9.9" y="6.5" width="2.6" height="7.5" rx="0.6" fill="#3fb0ac"/></g><text x="498.0" y="379.5" font-size="10.5" fill="#242424">Connection</text><text x="610.0" y="379.5" font-size="10.5" font-weight="400" fill="#605e5c" text-anchor="end">2</text><line x1="456.0" y1="385.0" x2="612.0" y2="385.0" stroke="#e6e4e2" stroke-opacity="0.7"/><circle cx="462.0" cy="394.0" r="6" fill="#4c9a2a"/><path d="M459.3 394.0 l1.9 1.9 l3.4 -3.9" fill="none" stroke="#ffffff" stroke-width="1.4" stroke-linecap="round" stroke-linejoin="round"/><g transform="translate(478.0,387.0) scale(0.875)"><rect x="1.5" y="8" width="2.6" height="6" rx="0.6" fill="#8661c5"/><rect x="5.7" y="4.5" width="2.6" height="9.5" rx="0.6" fill="#0078D4"/><rect x="9.9" y="6.5" width="2.6" height="7.5" rx="0.6" fill="#3fb0ac"/></g><text x="498.0" y="397.5" font-size="10.5" fill="#242424">DTU utilization</text><text x="610.0" y="397.5" font-size="10.5" font-weight="400" fill="#605e5c" text-anchor="end">0</text><line x1="456.0" y1="403.0" x2="612.0" y2="403.0" stroke="#e6e4e2" stroke-opacity="0.7"/><circle cx="462.0" cy="412.0" r="6" fill="#4c9a2a"/><path d="M459.3 412.0 l1.9 1.9 l3.4 -3.9" fill="none" stroke="#ffffff" stroke-width="1.4" stroke-linecap="round" stroke-linejoin="round"/><g transform="translate(478.0,405.0) scale(0.875)"><rect x="1.5" y="8" width="2.6" height="6" rx="0.6" fill="#8661c5"/><rect x="5.7" y="4.5" width="2.6" height="9.5" rx="0.6" fill="#0078D4"/><rect x="9.9" y="6.5" width="2.6" height="7.5" rx="0.6" fill="#3fb0ac"/></g><text x="498.0" y="415.5" font-size="10.5" fill="#242424">Failed connections</text><text x="610.0" y="415.5" font-size="10.5" font-weight="400" fill="#605e5c" text-anchor="end">2</text>
<g filter="url(#cs)"><rect x="652.0" y="324.0" width="206" height="103" rx="10" fill="#f2f8f2" stroke="#a0d8a0" stroke-width="2"/></g><g transform="translate(658.0,331.16) scale(0.82)"><ellipse cx="12" cy="6" rx="7" ry="2.8" fill="none" stroke="#605e5c" stroke-width="1.6" stroke-linecap="round" stroke-linejoin="round"/><path d="M5 6v12c0 1.55 3.13 2.8 7 2.8s7-1.25 7-2.8V6" fill="none" stroke="#605e5c" stroke-width="1.6" stroke-linecap="round" stroke-linejoin="round"/><path d="M5 12c0 1.55 3.13 2.8 7 2.8s7-1.25 7-2.8" fill="none" stroke="#605e5c" stroke-width="1.6" stroke-linecap="round" stroke-linejoin="round"/></g><text x="686.0" y="344.5" font-size="12.5" font-weight="600" fill="#242424">Analytics store</text><rect x="785.7" y="332.00" width="64.3" height="18" rx="9" fill="#ffffff" stroke="#a0d8a0" stroke-width="1"/><circle cx="796.7" cy="341.0" r="6" fill="#4c9a2a"/><path d="M794.0 341.0 l1.9 1.9 l3.4 -3.9" fill="none" stroke="#ffffff" stroke-width="1.4" stroke-linecap="round" stroke-linejoin="round"/><text x="805.7" y="344.57" font-size="10.5" fill="#323130">Healthy</text><line x1="653.0" y1="361.0" x2="857.0" y2="361.0" stroke="#e6e4e2"/><circle cx="668.0" cy="376.0" r="6" fill="#4c9a2a"/><path d="M665.3 376.0 l1.9 1.9 l3.4 -3.9" fill="none" stroke="#ffffff" stroke-width="1.4" stroke-linecap="round" stroke-linejoin="round"/><g transform="translate(684.0,369.0) scale(0.875)"><rect x="1.5" y="8" width="2.6" height="6" rx="0.6" fill="#8661c5"/><rect x="5.7" y="4.5" width="2.6" height="9.5" rx="0.6" fill="#0078D4"/><rect x="9.9" y="6.5" width="2.6" height="7.5" rx="0.6" fill="#3fb0ac"/></g><text x="704.0" y="379.5" font-size="10.5" fill="#242424">Pipeline lag</text><text x="846.0" y="379.5" font-size="10.5" font-weight="400" fill="#605e5c" text-anchor="end">0</text><line x1="662.0" y1="385.0" x2="848.0" y2="385.0" stroke="#e6e4e2" stroke-opacity="0.7"/><circle cx="668.0" cy="394.0" r="6" fill="#4c9a2a"/><path d="M665.3 394.0 l1.9 1.9 l3.4 -3.9" fill="none" stroke="#ffffff" stroke-width="1.4" stroke-linecap="round" stroke-linejoin="round"/><g transform="translate(684.0,387.0) scale(0.875)"><rect x="1.5" y="8" width="2.6" height="6" rx="0.6" fill="#8661c5"/><rect x="5.7" y="4.5" width="2.6" height="9.5" rx="0.6" fill="#0078D4"/><rect x="9.9" y="6.5" width="2.6" height="7.5" rx="0.6" fill="#3fb0ac"/></g><text x="704.0" y="397.5" font-size="10.5" fill="#242424">Ingestion errors</text><text x="846.0" y="397.5" font-size="10.5" font-weight="400" fill="#605e5c" text-anchor="end">0</text><line x1="662.0" y1="403.0" x2="848.0" y2="403.0" stroke="#e6e4e2" stroke-opacity="0.7"/><circle cx="668.0" cy="412.0" r="6" fill="#4c9a2a"/><path d="M665.3 412.0 l1.9 1.9 l3.4 -3.9" fill="none" stroke="#ffffff" stroke-width="1.4" stroke-linecap="round" stroke-linejoin="round"/><g transform="translate(684.0,405.0) scale(0.875)"><rect x="1.5" y="8" width="2.6" height="6" rx="0.6" fill="#8661c5"/><rect x="5.7" y="4.5" width="2.6" height="9.5" rx="0.6" fill="#0078D4"/><rect x="9.9" y="6.5" width="2.6" height="7.5" rx="0.6" fill="#3fb0ac"/></g><text x="704.0" y="415.5" font-size="10.5" fill="#242424">Data freshness</text><text x="846.0" y="415.5" font-size="10.5" font-weight="400" fill="#605e5c" text-anchor="end">1</text>
<g filter="url(#cs)"><rect x="888.0" y="324.0" width="201" height="103" rx="10" fill="#fbf2e7" stroke="#db7500" stroke-width="2"/></g><g transform="translate(894.0,331.16) scale(0.82)"><rect x="4" y="5" width="16" height="3" rx="1" fill="none" stroke="#605e5c" stroke-width="1.6" stroke-linecap="round" stroke-linejoin="round"/><rect x="4" y="10.5" width="16" height="3" rx="1" fill="none" stroke="#605e5c" stroke-width="1.6" stroke-linecap="round" stroke-linejoin="round"/><rect x="4" y="16" width="10" height="3" rx="1" fill="none" stroke="#605e5c" stroke-width="1.6" stroke-linecap="round" stroke-linejoin="round"/></g><text x="922.0" y="344.5" font-size="12.5" font-weight="600" fill="#242424">Order queue</text><rect x="1006.0" y="332.00" width="75.0" height="18" rx="9" fill="#ffffff" stroke="#db7500" stroke-width="1"/><circle cx="1017.0" cy="341.0" r="6" fill="#c26a00"/><text x="1026.0" y="344.57" font-size="10.5" fill="#323130">Degraded</text><line x1="889.0" y1="361.0" x2="1088.0" y2="361.0" stroke="#e6e4e2"/><circle cx="904.0" cy="376.0" r="6" fill="#c26a00"/><g transform="translate(920.0,369.0) scale(0.875)"><rect x="1.5" y="8" width="2.6" height="6" rx="0.6" fill="#8661c5"/><rect x="5.7" y="4.5" width="2.6" height="9.5" rx="0.6" fill="#0078D4"/><rect x="9.9" y="6.5" width="2.6" height="7.5" rx="0.6" fill="#3fb0ac"/></g><text x="940.0" y="379.5" font-size="10.5" fill="#242424">Queue depth</text><text x="1077.0" y="379.5" font-size="10.5" font-weight="600" fill="#c26a00" text-anchor="end">18</text><line x1="898.0" y1="385.0" x2="1079.0" y2="385.0" stroke="#e6e4e2" stroke-opacity="0.7"/><circle cx="904.0" cy="394.0" r="6" fill="#4c9a2a"/><path d="M901.3 394.0 l1.9 1.9 l3.4 -3.9" fill="none" stroke="#ffffff" stroke-width="1.4" stroke-linecap="round" stroke-linejoin="round"/><g transform="translate(920.0,387.0) scale(0.875)"><rect x="1.5" y="8" width="2.6" height="6" rx="0.6" fill="#8661c5"/><rect x="5.7" y="4.5" width="2.6" height="9.5" rx="0.6" fill="#0078D4"/><rect x="9.9" y="6.5" width="2.6" height="7.5" rx="0.6" fill="#3fb0ac"/></g><text x="940.0" y="397.5" font-size="10.5" fill="#242424">Oldest message age</text><text x="1077.0" y="397.5" font-size="10.5" font-weight="400" fill="#605e5c" text-anchor="end">0</text><line x1="898.0" y1="403.0" x2="1079.0" y2="403.0" stroke="#e6e4e2" stroke-opacity="0.7"/><circle cx="904.0" cy="412.0" r="6" fill="#4c9a2a"/><path d="M901.3 412.0 l1.9 1.9 l3.4 -3.9" fill="none" stroke="#ffffff" stroke-width="1.4" stroke-linecap="round" stroke-linejoin="round"/><g transform="translate(920.0,405.0) scale(0.875)"><rect x="1.5" y="8" width="2.6" height="6" rx="0.6" fill="#8661c5"/><rect x="5.7" y="4.5" width="2.6" height="9.5" rx="0.6" fill="#0078D4"/><rect x="9.9" y="6.5" width="2.6" height="7.5" rx="0.6" fill="#3fb0ac"/></g><text x="940.0" y="415.5" font-size="10.5" fill="#242424">Dead-letter count</text><text x="1077.0" y="415.5" font-size="10.5" font-weight="400" fill="#605e5c" text-anchor="end">2</text>
<g filter="url(#cs)"><rect x="1119.0" y="324.0" width="217" height="103" rx="10" fill="#f2f8f2" stroke="#a0d8a0" stroke-width="2"/></g><g transform="translate(1125.0,331.16) scale(0.82)"><path d="M12 3.2l7.6 4.4v8.8L12 20.8l-7.6-4.4V7.6z" fill="none" stroke="#605e5c" stroke-width="1.6" stroke-linecap="round" stroke-linejoin="round"/><path d="M4.6 7.8l7.4 4.3 7.4-4.3M12 12.1v8.6" fill="none" stroke="#605e5c" stroke-width="1.6" stroke-linecap="round" stroke-linejoin="round"/></g><text x="1153.0" y="344.5" font-size="12.5" font-weight="600" fill="#242424">Shipping service</text><rect x="1263.7" y="332.00" width="64.3" height="18" rx="9" fill="#ffffff" stroke="#a0d8a0" stroke-width="1"/><circle cx="1274.7" cy="341.0" r="6" fill="#4c9a2a"/><path d="M1272.0 341.0 l1.9 1.9 l3.4 -3.9" fill="none" stroke="#ffffff" stroke-width="1.4" stroke-linecap="round" stroke-linejoin="round"/><text x="1283.7" y="344.57" font-size="10.5" fill="#323130">Healthy</text><line x1="1120.0" y1="361.0" x2="1335.0" y2="361.0" stroke="#e6e4e2"/><circle cx="1135.0" cy="376.0" r="6" fill="#4c9a2a"/><path d="M1132.3 376.0 l1.9 1.9 l3.4 -3.9" fill="none" stroke="#ffffff" stroke-width="1.4" stroke-linecap="round" stroke-linejoin="round"/><g transform="translate(1151.0,369.0) scale(0.875)"><rect x="1.5" y="8" width="2.6" height="6" rx="0.6" fill="#8661c5"/><rect x="5.7" y="4.5" width="2.6" height="9.5" rx="0.6" fill="#0078D4"/><rect x="9.9" y="6.5" width="2.6" height="7.5" rx="0.6" fill="#3fb0ac"/></g><text x="1171.0" y="379.5" font-size="10.5" fill="#242424">Carrier API availability</text><text x="1324.0" y="379.5" font-size="10.5" font-weight="400" fill="#605e5c" text-anchor="end">2</text><line x1="1129.0" y1="385.0" x2="1326.0" y2="385.0" stroke="#e6e4e2" stroke-opacity="0.7"/><circle cx="1135.0" cy="394.0" r="6" fill="#4c9a2a"/><path d="M1132.3 394.0 l1.9 1.9 l3.4 -3.9" fill="none" stroke="#ffffff" stroke-width="1.4" stroke-linecap="round" stroke-linejoin="round"/><g transform="translate(1151.0,387.0) scale(0.875)"><rect x="1.5" y="8" width="2.6" height="6" rx="0.6" fill="#8661c5"/><rect x="5.7" y="4.5" width="2.6" height="9.5" rx="0.6" fill="#0078D4"/><rect x="9.9" y="6.5" width="2.6" height="7.5" rx="0.6" fill="#3fb0ac"/></g><text x="1171.0" y="397.5" font-size="10.5" fill="#242424">Carrier API latency</text><text x="1324.0" y="397.5" font-size="10.5" font-weight="400" fill="#605e5c" text-anchor="end">1</text><line x1="1129.0" y1="403.0" x2="1326.0" y2="403.0" stroke="#e6e4e2" stroke-opacity="0.7"/><circle cx="1135.0" cy="412.0" r="6" fill="#4c9a2a"/><path d="M1132.3 412.0 l1.9 1.9 l3.4 -3.9" fill="none" stroke="#ffffff" stroke-width="1.4" stroke-linecap="round" stroke-linejoin="round"/><g transform="translate(1151.0,405.0) scale(0.875)"><rect x="1.5" y="8" width="2.6" height="6" rx="0.6" fill="#8661c5"/><rect x="5.7" y="4.5" width="2.6" height="9.5" rx="0.6" fill="#0078D4"/><rect x="9.9" y="6.5" width="2.6" height="7.5" rx="0.6" fill="#3fb0ac"/></g><text x="1171.0" y="415.5" font-size="10.5" fill="#242424">Error rate</text><text x="1324.0" y="415.5" font-size="10.5" font-weight="400" fill="#605e5c" text-anchor="end">1</text>
<g filter="url(#cs)"><rect x="287.2" y="210.0" width="240" height="58" rx="10" fill="#f2f8f2" stroke="#a0d8a0" stroke-width="2"/></g><g transform="translate(293.2,229.16) scale(0.82)"><circle cx="5.5" cy="6" r="2" fill="none" stroke="#605e5c" stroke-width="1.6" stroke-linecap="round" stroke-linejoin="round"/><circle cx="5.5" cy="18" r="2" fill="none" stroke="#605e5c" stroke-width="1.6" stroke-linecap="round" stroke-linejoin="round"/><circle cx="18.5" cy="12" r="2" fill="none" stroke="#605e5c" stroke-width="1.6" stroke-linecap="round" stroke-linejoin="round"/><path d="M7.5 6h3a4 4 0 0 1 4 4M7.5 18h3a4 4 0 0 0 4-4" fill="none" stroke="#605e5c" stroke-width="1.6" stroke-linecap="round" stroke-linejoin="round"/></g><text x="321.2" y="242.5" font-size="12.5" font-weight="600" fill="#242424">Shop and commerce</text><rect x="454.9" y="230.00" width="64.3" height="18" rx="9" fill="#ffffff" stroke="#a0d8a0" stroke-width="1"/><circle cx="465.9" cy="239.0" r="6" fill="#4c9a2a"/><path d="M463.2 239.0 l1.9 1.9 l3.4 -3.9" fill="none" stroke="#ffffff" stroke-width="1.4" stroke-linecap="round" stroke-linejoin="round"/><text x="474.9" y="242.57" font-size="10.5" fill="#323130">Healthy</text>
<g filter="url(#cs)"><rect x="567.1" y="210.0" width="175" height="58" rx="10" fill="#f2f8f2" stroke="#a0d8a0" stroke-width="2"/></g><g transform="translate(573.1,229.16) scale(0.82)"><path d="M4 20h16" fill="none" stroke="#605e5c" stroke-width="1.6" stroke-linecap="round" stroke-linejoin="round"/><path d="M6.5 20v-6M12 20V6.5M17.5 20v-9" fill="none" stroke="#605e5c" stroke-width="1.6" stroke-linecap="round" stroke-linejoin="round"/></g><text x="601.1" y="242.5" font-size="12.5" font-weight="600" fill="#242424">Reporting</text><rect x="669.7" y="230.00" width="64.3" height="18" rx="9" fill="#ffffff" stroke="#a0d8a0" stroke-width="1"/><circle cx="680.7" cy="239.0" r="6" fill="#4c9a2a"/><path d="M678.0 239.0 l1.9 1.9 l3.4 -3.9" fill="none" stroke="#ffffff" stroke-width="1.4" stroke-linecap="round" stroke-linejoin="round"/><text x="689.7" y="242.57" font-size="10.5" fill="#323130">Healthy</text>
<g filter="url(#cs)"><rect x="872.6" y="210.0" width="182" height="58" rx="10" fill="#fbf2e7" stroke="#db7500" stroke-width="2"/></g><g transform="translate(878.6,229.16) scale(0.82)"><path d="M12 3.2l7.6 4.4v8.8L12 20.8l-7.6-4.4V7.6z" fill="none" stroke="#605e5c" stroke-width="1.6" stroke-linecap="round" stroke-linejoin="round"/><path d="M4.6 7.8l7.4 4.3 7.4-4.3M12 12.1v8.6" fill="none" stroke="#605e5c" stroke-width="1.6" stroke-linecap="round" stroke-linejoin="round"/></g><text x="906.6" y="242.5" font-size="12.5" font-weight="600" fill="#242424">Logistics</text><rect x="971.5" y="230.00" width="75.0" height="18" rx="9" fill="#ffffff" stroke="#db7500" stroke-width="1"/><circle cx="982.5" cy="239.0" r="6" fill="#c26a00"/><text x="991.5" y="242.57" font-size="10.5" fill="#323130">Degraded</text>
<g filter="url(#cs)"><rect x="569.1" y="96.0" width="212" height="58" rx="10" fill="#fbf2e7" stroke="#db7500" stroke-width="2"/></g><g transform="translate(575.1,115.16) scale(0.82)"><circle cx="12" cy="12" r="8.4" fill="none" stroke="#605e5c" stroke-width="1.6" stroke-linecap="round" stroke-linejoin="round"/><path d="M4.2 12h3l2-3.6 2.8 7.2 1.8-3.6h4" fill="none" stroke="#605e5c" stroke-width="1.6" stroke-linecap="round" stroke-linejoin="round"/></g><text x="603.1" y="128.5" font-size="12.5" font-weight="600" fill="#242424">Workload root</text><rect x="698.1" y="116.00" width="75.0" height="18" rx="9" fill="#ffffff" stroke="#db7500" stroke-width="1"/><circle cx="709.1" cy="125.0" r="6" fill="#c26a00"/><text x="718.1" y="128.57" font-size="10.5" fill="#323130">Degraded</text>
</g></svg>