<svg xmlns="http://www.w3.org/2000/svg" width="2697" height="584" viewBox="0 0 2697 584" font-family="Segoe UI, -apple-system, BlinkMacSystemFont, Helvetica, Arial, sans-serif">
<defs><filter id="cs" x="-20%" y="-20%" width="140%" height="140%"><feDropShadow dx="0" dy="1" stdDeviation="1.3" flood-color="#000" flood-opacity="0.1"/></filter></defs>
<rect width="2697" height="584" fill="#ffffff"/>
<rect x="0" y="78.0" width="2697" height="145.0" fill="#ffffff"/>
<line x1="0" y1="78.0" x2="2697" y2="78.0" stroke="#e6e4e2"/>
<text x="2534.0" y="155.0" font-size="13" font-weight="700" fill="#323130">Workload root</text>
<rect x="0" y="223.0" width="2697" height="172.0" fill="#faf9f8"/>
<line x1="0" y1="223.0" x2="2697" y2="223.0" stroke="#e6e4e2"/>
<text x="2534.0" y="313.5" font-size="13" font-weight="700" fill="#323130">Business &amp; user flows</text>
<rect x="0" y="395.0" width="2697" height="171.0" fill="#ffffff"/>
<line x1="0" y1="395.0" x2="2697" y2="395.0" stroke="#e6e4e2"/>
<text x="2534.0" y="476.5" font-size="13" font-weight="700" fill="#323130">Application</text>
<text x="2534.0" y="493.5" font-size="13" font-weight="700" fill="#323130">components</text>
<line x1="0" y1="583.5" x2="2697" y2="583.5" stroke="#e6e4e2"/>
<text x="40" y="34" font-size="18" font-weight="700" fill="#242424">Kitchen sink health model</text>
<text x="40" y="52" font-size="12" fill="#605e5c">Signals live inside each entity; health rolls up to the workload root.</text>
<text x="2289.5" y="48" font-size="11.5" font-weight="600" fill="#605e5c" text-anchor="end">Legend</text>
<circle cx="2307.5" cy="44" r="4.5" fill="#4c9a2a"/>
<text x="2317.5" y="48" font-size="11.5" fill="#323130">Healthy</text>
<circle cx="2374.1" cy="44" r="4.5" fill="#c26a00"/>
<text x="2384.1" y="48" font-size="11.5" fill="#323130">Degraded</text>
<circle cx="2452.6" cy="44" r="4.5" fill="#c50f18"/>
<text x="2462.6" y="48" font-size="11.5" fill="#323130">Unhealthy</text>
<circle cx="2532.4" cy="44" r="4.5" fill="#8a8886"/>
<text x="2542.4" y="48" font-size="11.5" fill="#323130">Unknown</text>
<g transform="translate(2602.3,37.0) scale(0.875)"><rect x="1.5" y="8" width="2.6" height="6" rx="0.6" fill="#8661c5"/><rect x="5.7" y="4.5" width="2.6" height="9.5" rx="0.6" fill="#0078D4"/><rect x="9.9" y="6.5" width="2.6" height="7.5" rx="0.6" fill="#3fb0ac"/></g>
<text x="2620.3" y="48" font-size="11.5" fill="#323130">Metric</text>
<g transform="translate(40.0,0)">
<g fill="none" stroke-linecap="butt" stroke-linejoin="round">
<path d="M98.5 413.0 L98.5 353.0 Q98.5 346.0 105.5 346.0 L735.6 346.0 Q742.6 346.0 742.6 339.0 L742.6 299.0" stroke="#a0d8a0" stroke-width="1.7"/>
<path d="M849.1 413.0 L849.1 299.0" stroke="#a0d8a0" stroke-width="1.7"/>
<path d="M324.5 413.0 L324.5 357.0 Q324.5 350.0 331.5 350.0 L745.6 350.0 Q752.6 350.0 752.6 343.0 L752.6 299.0" stroke="#db7500" stroke-width="1.7"/>
<path d="M774.0 413.0 L774.0 353.0 Q774.0 346.0 781.0 346.0 L1006.6 346.0 Q1013.6 346.0 1013.6 339.0 L1013.6 299.0" stroke="#a0d8a0" stroke-width="1.7"/>
<path d="M1087.0 413.0 L1087.0 299.0" stroke="#a0d8a0" stroke-width="1.7"/>
<path d="M1409.8 413.0 L1409.8 299.0" stroke="#a0d8a0" stroke-width="1.7"/>
<path d="M1320.0 413.0 L1320.0 299.0" stroke="#db7500" stroke-width="1.7"/>
<path d="M1844.0 413.0 L1844.0 353.0 Q1844.0 346.0 1837.0 346.0 L1535.3 346.0 Q1528.3 346.0 1528.3 339.0 L1528.3 299.0" stroke="#db7500" stroke-width="1.7"/>
<path d="M2099.0 413.0 L2099.0 353.0 Q2099.0 346.0 2092.0 346.0 L1935.7 346.0 Q1928.7 346.0 1928.7 339.0 L1928.7 299.0" stroke="#a0d8a0" stroke-width="1.7"/>
<path d="M2335.5 413.0 L2335.5 357.0 Q2335.5 350.0 2328.5 350.0 L1941.7 350.0 Q1934.7 350.0 1934.7 343.0 L1934.7 299.0" stroke="#c8c6c4" stroke-width="1.7"/>
<path d="M849.1 241.0 L849.1 185.0 Q849.1 178.0 856.1 178.0 L1067.3 178.0 Q1074.3 178.0 1074.3 171.0 L1074.3 154.0" stroke="#a0d8a0" stroke-width="1.7"/>
<path d="M585.6 241.0 L585.6 181.0 Q585.6 174.0 592.6 174.0 L1057.3 174.0 Q1064.3 174.0 1064.3 167.0 L1064.3 154.0" stroke="#8661c5" stroke-width="1.7"/>
<path d="M1823.2 241.0 L1823.2 185.0 Q1823.2 178.0 1816.2 178.0 L1250.3 178.0 Q1243.3 178.0 1243.3 171.0 L1243.3 154.0" stroke="#c8c6c4" stroke-width="1.7"/>
<path d="M1408.3 241.0 L1408.3 181.0 Q1408.3 174.0 1401.3 174.0 L1238.3 174.0 Q1231.3 174.0 1231.3 167.0 L1231.3 154.0" stroke="#db7500" stroke-width="1.7"/>
<path d="M553.5 413.0 L553.5 378.5 Q553.5 371.5 560.5 371.5 L751.6 371.5 Q758.6 371.5 758.6 364.5 L758.6 299.0" stroke="#ba0d16" stroke-width="1.6" stroke-dasharray="5 4"/>
<path d="M1098.6 241.0 L1098.6 202.5 Q1098.6 199.5 1095.6 199.5 L1095.6 199.5 Q1092.6 199.5 1092.6 196.5 L1092.6 154.0" stroke="#db7500" stroke-width="1.6" stroke-dasharray="5 4"/>
</g>
<g stroke="none"><rect x="495.1" y="361.5" width="116.9" height="20" rx="10" fill="#ffffff" stroke="#d8d6d4" stroke-width="1"/><text x="553.5" y="375.1" font-size="10.5" font-weight="600" fill="#242424" text-anchor="middle">limited propagation</text></g>
<g stroke="none"><rect x="1027.1" y="189.5" width="143.0" height="20" rx="10" fill="#ffffff" stroke="#d8d6d4" stroke-width="1"/><text x="1098.6" y="203.1" font-size="10.5" font-weight="600" fill="#242424" text-anchor="middle">suppressed propagation</text></g>
<g filter="url(#cs)"><rect x="0.0" y="413.0" width="197" height="121" rx="10" fill="#f2f8f2" stroke="#a0d8a0" stroke-width="2"/></g><g transform="translate(6.0,420.16) scale(0.82)"><circle cx="12" cy="12" r="8.4" fill="none" stroke="#605e5c" stroke-width="1.6" stroke-linecap="round" stroke-linejoin="round"/><path d="M3.6 12h16.8M12 3.6c3 3 3 13.8 0 16.8M12 3.6c-3 3-3 13.8 0 16.8" fill="none" stroke="#605e5c" stroke-width="1.6" stroke-linecap="round" stroke-linejoin="round"/></g><text x="34.0" y="433.5" font-size="12.5" font-weight="600" fill="#242424">Web frontend</text><rect x="124.0" y="421.00" width="65.0" height="18" rx="9" fill="#ffffff" stroke="#a0d8a0" stroke-width="1"/><circle cx="135.0" cy="430.0" r="6" fill="#4c9a2a"/><path d="M132.3 430.0 l1.9 1.9 l3.4 -3.9" fill="none" stroke="#ffffff" stroke-width="1.4" stroke-linecap="round" stroke-linejoin="round"/><text x="144.0" y="433.57" font-size="10.5" fill="#323130">Healthy</text><line x1="1.0" y1="450.0" x2="196.0" y2="450.0" stroke="#e6e4e2"/><circle cx="16.0" cy="465.0" r="6" fill="#4c9a2a"/><path d="M13.3 465.0 l1.9 1.9 l3.4 -3.9" fill="none" stroke="#ffffff" stroke-width="1.4" stroke-linecap="round" stroke-linejoin="round"/><g transform="translate(32.0,458.0) scale(0.875)"><rect x="1.5" y="8" width="2.6" height="6" rx="0.6" fill="#8661c5"/><rect x="5.7" y="4.5" width="2.6" height="9.5" rx="0.6" fill="#0078D4"/><rect x="9.9" y="6.5" width="2.6" height="7.5" rx="0.6" fill="#3fb0ac"/></g><text x="52.0" y="468.5" font-size="10.5" fill="#242424">Web latency</text><text x="185.0" y="468.5" font-size="10.5" font-weight="400" fill="#605e5c" text-anchor="end">2</text><line x1="10.0" y1="474.0" x2="187.0" y2="474.0" stroke="#e6e4e2" stroke-opacity="0.7"/><circle cx="16.0" cy="483.0" r="6" fill="#4c9a2a"/><path d="M13.3 483.0 l1.9 1.9 l3.4 -3.9" fill="none" stroke="#ffffff" stroke-width="1.4" stroke-linecap="round" stroke-linejoin="round"/><g transform="translate(32.0,476.0) scale(0.875)"><rect x="1.5" y="8" width="2.6" height="6" rx="0.6" fill="#8661c5"/><rect x="5.7" y="4.5" width="2.6" height="9.5" rx="0.6" fill="#0078D4"/><rect x="9.9" y="6.5" width="2.6" height="7.5" rx="0.6" fill="#3fb0ac"/></g><text x="52.0" y="486.5" font-size="10.5" fill="#242424">HTTP 5xx rate</text><text x="185.0" y="486.5" font-size="10.5" font-weight="400" fill="#605e5c" text-anchor="end">1</text><line x1="10.0" y1="492.0" x2="187.0" y2="492.0" stroke="#e6e4e2" stroke-opacity="0.7"/><circle cx="16.0" cy="501.0" r="6" fill="#4c9a2a"/><path d="M13.3 501.0 l1.9 1.9 l3.4 -3.9" fill="none" stroke="#ffffff" stroke-width="1.4" stroke-linecap="round" stroke-linejoin="round"/><g transform="translate(32.0,494.0) scale(0.875)"><rect x="1.5" y="8" width="2.6" height="6" rx="0.6" fill="#8661c5"/><rect x="5.7" y="4.5" width="2.6" height="9.5" rx="0.6" fill="#0078D4"/><rect x="9.9" y="6.5" width="2.6" height="7.5" rx="0.6" fill="#3fb0ac"/></g><text x="52.0" y="504.5" font-size="10.5" fill="#242424">Request rate</text><text x="185.0" y="504.5" font-size="10.5" font-weight="400" fill="#605e5c" text-anchor="end">2</text><line x1="10.0" y1="510.0" x2="187.0" y2="510.0" stroke="#e6e4e2" stroke-opacity="0.7"/><circle cx="16.0" cy="519.0" r="6" fill="#4c9a2a"/><path d="M13.3 519.0 l1.9 1.9 l3.4 -3.9" fill="none" stroke="#ffffff" stroke-width="1.4" stroke-linecap="round" stroke-linejoin="round"/><g transform="translate(32.0,512.0) scale(0.875)"><rect x="1.5" y="8" width="2.6" height="6" rx="0.6" fill="#8661c5"/><rect x="5.7" y="4.5" width="2.6" height="9.5" rx="0.6" fill="#0078D4"/><rect x="9.9" y="6.5" width="2.6" height="7.5" rx="0.6" fill="#3fb0ac"/></g><text x="52.0" y="522.5" font-size="10.5" fill="#242424">Availability</text><text x="185.0" y="522.5" font-size="10.5" font-weight="400" fill="#605e5c" text-anchor="end">0</text>
<g filter="url(#cs)"><rect x="227.0" y="413.0" width="195" height="121" rx="10" fill="#fbf2e7" stroke="#db7500" stroke-width="2"/></g><g transform="translate(233.0,420.16) scale(0.82)"><path d="M13 2.5 5.5 13.5H11l-1 8 8.5-12H12z" fill="none" stroke="#605e5c" stroke-width="1.6" stroke-linecap="round" stroke-linejoin="round"/></g><text x="261.0" y="433.5" font-size="12.5" font-weight="600" fill="#242424">API service</text><rect x="338.1" y="421.00" width="75.9" height="18" rx="9" fill="#ffffff" stroke="#db7500" stroke-width="1"/><circle cx="349.1" cy="430.0" r="6" fill="#c26a00"/><text x="358.1" y="433.57" font-size="10.5" fill="#323130">Degraded</text><line x1="228.0" y1="450.0" x2="421.0" y2="450.0" stroke="#e6e4e2"/><circle cx="243.0" cy="465.0" r="6" fill="#c26a00"/><g transform="translate(259.0,458.0) scale(0.875)"><rect x="1.5" y="8" width="2.6" height="6" rx="0.6" fill="#8661c5"/><rect x="5.7" y="4.5" width="2.6" height="9.5" rx="0.6" fill="#0078D4"/><rect x="9.9" y="6.5" width="2.6" height="7.5" rx="0.6" fill="#3fb0ac"/></g><text x="279.0" y="468.5" font-size="10.5" fill="#242424">Request rate</text><text x="410.0" y="468.5" font-size="10.5" font-weight="600" fill="#c26a00" text-anchor="end">19</text><line x1="237.0" y1="474.0" x2="412.0" y2="474.0" stroke="#e6e4e2" stroke-opacity="0.7"/><circle cx="243.0" cy="483.0" r="6" fill="#4c9a2a"/><path d="M240.3 483.0 l1.9 1.9 l3.4 -3.9" fill="none" stroke="#ffffff" stroke-width="1.4" stroke-linecap="round" stroke-linejoin="round"/><g transform="translate(259.0,476.0) scale(0.875)"><rect x="1.5" y="8" width="2.6" height="6" rx="0.6" fill="#8661c5"/><rect x="5.7" y="4.5" width="2.6" height="9.5" rx="0.6" fill="#0078D4"/><rect x="9.9" y="6.5" width="2.6" height="7.5" rx="0.6" fill="#3fb0ac"/></g><text x="279.0" y="486.5" font-size="10.5" fill="#242424">P95 latency</text><text x="410.0" y="486.5" font-size="10.5" font-weight="400" fill="#605e5c" text-anchor="end">2</text><line x1="237.0" y1="492.0" x2="412.0" y2="492.0" stroke="#e6e4e2" stroke-opacity="0.7"/><circle cx="243.0" cy="501.0" r="6" fill="#4c9a2a"/><path d="M240.3 501.0 l1.9 1.9 l3.4 -3.9" fill="none" stroke="#ffffff" stroke-width="1.4" stroke-linecap="round" stroke-linejoin="round"/><g transform="translate(259.0,494.0) scale(0.875)"><rect x="1.5" y="8" width="2.6" height="6" rx="0.6" fill="#8661c5"/><rect x="5.7" y="4.5" width="2.6" height="9.5" rx="0.6" fill="#0078D4"/><rect x="9.9" y="6.5" width="2.6" height="7.5" rx="0.6" fill="#3fb0ac"/></g><text x="279.0" y="504.5" font-size="10.5" fill="#242424">429 rate</text><text x="410.0" y="504.5" font-size="10.5" font-weight="400" fill="#605e5c" text-anchor="end">0</text><line x1="237.0" y1="510.0" x2="412.0" y2="510.0" stroke="#e6e4e2" stroke-opacity="0.7"/><circle cx="243.0" cy="519.0" r="6" fill="#4c9a2a"/><path d="M240.3 519.0 l1.9 1.9 l3.4 -3.9" fill="none" stroke="#ffffff" stroke-width="1.4" stroke-linecap="round" stroke-linejoin="round"/><g transform="translate(259.0,512.0) scale(0.875)"><rect x="1.5" y="8" width="2.6" height="6" rx="0.6" fill="#8661c5"/><rect x="5.7" y="4.5" width="2.6" height="9.5" rx="0.6" fill="#0078D4"/><rect x="9.9" y="6.5" width="2.6" height="7.5" rx="0.6" fill="#3fb0ac"/></g><text x="279.0" y="522.5" font-size="10.5" fill="#242424">Error rate</text><text x="410.0" y="522.5" font-size="10.5" font-weight="400" fill="#605e5c" text-anchor="end">1</text>
<g filter="url(#cs)"><rect x="685.0" y="413.0" width="178" height="139" rx="10" fill="#f2f8f2" stroke="#a0d8a0" stroke-width="2"/></g><g transform="translate(691.0,420.16) scale(0.82)"><ellipse cx="12" cy="6" rx="7" ry="2.8" fill="none" stroke="#605e5c" stroke-width="1.6" stroke-linecap="round" stroke-linejoin="round"/><path d="M5 6v12c0 1.55 3.13 2.8 7 2.8s7-1.25 7-2.8V6" fill="none" stroke="#605e5c" stroke-width="1.6" stroke-linecap="round" stroke-linejoin="round"/><path d="M5 12c0 1.55 3.13 2.8 7 2.8s7-1.25 7-2.8" fill="none" stroke="#605e5c" stroke-width="1.6" stroke-linecap="round" stroke-linejoin="round"/></g><text x="719.0" y="433.5" font-size="12.5" font-weight="600" fill="#242424">Database</text><rect x="790.0" y="421.00" width="65.0" height="18" rx="9" fill="#ffffff" stroke="#a0d8a0" stroke-width="1"/><circle cx="801.0" cy="430.0" r="6" fill="#4c9a2a"/><path d="M798.3 430.0 l1.9 1.9 l3.4 -3.9" fill="none" stroke="#ffffff" stroke-width="1.4" stroke-linecap="round" stroke-linejoin="round"/><text x="810.0" y="433.57" font-size="10.5" fill="#323130">Healthy</text><line x1="686.0" y1="450.0" x2="862.0" y2="450.0" stroke="#e6e4e2"/><circle cx="701.0" cy="465.0" r="6" fill="#4c9a2a"/><path d="M698.3 465.0 l1.9 1.9 l3.4 -3.9" fill="none" stroke="#ffffff" stroke-width="1.4" stroke-linecap="round" stroke-linejoin="round"/><g transform="translate(717.0,458.0) scale(0.875)"><rect x="1.5" y="8" width="2.6" height="6" rx="0.6" fill="#8661c5"/><rect x="5.7" y="4.5" width="2.6" height="9.5" rx="0.6" fill="#0078D4"/><rect x="9.9" y="6.5" width="2.6" height="7.5" rx="0.6" fill="#3fb0ac"/></g><text x="737.0" y="468.5" font-size="10.5" fill="#242424">Connection pool</text><text x="851.0" y="468.5" font-size="10.5" font-weight="400" fill="#605e5c" text-anchor="end">0</text><line x1="695.0" y1="474.0" x2="853.0" y2="474.0" stroke="#e6e4e2" stroke-opacity="0.7"/><circle cx="701.0" cy="483.0" r="6" fill="#4c9a2a"/><path d="M698.3 483.0 l1.9 1.9 l3.4 -3.9" fill="none" stroke="#ffffff" stroke-width="1.4" stroke-linecap="round" stroke-linejoin="round"/><g transform="translate(717.0,476.0) scale(0.875)"><rect x="1.5" y="8" width="2.6" height="6" rx="0.6" fill="#8661c5"/><rect x="5.7" y="4.5" width="2.6" height="9.5" rx="0.6" fill="#0078D4"/><rect x="9.9" y="6.5" width="2.6" height="7.5" rx="0.6" fill="#3fb0ac"/></g><text x="737.0" y="486.5" font-size="10.5" fill="#242424">DTU utilization</text><text x="851.0" y="486.5" font-size="10.5" font-weight="400" fill="#605e5c" text-anchor="end">0</text><line x1="695.0" y1="492.0" x2="853.0" y2="492.0" stroke="#e6e4e2" stroke-opacity="0.7"/><circle cx="701.0" cy="501.0" r="6" fill="#4c9a2a"/><path d="M698.3 501.0 l1.9 1.9 l3.4 -3.9" fill="none" stroke="#ffffff" stroke-width="1.4" stroke-linecap="round" stroke-linejoin="round"/><g transform="translate(717.0,494.0) scale(0.875)"><rect x="1.5" y="8" width="2.6" height="6" rx="0.6" fill="#8661c5"/><rect x="5.7" y="4.5" width="2.6" height="9.5" rx="0.6" fill="#0078D4"/><rect x="9.9" y="6.5" width="2.6" height="7.5" rx="0.6" fill="#3fb0ac"/></g><text x="737.0" y="504.5" font-size="10.5" fill="#242424">Failed connections</text><text x="851.0" y="504.5" font-size="10.5" font-weight="400" fill="#605e5c" text-anchor="end">2</text><line x1="695.0" y1="510.0" x2="853.0" y2="510.0" stroke="#e6e4e2" stroke-opacity="0.7"/><circle cx="701.0" cy="519.0" r="6" fill="#4c9a2a"/><path d="M698.3 519.0 l1.9 1.9 l3.4 -3.9" fill="none" stroke="#ffffff" stroke-width="1.4" stroke-linecap="round" stroke-linejoin="round"/><g transform="translate(717.0,512.0) scale(0.875)"><rect x="1.5" y="8" width="2.6" height="6" rx="0.6" fill="#8661c5"/><rect x="5.7" y="4.5" width="2.6" height="9.5" rx="0.6" fill="#0078D4"/><rect x="9.9" y="6.5" width="2.6" height="7.5" rx="0.6" fill="#3fb0ac"/></g><text x="737.0" y="522.5" font-size="10.5" fill="#242424">Replication lag</text><text x="851.0" y="522.5" font-size="10.5" font-weight="400" fill="#605e5c" text-anchor="end">0</text><line x1="695.0" y1="528.0" x2="853.0" y2="528.0" stroke="#e6e4e2" stroke-opacity="0.7"/><circle cx="701.0" cy="537.0" r="6" fill="#4c9a2a"/><path d="M698.3 537.0 l1.9 1.9 l3.4 -3.9" fill="none" stroke="#ffffff" stroke-width="1.4" stroke-linecap="round" stroke-linejoin="round"/><g transform="translate(717.0,530.0) scale(0.875)"><rect x="1.5" y="8" width="2.6" height="6" rx="0.6" fill="#8661c5"/><rect x="5.7" y="4.5" width="2.6" height="9.5" rx="0.6" fill="#0078D4"/><rect x="9.9" y="6.5" width="2.6" height="7.5" rx="0.6" fill="#3fb0ac"/></g><text x="737.0" y="540.5" font-size="10.5" fill="#242424">Deadlocks</text><text x="851.0" y="540.5" font-size="10.5" font-weight="400" fill="#605e5c" text-anchor="end">0</text>
<g filter="url(#cs)"><rect x="452.0" y="413.0" width="203" height="103" rx="10" fill="#faeceb" stroke="#ba0d16" stroke-width="2"/></g><g transform="translate(458.0,420.16) scale(0.82)"><rect x="3.5" y="4" width="17" height="16" rx="2" fill="none" stroke="#605e5c" stroke-width="1.6" stroke-linecap="round" stroke-linejoin="round"/><path d="M8 4v16M3.5 9.5h4M3.5 14.5h4" fill="none" stroke="#605e5c" stroke-width="1.6" stroke-linecap="round" stroke-linejoin="round"/></g><text x="486.0" y="433.5" font-size="12.5" font-weight="600" fill="#242424">Redis cache</text><rect x="569.8" y="421.00" width="77.2" height="18" rx="9" fill="#ffffff" stroke="#ba0d16" stroke-width="1"/><circle cx="580.8" cy="430.0" r="6" fill="#c50f18"/><text x="589.8" y="433.57" font-size="10.5" fill="#323130">Unhealthy</text><line x1="453.0" y1="450.0" x2="654.0" y2="450.0" stroke="#e6e4e2"/><circle cx="468.0" cy="465.0" r="6" fill="#c50f18"/><g transform="translate(484.0,458.0) scale(0.875)"><rect x="1.5" y="8" width="2.6" height="6" rx="0.6" fill="#8661c5"/><rect x="5.7" y="4.5" width="2.6" height="9.5" rx="0.6" fill="#0078D4"/><rect x="9.9" y="6.5" width="2.6" height="7.5" rx="0.6" fill="#3fb0ac"/></g><text x="504.0" y="468.5" font-size="10.5" fill="#242424">Hit ratio</text><text x="643.0" y="468.5" font-size="10.5" font-weight="600" fill="#c50f18" text-anchor="end">116</text><line x1="462.0" y1="474.0" x2="645.0" y2="474.0" stroke="#e6e4e2" stroke-opacity="0.7"/><circle cx="468.0" cy="483.0" r="6" fill="#4c9a2a"/><path d="M465.3 483.0 l1.9 1.9 l3.4 -3.9" fill="none" stroke="#ffffff" stroke-width="1.4" stroke-linecap="round" stroke-linejoin="round"/><g transform="translate(484.0,476.0) scale(0.875)"><rect x="1.5" y="8" width="2.6" height="6" rx="0.6" fill="#8661c5"/><rect x="5.7" y="4.5" width="2.6" height="9.5" rx="0.6" fill="#0078D4"/><rect x="9.9" y="6.5" width="2.6" height="7.5" rx="0.6" fill="#3fb0ac"/></g><text x="504.0" y="486.5" font-size="10.5" fill="#242424">Eviction rate</text><text x="643.0" y="486.5" font-size="10.5" font-weight="400" fill="#605e5c" text-anchor="end">1</text><line x1="462.0" y1="492.0" x2="645.0" y2="492.0" stroke="#e6e4e2" stroke-opacity="0.7"/><circle cx="468.0" cy="501.0" r="6" fill="#4c9a2a"/><path d="M465.3 501.0 l1.9 1.9 l3.4 -3.9" fill="none" stroke="#ffffff" stroke-width="1.4" stroke-linecap="round" stroke-linejoin="round"/><g transform="translate(484.0,494.0) scale(0.875)"><rect x="1.5" y="8" width="2.6" height="6" rx="0.6" fill="#8661c5"/><rect x="5.7" y="4.5" width="2.6" height="9.5" rx="0.6" fill="#0078D4"/><rect x="9.9" y="6.5" width="2.6" height="7.5" rx="0.6" fill="#3fb0ac"/></g><text x="504.0" y="504.5" font-size="10.5" fill="#242424">Memory pressure</text><text x="643.0" y="504.5" font-size="10.5" font-weight="400" fill="#605e5c" text-anchor="end">0</text>
<g filter="url(#cs)"><rect x="1129.0" y="413.0" width="203" height="103" rx="10" fill="#fbf2e7" stroke="#db7500" stroke-width="2"/></g><g transform="translate(1135.0,420.16) scale(0.82)"><rect x="4" y="5" width="16" height="3" rx="1" fill="none" stroke="#605e5c" stroke-width="1.6" stroke-linecap="round" stroke-linejoin="round"/><rect x="4" y="10.5" width="16" height="3" rx="1" fill="none" stroke="#605e5c" stroke-width="1.6" stroke-linecap="round" stroke-linejoin="round"/><rect x="4" y="16" width="10" height="3" rx="1" fill="none" stroke="#605e5c" stroke-width="1.6" stroke-linecap="round" stroke-linejoin="round"/></g><text x="1163.0" y="433.5" font-size="12.5" font-weight="600" fill="#242424">Order queue</text><rect x="1248.1" y="421.00" width="75.9" height="18" rx="9" fill="#ffffff" stroke="#db7500" stroke-width="1"/><circle cx="1259.1" cy="430.0" r="6" fill="#c26a00"/><text x="1268.1" y="433.57" font-size="10.5" fill="#323130">Degraded</text><line x1="1130.0" y1="450.0" x2="1331.0" y2="450.0" stroke="#e6e4e2"/><circle cx="1145.0" cy="465.0" r="6" fill="#c26a00"/><g transform="translate(1161.0,458.0) scale(0.875)"><rect x="1.5" y="8" width="2.6" height="6" rx="0.6" fill="#8661c5"/><rect x="5.7" y="4.5" width="2.6" height="9.5" rx="0.6" fill="#0078D4"/><rect x="9.9" y="6.5" width="2.6" height="7.5" rx="0.6" fill="#3fb0ac"/></g><text x="1181.0" y="468.5" font-size="10.5" fill="#242424">Queue depth</text><text x="1320.0" y="468.5" font-size="10.5" font-weight="600" fill="#c26a00" text-anchor="end">18</text><line x1="1139.0" y1="474.0" x2="1322.0" y2="474.0" stroke="#e6e4e2" stroke-opacity="0.7"/><circle cx="1145.0" cy="483.0" r="6" fill="#4c9a2a"/><path d="M1142.3 483.0 l1.9 1.9 l3.4 -3.9" fill="none" stroke="#ffffff" stroke-width="1.4" stroke-linecap="round" stroke-linejoin="round"/><g transform="translate(1161.0,476.0) scale(0.875)"><rect x="1.5" y="8" width="2.6" height="6" rx="0.6" fill="#8661c5"/><rect x="5.7" y="4.5" width="2.6" height="9.5" rx="0.6" fill="#0078D4"/><rect x="9.9" y="6.5" width="2.6" height="7.5" rx="0.6" fill="#3fb0ac"/></g><text x="1181.0" y="486.5" font-size="10.5" fill="#242424">Oldest message age</text><text x="1320.0" y="486.5" font-size="10.5" font-weight="400" fill="#605e5c" text-anchor="end">0</text><line x1="1139.0" y1="492.0" x2="1322.0" y2="492.0" stroke="#e6e4e2" stroke-opacity="0.7"/><circle cx="1145.0" cy="501.0" r="6" fill="#4c9a2a"/><path d="M1142.3 501.0 l1.9 1.9 l3.4 -3.9" fill="none" stroke="#ffffff" stroke-width="1.4" stroke-linecap="round" stroke-linejoin="round"/><g transform="translate(1161.0,494.0) scale(0.875)"><rect x="1.5" y="8" width="2.6" height="6" rx="0.6" fill="#8661c5"/><rect x="5.7" y="4.5" width="2.6" height="9.5" rx="0.6" fill="#0078D4"/><rect x="9.9" y="6.5" width="2.6" height="7.5" rx="0.6" fill="#3fb0ac"/></g><text x="1181.0" y="504.5" font-size="10.5" fill="#242424">Dead-letter count</text><text x="1320.0" y="504.5" font-size="10.5" font-weight="400" fill="#605e5c" text-anchor="end">2</text>
<g filter="url(#cs)"><rect x="2003.0" y="413.0" width="192" height="85" rx="10" fill="#f2f8f2" stroke="#a0d8a0" stroke-width="2"/></g><g transform="translate(2009.0,420.16) scale(0.82)"><ellipse cx="12" cy="6" rx="7" ry="2.8" fill="none" stroke="#605e5c" stroke-width="1.6" stroke-linecap="round" stroke-linejoin="round"/><path d="M5 6v12c0 1.55 3.13 2.8 7 2.8s7-1.25 7-2.8V6" fill="none" stroke="#605e5c" stroke-width="1.6" stroke-linecap="round" stroke-linejoin="round"/><path d="M5 12c0 1.55 3.13 2.8 7 2.8s7-1.25 7-2.8" fill="none" stroke="#605e5c" stroke-width="1.6" stroke-linecap="round" stroke-linejoin="round"/></g><text x="2037.0" y="433.5" font-size="12.5" font-weight="600" fill="#242424">Blob storage</text><rect x="2122.0" y="421.00" width="65.0" height="18" rx="9" fill="#ffffff" stroke="#a0d8a0" stroke-width="1"/><circle cx="2133.0" cy="430.0" r="6" fill="#4c9a2a"/><path d="M2130.3 430.0 l1.9 1.9 l3.4 -3.9" fill="none" stroke="#ffffff" stroke-width="1.4" stroke-linecap="round" stroke-linejoin="round"/><text x="2142.0" y="433.57" font-size="10.5" fill="#323130">Healthy</text><line x1="2004.0" y1="450.0" x2="2194.0" y2="450.0" stroke="#e6e4e2"/><circle cx="2019.0" cy="465.0" r="6" fill="#4c9a2a"/><path d="M2016.3 465.0 l1.9 1.9 l3.4 -3.9" fill="none" stroke="#ffffff" stroke-width="1.4" stroke-linecap="round" stroke-linejoin="round"/><g transform="translate(2035.0,458.0) scale(0.875)"><rect x="1.5" y="8" width="2.6" height="6" rx="0.6" fill="#8661c5"/><rect x="5.7" y="4.5" width="2.6" height="9.5" rx="0.6" fill="#0078D4"/><rect x="9.9" y="6.5" width="2.6" height="7.5" rx="0.6" fill="#3fb0ac"/></g><text x="2055.0" y="468.5" font-size="10.5" fill="#242424">Availability</text><text x="2183.0" y="468.5" font-size="10.5" font-weight="400" fill="#605e5c" text-anchor="end">0</text><line x1="2013.0" y1="474.0" x2="2185.0" y2="474.0" stroke="#e6e4e2" stroke-opacity="0.7"/><circle cx="2019.0" cy="483.0" r="6" fill="#4c9a2a"/><path d="M2016.3 483.0 l1.9 1.9 l3.4 -3.9" fill="none" stroke="#ffffff" stroke-width="1.4" stroke-linecap="round" stroke-linejoin="round"/><g transform="translate(2035.0,476.0) scale(0.875)"><rect x="1.5" y="8" width="2.6" height="6" rx="0.6" fill="#8661c5"/><rect x="5.7" y="4.5" width="2.6" height="9.5" rx="0.6" fill="#0078D4"/><rect x="9.9" y="6.5" width="2.6" height="7.5" rx="0.6" fill="#3fb0ac"/></g><text x="2055.0" y="486.5" font-size="10.5" fill="#242424">Throttling rate</text><text x="2183.0" y="486.5" font-size="10.5" font-weight="400" fill="#605e5c" text-anchor="end">1</text>
<g filter="url(#cs)"><rect x="2225.0" y="413.0" width="221" height="103" rx="10" fill="#f6f6f5" stroke="#c8c6c4" stroke-width="2" stroke-dasharray="4 3"/></g><g transform="translate(2231.0,420.16) scale(0.82)"><path d="M12 3l7 2.6v5.2c0 4.6-3 7.9-7 9.2-4-1.3-7-4.6-7-9.2V5.6z" fill="none" stroke="#605e5c" stroke-width="1.6" stroke-linecap="round" stroke-linejoin="round"/><path d="M8.8 12.2l2.2 2.2 4-4.6" fill="none" stroke="#605e5c" stroke-width="1.6" stroke-linecap="round" stroke-linejoin="round"/></g><text x="2259.0" y="433.5" font-size="12.5" font-weight="600" fill="#242424">Identity provider</text><rect x="2364.5" y="421.00" width="73.5" height="18" rx="9" fill="#ffffff" stroke="#c8c6c4" stroke-width="1"/><circle cx="2375.5" cy="430.0" r="6" fill="#8a8886"/><text x="2384.5" y="433.57" font-size="10.5" fill="#323130">Unknown</text><line x1="2226.0" y1="450.0" x2="2445.0" y2="450.0" stroke="#e6e4e2"/><circle cx="2241.0" cy="465.0" r="6" fill="#4c9a2a"/><path d="M2238.3 465.0 l1.9 1.9 l3.4 -3.9" fill="none" stroke="#ffffff" stroke-width="1.4" stroke-linecap="round" stroke-linejoin="round"/><g transform="translate(2257.0,458.0) scale(0.875)"><rect x="1.5" y="8" width="2.6" height="6" rx="0.6" fill="#8661c5"/><rect x="5.7" y="4.5" width="2.6" height="9.5" rx="0.6" fill="#0078D4"/><rect x="9.9" y="6.5" width="2.6" height="7.5" rx="0.6" fill="#3fb0ac"/></g><text x="2277.0" y="468.5" font-size="10.5" fill="#242424">Token failures</text><text x="2434.0" y="468.5" font-size="10.5" font-weight="400" fill="#605e5c" text-anchor="end">2</text><line x1="2235.0" y1="474.0" x2="2436.0" y2="474.0" stroke="#e6e4e2" stroke-opacity="0.7"/><circle cx="2241.0" cy="483.0" r="6" fill="#4c9a2a"/><path d="M2238.3 483.0 l1.9 1.9 l3.4 -3.9" fill="none" stroke="#ffffff" stroke-width="1.4" stroke-linecap="round" stroke-linejoin="round"/><g transform="translate(2257.0,476.0) scale(0.875)"><rect x="1.5" y="8" width="2.6" height="6" rx="0.6" fill="#8661c5"/><rect x="5.7" y="4.5" width="2.6" height="9.5" rx="0.6" fill="#0078D4"/><rect x="9.9" y="6.5" width="2.6" height="7.5" rx="0.6" fill="#3fb0ac"/></g><text x="2277.0" y="486.5" font-size="10.5" fill="#242424">MFA challenges</text><text x="2434.0" y="486.5" font-size="10.5" font-weight="400" fill="#605e5c" text-anchor="end">1</text><line x1="2235.0" y1="492.0" x2="2436.0" y2="492.0" stroke="#e6e4e2" stroke-opacity="0.7"/><circle cx="2241.0" cy="501.0" r="6" fill="#4c9a2a"/><path d="M2238.3 501.0 l1.9 1.9 l3.4 -3.9" fill="none" stroke="#ffffff" stroke-width="1.4" stroke-linecap="round" stroke-linejoin="round"/><g transform="translate(2257.0,494.0) scale(0.875)"><rect x="1.5" y="8" width="2.6" height="6" rx="0.6" fill="#8661c5"/><rect x="5.7" y="4.5" width="2.6" height="9.5" rx="0.6" fill="#0078D4"/><rect x="9.9" y="6.5" width="2.6" height="7.5" rx="0.6" fill="#3fb0ac"/></g><text x="2277.0" y="504.5" font-size="10.5" fill="#242424">Sign-in latency</text><text x="2434.0" y="504.5" font-size="10.5" font-weight="400" fill="#605e5c" text-anchor="end">2</text>
<g filter="url(#cs)"><rect x="893.0" y="413.0" width="206" height="103" rx="10" fill="#f2f8f2" stroke="#a0d8a0" stroke-width="2"/></g><g transform="translate(899.0,420.16) scale(0.82)"><path d="M4 20h16" fill="none" stroke="#605e5c" stroke-width="1.6" stroke-linecap="round" stroke-linejoin="round"/><path d="M6.5 20v-6M12 20V6.5M17.5 20v-9" fill="none" stroke="#605e5c" stroke-width="1.6" stroke-linecap="round" stroke-linejoin="round"/></g><text x="927.0" y="433.5" font-size="12.5" font-weight="600" fill="#242424">Search service</text><rect x="1026.0" y="421.00" width="65.0" height="18" rx="9" fill="#ffffff" stroke="#a0d8a0" stroke-width="1"/><circle cx="1037.0" cy="430.0" r="6" fill="#4c9a2a"/><path d="M1034.3 430.0 l1.9 1.9 l3.4 -3.9" fill="none" stroke="#ffffff" stroke-width="1.4" stroke-linecap="round" stroke-linejoin="round"/><text x="1046.0" y="433.57" font-size="10.5" fill="#323130">Healthy</text><line x1="894.0" y1="450.0" x2="1098.0" y2="450.0" stroke="#e6e4e2"/><circle cx="909.0" cy="465.0" r="6" fill="#4c9a2a"/><path d="M906.3 465.0 l1.9 1.9 l3.4 -3.9" fill="none" stroke="#ffffff" stroke-width="1.4" stroke-linecap="round" stroke-linejoin="round"/><g transform="translate(925.0,458.0) scale(0.875)"><rect x="1.5" y="8" width="2.6" height="6" rx="0.6" fill="#8661c5"/><rect x="5.7" y="4.5" width="2.6" height="9.5" rx="0.6" fill="#0078D4"/><rect x="9.9" y="6.5" width="2.6" height="7.5" rx="0.6" fill="#3fb0ac"/></g><text x="945.0" y="468.5" font-size="10.5" fill="#242424">Index lag</text><text x="1087.0" y="468.5" font-size="10.5" font-weight="400" fill="#605e5c" text-anchor="end">0</text><line x1="903.0" y1="474.0" x2="1089.0" y2="474.0" stroke="#e6e4e2" stroke-opacity="0.7"/><circle cx="909.0" cy="483.0" r="6" fill="#4c9a2a"/><path d="M906.3 483.0 l1.9 1.9 l3.4 -3.9" fill="none" stroke="#ffffff" stroke-width="1.4" stroke-linecap="round" stroke-linejoin="round"/><g transform="translate(925.0,476.0) scale(0.875)"><rect x="1.5" y="8" width="2.6" height="6" rx="0.6" fill="#8661c5"/><rect x="5.7" y="4.5" width="2.6" height="9.5" rx="0.6" fill="#0078D4"/><rect x="9.9" y="6.5" width="2.6" height="7.5" rx="0.6" fill="#3fb0ac"/></g><text x="945.0" y="486.5" font-size="10.5" fill="#242424">Query latency</text><text x="1087.0" y="486.5" font-size="10.5" font-weight="400" fill="#605e5c" text-anchor="end">1</text><line x1="903.0" y1="492.0" x2="1089.0" y2="492.0" stroke="#e6e4e2" stroke-opacity="0.7"/><circle cx="909.0" cy="501.0" r="6" fill="#4c9a2a"/><path d="M906.3 501.0 l1.9 1.9 l3.4 -3.9" fill="none" stroke="#ffffff" stroke-width="1.4" stroke-linecap="round" stroke-linejoin="round"/><g transform="translate(925.0,494.0) scale(0.875)"><rect x="1.5" y="8" width="2.6" height="6" rx="0.6" fill="#8661c5"/><rect x="5.7" y="4.5" width="2.6" height="9.5" rx="0.6" fill="#0078D4"/><rect x="9.9" y="6.5" width="2.6" height="7.5" rx="0.6" fill="#3fb0ac"/></g><text x="945.0" y="504.5" font-size="10.5" fill="#242424">Error rate</text><text x="1087.0" y="504.5" font-size="10.5" font-weight="400" fill="#605e5c" text-anchor="end">1</text>
<g filter="url(#cs)"><rect x="1362.0" y="413.0" width="323" height="103" rx="10" fill="#f2f8f2" stroke="#a0d8a0" stroke-width="2"/></g><g transform="translate(1368.0,420.16) scale(0.82)"><path d="M12 3.2l7.6 4.4v8.8L12 20.8l-7.6-4.4V7.6z" fill="none" stroke="#605e5c" stroke-width="1.6" stroke-linecap="round" stroke-linejoin="round"/><path d="M4.6 7.8l7.4 4.3 7.4-4.3M12 12.1v8.6" fill="none" stroke="#605e5c" stroke-width="1.6" stroke-linecap="round" stroke-linejoin="round"/></g><text x="1396.0" y="433.5" font-size="12.5" font-weight="600" fill="#242424">Shipping service with a long name</text><rect x="1612.0" y="421.00" width="65.0" height="18" rx="9" fill="#ffffff" stroke="#a0d8a0" stroke-width="1"/><circle cx="1623.0" cy="430.0" r="6" fill="#4c9a2a"/><path d="M1620.3 430.0 l1.9 1.9 l3.4 -3.9" fill="none" stroke="#ffffff" stroke-width="1.4" stroke-linecap="round" stroke-linejoin="round"/><text x="1632.0" y="433.57" font-size="10.5" fill="#323130">Healthy</text><line x1="1363.0" y1="450.0" x2="1684.0" y2="450.0" stroke="#e6e4e2"/><circle cx="1378.0" cy="465.0" r="6" fill="#4c9a2a"/><path d="M1375.3 465.0 l1.9 1.9 l3.4 -3.9" fill="none" stroke="#ffffff" stroke-width="1.4" stroke-linecap="round" stroke-linejoin="round"/><g transform="translate(1394.0,458.0) scale(0.875)"><rect x="1.5" y="8" width="2.6" height="6" rx="0.6" fill="#8661c5"/><rect x="5.7" y="4.5" width="2.6" height="9.5" rx="0.6" fill="#0078D4"/><rect x="9.9" y="6.5" width="2.6" height="7.5" rx="0.6" fill="#3fb0ac"/></g><text x="1414.0" y="468.5" font-size="10.5" fill="#242424">Carrier API availability</text><text x="1673.0" y="468.5" font-size="10.5" font-weight="400" fill="#605e5c" text-anchor="end">2</text><line x1="1372.0" y1="474.0" x2="1675.0" y2="474.0" stroke="#e6e4e2" stroke-opacity="0.7"/><circle cx="1378.0" cy="483.0" r="6" fill="#4c9a2a"/><path d="M1375.3 483.0 l1.9 1.9 l3.4 -3.9" fill="none" stroke="#ffffff" stroke-width="1.4" stroke-linecap="round" stroke-linejoin="round"/><g transform="translate(1394.0,476.0) scale(0.875)"><rect x="1.5" y="8" width="2.6" height="6" rx="0.6" fill="#8661c5"/><rect x="5.7" y="4.5" width="2.6" height="9.5" rx="0.6" fill="#0078D4"/><rect x="9.9" y="6.5" width="2.6" height="7.5" rx="0.6" fill="#3fb0ac"/></g><text x="1414.0" y="486.5" font-size="10.5" fill="#242424">Carrier API latency</text><text x="1673.0" y="486.5" font-size="10.5" font-weight="400" fill="#605e5c" text-anchor="end">1</text><line x1="1372.0" y1="492.0" x2="1675.0" y2="492.0" stroke="#e6e4e2" stroke-opacity="0.7"/><circle cx="1378.0" cy="501.0" r="6" fill="#4c9a2a"/><path d="M1375.3 501.0 l1.9 1.9 l3.4 -3.9" fill="none" stroke="#ffffff" stroke-width="1.4" stroke-linecap="round" stroke-linejoin="round"/><g transform="translate(1394.0,494.0) scale(0.875)"><rect x="1.5" y="8" width="2.6" height="6" rx="0.6" fill="#8661c5"/><rect x="5.7" y="4.5" width="2.6" height="9.5" rx="0.6" fill="#0078D4"/><rect x="9.9" y="6.5" width="2.6" height="7.5" rx="0.6" fill="#3fb0ac"/></g><text x="1414.0" y="504.5" font-size="10.5" fill="#242424">Error rate</text><text x="1673.0" y="504.5" font-size="10.5" font-weight="400" fill="#605e5c" text-anchor="end">1</text>
<g filter="url(#cs)"><rect x="1715.0" y="413.0" width="258" height="103" rx="10" fill="#fbf2e7" stroke="#db7500" stroke-width="2"/></g><g transform="translate(1721.0,420.16) scale(0.82)"><path d="M13 2.5 5.5 13.5H11l-1 8 8.5-12H12z" fill="none" stroke="#605e5c" stroke-width="1.6" stroke-linecap="round" stroke-linejoin="round"/></g><text x="1749.0" y="433.5" font-size="12.5" font-weight="600" fill="#242424">Background functions</text><rect x="1889.1" y="421.00" width="75.9" height="18" rx="9" fill="#ffffff" stroke="#db7500" stroke-width="1"/><circle cx="1900.1" cy="430.0" r="6" fill="#c26a00"/><text x="1909.1" y="433.57" font-size="10.5" fill="#323130">Degraded</text><line x1="1716.0" y1="450.0" x2="1972.0" y2="450.0" stroke="#e6e4e2"/><circle cx="1731.0" cy="465.0" r="6" fill="#c26a00"/><g transform="translate(1747.0,458.0) scale(0.875)"><rect x="1.5" y="8" width="2.6" height="6" rx="0.6" fill="#8661c5"/><rect x="5.7" y="4.5" width="2.6" height="9.5" rx="0.6" fill="#0078D4"/><rect x="9.9" y="6.5" width="2.6" height="7.5" rx="0.6" fill="#3fb0ac"/></g><text x="1767.0" y="468.5" font-size="10.5" fill="#242424">Invocation errors</text><text x="1961.0" y="468.5" font-size="10.5" font-weight="600" fill="#c26a00" text-anchor="end">9</text><line x1="1725.0" y1="474.0" x2="1963.0" y2="474.0" stroke="#e6e4e2" stroke-opacity="0.7"/><circle cx="1731.0" cy="483.0" r="6" fill="#4c9a2a"/><path d="M1728.3 483.0 l1.9 1.9 l3.4 -3.9" fill="none" stroke="#ffffff" stroke-width="1.4" stroke-linecap="round" stroke-linejoin="round"/><g transform="translate(1747.0,476.0) scale(0.875)"><rect x="1.5" y="8" width="2.6" height="6" rx="0.6" fill="#8661c5"/><rect x="5.7" y="4.5" width="2.6" height="9.5" rx="0.6" fill="#0078D4"/><rect x="9.9" y="6.5" width="2.6" height="7.5" rx="0.6" fill="#3fb0ac"/></g><text x="1767.0" y="486.5" font-size="10.5" fill="#242424">Duration</text><text x="1961.0" y="486.5" font-size="10.5" font-weight="400" fill="#605e5c" text-anchor="end">0</text><line x1="1725.0" y1="492.0" x2="1963.0" y2="492.0" stroke="#e6e4e2" stroke-opacity="0.7"/><circle cx="1731.0" cy="501.0" r="6" fill="#4c9a2a"/><path d="M1728.3 501.0 l1.9 1.9 l3.4 -3.9" fill="none" stroke="#ffffff" stroke-width="1.4" stroke-linecap="round" stroke-linejoin="round"/><g transform="translate(1747.0,494.0) scale(0.875)"><rect x="1.5" y="8" width="2.6" height="6" rx="0.6" fill="#8661c5"/><rect x="5.7" y="4.5" width="2.6" height="9.5" rx="0.6" fill="#0078D4"/><rect x="9.9" y="6.5" width="2.6" height="7.5" rx="0.6" fill="#3fb0ac"/></g><text x="1767.0" y="504.5" font-size="10.5" fill="#242424">Throttles</text><text x="1961.0" y="504.5" font-size="10.5" font-weight="400" fill="#605e5c" text-anchor="end">1</text>
<g filter="url(#cs)"><rect x="728.6" y="241.0" width="241" height="58" rx="10" fill="#f2f8f2" stroke="#a0d8a0" stroke-width="2"/></g><g transform="translate(734.6,260.16) scale(0.82)"><circle cx="5.5" cy="6" r="2" fill="none" stroke="#605e5c" stroke-width="1.6" stroke-linecap="round" stroke-linejoin="round"/><circle cx="5.5" cy="18" r="2" fill="none" stroke="#605e5c" stroke-width="1.6" stroke-linecap="round" stroke-linejoin="round"/><circle cx="18.5" cy="12" r="2" fill="none" stroke="#605e5c" stroke-width="1.6" stroke-linecap="round" stroke-linejoin="round"/><path d="M7.5 6h3a4 4 0 0 1 4 4M7.5 18h3a4 4 0 0 0 4-4" fill="none" stroke="#605e5c" stroke-width="1.6" stroke-linecap="round" stroke-linejoin="round"/></g><text x="762.6" y="268.0" font-size="12.5" font-weight="600" fill="#242424">Shop and commerce</text><text x="762.6" y="280.0" font-size="9" fill="#605e5c">active-active</text><rect x="896.6" y="261.00" width="65.0" height="18" rx="9" fill="#ffffff" stroke="#a0d8a0" stroke-width="1"/><circle cx="907.6" cy="270.0" r="6" fill="#4c9a2a"/><path d="M904.9 270.0 l1.9 1.9 l3.4 -3.9" fill="none" stroke="#ffffff" stroke-width="1.4" stroke-linecap="round" stroke-linejoin="round"/><text x="916.6" y="273.57" font-size="10.5" fill="#323130">Healthy</text>
<g filter="url(#cs)"><rect x="999.6" y="241.0" width="186" height="58" rx="10" fill="#fbf2e7" stroke="#db7500" stroke-width="2"/></g><g transform="translate(1005.6,260.16) scale(0.82)"><path d="M4 20h16" fill="none" stroke="#605e5c" stroke-width="1.6" stroke-linecap="round" stroke-linejoin="round"/><path d="M6.5 20v-6M12 20V6.5M17.5 20v-9" fill="none" stroke="#605e5c" stroke-width="1.6" stroke-linecap="round" stroke-linejoin="round"/></g><text x="1033.6" y="268.0" font-size="12.5" font-weight="600" fill="#242424">Reporting</text><text x="1033.6" y="280.0" font-size="9" fill="#605e5c">single region</text><rect x="1101.6" y="261.00" width="75.9" height="18" rx="9" fill="#ffffff" stroke="#db7500" stroke-width="1"/><circle cx="1112.6" cy="270.0" r="6" fill="#c26a00"/><text x="1121.6" y="273.57" font-size="10.5" fill="#323130">Degraded</text>
<g filter="url(#cs)"><rect x="1274.3" y="241.0" width="268" height="58" rx="10" fill="#fbf2e7" stroke="#db7500" stroke-width="2"/></g><g transform="translate(1280.3,260.16) scale(0.82)"><path d="M12 3.2l7.6 4.4v8.8L12 20.8l-7.6-4.4V7.6z" fill="none" stroke="#605e5c" stroke-width="1.6" stroke-linecap="round" stroke-linejoin="round"/><path d="M4.6 7.8l7.4 4.3 7.4-4.3M12 12.1v8.6" fill="none" stroke="#605e5c" stroke-width="1.6" stroke-linecap="round" stroke-linejoin="round"/></g><text x="1308.3" y="273.5" font-size="12.5" font-weight="600" fill="#242424">Logistics and fulfillment</text><rect x="1458.3" y="261.00" width="75.9" height="18" rx="9" fill="#ffffff" stroke="#db7500" stroke-width="1"/><circle cx="1469.3" cy="270.0" r="6" fill="#c26a00"/><text x="1478.3" y="273.57" font-size="10.5" fill="#323130">Degraded</text>
<g filter="url(#cs)"><rect x="1699.7" y="241.0" width="247" height="58" rx="10" fill="#f6f6f5" stroke="#c8c6c4" stroke-width="2" stroke-dasharray="4 3"/></g><g transform="translate(1705.7,260.16) scale(0.82)"><path d="M12 3l7 2.6v5.2c0 4.6-3 7.9-7 9.2-4-1.3-7-4.6-7-9.2V5.6z" fill="none" stroke="#605e5c" stroke-width="1.6" stroke-linecap="round" stroke-linejoin="round"/><path d="M8.8 12.2l2.2 2.2 4-4.6" fill="none" stroke="#605e5c" stroke-width="1.6" stroke-linecap="round" stroke-linejoin="round"/></g><text x="1733.7" y="273.5" font-size="12.5" font-weight="600" fill="#242424">Account and identity</text><rect x="1865.2" y="261.00" width="73.5" height="18" rx="9" fill="#ffffff" stroke="#c8c6c4" stroke-width="1"/><circle cx="1876.2" cy="270.0" r="6" fill="#8a8886"/><text x="1885.2" y="273.57" font-size="10.5" fill="#323130">Unknown</text>
<g filter="url(#cs)"><rect x="472.6" y="241.0" width="226" height="85" rx="10" fill="#f4f0fb" stroke="#8661c5" stroke-width="2"/></g><g transform="translate(478.6,248.16) scale(0.82)"><path d="M12 3.2l7.6 4.4v8.8L12 20.8l-7.6-4.4V7.6z" fill="none" stroke="#605e5c" stroke-width="1.6" stroke-linecap="round" stroke-linejoin="round"/><path d="M4.6 7.8l7.4 4.3 7.4-4.3M12 12.1v8.6" fill="none" stroke="#605e5c" stroke-width="1.6" stroke-linecap="round" stroke-linejoin="round"/></g><text x="506.6" y="261.5" font-size="12.5" font-weight="600" fill="#242424">Secondary region</text><rect x="622.5" y="249.00" width="68.1" height="18" rx="9" fill="#ffffff" stroke="#8661c5" stroke-width="1"/><circle cx="633.5" cy="258.0" r="6" fill="#8661c5"/><text x="642.5" y="261.57" font-size="10.5" fill="#323130">Standby</text><line x1="473.6" y1="278.0" x2="697.6" y2="278.0" stroke="#e6e4e2"/><circle cx="488.6" cy="293.0" r="6" fill="#4c9a2a"/><path d="M485.9 293.0 l1.9 1.9 l3.4 -3.9" fill="none" stroke="#ffffff" stroke-width="1.4" stroke-linecap="round" stroke-linejoin="round"/><g transform="translate(504.6,286.0) scale(0.875)"><rect x="1.5" y="8" width="2.6" height="6" rx="0.6" fill="#8661c5"/><rect x="5.7" y="4.5" width="2.6" height="9.5" rx="0.6" fill="#0078D4"/><rect x="9.9" y="6.5" width="2.6" height="7.5" rx="0.6" fill="#3fb0ac"/></g><text x="524.6" y="296.5" font-size="10.5" fill="#242424">Replication health</text><text x="686.6" y="296.5" font-size="10.5" font-weight="400" fill="#605e5c" text-anchor="end">0</text><line x1="482.6" y1="302.0" x2="688.6" y2="302.0" stroke="#e6e4e2" stroke-opacity="0.7"/><circle cx="488.6" cy="311.0" r="6" fill="#4c9a2a"/><path d="M485.9 311.0 l1.9 1.9 l3.4 -3.9" fill="none" stroke="#ffffff" stroke-width="1.4" stroke-linecap="round" stroke-linejoin="round"/><g transform="translate(504.6,304.0) scale(0.875)"><rect x="1.5" y="8" width="2.6" height="6" rx="0.6" fill="#8661c5"/><rect x="5.7" y="4.5" width="2.6" height="9.5" rx="0.6" fill="#0078D4"/><rect x="9.9" y="6.5" width="2.6" height="7.5" rx="0.6" fill="#3fb0ac"/></g><text x="524.6" y="314.5" font-size="10.5" fill="#242424">Failover readiness</text><text x="686.6" y="314.5" font-size="10.5" font-weight="400" fill="#605e5c" text-anchor="end">1</text>
<g filter="url(#cs)"><rect x="1046.3" y="96.0" width="211" height="58" rx="10" fill="#fbf2e7" stroke="#db7500" stroke-width="2"/></g><g transform="translate(1052.3,115.16) scale(0.82)"><circle cx="12" cy="12" r="8.4" fill="none" stroke="#605e5c" stroke-width="1.6" stroke-linecap="round" stroke-linejoin="round"/><path d="M4.2 12h3l2-3.6 2.8 7.2 1.8-3.6h4" fill="none" stroke="#605e5c" stroke-width="1.6" stroke-linecap="round" stroke-linejoin="round"/></g><text x="1080.3" y="123.0" font-size="12.5" font-weight="600" fill="#242424">Workload root</text><text x="1080.3" y="135.0" font-size="9" fill="#605e5c">worstOf</text><rect x="1173.3" y="116.00" width="75.9" height="18" rx="9" fill="#ffffff" stroke="#db7500" stroke-width="1"/><circle cx="1184.3" cy="125.0" r="6" fill="#c26a00"/><text x="1193.3" y="128.57" font-size="10.5" fill="#323130">Degraded</text>
</g></svg>