<svg xmlns="http://www.w3.org/2000/svg" width="2699" height="632" viewBox="0 0 2699 632" font-family="Segoe UI, -apple-system, BlinkMacSystemFont, Helvetica, Arial, sans-serif">
<defs><filter id="cs" x="-20%" y="-20%" width="140%" height="140%"><feDropShadow dx="0" dy="1" stdDeviation="1.3" flood-color="#000" flood-opacity="0.1"/></filter></defs>
<rect width="2699" height="632" fill="#ffffff"/>
<rect x="0" y="78.0" width="2699" height="145.0" fill="#ffffff"/>
<line x1="0" y1="78.0" x2="2699" y2="78.0" stroke="#e6e4e2"/>
<text x="2533.0" y="155.0" font-size="13" font-weight="700" fill="#323130">Workload root</text>
<rect x="0" y="223.0" width="2699" height="172.0" fill="#faf9f8"/>
<line x1="0" y1="223.0" x2="2699" y2="223.0" stroke="#e6e4e2"/>
<text x="2533.0" y="313.5" font-size="13" font-weight="700" fill="#323130">Business &amp; user flows</text>
<rect x="0" y="395.0" width="2699" height="171.0" fill="#ffffff"/>
<line x1="0" y1="395.0" x2="2699" y2="395.0" stroke="#e6e4e2"/>
<text x="2533.0" y="476.5" font-size="13" font-weight="700" fill="#323130">Application</text>
<text x="2533.0" y="493.5" font-size="13" font-weight="700" fill="#323130">components</text>
<line x1="0" y1="583.5" x2="2699" y2="583.5" stroke="#e6e4e2"/>
<text x="40" y="34" font-size="18" font-weight="700" fill="#242424">Kitchen sink health model</text>
<text x="40" y="52" font-size="12" fill="#605e5c">Signals live inside each entity; health rolls up to the workload root.</text>
<text x="40.0" y="622.0" font-size="11.5" font-weight="600" fill="#605e5c">Legend</text>
<circle cx="99.7" cy="618.0" r="4.5" fill="#4c9a2a"/>
<text x="109.7" y="622.0" font-size="11.5" fill="#323130">Healthy</text>
<circle cx="165.5" cy="618.0" r="4.5" fill="#c26a00"/>
<text x="175.5" y="622.0" font-size="11.5" fill="#323130">Degraded</text>
<circle cx="243.0" cy="618.0" r="4.5" fill="#c50f18"/>
<text x="253.0" y="622.0" font-size="11.5" fill="#323130">Unhealthy</text>
<circle cx="321.8" cy="618.0" r="4.5" fill="#8a8886"/>
<text x="331.8" y="622.0" font-size="11.5" fill="#323130">Unknown</text>
<g transform="translate(390.7,611.0) scale(0.875)"><rect x="1.5" y="8" width="2.6" height="6" rx="0.6" fill="#8661c5"/><rect x="5.7" y="4.5" width="2.6" height="9.5" rx="0.6" fill="#0078D4"/><rect x="9.9" y="6.5" width="2.6" height="7.5" rx="0.6" fill="#3fb0ac"/></g>
<text x="408.7" y="622.0" font-size="11.5" fill="#323130">Metric</text>
<g transform="translate(40.0,0)">
<g fill="none" stroke-linecap="butt" stroke-linejoin="round">
<path d="M98.5 413.0 L98.5 353.0 Q98.5 346.0 105.5 346.0 L732.8 346.0 Q739.8 346.0 739.8 339.0 L739.8 299.0" stroke="#a0d8a0" stroke-width="1.7"/>
<path d="M845.8 413.0 L845.8 299.0" stroke="#a0d8a0" stroke-width="1.7"/>
<path d="M324.0 413.0 L324.0 357.0 Q324.0 350.0 331.0 350.0 L742.8 350.0 Q749.8 350.0 749.8 343.0 L749.8 299.0" stroke="#db7500" stroke-width="1.7"/>
<path d="M770.0 413.0 L770.0 353.0 Q770.0 346.0 777.0 346.0 L1002.8 346.0 Q1009.8 346.0 1009.8 339.0 L1009.8 299.0" stroke="#a0d8a0" stroke-width="1.7"/>
<path d="M1081.0 413.0 L1081.0 299.0" stroke="#a0d8a0" stroke-width="1.7"/>
<path d="M1404.0 413.0 L1404.0 299.0" stroke="#a0d8a0" stroke-width="1.7"/>
<path d="M1312.0 413.0 L1312.0 299.0" stroke="#db7500" stroke-width="1.7"/>
<path d="M1838.5 413.0 L1838.5 353.0 Q1838.5 346.0 1831.5 346.0 L1531.5 346.0 Q1524.5 346.0 1524.5 339.0 L1524.5 299.0" stroke="#db7500" stroke-width="1.7"/>
<path d="M2095.5 413.0 L2095.5 353.0 Q2095.5 346.0 2088.5 346.0 L1933.8 346.0 Q1926.8 346.0 1926.8 339.0 L1926.8 299.0" stroke="#a0d8a0" stroke-width="1.7"/>
<path d="M2333.5 413.0 L2333.5 357.0 Q2333.5 350.0 2326.5 350.0 L1939.8 350.0 Q1932.8 350.0 1932.8 343.0 L1932.8 299.0" stroke="#c8c6c4" stroke-width="1.7"/>
<path d="M845.8 241.0 L845.8 185.0 Q845.8 178.0 852.8 178.0 L1063.2 178.0 Q1070.2 178.0 1070.2 171.0 L1070.2 154.0" stroke="#a0d8a0" stroke-width="1.7"/>
<path d="M583.3 241.0 L583.3 181.0 Q583.3 174.0 590.3 174.0 L1053.2 174.0 Q1060.2 174.0 1060.2 167.0 L1060.2 154.0" stroke="#8661c5" stroke-width="1.7"/>
<path d="M1820.3 241.0 L1820.3 185.0 Q1820.3 178.0 1813.3 178.0 L1247.2 178.0 Q1240.2 178.0 1240.2 171.0 L1240.2 154.0" stroke="#c8c6c4" stroke-width="1.7"/>
<path d="M1402.5 241.0 L1402.5 181.0 Q1402.5 174.0 1395.5 174.0 L1235.2 174.0 Q1228.2 174.0 1228.2 167.0 L1228.2 154.0" stroke="#db7500" stroke-width="1.7"/>
<path d="M551.5 413.0 L551.5 378.5 Q551.5 371.5 558.5 371.5 L748.8 371.5 Q755.8 371.5 755.8 364.5 L755.8 299.0" stroke="#ba0d16" stroke-width="1.6" stroke-dasharray="5 4"/>
<path d="M1094.8 241.0 L1094.8 202.5 Q1094.8 199.5 1091.8 199.5 L1091.8 199.5 Q1088.8 199.5 1088.8 196.5 L1088.8 154.0" stroke="#db7500" stroke-width="1.6" stroke-dasharray="5 4"/>
</g>
<g stroke="none"><rect x="491.8" y="361.5" width="119.4" height="20" rx="10" fill="#ffffff" stroke="#d8d6d4" stroke-width="1"/><text x="551.5" y="375.1" font-size="10.5" font-weight="600" fill="#242424" text-anchor="middle">limited propagation</text></g>
<g stroke="none"><rect x="1022.3" y="189.5" width="145.0" height="20" rx="10" fill="#ffffff" stroke="#d8d6d4" stroke-width="1"/><text x="1094.8" y="203.1" font-size="10.5" font-weight="600" fill="#242424" text-anchor="middle">suppressed propagation</text></g>
<g filter="url(#cs)"><rect x="0.0" y="413.0" width="197" height="121" rx="10" fill="#f2f8f2" stroke="#a0d8a0" stroke-width="2"/></g><g transform="translate(6.0,420.16) scale(0.82)"><circle cx="12" cy="12" r="8.4" fill="none" stroke="#605e5c" stroke-width="1.6" stroke-linecap="round" stroke-linejoin="round"/><path d="M3.6 12h16.8M12 3.6c3 3 3 13.8 0 16.8M12 3.6c-3 3-3 13.8 0 16.8" fill="none" stroke="#605e5c" stroke-width="1.6" stroke-linecap="round" stroke-linejoin="round"/></g><text x="34.0" y="433.5" font-size="12.5" font-weight="600" fill="#242424">Web frontend</text><rect x="124.7" y="421.00" width="64.3" height="18" rx="9" fill="#ffffff" stroke="#a0d8a0" stroke-width="1"/><circle cx="135.7" cy="430.0" r="6" fill="#4c9a2a"/><path d="M133.0 430.0 l1.9 1.9 l3.4 -3.9" fill="none" stroke="#ffffff" stroke-width="1.4" stroke-linecap="round" stroke-linejoin="round"/><text x="144.7" y="433.57" font-size="10.5" fill="#323130">Healthy</text><line x1="1.0" y1="450.0" x2="196.0" y2="450.0" stroke="#e6e4e2"/><circle cx="16.0" cy="465.0" r="6" fill="#4c9a2a"/><path d="M13.3 465.0 l1.9 1.9 l3.4 -3.9" fill="none" stroke="#ffffff" stroke-width="1.4" stroke-linecap="round" stroke-linejoin="round"/><g transform="translate(32.0,458.0) scale(0.875)"><rect x="1.5" y="8" width="2.6" height="6" rx="0.6" fill="#8661c5"/><rect x="5.7" y="4.5" width="2.6" height="9.5" rx="0.6" fill="#0078D4"/><rect x="9.9" y="6.5" width="2.6" height="7.5" rx="0.6" fill="#3fb0ac"/></g><text x="52.0" y="468.5" font-size="10.5" fill="#242424">Web latency</text><text x="185.0" y="468.5" font-size="10.5" font-weight="400" fill="#605e5c" text-anchor="end">2</text><line x1="10.0" y1="474.0" x2="187.0" y2="474.0" stroke="#e6e4e2" stroke-opacity="0.7"/><circle cx="16.0" cy="483.0" r="6" fill="#4c9a2a"/><path d="M13.3 483.0 l1.9 1.9 l3.4 -3.9" fill="none" stroke="#ffffff" stroke-width="1.4" stroke-linecap="round" stroke-linejoin="round"/><g transform="translate(32.0,476.0) scale(0.875)"><rect x="1.5" y="8" width="2.6" height="6" rx="0.6" fill="#8661c5"/><rect x="5.7" y="4.5" width="2.6" height="9.5" rx="0.6" fill="#0078D4"/><rect x="9.9" y="6.5" width="2.6" height="7.5" rx="0.6" fill="#3fb0ac"/></g><text x="52.0" y="486.5" font-size="10.5" fill="#242424">HTTP 5xx rate</text><text x="185.0" y="486.5" font-size="10.5" font-weight="400" fill="#605e5c" text-anchor="end">1</text><line x1="10.0" y1="492.0" x2="187.0" y2="492.0" stroke="#e6e4e2" stroke-opacity="0.7"/><circle cx="16.0" cy="501.0" r="6" fill="#4c9a2a"/><path d="M13.3 501.0 l1.9 1.9 l3.4 -3.9" fill="none" stroke="#ffffff" stroke-width="1.4" stroke-linecap="round" stroke-linejoin="round"/><g transform="translate(32.0,494.0) scale(0.875)"><rect x="1.5" y="8" width="2.6" height="6" rx="0.6" fill="#8661c5"/><rect x="5.7" y="4.5" width="2.6" height="9.5" rx="0.6" fill="#0078D4"/><rect x="9.9" y="6.5" width="2.6" height="7.5" rx="0.6" fill="#3fb0ac"/></g><text x="52.0" y="504.5" font-size="10.5" fill="#242424">Request rate</text><text x="185.0" y="504.5" font-size="10.5" font-weight="400" fill="#605e5c" text-anchor="end">2</text><line x1="10.0" y1="510.0" x2="187.0" y2="510.0" stroke="#e6e4e2" stroke-opacity="0.7"/><circle cx="16.0" cy="519.0" r="6" fill="#4c9a2a"/><path d="M13.3 519.0 l1.9 1.9 l3.4 -3.9" fill="none" stroke="#ffffff" stroke-width="1.4" stroke-linecap="round" stroke-linejoin="round"/><g transform="translate(32.0,512.0) scale(0.875)"><rect x="1.5" y="8" width="2.6" height="6" rx="0.6" fill="#8661c5"/><rect x="5.7" y="4.5" width="2.6" height="9.5" rx="0.6" fill="#0078D4"/><rect x="9.9" y="6.5" width="2.6" height="7.5" rx="0.6" fill="#3fb0ac"/></g><text x="52.0" y="522.5" font-size="10.5" fill="#242424">Availability</text><text x="185.0" y="522.5" font-size="10.5" font-weight="400" fill="#605e5c" text-anchor="end">0</text>
<g filter="url(#cs)"><rect x="227.0" y="413.0" width="194" height="121" rx="10" fill="#fbf2e7" stroke="#db7500" stroke-width="2"/></g><g transform="translate(233.0,420.16) scale(0.82)"><path d="M13 2.5 5.5 13.5H11l-1 8 8.5-12H12z" fill="none" stroke="#605e5c" stroke-width="1.6" stroke-linecap="round" stroke-linejoin="round"/></g><text x="261.0" y="433.5" font-size="12.5" font-weight="600" fill="#242424">API service</text><rect x="338.0" y="421.00" width="75.0" height="18" rx="9" fill="#ffffff" stroke="#db7500" stroke-width="1"/><circle cx="349.0" cy="430.0" r="6" fill="#c26a00"/><text x="358.0" y="433.57" font-size="10.5" fill="#323130">Degraded</text><line x1="228.0" y1="450.0" x2="420.0" y2="450.0" stroke="#e6e4e2"/><circle cx="243.0" cy="465.0" r="6" fill="#c26a00"/><g transform="translate(259.0,458.0) scale(0.875)"><rect x="1.5" y="8" width="2.6" height="6" rx="0.6" fill="#8661c5"/><rect x="5.7" y="4.5" width="2.6" height="9.5" rx="0.6" fill="#0078D4"/><rect x="9.9" y="6.5" width="2.6" height="7.5" rx="0.6" fill="#3fb0ac"/></g><text x="279.0" y="468.5" font-size="10.5" fill="#242424">Request rate</text><text x="409.0" y="468.5" font-size="10.5" font-weight="600" fill="#c26a00" text-anchor="end">19</text><line x1="237.0" y1="474.0" x2="411.0" y2="474.0" stroke="#e6e4e2" stroke-opacity="0.7"/><circle cx="243.0" cy="483.0" r="6" fill="#4c9a2a"/><path d="M240.3 483.0 l1.9 1.9 l3.4 -3.9" fill="none" stroke="#ffffff" stroke-width="1.4" stroke-linecap="round" stroke-linejoin="round"/><g transform="translate(259.0,476.0) scale(0.875)"><rect x="1.5" y="8" width="2.6" height="6" rx="0.6" fill="#8661c5"/><rect x="5.7" y="4.5" width="2.6" height="9.5" rx="0.6" fill="#0078D4"/><rect x="9.9" y="6.5" width="2.6" height="7.5" rx="0.6" fill="#3fb0ac"/></g><text x="279.0" y="486.5" font-size="10.5" fill="#242424">P95 latency</text><text x="409.0" y="486.5" font-size="10.5" font-weight="400" fill="#605e5c" text-anchor="end">2</text><line x1="237.0" y1="492.0" x2="411.0" y2="492.0" stroke="#e6e4e2" stroke-opacity="0.7"/><circle cx="243.0" cy="501.0" r="6" fill="#4c9a2a"/><path d="M240.3 501.0 l1.9 1.9 l3.4 -3.9" fill="none" stroke="#ffffff" stroke-width="1.4" stroke-linecap="round" stroke-linejoin="round"/><g transform="translate(259.0,494.0) scale(0.875)"><rect x="1.5" y="8" width="2.6" height="6" rx="0.6" fill="#8661c5"/><rect x="5.7" y="4.5" width="2.6" height="9.5" rx="0.6" fill="#0078D4"/><rect x="9.9" y="6.5" width="2.6" height="7.5" rx="0.6" fill="#3fb0ac"/></g><text x="279.0" y="504.5" font-size="10.5" fill="#242424">429 rate</text><text x="409.0" y="504.5" font-size="10.5" font-weight="400" fill="#605e5c" text-anchor="end">0</text><line x1="237.0" y1="510.0" x2="411.0" y2="510.0" stroke="#e6e4e2" stroke-opacity="0.7"/><circle cx="243.0" cy="519.0" r="6" fill="#4c9a2a"/><path d="M240.3 519.0 l1.9 1.9 l3.4 -3.9" fill="none" stroke="#ffffff" stroke-width="1.4" stroke-linecap="round" stroke-linejoin="round"/><g transform="translate(259.0,512.0) scale(0.875)"><rect x="1.5" y="8" width="2.6" height="6" rx="0.6" fill="#8661c5"/><rect x="5.7" y="4.5" width="2.6" height="9.5" rx="0.6" fill="#0078D4"/><rect x="9.9" y="6.5" width="2.6" height="7.5" rx="0.6" fill="#3fb0ac"/></g><text x="279.0" y="522.5" font-size="10.5" fill="#242424">Error rate</text><text x="409.0" y="522.5" font-size="10.5" font-weight="400" fill="#605e5c" text-anchor="end">1</text>
<g filter="url(#cs)"><rect x="682.0" y="413.0" width="176" height="139" rx="10" fill="#f2f8f2" stroke="#a0d8a0" stroke-width="2"/></g><g transform="translate(688.0,420.16) scale(0.82)"><ellipse cx="12" cy="6" rx="7" ry="2.8" fill="none" stroke="#605e5c" stroke-width="1.6" stroke-linecap="round" stroke-linejoin="round"/><path d="M5 6v12c0 1.55 3.13 2.8 7 2.8s7-1.25 7-2.8V6" fill="none" stroke="#605e5c" stroke-width="1.6" stroke-linecap="round" stroke-linejoin="round"/><path d="M5 12c0 1.55 3.13 2.8 7 2.8s7-1.25 7-2.8" fill="none" stroke="#605e5c" stroke-width="1.6" stroke-linecap="round" stroke-linejoin="round"/></g><text x="716.0" y="433.5" font-size="12.5" font-weight="600" fill="#242424">Database</text><rect x="785.7" y="421.00" width="64.3" height="18" rx="9" fill="#ffffff" stroke="#a0d8a0" stroke-width="1"/><circle cx="796.7" cy="430.0" r="6" fill="#4c9a2a"/><path d="M794.0 430.0 l1.9 1.9 l3.4 -3.9" fill="none" stroke="#ffffff" stroke-width="1.4" stroke-linecap="round" stroke-linejoin="round"/><text x="805.7" y="433.57" font-size="10.5" fill="#323130">Healthy</text><line x1="683.0" y1="450.0" x2="857.0" y2="450.0" stroke="#e6e4e2"/><circle cx="698.0" cy="465.0" r="6" fill="#4c9a2a"/><path d="M695.3 465.0 l1.9 1.9 l3.4 -3.9" fill="none" stroke="#ffffff" stroke-width="1.4" stroke-linecap="round" stroke-linejoin="round"/><g transform="translate(714.0,458.0) scale(0.875)"><rect x="1.5" y="8" width="2.6" height="6" rx="0.6" fill="#8661c5"/><rect x="5.7" y="4.5" width="2.6" height="9.5" rx="0.6" fill="#0078D4"/><rect x="9.9" y="6.5" width="2.6" height="7.5" rx="0.6" fill="#3fb0ac"/></g><text x="734.0" y="468.5" font-size="10.5" fill="#242424">Connection pool</text><text x="846.0" y="468.5" font-size="10.5" font-weight="400" fill="#605e5c" text-anchor="end">0</text><line x1="692.0" y1="474.0" x2="848.0" y2="474.0" stroke="#e6e4e2" stroke-opacity="0.7"/><circle cx="698.0" cy="483.0" r="6" fill="#4c9a2a"/><path d="M695.3 483.0 l1.9 1.9 l3.4 -3.9" fill="none" stroke="#ffffff" stroke-width="1.4" stroke-linecap="round" stroke-linejoin="round"/><g transform="translate(714.0,476.0) scale(0.875)"><rect x="1.5" y="8" width="2.6" height="6" rx="0.6" fill="#8661c5"/><rect x="5.7" y="4.5" width="2.6" height="9.5" rx="0.6" fill="#0078D4"/><rect x="9.9" y="6.5" width="2.6" height="7.5" rx="0.6" fill="#3fb0ac"/></g><text x="734.0" y="486.5" font-size="10.5" fill="#242424">DTU utilization</text><text x="846.0" y="486.5" font-size="10.5" font-weight="400" fill="#605e5c" text-anchor="end">0</text><line x1="692.0" y1="492.0" x2="848.0" y2="492.0" stroke="#e6e4e2" stroke-opacity="0.7"/><circle cx="698.0" cy="501.0" r="6" fill="#4c9a2a"/><path d="M695.3 501.0 l1.9 1.9 l3.4 -3.9" fill="none" stroke="#ffffff" stroke-width="1.4" stroke-linecap="round" stroke-linejoin="round"/><g transform="translate(714.0,494.0) scale(0.875)"><rect x="1.5" y="8" width="2.6" height="6" rx="0.6" fill="#8661c5"/><rect x="5.7" y="4.5" width="2.6" height="9.5" rx="0.6" fill="#0078D4"/><rect x="9.9" y="6.5" width="2.6" height="7.5" rx="0.6" fill="#3fb0ac"/></g><text x="734.0" y="504.5" font-size="10.5" fill="#242424">Failed connections</text><text x="846.0" y="504.5" font-size="10.5" font-weight="400" fill="#605e5c" text-anchor="end">2</text><line x1="692.0" y1="510.0" x2="848.0" y2="510.0" stroke="#e6e4e2" stroke-opacity="0.7"/><circle cx="698.0" cy="519.0" r="6" fill="#4c9a2a"/><path d="M695.3 519.0 l1.9 1.9 l3.4 -3.9" fill="none" stroke="#ffffff" stroke-width="1.4" stroke-linecap="round" stroke-linejoin="round"/><g transform="translate(714.0,512.0) scale(0.875)"><rect x="1.5" y="8" width="2.6" height="6" rx="0.6" fill="#8661c5"/><rect x="5.7" y="4.5" width="2.6" height="9.5" rx="0.6" fill="#0078D4"/><rect x="9.9" y="6.5" width="2.6" height="7.5" rx="0.6" fill="#3fb0ac"/></g><text x="734.0" y="522.5" font-size="10.5" fill="#242424">Replication lag</text><text x="846.0" y="522.5" font-size="10.5" font-weight="400" fill="#605e5c" text-anchor="end">0</text><line x1="692.0" y1="528.0" x2="848.0" y2="528.0" stroke="#e6e4e2" stroke-opacity="0.7"/><circle cx="698.0" cy="537.0" r="6" fill="#4c9a2a"/><path d="M695.3 537.0 l1.9 1.9 l3.4 -3.9" fill="none" stroke="#ffffff" stroke-width="1.4" stroke-linecap="round" stroke-linejoin="round"/><g transform="translate(714.0,530.0) scale(0.875)"><rect x="1.5" y="8" width="2.6" height="6" rx="0.6" fill="#8661c5"/><rect x="5.7" y="4.5" width="2.6" height="9.5" rx="0.6" fill="#0078D4"/><rect x="9.9" y="6.5" width="2.6" height="7.5" rx="0.6" fill="#3fb0ac"/></g><text x="734.0" y="540.5" font-size="10.5" fill="#242424">Deadlocks</text><text x="846.0" y="540.5" font-size="10.5" font-weight="400" fill="#605e5c" text-anchor="end">0</text>
<g filter="url(#cs)"><rect x="451.0" y="413.0" width="201" height="103" rx="10" fill="#faeceb" stroke="#ba0d16" stroke-width="2"/></g><g transform="translate(457.0,420.16) scale(0.82)"><rect x="3.5" y="4" width="17" height="16" rx="2" fill="none" stroke="#605e5c" stroke-width="1.6" stroke-linecap="round" stroke-linejoin="round"/><path d="M8 4v16M3.5 9.5h4M3.5 14.5h4" fill="none" stroke="#605e5c" stroke-width="1.6" stroke-linecap="round" stroke-linejoin="round"/></g><text x="485.0" y="433.5" font-size="12.5" font-weight="600" fill="#242424">Redis cache</text><rect x="567.8" y="421.00" width="76.2" height="18" rx="9" fill="#ffffff" stroke="#ba0d16" stroke-width="1"/><circle cx="578.8" cy="430.0" r="6" fill="#c50f18"/><text x="587.8" y="433.57" font-size="10.5" fill="#323130">Unhealthy</text><line x1="452.0" y1="450.0" x2="651.0" y2="450.0" stroke="#e6e4e2"/><circle cx="467.0" cy="465.0" r="6" fill="#c50f18"/><g transform="translate(483.0,458.0) scale(0.875)"><rect x="1.5" y="8" width="2.6" height="6" rx="0.6" fill="#8661c5"/><rect x="5.7" y="4.5" width="2.6" height="9.5" rx="0.6" fill="#0078D4"/><rect x="9.9" y="6.5" width="2.6" height="7.5" rx="0.6" fill="#3fb0ac"/></g><text x="503.0" y="468.5" font-size="10.5" fill="#242424">Hit ratio</text><text x="640.0" y="468.5" font-size="10.5" font-weight="600" fill="#c50f18" text-anchor="end">116</text><line x1="461.0" y1="474.0" x2="642.0" y2="474.0" stroke="#e6e4e2" stroke-opacity="0.7"/><circle cx="467.0" cy="483.0" r="6" fill="#4c9a2a"/><path d="M464.3 483.0 l1.9 1.9 l3.4 -3.9" fill="none" stroke="#ffffff" stroke-width="1.4" stroke-linecap="round" stroke-linejoin="round"/><g transform="translate(483.0,476.0) scale(0.875)"><rect x="1.5" y="8" width="2.6" height="6" rx="0.6" fill="#8661c5"/><rect x="5.7" y="4.5" width="2.6" height="9.5" rx="0.6" fill="#0078D4"/><rect x="9.9" y="6.5" width="2.6" height="7.5" rx="0.6" fill="#3fb0ac"/></g><text x="503.0" y="486.5" font-size="10.5" fill="#242424">Eviction rate</text><text x="640.0" y="486.5" font-size="10.5" font-weight="400" fill="#605e5c" text-anchor="end">1</text><line x1="461.0" y1="492.0" x2="642.0" y2="492.0" stroke="#e6e4e2" stroke-opacity="0.7"/><circle cx="467.0" cy="501.0" r="6" fill="#4c9a2a"/><path d="M464.3 501.0 l1.9 1.9 l3.4 -3.9" fill="none" stroke="#ffffff" stroke-width="1.4" stroke-linecap="round" stroke-linejoin="round"/><g transform="translate(483.0,494.0) scale(0.875)"><rect x="1.5" y="8" width="2.6" height="6" rx="0.6" fill="#8661c5"/><rect x="5.7" y="4.5" width="2.6" height="9.5" rx="0.6" fill="#0078D4"/><rect x="9.9" y="6.5" width="2.6" height="7.5" rx="0.6" fill="#3fb0ac"/></g><text x="503.0" y="504.5" font-size="10.5" fill="#242424">Memory pressure</text><text x="640.0" y="504.5" font-size="10.5" font-weight="400" fill="#605e5c" text-anchor="end">0</text>
<g filter="url(#cs)"><rect x="1123.0" y="413.0" width="201" height="103" rx="10" fill="#fbf2e7" stroke="#db7500" stroke-width="2"/></g><g transform="translate(1129.0,420.16) scale(0.82)"><rect x="4" y="5" width="16" height="3" rx="1" fill="none" stroke="#605e5c" stroke-width="1.6" stroke-linecap="round" stroke-linejoin="round"/><rect x="4" y="10.5" width="16" height="3" rx="1" fill="none" stroke="#605e5c" stroke-width="1.6" stroke-linecap="round" stroke-linejoin="round"/><rect x="4" y="16" width="10" height="3" rx="1" fill="none" stroke="#605e5c" stroke-width="1.6" stroke-linecap="round" stroke-linejoin="round"/></g><text x="1157.0" y="433.5" font-size="12.5" font-weight="600" fill="#242424">Order queue</text><rect x="1241.0" y="421.00" width="75.0" height="18" rx="9" fill="#ffffff" stroke="#db7500" stroke-width="1"/><circle cx="1252.0" cy="430.0" r="6" fill="#c26a00"/><text x="1261.0" y="433.57" font-size="10.5" fill="#323130">Degraded</text><line x1="1124.0" y1="450.0" x2="1323.0" y2="450.0" stroke="#e6e4e2"/><circle cx="1139.0" cy="465.0" r="6" fill="#c26a00"/><g transform="translate(1155.0,458.0) scale(0.875)"><rect x="1.5" y="8" width="2.6" height="6" rx="0.6" fill="#8661c5"/><rect x="5.7" y="4.5" width="2.6" height="9.5" rx="0.6" fill="#0078D4"/><rect x="9.9" y="6.5" width="2.6" height="7.5" rx="0.6" fill="#3fb0ac"/></g><text x="1175.0" y="468.5" font-size="10.5" fill="#242424">Queue depth</text><text x="1312.0" y="468.5" font-size="10.5" font-weight="600" fill="#c26a00" text-anchor="end">18</text><line x1="1133.0" y1="474.0" x2="1314.0" y2="474.0" stroke="#e6e4e2" stroke-opacity="0.7"/><circle cx="1139.0" cy="483.0" r="6" fill="#4c9a2a"/><path d="M1136.3 483.0 l1.9 1.9 l3.4 -3.9" fill="none" stroke="#ffffff" stroke-width="1.4" stroke-linecap="round" stroke-linejoin="round"/><g transform="translate(1155.0,476.0) scale(0.875)"><rect x="1.5" y="8" width="2.6" height="6" rx="0.6" fill="#8661c5"/><rect x="5.7" y="4.5" width="2.6" height="9.5" rx="0.6" fill="#0078D4"/><rect x="9.9" y="6.5" width="2.6" height="7.5" rx="0.6" fill="#3fb0ac"/></g><text x="1175.0" y="486.5" font-size="10.5" fill="#242424">Oldest message age</text><text x="1312.0" y="486.5" font-size="10.5" font-weight="400" fill="#605e5c" text-anchor="end">0</text><line x1="1133.0" y1="492.0" x2="1314.0" y2="492.0" stroke="#e6e4e2" stroke-opacity="0.7"/><circle cx="1139.0" cy="501.0" r="6" fill="#4c9a2a"/><path d="M1136.3 501.0 l1.9 1.9 l3.4 -3.9" fill="none" stroke="#ffffff" stroke-width="1.4" stroke-linecap="round" stroke-linejoin="round"/><g transform="translate(1155.0,494.0) scale(0.875)"><rect x="1.5" y="8" width="2.6" height="6" rx="0.6" fill="#8661c5"/><rect x="5.7" y="4.5" width="2.6" height="9.5" rx="0.6" fill="#0078D4"/><rect x="9.9" y="6.5" width="2.6" height="7.5" rx="0.6" fill="#3fb0ac"/></g><text x="1175.0" y="504.5" font-size="10.5" fill="#242424">Dead-letter count</text><text x="1312.0" y="504.5" font-size="10.5" font-weight="400" fill="#605e5c" text-anchor="end">2</text>
<g filter="url(#cs)"><rect x="1999.0" y="413.0" width="193" height="85" rx="10" fill="#f2f8f2" stroke="#a0d8a0" stroke-width="2"/></g><g transform="translate(2005.0,420.16) scale(0.82)"><ellipse cx="12" cy="6" rx="7" ry="2.8" fill="none" stroke="#605e5c" stroke-width="1.6" stroke-linecap="round" stroke-linejoin="round"/><path d="M5 6v12c0 1.55 3.13 2.8 7 2.8s7-1.25 7-2.8V6" fill="none" stroke="#605e5c" stroke-width="1.6" stroke-linecap="round" stroke-linejoin="round"/><path d="M5 12c0 1.55 3.13 2.8 7 2.8s7-1.25 7-2.8" fill="none" stroke="#605e5c" stroke-width="1.6" stroke-linecap="round" stroke-linejoin="round"/></g><text x="2033.0" y="433.5" font-size="12.5" font-weight="600" fill="#242424">Blob storage</text><rect x="2119.7" y="421.00" width="64.3" height="18" rx="9" fill="#ffffff" stroke="#a0d8a0" stroke-width="1"/><circle cx="2130.7" cy="430.0" r="6" fill="#4c9a2a"/><path d="M2128.0 430.0 l1.9 1.9 l3.4 -3.9" fill="none" stroke="#ffffff" stroke-width="1.4" stroke-linecap="round" stroke-linejoin="round"/><text x="2139.7" y="433.57" font-size="10.5" fill="#323130">Healthy</text><line x1="2000.0" y1="450.0" x2="2191.0" y2="450.0" stroke="#e6e4e2"/><circle cx="2015.0" cy="465.0" r="6" fill="#4c9a2a"/><path d="M2012.3 465.0 l1.9 1.9 l3.4 -3.9" fill="none" stroke="#ffffff" stroke-width="1.4" stroke-linecap="round" stroke-linejoin="round"/><g transform="translate(2031.0,458.0) scale(0.875)"><rect x="1.5" y="8" width="2.6" height="6" rx="0.6" fill="#8661c5"/><rect x="5.7" y="4.5" width="2.6" height="9.5" rx="0.6" fill="#0078D4"/><rect x="9.9" y="6.5" width="2.6" height="7.5" rx="0.6" fill="#3fb0ac"/></g><text x="2051.0" y="468.5" font-size="10.5" fill="#242424">Availability</text><text x="2180.0" y="468.5" font-size="10.5" font-weight="400" fill="#605e5c" text-anchor="end">0</text><line x1="2009.0" y1="474.0" x2="2182.0" y2="474.0" stroke="#e6e4e2" stroke-opacity="0.7"/><circle cx="2015.0" cy="483.0" r="6" fill="#4c9a2a"/><path d="M2012.3 483.0 l1.9 1.9 l3.4 -3.9" fill="none" stroke="#ffffff" stroke-width="1.4" stroke-linecap="round" stroke-linejoin="round"/><g transform="translate(2031.0,476.0) scale(0.875)"><rect x="1.5" y="8" width="2.6" height="6" rx="0.6" fill="#8661c5"/><rect x="5.7" y="4.5" width="2.6" height="9.5" rx="0.6" fill="#0078D4"/><rect x="9.9" y="6.5" width="2.6" height="7.5" rx="0.6" fill="#3fb0ac"/></g><text x="2051.0" y="486.5" font-size="10.5" fill="#242424">Throttling rate</text><text x="2180.0" y="486.5" font-size="10.5" font-weight="400" fill="#605e5c" text-anchor="end">1</text>
<g filter="url(#cs)"><rect x="2222.0" y="413.0" width="223" height="103" rx="10" fill="#f6f6f5" stroke="#c8c6c4" stroke-width="2" stroke-dasharray="4 3"/></g><g transform="translate(2228.0,420.16) scale(0.82)"><path d="M12 3l7 2.6v5.2c0 4.6-3 7.9-7 9.2-4-1.3-7-4.6-7-9.2V5.6z" fill="none" stroke="#605e5c" stroke-width="1.6" stroke-linecap="round" stroke-linejoin="round"/><path d="M8.8 12.2l2.2 2.2 4-4.6" fill="none" stroke="#605e5c" stroke-width="1.6" stroke-linecap="round" stroke-linejoin="round"/></g><text x="2256.0" y="433.5" font-size="12.5" font-weight="600" fill="#242424">Identity provider</text><rect x="2364.4" y="421.00" width="72.6" height="18" rx="9" fill="#ffffff" stroke="#c8c6c4" stroke-width="1"/><circle cx="2375.4" cy="430.0" r="6" fill="#8a8886"/><text x="2384.4" y="433.57" font-size="10.5" fill="#323130">Unknown</text><line x1="2223.0" y1="450.0" x2="2444.0" y2="450.0" stroke="#e6e4e2"/><circle cx="2238.0" cy="465.0" r="6" fill="#4c9a2a"/><path d="M2235.3 465.0 l1.9 1.9 l3.4 -3.9" fill="none" stroke="#ffffff" stroke-width="1.4" stroke-linecap="round" stroke-linejoin="round"/><g transform="translate(2254.0,458.0) scale(0.875)"><rect x="1.5" y="8" width="2.6" height="6" rx="0.6" fill="#8661c5"/><rect x="5.7" y="4.5" width="2.6" height="9.5" rx="0.6" fill="#0078D4"/><rect x="9.9" y="6.5" width="2.6" height="7.5" rx="0.6" fill="#3fb0ac"/></g><text x="2274.0" y="468.5" font-size="10.5" fill="#242424">Token failures</text><text x="2433.0" y="468.5" font-size="10.5" font-weight="400" fill="#605e5c" text-anchor="end">2</text><line x1="2232.0" y1="474.0" x2="2435.0" y2="474.0" stroke="#e6e4e2" stroke-opacity="0.7"/><circle cx="2238.0" cy="483.0" r="6" fill="#4c9a2a"/><path d="M2235.3 483.0 l1.9 1.9 l3.4 -3.9" fill="none" stroke="#ffffff" stroke-width="1.4" stroke-linecap="round" stroke-linejoin="round"/><g transform="translate(2254.0,476.0) scale(0.875)"><rect x="1.5" y="8" width="2.6" height="6" rx="0.6" fill="#8661c5"/><rect x="5.7" y="4.5" width="2.6" height="9.5" rx="0.6" fill="#0078D4"/><rect x="9.9" y="6.5" width="2.6" height="7.5" rx="0.6" fill="#3fb0ac"/></g><text x="2274.0" y="486.5" font-size="10.5" fill="#242424">MFA challenges</text><text x="2433.0" y="486.5" font-size="10.5" font-weight="400" fill="#605e5c" text-anchor="end">1</text><line x1="2232.0" y1="492.0" x2="2435.0" y2="492.0" stroke="#e6e4e2" stroke-opacity="0.7"/><circle cx="2238.0" cy="501.0" r="6" fill="#4c9a2a"/><path d="M2235.3 501.0 l1.9 1.9 l3.4 -3.9" fill="none" stroke="#ffffff" stroke-width="1.4" stroke-linecap="round" stroke-linejoin="round"/><g transform="translate(2254.0,494.0) scale(0.875)"><rect x="1.5" y="8" width="2.6" height="6" rx="0.6" fill="#8661c5"/><rect x="5.7" y="4.5" width="2.6" height="9.5" rx="0.6" fill="#0078D4"/><rect x="9.9" y="6.5" width="2.6" height="7.5" rx="0.6" fill="#3fb0ac"/></g><text x="2274.0" y="504.5" font-size="10.5" fill="#242424">Sign-in latency</text><text x="2433.0" y="504.5" font-size="10.5" font-weight="400" fill="#605e5c" text-anchor="end">2</text>
<g filter="url(#cs)"><rect x="888.0" y="413.0" width="205" height="103" rx="10" fill="#f2f8f2" stroke="#a0d8a0" stroke-width="2"/></g><g transform="translate(894.0,420.16) scale(0.82)"><path d="M4 20h16" fill="none" stroke="#605e5c" stroke-width="1.6" stroke-linecap="round" stroke-linejoin="round"/><path d="M6.5 20v-6M12 20V6.5M17.5 20v-9" fill="none" stroke="#605e5c" stroke-width="1.6" stroke-linecap="round" stroke-linejoin="round"/></g><text x="922.0" y="433.5" font-size="12.5" font-weight="600" fill="#242424">Search service</text><rect x="1020.7" y="421.00" width="64.3" height="18" rx="9" fill="#ffffff" stroke="#a0d8a0" stroke-width="1"/><circle cx="1031.7" cy="430.0" r="6" fill="#4c9a2a"/><path d="M1029.0 430.0 l1.9 1.9 l3.4 -3.9" fill="none" stroke="#ffffff" stroke-width="1.4" stroke-linecap="round" stroke-linejoin="round"/><text x="1040.7" y="433.57" font-size="10.5" fill="#323130">Healthy</text><line x1="889.0" y1="450.0" x2="1092.0" y2="450.0" stroke="#e6e4e2"/><circle cx="904.0" cy="465.0" r="6" fill="#4c9a2a"/><path d="M901.3 465.0 l1.9 1.9 l3.4 -3.9" fill="none" stroke="#ffffff" stroke-width="1.4" stroke-linecap="round" stroke-linejoin="round"/><g transform="translate(920.0,458.0) scale(0.875)"><rect x="1.5" y="8" width="2.6" height="6" rx="0.6" fill="#8661c5"/><rect x="5.7" y="4.5" width="2.6" height="9.5" rx="0.6" fill="#0078D4"/><rect x="9.9" y="6.5" width="2.6" height="7.5" rx="0.6" fill="#3fb0ac"/></g><text x="940.0" y="468.5" font-size="10.5" fill="#242424">Index lag</text><text x="1081.0" y="468.5" font-size="10.5" font-weight="400" fill="#605e5c" text-anchor="end">0</text><line x1="898.0" y1="474.0" x2="1083.0" y2="474.0" stroke="#e6e4e2" stroke-opacity="0.7"/><circle cx="904.0" cy="483.0" r="6" fill="#4c9a2a"/><path d="M901.3 483.0 l1.9 1.9 l3.4 -3.9" fill="none" stroke="#ffffff" stroke-width="1.4" stroke-linecap="round" stroke-linejoin="round"/><g transform="translate(920.0,476.0) scale(0.875)"><rect x="1.5" y="8" width="2.6" height="6" rx="0.6" fill="#8661c5"/><rect x="5.7" y="4.5" width="2.6" height="9.5" rx="0.6" fill="#0078D4"/><rect x="9.9" y="6.5" width="2.6" height="7.5" rx="0.6" fill="#3fb0ac"/></g><text x="940.0" y="486.5" font-size="10.5" fill="#242424">Query latency</text><text x="1081.0" y="486.5" font-size="10.5" font-weight="400" fill="#605e5c" text-anchor="end">1</text><line x1="898.0" y1="492.0" x2="1083.0" y2="492.0" stroke="#e6e4e2" stroke-opacity="0.7"/><circle cx="904.0" cy="501.0" r="6" fill="#4c9a2a"/><path d="M901.3 501.0 l1.9 1.9 l3.4 -3.9" fill="none" stroke="#ffffff" stroke-width="1.4" stroke-linecap="round" stroke-linejoin="round"/><g transform="translate(920.0,494.0) scale(0.875)"><rect x="1.5" y="8" width="2.6" height="6" rx="0.6" fill="#8661c5"/><rect x="5.7" y="4.5" width="2.6" height="9.5" rx="0.6" fill="#0078D4"/><rect x="9.9" y="6.5" width="2.6" height="7.5" rx="0.6" fill="#3fb0ac"/></g><text x="940.0" y="504.5" font-size="10.5" fill="#242424">Error rate</text><text x="1081.0" y="504.5" font-size="10.5" font-weight="400" fill="#605e5c" text-anchor="end">1</text>
<g filter="url(#cs)"><rect x="1354.0" y="413.0" width="324" height="103" rx="10" fill="#f2f8f2" stroke="#a0d8a0" stroke-width="2"/></g><g transform="translate(1360.0,420.16) scale(0.82)"><path d="M12 3.2l7.6 4.4v8.8L12 20.8l-7.6-4.4V7.6z" fill="none" stroke="#605e5c" stroke-width="1.6" stroke-linecap="round" stroke-linejoin="round"/><path d="M4.6 7.8l7.4 4.3 7.4-4.3M12 12.1v8.6" fill="none" stroke="#605e5c" stroke-width="1.6" stroke-linecap="round" stroke-linejoin="round"/></g><text x="1388.0" y="433.5" font-size="12.5" font-weight="600" fill="#242424">Shipping service with a long name</text><rect x="1605.7" y="421.00" width="64.3" height="18" rx="9" fill="#ffffff" stroke="#a0d8a0" stroke-width="1"/><circle cx="1616.7" cy="430.0" r="6" fill="#4c9a2a"/><path d="M1614.0 430.0 l1.9 1.9 l3.4 -3.9" fill="none" stroke="#ffffff" stroke-width="1.4" stroke-linecap="round" stroke-linejoin="round"/><text x="1625.7" y="433.57" font-size="10.5" fill="#323130">Healthy</text><line x1="1355.0" y1="450.0" x2="1677.0" y2="450.0" stroke="#e6e4e2"/><circle cx="1370.0" cy="465.0" r="6" fill="#4c9a2a"/><path d="M1367.3 465.0 l1.9 1.9 l3.4 -3.9" fill="none" stroke="#ffffff" stroke-width="1.4" stroke-linecap="round" stroke-linejoin="round"/><g transform="translate(1386.0,458.0) scale(0.875)"><rect x="1.5" y="8" width="2.6" height="6" rx="0.6" fill="#8661c5"/><rect x="5.7" y="4.5" width="2.6" height="9.5" rx="0.6" fill="#0078D4"/><rect x="9.9" y="6.5" width="2.6" height="7.5" rx="0.6" fill="#3fb0ac"/></g><text x="1406.0" y="468.5" font-size="10.5" fill="#242424">Carrier API availability</text><text x="1666.0" y="468.5" font-size="10.5" font-weight="400" fill="#605e5c" text-anchor="end">2</text><line x1="1364.0" y1="474.0" x2="1668.0" y2="474.0" stroke="#e6e4e2" stroke-opacity="0.7"/><circle cx="1370.0" cy="483.0" r="6" fill="#4c9a2a"/><path d="M1367.3 483.0 l1.9 1.9 l3.4 -3.9" fill="none" stroke="#ffffff" stroke-width="1.4" stroke-linecap="round" stroke-linejoin="round"/><g transform="translate(1386.0,476.0) scale(0.875)"><rect x="1.5" y="8" width="2.6" height="6" rx="0.6" fill="#8661c5"/><rect x="5.7" y="4.5" width="2.6" height="9.5" rx="0.6" fill="#0078D4"/><rect x="9.9" y="6.5" width="2.6" height="7.5" rx="0.6" fill="#3fb0ac"/></g><text x="1406.0" y="486.5" font-size="10.5" fill="#242424">Carrier API latency</text><text x="1666.0" y="486.5" font-size="10.5" font-weight="400" fill="#605e5c" text-anchor="end">1</text><line x1="1364.0" y1="492.0" x2="1668.0" y2="492.0" stroke="#e6e4e2" stroke-opacity="0.7"/><circle cx="1370.0" cy="501.0" r="6" fill="#4c9a2a"/><path d="M1367.3 501.0 l1.9 1.9 l3.4 -3.9" fill="none" stroke="#ffffff" stroke-width="1.4" stroke-linecap="round" stroke-linejoin="round"/><g transform="translate(1386.0,494.0) scale(0.875)"><rect x="1.5" y="8" width="2.6" height="6" rx="0.6" fill="#8661c5"/><rect x="5.7" y="4.5" width="2.6" height="9.5" rx="0.6" fill="#0078D4"/><rect x="9.9" y="6.5" width="2.6" height="7.5" rx="0.6" fill="#3fb0ac"/></g><text x="1406.0" y="504.5" font-size="10.5" fill="#242424">Error rate</text><text x="1666.0" y="504.5" font-size="10.5" font-weight="400" fill="#605e5c" text-anchor="end">1</text>
<g filter="url(#cs)"><rect x="1708.0" y="413.0" width="261" height="103" rx="10" fill="#fbf2e7" stroke="#db7500" stroke-width="2"/></g><g transform="translate(1714.0,420.16) scale(0.82)"><path d="M13 2.5 5.5 13.5H11l-1 8 8.5-12H12z" fill="none" stroke="#605e5c" stroke-width="1.6" stroke-linecap="round" stroke-linejoin="round"/></g><text x="1742.0" y="433.5" font-size="12.5" font-weight="600" fill="#242424">Background functions</text><rect x="1886.0" y="421.00" width="75.0" height="18" rx="9" fill="#ffffff" stroke="#db7500" stroke-width="1"/><circle cx="1897.0" cy="430.0" r="6" fill="#c26a00"/><text x="1906.0" y="433.57" font-size="10.5" fill="#323130">Degraded</text><line x1="1709.0" y1="450.0" x2="1968.0" y2="450.0" stroke="#e6e4e2"/><circle cx="1724.0" cy="465.0" r="6" fill="#c26a00"/><g transform="translate(1740.0,458.0) scale(0.875)"><rect x="1.5" y="8" width="2.6" height="6" rx="0.6" fill="#8661c5"/><rect x="5.7" y="4.5" width="2.6" height="9.5" rx="0.6" fill="#0078D4"/><rect x="9.9" y="6.5" width="2.6" height="7.5" rx="0.6" fill="#3fb0ac"/></g><text x="1760.0" y="468.5" font-size="10.5" fill="#242424">Invocation errors</text><text x="1957.0" y="468.5" font-size="10.5" font-weight="600" fill="#c26a00" text-anchor="end">9</text><line x1="1718.0" y1="474.0" x2="1959.0" y2="474.0" stroke="#e6e4e2" stroke-opacity="0.7"/><circle cx="1724.0" cy="483.0" r="6" fill="#4c9a2a"/><path d="M1721.3 483.0 l1.9 1.9 l3.4 -3.9" fill="none" stroke="#ffffff" stroke-width="1.4" stroke-linecap="round" stroke-linejoin="round"/><g transform="translate(1740.0,476.0) scale(0.875)"><rect x="1.5" y="8" width="2.6" height="6" rx="0.6" fill="#8661c5"/><rect x="5.7" y="4.5" width="2.6" height="9.5" rx="0.6" fill="#0078D4"/><rect x="9.9" y="6.5" width="2.6" height="7.5" rx="0.6" fill="#3fb0ac"/></g><text x="1760.0" y="486.5" font-size="10.5" fill="#242424">Duration</text><text x="1957.0" y="486.5" font-size="10.5" font-weight="400" fill="#605e5c" text-anchor="end">0</text><line x1="1718.0" y1="492.0" x2="1959.0" y2="492.0" stroke="#e6e4e2" stroke-opacity="0.7"/><circle cx="1724.0" cy="501.0" r="6" fill="#4c9a2a"/><path d="M1721.3 501.0 l1.9 1.9 l3.4 -3.9" fill="none" stroke="#ffffff" stroke-width="1.4" stroke-linecap="round" stroke-linejoin="round"/><g transform="translate(1740.0,494.0) scale(0.875)"><rect x="1.5" y="8" width="2.6" height="6" rx="0.6" fill="#8661c5"/><rect x="5.7" y="4.5" width="2.6" height="9.5" rx="0.6" fill="#0078D4"/><rect x="9.9" y="6.5" width="2.6" height="7.5" rx="0.6" fill="#3fb0ac"/></g><text x="1760.0" y="504.5" font-size="10.5" fill="#242424">Throttles</text><text x="1957.0" y="504.5" font-size="10.5" font-weight="400" fill="#605e5c" text-anchor="end">1</text>
<g filter="url(#cs)"><rect x="725.8" y="241.0" width="240" height="58" rx="10" fill="#f2f8f2" stroke="#a0d8a0" stroke-width="2"/></g><g transform="translate(731.8,260.16) scale(0.82)"><circle cx="5.5" cy="6" r="2" fill="none" stroke="#605e5c" stroke-width="1.6" stroke-linecap="round" stroke-linejoin="round"/><circle cx="5.5" cy="18" r="2" fill="none" stroke="#605e5c" stroke-width="1.6" stroke-linecap="round" stroke-linejoin="round"/><circle cx="18.5" cy="12" r="2" fill="none" stroke="#605e5c" stroke-width="1.6" stroke-linecap="round" stroke-linejoin="round"/><path d="M7.5 6h3a4 4 0 0 1 4 4M7.5 18h3a4 4 0 0 0 4-4" fill="none" stroke="#605e5c" stroke-width="1.6" stroke-linecap="round" stroke-linejoin="round"/></g><text x="759.8" y="268.0" font-size="12.5" font-weight="600" fill="#242424">Shop and commerce</text><text x="759.8" y="280.0" font-size="9" fill="#605e5c">active-active</text><rect x="893.5" y="261.00" width="64.3" height="18" rx="9" fill="#ffffff" stroke="#a0d8a0" stroke-width="1"/><circle cx="904.5" cy="270.0" r="6" fill="#4c9a2a"/><path d="M901.8 270.0 l1.9 1.9 l3.4 -3.9" fill="none" stroke="#ffffff" stroke-width="1.4" stroke-linecap="round" stroke-linejoin="round"/><text x="913.5" y="273.57" font-size="10.5" fill="#323130">Healthy</text>
<g filter="url(#cs)"><rect x="995.8" y="241.0" width="186" height="58" rx="10" fill="#fbf2e7" stroke="#db7500" stroke-width="2"/></g><g transform="translate(1001.8,260.16) scale(0.82)"><path d="M4 20h16" fill="none" stroke="#605e5c" stroke-width="1.6" stroke-linecap="round" stroke-linejoin="round"/><path d="M6.5 20v-6M12 20V6.5M17.5 20v-9" fill="none" stroke="#605e5c" stroke-width="1.6" stroke-linecap="round" stroke-linejoin="round"/></g><text x="1029.8" y="268.0" font-size="12.5" font-weight="600" fill="#242424">Reporting</text><text x="1029.8" y="280.0" font-size="9" fill="#605e5c">single region</text><rect x="1098.8" y="261.00" width="75.0" height="18" rx="9" fill="#ffffff" stroke="#db7500" stroke-width="1"/><circle cx="1109.8" cy="270.0" r="6" fill="#c26a00"/><text x="1118.8" y="273.57" font-size="10.5" fill="#323130">Degraded</text>
<g filter="url(#cs)"><rect x="1266.5" y="241.0" width="272" height="58" rx="10" fill="#fbf2e7" stroke="#db7500" stroke-width="2"/></g><g transform="translate(1272.5,260.16) scale(0.82)"><path d="M12 3.2l7.6 4.4v8.8L12 20.8l-7.6-4.4V7.6z" fill="none" stroke="#605e5c" stroke-width="1.6" stroke-linecap="round" stroke-linejoin="round"/><path d="M4.6 7.8l7.4 4.3 7.4-4.3M12 12.1v8.6" fill="none" stroke="#605e5c" stroke-width="1.6" stroke-linecap="round" stroke-linejoin="round"/></g><text x="1300.5" y="273.5" font-size="12.5" font-weight="600" fill="#242424">Logistics and fulfillment</text><rect x="1455.5" y="261.00" width="75.0" height="18" rx="9" fill="#ffffff" stroke="#db7500" stroke-width="1"/><circle cx="1466.5" cy="270.0" r="6" fill="#c26a00"/><text x="1475.5" y="273.57" font-size="10.5" fill="#323130">Degraded</text>
<g filter="url(#cs)"><rect x="1695.8" y="241.0" width="249" height="58" rx="10" fill="#f6f6f5" stroke="#c8c6c4" stroke-width="2" stroke-dasharray="4 3"/></g><g transform="translate(1701.8,260.16) scale(0.82)"><path d="M12 3l7 2.6v5.2c0 4.6-3 7.9-7 9.2-4-1.3-7-4.6-7-9.2V5.6z" fill="none" stroke="#605e5c" stroke-width="1.6" stroke-linecap="round" stroke-linejoin="round"/><path d="M8.8 12.2l2.2 2.2 4-4.6" fill="none" stroke="#605e5c" stroke-width="1.6" stroke-linecap="round" stroke-linejoin="round"/></g><text x="1729.8" y="273.5" font-size="12.5" font-weight="600" fill="#242424">Account and identity</text><rect x="1864.2" y="261.00" width="72.6" height="18" rx="9" fill="#ffffff" stroke="#c8c6c4" stroke-width="1"/><circle cx="1875.2" cy="270.0" r="6" fill="#8a8886"/><text x="1884.2" y="273.57" font-size="10.5" fill="#323130">Unknown</text>
<g filter="url(#cs)"><rect x="470.8" y="241.0" width="225" height="85" rx="10" fill="#f4f0fb" stroke="#8661c5" stroke-width="2"/></g><g transform="translate(476.8,248.16) scale(0.82)"><path d="M12 3.2l7.6 4.4v8.8L12 20.8l-7.6-4.4V7.6z" fill="none" stroke="#605e5c" stroke-width="1.6" stroke-linecap="round" stroke-linejoin="round"/><path d="M4.6 7.8l7.4 4.3 7.4-4.3M12 12.1v8.6" fill="none" stroke="#605e5c" stroke-width="1.6" stroke-linecap="round" stroke-linejoin="round"/></g><text x="504.8" y="261.5" font-size="12.5" font-weight="600" fill="#242424">Secondary region</text><rect x="620.5" y="249.00" width="67.3" height="18" rx="9" fill="#ffffff" stroke="#8661c5" stroke-width="1"/><circle cx="631.5" cy="258.0" r="6" fill="#8661c5"/><text x="640.5" y="261.57" font-size="10.5" fill="#323130">Standby</text><line x1="471.8" y1="278.0" x2="694.8" y2="278.0" stroke="#e6e4e2"/><circle cx="486.8" cy="293.0" r="6" fill="#4c9a2a"/><path d="M484.1 293.0 l1.9 1.9 l3.4 -3.9" fill="none" stroke="#ffffff" stroke-width="1.4" stroke-linecap="round" stroke-linejoin="round"/><g transform="translate(502.8,286.0) scale(0.875)"><rect x="1.5" y="8" width="2.6" height="6" rx="0.6" fill="#8661c5"/><rect x="5.7" y="4.5" width="2.6" height="9.5" rx="0.6" fill="#0078D4"/><rect x="9.9" y="6.5" width="2.6" height="7.5" rx="0.6" fill="#3fb0ac"/></g><text x="522.8" y="296.5" font-size="10.5" fill="#242424">Replication health</text><text x="683.8" y="296.5" font-size="10.5" font-weight="400" fill="#605e5c" text-anchor="end">0</text><line x1="480.8" y1="302.0" x2="685.8" y2="302.0" stroke="#e6e4e2" stroke-opacity="0.7"/><circle cx="486.8" cy="311.0" r="6" fill="#4c9a2a"/><path d="M484.1 311.0 l1.9 1.9 l3.4 -3.9" fill="none" stroke="#ffffff" stroke-width="1.4" stroke-linecap="round" stroke-linejoin="round"/><g transform="translate(502.8,304.0) scale(0.875)"><rect x="1.5" y="8" width="2.6" height="6" rx="0.6" fill="#8661c5"/><rect x="5.7" y="4.5" width="2.6" height="9.5" rx="0.6" fill="#0078D4"/><rect x="9.9" y="6.5" width="2.6" height="7.5" rx="0.6" fill="#3fb0ac"/></g><text x="522.8" y="314.5" font-size="10.5" fill="#242424">Failover readiness</text><text x="683.8" y="314.5" font-size="10.5" font-weight="400" fill="#605e5c" text-anchor="end">1</text>
<g filter="url(#cs)"><rect x="1042.2" y="96.0" width="212" height="58" rx="10" fill="#fbf2e7" stroke="#db7500" stroke-width="2"/></g><g transform="translate(1048.2,115.16) scale(0.82)"><circle cx="12" cy="12" r="8.4" fill="none" stroke="#605e5c" stroke-width="1.6" stroke-linecap="round" stroke-linejoin="round"/><path d="M4.2 12h3l2-3.6 2.8 7.2 1.8-3.6h4" fill="none" stroke="#605e5c" stroke-width="1.6" stroke-linecap="round" stroke-linejoin="round"/></g><text x="1076.2" y="123.0" font-size="12.5" font-weight="600" fill="#242424">Workload root</text><text x="1076.2" y="135.0" font-size="9" fill="#605e5c">worstOf</text><rect x="1171.1" y="116.00" width="75.0" height="18" rx="9" fill="#ffffff" stroke="#db7500" stroke-width="1"/><circle cx="1182.1" cy="125.0" r="6" fill="#c26a00"/><text x="1191.1" y="128.57" font-size="10.5" fill="#323130">Degraded</text>
</g></svg>