<svg xmlns="http://www.w3.org/2000/svg" width="3000" height="612" viewBox="0 0 3000 612" font-family="Segoe UI, -apple-system, BlinkMacSystemFont, Helvetica, Arial, sans-serif">
<defs><filter id="cs" x="-20%" y="-20%" width="140%" height="140%"><feDropShadow dx="0" dy="1" stdDeviation="1.3" flood-color="#000" flood-opacity="0.10"/></filter>
<marker id="ar-healthy" viewBox="0 0 10 10" refX="8" refY="5" markerWidth="7" markerHeight="7" orient="auto-start-reverse"><path d="M1 1 L9 5 L1 9" fill="none" stroke="#a0d8a0" stroke-width="1.6" stroke-linecap="round" stroke-linejoin="round"/></marker><marker id="ar-degraded" viewBox="0 0 10 10" refX="8" refY="5" markerWidth="7" markerHeight="7" orient="auto-start-reverse"><path d="M1 1 L9 5 L1 9" fill="none" stroke="#db7500" stroke-width="1.6" stroke-linecap="round" stroke-linejoin="round"/></marker><marker id="ar-unhealthy" viewBox="0 0 10 10" refX="8" refY="5" markerWidth="7" markerHeight="7" orient="auto-start-reverse"><path d="M1 1 L9 5 L1 9" fill="none" stroke="#ba0d16" stroke-width="1.6" stroke-linecap="round" stroke-linejoin="round"/></marker><marker id="ar-unknown" viewBox="0 0 10 10" refX="8" refY="5" markerWidth="7" markerHeight="7" orient="auto-start-reverse"><path d="M1 1 L9 5 L1 9" fill="none" stroke="#c8c6c4" stroke-width="1.6" stroke-linecap="round" stroke-linejoin="round"/></marker><marker id="ar-alt" viewBox="0 0 10 10" refX="8" refY="5" markerWidth="7" markerHeight="7" orient="auto-start-reverse"><path d="M1 1 L9 5 L1 9" fill="none" stroke="#8661c5" stroke-width="1.6" stroke-linecap="round" stroke-linejoin="round"/></marker><marker id="ar-signal" viewBox="0 0 10 10" refX="8" refY="5" markerWidth="7" markerHeight="7" orient="auto-start-reverse"><path d="M1 1 L9 5 L1 9" fill="none" stroke="#0078D4" stroke-width="1.6" stroke-linecap="round" stroke-linejoin="round"/></marker>
</defs><rect width="3000" height="612" fill="#ffffff"/>
<rect x="0" y="78" width="3000" height="146" fill="#ffffff"/>
<line x1="0" y1="78" x2="3000" y2="78" stroke="#e6e4e2"/>
<text x="2824" y="156" font-size="13" font-weight="700" fill="#323130">Workload root</text>
<rect x="0" y="224" width="3000" height="171" fill="#faf9f8"/>
<line x1="0" y1="224" x2="3000" y2="224" stroke="#e6e4e2"/>
<text x="2824" y="307.5" font-size="13" font-weight="700" fill="#323130">Business &amp;</text>
<text x="2824" y="324.5" font-size="13" font-weight="700" fill="#323130">user flows</text>
<rect x="0" y="395" width="3000" height="199" fill="#ffffff"/>
<line x1="0" y1="395" x2="3000" y2="395" stroke="#e6e4e2"/>
<text x="2824" y="492.5" font-size="13" font-weight="700" fill="#323130">Application</text>
<text x="2824" y="509.5" font-size="13" font-weight="700" fill="#323130">components</text>
<line x1="0" y1="611.5" x2="3000" y2="611.5" stroke="#e6e4e2"/>
<text x="40" y="34" font-size="18" font-weight="700" fill="#242424">Kitchen sink health model</text>
<text x="40" y="52" font-size="12" fill="#605e5c">Signals live inside each entity; health rolls up to the workload root.</text>
<text x="2585.2" y="48" font-size="11.5" font-weight="600" fill="#605e5c" text-anchor="end">Legend</text><circle cx="2603.2" cy="44" r="4.5" fill="#4c9a2a"/><text x="2613.2" y="48" font-size="11.5" fill="#323130">Healthy</text><circle cx="2674" cy="44" r="4.5" fill="#c26a00"/><text x="2684" y="48" font-size="11.5" fill="#323130">Degraded</text><circle cx="2751.2" cy="44" r="4.5" fill="#c50f18"/><text x="2761.2" y="48" font-size="11.5" fill="#323130">Unhealthy</text><circle cx="2834.7999999999997" cy="44" r="4.5" fill="#8a8886"/><text x="2844.7999999999997" y="48" font-size="11.5" fill="#323130">Unknown</text><g transform="translate(2899.6,37) scale(0.875)">
    <rect x="1.5" y="8" width="2.6" height="6" rx="0.6" fill="#8661c5"/>
    <rect x="5.7" y="4.5" width="2.6" height="9.5" rx="0.6" fill="#0078D4"/>
    <rect x="9.9" y="6.5" width="2.6" height="7.5" rx="0.6" fill="#3fb0ac"/>
  </g><text x="2917.6" y="48" font-size="11.5" fill="#323130">Metric</text>
<g fill="none" stroke-linecap="butt" stroke-linejoin="round">
<path d="M178 413 L178.0 407.0 Q178 401 184.0 401.0 L752.0 401.0 Q759 401 759.0 394.0 L759 300" stroke="#a0d8a0" stroke-width="1.7"/>
<path d="M893.0 413 V300" stroke="#a0d8a0" stroke-width="1.7"/>
<path d="M454 413 L454.0 408.5 Q454 404 458.5 404.0 L755.0 404.0 Q762 404 762.0 397.0 L762 300" stroke="#db7500" stroke-width="1.7"/>
<path d="M1006 413 L1006.0 407.0 Q1006 401 1012.0 401.0 L1304.0 401.0 Q1311 401 1311.0 394.0 L1311 300" stroke="#a0d8a0" stroke-width="1.7"/>
<path d="M1395.0 413 V300" stroke="#a0d8a0" stroke-width="1.7"/>
<path d="M1947.0 413 V300" stroke="#a0d8a0" stroke-width="1.7"/>
<path d="M1558 413 L1558.0 407.0 Q1558 401 1564.0 401.0 L1856.0 401.0 Q1863 401 1863.0 394.0 L1863 300" stroke="#db7500" stroke-width="1.7"/>
<path d="M1997.0 413 V300" stroke="#db7500" stroke-width="1.7"/>
<path d="M2499.0 413 V300" stroke="#a0d8a0" stroke-width="1.7"/>
<path d="M2549.0 413 V300" stroke="#c8c6c4" stroke-width="1.7"/>
<path d="M316 242 L316.0 236.0 Q316 230 322.0 230.0 L1304.0 230.0 Q1311 230 1311.0 223.0 L1311 154" stroke="#8661c5" stroke-width="1.7"/>
<path d="M868 242 L868.0 238.0 Q868 234 872.0 234.0 L1307.0 234.0 Q1314 234 1314.0 227.0 L1314 154" stroke="#a0d8a0" stroke-width="1.7"/>
<path d="M2524 242 L2524.0 237.5 Q2524 233 2519.5 233.0 L1527.0 233.0 Q1520 233 1520.0 226.0 L1520 154" stroke="#c8c6c4" stroke-width="1.7"/>
<path d="M1972 242 L1972.0 238.0 Q1972 234 1968.0 234.0 L1530.0 234.0 Q1523 234 1523.0 227.0 L1523 154" stroke="#db7500" stroke-width="1.7"/>
<path d="M730 413 L730.0 348.0 Q730 341 737.0 341.0 L861.0 341.0 Q868 341 868.0 334.0 L868 300" stroke="#ba0d16" stroke-width="1.6" stroke-dasharray="5 4"/>
<path d="M1420 242 V154" stroke="#db7500" stroke-width="1.6" stroke-dasharray="5 4"/>
<g stroke="none"><rect x="664.1" y="331.0" width="131.7" height="20" rx="10" fill="#ffffff" stroke="#d8d6d4" stroke-width="1"/><text x="730.0" y="344.6" font-size="10.5" font-weight="600" fill="#242424" text-anchor="middle">limited propagation</text></g>
<g stroke="none"><rect x="1345.3" y="160.0" width="149.4" height="20" rx="10" fill="#ffffff" stroke="#d8d6d4" stroke-width="1"/><text x="1420.0" y="173.6" font-size="10.5" font-weight="600" fill="#242424" text-anchor="middle">suppressed propagation</text></g>
</g>
<g filter="url(#cs)"><rect x="55" y="413" width="246" height="119" rx="10" fill="#f2f8f2" stroke="#a0d8a0" stroke-width="2"/></g><g transform="translate(61,420.16) scale(0.82)"><circle cx="12" cy="12" r="8.4" fill="none" stroke="#605e5c" stroke-width="1.6" stroke-linecap="round" stroke-linejoin="round"/><path d="M3.6 12h16.8M12 3.6c3 3 3 13.8 0 16.8M12 3.6c-3 3-3 13.8 0 16.8" fill="none" stroke="#605e5c" stroke-width="1.6" stroke-linecap="round" stroke-linejoin="round"/></g><text x="89" y="434.25" font-size="12.5" font-weight="600" fill="#242424">Web frontend</text><rect x="225.6" y="421.00" width="67.4" height="18" rx="9" fill="#ffffff" stroke="#a0d8a0" stroke-width="1"/><circle cx="236.6" cy="430" r="6" fill="#4c9a2a"/><path d="M233.9 430 l1.9 1.9 l3.4 -3.9" fill="none" stroke="#fff" stroke-width="1.4" stroke-linecap="round" stroke-linejoin="round"/><text x="245.6" y="433.57" font-size="10.5" fill="#323130">Healthy</text><line x1="56" y1="450" x2="300" y2="450" stroke="#e6e4e2"/><circle cx="71" cy="465" r="6" fill="#4c9a2a"/><path d="M68.3 465 l1.9 1.9 l3.4 -3.9" fill="none" stroke="#fff" stroke-width="1.4" stroke-linecap="round" stroke-linejoin="round"/><g transform="translate(87,458) scale(0.875)">
    <rect x="1.5" y="8" width="2.6" height="6" rx="0.6" fill="#8661c5"/>
    <rect x="5.7" y="4.5" width="2.6" height="9.5" rx="0.6" fill="#0078D4"/>
    <rect x="9.9" y="6.5" width="2.6" height="7.5" rx="0.6" fill="#3fb0ac"/>
  </g><text x="107" y="468.5" font-size="10.5" fill="#242424">Web latency</text><text x="289" y="468.5" font-size="10.5" font-weight="400" fill="#605e5c" text-anchor="end">2</text><line x1="65" y1="474" x2="291" y2="474" stroke="#e6e4e2" stroke-opacity="0.7"/><circle cx="71" cy="483" r="6" fill="#4c9a2a"/><path d="M68.3 483 l1.9 1.9 l3.4 -3.9" fill="none" stroke="#fff" stroke-width="1.4" stroke-linecap="round" stroke-linejoin="round"/><g transform="translate(87,476) scale(0.875)">
    <rect x="1.5" y="8" width="2.6" height="6" rx="0.6" fill="#8661c5"/>
    <rect x="5.7" y="4.5" width="2.6" height="9.5" rx="0.6" fill="#0078D4"/>
    <rect x="9.9" y="6.5" width="2.6" height="7.5" rx="0.6" fill="#3fb0ac"/>
  </g><text x="107" y="486.5" font-size="10.5" fill="#242424">HTTP 5xx rate</text><text x="289" y="486.5" font-size="10.5" font-weight="400" fill="#605e5c" text-anchor="end">1</text><line x1="65" y1="492" x2="291" y2="492" stroke="#e6e4e2" stroke-opacity="0.7"/><circle cx="71" cy="501" r="6" fill="#4c9a2a"/><path d="M68.3 501 l1.9 1.9 l3.4 -3.9" fill="none" stroke="#fff" stroke-width="1.4" stroke-linecap="round" stroke-linejoin="round"/><g transform="translate(87,494) scale(0.875)">
    <rect x="1.5" y="8" width="2.6" height="6" rx="0.6" fill="#8661c5"/>
    <rect x="5.7" y="4.5" width="2.6" height="9.5" rx="0.6" fill="#0078D4"/>
    <rect x="9.9" y="6.5" width="2.6" height="7.5" rx="0.6" fill="#3fb0ac"/>
  </g><text x="107" y="504.5" font-size="10.5" fill="#242424">Request rate</text><text x="289" y="504.5" font-size="10.5" font-weight="400" fill="#605e5c" text-anchor="end">2</text><line x1="65" y1="510" x2="291" y2="510" stroke="#e6e4e2" stroke-opacity="0.7"/><circle cx="71" cy="519" r="6" fill="#4c9a2a"/><path d="M68.3 519 l1.9 1.9 l3.4 -3.9" fill="none" stroke="#fff" stroke-width="1.4" stroke-linecap="round" stroke-linejoin="round"/><g transform="translate(87,512) scale(0.875)">
    <rect x="1.5" y="8" width="2.6" height="6" rx="0.6" fill="#8661c5"/>
    <rect x="5.7" y="4.5" width="2.6" height="9.5" rx="0.6" fill="#0078D4"/>
    <rect x="9.9" y="6.5" width="2.6" height="7.5" rx="0.6" fill="#3fb0ac"/>
  </g><text x="107" y="522.5" font-size="10.5" fill="#242424">Availability</text><text x="289" y="522.5" font-size="10.5" font-weight="400" fill="#605e5c" text-anchor="end">0</text>
<g filter="url(#cs)"><rect x="331" y="413" width="246" height="119" rx="10" fill="#fbf2e7" stroke="#db7500" stroke-width="2"/></g><g transform="translate(337,420.16) scale(0.82)"><path d="M13 2.5 5.5 13.5H11l-1 8 8.5-12H12z" fill="none" stroke="#605e5c" stroke-width="1.6" stroke-linecap="round" stroke-linejoin="round"/></g><text x="365" y="434.25" font-size="12.5" font-weight="600" fill="#242424">API service</text><rect x="495.4" y="421.00" width="73.6" height="18" rx="9" fill="#ffffff" stroke="#db7500" stroke-width="1"/><circle cx="506.4" cy="430" r="6" fill="#c26a00"/><text x="515.4" y="433.57" font-size="10.5" fill="#323130">Degraded</text><line x1="332" y1="450" x2="576" y2="450" stroke="#e6e4e2"/><circle cx="347" cy="465" r="6" fill="#c26a00"/><g transform="translate(363,458) scale(0.875)">
    <rect x="1.5" y="8" width="2.6" height="6" rx="0.6" fill="#8661c5"/>
    <rect x="5.7" y="4.5" width="2.6" height="9.5" rx="0.6" fill="#0078D4"/>
    <rect x="9.9" y="6.5" width="2.6" height="7.5" rx="0.6" fill="#3fb0ac"/>
  </g><text x="383" y="468.5" font-size="10.5" fill="#242424">Request rate</text><text x="565" y="468.5" font-size="10.5" font-weight="600" fill="#c26a00" text-anchor="end">19</text><line x1="341" y1="474" x2="567" y2="474" stroke="#e6e4e2" stroke-opacity="0.7"/><circle cx="347" cy="483" r="6" fill="#4c9a2a"/><path d="M344.3 483 l1.9 1.9 l3.4 -3.9" fill="none" stroke="#fff" stroke-width="1.4" stroke-linecap="round" stroke-linejoin="round"/><g transform="translate(363,476) scale(0.875)">
    <rect x="1.5" y="8" width="2.6" height="6" rx="0.6" fill="#8661c5"/>
    <rect x="5.7" y="4.5" width="2.6" height="9.5" rx="0.6" fill="#0078D4"/>
    <rect x="9.9" y="6.5" width="2.6" height="7.5" rx="0.6" fill="#3fb0ac"/>
  </g><text x="383" y="486.5" font-size="10.5" fill="#242424">P95 latency</text><text x="565" y="486.5" font-size="10.5" font-weight="400" fill="#605e5c" text-anchor="end">2</text><line x1="341" y1="492" x2="567" y2="492" stroke="#e6e4e2" stroke-opacity="0.7"/><circle cx="347" cy="501" r="6" fill="#4c9a2a"/><path d="M344.3 501 l1.9 1.9 l3.4 -3.9" fill="none" stroke="#fff" stroke-width="1.4" stroke-linecap="round" stroke-linejoin="round"/><g transform="translate(363,494) scale(0.875)">
    <rect x="1.5" y="8" width="2.6" height="6" rx="0.6" fill="#8661c5"/>
    <rect x="5.7" y="4.5" width="2.6" height="9.5" rx="0.6" fill="#0078D4"/>
    <rect x="9.9" y="6.5" width="2.6" height="7.5" rx="0.6" fill="#3fb0ac"/>
  </g><text x="383" y="504.5" font-size="10.5" fill="#242424">429 rate</text><text x="565" y="504.5" font-size="10.5" font-weight="400" fill="#605e5c" text-anchor="end">0</text><line x1="341" y1="510" x2="567" y2="510" stroke="#e6e4e2" stroke-opacity="0.7"/><circle cx="347" cy="519" r="6" fill="#4c9a2a"/><path d="M344.3 519 l1.9 1.9 l3.4 -3.9" fill="none" stroke="#fff" stroke-width="1.4" stroke-linecap="round" stroke-linejoin="round"/><g transform="translate(363,512) scale(0.875)">
    <rect x="1.5" y="8" width="2.6" height="6" rx="0.6" fill="#8661c5"/>
    <rect x="5.7" y="4.5" width="2.6" height="9.5" rx="0.6" fill="#0078D4"/>
    <rect x="9.9" y="6.5" width="2.6" height="7.5" rx="0.6" fill="#3fb0ac"/>
  </g><text x="383" y="522.5" font-size="10.5" fill="#242424">Error rate</text><text x="565" y="522.5" font-size="10.5" font-weight="400" fill="#605e5c" text-anchor="end">1</text>
<g filter="url(#cs)"><rect x="883" y="413" width="246" height="137" rx="10" fill="#f2f8f2" stroke="#a0d8a0" stroke-width="2"/></g><g transform="translate(889,420.16) scale(0.82)"><ellipse cx="12" cy="6" rx="7" ry="2.8" fill="none" stroke="#605e5c" stroke-width="1.6" stroke-linecap="round" stroke-linejoin="round"/><path d="M5 6v12c0 1.55 3.13 2.8 7 2.8s7-1.25 7-2.8V6" fill="none" stroke="#605e5c" stroke-width="1.6" stroke-linecap="round" stroke-linejoin="round"/><path d="M5 12c0 1.55 3.13 2.8 7 2.8s7-1.25 7-2.8" fill="none" stroke="#605e5c" stroke-width="1.6" stroke-linecap="round" stroke-linejoin="round"/></g><text x="917" y="434.25" font-size="12.5" font-weight="600" fill="#242424">Database</text><rect x="1053.6" y="421.00" width="67.4" height="18" rx="9" fill="#ffffff" stroke="#a0d8a0" stroke-width="1"/><circle cx="1064.6" cy="430" r="6" fill="#4c9a2a"/><path d="M1061.8999999999999 430 l1.9 1.9 l3.4 -3.9" fill="none" stroke="#fff" stroke-width="1.4" stroke-linecap="round" stroke-linejoin="round"/><text x="1073.6" y="433.57" font-size="10.5" fill="#323130">Healthy</text><line x1="884" y1="450" x2="1128" y2="450" stroke="#e6e4e2"/><circle cx="899" cy="465" r="6" fill="#4c9a2a"/><path d="M896.3 465 l1.9 1.9 l3.4 -3.9" fill="none" stroke="#fff" stroke-width="1.4" stroke-linecap="round" stroke-linejoin="round"/><g transform="translate(915,458) scale(0.875)">
    <rect x="1.5" y="8" width="2.6" height="6" rx="0.6" fill="#8661c5"/>
    <rect x="5.7" y="4.5" width="2.6" height="9.5" rx="0.6" fill="#0078D4"/>
    <rect x="9.9" y="6.5" width="2.6" height="7.5" rx="0.6" fill="#3fb0ac"/>
  </g><text x="935" y="468.5" font-size="10.5" fill="#242424">Connection pool</text><text x="1117" y="468.5" font-size="10.5" font-weight="400" fill="#605e5c" text-anchor="end">0</text><line x1="893" y1="474" x2="1119" y2="474" stroke="#e6e4e2" stroke-opacity="0.7"/><circle cx="899" cy="483" r="6" fill="#4c9a2a"/><path d="M896.3 483 l1.9 1.9 l3.4 -3.9" fill="none" stroke="#fff" stroke-width="1.4" stroke-linecap="round" stroke-linejoin="round"/><g transform="translate(915,476) scale(0.875)">
    <rect x="1.5" y="8" width="2.6" height="6" rx="0.6" fill="#8661c5"/>
    <rect x="5.7" y="4.5" width="2.6" height="9.5" rx="0.6" fill="#0078D4"/>
    <rect x="9.9" y="6.5" width="2.6" height="7.5" rx="0.6" fill="#3fb0ac"/>
  </g><text x="935" y="486.5" font-size="10.5" fill="#242424">DTU utilization</text><text x="1117" y="486.5" font-size="10.5" font-weight="400" fill="#605e5c" text-anchor="end">0</text><line x1="893" y1="492" x2="1119" y2="492" stroke="#e6e4e2" stroke-opacity="0.7"/><circle cx="899" cy="501" r="6" fill="#4c9a2a"/><path d="M896.3 501 l1.9 1.9 l3.4 -3.9" fill="none" stroke="#fff" stroke-width="1.4" stroke-linecap="round" stroke-linejoin="round"/><g transform="translate(915,494) scale(0.875)">
    <rect x="1.5" y="8" width="2.6" height="6" rx="0.6" fill="#8661c5"/>
    <rect x="5.7" y="4.5" width="2.6" height="9.5" rx="0.6" fill="#0078D4"/>
    <rect x="9.9" y="6.5" width="2.6" height="7.5" rx="0.6" fill="#3fb0ac"/>
  </g><text x="935" y="504.5" font-size="10.5" fill="#242424">Failed connections</text><text x="1117" y="504.5" font-size="10.5" font-weight="400" fill="#605e5c" text-anchor="end">2</text><line x1="893" y1="510" x2="1119" y2="510" stroke="#e6e4e2" stroke-opacity="0.7"/><circle cx="899" cy="519" r="6" fill="#4c9a2a"/><path d="M896.3 519 l1.9 1.9 l3.4 -3.9" fill="none" stroke="#fff" stroke-width="1.4" stroke-linecap="round" stroke-linejoin="round"/><g transform="translate(915,512) scale(0.875)">
    <rect x="1.5" y="8" width="2.6" height="6" rx="0.6" fill="#8661c5"/>
    <rect x="5.7" y="4.5" width="2.6" height="9.5" rx="0.6" fill="#0078D4"/>
    <rect x="9.9" y="6.5" width="2.6" height="7.5" rx="0.6" fill="#3fb0ac"/>
  </g><text x="935" y="522.5" font-size="10.5" fill="#242424">Replication lag</text><text x="1117" y="522.5" font-size="10.5" font-weight="400" fill="#605e5c" text-anchor="end">0</text><line x1="893" y1="528" x2="1119" y2="528" stroke="#e6e4e2" stroke-opacity="0.7"/><circle cx="899" cy="537" r="6" fill="#4c9a2a"/><path d="M896.3 537 l1.9 1.9 l3.4 -3.9" fill="none" stroke="#fff" stroke-width="1.4" stroke-linecap="round" stroke-linejoin="round"/><g transform="translate(915,530) scale(0.875)">
    <rect x="1.5" y="8" width="2.6" height="6" rx="0.6" fill="#8661c5"/>
    <rect x="5.7" y="4.5" width="2.6" height="9.5" rx="0.6" fill="#0078D4"/>
    <rect x="9.9" y="6.5" width="2.6" height="7.5" rx="0.6" fill="#3fb0ac"/>
  </g><text x="935" y="540.5" font-size="10.5" fill="#242424">Deadlocks</text><text x="1117" y="540.5" font-size="10.5" font-weight="400" fill="#605e5c" text-anchor="end">0</text>
<g filter="url(#cs)"><rect x="607" y="413" width="246" height="101" rx="10" fill="#faeceb" stroke="#ba0d16" stroke-width="2"/></g><g transform="translate(613,420.16) scale(0.82)"><rect x="3.5" y="4" width="17" height="16" rx="2" fill="none" stroke="#605e5c" stroke-width="1.6" stroke-linecap="round" stroke-linejoin="round"/><path d="M8 4v16M3.5 9.5h4M3.5 14.5h4" fill="none" stroke="#605e5c" stroke-width="1.6" stroke-linecap="round" stroke-linejoin="round"/></g><text x="641" y="434.25" font-size="12.5" font-weight="600" fill="#242424">Redis cache</text><rect x="765.2" y="421.00" width="79.80000000000001" height="18" rx="9" fill="#ffffff" stroke="#ba0d16" stroke-width="1"/><circle cx="776.2" cy="430" r="6" fill="#c50f18"/><text x="785.2" y="433.57" font-size="10.5" fill="#323130">Unhealthy</text><line x1="608" y1="450" x2="852" y2="450" stroke="#e6e4e2"/><circle cx="623" cy="465" r="6" fill="#c50f18"/><g transform="translate(639,458) scale(0.875)">
    <rect x="1.5" y="8" width="2.6" height="6" rx="0.6" fill="#8661c5"/>
    <rect x="5.7" y="4.5" width="2.6" height="9.5" rx="0.6" fill="#0078D4"/>
    <rect x="9.9" y="6.5" width="2.6" height="7.5" rx="0.6" fill="#3fb0ac"/>
  </g><text x="659" y="468.5" font-size="10.5" fill="#242424">Hit ratio</text><text x="841" y="468.5" font-size="10.5" font-weight="600" fill="#c50f18" text-anchor="end">116</text><line x1="617" y1="474" x2="843" y2="474" stroke="#e6e4e2" stroke-opacity="0.7"/><circle cx="623" cy="483" r="6" fill="#4c9a2a"/><path d="M620.3 483 l1.9 1.9 l3.4 -3.9" fill="none" stroke="#fff" stroke-width="1.4" stroke-linecap="round" stroke-linejoin="round"/><g transform="translate(639,476) scale(0.875)">
    <rect x="1.5" y="8" width="2.6" height="6" rx="0.6" fill="#8661c5"/>
    <rect x="5.7" y="4.5" width="2.6" height="9.5" rx="0.6" fill="#0078D4"/>
    <rect x="9.9" y="6.5" width="2.6" height="7.5" rx="0.6" fill="#3fb0ac"/>
  </g><text x="659" y="486.5" font-size="10.5" fill="#242424">Eviction rate</text><text x="841" y="486.5" font-size="10.5" font-weight="400" fill="#605e5c" text-anchor="end">1</text><line x1="617" y1="492" x2="843" y2="492" stroke="#e6e4e2" stroke-opacity="0.7"/><circle cx="623" cy="501" r="6" fill="#4c9a2a"/><path d="M620.3 501 l1.9 1.9 l3.4 -3.9" fill="none" stroke="#fff" stroke-width="1.4" stroke-linecap="round" stroke-linejoin="round"/><g transform="translate(639,494) scale(0.875)">
    <rect x="1.5" y="8" width="2.6" height="6" rx="0.6" fill="#8661c5"/>
    <rect x="5.7" y="4.5" width="2.6" height="9.5" rx="0.6" fill="#0078D4"/>
    <rect x="9.9" y="6.5" width="2.6" height="7.5" rx="0.6" fill="#3fb0ac"/>
  </g><text x="659" y="504.5" font-size="10.5" fill="#242424">Memory pressure</text><text x="841" y="504.5" font-size="10.5" font-weight="400" fill="#605e5c" text-anchor="end">0</text>
<g filter="url(#cs)"><rect x="1435" y="413" width="246" height="101" rx="10" fill="#fbf2e7" stroke="#db7500" stroke-width="2"/></g><g transform="translate(1441,420.16) scale(0.82)"><rect x="4" y="5" width="16" height="3" rx="1" fill="none" stroke="#605e5c" stroke-width="1.6" stroke-linecap="round" stroke-linejoin="round"/><rect x="4" y="10.5" width="16" height="3" rx="1" fill="none" stroke="#605e5c" stroke-width="1.6" stroke-linecap="round" stroke-linejoin="round"/><rect x="4" y="16" width="10" height="3" rx="1" fill="none" stroke="#605e5c" stroke-width="1.6" stroke-linecap="round" stroke-linejoin="round"/></g><text x="1469" y="434.25" font-size="12.5" font-weight="600" fill="#242424">Order queue</text><rect x="1599.4" y="421.00" width="73.6" height="18" rx="9" fill="#ffffff" stroke="#db7500" stroke-width="1"/><circle cx="1610.4" cy="430" r="6" fill="#c26a00"/><text x="1619.4" y="433.57" font-size="10.5" fill="#323130">Degraded</text><line x1="1436" y1="450" x2="1680" y2="450" stroke="#e6e4e2"/><circle cx="1451" cy="465" r="6" fill="#c26a00"/><g transform="translate(1467,458) scale(0.875)">
    <rect x="1.5" y="8" width="2.6" height="6" rx="0.6" fill="#8661c5"/>
    <rect x="5.7" y="4.5" width="2.6" height="9.5" rx="0.6" fill="#0078D4"/>
    <rect x="9.9" y="6.5" width="2.6" height="7.5" rx="0.6" fill="#3fb0ac"/>
  </g><text x="1487" y="468.5" font-size="10.5" fill="#242424">Queue depth</text><text x="1669" y="468.5" font-size="10.5" font-weight="600" fill="#c26a00" text-anchor="end">18</text><line x1="1445" y1="474" x2="1671" y2="474" stroke="#e6e4e2" stroke-opacity="0.7"/><circle cx="1451" cy="483" r="6" fill="#4c9a2a"/><path d="M1448.3 483 l1.9 1.9 l3.4 -3.9" fill="none" stroke="#fff" stroke-width="1.4" stroke-linecap="round" stroke-linejoin="round"/><g transform="translate(1467,476) scale(0.875)">
    <rect x="1.5" y="8" width="2.6" height="6" rx="0.6" fill="#8661c5"/>
    <rect x="5.7" y="4.5" width="2.6" height="9.5" rx="0.6" fill="#0078D4"/>
    <rect x="9.9" y="6.5" width="2.6" height="7.5" rx="0.6" fill="#3fb0ac"/>
  </g><text x="1487" y="486.5" font-size="10.5" fill="#242424">Oldest message age</text><text x="1669" y="486.5" font-size="10.5" font-weight="400" fill="#605e5c" text-anchor="end">0</text><line x1="1445" y1="492" x2="1671" y2="492" stroke="#e6e4e2" stroke-opacity="0.7"/><circle cx="1451" cy="501" r="6" fill="#4c9a2a"/><path d="M1448.3 501 l1.9 1.9 l3.4 -3.9" fill="none" stroke="#fff" stroke-width="1.4" stroke-linecap="round" stroke-linejoin="round"/><g transform="translate(1467,494) scale(0.875)">
    <rect x="1.5" y="8" width="2.6" height="6" rx="0.6" fill="#8661c5"/>
    <rect x="5.7" y="4.5" width="2.6" height="9.5" rx="0.6" fill="#0078D4"/>
    <rect x="9.9" y="6.5" width="2.6" height="7.5" rx="0.6" fill="#3fb0ac"/>
  </g><text x="1487" y="504.5" font-size="10.5" fill="#242424">Dead-letter count</text><text x="1669" y="504.5" font-size="10.5" font-weight="400" fill="#605e5c" text-anchor="end">2</text>
<g filter="url(#cs)"><rect x="2263" y="413" width="246" height="83" rx="10" fill="#f2f8f2" stroke="#a0d8a0" stroke-width="2"/></g><g transform="translate(2269,420.16) scale(0.82)"><ellipse cx="12" cy="6" rx="7" ry="2.8" fill="none" stroke="#605e5c" stroke-width="1.6" stroke-linecap="round" stroke-linejoin="round"/><path d="M5 6v12c0 1.55 3.13 2.8 7 2.8s7-1.25 7-2.8V6" fill="none" stroke="#605e5c" stroke-width="1.6" stroke-linecap="round" stroke-linejoin="round"/><path d="M5 12c0 1.55 3.13 2.8 7 2.8s7-1.25 7-2.8" fill="none" stroke="#605e5c" stroke-width="1.6" stroke-linecap="round" stroke-linejoin="round"/></g><text x="2297" y="434.25" font-size="12.5" font-weight="600" fill="#242424">Blob storage</text><rect x="2433.6" y="421.00" width="67.4" height="18" rx="9" fill="#ffffff" stroke="#a0d8a0" stroke-width="1"/><circle cx="2444.6" cy="430" r="6" fill="#4c9a2a"/><path d="M2441.9 430 l1.9 1.9 l3.4 -3.9" fill="none" stroke="#fff" stroke-width="1.4" stroke-linecap="round" stroke-linejoin="round"/><text x="2453.6" y="433.57" font-size="10.5" fill="#323130">Healthy</text><line x1="2264" y1="450" x2="2508" y2="450" stroke="#e6e4e2"/><circle cx="2279" cy="465" r="6" fill="#4c9a2a"/><path d="M2276.3 465 l1.9 1.9 l3.4 -3.9" fill="none" stroke="#fff" stroke-width="1.4" stroke-linecap="round" stroke-linejoin="round"/><g transform="translate(2295,458) scale(0.875)">
    <rect x="1.5" y="8" width="2.6" height="6" rx="0.6" fill="#8661c5"/>
    <rect x="5.7" y="4.5" width="2.6" height="9.5" rx="0.6" fill="#0078D4"/>
    <rect x="9.9" y="6.5" width="2.6" height="7.5" rx="0.6" fill="#3fb0ac"/>
  </g><text x="2315" y="468.5" font-size="10.5" fill="#242424">Availability</text><text x="2497" y="468.5" font-size="10.5" font-weight="400" fill="#605e5c" text-anchor="end">0</text><line x1="2273" y1="474" x2="2499" y2="474" stroke="#e6e4e2" stroke-opacity="0.7"/><circle cx="2279" cy="483" r="6" fill="#4c9a2a"/><path d="M2276.3 483 l1.9 1.9 l3.4 -3.9" fill="none" stroke="#fff" stroke-width="1.4" stroke-linecap="round" stroke-linejoin="round"/><g transform="translate(2295,476) scale(0.875)">
    <rect x="1.5" y="8" width="2.6" height="6" rx="0.6" fill="#8661c5"/>
    <rect x="5.7" y="4.5" width="2.6" height="9.5" rx="0.6" fill="#0078D4"/>
    <rect x="9.9" y="6.5" width="2.6" height="7.5" rx="0.6" fill="#3fb0ac"/>
  </g><text x="2315" y="486.5" font-size="10.5" fill="#242424">Throttling rate</text><text x="2497" y="486.5" font-size="10.5" font-weight="400" fill="#605e5c" text-anchor="end">1</text>
<g filter="url(#cs)"><rect x="2539" y="413" width="246" height="101" rx="10" fill="#f6f6f5" stroke="#c8c6c4" stroke-width="2" stroke-dasharray="4 3"/></g><g transform="translate(2545,420.16) scale(0.82)"><path d="M12 3l7 2.6v5.2c0 4.6-3 7.9-7 9.2-4-1.3-7-4.6-7-9.2V5.6z" fill="none" stroke="#605e5c" stroke-width="1.6" stroke-linecap="round" stroke-linejoin="round"/><path d="M8.8 12.2l2.2 2.2 4-4.6" fill="none" stroke="#605e5c" stroke-width="1.6" stroke-linecap="round" stroke-linejoin="round"/></g><text x="2573" y="434.25" font-size="12.5" font-weight="600" fill="#242424">Identity provider</text><rect x="2709.6" y="421.00" width="67.4" height="18" rx="9" fill="#ffffff" stroke="#c8c6c4" stroke-width="1"/><circle cx="2720.6" cy="430" r="6" fill="#8a8886"/><text x="2729.6" y="433.57" font-size="10.5" fill="#323130">Unknown</text><line x1="2540" y1="450" x2="2784" y2="450" stroke="#e6e4e2"/><circle cx="2555" cy="465" r="6" fill="#4c9a2a"/><path d="M2552.3 465 l1.9 1.9 l3.4 -3.9" fill="none" stroke="#fff" stroke-width="1.4" stroke-linecap="round" stroke-linejoin="round"/><g transform="translate(2571,458) scale(0.875)">
    <rect x="1.5" y="8" width="2.6" height="6" rx="0.6" fill="#8661c5"/>
    <rect x="5.7" y="4.5" width="2.6" height="9.5" rx="0.6" fill="#0078D4"/>
    <rect x="9.9" y="6.5" width="2.6" height="7.5" rx="0.6" fill="#3fb0ac"/>
  </g><text x="2591" y="468.5" font-size="10.5" fill="#242424">Token failures</text><text x="2773" y="468.5" font-size="10.5" font-weight="400" fill="#605e5c" text-anchor="end">2</text><line x1="2549" y1="474" x2="2775" y2="474" stroke="#e6e4e2" stroke-opacity="0.7"/><circle cx="2555" cy="483" r="6" fill="#4c9a2a"/><path d="M2552.3 483 l1.9 1.9 l3.4 -3.9" fill="none" stroke="#fff" stroke-width="1.4" stroke-linecap="round" stroke-linejoin="round"/><g transform="translate(2571,476) scale(0.875)">
    <rect x="1.5" y="8" width="2.6" height="6" rx="0.6" fill="#8661c5"/>
    <rect x="5.7" y="4.5" width="2.6" height="9.5" rx="0.6" fill="#0078D4"/>
    <rect x="9.9" y="6.5" width="2.6" height="7.5" rx="0.6" fill="#3fb0ac"/>
  </g><text x="2591" y="486.5" font-size="10.5" fill="#242424">MFA challenges</text><text x="2773" y="486.5" font-size="10.5" font-weight="400" fill="#605e5c" text-anchor="end">1</text><line x1="2549" y1="492" x2="2775" y2="492" stroke="#e6e4e2" stroke-opacity="0.7"/><circle cx="2555" cy="501" r="6" fill="#4c9a2a"/><path d="M2552.3 501 l1.9 1.9 l3.4 -3.9" fill="none" stroke="#fff" stroke-width="1.4" stroke-linecap="round" stroke-linejoin="round"/><g transform="translate(2571,494) scale(0.875)">
    <rect x="1.5" y="8" width="2.6" height="6" rx="0.6" fill="#8661c5"/>
    <rect x="5.7" y="4.5" width="2.6" height="9.5" rx="0.6" fill="#0078D4"/>
    <rect x="9.9" y="6.5" width="2.6" height="7.5" rx="0.6" fill="#3fb0ac"/>
  </g><text x="2591" y="504.5" font-size="10.5" fill="#242424">Sign-in latency</text><text x="2773" y="504.5" font-size="10.5" font-weight="400" fill="#605e5c" text-anchor="end">2</text>
<g filter="url(#cs)"><rect x="1159" y="413" width="246" height="101" rx="10" fill="#f2f8f2" stroke="#a0d8a0" stroke-width="2"/></g><g transform="translate(1165,420.16) scale(0.82)"><path d="M4 20h16" fill="none" stroke="#605e5c" stroke-width="1.6" stroke-linecap="round" stroke-linejoin="round"/><path d="M6.5 20v-6M12 20V6.5M17.5 20v-9" fill="none" stroke="#605e5c" stroke-width="1.6" stroke-linecap="round" stroke-linejoin="round"/></g><text x="1193" y="434.25" font-size="12.5" font-weight="600" fill="#242424">Search service</text><rect x="1329.6" y="421.00" width="67.4" height="18" rx="9" fill="#ffffff" stroke="#a0d8a0" stroke-width="1"/><circle cx="1340.6" cy="430" r="6" fill="#4c9a2a"/><path d="M1337.8999999999999 430 l1.9 1.9 l3.4 -3.9" fill="none" stroke="#fff" stroke-width="1.4" stroke-linecap="round" stroke-linejoin="round"/><text x="1349.6" y="433.57" font-size="10.5" fill="#323130">Healthy</text><line x1="1160" y1="450" x2="1404" y2="450" stroke="#e6e4e2"/><circle cx="1175" cy="465" r="6" fill="#4c9a2a"/><path d="M1172.3 465 l1.9 1.9 l3.4 -3.9" fill="none" stroke="#fff" stroke-width="1.4" stroke-linecap="round" stroke-linejoin="round"/><g transform="translate(1191,458) scale(0.875)">
    <rect x="1.5" y="8" width="2.6" height="6" rx="0.6" fill="#8661c5"/>
    <rect x="5.7" y="4.5" width="2.6" height="9.5" rx="0.6" fill="#0078D4"/>
    <rect x="9.9" y="6.5" width="2.6" height="7.5" rx="0.6" fill="#3fb0ac"/>
  </g><text x="1211" y="468.5" font-size="10.5" fill="#242424">Index lag</text><text x="1393" y="468.5" font-size="10.5" font-weight="400" fill="#605e5c" text-anchor="end">0</text><line x1="1169" y1="474" x2="1395" y2="474" stroke="#e6e4e2" stroke-opacity="0.7"/><circle cx="1175" cy="483" r="6" fill="#4c9a2a"/><path d="M1172.3 483 l1.9 1.9 l3.4 -3.9" fill="none" stroke="#fff" stroke-width="1.4" stroke-linecap="round" stroke-linejoin="round"/><g transform="translate(1191,476) scale(0.875)">
    <rect x="1.5" y="8" width="2.6" height="6" rx="0.6" fill="#8661c5"/>
    <rect x="5.7" y="4.5" width="2.6" height="9.5" rx="0.6" fill="#0078D4"/>
    <rect x="9.9" y="6.5" width="2.6" height="7.5" rx="0.6" fill="#3fb0ac"/>
  </g><text x="1211" y="486.5" font-size="10.5" fill="#242424">Query latency</text><text x="1393" y="486.5" font-size="10.5" font-weight="400" fill="#605e5c" text-anchor="end">1</text><line x1="1169" y1="492" x2="1395" y2="492" stroke="#e6e4e2" stroke-opacity="0.7"/><circle cx="1175" cy="501" r="6" fill="#4c9a2a"/><path d="M1172.3 501 l1.9 1.9 l3.4 -3.9" fill="none" stroke="#fff" stroke-width="1.4" stroke-linecap="round" stroke-linejoin="round"/><g transform="translate(1191,494) scale(0.875)">
    <rect x="1.5" y="8" width="2.6" height="6" rx="0.6" fill="#8661c5"/>
    <rect x="5.7" y="4.5" width="2.6" height="9.5" rx="0.6" fill="#0078D4"/>
    <rect x="9.9" y="6.5" width="2.6" height="7.5" rx="0.6" fill="#3fb0ac"/>
  </g><text x="1211" y="504.5" font-size="10.5" fill="#242424">Error rate</text><text x="1393" y="504.5" font-size="10.5" font-weight="400" fill="#605e5c" text-anchor="end">1</text>
<g filter="url(#cs)"><rect x="1711" y="413" width="246" height="101" rx="10" fill="#f2f8f2" stroke="#a0d8a0" stroke-width="2"/></g><g transform="translate(1717,420.16) scale(0.82)"><path d="M12 3.2l7.6 4.4v8.8L12 20.8l-7.6-4.4V7.6z" fill="none" stroke="#605e5c" stroke-width="1.6" stroke-linecap="round" stroke-linejoin="round"/><path d="M4.6 7.8l7.4 4.3 7.4-4.3M12 12.1v8.6" fill="none" stroke="#605e5c" stroke-width="1.6" stroke-linecap="round" stroke-linejoin="round"/></g><text x="1745" y="433.23" font-size="9.5" font-weight="600" fill="#242424">Shipping service with a…</text><rect x="1881.6" y="421.00" width="67.4" height="18" rx="9" fill="#ffffff" stroke="#a0d8a0" stroke-width="1"/><circle cx="1892.6" cy="430" r="6" fill="#4c9a2a"/><path d="M1889.8999999999999 430 l1.9 1.9 l3.4 -3.9" fill="none" stroke="#fff" stroke-width="1.4" stroke-linecap="round" stroke-linejoin="round"/><text x="1901.6" y="433.57" font-size="10.5" fill="#323130">Healthy</text><line x1="1712" y1="450" x2="1956" y2="450" stroke="#e6e4e2"/><circle cx="1727" cy="465" r="6" fill="#4c9a2a"/><path d="M1724.3 465 l1.9 1.9 l3.4 -3.9" fill="none" stroke="#fff" stroke-width="1.4" stroke-linecap="round" stroke-linejoin="round"/><g transform="translate(1743,458) scale(0.875)">
    <rect x="1.5" y="8" width="2.6" height="6" rx="0.6" fill="#8661c5"/>
    <rect x="5.7" y="4.5" width="2.6" height="9.5" rx="0.6" fill="#0078D4"/>
    <rect x="9.9" y="6.5" width="2.6" height="7.5" rx="0.6" fill="#3fb0ac"/>
  </g><text x="1763" y="468.5" font-size="10.5" fill="#242424">Carrier API availability</text><text x="1945" y="468.5" font-size="10.5" font-weight="400" fill="#605e5c" text-anchor="end">2</text><line x1="1721" y1="474" x2="1947" y2="474" stroke="#e6e4e2" stroke-opacity="0.7"/><circle cx="1727" cy="483" r="6" fill="#4c9a2a"/><path d="M1724.3 483 l1.9 1.9 l3.4 -3.9" fill="none" stroke="#fff" stroke-width="1.4" stroke-linecap="round" stroke-linejoin="round"/><g transform="translate(1743,476) scale(0.875)">
    <rect x="1.5" y="8" width="2.6" height="6" rx="0.6" fill="#8661c5"/>
    <rect x="5.7" y="4.5" width="2.6" height="9.5" rx="0.6" fill="#0078D4"/>
    <rect x="9.9" y="6.5" width="2.6" height="7.5" rx="0.6" fill="#3fb0ac"/>
  </g><text x="1763" y="486.5" font-size="10.5" fill="#242424">Carrier API latency</text><text x="1945" y="486.5" font-size="10.5" font-weight="400" fill="#605e5c" text-anchor="end">1</text><line x1="1721" y1="492" x2="1947" y2="492" stroke="#e6e4e2" stroke-opacity="0.7"/><circle cx="1727" cy="501" r="6" fill="#4c9a2a"/><path d="M1724.3 501 l1.9 1.9 l3.4 -3.9" fill="none" stroke="#fff" stroke-width="1.4" stroke-linecap="round" stroke-linejoin="round"/><g transform="translate(1743,494) scale(0.875)">
    <rect x="1.5" y="8" width="2.6" height="6" rx="0.6" fill="#8661c5"/>
    <rect x="5.7" y="4.5" width="2.6" height="9.5" rx="0.6" fill="#0078D4"/>
    <rect x="9.9" y="6.5" width="2.6" height="7.5" rx="0.6" fill="#3fb0ac"/>
  </g><text x="1763" y="504.5" font-size="10.5" fill="#242424">Error rate</text><text x="1945" y="504.5" font-size="10.5" font-weight="400" fill="#605e5c" text-anchor="end">1</text>
<g filter="url(#cs)"><rect x="1987" y="413" width="246" height="101" rx="10" fill="#fbf2e7" stroke="#db7500" stroke-width="2"/></g><g transform="translate(1993,420.16) scale(0.82)"><path d="M13 2.5 5.5 13.5H11l-1 8 8.5-12H12z" fill="none" stroke="#605e5c" stroke-width="1.6" stroke-linecap="round" stroke-linejoin="round"/></g><text x="2021" y="433.57" font-size="10.5" font-weight="600" fill="#242424">Background functions</text><rect x="2151.4" y="421.00" width="73.6" height="18" rx="9" fill="#ffffff" stroke="#db7500" stroke-width="1"/><circle cx="2162.4" cy="430" r="6" fill="#c26a00"/><text x="2171.4" y="433.57" font-size="10.5" fill="#323130">Degraded</text><line x1="1988" y1="450" x2="2232" y2="450" stroke="#e6e4e2"/><circle cx="2003" cy="465" r="6" fill="#c26a00"/><g transform="translate(2019,458) scale(0.875)">
    <rect x="1.5" y="8" width="2.6" height="6" rx="0.6" fill="#8661c5"/>
    <rect x="5.7" y="4.5" width="2.6" height="9.5" rx="0.6" fill="#0078D4"/>
    <rect x="9.9" y="6.5" width="2.6" height="7.5" rx="0.6" fill="#3fb0ac"/>
  </g><text x="2039" y="468.5" font-size="10.5" fill="#242424">Invocation errors</text><text x="2221" y="468.5" font-size="10.5" font-weight="600" fill="#c26a00" text-anchor="end">9</text><line x1="1997" y1="474" x2="2223" y2="474" stroke="#e6e4e2" stroke-opacity="0.7"/><circle cx="2003" cy="483" r="6" fill="#4c9a2a"/><path d="M2000.3 483 l1.9 1.9 l3.4 -3.9" fill="none" stroke="#fff" stroke-width="1.4" stroke-linecap="round" stroke-linejoin="round"/><g transform="translate(2019,476) scale(0.875)">
    <rect x="1.5" y="8" width="2.6" height="6" rx="0.6" fill="#8661c5"/>
    <rect x="5.7" y="4.5" width="2.6" height="9.5" rx="0.6" fill="#0078D4"/>
    <rect x="9.9" y="6.5" width="2.6" height="7.5" rx="0.6" fill="#3fb0ac"/>
  </g><text x="2039" y="486.5" font-size="10.5" fill="#242424">Duration</text><text x="2221" y="486.5" font-size="10.5" font-weight="400" fill="#605e5c" text-anchor="end">0</text><line x1="1997" y1="492" x2="2223" y2="492" stroke="#e6e4e2" stroke-opacity="0.7"/><circle cx="2003" cy="501" r="6" fill="#4c9a2a"/><path d="M2000.3 501 l1.9 1.9 l3.4 -3.9" fill="none" stroke="#fff" stroke-width="1.4" stroke-linecap="round" stroke-linejoin="round"/><g transform="translate(2019,494) scale(0.875)">
    <rect x="1.5" y="8" width="2.6" height="6" rx="0.6" fill="#8661c5"/>
    <rect x="5.7" y="4.5" width="2.6" height="9.5" rx="0.6" fill="#0078D4"/>
    <rect x="9.9" y="6.5" width="2.6" height="7.5" rx="0.6" fill="#3fb0ac"/>
  </g><text x="2039" y="504.5" font-size="10.5" fill="#242424">Throttles</text><text x="2221" y="504.5" font-size="10.5" font-weight="400" fill="#605e5c" text-anchor="end">1</text>
<g filter="url(#cs)"><rect x="745" y="242" width="246" height="58" rx="10" fill="#f2f8f2" stroke="#a0d8a0" stroke-width="2"/></g><g transform="translate(751,261.16) scale(0.82)"><circle cx="5.5" cy="6" r="2" fill="none" stroke="#605e5c" stroke-width="1.6" stroke-linecap="round" stroke-linejoin="round"/><circle cx="5.5" cy="18" r="2" fill="none" stroke="#605e5c" stroke-width="1.6" stroke-linecap="round" stroke-linejoin="round"/><circle cx="18.5" cy="12" r="2" fill="none" stroke="#605e5c" stroke-width="1.6" stroke-linecap="round" stroke-linejoin="round"/><path d="M7.5 6h3a4 4 0 0 1 4 4M7.5 18h3a4 4 0 0 0 4-4" fill="none" stroke="#605e5c" stroke-width="1.6" stroke-linecap="round" stroke-linejoin="round"/></g><text x="779" y="270.25" font-size="12.5" font-weight="600" fill="#242424">Shop and commerce</text><text x="779" y="281.06" font-size="9" fill="#605e5c">active-active</text><rect x="915.6" y="262.00" width="67.4" height="18" rx="9" fill="#ffffff" stroke="#a0d8a0" stroke-width="1"/><circle cx="926.6" cy="271" r="6" fill="#4c9a2a"/><path d="M923.9 271 l1.9 1.9 l3.4 -3.9" fill="none" stroke="#fff" stroke-width="1.4" stroke-linecap="round" stroke-linejoin="round"/><text x="935.6" y="274.57" font-size="10.5" fill="#323130">Healthy</text>
<g filter="url(#cs)"><rect x="1297" y="242" width="246" height="58" rx="10" fill="#fbf2e7" stroke="#db7500" stroke-width="2"/></g><g transform="translate(1303,261.16) scale(0.82)"><path d="M4 20h16" fill="none" stroke="#605e5c" stroke-width="1.6" stroke-linecap="round" stroke-linejoin="round"/><path d="M6.5 20v-6M12 20V6.5M17.5 20v-9" fill="none" stroke="#605e5c" stroke-width="1.6" stroke-linecap="round" stroke-linejoin="round"/></g><text x="1331" y="270.25" font-size="12.5" font-weight="600" fill="#242424">Reporting</text><text x="1331" y="281.06" font-size="9" fill="#605e5c">single region</text><rect x="1461.4" y="262.00" width="73.6" height="18" rx="9" fill="#ffffff" stroke="#db7500" stroke-width="1"/><circle cx="1472.4" cy="271" r="6" fill="#c26a00"/><text x="1481.4" y="274.57" font-size="10.5" fill="#323130">Degraded</text>
<g filter="url(#cs)"><rect x="1849" y="242" width="246" height="58" rx="10" fill="#fbf2e7" stroke="#db7500" stroke-width="2"/></g><g transform="translate(1855,261.16) scale(0.82)"><path d="M12 3.2l7.6 4.4v8.8L12 20.8l-7.6-4.4V7.6z" fill="none" stroke="#605e5c" stroke-width="1.6" stroke-linecap="round" stroke-linejoin="round"/><path d="M4.6 7.8l7.4 4.3 7.4-4.3M12 12.1v8.6" fill="none" stroke="#605e5c" stroke-width="1.6" stroke-linecap="round" stroke-linejoin="round"/></g><text x="1883" y="274.23" font-size="9.5" font-weight="600" fill="#242424">Logistics and fulfillm…</text><rect x="2013.4" y="262.00" width="73.6" height="18" rx="9" fill="#ffffff" stroke="#db7500" stroke-width="1"/><circle cx="2024.4" cy="271" r="6" fill="#c26a00"/><text x="2033.4" y="274.57" font-size="10.5" fill="#323130">Degraded</text>
<g filter="url(#cs)"><rect x="2401" y="242" width="246" height="58" rx="10" fill="#f6f6f5" stroke="#c8c6c4" stroke-width="2" stroke-dasharray="4 3"/></g><g transform="translate(2407,261.16) scale(0.82)"><path d="M12 3l7 2.6v5.2c0 4.6-3 7.9-7 9.2-4-1.3-7-4.6-7-9.2V5.6z" fill="none" stroke="#605e5c" stroke-width="1.6" stroke-linecap="round" stroke-linejoin="round"/><path d="M8.8 12.2l2.2 2.2 4-4.6" fill="none" stroke="#605e5c" stroke-width="1.6" stroke-linecap="round" stroke-linejoin="round"/></g><text x="2435" y="274.57" font-size="10.5" font-weight="600" fill="#242424">Account and identity</text><rect x="2571.6" y="262.00" width="67.4" height="18" rx="9" fill="#ffffff" stroke="#c8c6c4" stroke-width="1"/><circle cx="2582.6" cy="271" r="6" fill="#8a8886"/><text x="2591.6" y="274.57" font-size="10.5" fill="#323130">Unknown</text>
<g filter="url(#cs)"><rect x="193" y="242" width="246" height="83" rx="10" fill="#f4f0fb" stroke="#8661c5" stroke-width="2"/></g><g transform="translate(199,249.16) scale(0.82)"><path d="M12 3.2l7.6 4.4v8.8L12 20.8l-7.6-4.4V7.6z" fill="none" stroke="#605e5c" stroke-width="1.6" stroke-linecap="round" stroke-linejoin="round"/><path d="M4.6 7.8l7.4 4.3 7.4-4.3M12 12.1v8.6" fill="none" stroke="#605e5c" stroke-width="1.6" stroke-linecap="round" stroke-linejoin="round"/></g><text x="227" y="263.25" font-size="12.5" font-weight="600" fill="#242424">Secondary region</text><rect x="363.6" y="250.00" width="67.4" height="18" rx="9" fill="#ffffff" stroke="#8661c5" stroke-width="1"/><circle cx="374.6" cy="259" r="6" fill="#8661c5"/><text x="383.6" y="262.57" font-size="10.5" fill="#323130">Standby</text><line x1="194" y1="279" x2="438" y2="279" stroke="#e6e4e2"/><circle cx="209" cy="294" r="6" fill="#4c9a2a"/><path d="M206.3 294 l1.9 1.9 l3.4 -3.9" fill="none" stroke="#fff" stroke-width="1.4" stroke-linecap="round" stroke-linejoin="round"/><g transform="translate(225,287) scale(0.875)">
    <rect x="1.5" y="8" width="2.6" height="6" rx="0.6" fill="#8661c5"/>
    <rect x="5.7" y="4.5" width="2.6" height="9.5" rx="0.6" fill="#0078D4"/>
    <rect x="9.9" y="6.5" width="2.6" height="7.5" rx="0.6" fill="#3fb0ac"/>
  </g><text x="245" y="297.5" font-size="10.5" fill="#242424">Replication health</text><text x="427" y="297.5" font-size="10.5" font-weight="400" fill="#605e5c" text-anchor="end">0</text><line x1="203" y1="303" x2="429" y2="303" stroke="#e6e4e2" stroke-opacity="0.7"/><circle cx="209" cy="312" r="6" fill="#4c9a2a"/><path d="M206.3 312 l1.9 1.9 l3.4 -3.9" fill="none" stroke="#fff" stroke-width="1.4" stroke-linecap="round" stroke-linejoin="round"/><g transform="translate(225,305) scale(0.875)">
    <rect x="1.5" y="8" width="2.6" height="6" rx="0.6" fill="#8661c5"/>
    <rect x="5.7" y="4.5" width="2.6" height="9.5" rx="0.6" fill="#0078D4"/>
    <rect x="9.9" y="6.5" width="2.6" height="7.5" rx="0.6" fill="#3fb0ac"/>
  </g><text x="245" y="315.5" font-size="10.5" fill="#242424">Failover readiness</text><text x="427" y="315.5" font-size="10.5" font-weight="400" fill="#605e5c" text-anchor="end">1</text>
<g filter="url(#cs)"><rect x="1297" y="96" width="246" height="58" rx="10" fill="#fbf2e7" stroke="#db7500" stroke-width="2"/></g><g transform="translate(1303,115.16) scale(0.82)"><circle cx="12" cy="12" r="8.4" fill="none" stroke="#605e5c" stroke-width="1.6" stroke-linecap="round" stroke-linejoin="round"/><path d="M4.2 12h3l2-3.6 2.8 7.2 1.8-3.6h4" fill="none" stroke="#605e5c" stroke-width="1.6" stroke-linecap="round" stroke-linejoin="round"/></g><text x="1331" y="124.25" font-size="12.5" font-weight="600" fill="#242424">Workload root</text><text x="1331" y="135.06" font-size="9" fill="#605e5c">worstOf</text><rect x="1461.4" y="116.00" width="73.6" height="18" rx="9" fill="#ffffff" stroke="#db7500" stroke-width="1"/><circle cx="1472.4" cy="125" r="6" fill="#c26a00"/><text x="1481.4" y="128.57" font-size="10.5" fill="#323130">Degraded</text>
</svg>