<svg xmlns="http://www.w3.org/2000/svg" width="1748" height="635" viewBox="0 0 1748 635" font-family="Segoe UI, -apple-system, BlinkMacSystemFont, Helvetica, Arial, sans-serif">
<defs><filter id="cs" x="-20%" y="-20%" width="140%" height="140%"><feDropShadow dx="0" dy="1" stdDeviation="1.3" flood-color="#000" flood-opacity="0.1"/></filter></defs>
<rect width="1748" height="635" fill="#ffffff"/>
<rect x="0" y="78.0" width="1748" height="172.0" fill="#ffffff"/>
<line x1="0" y1="78.0" x2="1748" y2="78.0" stroke="#e6e4e2"/>
<text x="1585.0" y="168.5" font-size="13" font-weight="700" fill="#323130">Workload root</text>
<rect x="0" y="250.0" width="1748" height="250.0" fill="#faf9f8"/>
<line x1="0" y1="250.0" x2="1748" y2="250.0" stroke="#e6e4e2"/>
<text x="1585.0" y="379.5" font-size="13" font-weight="700" fill="#323130">Business &amp; user flows</text>
<rect x="0" y="500.0" width="1748" height="117.0" fill="#ffffff"/>
<line x1="0" y1="500.0" x2="1748" y2="500.0" stroke="#e6e4e2"/>
<text x="1585.0" y="554.5" font-size="13" font-weight="700" fill="#323130">Application</text>
<text x="1585.0" y="571.5" font-size="13" font-weight="700" fill="#323130">components</text>
<line x1="0" y1="634.5" x2="1748" y2="634.5" stroke="#e6e4e2"/>
<text x="40" y="34" font-size="18" font-weight="700" fill="#242424">Pills stress test</text>
<text x="40" y="52" font-size="12" fill="#605e5c">Signals live inside each entity; health rolls up to the workload root.</text>
<text x="1340.5" y="48" font-size="11.5" font-weight="600" fill="#605e5c" text-anchor="end">Legend</text>
<circle cx="1358.5" cy="44" r="4.5" fill="#4c9a2a"/>
<text x="1368.5" y="48" font-size="11.5" fill="#323130">Healthy</text>
<circle cx="1425.1" cy="44" r="4.5" fill="#c26a00"/>
<text x="1435.1" y="48" font-size="11.5" fill="#323130">Degraded</text>
<circle cx="1503.6" cy="44" r="4.5" fill="#c50f18"/>
<text x="1513.6" y="48" font-size="11.5" fill="#323130">Unhealthy</text>
<circle cx="1583.4" cy="44" r="4.5" fill="#8a8886"/>
<text x="1593.4" y="48" font-size="11.5" fill="#323130">Unknown</text>
<g transform="translate(1653.3,37.0) scale(0.875)"><rect x="1.5" y="8" width="2.6" height="6" rx="0.6" fill="#8661c5"/><rect x="5.7" y="4.5" width="2.6" height="9.5" rx="0.6" fill="#0078D4"/><rect x="9.9" y="6.5" width="2.6" height="7.5" rx="0.6" fill="#3fb0ac"/></g>
<text x="1671.3" y="48" font-size="11.5" fill="#323130">Metric</text>
<g transform="translate(40.0,0)">
<g fill="none" stroke-linecap="butt" stroke-linejoin="round">
<path d="M87.0 518.0 L87.0 375.5 Q87.0 368.5 94.0 368.5 L663.5 368.5 Q670.5 368.5 670.5 361.5 L670.5 326.0" stroke="#a0d8a0" stroke-width="1.7"/>
<path d="M296.5 518.0 L296.5 402.5 Q296.5 395.5 303.5 395.5 L669.5 395.5 Q676.5 395.5 676.5 388.5 L676.5 326.0" stroke="#db7500" stroke-width="1.7"/>
<path d="M506.5 518.0 L506.5 429.5 Q506.5 422.5 513.5 422.5 L675.5 422.5 Q682.5 422.5 682.5 415.5 L682.5 326.0" stroke="#a0d8a0" stroke-width="1.7"/>
<path d="M717.5 518.0 L717.5 479.5 Q717.5 476.5 714.5 476.5 L714.5 476.5 Q711.5 476.5 711.5 473.5 L711.5 326.0" stroke="#a0d8a0" stroke-width="1.7"/>
<path d="M922.0 518.0 L922.0 456.5 Q922.0 449.5 915.0 449.5 L848.5 449.5 Q841.5 449.5 841.5 442.5 L841.5 326.0" stroke="#ba0d16" stroke-width="1.6" stroke-dasharray="5 4"/>
<path d="M1131.5 518.0 L1131.5 402.5 Q1131.5 395.5 1124.5 395.5 L842.5 395.5 Q835.5 395.5 835.5 388.5 L835.5 326.0" stroke="#a0d8a0" stroke-width="1.7"/>
<path d="M1262.0 518.0 L1262.0 375.5 Q1262.0 368.5 1255.0 368.5 L836.5 368.5 Q829.5 368.5 829.5 361.5 L829.5 326.0" stroke="#db7500" stroke-width="1.7"/>
<path d="M1268.0 518.0 L1268.0 425.3 Q1268.0 422.5 1270.8 422.5 L1270.8 422.5 Q1273.7 422.5 1273.7 419.7 L1273.7 335.0" stroke="#db7500" stroke-width="1.7"/>
<path d="M1295.7 518.0 L1295.7 456.5 Q1295.7 449.5 1295.7 442.5 L1295.7 187.0 Q1295.7 180.0 1288.7 180.0 L1208.9 180.0 Q1201.9 180.0 1201.9 173.0 L1201.9 154.0" stroke="#db7500" stroke-width="1.6" stroke-dasharray="5 4"/>
<path d="M756.0 268.0 L756.0 206.5 Q756.0 199.5 763.0 199.5 L1007.9 199.5 Q1014.9 199.5 1014.9 192.5 L1014.9 154.0" stroke="#db7500" stroke-width="1.7"/>
<path d="M1208.7 268.0 L1208.7 233.5 Q1208.7 226.5 1201.7 226.5 L1197.7 226.5 Q1190.7 226.5 1190.7 219.5 L1190.7 154.0" stroke="#a0d8a0" stroke-width="1.7"/>
</g>
<g stroke="none"><rect x="62.7" y="358.5" width="48.7" height="20" rx="10" fill="#ffffff" stroke="#d8d6d4" stroke-width="1"/><text x="87.0" y="372.1" font-size="10.5" font-weight="600" fill="#242424" text-anchor="middle">reads</text></g>
<g stroke="none"><rect x="271.5" y="385.5" width="49.9" height="20" rx="10" fill="#ffffff" stroke="#d8d6d4" stroke-width="1"/><text x="296.5" y="399.1" font-size="10.5" font-weight="600" fill="#242424" text-anchor="middle">writes</text></g>
<g stroke="none"><rect x="478.3" y="412.5" width="56.3" height="20" rx="10" fill="#ffffff" stroke="#d8d6d4" stroke-width="1"/><text x="506.5" y="426.1" font-size="10.5" font-weight="600" fill="#242424" text-anchor="middle">caches</text></g>
<g stroke="none"><rect x="688.7" y="466.5" width="57.6" height="20" rx="10" fill="#ffffff" stroke="#d8d6d4" stroke-width="1"/><text x="717.5" y="480.1" font-size="10.5" font-weight="600" fill="#242424" text-anchor="middle">queries</text></g>
<g stroke="none"><rect x="863.6" y="439.5" width="116.9" height="20" rx="10" fill="#ffffff" stroke="#d8d6d4" stroke-width="1"/><text x="922.0" y="453.1" font-size="10.5" font-weight="600" fill="#242424" text-anchor="middle">limited propagation</text></g>
<g stroke="none"><rect x="1076.3" y="385.5" width="110.5" height="20" rx="10" fill="#ffffff" stroke="#d8d6d4" stroke-width="1"/><text x="1131.5" y="399.1" font-size="10.5" font-weight="600" fill="#242424" text-anchor="middle">streams events to</text></g>
<g stroke="none"><rect x="1210.0" y="358.5" width="60.2" height="20" rx="10" fill="#ffffff" stroke="#d8d6d4" stroke-width="1"/><text x="1240.1" y="372.1" font-size="10.5" font-weight="600" fill="#242424" text-anchor="middle">used by</text></g>
<g stroke="none"><rect x="1219.9" y="412.5" width="72.3" height="20" rx="10" fill="#ffffff" stroke="#d8d6d4" stroke-width="1"/><text x="1256.0" y="426.1" font-size="10.5" font-weight="600" fill="#242424" text-anchor="middle">also feeds</text></g>
<g stroke="none"><rect x="1271.5" y="439.5" width="143.0" height="20" rx="10" fill="#ffffff" stroke="#d8d6d4" stroke-width="1"/><text x="1343.0" y="453.1" font-size="10.5" font-weight="600" fill="#242424" text-anchor="middle">suppressed propagation</text></g>
<g stroke="none"><rect x="711.3" y="189.5" width="89.4" height="20" rx="10" fill="#ffffff" stroke="#d8d6d4" stroke-width="1"/><text x="756.0" y="203.1" font-size="10.5" font-weight="600" fill="#242424" text-anchor="middle">primary rollup</text></g>
<g stroke="none"><rect x="1102.6" y="216.5" width="189.5" height="20" rx="10" fill="#ffffff" stroke="#d8d6d4" stroke-width="1"/><text x="1197.4" y="230.1" font-size="10.5" font-weight="600" fill="#242424" text-anchor="middle">secondary rollup with a long label</text></g>
<g filter="url(#cs)"><rect x="0.0" y="518.0" width="174" height="85" rx="10" fill="#f2f8f2" stroke="#a0d8a0" stroke-width="2"/></g><g transform="translate(6.0,525.16) scale(0.82)"><path d="M12 3.2l7.6 4.4v8.8L12 20.8l-7.6-4.4V7.6z" fill="none" stroke="#605e5c" stroke-width="1.6" stroke-linecap="round" stroke-linejoin="round"/><path d="M4.6 7.8l7.4 4.3 7.4-4.3M12 12.1v8.6" fill="none" stroke="#605e5c" stroke-width="1.6" stroke-linecap="round" stroke-linejoin="round"/></g><text x="34.0" y="538.5" font-size="12.5" font-weight="600" fill="#242424">Service A</text><rect x="101.0" y="526.00" width="65.0" height="18" rx="9" fill="#ffffff" stroke="#a0d8a0" stroke-width="1"/><circle cx="112.0" cy="535.0" r="6" fill="#4c9a2a"/><path d="M109.3 535.0 l1.9 1.9 l3.4 -3.9" fill="none" stroke="#ffffff" stroke-width="1.4" stroke-linecap="round" stroke-linejoin="round"/><text x="121.0" y="538.57" font-size="10.5" fill="#323130">Healthy</text><line x1="1.0" y1="555.0" x2="173.0" y2="555.0" stroke="#e6e4e2"/><circle cx="16.0" cy="570.0" r="6" fill="#4c9a2a"/><path d="M13.3 570.0 l1.9 1.9 l3.4 -3.9" fill="none" stroke="#ffffff" stroke-width="1.4" stroke-linecap="round" stroke-linejoin="round"/><g transform="translate(32.0,563.0) scale(0.875)"><rect x="1.5" y="8" width="2.6" height="6" rx="0.6" fill="#8661c5"/><rect x="5.7" y="4.5" width="2.6" height="9.5" rx="0.6" fill="#0078D4"/><rect x="9.9" y="6.5" width="2.6" height="7.5" rx="0.6" fill="#3fb0ac"/></g><text x="52.0" y="573.5" font-size="10.5" fill="#242424">m1</text><text x="162.0" y="573.5" font-size="10.5" font-weight="400" fill="#605e5c" text-anchor="end">2</text><line x1="10.0" y1="579.0" x2="164.0" y2="579.0" stroke="#e6e4e2" stroke-opacity="0.7"/><circle cx="16.0" cy="588.0" r="6" fill="#4c9a2a"/><path d="M13.3 588.0 l1.9 1.9 l3.4 -3.9" fill="none" stroke="#ffffff" stroke-width="1.4" stroke-linecap="round" stroke-linejoin="round"/><g transform="translate(32.0,581.0) scale(0.875)"><rect x="1.5" y="8" width="2.6" height="6" rx="0.6" fill="#8661c5"/><rect x="5.7" y="4.5" width="2.6" height="9.5" rx="0.6" fill="#0078D4"/><rect x="9.9" y="6.5" width="2.6" height="7.5" rx="0.6" fill="#3fb0ac"/></g><text x="52.0" y="591.5" font-size="10.5" fill="#242424">m2</text><text x="162.0" y="591.5" font-size="10.5" font-weight="400" fill="#605e5c" text-anchor="end">0</text>
<g filter="url(#cs)"><rect x="204.0" y="518.0" width="185" height="85" rx="10" fill="#fbf2e7" stroke="#db7500" stroke-width="2"/></g><g transform="translate(210.0,525.16) scale(0.82)"><path d="M12 3.2l7.6 4.4v8.8L12 20.8l-7.6-4.4V7.6z" fill="none" stroke="#605e5c" stroke-width="1.6" stroke-linecap="round" stroke-linejoin="round"/><path d="M4.6 7.8l7.4 4.3 7.4-4.3M12 12.1v8.6" fill="none" stroke="#605e5c" stroke-width="1.6" stroke-linecap="round" stroke-linejoin="round"/></g><text x="238.0" y="538.5" font-size="12.5" font-weight="600" fill="#242424">Service B</text><rect x="305.1" y="526.00" width="75.9" height="18" rx="9" fill="#ffffff" stroke="#db7500" stroke-width="1"/><circle cx="316.1" cy="535.0" r="6" fill="#c26a00"/><text x="325.1" y="538.57" font-size="10.5" fill="#323130">Degraded</text><line x1="205.0" y1="555.0" x2="388.0" y2="555.0" stroke="#e6e4e2"/><circle cx="220.0" cy="570.0" r="6" fill="#c26a00"/><g transform="translate(236.0,563.0) scale(0.875)"><rect x="1.5" y="8" width="2.6" height="6" rx="0.6" fill="#8661c5"/><rect x="5.7" y="4.5" width="2.6" height="9.5" rx="0.6" fill="#0078D4"/><rect x="9.9" y="6.5" width="2.6" height="7.5" rx="0.6" fill="#3fb0ac"/></g><text x="256.0" y="573.5" font-size="10.5" fill="#242424">m1</text><text x="377.0" y="573.5" font-size="10.5" font-weight="600" fill="#c26a00" text-anchor="end">13</text><line x1="214.0" y1="579.0" x2="379.0" y2="579.0" stroke="#e6e4e2" stroke-opacity="0.7"/><circle cx="220.0" cy="588.0" r="6" fill="#4c9a2a"/><path d="M217.3 588.0 l1.9 1.9 l3.4 -3.9" fill="none" stroke="#ffffff" stroke-width="1.4" stroke-linecap="round" stroke-linejoin="round"/><g transform="translate(236.0,581.0) scale(0.875)"><rect x="1.5" y="8" width="2.6" height="6" rx="0.6" fill="#8661c5"/><rect x="5.7" y="4.5" width="2.6" height="9.5" rx="0.6" fill="#0078D4"/><rect x="9.9" y="6.5" width="2.6" height="7.5" rx="0.6" fill="#3fb0ac"/></g><text x="256.0" y="591.5" font-size="10.5" fill="#242424">m2</text><text x="377.0" y="591.5" font-size="10.5" font-weight="400" fill="#605e5c" text-anchor="end">0</text>
<g filter="url(#cs)"><rect x="419.0" y="518.0" width="175" height="85" rx="10" fill="#f2f8f2" stroke="#a0d8a0" stroke-width="2"/></g><g transform="translate(425.0,525.16) scale(0.82)"><path d="M12 3.2l7.6 4.4v8.8L12 20.8l-7.6-4.4V7.6z" fill="none" stroke="#605e5c" stroke-width="1.6" stroke-linecap="round" stroke-linejoin="round"/><path d="M4.6 7.8l7.4 4.3 7.4-4.3M12 12.1v8.6" fill="none" stroke="#605e5c" stroke-width="1.6" stroke-linecap="round" stroke-linejoin="round"/></g><text x="453.0" y="538.5" font-size="12.5" font-weight="600" fill="#242424">Service C</text><rect x="521.0" y="526.00" width="65.0" height="18" rx="9" fill="#ffffff" stroke="#a0d8a0" stroke-width="1"/><circle cx="532.0" cy="535.0" r="6" fill="#4c9a2a"/><path d="M529.3 535.0 l1.9 1.9 l3.4 -3.9" fill="none" stroke="#ffffff" stroke-width="1.4" stroke-linecap="round" stroke-linejoin="round"/><text x="541.0" y="538.57" font-size="10.5" fill="#323130">Healthy</text><line x1="420.0" y1="555.0" x2="593.0" y2="555.0" stroke="#e6e4e2"/><circle cx="435.0" cy="570.0" r="6" fill="#4c9a2a"/><path d="M432.3 570.0 l1.9 1.9 l3.4 -3.9" fill="none" stroke="#ffffff" stroke-width="1.4" stroke-linecap="round" stroke-linejoin="round"/><g transform="translate(451.0,563.0) scale(0.875)"><rect x="1.5" y="8" width="2.6" height="6" rx="0.6" fill="#8661c5"/><rect x="5.7" y="4.5" width="2.6" height="9.5" rx="0.6" fill="#0078D4"/><rect x="9.9" y="6.5" width="2.6" height="7.5" rx="0.6" fill="#3fb0ac"/></g><text x="471.0" y="573.5" font-size="10.5" fill="#242424">m1</text><text x="582.0" y="573.5" font-size="10.5" font-weight="400" fill="#605e5c" text-anchor="end">2</text><line x1="429.0" y1="579.0" x2="584.0" y2="579.0" stroke="#e6e4e2" stroke-opacity="0.7"/><circle cx="435.0" cy="588.0" r="6" fill="#4c9a2a"/><path d="M432.3 588.0 l1.9 1.9 l3.4 -3.9" fill="none" stroke="#ffffff" stroke-width="1.4" stroke-linecap="round" stroke-linejoin="round"/><g transform="translate(451.0,581.0) scale(0.875)"><rect x="1.5" y="8" width="2.6" height="6" rx="0.6" fill="#8661c5"/><rect x="5.7" y="4.5" width="2.6" height="9.5" rx="0.6" fill="#0078D4"/><rect x="9.9" y="6.5" width="2.6" height="7.5" rx="0.6" fill="#3fb0ac"/></g><text x="471.0" y="591.5" font-size="10.5" fill="#242424">m2</text><text x="582.0" y="591.5" font-size="10.5" font-weight="400" fill="#605e5c" text-anchor="end">0</text>
<g filter="url(#cs)"><rect x="624.0" y="518.0" width="175" height="85" rx="10" fill="#f2f8f2" stroke="#a0d8a0" stroke-width="2"/></g><g transform="translate(630.0,525.16) scale(0.82)"><path d="M12 3.2l7.6 4.4v8.8L12 20.8l-7.6-4.4V7.6z" fill="none" stroke="#605e5c" stroke-width="1.6" stroke-linecap="round" stroke-linejoin="round"/><path d="M4.6 7.8l7.4 4.3 7.4-4.3M12 12.1v8.6" fill="none" stroke="#605e5c" stroke-width="1.6" stroke-linecap="round" stroke-linejoin="round"/></g><text x="658.0" y="538.5" font-size="12.5" font-weight="600" fill="#242424">Service D</text><rect x="726.0" y="526.00" width="65.0" height="18" rx="9" fill="#ffffff" stroke="#a0d8a0" stroke-width="1"/><circle cx="737.0" cy="535.0" r="6" fill="#4c9a2a"/><path d="M734.3 535.0 l1.9 1.9 l3.4 -3.9" fill="none" stroke="#ffffff" stroke-width="1.4" stroke-linecap="round" stroke-linejoin="round"/><text x="746.0" y="538.57" font-size="10.5" fill="#323130">Healthy</text><line x1="625.0" y1="555.0" x2="798.0" y2="555.0" stroke="#e6e4e2"/><circle cx="640.0" cy="570.0" r="6" fill="#4c9a2a"/><path d="M637.3 570.0 l1.9 1.9 l3.4 -3.9" fill="none" stroke="#ffffff" stroke-width="1.4" stroke-linecap="round" stroke-linejoin="round"/><g transform="translate(656.0,563.0) scale(0.875)"><rect x="1.5" y="8" width="2.6" height="6" rx="0.6" fill="#8661c5"/><rect x="5.7" y="4.5" width="2.6" height="9.5" rx="0.6" fill="#0078D4"/><rect x="9.9" y="6.5" width="2.6" height="7.5" rx="0.6" fill="#3fb0ac"/></g><text x="676.0" y="573.5" font-size="10.5" fill="#242424">m1</text><text x="787.0" y="573.5" font-size="10.5" font-weight="400" fill="#605e5c" text-anchor="end">2</text><line x1="634.0" y1="579.0" x2="789.0" y2="579.0" stroke="#e6e4e2" stroke-opacity="0.7"/><circle cx="640.0" cy="588.0" r="6" fill="#4c9a2a"/><path d="M637.3 588.0 l1.9 1.9 l3.4 -3.9" fill="none" stroke="#ffffff" stroke-width="1.4" stroke-linecap="round" stroke-linejoin="round"/><g transform="translate(656.0,581.0) scale(0.875)"><rect x="1.5" y="8" width="2.6" height="6" rx="0.6" fill="#8661c5"/><rect x="5.7" y="4.5" width="2.6" height="9.5" rx="0.6" fill="#0078D4"/><rect x="9.9" y="6.5" width="2.6" height="7.5" rx="0.6" fill="#3fb0ac"/></g><text x="676.0" y="591.5" font-size="10.5" fill="#242424">m2</text><text x="787.0" y="591.5" font-size="10.5" font-weight="400" fill="#605e5c" text-anchor="end">0</text>
<g filter="url(#cs)"><rect x="829.0" y="518.0" width="186" height="85" rx="10" fill="#faeceb" stroke="#ba0d16" stroke-width="2"/></g><g transform="translate(835.0,525.16) scale(0.82)"><path d="M12 3.2l7.6 4.4v8.8L12 20.8l-7.6-4.4V7.6z" fill="none" stroke="#605e5c" stroke-width="1.6" stroke-linecap="round" stroke-linejoin="round"/><path d="M4.6 7.8l7.4 4.3 7.4-4.3M12 12.1v8.6" fill="none" stroke="#605e5c" stroke-width="1.6" stroke-linecap="round" stroke-linejoin="round"/></g><text x="863.0" y="538.5" font-size="12.5" font-weight="600" fill="#242424">Service E</text><rect x="929.8" y="526.00" width="77.2" height="18" rx="9" fill="#ffffff" stroke="#ba0d16" stroke-width="1"/><circle cx="940.8" cy="535.0" r="6" fill="#c50f18"/><text x="949.8" y="538.57" font-size="10.5" fill="#323130">Unhealthy</text><line x1="830.0" y1="555.0" x2="1014.0" y2="555.0" stroke="#e6e4e2"/><circle cx="845.0" cy="570.0" r="6" fill="#c50f18"/><g transform="translate(861.0,563.0) scale(0.875)"><rect x="1.5" y="8" width="2.6" height="6" rx="0.6" fill="#8661c5"/><rect x="5.7" y="4.5" width="2.6" height="9.5" rx="0.6" fill="#0078D4"/><rect x="9.9" y="6.5" width="2.6" height="7.5" rx="0.6" fill="#3fb0ac"/></g><text x="881.0" y="573.5" font-size="10.5" fill="#242424">m1</text><text x="1003.0" y="573.5" font-size="10.5" font-weight="600" fill="#c50f18" text-anchor="end">38</text><line x1="839.0" y1="579.0" x2="1005.0" y2="579.0" stroke="#e6e4e2" stroke-opacity="0.7"/><circle cx="845.0" cy="588.0" r="6" fill="#4c9a2a"/><path d="M842.3 588.0 l1.9 1.9 l3.4 -3.9" fill="none" stroke="#ffffff" stroke-width="1.4" stroke-linecap="round" stroke-linejoin="round"/><g transform="translate(861.0,581.0) scale(0.875)"><rect x="1.5" y="8" width="2.6" height="6" rx="0.6" fill="#8661c5"/><rect x="5.7" y="4.5" width="2.6" height="9.5" rx="0.6" fill="#0078D4"/><rect x="9.9" y="6.5" width="2.6" height="7.5" rx="0.6" fill="#3fb0ac"/></g><text x="881.0" y="591.5" font-size="10.5" fill="#242424">m2</text><text x="1003.0" y="591.5" font-size="10.5" font-weight="400" fill="#605e5c" text-anchor="end">0</text>
<g filter="url(#cs)"><rect x="1045.0" y="518.0" width="173" height="85" rx="10" fill="#f2f8f2" stroke="#a0d8a0" stroke-width="2"/></g><g transform="translate(1051.0,525.16) scale(0.82)"><path d="M12 3.2l7.6 4.4v8.8L12 20.8l-7.6-4.4V7.6z" fill="none" stroke="#605e5c" stroke-width="1.6" stroke-linecap="round" stroke-linejoin="round"/><path d="M4.6 7.8l7.4 4.3 7.4-4.3M12 12.1v8.6" fill="none" stroke="#605e5c" stroke-width="1.6" stroke-linecap="round" stroke-linejoin="round"/></g><text x="1079.0" y="538.5" font-size="12.5" font-weight="600" fill="#242424">Service F</text><rect x="1145.0" y="526.00" width="65.0" height="18" rx="9" fill="#ffffff" stroke="#a0d8a0" stroke-width="1"/><circle cx="1156.0" cy="535.0" r="6" fill="#4c9a2a"/><path d="M1153.3 535.0 l1.9 1.9 l3.4 -3.9" fill="none" stroke="#ffffff" stroke-width="1.4" stroke-linecap="round" stroke-linejoin="round"/><text x="1165.0" y="538.57" font-size="10.5" fill="#323130">Healthy</text><line x1="1046.0" y1="555.0" x2="1217.0" y2="555.0" stroke="#e6e4e2"/><circle cx="1061.0" cy="570.0" r="6" fill="#4c9a2a"/><path d="M1058.3 570.0 l1.9 1.9 l3.4 -3.9" fill="none" stroke="#ffffff" stroke-width="1.4" stroke-linecap="round" stroke-linejoin="round"/><g transform="translate(1077.0,563.0) scale(0.875)"><rect x="1.5" y="8" width="2.6" height="6" rx="0.6" fill="#8661c5"/><rect x="5.7" y="4.5" width="2.6" height="9.5" rx="0.6" fill="#0078D4"/><rect x="9.9" y="6.5" width="2.6" height="7.5" rx="0.6" fill="#3fb0ac"/></g><text x="1097.0" y="573.5" font-size="10.5" fill="#242424">m1</text><text x="1206.0" y="573.5" font-size="10.5" font-weight="400" fill="#605e5c" text-anchor="end">2</text><line x1="1055.0" y1="579.0" x2="1208.0" y2="579.0" stroke="#e6e4e2" stroke-opacity="0.7"/><circle cx="1061.0" cy="588.0" r="6" fill="#4c9a2a"/><path d="M1058.3 588.0 l1.9 1.9 l3.4 -3.9" fill="none" stroke="#ffffff" stroke-width="1.4" stroke-linecap="round" stroke-linejoin="round"/><g transform="translate(1077.0,581.0) scale(0.875)"><rect x="1.5" y="8" width="2.6" height="6" rx="0.6" fill="#8661c5"/><rect x="5.7" y="4.5" width="2.6" height="9.5" rx="0.6" fill="#0078D4"/><rect x="9.9" y="6.5" width="2.6" height="7.5" rx="0.6" fill="#3fb0ac"/></g><text x="1097.0" y="591.5" font-size="10.5" fill="#242424">m2</text><text x="1206.0" y="591.5" font-size="10.5" font-weight="400" fill="#605e5c" text-anchor="end">0</text>
<g filter="url(#cs)"><rect x="658.5" y="268.0" width="195" height="58" rx="10" fill="#fbf2e7" stroke="#db7500" stroke-width="2"/></g><g transform="translate(664.5,287.16) scale(0.82)"><circle cx="5.5" cy="6" r="2" fill="none" stroke="#605e5c" stroke-width="1.6" stroke-linecap="round" stroke-linejoin="round"/><circle cx="5.5" cy="18" r="2" fill="none" stroke="#605e5c" stroke-width="1.6" stroke-linecap="round" stroke-linejoin="round"/><circle cx="18.5" cy="12" r="2" fill="none" stroke="#605e5c" stroke-width="1.6" stroke-linecap="round" stroke-linejoin="round"/><path d="M7.5 6h3a4 4 0 0 1 4 4M7.5 18h3a4 4 0 0 0 4-4" fill="none" stroke="#605e5c" stroke-width="1.6" stroke-linecap="round" stroke-linejoin="round"/></g><text x="692.5" y="300.5" font-size="12.5" font-weight="600" fill="#242424">Middle flow</text><rect x="769.6" y="288.00" width="75.9" height="18" rx="9" fill="#ffffff" stroke="#db7500" stroke-width="1"/><circle cx="780.6" cy="297.0" r="6" fill="#c26a00"/><text x="789.6" y="300.57" font-size="10.5" fill="#323130">Degraded</text>
<g filter="url(#cs)"><rect x="1248.0" y="518.0" width="249" height="67" rx="10" fill="#fbf2e7" stroke="#db7500" stroke-width="2"/></g><g transform="translate(1254.0,525.16) scale(0.82)"><path d="M12 3.2l7.6 4.4v8.8L12 20.8l-7.6-4.4V7.6z" fill="none" stroke="#605e5c" stroke-width="1.6" stroke-linecap="round" stroke-linejoin="round"/><path d="M4.6 7.8l7.4 4.3 7.4-4.3M12 12.1v8.6" fill="none" stroke="#605e5c" stroke-width="1.6" stroke-linecap="round" stroke-linejoin="round"/></g><text x="1282.0" y="538.5" font-size="12.5" font-weight="600" fill="#242424">Shared dependency</text><rect x="1413.1" y="526.00" width="75.9" height="18" rx="9" fill="#ffffff" stroke="#db7500" stroke-width="1"/><circle cx="1424.1" cy="535.0" r="6" fill="#c26a00"/><text x="1433.1" y="538.57" font-size="10.5" fill="#323130">Degraded</text><line x1="1249.0" y1="555.0" x2="1496.0" y2="555.0" stroke="#e6e4e2"/><circle cx="1264.0" cy="570.0" r="6" fill="#c26a00"/><g transform="translate(1280.0,563.0) scale(0.875)"><rect x="1.5" y="8" width="2.6" height="6" rx="0.6" fill="#8661c5"/><rect x="5.7" y="4.5" width="2.6" height="9.5" rx="0.6" fill="#0078D4"/><rect x="9.9" y="6.5" width="2.6" height="7.5" rx="0.6" fill="#3fb0ac"/></g><text x="1300.0" y="573.5" font-size="10.5" fill="#242424">m1</text><text x="1485.0" y="573.5" font-size="10.5" font-weight="600" fill="#c26a00" text-anchor="end">13</text>
<g filter="url(#cs)"><rect x="1107.7" y="268.0" width="178" height="67" rx="10" fill="#f2f8f2" stroke="#a0d8a0" stroke-width="2"/></g><g transform="translate(1113.7,275.16) scale(0.82)"><circle cx="5.5" cy="6" r="2" fill="none" stroke="#605e5c" stroke-width="1.6" stroke-linecap="round" stroke-linejoin="round"/><circle cx="5.5" cy="18" r="2" fill="none" stroke="#605e5c" stroke-width="1.6" stroke-linecap="round" stroke-linejoin="round"/><circle cx="18.5" cy="12" r="2" fill="none" stroke="#605e5c" stroke-width="1.6" stroke-linecap="round" stroke-linejoin="round"/><path d="M7.5 6h3a4 4 0 0 1 4 4M7.5 18h3a4 4 0 0 0 4-4" fill="none" stroke="#605e5c" stroke-width="1.6" stroke-linecap="round" stroke-linejoin="round"/></g><text x="1141.7" y="288.5" font-size="12.5" font-weight="600" fill="#242424">Other flow</text><rect x="1212.6" y="276.00" width="65.0" height="18" rx="9" fill="#ffffff" stroke="#a0d8a0" stroke-width="1"/><circle cx="1223.6" cy="285.0" r="6" fill="#4c9a2a"/><path d="M1220.9 285.0 l1.9 1.9 l3.4 -3.9" fill="none" stroke="#ffffff" stroke-width="1.4" stroke-linecap="round" stroke-linejoin="round"/><text x="1232.6" y="288.57" font-size="10.5" fill="#323130">Healthy</text><line x1="1108.7" y1="305.0" x2="1284.7" y2="305.0" stroke="#e6e4e2"/><circle cx="1123.7" cy="320.0" r="6" fill="#4c9a2a"/><path d="M1121.0 320.0 l1.9 1.9 l3.4 -3.9" fill="none" stroke="#ffffff" stroke-width="1.4" stroke-linecap="round" stroke-linejoin="round"/><g transform="translate(1139.7,313.0) scale(0.875)"><rect x="1.5" y="8" width="2.6" height="6" rx="0.6" fill="#8661c5"/><rect x="5.7" y="4.5" width="2.6" height="9.5" rx="0.6" fill="#0078D4"/><rect x="9.9" y="6.5" width="2.6" height="7.5" rx="0.6" fill="#3fb0ac"/></g><text x="1159.7" y="323.5" font-size="10.5" fill="#242424">m1</text><text x="1273.7" y="323.5" font-size="10.5" font-weight="400" fill="#605e5c" text-anchor="end">2</text>
<g filter="url(#cs)"><rect x="1002.9" y="96.0" width="211" height="58" rx="10" fill="#fbf2e7" stroke="#db7500" stroke-width="2"/></g><g transform="translate(1008.9,115.16) scale(0.82)"><circle cx="12" cy="12" r="8.4" fill="none" stroke="#605e5c" stroke-width="1.6" stroke-linecap="round" stroke-linejoin="round"/><path d="M4.2 12h3l2-3.6 2.8 7.2 1.8-3.6h4" fill="none" stroke="#605e5c" stroke-width="1.6" stroke-linecap="round" stroke-linejoin="round"/></g><text x="1036.9" y="128.5" font-size="12.5" font-weight="600" fill="#242424">Workload root</text><rect x="1130.0" y="116.00" width="75.9" height="18" rx="9" fill="#ffffff" stroke="#db7500" stroke-width="1"/><circle cx="1141.0" cy="125.0" r="6" fill="#c26a00"/><text x="1150.0" y="128.57" font-size="10.5" fill="#323130">Degraded</text>
</g></svg>