<svg xmlns="http://www.w3.org/2000/svg" width="2172" height="748" viewBox="0 0 2172 748" font-family="Segoe UI, -apple-system, BlinkMacSystemFont, Helvetica, Arial, sans-serif">
<defs><filter id="cs" x="-20%" y="-20%" width="140%" height="140%"><feDropShadow dx="0" dy="1" stdDeviation="1.3" flood-color="#000" flood-opacity="0.1"/></filter>
<marker id="ar-healthy" viewBox="0 0 10 10" refX="8" refY="5" markerWidth="7" markerHeight="7" orient="auto-start-reverse"><path d="M1 1 L9 5 L1 9" fill="none" stroke="#a0d8a0" stroke-width="1.6" stroke-linecap="round" stroke-linejoin="round"/></marker><marker id="ar-degraded" viewBox="0 0 10 10" refX="8" refY="5" markerWidth="7" markerHeight="7" orient="auto-start-reverse"><path d="M1 1 L9 5 L1 9" fill="none" stroke="#db7500" stroke-width="1.6" stroke-linecap="round" stroke-linejoin="round"/></marker><marker id="ar-unhealthy" viewBox="0 0 10 10" refX="8" refY="5" markerWidth="7" markerHeight="7" orient="auto-start-reverse"><path d="M1 1 L9 5 L1 9" fill="none" stroke="#ba0d16" stroke-width="1.6" stroke-linecap="round" stroke-linejoin="round"/></marker><marker id="ar-unknown" viewBox="0 0 10 10" refX="8" refY="5" markerWidth="7" markerHeight="7" orient="auto-start-reverse"><path d="M1 1 L9 5 L1 9" fill="none" stroke="#c8c6c4" stroke-width="1.6" stroke-linecap="round" stroke-linejoin="round"/></marker><marker id="ar-alt" viewBox="0 0 10 10" refX="8" refY="5" markerWidth="7" markerHeight="7" orient="auto-start-reverse"><path d="M1 1 L9 5 L1 9" fill="none" stroke="#8661c5" stroke-width="1.6" stroke-linecap="round" stroke-linejoin="round"/></marker><marker id="ar-signal" viewBox="0 0 10 10" refX="8" refY="5" markerWidth="7" markerHeight="7" orient="auto-start-reverse"><path d="M1 1 L9 5 L1 9" fill="none" stroke="#0078D4" stroke-width="1.6" stroke-linecap="round" stroke-linejoin="round"/></marker>
</defs><rect width="2172" height="748" fill="#ffffff"/>
<rect x="0" y="78" width="2172" height="198" fill="#ffffff"/>
<line x1="0" y1="78" x2="2172" y2="78" stroke="#e6e4e2"/>
<text x="1996" y="182" font-size="13" font-weight="700" fill="#323130">Workload root</text>
<rect x="0" y="276" width="2172" height="309" fill="#faf9f8"/>
<line x1="0" y1="276" x2="2172" y2="276" stroke="#e6e4e2"/>
<text x="1996" y="428.5" font-size="13" font-weight="700" fill="#323130">Business &amp;</text>
<text x="1996" y="445.5" font-size="13" font-weight="700" fill="#323130">user flows</text>
<rect x="0" y="585" width="2172" height="145" fill="#ffffff"/>
<line x1="0" y1="585" x2="2172" y2="585" stroke="#e6e4e2"/>
<text x="1996" y="655.5" font-size="13" font-weight="700" fill="#323130">Application</text>
<text x="1996" y="672.5" font-size="13" font-weight="700" fill="#323130">components</text>
<line x1="0" y1="747.5" x2="2172" y2="747.5" stroke="#e6e4e2"/>
<text x="40" y="34" font-size="18" font-weight="700" fill="#242424">Pills stress test</text>
<text x="40" y="52" font-size="12" fill="#605e5c">Signals live inside each entity; health rolls up to the workload root.</text>
<text x="1757.2" y="48" font-size="11.5" font-weight="600" fill="#605e5c" text-anchor="end">Legend</text><circle cx="1775.2" cy="44" r="4.5" fill="#4c9a2a"/><text x="1785.2" y="48" font-size="11.5" fill="#323130">Healthy</text><circle cx="1846" cy="44" r="4.5" fill="#c26a00"/><text x="1856" y="48" font-size="11.5" fill="#323130">Degraded</text><circle cx="1923.2" cy="44" r="4.5" fill="#c50f18"/><text x="1933.2" y="48" font-size="11.5" fill="#323130">Unhealthy</text><circle cx="2006.8" cy="44" r="4.5" fill="#8a8886"/><text x="2016.8" y="48" font-size="11.5" fill="#323130">Unknown</text><g transform="translate(2071.6,37) scale(0.875)">
    <rect x="1.5" y="8" width="2.6" height="6" rx="0.6" fill="#8661c5"/>
    <rect x="5.7" y="4.5" width="2.6" height="9.5" rx="0.6" fill="#0078D4"/>
    <rect x="9.9" y="6.5" width="2.6" height="7.5" rx="0.6" fill="#3fb0ac"/>
  </g><text x="2089.6" y="48" font-size="11.5" fill="#323130">Metric</text>
<g fill="none" stroke-linecap="butt" stroke-linejoin="round">
<path d="M178 603 L178.0 382.0 Q178 375 185.0 375.0 L516.0 375.0 Q523 375 523.0 368.0 L523 352" stroke="#a0d8a0" stroke-width="1.7"/>
<path d="M730 603 L730.0 538.0 Q730 531 723.0 531.0 L530.0 531.0 Q523 531 523.0 524.0 L523 352" stroke="#a0d8a0" stroke-width="1.7"/>
<path d="M1006 603 L1006.0 486.0 Q1006 479 999.0 479.0 L530.0 479.0 Q523 479 523.0 472.0 L523 352" stroke="#a0d8a0" stroke-width="1.7"/>
<path d="M1558 603 L1558.0 460.0 Q1558 453 1551.0 453.0 L530.0 453.0 Q523 453 523.0 446.0 L523 352" stroke="#a0d8a0" stroke-width="1.7"/>
<path d="M454 603 L454.0 408.0 Q454 401 461.0 401.0 L516.0 401.0 Q523 401 523.0 394.0 L523 352" stroke="#db7500" stroke-width="1.7"/>
<path d="M1834 603 L1834.0 512.0 Q1834 505 1827.0 505.0 L530.0 505.0 Q523 505 523.0 498.0 L523 352" stroke="#db7500" stroke-width="1.7"/>
<path d="M1834 603 L1834.0 382.0 Q1834 375 1827.0 375.0 L1496.0 375.0 Q1489 375 1489.0 368.0 L1489 359" stroke="#db7500" stroke-width="1.7"/>
<path d="M1282 603 L1282.0 434.0 Q1282 427 1275.0 427.0 L530.0 427.0 Q523 427 523.0 420.0 L523 352" stroke="#ba0d16" stroke-width="1.6" stroke-dasharray="5 4"/>
<path d="M1489 294 L1489.0 203.0 Q1489 196 1482.0 196.0 L1013.0 196.0 Q1006 196 1006.0 189.0 L1006 154" stroke="#a0d8a0" stroke-width="1.7"/>
<path d="M1834 603 L1834.0 229.0 Q1834 222 1827.0 222.0 L1013.0 222.0 Q1006 222 1006.0 215.0 L1006 154" stroke="#db7500" stroke-width="1.6" stroke-dasharray="5 4"/>
<path d="M523 294 L523.0 177.0 Q523 170 530.0 170.0 L999.0 170.0 Q1006 170 1006.0 163.0 L1006 154" stroke="#db7500" stroke-width="1.7"/>
<g stroke="none"><rect x="153.3" y="365.0" width="49.4" height="20" rx="10" fill="#ffffff" stroke="#d8d6d4" stroke-width="1"/><text x="178.0" y="378.6" font-size="10.5" font-weight="600" fill="#242424" text-anchor="middle">reads</text></g>
<g stroke="none"><rect x="702.4" y="521.0" width="55.3" height="20" rx="10" fill="#ffffff" stroke="#d8d6d4" stroke-width="1"/><text x="730.0" y="534.6" font-size="10.5" font-weight="600" fill="#242424" text-anchor="middle">caches</text></g>
<g stroke="none"><rect x="975.4" y="469.0" width="61.2" height="20" rx="10" fill="#ffffff" stroke="#d8d6d4" stroke-width="1"/><text x="1006.0" y="482.6" font-size="10.5" font-weight="600" fill="#242424" text-anchor="middle">queries</text></g>
<g stroke="none"><rect x="1498.0" y="443.0" width="120.0" height="20" rx="10" fill="#ffffff" stroke="#d8d6d4" stroke-width="1"/><text x="1558.0" y="456.6" font-size="10.5" font-weight="600" fill="#242424" text-anchor="middle">streams events to</text></g>
<g stroke="none"><rect x="426.4" y="391.0" width="55.3" height="20" rx="10" fill="#ffffff" stroke="#d8d6d4" stroke-width="1"/><text x="454.0" y="404.6" font-size="10.5" font-weight="600" fill="#242424" text-anchor="middle">writes</text></g>
<g stroke="none"><rect x="1803.4" y="495.0" width="61.2" height="20" rx="10" fill="#ffffff" stroke="#d8d6d4" stroke-width="1"/><text x="1834.0" y="508.6" font-size="10.5" font-weight="600" fill="#242424" text-anchor="middle">used by</text></g>
<g stroke="none"><rect x="1794.6" y="365.0" width="78.8" height="20" rx="10" fill="#ffffff" stroke="#d8d6d4" stroke-width="1"/><text x="1834.0" y="378.6" font-size="10.5" font-weight="600" fill="#242424" text-anchor="middle">also feeds</text></g>
<g stroke="none"><rect x="1216.1" y="417.0" width="131.7" height="20" rx="10" fill="#ffffff" stroke="#d8d6d4" stroke-width="1"/><text x="1282.0" y="430.6" font-size="10.5" font-weight="600" fill="#242424" text-anchor="middle">limited propagation</text></g>
<g stroke="none"><rect x="1379.0" y="186.0" width="219.9" height="20" rx="10" fill="#ffffff" stroke="#d8d6d4" stroke-width="1"/><text x="1489.0" y="199.6" font-size="10.5" font-weight="600" fill="#242424" text-anchor="middle">secondary rollup with a long label</text></g>
<g stroke="none"><rect x="1759.3" y="212.0" width="149.4" height="20" rx="10" fill="#ffffff" stroke="#d8d6d4" stroke-width="1"/><text x="1834.0" y="225.6" font-size="10.5" font-weight="600" fill="#242424" text-anchor="middle">suppressed propagation</text></g>
<g stroke="none"><rect x="471.8" y="160.0" width="102.3" height="20" rx="10" fill="#ffffff" stroke="#d8d6d4" stroke-width="1"/><text x="523.0" y="173.6" font-size="10.5" font-weight="600" fill="#242424" text-anchor="middle">primary rollup</text></g>
</g>
<g filter="url(#cs)"><rect x="55" y="603" width="246" height="83" rx="10" fill="#f2f8f2" stroke="#a0d8a0" stroke-width="2"/></g><g transform="translate(61,610.16) scale(0.82)"><path d="M12 3.2l7.6 4.4v8.8L12 20.8l-7.6-4.4V7.6z" fill="none" stroke="#605e5c" stroke-width="1.6" stroke-linecap="round" stroke-linejoin="round"/><path d="M4.6 7.8l7.4 4.3 7.4-4.3M12 12.1v8.6" fill="none" stroke="#605e5c" stroke-width="1.6" stroke-linecap="round" stroke-linejoin="round"/></g><text x="89" y="624.25" font-size="12.5" font-weight="600" fill="#242424">Service A</text><rect x="225.6" y="611.00" width="67.4" height="18" rx="9" fill="#ffffff" stroke="#a0d8a0" stroke-width="1"/><circle cx="236.6" cy="620" r="6" fill="#4c9a2a"/><path d="M233.9 620 l1.9 1.9 l3.4 -3.9" fill="none" stroke="#ffffff" stroke-width="1.4" stroke-linecap="round" stroke-linejoin="round"/><text x="245.6" y="623.57" font-size="10.5" fill="#323130">Healthy</text><line x1="56" y1="640" x2="300" y2="640" stroke="#e6e4e2"/><circle cx="71" cy="655" r="6" fill="#4c9a2a"/><path d="M68.3 655 l1.9 1.9 l3.4 -3.9" fill="none" stroke="#ffffff" stroke-width="1.4" stroke-linecap="round" stroke-linejoin="round"/><g transform="translate(87,648) scale(0.875)">
    <rect x="1.5" y="8" width="2.6" height="6" rx="0.6" fill="#8661c5"/>
    <rect x="5.7" y="4.5" width="2.6" height="9.5" rx="0.6" fill="#0078D4"/>
    <rect x="9.9" y="6.5" width="2.6" height="7.5" rx="0.6" fill="#3fb0ac"/>
  </g><text x="107" y="658.5" font-size="10.5" fill="#242424">m1</text><text x="289" y="658.5" font-size="10.5" font-weight="400" fill="#605e5c" text-anchor="end">2</text><line x1="65" y1="664" x2="291" y2="664" stroke="#e6e4e2" stroke-opacity="0.7"/><circle cx="71" cy="673" r="6" fill="#4c9a2a"/><path d="M68.3 673 l1.9 1.9 l3.4 -3.9" fill="none" stroke="#ffffff" stroke-width="1.4" stroke-linecap="round" stroke-linejoin="round"/><g transform="translate(87,666) scale(0.875)">
    <rect x="1.5" y="8" width="2.6" height="6" rx="0.6" fill="#8661c5"/>
    <rect x="5.7" y="4.5" width="2.6" height="9.5" rx="0.6" fill="#0078D4"/>
    <rect x="9.9" y="6.5" width="2.6" height="7.5" rx="0.6" fill="#3fb0ac"/>
  </g><text x="107" y="676.5" font-size="10.5" fill="#242424">m2</text><text x="289" y="676.5" font-size="10.5" font-weight="400" fill="#605e5c" text-anchor="end">0</text>
<g filter="url(#cs)"><rect x="331" y="603" width="246" height="83" rx="10" fill="#fbf2e7" stroke="#db7500" stroke-width="2"/></g><g transform="translate(337,610.16) scale(0.82)"><path d="M12 3.2l7.6 4.4v8.8L12 20.8l-7.6-4.4V7.6z" fill="none" stroke="#605e5c" stroke-width="1.6" stroke-linecap="round" stroke-linejoin="round"/><path d="M4.6 7.8l7.4 4.3 7.4-4.3M12 12.1v8.6" fill="none" stroke="#605e5c" stroke-width="1.6" stroke-linecap="round" stroke-linejoin="round"/></g><text x="365" y="624.25" font-size="12.5" font-weight="600" fill="#242424">Service B</text><rect x="495.4" y="611.00" width="73.6" height="18" rx="9" fill="#ffffff" stroke="#db7500" stroke-width="1"/><circle cx="506.4" cy="620" r="6" fill="#c26a00"/><text x="515.4" y="623.57" font-size="10.5" fill="#323130">Degraded</text><line x1="332" y1="640" x2="576" y2="640" stroke="#e6e4e2"/><circle cx="347" cy="655" r="6" fill="#c26a00"/><g transform="translate(363,648) scale(0.875)">
    <rect x="1.5" y="8" width="2.6" height="6" rx="0.6" fill="#8661c5"/>
    <rect x="5.7" y="4.5" width="2.6" height="9.5" rx="0.6" fill="#0078D4"/>
    <rect x="9.9" y="6.5" width="2.6" height="7.5" rx="0.6" fill="#3fb0ac"/>
  </g><text x="383" y="658.5" font-size="10.5" fill="#242424">m1</text><text x="565" y="658.5" font-size="10.5" font-weight="600" fill="#c26a00" text-anchor="end">13</text><line x1="341" y1="664" x2="567" y2="664" stroke="#e6e4e2" stroke-opacity="0.7"/><circle cx="347" cy="673" r="6" fill="#4c9a2a"/><path d="M344.3 673 l1.9 1.9 l3.4 -3.9" fill="none" stroke="#ffffff" stroke-width="1.4" stroke-linecap="round" stroke-linejoin="round"/><g transform="translate(363,666) scale(0.875)">
    <rect x="1.5" y="8" width="2.6" height="6" rx="0.6" fill="#8661c5"/>
    <rect x="5.7" y="4.5" width="2.6" height="9.5" rx="0.6" fill="#0078D4"/>
    <rect x="9.9" y="6.5" width="2.6" height="7.5" rx="0.6" fill="#3fb0ac"/>
  </g><text x="383" y="676.5" font-size="10.5" fill="#242424">m2</text><text x="565" y="676.5" font-size="10.5" font-weight="400" fill="#605e5c" text-anchor="end">0</text>
<g filter="url(#cs)"><rect x="607" y="603" width="246" height="83" rx="10" fill="#f2f8f2" stroke="#a0d8a0" stroke-width="2"/></g><g transform="translate(613,610.16) scale(0.82)"><path d="M12 3.2l7.6 4.4v8.8L12 20.8l-7.6-4.4V7.6z" fill="none" stroke="#605e5c" stroke-width="1.6" stroke-linecap="round" stroke-linejoin="round"/><path d="M4.6 7.8l7.4 4.3 7.4-4.3M12 12.1v8.6" fill="none" stroke="#605e5c" stroke-width="1.6" stroke-linecap="round" stroke-linejoin="round"/></g><text x="641" y="624.25" font-size="12.5" font-weight="600" fill="#242424">Service C</text><rect x="777.6" y="611.00" width="67.4" height="18" rx="9" fill="#ffffff" stroke="#a0d8a0" stroke-width="1"/><circle cx="788.6" cy="620" r="6" fill="#4c9a2a"/><path d="M785.9 620 l1.9 1.9 l3.4 -3.9" fill="none" stroke="#ffffff" stroke-width="1.4" stroke-linecap="round" stroke-linejoin="round"/><text x="797.6" y="623.57" font-size="10.5" fill="#323130">Healthy</text><line x1="608" y1="640" x2="852" y2="640" stroke="#e6e4e2"/><circle cx="623" cy="655" r="6" fill="#4c9a2a"/><path d="M620.3 655 l1.9 1.9 l3.4 -3.9" fill="none" stroke="#ffffff" stroke-width="1.4" stroke-linecap="round" stroke-linejoin="round"/><g transform="translate(639,648) scale(0.875)">
    <rect x="1.5" y="8" width="2.6" height="6" rx="0.6" fill="#8661c5"/>
    <rect x="5.7" y="4.5" width="2.6" height="9.5" rx="0.6" fill="#0078D4"/>
    <rect x="9.9" y="6.5" width="2.6" height="7.5" rx="0.6" fill="#3fb0ac"/>
  </g><text x="659" y="658.5" font-size="10.5" fill="#242424">m1</text><text x="841" y="658.5" font-size="10.5" font-weight="400" fill="#605e5c" text-anchor="end">2</text><line x1="617" y1="664" x2="843" y2="664" stroke="#e6e4e2" stroke-opacity="0.7"/><circle cx="623" cy="673" r="6" fill="#4c9a2a"/><path d="M620.3 673 l1.9 1.9 l3.4 -3.9" fill="none" stroke="#ffffff" stroke-width="1.4" stroke-linecap="round" stroke-linejoin="round"/><g transform="translate(639,666) scale(0.875)">
    <rect x="1.5" y="8" width="2.6" height="6" rx="0.6" fill="#8661c5"/>
    <rect x="5.7" y="4.5" width="2.6" height="9.5" rx="0.6" fill="#0078D4"/>
    <rect x="9.9" y="6.5" width="2.6" height="7.5" rx="0.6" fill="#3fb0ac"/>
  </g><text x="659" y="676.5" font-size="10.5" fill="#242424">m2</text><text x="841" y="676.5" font-size="10.5" font-weight="400" fill="#605e5c" text-anchor="end">0</text>
<g filter="url(#cs)"><rect x="883" y="603" width="246" height="83" rx="10" fill="#f2f8f2" stroke="#a0d8a0" stroke-width="2"/></g><g transform="translate(889,610.16) scale(0.82)"><path d="M12 3.2l7.6 4.4v8.8L12 20.8l-7.6-4.4V7.6z" fill="none" stroke="#605e5c" stroke-width="1.6" stroke-linecap="round" stroke-linejoin="round"/><path d="M4.6 7.8l7.4 4.3 7.4-4.3M12 12.1v8.6" fill="none" stroke="#605e5c" stroke-width="1.6" stroke-linecap="round" stroke-linejoin="round"/></g><text x="917" y="624.25" font-size="12.5" font-weight="600" fill="#242424">Service D</text><rect x="1053.6" y="611.00" width="67.4" height="18" rx="9" fill="#ffffff" stroke="#a0d8a0" stroke-width="1"/><circle cx="1064.6" cy="620" r="6" fill="#4c9a2a"/><path d="M1061.8999999999999 620 l1.9 1.9 l3.4 -3.9" fill="none" stroke="#ffffff" stroke-width="1.4" stroke-linecap="round" stroke-linejoin="round"/><text x="1073.6" y="623.57" font-size="10.5" fill="#323130">Healthy</text><line x1="884" y1="640" x2="1128" y2="640" stroke="#e6e4e2"/><circle cx="899" cy="655" r="6" fill="#4c9a2a"/><path d="M896.3 655 l1.9 1.9 l3.4 -3.9" fill="none" stroke="#ffffff" stroke-width="1.4" stroke-linecap="round" stroke-linejoin="round"/><g transform="translate(915,648) scale(0.875)">
    <rect x="1.5" y="8" width="2.6" height="6" rx="0.6" fill="#8661c5"/>
    <rect x="5.7" y="4.5" width="2.6" height="9.5" rx="0.6" fill="#0078D4"/>
    <rect x="9.9" y="6.5" width="2.6" height="7.5" rx="0.6" fill="#3fb0ac"/>
  </g><text x="935" y="658.5" font-size="10.5" fill="#242424">m1</text><text x="1117" y="658.5" font-size="10.5" font-weight="400" fill="#605e5c" text-anchor="end">2</text><line x1="893" y1="664" x2="1119" y2="664" stroke="#e6e4e2" stroke-opacity="0.7"/><circle cx="899" cy="673" r="6" fill="#4c9a2a"/><path d="M896.3 673 l1.9 1.9 l3.4 -3.9" fill="none" stroke="#ffffff" stroke-width="1.4" stroke-linecap="round" stroke-linejoin="round"/><g transform="translate(915,666) scale(0.875)">
    <rect x="1.5" y="8" width="2.6" height="6" rx="0.6" fill="#8661c5"/>
    <rect x="5.7" y="4.5" width="2.6" height="9.5" rx="0.6" fill="#0078D4"/>
    <rect x="9.9" y="6.5" width="2.6" height="7.5" rx="0.6" fill="#3fb0ac"/>
  </g><text x="935" y="676.5" font-size="10.5" fill="#242424">m2</text><text x="1117" y="676.5" font-size="10.5" font-weight="400" fill="#605e5c" text-anchor="end">0</text>
<g filter="url(#cs)"><rect x="1159" y="603" width="246" height="83" rx="10" fill="#faeceb" stroke="#ba0d16" stroke-width="2"/></g><g transform="translate(1165,610.16) scale(0.82)"><path d="M12 3.2l7.6 4.4v8.8L12 20.8l-7.6-4.4V7.6z" fill="none" stroke="#605e5c" stroke-width="1.6" stroke-linecap="round" stroke-linejoin="round"/><path d="M4.6 7.8l7.4 4.3 7.4-4.3M12 12.1v8.6" fill="none" stroke="#605e5c" stroke-width="1.6" stroke-linecap="round" stroke-linejoin="round"/></g><text x="1193" y="624.25" font-size="12.5" font-weight="600" fill="#242424">Service E</text><rect x="1317.2" y="611.00" width="79.80000000000001" height="18" rx="9" fill="#ffffff" stroke="#ba0d16" stroke-width="1"/><circle cx="1328.2" cy="620" r="6" fill="#c50f18"/><text x="1337.2" y="623.57" font-size="10.5" fill="#323130">Unhealthy</text><line x1="1160" y1="640" x2="1404" y2="640" stroke="#e6e4e2"/><circle cx="1175" cy="655" r="6" fill="#c50f18"/><g transform="translate(1191,648) scale(0.875)">
    <rect x="1.5" y="8" width="2.6" height="6" rx="0.6" fill="#8661c5"/>
    <rect x="5.7" y="4.5" width="2.6" height="9.5" rx="0.6" fill="#0078D4"/>
    <rect x="9.9" y="6.5" width="2.6" height="7.5" rx="0.6" fill="#3fb0ac"/>
  </g><text x="1211" y="658.5" font-size="10.5" fill="#242424">m1</text><text x="1393" y="658.5" font-size="10.5" font-weight="600" fill="#c50f18" text-anchor="end">38</text><line x1="1169" y1="664" x2="1395" y2="664" stroke="#e6e4e2" stroke-opacity="0.7"/><circle cx="1175" cy="673" r="6" fill="#4c9a2a"/><path d="M1172.3 673 l1.9 1.9 l3.4 -3.9" fill="none" stroke="#ffffff" stroke-width="1.4" stroke-linecap="round" stroke-linejoin="round"/><g transform="translate(1191,666) scale(0.875)">
    <rect x="1.5" y="8" width="2.6" height="6" rx="0.6" fill="#8661c5"/>
    <rect x="5.7" y="4.5" width="2.6" height="9.5" rx="0.6" fill="#0078D4"/>
    <rect x="9.9" y="6.5" width="2.6" height="7.5" rx="0.6" fill="#3fb0ac"/>
  </g><text x="1211" y="676.5" font-size="10.5" fill="#242424">m2</text><text x="1393" y="676.5" font-size="10.5" font-weight="400" fill="#605e5c" text-anchor="end">0</text>
<g filter="url(#cs)"><rect x="1435" y="603" width="246" height="83" rx="10" fill="#f2f8f2" stroke="#a0d8a0" stroke-width="2"/></g><g transform="translate(1441,610.16) scale(0.82)"><path d="M12 3.2l7.6 4.4v8.8L12 20.8l-7.6-4.4V7.6z" fill="none" stroke="#605e5c" stroke-width="1.6" stroke-linecap="round" stroke-linejoin="round"/><path d="M4.6 7.8l7.4 4.3 7.4-4.3M12 12.1v8.6" fill="none" stroke="#605e5c" stroke-width="1.6" stroke-linecap="round" stroke-linejoin="round"/></g><text x="1469" y="624.25" font-size="12.5" font-weight="600" fill="#242424">Service F</text><rect x="1605.6" y="611.00" width="67.4" height="18" rx="9" fill="#ffffff" stroke="#a0d8a0" stroke-width="1"/><circle cx="1616.6" cy="620" r="6" fill="#4c9a2a"/><path d="M1613.8999999999999 620 l1.9 1.9 l3.4 -3.9" fill="none" stroke="#ffffff" stroke-width="1.4" stroke-linecap="round" stroke-linejoin="round"/><text x="1625.6" y="623.57" font-size="10.5" fill="#323130">Healthy</text><line x1="1436" y1="640" x2="1680" y2="640" stroke="#e6e4e2"/><circle cx="1451" cy="655" r="6" fill="#4c9a2a"/><path d="M1448.3 655 l1.9 1.9 l3.4 -3.9" fill="none" stroke="#ffffff" stroke-width="1.4" stroke-linecap="round" stroke-linejoin="round"/><g transform="translate(1467,648) scale(0.875)">
    <rect x="1.5" y="8" width="2.6" height="6" rx="0.6" fill="#8661c5"/>
    <rect x="5.7" y="4.5" width="2.6" height="9.5" rx="0.6" fill="#0078D4"/>
    <rect x="9.9" y="6.5" width="2.6" height="7.5" rx="0.6" fill="#3fb0ac"/>
  </g><text x="1487" y="658.5" font-size="10.5" fill="#242424">m1</text><text x="1669" y="658.5" font-size="10.5" font-weight="400" fill="#605e5c" text-anchor="end">2</text><line x1="1445" y1="664" x2="1671" y2="664" stroke="#e6e4e2" stroke-opacity="0.7"/><circle cx="1451" cy="673" r="6" fill="#4c9a2a"/><path d="M1448.3 673 l1.9 1.9 l3.4 -3.9" fill="none" stroke="#ffffff" stroke-width="1.4" stroke-linecap="round" stroke-linejoin="round"/><g transform="translate(1467,666) scale(0.875)">
    <rect x="1.5" y="8" width="2.6" height="6" rx="0.6" fill="#8661c5"/>
    <rect x="5.7" y="4.5" width="2.6" height="9.5" rx="0.6" fill="#0078D4"/>
    <rect x="9.9" y="6.5" width="2.6" height="7.5" rx="0.6" fill="#3fb0ac"/>
  </g><text x="1487" y="676.5" font-size="10.5" fill="#242424">m2</text><text x="1669" y="676.5" font-size="10.5" font-weight="400" fill="#605e5c" text-anchor="end">0</text>
<g filter="url(#cs)"><rect x="400" y="294" width="246" height="58" rx="10" fill="#fbf2e7" stroke="#db7500" stroke-width="2"/></g><g transform="translate(406,313.16) scale(0.82)"><circle cx="5.5" cy="6" r="2" fill="none" stroke="#605e5c" stroke-width="1.6" stroke-linecap="round" stroke-linejoin="round"/><circle cx="5.5" cy="18" r="2" fill="none" stroke="#605e5c" stroke-width="1.6" stroke-linecap="round" stroke-linejoin="round"/><circle cx="18.5" cy="12" r="2" fill="none" stroke="#605e5c" stroke-width="1.6" stroke-linecap="round" stroke-linejoin="round"/><path d="M7.5 6h3a4 4 0 0 1 4 4M7.5 18h3a4 4 0 0 0 4-4" fill="none" stroke="#605e5c" stroke-width="1.6" stroke-linecap="round" stroke-linejoin="round"/></g><text x="434" y="327.25" font-size="12.5" font-weight="600" fill="#242424">Middle flow</text><rect x="564.4" y="314.00" width="73.6" height="18" rx="9" fill="#ffffff" stroke="#db7500" stroke-width="1"/><circle cx="575.4" cy="323" r="6" fill="#c26a00"/><text x="584.4" y="326.57" font-size="10.5" fill="#323130">Degraded</text>
<g filter="url(#cs)"><rect x="1711" y="603" width="246" height="65" rx="10" fill="#fbf2e7" stroke="#db7500" stroke-width="2"/></g><g transform="translate(1717,610.16) scale(0.82)"><path d="M12 3.2l7.6 4.4v8.8L12 20.8l-7.6-4.4V7.6z" fill="none" stroke="#605e5c" stroke-width="1.6" stroke-linecap="round" stroke-linejoin="round"/><path d="M4.6 7.8l7.4 4.3 7.4-4.3M12 12.1v8.6" fill="none" stroke="#605e5c" stroke-width="1.6" stroke-linecap="round" stroke-linejoin="round"/></g><text x="1745" y="624.25" font-size="12.5" font-weight="600" fill="#242424">Shared dependency</text><rect x="1875.4" y="611.00" width="73.6" height="18" rx="9" fill="#ffffff" stroke="#db7500" stroke-width="1"/><circle cx="1886.4" cy="620" r="6" fill="#c26a00"/><text x="1895.4" y="623.57" font-size="10.5" fill="#323130">Degraded</text><line x1="1712" y1="640" x2="1956" y2="640" stroke="#e6e4e2"/><circle cx="1727" cy="655" r="6" fill="#c26a00"/><g transform="translate(1743,648) scale(0.875)">
    <rect x="1.5" y="8" width="2.6" height="6" rx="0.6" fill="#8661c5"/>
    <rect x="5.7" y="4.5" width="2.6" height="9.5" rx="0.6" fill="#0078D4"/>
    <rect x="9.9" y="6.5" width="2.6" height="7.5" rx="0.6" fill="#3fb0ac"/>
  </g><text x="1763" y="658.5" font-size="10.5" fill="#242424">m1</text><text x="1945" y="658.5" font-size="10.5" font-weight="600" fill="#c26a00" text-anchor="end">13</text>
<g filter="url(#cs)"><rect x="1366" y="294" width="246" height="65" rx="10" fill="#f2f8f2" stroke="#a0d8a0" stroke-width="2"/></g><g transform="translate(1372,301.16) scale(0.82)"><circle cx="5.5" cy="6" r="2" fill="none" stroke="#605e5c" stroke-width="1.6" stroke-linecap="round" stroke-linejoin="round"/><circle cx="5.5" cy="18" r="2" fill="none" stroke="#605e5c" stroke-width="1.6" stroke-linecap="round" stroke-linejoin="round"/><circle cx="18.5" cy="12" r="2" fill="none" stroke="#605e5c" stroke-width="1.6" stroke-linecap="round" stroke-linejoin="round"/><path d="M7.5 6h3a4 4 0 0 1 4 4M7.5 18h3a4 4 0 0 0 4-4" fill="none" stroke="#605e5c" stroke-width="1.6" stroke-linecap="round" stroke-linejoin="round"/></g><text x="1400" y="315.25" font-size="12.5" font-weight="600" fill="#242424">Other flow</text><rect x="1536.6" y="302.00" width="67.4" height="18" rx="9" fill="#ffffff" stroke="#a0d8a0" stroke-width="1"/><circle cx="1547.6" cy="311" r="6" fill="#4c9a2a"/><path d="M1544.8999999999999 311 l1.9 1.9 l3.4 -3.9" fill="none" stroke="#ffffff" stroke-width="1.4" stroke-linecap="round" stroke-linejoin="round"/><text x="1556.6" y="314.57" font-size="10.5" fill="#323130">Healthy</text><line x1="1367" y1="331" x2="1611" y2="331" stroke="#e6e4e2"/><circle cx="1382" cy="346" r="6" fill="#4c9a2a"/><path d="M1379.3 346 l1.9 1.9 l3.4 -3.9" fill="none" stroke="#ffffff" stroke-width="1.4" stroke-linecap="round" stroke-linejoin="round"/><g transform="translate(1398,339) scale(0.875)">
    <rect x="1.5" y="8" width="2.6" height="6" rx="0.6" fill="#8661c5"/>
    <rect x="5.7" y="4.5" width="2.6" height="9.5" rx="0.6" fill="#0078D4"/>
    <rect x="9.9" y="6.5" width="2.6" height="7.5" rx="0.6" fill="#3fb0ac"/>
  </g><text x="1418" y="349.5" font-size="10.5" fill="#242424">m1</text><text x="1600" y="349.5" font-size="10.5" font-weight="400" fill="#605e5c" text-anchor="end">2</text>
<g filter="url(#cs)"><rect x="883" y="96" width="246" height="58" rx="10" fill="#fbf2e7" stroke="#db7500" stroke-width="2"/></g><g transform="translate(889,115.16) scale(0.82)"><circle cx="12" cy="12" r="8.4" fill="none" stroke="#605e5c" stroke-width="1.6" stroke-linecap="round" stroke-linejoin="round"/><path d="M4.2 12h3l2-3.6 2.8 7.2 1.8-3.6h4" fill="none" stroke="#605e5c" stroke-width="1.6" stroke-linecap="round" stroke-linejoin="round"/></g><text x="917" y="129.25" font-size="12.5" font-weight="600" fill="#242424">Workload root</text><rect x="1047.4" y="116.00" width="73.6" height="18" rx="9" fill="#ffffff" stroke="#db7500" stroke-width="1"/><circle cx="1058.4" cy="125" r="6" fill="#c26a00"/><text x="1067.4" y="128.57" font-size="10.5" fill="#323130">Degraded</text>
</svg>