<svg xmlns="http://www.w3.org/2000/svg" width="1760" height="1180" viewBox="0 0 1760 1180" font-family="Segoe UI, -apple-system, BlinkMacSystemFont, Helvetica, Arial, sans-serif">
<defs>
    <filter id="tileShadow" x="-15%" y="-15%" width="130%" height="130%"><feDropShadow dx="0" dy="1" stdDeviation="1.1" flood-color="#000" flood-opacity="0.10"/></filter>
    <marker id="arrowhead" viewBox="0 0 10 10" refX="8.5" refY="5" markerWidth="7.5" markerHeight="7.5" orient="auto-start-reverse"><path d="M1 1 L9 5 L1 9" fill="none" stroke="#3b3a39" stroke-width="1.6" stroke-linecap="round" stroke-linejoin="round"/></marker>
  </defs>
<rect width="1760" height="1180" fill="#ffffff"/>
<text x="40" y="40" font-size="20" font-weight="700" fill="#242424">Highly available App Service web application</text>
<text x="40" y="62" font-size="13" fill="#605e5c">Zone-redundant App Service behind Application Gateway, with private endpoints to data, secrets, and storage.</text>
<rect x="360" y="100" width="1360" height="470" rx="4" fill="#eaf2fb" fill-opacity="0.35" stroke="#7fb2e8" stroke-width="2.5"/>
<g transform="translate(372,109) scale(0.3750)">
      <circle cx="12" cy="24" r="4.5" fill="#0078D4"/><circle cx="24" cy="24" r="4.5" fill="#0078D4"/><circle cx="36" cy="24" r="4.5" fill="#0078D4"/>
      <path d="M16.5 24h3M28.5 24h3" stroke="#0078D4" stroke-width="2"/></g>
<text x="396" y="122" font-size="13" font-weight="600" fill="#242424">Virtual network</text>
<rect x="706" y="338" width="990" height="212" rx="4" fill="#f4f8fd" stroke="#a9c9ee" stroke-width="1.6" stroke-dasharray="5 4"/>
<g transform="translate(718,347) scale(0.3750)">
      <circle cx="16" cy="24" r="4.5" fill="#0078D4"/><circle cx="32" cy="24" r="4.5" fill="#0078D4"/>
      <path d="M20.5 24h7" stroke="#0078D4" stroke-width="2"/></g>
<text x="742" y="360" font-size="13" font-weight="600" fill="#242424">Private endpoint subnet</text>
<g transform="translate(1677,331) scale(0.5417)">
      <path d="M24 6l15 5.5v10C39 32 32.5 39 24 42 15.5 39 9 32 9 21.5v-10z" fill="#0078D4"/>
      <path d="M17 24l5 5 9-11" fill="none" stroke="#fff" stroke-width="3" stroke-linecap="round" stroke-linejoin="round"/></g>
<rect x="706" y="150" width="990" height="168" rx="4" fill="#f4f8fd" stroke="#a9c9ee" stroke-width="1.6" stroke-dasharray="5 4"/>
<g transform="translate(718,159) scale(0.3750)">
      <circle cx="16" cy="24" r="4.5" fill="#0078D4"/><circle cx="32" cy="24" r="4.5" fill="#0078D4"/>
      <path d="M20.5 24h7" stroke="#0078D4" stroke-width="2"/></g>
<text x="742" y="172" font-size="13" font-weight="600" fill="#242424">App Service integration subnet</text>
<g transform="translate(1677,143) scale(0.5417)">
      <path d="M24 6l15 5.5v10C39 32 32.5 39 24 42 15.5 39 9 32 9 21.5v-10z" fill="#0078D4"/>
      <path d="M17 24l5 5 9-11" fill="none" stroke="#fff" stroke-width="3" stroke-linecap="round" stroke-linejoin="round"/></g>
<rect x="720" y="700" width="430" height="320" rx="3" fill="#f3f2f1" stroke="#bdbdbd" stroke-width="1.4"/>
<rect x="384" y="150" width="300" height="400" rx="4" fill="#f4f8fd" stroke="#a9c9ee" stroke-width="1.6" stroke-dasharray="5 4"/>
<g transform="translate(396,159) scale(0.3750)">
      <circle cx="16" cy="24" r="4.5" fill="#0078D4"/><circle cx="32" cy="24" r="4.5" fill="#0078D4"/>
      <path d="M20.5 24h7" stroke="#0078D4" stroke-width="2"/></g>
<text x="420" y="172" font-size="13" font-weight="600" fill="#242424">Application</text>
<text x="420" y="187" font-size="13" font-weight="600" fill="#242424">Gateway subnet</text>
<g transform="translate(665,143) scale(0.5417)">
      <path d="M24 6l15 5.5v10C39 32 32.5 39 24 42 15.5 39 9 32 9 21.5v-10z" fill="#0078D4"/>
      <path d="M17 24l5 5 9-11" fill="none" stroke="#fff" stroke-width="3" stroke-linecap="round" stroke-linejoin="round"/></g>
<rect x="410" y="940" width="250" height="190" rx="3" fill="#faf9f8" stroke="#d6d4d2" stroke-width="1.4"/>
<rect x="430" y="700" width="200" height="205" rx="3" fill="#faf9f8" stroke="#d6d4d2" stroke-width="1.4"/>
<rect x="748" y="820" width="118" height="178" rx="10" fill="#fffdf6" stroke="#f2c14e" stroke-width="1.8"/>
<text x="807" y="990" font-size="12" font-weight="700" fill="#242424" text-anchor="middle">Zone 1</text>
<rect x="876" y="820" width="118" height="178" rx="10" fill="#fffdf6" stroke="#f2c14e" stroke-width="1.8"/>
<text x="935" y="990" font-size="12" font-weight="700" fill="#242424" text-anchor="middle">Zone 2</text>
<rect x="1004" y="820" width="118" height="178" rx="10" fill="#fffdf6" stroke="#f2c14e" stroke-width="1.8"/>
<text x="1063" y="990" font-size="12" font-weight="700" fill="#242424" text-anchor="middle">Zone 3</text>
<path d="M144 250 L291 250 Q300 250 300 259 L300 326 Q300 335 309 335 L459 335" fill="none" stroke="#3b3a39" stroke-width="1.6" marker-end="url(#arrowhead)" stroke-linecap="round"/>
<path d="M198 470 L291 470 Q300 470 300 461 L300 378 Q300 369 309 369 L459 369" fill="none" stroke="#3b3a39" stroke-width="1.6" stroke-dasharray="2 4" marker-end="url(#arrowhead)" stroke-linecap="round"/>
<rect x="276.4" y="442" width="47.2" height="15" rx="3" fill="#ffffff" opacity="0.95"/>
<text x="300" y="454" font-size="11" fill="#605e5c" text-anchor="middle">Linked</text>
<path d="M609 335 L761 335 Q770 335 770 344 L770 437 Q770 446 779 446 L804 446" fill="none" stroke="#3b3a39" stroke-width="1.6" marker-end="url(#arrowhead)" stroke-linecap="round"/>
<path d="M852 483 L852 739 Q852 748 861 748 L892 748" fill="none" stroke="#3b3a39" stroke-width="1.6" marker-end="url(#arrowhead)" stroke-linecap="round"/>
<path d="M940 711 L940 682 Q940 672 950 672 L1130 672 Q1140 672 1140 662 L1140 246 Q1140 236 1150 236 L1502 236" fill="none" stroke="#3b3a39" stroke-width="1.6" marker-end="url(#arrowhead)" stroke-linecap="round"/>
<path d="M1560 278 L1560 331 Q1560 340 1551 340 L1197 340 Q1188 340 1188 349 L1188 409" fill="none" stroke="#3b3a39" stroke-width="1.6" marker-end="url(#arrowhead)" stroke-linecap="round"/>
<path d="M1560 278 L1560 331 Q1560 340 1551 340 L1387 340 Q1378 340 1378 349 L1378 409" fill="none" stroke="#3b3a39" stroke-width="1.6" marker-end="url(#arrowhead)" stroke-linecap="round"/>
<path d="M1560 278 L1560 336 Q1560 340 1564 340 L1564 340 Q1568 340 1568 344 L1568 409" fill="none" stroke="#3b3a39" stroke-width="1.6" marker-end="url(#arrowhead)" stroke-linecap="round"/>
<path d="M1188 483 L1188 753" fill="none" stroke="#3b3a39" stroke-width="1.6" marker-end="url(#arrowhead)" stroke-linecap="round"/>
<path d="M1378 483 L1378 753" fill="none" stroke="#3b3a39" stroke-width="1.6" marker-end="url(#arrowhead)" stroke-linecap="round"/>
<path d="M1568 483 L1568 753" fill="none" stroke="#3b3a39" stroke-width="1.6" marker-end="url(#arrowhead)" stroke-linecap="round"/>
<g transform="translate(75,223) scale(0.8750)">
      <circle cx="24" cy="17" r="8" fill="#50b0e8"/>
      <path d="M9 41c0-8.3 6.7-14 15-14s15 5.7 15 14z" fill="#0078D4"/></g>
<text x="96" y="302" font-size="12.5" fill="#242424" text-anchor="middle" font-weight="400">User</text>
<g transform="translate(129,443) scale(0.8750)">
      <rect x="10" y="12" width="26" height="26" rx="2" fill="#eef4fb" stroke="#8a8886" stroke-width="1.4"/>
      <rect x="13.5" y="8.5" width="26" height="26" rx="2" fill="#f7fafd" stroke="#8a8886" stroke-width="1.4"/>
      <circle cx="26.5" cy="21.5" r="9" fill="#0078D4"/>
      <path d="M17.5 21.5h18M26.5 12.5c4 3.5 4 14.5 0 18M26.5 12.5c-4 3.5-4 14.5 0 18" fill="none" stroke="#fff" stroke-width="1.3"/></g>
<text x="150" y="522" font-size="12.5" fill="#242424" text-anchor="middle" font-weight="400">Private</text>
<text x="150" y="536" font-size="12.5" fill="#242424" text-anchor="middle" font-weight="400">DNS zones</text>
<g transform="translate(385,567) scale(0.6250)">
      <circle cx="16" cy="24" r="4.5" fill="#0078D4"/><circle cx="32" cy="24" r="4.5" fill="#0078D4"/>
      <path d="M20.5 24h7" stroke="#0078D4" stroke-width="2"/></g>
<text x="400" y="640" font-size="12.5" fill="#242424" text-anchor="middle" font-weight="400">DDoS</text>
<text x="400" y="654" font-size="12.5" fill="#242424" text-anchor="middle" font-weight="400">Protection</text>
<rect x="459" y="276" width="150" height="118" rx="6" fill="#ffffff" stroke="#e1dfdd" stroke-width="1.2" filter="url(#tileShadow)"/>
<g transform="translate(506,305) scale(1.1667)">
      <path d="M8 24l7-7 7 7-7 7z" fill="#3fb0ac"/>
      <path d="M15 17l7-7 7 7-7 7zM15 31l7-7 7 7-7 7z" fill="#7cc576"/>
      <circle cx="31" cy="17" r="8" fill="#0078D4"/>
      <path d="M24 17h14M31 10c3.5 3 3.5 11 0 14M31 10c-3.5 3-3.5 11 0 14" fill="none" stroke="#fff" stroke-width="1.1"/>
      <g transform="translate(26,26)">
        <rect x="0" y="0" width="18" height="14" rx="1.5" fill="#c94f3d"/>
        <path d="M0 4.7h18M0 9.3h18M6 0v4.7M12 4.7v4.6M6 9.3V14M12 9.3V14M3 4.7V0M9 9.3V4.7M15 4.7V0" stroke="#fff" stroke-width="1"/>
      </g></g>
<text x="534" y="409" font-size="12.5" fill="#242424" text-anchor="middle" font-weight="400">Application Gateway</text>
<text x="534" y="423" font-size="12.5" fill="#242424" text-anchor="middle" font-weight="400">with Azure Web</text>
<text x="534" y="437" font-size="12.5" fill="#242424" text-anchor="middle" font-weight="400">Application Firewall</text>
<rect x="1502" y="194" width="116" height="84" rx="6" fill="#ffffff" stroke="#e1dfdd" stroke-width="1.2" filter="url(#tileShadow)"/>
<g transform="translate(1539,213) scale(0.8750)">
      <rect x="9" y="14" width="24" height="20" rx="2" fill="#0078D4"/>
      <path d="M13 34v5M18 34v5M23 34v5M28 34v5" stroke="#8a8886" stroke-width="1.6"/>
      <rect x="13" y="18" width="16" height="12" rx="1" fill="#eaf3fb"/>
      <circle cx="36" cy="16" r="4" fill="#50b0e8"/><path d="M33 16h6M36 13v6" stroke="#fff" stroke-width="1"/></g>
<text x="1560" y="293" font-size="12.5" fill="#242424" text-anchor="middle" font-weight="400">Virtual interface</text>
<rect x="804" y="409" width="96" height="74" rx="6" fill="#ffffff" stroke="#e1dfdd" stroke-width="1.2" filter="url(#tileShadow)"/>
<g transform="translate(831,423) scale(0.8750)">
      <path d="M18 15a7 7 0 0 0 0 18" fill="none" stroke="#0078D4" stroke-width="3.4" stroke-linecap="round"/>
      <path d="M30 15a7 7 0 0 1 0 18" fill="none" stroke="#0078D4" stroke-width="3.4" stroke-linecap="round"/>
      <path d="M20 24h8" stroke="#0078D4" stroke-width="3.4" stroke-linecap="round"/>
      <circle cx="24" cy="12" r="3.6" fill="#005a9e"/></g>
<text x="852" y="498" font-size="12.5" fill="#242424" text-anchor="middle" font-weight="400">App Service</text>
<text x="852" y="512" font-size="12.5" fill="#242424" text-anchor="middle" font-weight="400">private endpoint</text>
<rect x="1140" y="409" width="96" height="74" rx="6" fill="#ffffff" stroke="#e1dfdd" stroke-width="1.2" filter="url(#tileShadow)"/>
<g transform="translate(1167,423) scale(0.8750)">
      <path d="M18 15a7 7 0 0 0 0 18" fill="none" stroke="#0078D4" stroke-width="3.4" stroke-linecap="round"/>
      <path d="M30 15a7 7 0 0 1 0 18" fill="none" stroke="#0078D4" stroke-width="3.4" stroke-linecap="round"/>
      <path d="M20 24h8" stroke="#0078D4" stroke-width="3.4" stroke-linecap="round"/>
      <circle cx="24" cy="12" r="3.6" fill="#005a9e"/></g>
<text x="1188" y="498" font-size="12.5" fill="#242424" text-anchor="middle" font-weight="400">Database private</text>
<text x="1188" y="512" font-size="12.5" fill="#242424" text-anchor="middle" font-weight="400">endpoint</text>
<rect x="1330" y="409" width="96" height="74" rx="6" fill="#ffffff" stroke="#e1dfdd" stroke-width="1.2" filter="url(#tileShadow)"/>
<g transform="translate(1357,423) scale(0.8750)">
      <path d="M18 15a7 7 0 0 0 0 18" fill="none" stroke="#0078D4" stroke-width="3.4" stroke-linecap="round"/>
      <path d="M30 15a7 7 0 0 1 0 18" fill="none" stroke="#0078D4" stroke-width="3.4" stroke-linecap="round"/>
      <path d="M20 24h8" stroke="#0078D4" stroke-width="3.4" stroke-linecap="round"/>
      <circle cx="24" cy="12" r="3.6" fill="#005a9e"/></g>
<text x="1378" y="498" font-size="12.5" fill="#242424" text-anchor="middle" font-weight="400">Configuration</text>
<text x="1378" y="512" font-size="12.5" fill="#242424" text-anchor="middle" font-weight="400">private endpoint</text>
<rect x="1520" y="409" width="96" height="74" rx="6" fill="#ffffff" stroke="#e1dfdd" stroke-width="1.2" filter="url(#tileShadow)"/>
<g transform="translate(1547,423) scale(0.8750)">
      <path d="M18 15a7 7 0 0 0 0 18" fill="none" stroke="#0078D4" stroke-width="3.4" stroke-linecap="round"/>
      <path d="M30 15a7 7 0 0 1 0 18" fill="none" stroke="#0078D4" stroke-width="3.4" stroke-linecap="round"/>
      <path d="M20 24h8" stroke="#0078D4" stroke-width="3.4" stroke-linecap="round"/>
      <circle cx="24" cy="12" r="3.6" fill="#005a9e"/></g>
<text x="1568" y="498" font-size="12.5" fill="#242424" text-anchor="middle" font-weight="400">Storage private</text>
<text x="1568" y="512" font-size="12.5" fill="#242424" text-anchor="middle" font-weight="400">endpoint</text>
<g transform="translate(765,729) scale(0.7083)">
      <path d="M24 7l13 5v9c0 8-5.5 13.5-13 16-7.5-2.5-13-8-13-16v-9z" fill="#0078D4"/>
      <circle cx="21" cy="21" r="4.2" fill="none" stroke="#fff" stroke-width="2.4"/>
      <path d="M23.8 23.8l6 6M27 27l-2 2" stroke="#fff" stroke-width="2.4" stroke-linecap="round"/></g>
<text x="782" y="804" font-size="12.5" fill="#242424" text-anchor="middle" font-weight="400">Managed</text>
<text x="782" y="818" font-size="12.5" fill="#242424" text-anchor="middle" font-weight="400">identity</text>
<g transform="translate(920,722) scale(0.8333)">
      <circle cx="24" cy="24" r="15" fill="#50b0e8"/>
      <path d="M9 24h30M24 9c5 4 5 26 0 30M24 9c-5 4-5 26 0 30" fill="none" stroke="#fff" stroke-width="1.6"/>
      <circle cx="17" cy="18" r="2.4" fill="#fff"/><circle cx="31" cy="30" r="2.4" fill="#fff"/></g>
<text x="940" y="800" font-size="12.5" fill="#242424" text-anchor="middle" font-weight="400">App Service</text>
<g transform="translate(790,835) scale(0.7083)">
      <circle cx="24" cy="24" r="15" fill="#50b0e8"/>
      <path d="M9 24h30M24 9c5 4 5 26 0 30M24 9c-5 4-5 26 0 30" fill="none" stroke="#fff" stroke-width="1.6"/>
      <circle cx="17" cy="18" r="2.4" fill="#fff"/><circle cx="31" cy="30" r="2.4" fill="#fff"/></g>
<text x="807" y="910" font-size="12.5" fill="#242424" text-anchor="middle" font-weight="400">App Service</text>
<text x="807" y="924" font-size="12.5" fill="#242424" text-anchor="middle" font-weight="400">instance</text>
<g transform="translate(918,835) scale(0.7083)">
      <circle cx="24" cy="24" r="15" fill="#50b0e8"/>
      <path d="M9 24h30M24 9c5 4 5 26 0 30M24 9c-5 4-5 26 0 30" fill="none" stroke="#fff" stroke-width="1.6"/>
      <circle cx="17" cy="18" r="2.4" fill="#fff"/><circle cx="31" cy="30" r="2.4" fill="#fff"/></g>
<text x="935" y="910" font-size="12.5" fill="#242424" text-anchor="middle" font-weight="400">App Service</text>
<text x="935" y="924" font-size="12.5" fill="#242424" text-anchor="middle" font-weight="400">instance</text>
<g transform="translate(1046,835) scale(0.7083)">
      <circle cx="24" cy="24" r="15" fill="#50b0e8"/>
      <path d="M9 24h30M24 9c5 4 5 26 0 30M24 9c-5 4-5 26 0 30" fill="none" stroke="#fff" stroke-width="1.6"/>
      <circle cx="17" cy="18" r="2.4" fill="#fff"/><circle cx="31" cy="30" r="2.4" fill="#fff"/></g>
<text x="1063" y="910" font-size="12.5" fill="#242424" text-anchor="middle" font-weight="400">App Service</text>
<text x="1063" y="924" font-size="12.5" fill="#242424" text-anchor="middle" font-weight="400">instance</text>
<rect x="1140" y="753" width="96" height="74" rx="6" fill="#f3f2f1" stroke="#e1dfdd" stroke-width="1.2" filter="url(#tileShadow)"/>
<g transform="translate(1167,767) scale(0.8750)">
      <path d="M14 27a12 8 0 1 1 20 3h1a6 6 0 0 1 0 12H16a8 8 0 0 1-2-15z" fill="#50b0e8"/>
      <text x="24" y="35" font-family="Segoe UI, Arial" font-size="10" font-weight="700" fill="#fff" text-anchor="middle">SQL</text></g>
<text x="1188" y="842" font-size="12.5" fill="#242424" text-anchor="middle" font-weight="400">Azure SQL</text>
<text x="1188" y="856" font-size="12.5" fill="#242424" text-anchor="middle" font-weight="400">Database</text>
<text x="1188" y="874" font-size="12" fill="#605e5c" text-anchor="middle">Data</text>
<rect x="1330" y="753" width="96" height="74" rx="6" fill="#f3f2f1" stroke="#e1dfdd" stroke-width="1.2" filter="url(#tileShadow)"/>
<g transform="translate(1357,767) scale(0.8750)">
      <circle cx="24" cy="24" r="15" fill="#fff" stroke="#f2c811" stroke-width="2.4"/>
      <circle cx="20" cy="20" r="5.5" fill="none" stroke="#f2c811" stroke-width="3"/>
      <path d="M23.5 23.5l8 8M28 28l-2.5 2.5M31 31l-2.5 2.5" stroke="#f2c811" stroke-width="3" stroke-linecap="round"/></g>
<text x="1378" y="842" font-size="12.5" fill="#242424" text-anchor="middle" font-weight="400">Azure Key</text>
<text x="1378" y="856" font-size="12.5" fill="#242424" text-anchor="middle" font-weight="400">Vault</text>
<text x="1378" y="874" font-size="12" fill="#605e5c" text-anchor="middle">Certificates</text>
<rect x="1520" y="753" width="96" height="74" rx="6" fill="#f3f2f1" stroke="#e1dfdd" stroke-width="1.2" filter="url(#tileShadow)"/>
<g transform="translate(1547,767) scale(0.8750)">
      <rect x="9" y="12" width="30" height="24" rx="2" fill="#eef7f6" stroke="#3fb0ac" stroke-width="1.4"/>
      <rect x="12" y="15.5" width="24" height="4.4" rx="1" fill="#3fb0ac"/>
      <rect x="12" y="21.8" width="24" height="4.4" rx="1" fill="#9ad6d3"/>
      <rect x="12" y="28.1" width="24" height="4.4" rx="1" fill="#3fb0ac"/></g>
<text x="1568" y="842" font-size="12.5" fill="#242424" text-anchor="middle" font-weight="400">Azure</text>
<text x="1568" y="856" font-size="12.5" fill="#242424" text-anchor="middle" font-weight="400">Storage</text>
<text x="1568" y="874" font-size="12" fill="#605e5c" text-anchor="middle">Storage for</text>
<text x="1568" y="888" font-size="12" fill="#605e5c" text-anchor="middle">deployment</text>
<g transform="translate(510,736) scale(0.8333)">
      <path d="M24 8l14 28H10z" fill="#0078D4"/>
      <path d="M24 8l14 28H24z" fill="#005a9e"/>
      <path d="M24 19l7 14H17z" fill="#fff" opacity="0.9"/></g>
<text x="530" y="814" font-size="12.5" fill="#242424" text-anchor="middle" font-weight="400">Microsoft</text>
<text x="530" y="828" font-size="12.5" fill="#242424" text-anchor="middle" font-weight="400">Entra ID</text>
<g transform="translate(477,976) scale(0.7500)">
      <path d="M24 8a12 12 0 0 1 7 21.7c-1.4 1-2 1.8-2 3.3H19c0-1.5-.6-2.3-2-3.3A12 12 0 0 1 24 8z" fill="#8661c5"/>
      <rect x="19" y="34" width="10" height="4" rx="1" fill="#8a8886"/>
      <path d="M20 38h8" stroke="#8a8886" stroke-width="1.6"/>
      <path d="M21 20l3 4 4-7" stroke="#fff" stroke-width="1.8" fill="none" stroke-linecap="round" stroke-linejoin="round"/></g>
<text x="495" y="1052" font-size="12.5" fill="#242424" text-anchor="middle" font-weight="400">Application</text>
<text x="495" y="1066" font-size="12.5" fill="#242424" text-anchor="middle" font-weight="400">Insights</text>
<g transform="translate(572,976) scale(0.7500)">
      <circle cx="24" cy="24" r="15" fill="#eaf3fb" stroke="#0078D4" stroke-width="1.6"/>
      <path d="M24 24l8-6" stroke="#005a9e" stroke-width="2.2" stroke-linecap="round"/>
      <circle cx="24" cy="24" r="2.6" fill="#005a9e"/>
      <path d="M13 24a11 11 0 0 1 22 0" fill="none" stroke="#0078D4" stroke-width="2" stroke-dasharray="1.5 3"/></g>
<text x="590" y="1052" font-size="12.5" fill="#242424" text-anchor="middle" font-weight="400">Azure</text>
<text x="590" y="1066" font-size="12.5" fill="#242424" text-anchor="middle" font-weight="400">Monitor</text>
<g transform="translate(40,1134)">
    <rect x="0" y="0" width="11" height="11" fill="#f25022"/>
    <rect x="13" y="0" width="11" height="11" fill="#7fba00"/>
    <rect x="0" y="13" width="11" height="11" fill="#00a4ef"/>
    <rect x="13" y="13" width="11" height="11" fill="#ffb900"/>
    <text x="32" y="11" font-family="Segoe UI, -apple-system, BlinkMacSystemFont, Helvetica, Arial, sans-serif" font-size="15" font-weight="600" fill="#5e5e5e">Microsoft</text>
    <text x="32" y="26" font-family="Segoe UI, -apple-system, BlinkMacSystemFont, Helvetica, Arial, sans-serif" font-size="15" font-weight="400" fill="#5e5e5e">Azure</text>
  </g>
<text x="935" y="1052" font-size="13" font-weight="700" fill="#242424" text-anchor="middle">Region</text>
<text x="530" y="892" font-size="13" font-weight="700" fill="#242424" text-anchor="middle">Identity</text>
<text x="535" y="1118" font-size="13" font-weight="700" fill="#242424" text-anchor="middle">Monitoring</text>
</svg>