<svg xmlns="http://www.w3.org/2000/svg" width="1155" height="443" viewBox="0 0 1155 443" font-family="Segoe UI, -apple-system, BlinkMacSystemFont, Helvetica, Arial, sans-serif">
<defs><filter id="cs" x="-20%" y="-20%" width="140%" height="140%"><feDropShadow dx="0" dy="1" stdDeviation="1.3" flood-color="#000" flood-opacity="0.1"/></filter></defs>
<rect width="1155" height="443" fill="#ffffff"/>
<rect x="0" y="78.0" width="1155" height="141.0" fill="#ffffff"/>
<line x1="0" y1="78.0" x2="1155" y2="78.0" stroke="#e6e4e2"/>
<text x="1011.0" y="153.0" font-size="13" font-weight="700" fill="#323130">Workload root</text>
<rect x="0" y="219.0" width="1155" height="158.0" fill="#faf9f8"/>
<line x1="0" y1="219.0" x2="1155" y2="219.0" stroke="#e6e4e2"/>
<text x="1011.0" y="294.0" font-size="13" font-weight="700" fill="#323130">Application</text>
<text x="1011.0" y="311.0" font-size="13" font-weight="700" fill="#323130">components</text>
<line x1="0" y1="394.5" x2="1155" y2="394.5" stroke="#e6e4e2"/>
<text x="40" y="34" font-size="18" font-weight="700" fill="#242424">add-security-signals-to-your-platform-health-model</text>
<text x="40" y="52" font-size="12" fill="#605e5c">Signals live inside each entity; health rolls up to the workload root.</text>
<text x="40.0" y="433.0" font-size="11.5" font-weight="600" fill="#605e5c">Legend</text>
<circle cx="99.7" cy="429.0" r="4.5" fill="#4c9a2a"/>
<text x="109.7" y="433.0" font-size="11.5" fill="#323130">Healthy</text>
<circle cx="165.5" cy="429.0" r="4.5" fill="#c26a00"/>
<text x="175.5" y="433.0" font-size="11.5" fill="#323130">Degraded</text>
<circle cx="243.0" cy="429.0" r="4.5" fill="#c50f18"/>
<text x="253.0" y="433.0" font-size="11.5" fill="#323130">Unhealthy</text>
<circle cx="321.8" cy="429.0" r="4.5" fill="#8a8886"/>
<text x="331.8" y="433.0" font-size="11.5" fill="#323130">Unknown</text>
<g transform="translate(390.7,422.0) scale(0.875)"><rect x="1.5" y="8" width="2.6" height="6" rx="0.6" fill="#8661c5"/><rect x="5.7" y="4.5" width="2.6" height="9.5" rx="0.6" fill="#0078D4"/><rect x="9.9" y="6.5" width="2.6" height="7.5" rx="0.6" fill="#3fb0ac"/></g>
<text x="408.7" y="433.0" font-size="11.5" fill="#323130">Metric</text>
<g transform="translate(40.0,0)">
<g fill="none" stroke-linecap="butt" stroke-linejoin="round">
<path d="M415.0 237.0 L415.0 154.0" stroke="#a0d8a0" stroke-width="1.7"/>
<path d="M469.0 237.0 L469.0 154.0" stroke="#a0d8a0" stroke-width="1.7"/>
<path d="M808.0 237.0 L808.0 181.0 Q808.0 174.0 801.0 174.0 L546.6 174.0 Q539.6 174.0 539.6 167.0 L539.6 154.0" stroke="#a0d8a0" stroke-width="1.7"/>
<path d="M103.0 237.0 L103.0 202.5 Q103.0 195.5 110.0 195.5 L352.6 195.5 Q359.6 195.5 359.6 188.5 L359.6 154.0" stroke="#ba0d16" stroke-width="1.6" stroke-dasharray="5 4"/>
</g>
<g stroke="none"><rect x="43.3" y="185.5" width="119.4" height="20" rx="10" fill="#ffffff" stroke="#d8d6d4" stroke-width="1"/><text x="103.0" y="199.1" font-size="10.5" font-weight="600" fill="#242424" text-anchor="middle">limited propagation</text></g>
<g filter="url(#cs)"><rect x="0.0" y="237.0" width="206" height="126" rx="10" fill="#faeceb" stroke="#ba0d16" stroke-width="2"/></g><g transform="translate(6.0,246.66) scale(0.82)"><path d="M12 3.2l7.6 4.4v8.8L12 20.8l-7.6-4.4V7.6z" fill="none" stroke="#605e5c" stroke-width="1.6" stroke-linecap="round" stroke-linejoin="round"/><path d="M4.6 7.8l7.4 4.3 7.4-4.3M12 12.1v8.6" fill="none" stroke="#605e5c" stroke-width="1.6" stroke-linecap="round" stroke-linejoin="round"/></g><text x="34.0" y="254.5" font-size="12.5" font-weight="600" fill="#242424">Container</text><text x="34.0" y="266.5" font-size="9" fill="#605e5c">workload protection</text><rect x="121.8" y="247.50" width="76.2" height="18" rx="9" fill="#ffffff" stroke="#ba0d16" stroke-width="1"/><circle cx="132.8" cy="256.5" r="6" fill="#c50f18"/><text x="141.8" y="260.07" font-size="10.5" fill="#323130">Unhealthy</text><line x1="1.0" y1="279.0" x2="205.0" y2="279.0" stroke="#e6e4e2"/><circle cx="16.0" cy="294.0" r="6" fill="#c50f18"/><g transform="translate(32.0,287.0) scale(0.875)"><rect x="1.5" y="8" width="2.6" height="6" rx="0.6" fill="#8661c5"/><rect x="5.7" y="4.5" width="2.6" height="9.5" rx="0.6" fill="#0078D4"/><rect x="9.9" y="6.5" width="2.6" height="7.5" rx="0.6" fill="#3fb0ac"/></g><text x="52.0" y="297.5" font-size="10.5" fill="#242424">Defender for</text><text x="194.0" y="297.5" font-size="10.5" font-weight="600" fill="#c50f18" text-anchor="end">106</text><line x1="10.0" y1="303.0" x2="196.0" y2="303.0" stroke="#e6e4e2" stroke-opacity="0.7"/><circle cx="16.0" cy="312.0" r="6" fill="#4c9a2a"/><path d="M13.3 312.0 l1.9 1.9 l3.4 -3.9" fill="none" stroke="#ffffff" stroke-width="1.4" stroke-linecap="round" stroke-linejoin="round"/><g transform="translate(32.0,305.0) scale(0.875)"><rect x="1.5" y="8" width="2.6" height="6" rx="0.6" fill="#8661c5"/><rect x="5.7" y="4.5" width="2.6" height="9.5" rx="0.6" fill="#0078D4"/><rect x="9.9" y="6.5" width="2.6" height="7.5" rx="0.6" fill="#3fb0ac"/></g><text x="52.0" y="315.5" font-size="10.5" fill="#242424">Containers alerts</text><text x="194.0" y="315.5" font-size="10.5" font-weight="400" fill="#605e5c" text-anchor="end">0</text><line x1="10.0" y1="321.0" x2="196.0" y2="321.0" stroke="#e6e4e2" stroke-opacity="0.7"/><circle cx="16.0" cy="330.0" r="6" fill="#4c9a2a"/><path d="M13.3 330.0 l1.9 1.9 l3.4 -3.9" fill="none" stroke="#ffffff" stroke-width="1.4" stroke-linecap="round" stroke-linejoin="round"/><g transform="translate(32.0,323.0) scale(0.875)"><rect x="1.5" y="8" width="2.6" height="6" rx="0.6" fill="#8661c5"/><rect x="5.7" y="4.5" width="2.6" height="9.5" rx="0.6" fill="#0078D4"/><rect x="9.9" y="6.5" width="2.6" height="7.5" rx="0.6" fill="#3fb0ac"/></g><text x="52.0" y="333.5" font-size="10.5" fill="#242424">Image vulnerability</text><text x="194.0" y="333.5" font-size="10.5" font-weight="400" fill="#605e5c" text-anchor="end">1</text><line x1="10.0" y1="339.0" x2="196.0" y2="339.0" stroke="#e6e4e2" stroke-opacity="0.7"/><circle cx="16.0" cy="348.0" r="6" fill="#4c9a2a"/><path d="M13.3 348.0 l1.9 1.9 l3.4 -3.9" fill="none" stroke="#ffffff" stroke-width="1.4" stroke-linecap="round" stroke-linejoin="round"/><g transform="translate(32.0,341.0) scale(0.875)"><rect x="1.5" y="8" width="2.6" height="6" rx="0.6" fill="#8661c5"/><rect x="5.7" y="4.5" width="2.6" height="9.5" rx="0.6" fill="#0078D4"/><rect x="9.9" y="6.5" width="2.6" height="7.5" rx="0.6" fill="#3fb0ac"/></g><text x="52.0" y="351.5" font-size="10.5" fill="#242424">Runtime threat</text><text x="194.0" y="351.5" font-size="10.5" font-weight="400" fill="#605e5c" text-anchor="end">1</text>
<g filter="url(#cs)"><rect x="236.0" y="237.0" width="191" height="85" rx="10" fill="#f2f8f2" stroke="#a0d8a0" stroke-width="2"/></g><g transform="translate(242.0,244.16) scale(0.82)"><path d="M12 3l7 2.6v5.2c0 4.6-3 7.9-7 9.2-4-1.3-7-4.6-7-9.2V5.6z" fill="none" stroke="#605e5c" stroke-width="1.6" stroke-linecap="round" stroke-linejoin="round"/><path d="M8.8 12.2l2.2 2.2 4-4.6" fill="none" stroke="#605e5c" stroke-width="1.6" stroke-linecap="round" stroke-linejoin="round"/></g><text x="270.0" y="257.5" font-size="12.5" font-weight="600" fill="#242424">Shared WAF</text><rect x="354.7" y="245.00" width="64.3" height="18" rx="9" fill="#ffffff" stroke="#a0d8a0" stroke-width="1"/><circle cx="365.7" cy="254.0" r="6" fill="#4c9a2a"/><path d="M363.0 254.0 l1.9 1.9 l3.4 -3.9" fill="none" stroke="#ffffff" stroke-width="1.4" stroke-linecap="round" stroke-linejoin="round"/><text x="374.7" y="257.57" font-size="10.5" fill="#323130">Healthy</text><line x1="237.0" y1="274.0" x2="426.0" y2="274.0" stroke="#e6e4e2"/><circle cx="252.0" cy="289.0" r="6" fill="#4c9a2a"/><path d="M249.3 289.0 l1.9 1.9 l3.4 -3.9" fill="none" stroke="#ffffff" stroke-width="1.4" stroke-linecap="round" stroke-linejoin="round"/><g transform="translate(268.0,282.0) scale(0.875)"><rect x="1.5" y="8" width="2.6" height="6" rx="0.6" fill="#8661c5"/><rect x="5.7" y="4.5" width="2.6" height="9.5" rx="0.6" fill="#0078D4"/><rect x="9.9" y="6.5" width="2.6" height="7.5" rx="0.6" fill="#3fb0ac"/></g><text x="288.0" y="292.5" font-size="10.5" fill="#242424">WAF block-rate</text><text x="415.0" y="292.5" font-size="10.5" font-weight="400" fill="#605e5c" text-anchor="end">1</text><line x1="246.0" y1="298.0" x2="417.0" y2="298.0" stroke="#e6e4e2" stroke-opacity="0.7"/><circle cx="252.0" cy="307.0" r="6" fill="#4c9a2a"/><path d="M249.3 307.0 l1.9 1.9 l3.4 -3.9" fill="none" stroke="#ffffff" stroke-width="1.4" stroke-linecap="round" stroke-linejoin="round"/><g transform="translate(268.0,300.0) scale(0.875)"><rect x="1.5" y="8" width="2.6" height="6" rx="0.6" fill="#8661c5"/><rect x="5.7" y="4.5" width="2.6" height="9.5" rx="0.6" fill="#0078D4"/><rect x="9.9" y="6.5" width="2.6" height="7.5" rx="0.6" fill="#3fb0ac"/></g><text x="288.0" y="310.5" font-size="10.5" fill="#242424">+ ruleset signal</text><text x="415.0" y="310.5" font-size="10.5" font-weight="400" fill="#605e5c" text-anchor="end">0</text>
<g filter="url(#cs)"><rect x="457.0" y="237.0" width="206" height="121" rx="10" fill="#f2f8f2" stroke="#a0d8a0" stroke-width="2"/></g><g transform="translate(463.0,244.16) scale(0.82)"><path d="M12 3l7 2.6v5.2c0 4.6-3 7.9-7 9.2-4-1.3-7-4.6-7-9.2V5.6z" fill="none" stroke="#605e5c" stroke-width="1.6" stroke-linecap="round" stroke-linejoin="round"/><path d="M8.8 12.2l2.2 2.2 4-4.6" fill="none" stroke="#605e5c" stroke-width="1.6" stroke-linecap="round" stroke-linejoin="round"/></g><text x="491.0" y="257.5" font-size="12.5" font-weight="600" fill="#242424">Shared firewall</text><rect x="590.7" y="245.00" width="64.3" height="18" rx="9" fill="#ffffff" stroke="#a0d8a0" stroke-width="1"/><circle cx="601.7" cy="254.0" r="6" fill="#4c9a2a"/><path d="M599.0 254.0 l1.9 1.9 l3.4 -3.9" fill="none" stroke="#ffffff" stroke-width="1.4" stroke-linecap="round" stroke-linejoin="round"/><text x="610.7" y="257.57" font-size="10.5" fill="#323130">Healthy</text><line x1="458.0" y1="274.0" x2="662.0" y2="274.0" stroke="#e6e4e2"/><circle cx="473.0" cy="289.0" r="6" fill="#4c9a2a"/><path d="M470.3 289.0 l1.9 1.9 l3.4 -3.9" fill="none" stroke="#ffffff" stroke-width="1.4" stroke-linecap="round" stroke-linejoin="round"/><g transform="translate(489.0,282.0) scale(0.875)"><rect x="1.5" y="8" width="2.6" height="6" rx="0.6" fill="#8661c5"/><rect x="5.7" y="4.5" width="2.6" height="9.5" rx="0.6" fill="#0078D4"/><rect x="9.9" y="6.5" width="2.6" height="7.5" rx="0.6" fill="#3fb0ac"/></g><text x="509.0" y="292.5" font-size="10.5" fill="#242424">Azure Firewall</text><text x="651.0" y="292.5" font-size="10.5" font-weight="400" fill="#605e5c" text-anchor="end">0</text><line x1="467.0" y1="298.0" x2="653.0" y2="298.0" stroke="#e6e4e2" stroke-opacity="0.7"/><circle cx="473.0" cy="307.0" r="6" fill="#4c9a2a"/><path d="M470.3 307.0 l1.9 1.9 l3.4 -3.9" fill="none" stroke="#ffffff" stroke-width="1.4" stroke-linecap="round" stroke-linejoin="round"/><g transform="translate(489.0,300.0) scale(0.875)"><rect x="1.5" y="8" width="2.6" height="6" rx="0.6" fill="#8661c5"/><rect x="5.7" y="4.5" width="2.6" height="9.5" rx="0.6" fill="#0078D4"/><rect x="9.9" y="6.5" width="2.6" height="7.5" rx="0.6" fill="#3fb0ac"/></g><text x="509.0" y="310.5" font-size="10.5" fill="#242424">FirewallHealth</text><text x="651.0" y="310.5" font-size="10.5" font-weight="400" fill="#605e5c" text-anchor="end">2</text><line x1="467.0" y1="316.0" x2="653.0" y2="316.0" stroke="#e6e4e2" stroke-opacity="0.7"/><circle cx="473.0" cy="325.0" r="6" fill="#4c9a2a"/><path d="M470.3 325.0 l1.9 1.9 l3.4 -3.9" fill="none" stroke="#ffffff" stroke-width="1.4" stroke-linecap="round" stroke-linejoin="round"/><g transform="translate(489.0,318.0) scale(0.875)"><rect x="1.5" y="8" width="2.6" height="6" rx="0.6" fill="#8661c5"/><rect x="5.7" y="4.5" width="2.6" height="9.5" rx="0.6" fill="#0078D4"/><rect x="9.9" y="6.5" width="2.6" height="7.5" rx="0.6" fill="#3fb0ac"/></g><text x="509.0" y="328.5" font-size="10.5" fill="#242424">SNAT port</text><text x="651.0" y="328.5" font-size="10.5" font-weight="400" fill="#605e5c" text-anchor="end">0</text><line x1="467.0" y1="334.0" x2="653.0" y2="334.0" stroke="#e6e4e2" stroke-opacity="0.7"/><circle cx="473.0" cy="343.0" r="6" fill="#4c9a2a"/><path d="M470.3 343.0 l1.9 1.9 l3.4 -3.9" fill="none" stroke="#ffffff" stroke-width="1.4" stroke-linecap="round" stroke-linejoin="round"/><g transform="translate(489.0,336.0) scale(0.875)"><rect x="1.5" y="8" width="2.6" height="6" rx="0.6" fill="#8661c5"/><rect x="5.7" y="4.5" width="2.6" height="9.5" rx="0.6" fill="#0078D4"/><rect x="9.9" y="6.5" width="2.6" height="7.5" rx="0.6" fill="#3fb0ac"/></g><text x="509.0" y="346.5" font-size="10.5" fill="#242424">utilization signal</text><text x="651.0" y="346.5" font-size="10.5" font-weight="400" fill="#605e5c" text-anchor="end">0</text>
<g filter="url(#cs)"><rect x="693.0" y="237.0" width="230" height="58" rx="10" fill="#f2f8f2" stroke="#a0d8a0" stroke-width="2"/></g><g transform="translate(699.0,256.16) scale(0.82)"><path d="M12 3.2l7.6 4.4v8.8L12 20.8l-7.6-4.4V7.6z" fill="none" stroke="#605e5c" stroke-width="1.6" stroke-linecap="round" stroke-linejoin="round"/><path d="M4.6 7.8l7.4 4.3 7.4-4.3M12 12.1v8.6" fill="none" stroke="#605e5c" stroke-width="1.6" stroke-linecap="round" stroke-linejoin="round"/></g><text x="727.0" y="269.5" font-size="12.5" font-weight="600" fill="#242424">Kubernetes cluster</text><rect x="850.7" y="257.00" width="64.3" height="18" rx="9" fill="#ffffff" stroke="#a0d8a0" stroke-width="1"/><circle cx="861.7" cy="266.0" r="6" fill="#4c9a2a"/><path d="M859.0 266.0 l1.9 1.9 l3.4 -3.9" fill="none" stroke="#ffffff" stroke-width="1.4" stroke-linecap="round" stroke-linejoin="round"/><text x="870.7" y="269.57" font-size="10.5" fill="#323130">Healthy</text>
<g filter="url(#cs)"><rect x="347.6" y="96.0" width="206" height="58" rx="10" fill="#fbf2e7" stroke="#db7500" stroke-width="2"/></g><g transform="translate(353.6,115.16) scale(0.82)"><circle cx="12" cy="12" r="8.4" fill="none" stroke="#605e5c" stroke-width="1.6" stroke-linecap="round" stroke-linejoin="round"/><path d="M4.2 12h3l2-3.6 2.8 7.2 1.8-3.6h4" fill="none" stroke="#605e5c" stroke-width="1.6" stroke-linecap="round" stroke-linejoin="round"/></g><text x="381.6" y="123.0" font-size="12.5" font-weight="600" fill="#242424">Platform root</text><text x="381.6" y="135.0" font-size="9" fill="#605e5c">shared K8s offering</text><rect x="470.6" y="116.00" width="75.0" height="18" rx="9" fill="#ffffff" stroke="#db7500" stroke-width="1"/><circle cx="481.6" cy="125.0" r="6" fill="#c26a00"/><text x="490.6" y="128.57" font-size="10.5" fill="#323130">Degraded</text>
</g></svg>