<svg xmlns="http://www.w3.org/2000/svg" width="1591" height="566" viewBox="0 0 1591 566" font-family="Segoe UI, -apple-system, BlinkMacSystemFont, Helvetica, Arial, sans-serif">
<defs><filter id="cs" x="-20%" y="-20%" width="140%" height="140%"><feDropShadow dx="0" dy="1" stdDeviation="1.3" flood-color="#000" flood-opacity="0.1"/></filter></defs>
<rect width="1591" height="566" fill="#ffffff"/>
<rect x="0" y="78.0" width="1591" height="145.0" fill="#ffffff"/>
<line x1="0" y1="78.0" x2="1591" y2="78.0" stroke="#e6e4e2"/>
<text x="1424.7" y="155.0" font-size="13" font-weight="700" fill="#323130">Workload root</text>
<rect x="0" y="223.0" width="1591" height="187.0" fill="#faf9f8"/>
<line x1="0" y1="223.0" x2="1591" y2="223.0" stroke="#e6e4e2"/>
<text x="1424.7" y="321.0" font-size="13" font-weight="700" fill="#323130">Business &amp; user flows</text>
<rect x="0" y="410.0" width="1591" height="90.0" fill="#ffffff"/>
<line x1="0" y1="410.0" x2="1591" y2="410.0" stroke="#e6e4e2"/>
<text x="1424.7" y="451.0" font-size="13" font-weight="700" fill="#323130">Application</text>
<text x="1424.7" y="468.0" font-size="13" font-weight="700" fill="#323130">components</text>
<line x1="0" y1="517.5" x2="1591" y2="517.5" stroke="#e6e4e2"/>
<text x="40" y="34" font-size="18" font-weight="700" fill="#242424">aggregate-health-across-the-workload-portfolio</text>
<text x="40" y="52" font-size="12" fill="#605e5c">Signals live inside each entity; health rolls up to the workload root.</text>
<text x="40.0" y="556.0" font-size="11.5" font-weight="600" fill="#605e5c">Legend</text>
<circle cx="99.7" cy="552.0" r="4.5" fill="#4c9a2a"/>
<text x="109.7" y="556.0" font-size="11.5" fill="#323130">Healthy</text>
<circle cx="165.5" cy="552.0" r="4.5" fill="#c26a00"/>
<text x="175.5" y="556.0" font-size="11.5" fill="#323130">Degraded</text>
<circle cx="243.0" cy="552.0" r="4.5" fill="#c50f18"/>
<text x="253.0" y="556.0" font-size="11.5" fill="#323130">Unhealthy</text>
<circle cx="321.8" cy="552.0" r="4.5" fill="#8a8886"/>
<text x="331.8" y="556.0" font-size="11.5" fill="#323130">Unknown</text>
<g transform="translate(390.7,545.0) scale(0.875)"><rect x="1.5" y="8" width="2.6" height="6" rx="0.6" fill="#8661c5"/><rect x="5.7" y="4.5" width="2.6" height="9.5" rx="0.6" fill="#0078D4"/><rect x="9.9" y="6.5" width="2.6" height="7.5" rx="0.6" fill="#3fb0ac"/></g>
<text x="408.7" y="556.0" font-size="11.5" fill="#323130">Metric</text>
<g transform="translate(40.0,0)">
<g fill="none" stroke-linecap="butt" stroke-linejoin="round">
<path d="M229.2 241.0 L229.2 181.0 Q229.2 174.0 236.2 174.0 L633.7 174.0 Q640.7 174.0 640.7 167.0 L640.7 154.0" stroke="#a0d8a0" stroke-width="1.7"/>
<path d="M725.7 241.0 L725.7 154.0" stroke="#a0d8a0" stroke-width="1.7"/>
<path d="M1225.2 241.0 L1225.2 185.0 Q1225.2 178.0 1218.2 178.0 L821.7 178.0 Q814.7 178.0 814.7 171.0 L814.7 154.0" stroke="#a0d8a0" stroke-width="1.7"/>
<path d="M974.7 241.0 L974.7 181.0 Q974.7 174.0 967.7 174.0 L813.7 174.0 Q806.7 174.0 806.7 167.0 L806.7 154.0" stroke="#db7500" stroke-width="1.7"/>
<path d="M112.5 428.0 L112.5 366.5 Q112.5 359.5 119.5 359.5 L376.7 359.5 Q383.7 359.5 383.7 352.5 L383.7 299.0" stroke="#db7500" stroke-width="1.6" stroke-dasharray="5 4"/>
<path d="M362.0 428.0 L362.0 393.5 Q362.0 386.5 369.0 386.5 L382.7 386.5 Q389.7 386.5 389.7 379.5 L389.7 299.0" stroke="#a0d8a0" stroke-width="1.6" stroke-dasharray="5 4"/>
<path d="M606.0 428.0 L606.0 393.5 Q606.0 386.5 599.0 386.5 L575.7 386.5 Q568.7 386.5 568.7 379.5 L568.7 299.0" stroke="#a0d8a0" stroke-width="1.6" stroke-dasharray="5 4"/>
<path d="M854.0 428.0 L854.0 366.5 Q854.0 359.5 847.0 359.5 L569.7 359.5 Q562.7 359.5 562.7 352.5 L562.7 299.0" stroke="#a0d8a0" stroke-width="1.6" stroke-dasharray="5 4"/>
<path d="M476.2 241.0 L476.2 206.5 Q476.2 199.5 483.2 199.5 L627.7 199.5 Q634.7 199.5 634.7 192.5 L634.7 154.0" stroke="#8661c5" stroke-width="1.6" stroke-dasharray="5 4"/>
</g>
<g stroke="none"><rect x="74.2" y="349.5" width="76.5" height="20" rx="10" fill="#ffffff" stroke="#d8d6d4" stroke-width="1"/><text x="112.5" y="363.1" font-size="10.5" font-weight="600" fill="#242424" text-anchor="middle">discovered</text></g>
<g stroke="none"><rect x="323.7" y="376.5" width="76.5" height="20" rx="10" fill="#ffffff" stroke="#d8d6d4" stroke-width="1"/><text x="362.0" y="390.1" font-size="10.5" font-weight="600" fill="#242424" text-anchor="middle">discovered</text></g>
<g stroke="none"><rect x="567.7" y="376.5" width="76.5" height="20" rx="10" fill="#ffffff" stroke="#d8d6d4" stroke-width="1"/><text x="606.0" y="390.1" font-size="10.5" font-weight="600" fill="#242424" text-anchor="middle">discovered</text></g>
<g stroke="none"><rect x="815.7" y="349.5" width="76.5" height="20" rx="10" fill="#ffffff" stroke="#d8d6d4" stroke-width="1"/><text x="854.0" y="363.1" font-size="10.5" font-weight="600" fill="#242424" text-anchor="middle">discovered</text></g>
<g stroke="none"><rect x="416.6" y="189.5" width="119.4" height="20" rx="10" fill="#ffffff" stroke="#d8d6d4" stroke-width="1"/><text x="476.2" y="203.1" font-size="10.5" font-weight="600" fill="#242424" text-anchor="middle">limited propagation</text></g>
<g filter="url(#cs)"><rect x="0.0" y="428.0" width="225" height="58" rx="10" fill="#fbf2e7" stroke="#db7500" stroke-width="2"/></g><g transform="translate(6.0,447.16) scale(0.82)"><circle cx="5.5" cy="6" r="2" fill="none" stroke="#605e5c" stroke-width="1.6" stroke-linecap="round" stroke-linejoin="round"/><circle cx="5.5" cy="18" r="2" fill="none" stroke="#605e5c" stroke-width="1.6" stroke-linecap="round" stroke-linejoin="round"/><circle cx="18.5" cy="12" r="2" fill="none" stroke="#605e5c" stroke-width="1.6" stroke-linecap="round" stroke-linejoin="round"/><path d="M7.5 6h3a4 4 0 0 1 4 4M7.5 18h3a4 4 0 0 0 4-4" fill="none" stroke="#605e5c" stroke-width="1.6" stroke-linecap="round" stroke-linejoin="round"/></g><text x="34.0" y="455.0" font-size="12.5" font-weight="600" fill="#242424">E-commerce</text><text x="34.0" y="467.0" font-size="9" fill="#605e5c">health model · app team</text><rect x="142.0" y="448.00" width="75.0" height="18" rx="9" fill="#ffffff" stroke="#db7500" stroke-width="1"/><circle cx="153.0" cy="457.0" r="6" fill="#c26a00"/><text x="162.0" y="460.57" font-size="10.5" fill="#323130">Degraded</text>
<g filter="url(#cs)"><rect x="371.7" y="241.0" width="209" height="58" rx="10" fill="#f4f0fb" stroke="#8661c5" stroke-width="2"/></g><g transform="translate(377.7,260.16) scale(0.82)"><path d="M12 3.2l7.6 4.4v8.8L12 20.8l-7.6-4.4V7.6z" fill="none" stroke="#605e5c" stroke-width="1.6" stroke-linecap="round" stroke-linejoin="round"/><path d="M4.6 7.8l7.4 4.3 7.4-4.3M12 12.1v8.6" fill="none" stroke="#605e5c" stroke-width="1.6" stroke-linecap="round" stroke-linejoin="round"/></g><text x="405.7" y="268.0" font-size="12.5" font-weight="600" fill="#242424">Discovery rule</text><text x="405.7" y="280.0" font-size="9" fill="#605e5c">tag: health-model=app</text><rect x="505.5" y="261.00" width="67.3" height="18" rx="9" fill="#ffffff" stroke="#8661c5" stroke-width="1"/><circle cx="516.5" cy="270.0" r="6" fill="#8661c5"/><text x="525.5" y="273.57" font-size="10.5" fill="#323130">Standby</text>
<g filter="url(#cs)"><rect x="255.0" y="428.0" width="214" height="58" rx="10" fill="#f2f8f2" stroke="#a0d8a0" stroke-width="2"/></g><g transform="translate(261.0,447.16) scale(0.82)"><path d="M12 3.2l7.6 4.4v8.8L12 20.8l-7.6-4.4V7.6z" fill="none" stroke="#605e5c" stroke-width="1.6" stroke-linecap="round" stroke-linejoin="round"/><path d="M4.6 7.8l7.4 4.3 7.4-4.3M12 12.1v8.6" fill="none" stroke="#605e5c" stroke-width="1.6" stroke-linecap="round" stroke-linejoin="round"/></g><text x="289.0" y="455.0" font-size="12.5" font-weight="600" fill="#242424">Inventory</text><text x="289.0" y="467.0" font-size="9" fill="#605e5c">health model · app team</text><rect x="396.7" y="448.00" width="64.3" height="18" rx="9" fill="#ffffff" stroke="#a0d8a0" stroke-width="1"/><circle cx="407.7" cy="457.0" r="6" fill="#4c9a2a"/><path d="M405.0 457.0 l1.9 1.9 l3.4 -3.9" fill="none" stroke="#ffffff" stroke-width="1.4" stroke-linecap="round" stroke-linejoin="round"/><text x="416.7" y="460.57" font-size="10.5" fill="#323130">Healthy</text>
<g filter="url(#cs)"><rect x="499.0" y="428.0" width="214" height="58" rx="10" fill="#f2f8f2" stroke="#a0d8a0" stroke-width="2"/></g><g transform="translate(505.0,447.16) scale(0.82)"><path d="M12 3.2l7.6 4.4v8.8L12 20.8l-7.6-4.4V7.6z" fill="none" stroke="#605e5c" stroke-width="1.6" stroke-linecap="round" stroke-linejoin="round"/><path d="M4.6 7.8l7.4 4.3 7.4-4.3M12 12.1v8.6" fill="none" stroke="#605e5c" stroke-width="1.6" stroke-linecap="round" stroke-linejoin="round"/></g><text x="533.0" y="455.0" font-size="12.5" font-weight="600" fill="#242424">Loyalty</text><text x="533.0" y="467.0" font-size="9" fill="#605e5c">health model · app team</text><rect x="640.7" y="448.00" width="64.3" height="18" rx="9" fill="#ffffff" stroke="#a0d8a0" stroke-width="1"/><circle cx="651.7" cy="457.0" r="6" fill="#4c9a2a"/><path d="M649.0 457.0 l1.9 1.9 l3.4 -3.9" fill="none" stroke="#ffffff" stroke-width="1.4" stroke-linecap="round" stroke-linejoin="round"/><text x="660.7" y="460.57" font-size="10.5" fill="#323130">Healthy</text>
<g filter="url(#cs)"><rect x="743.0" y="428.0" width="222" height="58" rx="10" fill="#f2f8f2" stroke="#a0d8a0" stroke-width="2"/></g><g transform="translate(749.0,447.16) scale(0.82)"><rect x="4" y="4.5" width="16" height="6" rx="1.2" fill="none" stroke="#605e5c" stroke-width="1.6" stroke-linecap="round" stroke-linejoin="round"/><rect x="4" y="13.5" width="16" height="6" rx="1.2" fill="none" stroke="#605e5c" stroke-width="1.6" stroke-linecap="round" stroke-linejoin="round"/><path d="M7.2 7.5h.01M7.2 16.5h.01" fill="none" stroke="#605e5c" stroke-width="1.6" stroke-linecap="round" stroke-linejoin="round"/></g><text x="777.0" y="455.0" font-size="12.5" font-weight="600" fill="#242424">New app</text><text x="777.0" y="467.0" font-size="9" fill="#605e5c">health model · auto-added</text><rect x="892.7" y="448.00" width="64.3" height="18" rx="9" fill="#ffffff" stroke="#a0d8a0" stroke-width="1"/><circle cx="903.7" cy="457.0" r="6" fill="#4c9a2a"/><path d="M901.0 457.0 l1.9 1.9 l3.4 -3.9" fill="none" stroke="#ffffff" stroke-width="1.4" stroke-linecap="round" stroke-linejoin="round"/><text x="912.7" y="460.57" font-size="10.5" fill="#323130">Healthy</text>
<g filter="url(#cs)"><rect x="622.7" y="96.0" width="206" height="58" rx="10" fill="#fbf2e7" stroke="#db7500" stroke-width="2"/></g><g transform="translate(628.7,115.16) scale(0.82)"><circle cx="12" cy="12" r="8.4" fill="none" stroke="#605e5c" stroke-width="1.6" stroke-linecap="round" stroke-linejoin="round"/><path d="M4.2 12h3l2-3.6 2.8 7.2 1.8-3.6h4" fill="none" stroke="#605e5c" stroke-width="1.6" stroke-linecap="round" stroke-linejoin="round"/></g><text x="656.7" y="128.5" font-size="12.5" font-weight="600" fill="#242424">Platform root</text><rect x="745.7" y="116.00" width="75.0" height="18" rx="9" fill="#ffffff" stroke="#db7500" stroke-width="1"/><circle cx="756.7" cy="125.0" r="6" fill="#c26a00"/><text x="765.7" y="128.57" font-size="10.5" fill="#323130">Degraded</text>
<g filter="url(#cs)"><rect x="116.7" y="241.0" width="225" height="85" rx="10" fill="#f2f8f2" stroke="#a0d8a0" stroke-width="2"/></g><g transform="translate(122.7,248.16) scale(0.82)"><path d="M12 3.2l7.6 4.4v8.8L12 20.8l-7.6-4.4V7.6z" fill="none" stroke="#605e5c" stroke-width="1.6" stroke-linecap="round" stroke-linejoin="round"/><path d="M4.6 7.8l7.4 4.3 7.4-4.3M12 12.1v8.6" fill="none" stroke="#605e5c" stroke-width="1.6" stroke-linecap="round" stroke-linejoin="round"/></g><text x="150.7" y="261.5" font-size="12.5" font-weight="600" fill="#242424">AKS control plane</text><rect x="269.4" y="249.00" width="64.3" height="18" rx="9" fill="#ffffff" stroke="#a0d8a0" stroke-width="1"/><circle cx="280.4" cy="258.0" r="6" fill="#4c9a2a"/><path d="M277.7 258.0 l1.9 1.9 l3.4 -3.9" fill="none" stroke="#ffffff" stroke-width="1.4" stroke-linecap="round" stroke-linejoin="round"/><text x="289.4" y="261.57" font-size="10.5" fill="#323130">Healthy</text><line x1="117.7" y1="278.0" x2="340.7" y2="278.0" stroke="#e6e4e2"/><circle cx="132.7" cy="293.0" r="6" fill="#4c9a2a"/><path d="M130.0 293.0 l1.9 1.9 l3.4 -3.9" fill="none" stroke="#ffffff" stroke-width="1.4" stroke-linecap="round" stroke-linejoin="round"/><g transform="translate(148.7,286.0) scale(0.875)"><rect x="1.5" y="8" width="2.6" height="6" rx="0.6" fill="#8661c5"/><rect x="5.7" y="4.5" width="2.6" height="9.5" rx="0.6" fill="#0078D4"/><rect x="9.9" y="6.5" width="2.6" height="7.5" rx="0.6" fill="#3fb0ac"/></g><text x="168.7" y="296.5" font-size="10.5" fill="#242424">API server</text><text x="329.7" y="296.5" font-size="10.5" font-weight="400" fill="#605e5c" text-anchor="end">2</text><line x1="126.7" y1="302.0" x2="331.7" y2="302.0" stroke="#e6e4e2" stroke-opacity="0.7"/><circle cx="132.7" cy="311.0" r="6" fill="#4c9a2a"/><path d="M130.0 311.0 l1.9 1.9 l3.4 -3.9" fill="none" stroke="#ffffff" stroke-width="1.4" stroke-linecap="round" stroke-linejoin="round"/><g transform="translate(148.7,304.0) scale(0.875)"><rect x="1.5" y="8" width="2.6" height="6" rx="0.6" fill="#8661c5"/><rect x="5.7" y="4.5" width="2.6" height="9.5" rx="0.6" fill="#0078D4"/><rect x="9.9" y="6.5" width="2.6" height="7.5" rx="0.6" fill="#3fb0ac"/></g><text x="168.7" y="314.5" font-size="10.5" fill="#242424">availability signal</text><text x="329.7" y="314.5" font-size="10.5" font-weight="400" fill="#605e5c" text-anchor="end">1</text>
<g filter="url(#cs)"><rect x="610.7" y="241.0" width="225" height="85" rx="10" fill="#f2f8f2" stroke="#a0d8a0" stroke-width="2"/></g><g transform="translate(616.7,248.16) scale(0.82)"><path d="M12 3.2l7.6 4.4v8.8L12 20.8l-7.6-4.4V7.6z" fill="none" stroke="#605e5c" stroke-width="1.6" stroke-linecap="round" stroke-linejoin="round"/><path d="M4.6 7.8l7.4 4.3 7.4-4.3M12 12.1v8.6" fill="none" stroke="#605e5c" stroke-width="1.6" stroke-linecap="round" stroke-linejoin="round"/></g><text x="644.7" y="261.5" font-size="12.5" font-weight="600" fill="#242424">System node pool</text><rect x="763.4" y="249.00" width="64.3" height="18" rx="9" fill="#ffffff" stroke="#a0d8a0" stroke-width="1"/><circle cx="774.4" cy="258.0" r="6" fill="#4c9a2a"/><path d="M771.7 258.0 l1.9 1.9 l3.4 -3.9" fill="none" stroke="#ffffff" stroke-width="1.4" stroke-linecap="round" stroke-linejoin="round"/><text x="783.4" y="261.57" font-size="10.5" fill="#323130">Healthy</text><line x1="611.7" y1="278.0" x2="834.7" y2="278.0" stroke="#e6e4e2"/><circle cx="626.7" cy="293.0" r="6" fill="#4c9a2a"/><path d="M624.0 293.0 l1.9 1.9 l3.4 -3.9" fill="none" stroke="#ffffff" stroke-width="1.4" stroke-linecap="round" stroke-linejoin="round"/><g transform="translate(642.7,286.0) scale(0.875)"><rect x="1.5" y="8" width="2.6" height="6" rx="0.6" fill="#8661c5"/><rect x="5.7" y="4.5" width="2.6" height="9.5" rx="0.6" fill="#0078D4"/><rect x="9.9" y="6.5" width="2.6" height="7.5" rx="0.6" fill="#3fb0ac"/></g><text x="662.7" y="296.5" font-size="10.5" fill="#242424">System node pool</text><text x="823.7" y="296.5" font-size="10.5" font-weight="400" fill="#605e5c" text-anchor="end">0</text><line x1="620.7" y1="302.0" x2="825.7" y2="302.0" stroke="#e6e4e2" stroke-opacity="0.7"/><circle cx="626.7" cy="311.0" r="6" fill="#4c9a2a"/><path d="M624.0 311.0 l1.9 1.9 l3.4 -3.9" fill="none" stroke="#ffffff" stroke-width="1.4" stroke-linecap="round" stroke-linejoin="round"/><g transform="translate(642.7,304.0) scale(0.875)"><rect x="1.5" y="8" width="2.6" height="6" rx="0.6" fill="#8661c5"/><rect x="5.7" y="4.5" width="2.6" height="9.5" rx="0.6" fill="#0078D4"/><rect x="9.9" y="6.5" width="2.6" height="7.5" rx="0.6" fill="#3fb0ac"/></g><text x="662.7" y="314.5" font-size="10.5" fill="#242424">readiness signal</text><text x="823.7" y="314.5" font-size="10.5" font-weight="400" fill="#605e5c" text-anchor="end">0</text>
<g filter="url(#cs)"><rect x="865.7" y="241.0" width="218" height="85" rx="10" fill="#fbf2e7" stroke="#db7500" stroke-width="2"/></g><g transform="translate(871.7,248.16) scale(0.82)"><path d="M12 3.2l7.6 4.4v8.8L12 20.8l-7.6-4.4V7.6z" fill="none" stroke="#605e5c" stroke-width="1.6" stroke-linecap="round" stroke-linejoin="round"/><path d="M4.6 7.8l7.4 4.3 7.4-4.3M12 12.1v8.6" fill="none" stroke="#605e5c" stroke-width="1.6" stroke-linecap="round" stroke-linejoin="round"/></g><text x="899.7" y="261.5" font-size="12.5" font-weight="600" fill="#242424">User node pool</text><rect x="1000.7" y="249.00" width="75.0" height="18" rx="9" fill="#ffffff" stroke="#db7500" stroke-width="1"/><circle cx="1011.7" cy="258.0" r="6" fill="#c26a00"/><text x="1020.7" y="261.57" font-size="10.5" fill="#323130">Degraded</text><line x1="866.7" y1="278.0" x2="1082.7" y2="278.0" stroke="#e6e4e2"/><circle cx="881.7" cy="293.0" r="6" fill="#c26a00"/><g transform="translate(897.7,286.0) scale(0.875)"><rect x="1.5" y="8" width="2.6" height="6" rx="0.6" fill="#8661c5"/><rect x="5.7" y="4.5" width="2.6" height="9.5" rx="0.6" fill="#0078D4"/><rect x="9.9" y="6.5" width="2.6" height="7.5" rx="0.6" fill="#3fb0ac"/></g><text x="917.7" y="296.5" font-size="10.5" fill="#242424">User node pool</text><text x="1071.7" y="296.5" font-size="10.5" font-weight="600" fill="#c26a00" text-anchor="end">10</text><line x1="875.7" y1="302.0" x2="1073.7" y2="302.0" stroke="#e6e4e2" stroke-opacity="0.7"/><circle cx="881.7" cy="311.0" r="6" fill="#4c9a2a"/><path d="M879.0 311.0 l1.9 1.9 l3.4 -3.9" fill="none" stroke="#ffffff" stroke-width="1.4" stroke-linecap="round" stroke-linejoin="round"/><g transform="translate(897.7,304.0) scale(0.875)"><rect x="1.5" y="8" width="2.6" height="6" rx="0.6" fill="#8661c5"/><rect x="5.7" y="4.5" width="2.6" height="9.5" rx="0.6" fill="#0078D4"/><rect x="9.9" y="6.5" width="2.6" height="7.5" rx="0.6" fill="#3fb0ac"/></g><text x="917.7" y="314.5" font-size="10.5" fill="#242424">capacity signal</text><text x="1071.7" y="314.5" font-size="10.5" font-weight="400" fill="#605e5c" text-anchor="end">0</text>
<g filter="url(#cs)"><rect x="1113.7" y="241.0" width="223" height="85" rx="10" fill="#f2f8f2" stroke="#a0d8a0" stroke-width="2"/></g><g transform="translate(1119.7,248.16) scale(0.82)"><path d="M12 3.2l7.6 4.4v8.8L12 20.8l-7.6-4.4V7.6z" fill="none" stroke="#605e5c" stroke-width="1.6" stroke-linecap="round" stroke-linejoin="round"/><path d="M4.6 7.8l7.4 4.3 7.4-4.3M12 12.1v8.6" fill="none" stroke="#605e5c" stroke-width="1.6" stroke-linecap="round" stroke-linejoin="round"/></g><text x="1147.7" y="261.5" font-size="12.5" font-weight="600" fill="#242424">Ingress controller</text><rect x="1264.4" y="249.00" width="64.3" height="18" rx="9" fill="#ffffff" stroke="#a0d8a0" stroke-width="1"/><circle cx="1275.4" cy="258.0" r="6" fill="#4c9a2a"/><path d="M1272.7 258.0 l1.9 1.9 l3.4 -3.9" fill="none" stroke="#ffffff" stroke-width="1.4" stroke-linecap="round" stroke-linejoin="round"/><text x="1284.4" y="261.57" font-size="10.5" fill="#323130">Healthy</text><line x1="1114.7" y1="278.0" x2="1335.7" y2="278.0" stroke="#e6e4e2"/><circle cx="1129.7" cy="293.0" r="6" fill="#4c9a2a"/><path d="M1127.0 293.0 l1.9 1.9 l3.4 -3.9" fill="none" stroke="#ffffff" stroke-width="1.4" stroke-linecap="round" stroke-linejoin="round"/><g transform="translate(1145.7,286.0) scale(0.875)"><rect x="1.5" y="8" width="2.6" height="6" rx="0.6" fill="#8661c5"/><rect x="5.7" y="4.5" width="2.6" height="9.5" rx="0.6" fill="#0078D4"/><rect x="9.9" y="6.5" width="2.6" height="7.5" rx="0.6" fill="#3fb0ac"/></g><text x="1165.7" y="296.5" font-size="10.5" fill="#242424">Ingress 5xx</text><text x="1324.7" y="296.5" font-size="10.5" font-weight="400" fill="#605e5c" text-anchor="end">1</text><line x1="1123.7" y1="302.0" x2="1326.7" y2="302.0" stroke="#e6e4e2" stroke-opacity="0.7"/><circle cx="1129.7" cy="311.0" r="6" fill="#4c9a2a"/><path d="M1127.0 311.0 l1.9 1.9 l3.4 -3.9" fill="none" stroke="#ffffff" stroke-width="1.4" stroke-linecap="round" stroke-linejoin="round"/><g transform="translate(1145.7,304.0) scale(0.875)"><rect x="1.5" y="8" width="2.6" height="6" rx="0.6" fill="#8661c5"/><rect x="5.7" y="4.5" width="2.6" height="9.5" rx="0.6" fill="#0078D4"/><rect x="9.9" y="6.5" width="2.6" height="7.5" rx="0.6" fill="#3fb0ac"/></g><text x="1165.7" y="314.5" font-size="10.5" fill="#242424">+ cert signal</text><text x="1324.7" y="314.5" font-size="10.5" font-weight="400" fill="#605e5c" text-anchor="end">2</text>
</g></svg>