<svg xmlns="http://www.w3.org/2000/svg" width="621" height="470" viewBox="0 0 621 470" font-family="Segoe UI, -apple-system, BlinkMacSystemFont, Helvetica, Arial, sans-serif">
<defs><filter id="cs" x="-20%" y="-20%" width="140%" height="140%"><feDropShadow dx="0" dy="1" stdDeviation="1.3" flood-color="#000" flood-opacity="0.1"/></filter></defs>
<rect width="621" height="470" fill="#ffffff"/>
<rect x="0" y="78.0" width="621" height="118.0" fill="#ffffff"/>
<line x1="0" y1="78.0" x2="621" y2="78.0" stroke="#e6e4e2"/>
<text x="455.0" y="141.5" font-size="13" font-weight="700" fill="#323130">Workload root</text>
<rect x="0" y="196.0" width="621" height="118.0" fill="#faf9f8"/>
<line x1="0" y1="196.0" x2="621" y2="196.0" stroke="#e6e4e2"/>
<text x="455.0" y="259.5" font-size="13" font-weight="700" fill="#323130">Business &amp; user flows</text>
<rect x="0" y="314.0" width="621" height="90.0" fill="#ffffff"/>
<line x1="0" y1="314.0" x2="621" y2="314.0" stroke="#e6e4e2"/>
<text x="455.0" y="355.0" font-size="13" font-weight="700" fill="#323130">Application</text>
<text x="455.0" y="372.0" font-size="13" font-weight="700" fill="#323130">components</text>
<line x1="0" y1="421.5" x2="621" y2="421.5" stroke="#e6e4e2"/>
<text x="40" y="34" font-size="18" font-weight="700" fill="#242424">Cycle and self-loop</text>
<text x="40" y="52" font-size="12" fill="#605e5c">Signals live inside each entity; health rolls up to the workload root.</text>
<text x="40.0" y="460.0" font-size="11.5" font-weight="600" fill="#605e5c">Legend</text>
<circle cx="99.7" cy="456.0" r="4.5" fill="#4c9a2a"/>
<text x="109.7" y="460.0" font-size="11.5" fill="#323130">Healthy</text>
<circle cx="165.5" cy="456.0" r="4.5" fill="#c26a00"/>
<text x="175.5" y="460.0" font-size="11.5" fill="#323130">Degraded</text>
<circle cx="243.0" cy="456.0" r="4.5" fill="#c50f18"/>
<text x="253.0" y="460.0" font-size="11.5" fill="#323130">Unhealthy</text>
<circle cx="321.8" cy="456.0" r="4.5" fill="#8a8886"/>
<text x="331.8" y="460.0" font-size="11.5" fill="#323130">Unknown</text>
<g transform="translate(390.7,449.0) scale(0.875)"><rect x="1.5" y="8" width="2.6" height="6" rx="0.6" fill="#8661c5"/><rect x="5.7" y="4.5" width="2.6" height="9.5" rx="0.6" fill="#0078D4"/><rect x="9.9" y="6.5" width="2.6" height="7.5" rx="0.6" fill="#3fb0ac"/></g>
<text x="408.7" y="460.0" font-size="11.5" fill="#323130">Metric</text>
<g transform="translate(40.0,0)">
<g fill="none" stroke-linecap="butt" stroke-linejoin="round">
<path d="M282.0 332.0 L282.0 272.0" stroke="#a0d8a0" stroke-width="1.7"/>
<path d="M276.0 332.0 L276.0 304.0 Q276.0 298.0 282.0 298.0 L282.0 298.0 Q288.0 298.0 288.0 292.0 L288.0 272.0" stroke="#db7500" stroke-width="1.7"/>
<path d="M210.0 332.0 L210.0 305.0 Q210.0 298.0 203.0 298.0 L194.0 298.0 Q187.0 298.0 187.0 291.0 L187.0 187.0 Q187.0 180.0 194.0 180.0 L203.0 180.0 Q210.0 180.0 210.0 173.0 L210.0 154.0" stroke="#a0d8a0" stroke-width="1.7"/>
</g>
<g filter="url(#cs)"><rect x="198.0" y="332.0" width="168" height="58" rx="10" fill="#f2f8f2" stroke="#a0d8a0" stroke-width="2"/></g><g transform="translate(204.0,351.16) scale(0.82)"><path d="M12 3.2l7.6 4.4v8.8L12 20.8l-7.6-4.4V7.6z" fill="none" stroke="#605e5c" stroke-width="1.6" stroke-linecap="round" stroke-linejoin="round"/><path d="M4.6 7.8l7.4 4.3 7.4-4.3M12 12.1v8.6" fill="none" stroke="#605e5c" stroke-width="1.6" stroke-linecap="round" stroke-linejoin="round"/></g><text x="232.0" y="364.5" font-size="12.5" font-weight="600" fill="#242424">Node A</text><rect x="293.7" y="352.00" width="64.3" height="18" rx="9" fill="#ffffff" stroke="#a0d8a0" stroke-width="1"/><circle cx="304.7" cy="361.0" r="6" fill="#4c9a2a"/><path d="M302.0 361.0 l1.9 1.9 l3.4 -3.9" fill="none" stroke="#ffffff" stroke-width="1.4" stroke-linecap="round" stroke-linejoin="round"/><text x="313.7" y="364.57" font-size="10.5" fill="#323130">Healthy</text>
<g filter="url(#cs)"><rect x="197.0" y="214.0" width="170" height="58" rx="10" fill="#fbf2e7" stroke="#db7500" stroke-width="2"/></g><g transform="translate(203.0,233.16) scale(0.82)"><path d="M12 3.2l7.6 4.4v8.8L12 20.8l-7.6-4.4V7.6z" fill="none" stroke="#605e5c" stroke-width="1.6" stroke-linecap="round" stroke-linejoin="round"/><path d="M4.6 7.8l7.4 4.3 7.4-4.3M12 12.1v8.6" fill="none" stroke="#605e5c" stroke-width="1.6" stroke-linecap="round" stroke-linejoin="round"/></g><text x="231.0" y="246.5" font-size="12.5" font-weight="600" fill="#242424">Node B</text><rect x="284.0" y="234.00" width="75.0" height="18" rx="9" fill="#ffffff" stroke="#db7500" stroke-width="1"/><circle cx="295.0" cy="243.0" r="6" fill="#c26a00"/><text x="304.0" y="246.57" font-size="10.5" fill="#323130">Degraded</text>
<g filter="url(#cs)"><rect x="0.0" y="96.0" width="168" height="58" rx="10" fill="#f2f8f2" stroke="#a0d8a0" stroke-width="2"/></g><g transform="translate(6.0,115.16) scale(0.82)"><path d="M12 3.2l7.6 4.4v8.8L12 20.8l-7.6-4.4V7.6z" fill="none" stroke="#605e5c" stroke-width="1.6" stroke-linecap="round" stroke-linejoin="round"/><path d="M4.6 7.8l7.4 4.3 7.4-4.3M12 12.1v8.6" fill="none" stroke="#605e5c" stroke-width="1.6" stroke-linecap="round" stroke-linejoin="round"/></g><text x="34.0" y="128.5" font-size="12.5" font-weight="600" fill="#242424">Node C</text><rect x="95.7" y="116.00" width="64.3" height="18" rx="9" fill="#ffffff" stroke="#a0d8a0" stroke-width="1"/><circle cx="106.7" cy="125.0" r="6" fill="#4c9a2a"/><path d="M104.0 125.0 l1.9 1.9 l3.4 -3.9" fill="none" stroke="#ffffff" stroke-width="1.4" stroke-linecap="round" stroke-linejoin="round"/><text x="115.7" y="128.57" font-size="10.5" fill="#323130">Healthy</text>
<g filter="url(#cs)"><rect x="198.0" y="96.0" width="168" height="58" rx="10" fill="#f2f8f2" stroke="#a0d8a0" stroke-width="2"/></g><g transform="translate(204.0,115.16) scale(0.82)"><circle cx="12" cy="12" r="8.4" fill="none" stroke="#605e5c" stroke-width="1.6" stroke-linecap="round" stroke-linejoin="round"/><path d="M4.2 12h3l2-3.6 2.8 7.2 1.8-3.6h4" fill="none" stroke="#605e5c" stroke-width="1.6" stroke-linecap="round" stroke-linejoin="round"/></g><text x="232.0" y="128.5" font-size="12.5" font-weight="600" fill="#242424">Root</text><rect x="293.7" y="116.00" width="64.3" height="18" rx="9" fill="#ffffff" stroke="#a0d8a0" stroke-width="1"/><circle cx="304.7" cy="125.0" r="6" fill="#4c9a2a"/><path d="M302.0 125.0 l1.9 1.9 l3.4 -3.9" fill="none" stroke="#ffffff" stroke-width="1.4" stroke-linecap="round" stroke-linejoin="round"/><text x="313.7" y="128.57" font-size="10.5" fill="#323130">Healthy</text>
</g></svg>