<svg xmlns="http://www.w3.org/2000/svg" width="884" height="757" viewBox="0 0 884 757" font-family="Segoe UI, -apple-system, BlinkMacSystemFont, Helvetica, Arial, sans-serif">
<defs><filter id="cs" x="-20%" y="-20%" width="140%" height="140%"><feDropShadow dx="0" dy="1" stdDeviation="1.3" flood-color="#000" flood-opacity="0.1"/></filter></defs>
<rect width="884" height="757" fill="#ffffff"/>
<rect x="0" y="78.0" width="884" height="130.0" fill="#ffffff"/>
<line x1="0" y1="78.0" x2="884" y2="78.0" stroke="#e6e4e2"/>
<text x="717.9" y="147.5" font-size="13" font-weight="700" fill="#323130">Workload root</text>
<rect x="0" y="208.0" width="884" height="130.0" fill="#faf9f8"/>
<line x1="0" y1="208.0" x2="884" y2="208.0" stroke="#e6e4e2"/>
<text x="717.9" y="277.5" font-size="13" font-weight="700" fill="#323130">Business &amp; user flows</text>
<rect x="0" y="338.0" width="884" height="157.0" fill="#ffffff"/>
<line x1="0" y1="338.0" x2="884" y2="338.0" stroke="#e6e4e2"/>
<text x="717.9" y="412.5" font-size="13" font-weight="700" fill="#323130">Application</text>
<text x="717.9" y="429.5" font-size="13" font-weight="700" fill="#323130">components</text>
<rect x="0" y="495.0" width="884" height="145.0" fill="#faf9f8"/>
<line x1="0" y1="495.0" x2="884" y2="495.0" stroke="#e6e4e2"/>
<text x="717.9" y="572.0" font-size="13" font-weight="700" fill="#323130">Dependencies</text>
<rect x="0" y="640.0" width="884" height="99.0" fill="#ffffff"/>
<line x1="0" y1="640.0" x2="884" y2="640.0" stroke="#e6e4e2"/>
<text x="717.9" y="694.0" font-size="13" font-weight="700" fill="#323130">Subsystems</text>
<line x1="0" y1="756.5" x2="884" y2="756.5" stroke="#e6e4e2"/>
<text x="40" y="34" font-size="18" font-weight="700" fill="#242424">Deep model with lane-skipping edges</text>
<text x="40" y="52" font-size="12" fill="#605e5c">Signals live inside each entity; health rolls up to the workload root.</text>
<text x="480.5" y="48" font-size="11.5" font-weight="600" fill="#605e5c" text-anchor="end">Legend</text>
<circle cx="498.5" cy="44" r="4.5" fill="#4c9a2a"/>
<text x="508.5" y="48" font-size="11.5" fill="#323130">Healthy</text>
<circle cx="564.3" cy="44" r="4.5" fill="#c26a00"/>
<text x="574.3" y="48" font-size="11.5" fill="#323130">Degraded</text>
<circle cx="641.8" cy="44" r="4.5" fill="#c50f18"/>
<text x="651.8" y="48" font-size="11.5" fill="#323130">Unhealthy</text>
<circle cx="720.6" cy="44" r="4.5" fill="#8a8886"/>
<text x="730.6" y="48" font-size="11.5" fill="#323130">Unknown</text>
<g transform="translate(789.5,37.0) scale(0.875)"><rect x="1.5" y="8" width="2.6" height="6" rx="0.6" fill="#8661c5"/><rect x="5.7" y="4.5" width="2.6" height="9.5" rx="0.6" fill="#0078D4"/><rect x="9.9" y="6.5" width="2.6" height="7.5" rx="0.6" fill="#3fb0ac"/></g>
<text x="807.5" y="48" font-size="11.5" fill="#323130">Metric</text>
<g transform="translate(40.0,0)">
<g fill="none" stroke-linecap="butt" stroke-linejoin="round">
<path d="M167.0 658.0 L167.0 571.0" stroke="#a0d8a0" stroke-width="1.7"/>
<path d="M226.5 658.0 L226.5 571.0" stroke="#db7500" stroke-width="1.7"/>
<path d="M471.7 658.0 L471.7 571.0" stroke="#a0d8a0" stroke-width="1.7"/>
<path d="M286.5 513.0 L286.5 414.0" stroke="#a0d8a0" stroke-width="1.7"/>
<path d="M506.0 513.0 L506.0 414.0" stroke="#db7500" stroke-width="1.7"/>
<path d="M243.8 356.0 L243.8 284.0" stroke="#a0d8a0" stroke-width="1.7"/>
<path d="M461.3 356.0 L461.3 284.0" stroke="#db7500" stroke-width="1.7"/>
<path d="M322.8 226.0 L322.8 154.0" stroke="#a0d8a0" stroke-width="1.7"/>
<path d="M402.0 226.0 L402.0 154.0" stroke="#db7500" stroke-width="1.7"/>
<path d="M126.0 658.0 L126.0 623.5 Q126.0 616.5 126.0 609.5 L126.0 447.0 Q126.0 440.0 133.0 440.0 L177.5 440.0 Q184.5 440.0 184.5 433.0 L184.5 317.0 Q184.5 310.0 184.5 303.0 L184.5 284.0" stroke="#a0d8a0" stroke-width="1.7"/>
<path d="M328.1 658.0 L328.1 623.5 Q328.1 616.5 328.1 609.5 L328.1 447.0 Q328.1 440.0 335.1 440.0 L381.5 440.0 Q388.5 440.0 388.5 433.0 L388.5 329.0 Q388.5 322.0 381.5 322.0 L361.8 322.0 Q354.8 322.0 354.8 315.0 L354.8 199.0 Q354.8 192.0 354.8 185.0 L354.8 154.0" stroke="#db7500" stroke-width="1.6" stroke-dasharray="5 4"/>
<path d="M398.5 513.0 L398.5 478.5 Q398.5 471.5 398.5 464.5 L398.5 317.0 Q398.5 310.0 391.5 310.0 L354.8 310.0 Q347.8 310.0 347.8 303.0 L347.8 187.0 Q347.8 180.0 347.8 173.0 L347.8 154.0" stroke="#db7500" stroke-width="1.7"/>
<path d="M441.0 658.0 L441.0 604.0 Q441.0 597.0 434.0 597.0 L374.2 597.0 Q367.2 597.0 367.2 590.0 L367.2 452.3 Q367.2 452.0 366.9 452.0 L366.9 452.0 Q366.5 452.0 366.5 451.7 L366.5 414.0" stroke="#a0d8a0" stroke-width="1.7"/>
<path d="M576.2 658.0 L576.2 623.5 Q576.2 616.5 576.2 609.5 L576.2 447.0 Q576.2 440.0 583.2 440.0 L606.5 440.0 Q613.5 440.0 613.5 433.0 L613.5 317.0 Q613.5 310.0 606.5 310.0 L574.8 310.0 Q567.8 310.0 567.8 303.0 L567.8 187.0 Q567.8 180.0 560.8 180.0 L501.5 180.0 Q494.5 180.0 494.5 173.0 L494.5 154.0" stroke="#a0d8a0" stroke-width="1.7"/>
</g>
<g stroke="none"><rect x="56.6" y="606.5" width="106.9" height="20" rx="10" fill="#ffffff" stroke="#d8d6d4" stroke-width="1"/><text x="110.0" y="620.1" font-size="10.5" font-weight="600" fill="#242424" text-anchor="middle">skips three lanes</text></g>
<g stroke="none"><rect x="285.1" y="606.5" width="86.0" height="20" rx="10" fill="#ffffff" stroke="#d8d6d4" stroke-width="1"/><text x="328.1" y="620.1" font-size="10.5" font-weight="600" fill="#242424" text-anchor="middle">direct to root</text></g>
<g stroke="none"><rect x="370.7" y="461.5" width="68.8" height="20" rx="10" fill="#ffffff" stroke="#d8d6d4" stroke-width="1"/><text x="405.1" y="475.1" font-size="10.5" font-weight="600" fill="#242424" text-anchor="middle">skips two</text></g>
<g stroke="none"><rect x="522.4" y="606.5" width="107.5" height="20" rx="10" fill="#ffffff" stroke="#d8d6d4" stroke-width="1"/><text x="576.2" y="620.1" font-size="10.5" font-weight="600" fill="#242424" text-anchor="middle">another long hop</text></g>
<g filter="url(#cs)"><rect x="0.0" y="658.0" width="179" height="67" rx="10" fill="#f2f8f2" stroke="#a0d8a0" stroke-width="2"/></g><g transform="translate(6.0,665.16) scale(0.82)"><path d="M12 3.2l7.6 4.4v8.8L12 20.8l-7.6-4.4V7.6z" fill="none" stroke="#605e5c" stroke-width="1.6" stroke-linecap="round" stroke-linejoin="round"/><path d="M4.6 7.8l7.4 4.3 7.4-4.3M12 12.1v8.6" fill="none" stroke="#605e5c" stroke-width="1.6" stroke-linecap="round" stroke-linejoin="round"/></g><text x="34.0" y="678.5" font-size="12.5" font-weight="600" fill="#242424">Leaf five A</text><rect x="106.7" y="666.00" width="64.3" height="18" rx="9" fill="#ffffff" stroke="#a0d8a0" stroke-width="1"/><circle cx="117.7" cy="675.0" r="6" fill="#4c9a2a"/><path d="M115.0 675.0 l1.9 1.9 l3.4 -3.9" fill="none" stroke="#ffffff" stroke-width="1.4" stroke-linecap="round" stroke-linejoin="round"/><text x="126.7" y="678.57" font-size="10.5" fill="#323130">Healthy</text><line x1="1.0" y1="695.0" x2="178.0" y2="695.0" stroke="#e6e4e2"/><circle cx="16.0" cy="710.0" r="6" fill="#4c9a2a"/><path d="M13.3 710.0 l1.9 1.9 l3.4 -3.9" fill="none" stroke="#ffffff" stroke-width="1.4" stroke-linecap="round" stroke-linejoin="round"/><g transform="translate(32.0,703.0) scale(0.875)"><rect x="1.5" y="8" width="2.6" height="6" rx="0.6" fill="#8661c5"/><rect x="5.7" y="4.5" width="2.6" height="9.5" rx="0.6" fill="#0078D4"/><rect x="9.9" y="6.5" width="2.6" height="7.5" rx="0.6" fill="#3fb0ac"/></g><text x="52.0" y="713.5" font-size="10.5" fill="#242424">Metric collector one</text><text x="167.0" y="713.5" font-size="10.5" font-weight="400" fill="#605e5c" text-anchor="end">0</text>
<g filter="url(#cs)"><rect x="209.0" y="658.0" width="190" height="67" rx="10" fill="#fbf2e7" stroke="#db7500" stroke-width="2"/></g><g transform="translate(215.0,665.16) scale(0.82)"><path d="M12 3.2l7.6 4.4v8.8L12 20.8l-7.6-4.4V7.6z" fill="none" stroke="#605e5c" stroke-width="1.6" stroke-linecap="round" stroke-linejoin="round"/><path d="M4.6 7.8l7.4 4.3 7.4-4.3M12 12.1v8.6" fill="none" stroke="#605e5c" stroke-width="1.6" stroke-linecap="round" stroke-linejoin="round"/></g><text x="243.0" y="678.5" font-size="12.5" font-weight="600" fill="#242424">Leaf five B</text><rect x="316.0" y="666.00" width="75.0" height="18" rx="9" fill="#ffffff" stroke="#db7500" stroke-width="1"/><circle cx="327.0" cy="675.0" r="6" fill="#c26a00"/><text x="336.0" y="678.57" font-size="10.5" fill="#323130">Degraded</text><line x1="210.0" y1="695.0" x2="398.0" y2="695.0" stroke="#e6e4e2"/><circle cx="225.0" cy="710.0" r="6" fill="#c26a00"/><g transform="translate(241.0,703.0) scale(0.875)"><rect x="1.5" y="8" width="2.6" height="6" rx="0.6" fill="#8661c5"/><rect x="5.7" y="4.5" width="2.6" height="9.5" rx="0.6" fill="#0078D4"/><rect x="9.9" y="6.5" width="2.6" height="7.5" rx="0.6" fill="#3fb0ac"/></g><text x="261.0" y="713.5" font-size="10.5" fill="#242424">Metric collector two</text><text x="387.0" y="713.5" font-size="10.5" font-weight="600" fill="#c26a00" text-anchor="end">14</text>
<g filter="url(#cs)"><rect x="429.0" y="658.0" width="186" height="67" rx="10" fill="#f2f8f2" stroke="#a0d8a0" stroke-width="2"/></g><g transform="translate(435.0,665.16) scale(0.82)"><path d="M12 3.2l7.6 4.4v8.8L12 20.8l-7.6-4.4V7.6z" fill="none" stroke="#605e5c" stroke-width="1.6" stroke-linecap="round" stroke-linejoin="round"/><path d="M4.6 7.8l7.4 4.3 7.4-4.3M12 12.1v8.6" fill="none" stroke="#605e5c" stroke-width="1.6" stroke-linecap="round" stroke-linejoin="round"/></g><text x="463.0" y="678.5" font-size="12.5" font-weight="600" fill="#242424">Leaf five C</text><rect x="542.7" y="666.00" width="64.3" height="18" rx="9" fill="#ffffff" stroke="#a0d8a0" stroke-width="1"/><circle cx="553.7" cy="675.0" r="6" fill="#4c9a2a"/><path d="M551.0 675.0 l1.9 1.9 l3.4 -3.9" fill="none" stroke="#ffffff" stroke-width="1.4" stroke-linecap="round" stroke-linejoin="round"/><text x="562.7" y="678.57" font-size="10.5" fill="#323130">Healthy</text><line x1="430.0" y1="695.0" x2="614.0" y2="695.0" stroke="#e6e4e2"/><circle cx="445.0" cy="710.0" r="6" fill="#4c9a2a"/><path d="M442.3 710.0 l1.9 1.9 l3.4 -3.9" fill="none" stroke="#ffffff" stroke-width="1.4" stroke-linecap="round" stroke-linejoin="round"/><g transform="translate(461.0,703.0) scale(0.875)"><rect x="1.5" y="8" width="2.6" height="6" rx="0.6" fill="#8661c5"/><rect x="5.7" y="4.5" width="2.6" height="9.5" rx="0.6" fill="#0078D4"/><rect x="9.9" y="6.5" width="2.6" height="7.5" rx="0.6" fill="#3fb0ac"/></g><text x="481.0" y="713.5" font-size="10.5" fill="#242424">Metric collector three</text><text x="603.0" y="713.5" font-size="10.5" font-weight="400" fill="#605e5c" text-anchor="end">0</text>
<g filter="url(#cs)"><rect x="136.0" y="513.0" width="178" height="58" rx="10" fill="#f2f8f2" stroke="#a0d8a0" stroke-width="2"/></g><g transform="translate(142.0,532.16) scale(0.82)"><path d="M12 3.2l7.6 4.4v8.8L12 20.8l-7.6-4.4V7.6z" fill="none" stroke="#605e5c" stroke-width="1.6" stroke-linecap="round" stroke-linejoin="round"/><path d="M4.6 7.8l7.4 4.3 7.4-4.3M12 12.1v8.6" fill="none" stroke="#605e5c" stroke-width="1.6" stroke-linecap="round" stroke-linejoin="round"/></g><text x="170.0" y="545.5" font-size="12.5" font-weight="600" fill="#242424">Mid four A</text><rect x="241.7" y="533.00" width="64.3" height="18" rx="9" fill="#ffffff" stroke="#a0d8a0" stroke-width="1"/><circle cx="252.7" cy="542.0" r="6" fill="#4c9a2a"/><path d="M250.0 542.0 l1.9 1.9 l3.4 -3.9" fill="none" stroke="#ffffff" stroke-width="1.4" stroke-linecap="round" stroke-linejoin="round"/><text x="261.7" y="545.57" font-size="10.5" fill="#323130">Healthy</text>
<g filter="url(#cs)"><rect x="377.2" y="513.0" width="189" height="58" rx="10" fill="#fbf2e7" stroke="#db7500" stroke-width="2"/></g><g transform="translate(383.2,532.16) scale(0.82)"><path d="M12 3.2l7.6 4.4v8.8L12 20.8l-7.6-4.4V7.6z" fill="none" stroke="#605e5c" stroke-width="1.6" stroke-linecap="round" stroke-linejoin="round"/><path d="M4.6 7.8l7.4 4.3 7.4-4.3M12 12.1v8.6" fill="none" stroke="#605e5c" stroke-width="1.6" stroke-linecap="round" stroke-linejoin="round"/></g><text x="411.2" y="545.5" font-size="12.5" font-weight="600" fill="#242424">Mid four B</text><rect x="483.2" y="533.00" width="75.0" height="18" rx="9" fill="#ffffff" stroke="#db7500" stroke-width="1"/><circle cx="494.2" cy="542.0" r="6" fill="#c26a00"/><text x="503.2" y="545.57" font-size="10.5" fill="#323130">Degraded</text>
<g filter="url(#cs)"><rect x="194.5" y="356.0" width="184" height="58" rx="10" fill="#f2f8f2" stroke="#a0d8a0" stroke-width="2"/></g><g transform="translate(200.5,375.16) scale(0.82)"><path d="M12 3.2l7.6 4.4v8.8L12 20.8l-7.6-4.4V7.6z" fill="none" stroke="#605e5c" stroke-width="1.6" stroke-linecap="round" stroke-linejoin="round"/><path d="M4.6 7.8l7.4 4.3 7.4-4.3M12 12.1v8.6" fill="none" stroke="#605e5c" stroke-width="1.6" stroke-linecap="round" stroke-linejoin="round"/></g><text x="228.5" y="388.5" font-size="12.5" font-weight="600" fill="#242424">Mid three A</text><rect x="306.2" y="376.00" width="64.3" height="18" rx="9" fill="#ffffff" stroke="#a0d8a0" stroke-width="1"/><circle cx="317.2" cy="385.0" r="6" fill="#4c9a2a"/><path d="M314.5 385.0 l1.9 1.9 l3.4 -3.9" fill="none" stroke="#ffffff" stroke-width="1.4" stroke-linecap="round" stroke-linejoin="round"/><text x="326.2" y="388.57" font-size="10.5" fill="#323130">Healthy</text>
<g filter="url(#cs)"><rect x="408.5" y="356.0" width="195" height="58" rx="10" fill="#fbf2e7" stroke="#db7500" stroke-width="2"/></g><g transform="translate(414.5,375.16) scale(0.82)"><path d="M12 3.2l7.6 4.4v8.8L12 20.8l-7.6-4.4V7.6z" fill="none" stroke="#605e5c" stroke-width="1.6" stroke-linecap="round" stroke-linejoin="round"/><path d="M4.6 7.8l7.4 4.3 7.4-4.3M12 12.1v8.6" fill="none" stroke="#605e5c" stroke-width="1.6" stroke-linecap="round" stroke-linejoin="round"/></g><text x="442.5" y="388.5" font-size="12.5" font-weight="600" fill="#242424">Mid three B</text><rect x="520.5" y="376.00" width="75.0" height="18" rx="9" fill="#ffffff" stroke="#db7500" stroke-width="1"/><circle cx="531.5" cy="385.0" r="6" fill="#c26a00"/><text x="540.5" y="388.57" font-size="10.5" fill="#323130">Degraded</text>
<g filter="url(#cs)"><rect x="152.8" y="226.0" width="182" height="58" rx="10" fill="#f2f8f2" stroke="#a0d8a0" stroke-width="2"/></g><g transform="translate(158.8,245.16) scale(0.82)"><circle cx="5.5" cy="6" r="2" fill="none" stroke="#605e5c" stroke-width="1.6" stroke-linecap="round" stroke-linejoin="round"/><circle cx="5.5" cy="18" r="2" fill="none" stroke="#605e5c" stroke-width="1.6" stroke-linecap="round" stroke-linejoin="round"/><circle cx="18.5" cy="12" r="2" fill="none" stroke="#605e5c" stroke-width="1.6" stroke-linecap="round" stroke-linejoin="round"/><path d="M7.5 6h3a4 4 0 0 1 4 4M7.5 18h3a4 4 0 0 0 4-4" fill="none" stroke="#605e5c" stroke-width="1.6" stroke-linecap="round" stroke-linejoin="round"/></g><text x="186.8" y="258.5" font-size="12.5" font-weight="600" fill="#242424">Flow two A</text><rect x="262.5" y="246.00" width="64.3" height="18" rx="9" fill="#ffffff" stroke="#a0d8a0" stroke-width="1"/><circle cx="273.5" cy="255.0" r="6" fill="#4c9a2a"/><path d="M270.8 255.0 l1.9 1.9 l3.4 -3.9" fill="none" stroke="#ffffff" stroke-width="1.4" stroke-linecap="round" stroke-linejoin="round"/><text x="282.5" y="258.57" font-size="10.5" fill="#323130">Healthy</text>
<g filter="url(#cs)"><rect x="364.8" y="226.0" width="193" height="58" rx="10" fill="#fbf2e7" stroke="#db7500" stroke-width="2"/></g><g transform="translate(370.8,245.16) scale(0.82)"><circle cx="5.5" cy="6" r="2" fill="none" stroke="#605e5c" stroke-width="1.6" stroke-linecap="round" stroke-linejoin="round"/><circle cx="5.5" cy="18" r="2" fill="none" stroke="#605e5c" stroke-width="1.6" stroke-linecap="round" stroke-linejoin="round"/><circle cx="18.5" cy="12" r="2" fill="none" stroke="#605e5c" stroke-width="1.6" stroke-linecap="round" stroke-linejoin="round"/><path d="M7.5 6h3a4 4 0 0 1 4 4M7.5 18h3a4 4 0 0 0 4-4" fill="none" stroke="#605e5c" stroke-width="1.6" stroke-linecap="round" stroke-linejoin="round"/></g><text x="398.8" y="258.5" font-size="12.5" font-weight="600" fill="#242424">Flow two B</text><rect x="474.7" y="246.00" width="75.0" height="18" rx="9" fill="#ffffff" stroke="#db7500" stroke-width="1"/><circle cx="485.7" cy="255.0" r="6" fill="#c26a00"/><text x="494.7" y="258.57" font-size="10.5" fill="#323130">Degraded</text>
<g filter="url(#cs)"><rect x="294.5" y="96.0" width="212" height="58" rx="10" fill="#fbf2e7" stroke="#db7500" stroke-width="2"/></g><g transform="translate(300.5,115.16) scale(0.82)"><circle cx="12" cy="12" r="8.4" fill="none" stroke="#605e5c" stroke-width="1.6" stroke-linecap="round" stroke-linejoin="round"/><path d="M4.2 12h3l2-3.6 2.8 7.2 1.8-3.6h4" fill="none" stroke="#605e5c" stroke-width="1.6" stroke-linecap="round" stroke-linejoin="round"/></g><text x="328.5" y="128.5" font-size="12.5" font-weight="600" fill="#242424">Workload root</text><rect x="423.5" y="116.00" width="75.0" height="18" rx="9" fill="#ffffff" stroke="#db7500" stroke-width="1"/><circle cx="434.5" cy="125.0" r="6" fill="#c26a00"/><text x="443.5" y="128.57" font-size="10.5" fill="#323130">Degraded</text>
</g></svg>