<svg xmlns="http://www.w3.org/2000/svg" width="982" height="858" viewBox="0 0 982 858" font-family="Segoe UI, -apple-system, BlinkMacSystemFont, Helvetica, Arial, sans-serif">
<defs><filter id="cs" x="-20%" y="-20%" width="140%" height="140%"><feDropShadow dx="0" dy="1" stdDeviation="1.3" flood-color="#000" flood-opacity="0.1"/></filter></defs>
<rect width="982" height="858" fill="#ffffff"/>
<rect x="0" y="78.0" width="982" height="118.0" fill="#ffffff"/>
<line x1="0" y1="78.0" x2="982" y2="78.0" stroke="#e6e4e2"/>
<text x="816.1" y="141.5" font-size="13" font-weight="700" fill="#323130">Workload root</text>
<rect x="0" y="196.0" width="982" height="165.0" fill="#faf9f8"/>
<line x1="0" y1="196.0" x2="982" y2="196.0" stroke="#e6e4e2"/>
<text x="816.1" y="283.0" font-size="13" font-weight="700" fill="#323130">Business &amp; user flows</text>
<rect x="0" y="361.0" width="982" height="479.0" fill="#ffffff"/>
<line x1="0" y1="361.0" x2="982" y2="361.0" stroke="#e6e4e2"/>
<text x="816.1" y="596.5" font-size="13" font-weight="700" fill="#323130">Application</text>
<text x="816.1" y="613.5" font-size="13" font-weight="700" fill="#323130">components</text>
<line x1="0" y1="857.5" x2="982" y2="857.5" stroke="#e6e4e2"/>
<text x="40" y="34" font-size="18" font-weight="700" fill="#242424">Dense multi-parent mesh</text>
<text x="40" y="52" font-size="12" fill="#605e5c">Signals live inside each entity; health rolls up to the workload root.</text>
<text x="578.7" y="48" font-size="11.5" font-weight="600" fill="#605e5c" text-anchor="end">Legend</text>
<circle cx="596.7" cy="44" r="4.5" fill="#4c9a2a"/>
<text x="606.7" y="48" font-size="11.5" fill="#323130">Healthy</text>
<circle cx="662.4" cy="44" r="4.5" fill="#c26a00"/>
<text x="672.4" y="48" font-size="11.5" fill="#323130">Degraded</text>
<circle cx="739.9" cy="44" r="4.5" fill="#c50f18"/>
<text x="749.9" y="48" font-size="11.5" fill="#323130">Unhealthy</text>
<circle cx="818.7" cy="44" r="4.5" fill="#8a8886"/>
<text x="828.7" y="48" font-size="11.5" fill="#323130">Unknown</text>
<g transform="translate(887.6,37.0) scale(0.875)"><rect x="1.5" y="8" width="2.6" height="6" rx="0.6" fill="#8661c5"/><rect x="5.7" y="4.5" width="2.6" height="9.5" rx="0.6" fill="#0078D4"/><rect x="9.9" y="6.5" width="2.6" height="7.5" rx="0.6" fill="#3fb0ac"/></g>
<text x="905.6" y="48" font-size="11.5" fill="#323130">Metric</text>
<g transform="translate(40.0,0)">
<g fill="none" stroke-linecap="butt" stroke-linejoin="round">
<path d="M197.5 379.0 L197.5 299.0 Q197.5 292.0 190.5 292.0 L102.0 292.0" stroke="#a0d8a0" stroke-width="1.7"/>
<path d="M102.0 292.0 L102.0 272.0" stroke="#605e5c" stroke-width="1.7"/>
<path d="M197.5 536.0 L197.5 464.0 Q197.5 457.0 190.5 457.0 L102.0 457.0" stroke="#a0d8a0" stroke-width="1.7"/>
<path d="M102.0 457.0 L102.0 272.0" stroke="#605e5c" stroke-width="1.7"/>
<path d="M399.5 379.0 L399.5 303.0 Q399.5 296.0 392.5 296.0 L102.0 296.0" stroke="#a0d8a0" stroke-width="1.7"/>
<path d="M102.0 296.0 L102.0 272.0" stroke="#605e5c" stroke-width="1.7"/>
<path d="M615.0 536.0 L615.0 468.0 Q615.0 461.0 608.0 461.0 L102.0 461.0" stroke="#a0d8a0" stroke-width="1.7"/>
<path d="M102.0 461.0 L102.0 272.0" stroke="#605e5c" stroke-width="1.7"/>
<path d="M608.0 379.0 L608.0 307.0 Q608.0 300.0 601.0 300.0 L102.0 300.0" stroke="#db7500" stroke-width="1.7"/>
<path d="M102.0 300.0 L102.0 272.0" stroke="#605e5c" stroke-width="1.7"/>
<path d="M203.5 536.0 L203.5 476.0 Q203.5 469.0 210.5 469.0 L506.0 469.0" stroke="#a0d8a0" stroke-width="1.7"/>
<path d="M506.0 469.0 L506.0 300.6 Q506.0 296.0 510.6 296.0 L510.6 296.0 Q515.3 296.0 515.3 291.4 L515.3 272.0" stroke="#605e5c" stroke-width="1.7"/>
<path d="M203.5 768.0 L203.5 735.0 Q203.5 728.0 210.5 728.0 L566.0 728.0" stroke="#a0d8a0" stroke-width="1.7"/>
<path d="M566.0 728.0 L566.0 621.0 Q566.0 614.0 559.0 614.0 L526.0 614.0 Q519.0 614.0 519.0 607.0 L519.0 479.5 Q519.0 473.0 512.5 473.0 L512.5 473.0 Q506.0 473.0 506.0 466.5 L506.0 300.6 Q506.0 296.0 510.6 296.0 L510.6 296.0 Q515.3 296.0 515.3 291.4 L515.3 272.0" stroke="#605e5c" stroke-width="1.7"/>
<path d="M405.5 379.0 L405.5 311.0 Q405.5 304.0 412.5 304.0 L506.0 304.0" stroke="#a0d8a0" stroke-width="1.7"/>
<path d="M506.0 304.0 L506.0 300.0 Q506.0 296.0 510.0 296.0 L510.6 296.0 Q515.3 296.0 515.3 291.4 L515.3 272.0" stroke="#605e5c" stroke-width="1.7"/>
<path d="M406.0 768.0 L406.0 739.0 Q406.0 732.0 413.0 732.0 L566.0 732.0" stroke="#a0d8a0" stroke-width="1.7"/>
<path d="M566.0 732.0 L566.0 621.0 Q566.0 614.0 559.0 614.0 L526.0 614.0 Q519.0 614.0 519.0 607.0 L519.0 479.5 Q519.0 473.0 512.5 473.0 L512.5 473.0 Q506.0 473.0 506.0 466.5 L506.0 300.6 Q506.0 296.0 510.6 296.0 L510.6 296.0 Q515.3 296.0 515.3 291.4 L515.3 272.0" stroke="#605e5c" stroke-width="1.7"/>
<path d="M566.0 768.0 L566.0 621.0 Q566.0 614.0 559.0 614.0 L526.0 614.0 Q519.0 614.0 519.0 607.0 L519.0 479.5 Q519.0 473.0 512.5 473.0 L512.5 473.0 Q506.0 473.0 506.0 466.5 L506.0 300.6 Q506.0 296.0 510.6 296.0 L510.6 296.0 Q515.3 296.0 515.3 291.4 L515.3 272.0" stroke="#605e5c" stroke-width="1.7"/>
<path d="M621.0 536.0 L621.0 464.0 Q621.0 457.0 614.0 457.0 L506.0 457.0" stroke="#a0d8a0" stroke-width="1.7"/>
<path d="M506.0 457.0 L506.0 300.6 Q506.0 296.0 510.6 296.0 L510.6 296.0 Q515.3 296.0 515.3 291.4 L515.3 272.0" stroke="#605e5c" stroke-width="1.7"/>
<path d="M406.5 536.0 L406.5 472.0 Q406.5 465.0 413.5 465.0 L506.0 465.0" stroke="#ba0d16" stroke-width="1.7"/>
<path d="M506.0 465.0 L506.0 300.6 Q506.0 296.0 510.6 296.0 L510.6 296.0 Q515.3 296.0 515.3 291.4 L515.3 272.0" stroke="#605e5c" stroke-width="1.7"/>
<path d="M191.5 536.0 L191.5 472.0 Q191.5 465.0 198.5 465.0 L297.0 465.0" stroke="#a0d8a0" stroke-width="1.7"/>
<path d="M297.0 465.0 L297.0 272.0" stroke="#605e5c" stroke-width="1.7"/>
<path d="M406.0 650.0 L406.0 621.0 Q406.0 614.0 399.0 614.0 L304.0 614.0" stroke="#a0d8a0" stroke-width="1.7"/>
<path d="M304.0 614.0 L304.0 476.5 Q304.0 473.0 300.5 473.0 L300.5 473.0 Q297.0 473.0 297.0 469.5 L297.0 272.0" stroke="#605e5c" stroke-width="1.7"/>
<path d="M614.0 379.0 L614.0 299.0 Q614.0 292.0 607.0 292.0 L297.0 292.0" stroke="#db7500" stroke-width="1.7"/>
<path d="M297.0 292.0 L297.0 272.0" stroke="#605e5c" stroke-width="1.7"/>
<path d="M412.5 536.0 L412.5 464.0 Q412.5 457.0 405.5 457.0 L297.0 457.0" stroke="#ba0d16" stroke-width="1.7"/>
<path d="M297.0 457.0 L297.0 272.0" stroke="#605e5c" stroke-width="1.7"/>
<path d="M163.8 214.0 L163.8 181.0 Q163.8 174.0 170.8 174.0 L380.4 174.0" stroke="#a0d8a0" stroke-width="1.7"/>
<path d="M380.4 174.0 L380.4 154.0" stroke="#605e5c" stroke-width="1.7"/>
<path d="M380.4 214.0 L380.4 154.0" stroke="#605e5c" stroke-width="1.7"/>
<path d="M598.8 214.0 L598.8 185.0 Q598.8 178.0 591.8 178.0 L380.4 178.0" stroke="#db7500" stroke-width="1.7"/>
<path d="M380.4 178.0 L380.4 154.0" stroke="#605e5c" stroke-width="1.7"/>
<path d="M378.8 379.0 L378.8 344.5 Q378.8 337.5 385.8 337.5 L386.5 337.5 Q393.5 337.5 393.5 330.5 L393.5 272.0" stroke="#a0d8a0" stroke-width="1.7"/>
<path d="M688.0 379.0 L688.0 344.5 Q688.0 337.5 681.0 337.5 L609.0 337.5 Q602.0 337.5 602.0 330.5 L602.0 272.0" stroke="#db7500" stroke-width="1.6" stroke-dasharray="5 4"/>
<path d="M358.6 536.0 L358.6 501.5 Q358.6 494.5 351.6 494.5 L102.0 494.5 Q95.0 494.5 95.0 487.5 L95.0 321.0 Q95.0 318.0 92.0 318.0 L92.0 318.0 Q89.0 318.0 89.0 315.0 L89.0 272.0" stroke="#ba0d16" stroke-width="1.7"/>
<path d="M689.0 536.0 L689.0 501.5 Q689.0 494.5 682.0 494.5 L503.9 494.5 Q496.9 494.5 496.9 487.5 L496.9 325.0 Q496.9 318.0 489.9 318.0 L468.3 318.0 Q461.3 318.0 461.3 311.0 L461.3 272.0" stroke="#a0d8a0" stroke-width="1.6" stroke-dasharray="5 4"/>
</g>
<g stroke="none"><rect x="313.5" y="327.5" width="82.5" height="20" rx="10" fill="#ffffff" stroke="#d8d6d4" stroke-width="1"/><text x="354.8" y="341.1" font-size="10.5" font-weight="600" fill="#242424" text-anchor="middle">labelled hop</text></g>
<g stroke="none"><rect x="648.0" y="327.5" width="80.1" height="20" rx="10" fill="#ffffff" stroke="#d8d6d4" stroke-width="1"/><text x="688.0" y="341.1" font-size="10.5" font-weight="600" fill="#242424" text-anchor="middle">dashed hop</text></g>
<g stroke="none"><rect x="334.0" y="484.5" width="49.2" height="20" rx="10" fill="#ffffff" stroke="#d8d6d4" stroke-width="1"/><text x="358.6" y="498.1" font-size="10.5" font-weight="600" fill="#242424" text-anchor="middle">angry</text></g>
<g stroke="none"><rect x="657.3" y="484.5" width="63.5" height="20" rx="10" fill="#ffffff" stroke="#d8d6d4" stroke-width="1"/><text x="689.0" y="498.1" font-size="10.5" font-weight="600" fill="#242424" text-anchor="middle">sampled</text></g>
<g filter="url(#cs)"><rect x="313.0" y="379.0" width="173" height="58" rx="10" fill="#f2f8f2" stroke="#a0d8a0" stroke-width="2"/></g><g transform="translate(319.0,398.16) scale(0.82)"><path d="M12 3.2l7.6 4.4v8.8L12 20.8l-7.6-4.4V7.6z" fill="none" stroke="#605e5c" stroke-width="1.6" stroke-linecap="round" stroke-linejoin="round"/><path d="M4.6 7.8l7.4 4.3 7.4-4.3M12 12.1v8.6" fill="none" stroke="#605e5c" stroke-width="1.6" stroke-linecap="round" stroke-linejoin="round"/></g><text x="347.0" y="411.5" font-size="12.5" font-weight="600" fill="#242424">Service A</text><rect x="413.7" y="399.00" width="64.3" height="18" rx="9" fill="#ffffff" stroke="#a0d8a0" stroke-width="1"/><circle cx="424.7" cy="408.0" r="6" fill="#4c9a2a"/><path d="M422.0 408.0 l1.9 1.9 l3.4 -3.9" fill="none" stroke="#ffffff" stroke-width="1.4" stroke-linecap="round" stroke-linejoin="round"/><text x="433.7" y="411.57" font-size="10.5" fill="#323130">Healthy</text>
<g filter="url(#cs)"><rect x="73.3" y="214.0" width="181" height="58" rx="10" fill="#f2f8f2" stroke="#a0d8a0" stroke-width="2"/></g><g transform="translate(79.3,233.16) scale(0.82)"><path d="M12 3.2l7.6 4.4v8.8L12 20.8l-7.6-4.4V7.6z" fill="none" stroke="#605e5c" stroke-width="1.6" stroke-linecap="round" stroke-linejoin="round"/><path d="M4.6 7.8l7.4 4.3 7.4-4.3M12 12.1v8.6" fill="none" stroke="#605e5c" stroke-width="1.6" stroke-linecap="round" stroke-linejoin="round"/></g><text x="107.3" y="246.5" font-size="12.5" font-weight="600" fill="#242424">Parent one</text><rect x="182.0" y="234.00" width="64.3" height="18" rx="9" fill="#ffffff" stroke="#a0d8a0" stroke-width="1"/><circle cx="193.0" cy="243.0" r="6" fill="#4c9a2a"/><path d="M190.3 243.0 l1.9 1.9 l3.4 -3.9" fill="none" stroke="#ffffff" stroke-width="1.4" stroke-linecap="round" stroke-linejoin="round"/><text x="202.0" y="246.57" font-size="10.5" fill="#323130">Healthy</text>
<g filter="url(#cs)"><rect x="503.3" y="214.0" width="191" height="58" rx="10" fill="#fbf2e7" stroke="#db7500" stroke-width="2"/></g><g transform="translate(509.3,233.16) scale(0.82)"><path d="M12 3.2l7.6 4.4v8.8L12 20.8l-7.6-4.4V7.6z" fill="none" stroke="#605e5c" stroke-width="1.6" stroke-linecap="round" stroke-linejoin="round"/><path d="M4.6 7.8l7.4 4.3 7.4-4.3M12 12.1v8.6" fill="none" stroke="#605e5c" stroke-width="1.6" stroke-linecap="round" stroke-linejoin="round"/></g><text x="537.3" y="246.5" font-size="12.5" font-weight="600" fill="#242424">Parent two</text><rect x="611.2" y="234.00" width="75.0" height="18" rx="9" fill="#ffffff" stroke="#db7500" stroke-width="1"/><circle cx="622.2" cy="243.0" r="6" fill="#c26a00"/><text x="631.2" y="246.57" font-size="10.5" fill="#323130">Degraded</text>
<g filter="url(#cs)"><rect x="284.3" y="214.0" width="189" height="58" rx="10" fill="#f2f8f2" stroke="#a0d8a0" stroke-width="2"/></g><g transform="translate(290.3,233.16) scale(0.82)"><path d="M12 3.2l7.6 4.4v8.8L12 20.8l-7.6-4.4V7.6z" fill="none" stroke="#605e5c" stroke-width="1.6" stroke-linecap="round" stroke-linejoin="round"/><path d="M4.6 7.8l7.4 4.3 7.4-4.3M12 12.1v8.6" fill="none" stroke="#605e5c" stroke-width="1.6" stroke-linecap="round" stroke-linejoin="round"/></g><text x="318.3" y="246.5" font-size="12.5" font-weight="600" fill="#242424">Parent three</text><rect x="401.0" y="234.00" width="64.3" height="18" rx="9" fill="#ffffff" stroke="#a0d8a0" stroke-width="1"/><circle cx="412.0" cy="243.0" r="6" fill="#4c9a2a"/><path d="M409.3 243.0 l1.9 1.9 l3.4 -3.9" fill="none" stroke="#ffffff" stroke-width="1.4" stroke-linecap="round" stroke-linejoin="round"/><text x="421.0" y="246.57" font-size="10.5" fill="#323130">Healthy</text>
<g filter="url(#cs)"><rect x="516.0" y="379.0" width="184" height="58" rx="10" fill="#fbf2e7" stroke="#db7500" stroke-width="2"/></g><g transform="translate(522.0,398.16) scale(0.82)"><path d="M12 3.2l7.6 4.4v8.8L12 20.8l-7.6-4.4V7.6z" fill="none" stroke="#605e5c" stroke-width="1.6" stroke-linecap="round" stroke-linejoin="round"/><path d="M4.6 7.8l7.4 4.3 7.4-4.3M12 12.1v8.6" fill="none" stroke="#605e5c" stroke-width="1.6" stroke-linecap="round" stroke-linejoin="round"/></g><text x="550.0" y="411.5" font-size="12.5" font-weight="600" fill="#242424">Service B</text><rect x="617.0" y="399.00" width="75.0" height="18" rx="9" fill="#ffffff" stroke="#db7500" stroke-width="1"/><circle cx="628.0" cy="408.0" r="6" fill="#c26a00"/><text x="637.0" y="411.57" font-size="10.5" fill="#323130">Degraded</text>
<g filter="url(#cs)"><rect x="111.0" y="536.0" width="173" height="58" rx="10" fill="#f2f8f2" stroke="#a0d8a0" stroke-width="2"/></g><g transform="translate(117.0,555.16) scale(0.82)"><path d="M12 3.2l7.6 4.4v8.8L12 20.8l-7.6-4.4V7.6z" fill="none" stroke="#605e5c" stroke-width="1.6" stroke-linecap="round" stroke-linejoin="round"/><path d="M4.6 7.8l7.4 4.3 7.4-4.3M12 12.1v8.6" fill="none" stroke="#605e5c" stroke-width="1.6" stroke-linecap="round" stroke-linejoin="round"/></g><text x="145.0" y="568.5" font-size="12.5" font-weight="600" fill="#242424">Service C</text><rect x="211.7" y="556.00" width="64.3" height="18" rx="9" fill="#ffffff" stroke="#a0d8a0" stroke-width="1"/><circle cx="222.7" cy="565.0" r="6" fill="#4c9a2a"/><path d="M220.0 565.0 l1.9 1.9 l3.4 -3.9" fill="none" stroke="#ffffff" stroke-width="1.4" stroke-linecap="round" stroke-linejoin="round"/><text x="231.7" y="568.57" font-size="10.5" fill="#323130">Healthy</text>
<g filter="url(#cs)"><rect x="314.0" y="536.0" width="185" height="58" rx="10" fill="#faeceb" stroke="#ba0d16" stroke-width="2"/></g><g transform="translate(320.0,555.16) scale(0.82)"><path d="M12 3.2l7.6 4.4v8.8L12 20.8l-7.6-4.4V7.6z" fill="none" stroke="#605e5c" stroke-width="1.6" stroke-linecap="round" stroke-linejoin="round"/><path d="M4.6 7.8l7.4 4.3 7.4-4.3M12 12.1v8.6" fill="none" stroke="#605e5c" stroke-width="1.6" stroke-linecap="round" stroke-linejoin="round"/></g><text x="348.0" y="568.5" font-size="12.5" font-weight="600" fill="#242424">Service D</text><rect x="414.8" y="556.00" width="76.2" height="18" rx="9" fill="#ffffff" stroke="#ba0d16" stroke-width="1"/><circle cx="425.8" cy="565.0" r="6" fill="#c50f18"/><text x="434.8" y="568.57" font-size="10.5" fill="#323130">Unhealthy</text>
<g filter="url(#cs)"><rect x="529.0" y="536.0" width="172" height="58" rx="10" fill="#f2f8f2" stroke="#a0d8a0" stroke-width="2"/></g><g transform="translate(535.0,555.16) scale(0.82)"><path d="M12 3.2l7.6 4.4v8.8L12 20.8l-7.6-4.4V7.6z" fill="none" stroke="#605e5c" stroke-width="1.6" stroke-linecap="round" stroke-linejoin="round"/><path d="M4.6 7.8l7.4 4.3 7.4-4.3M12 12.1v8.6" fill="none" stroke="#605e5c" stroke-width="1.6" stroke-linecap="round" stroke-linejoin="round"/></g><text x="563.0" y="568.5" font-size="12.5" font-weight="600" fill="#242424">Service E</text><rect x="628.7" y="556.00" width="64.3" height="18" rx="9" fill="#ffffff" stroke="#a0d8a0" stroke-width="1"/><circle cx="639.7" cy="565.0" r="6" fill="#4c9a2a"/><path d="M637.0 565.0 l1.9 1.9 l3.4 -3.9" fill="none" stroke="#ffffff" stroke-width="1.4" stroke-linecap="round" stroke-linejoin="round"/><text x="648.7" y="568.57" font-size="10.5" fill="#323130">Healthy</text>
<g filter="url(#cs)"><rect x="112.0" y="379.0" width="171" height="58" rx="10" fill="#f2f8f2" stroke="#a0d8a0" stroke-width="2"/></g><g transform="translate(118.0,398.16) scale(0.82)"><path d="M12 3.2l7.6 4.4v8.8L12 20.8l-7.6-4.4V7.6z" fill="none" stroke="#605e5c" stroke-width="1.6" stroke-linecap="round" stroke-linejoin="round"/><path d="M4.6 7.8l7.4 4.3 7.4-4.3M12 12.1v8.6" fill="none" stroke="#605e5c" stroke-width="1.6" stroke-linecap="round" stroke-linejoin="round"/></g><text x="146.0" y="411.5" font-size="12.5" font-weight="600" fill="#242424">Filler one</text><rect x="210.7" y="399.00" width="64.3" height="18" rx="9" fill="#ffffff" stroke="#a0d8a0" stroke-width="1"/><circle cx="221.7" cy="408.0" r="6" fill="#4c9a2a"/><path d="M219.0 408.0 l1.9 1.9 l3.4 -3.9" fill="none" stroke="#ffffff" stroke-width="1.4" stroke-linecap="round" stroke-linejoin="round"/><text x="230.7" y="411.57" font-size="10.5" fill="#323130">Healthy</text>
<g filter="url(#cs)"><rect x="118.0" y="768.0" width="171" height="58" rx="10" fill="#f2f8f2" stroke="#a0d8a0" stroke-width="2"/></g><g transform="translate(124.0,787.16) scale(0.82)"><path d="M12 3.2l7.6 4.4v8.8L12 20.8l-7.6-4.4V7.6z" fill="none" stroke="#605e5c" stroke-width="1.6" stroke-linecap="round" stroke-linejoin="round"/><path d="M4.6 7.8l7.4 4.3 7.4-4.3M12 12.1v8.6" fill="none" stroke="#605e5c" stroke-width="1.6" stroke-linecap="round" stroke-linejoin="round"/></g><text x="152.0" y="800.5" font-size="12.5" font-weight="600" fill="#242424">Filler two</text><rect x="216.7" y="788.00" width="64.3" height="18" rx="9" fill="#ffffff" stroke="#a0d8a0" stroke-width="1"/><circle cx="227.7" cy="797.0" r="6" fill="#4c9a2a"/><path d="M225.0 797.0 l1.9 1.9 l3.4 -3.9" fill="none" stroke="#ffffff" stroke-width="1.4" stroke-linecap="round" stroke-linejoin="round"/><text x="236.7" y="800.57" font-size="10.5" fill="#323130">Healthy</text>
<g filter="url(#cs)"><rect x="316.0" y="650.0" width="180" height="58" rx="10" fill="#f2f8f2" stroke="#a0d8a0" stroke-width="2"/></g><g transform="translate(322.0,669.16) scale(0.82)"><path d="M12 3.2l7.6 4.4v8.8L12 20.8l-7.6-4.4V7.6z" fill="none" stroke="#605e5c" stroke-width="1.6" stroke-linecap="round" stroke-linejoin="round"/><path d="M4.6 7.8l7.4 4.3 7.4-4.3M12 12.1v8.6" fill="none" stroke="#605e5c" stroke-width="1.6" stroke-linecap="round" stroke-linejoin="round"/></g><text x="350.0" y="682.5" font-size="12.5" font-weight="600" fill="#242424">Filler three</text><rect x="423.7" y="670.00" width="64.3" height="18" rx="9" fill="#ffffff" stroke="#a0d8a0" stroke-width="1"/><circle cx="434.7" cy="679.0" r="6" fill="#4c9a2a"/><path d="M432.0 679.0 l1.9 1.9 l3.4 -3.9" fill="none" stroke="#ffffff" stroke-width="1.4" stroke-linecap="round" stroke-linejoin="round"/><text x="443.7" y="682.57" font-size="10.5" fill="#323130">Healthy</text>
<g filter="url(#cs)"><rect x="319.0" y="768.0" width="174" height="58" rx="10" fill="#f2f8f2" stroke="#a0d8a0" stroke-width="2"/></g><g transform="translate(325.0,787.16) scale(0.82)"><path d="M12 3.2l7.6 4.4v8.8L12 20.8l-7.6-4.4V7.6z" fill="none" stroke="#605e5c" stroke-width="1.6" stroke-linecap="round" stroke-linejoin="round"/><path d="M4.6 7.8l7.4 4.3 7.4-4.3M12 12.1v8.6" fill="none" stroke="#605e5c" stroke-width="1.6" stroke-linecap="round" stroke-linejoin="round"/></g><text x="353.0" y="800.5" font-size="12.5" font-weight="600" fill="#242424">Filler four</text><rect x="420.7" y="788.00" width="64.3" height="18" rx="9" fill="#ffffff" stroke="#a0d8a0" stroke-width="1"/><circle cx="431.7" cy="797.0" r="6" fill="#4c9a2a"/><path d="M429.0 797.0 l1.9 1.9 l3.4 -3.9" fill="none" stroke="#ffffff" stroke-width="1.4" stroke-linecap="round" stroke-linejoin="round"/><text x="440.7" y="800.57" font-size="10.5" fill="#323130">Healthy</text>
<g filter="url(#cs)"><rect x="523.0" y="768.0" width="171" height="58" rx="10" fill="#f2f8f2" stroke="#a0d8a0" stroke-width="2"/></g><g transform="translate(529.0,787.16) scale(0.82)"><path d="M12 3.2l7.6 4.4v8.8L12 20.8l-7.6-4.4V7.6z" fill="none" stroke="#605e5c" stroke-width="1.6" stroke-linecap="round" stroke-linejoin="round"/><path d="M4.6 7.8l7.4 4.3 7.4-4.3M12 12.1v8.6" fill="none" stroke="#605e5c" stroke-width="1.6" stroke-linecap="round" stroke-linejoin="round"/></g><text x="557.0" y="800.5" font-size="12.5" font-weight="600" fill="#242424">Filler five</text><rect x="621.7" y="788.00" width="64.3" height="18" rx="9" fill="#ffffff" stroke="#a0d8a0" stroke-width="1"/><circle cx="632.7" cy="797.0" r="6" fill="#4c9a2a"/><path d="M630.0 797.0 l1.9 1.9 l3.4 -3.9" fill="none" stroke="#ffffff" stroke-width="1.4" stroke-linecap="round" stroke-linejoin="round"/><text x="641.7" y="800.57" font-size="10.5" fill="#323130">Healthy</text>
<g filter="url(#cs)"><rect x="296.4" y="96.0" width="168" height="58" rx="10" fill="#fbf2e7" stroke="#db7500" stroke-width="2"/></g><g transform="translate(302.4,115.16) scale(0.82)"><circle cx="12" cy="12" r="8.4" fill="none" stroke="#605e5c" stroke-width="1.6" stroke-linecap="round" stroke-linejoin="round"/><path d="M4.2 12h3l2-3.6 2.8 7.2 1.8-3.6h4" fill="none" stroke="#605e5c" stroke-width="1.6" stroke-linecap="round" stroke-linejoin="round"/></g><text x="330.4" y="128.5" font-size="12.5" font-weight="600" fill="#242424">Root</text><rect x="381.4" y="116.00" width="75.0" height="18" rx="9" fill="#ffffff" stroke="#db7500" stroke-width="1"/><circle cx="392.4" cy="125.0" r="6" fill="#c26a00"/><text x="401.4" y="128.57" font-size="10.5" fill="#323130">Degraded</text>
</g></svg>