<svg xmlns="http://www.w3.org/2000/svg" width="876" height="417" viewBox="0 0 876 417" font-family="Segoe UI, -apple-system, BlinkMacSystemFont, Helvetica, Arial, sans-serif">
<defs><filter id="cs" x="-20%" y="-20%" width="140%" height="140%"><feDropShadow dx="0" dy="1" stdDeviation="1.3" flood-color="#000" flood-opacity="0.1"/></filter></defs>
<rect width="876" height="417" fill="#ffffff"/>
<rect x="0" y="78.0" width="876" height="90.0" fill="#ffffff"/>
<line x1="0" y1="78.0" x2="876" y2="78.0" stroke="#e6e4e2"/>
<text x="710.0" y="127.5" font-size="13" font-weight="700" fill="#323130">Workload root</text>
<rect x="0" y="168.0" width="876" height="114.0" fill="#faf9f8"/>
<line x1="0" y1="168.0" x2="876" y2="168.0" stroke="#e6e4e2"/>
<text x="710.0" y="229.5" font-size="13" font-weight="700" fill="#323130">Business &amp; user flows</text>
<rect x="0" y="282.0" width="876" height="117.0" fill="#ffffff"/>
<line x1="0" y1="282.0" x2="876" y2="282.0" stroke="#e6e4e2"/>
<text x="710.0" y="336.5" font-size="13" font-weight="700" fill="#323130">Application</text>
<text x="710.0" y="353.5" font-size="13" font-weight="700" fill="#323130">components</text>
<line x1="0" y1="416.5" x2="876" y2="416.5" stroke="#e6e4e2"/>
<text x="40" y="34" font-size="18" font-weight="700" fill="#242424">Health model, zero config</text>
<text x="40" y="52" font-size="12" fill="#605e5c">Signals live inside each entity; health rolls up to the workload root.</text>
<text x="472.6" y="48" font-size="11.5" font-weight="600" fill="#605e5c" text-anchor="end">Legend</text>
<circle cx="490.6" cy="44" r="4.5" fill="#4c9a2a"/>
<text x="500.6" y="48" font-size="11.5" fill="#323130">Healthy</text>
<circle cx="556.3" cy="44" r="4.5" fill="#c26a00"/>
<text x="566.3" y="48" font-size="11.5" fill="#323130">Degraded</text>
<circle cx="633.9" cy="44" r="4.5" fill="#c50f18"/>
<text x="643.9" y="48" font-size="11.5" fill="#323130">Unhealthy</text>
<circle cx="712.7" cy="44" r="4.5" fill="#8a8886"/>
<text x="722.7" y="48" font-size="11.5" fill="#323130">Unknown</text>
<g transform="translate(781.6,37.0) scale(0.875)"><rect x="1.5" y="8" width="2.6" height="6" rx="0.6" fill="#8661c5"/><rect x="5.7" y="4.5" width="2.6" height="9.5" rx="0.6" fill="#0078D4"/><rect x="9.9" y="6.5" width="2.6" height="7.5" rx="0.6" fill="#3fb0ac"/></g>
<text x="799.6" y="48" font-size="11.5" fill="#323130">Metric</text>
<g transform="translate(40.0,0)">
<g fill="none" stroke-linecap="butt" stroke-linejoin="round">
<path d="M98.5 300.0 L98.5 271.0 Q98.5 264.0 105.5 264.0 L220.2 264.0 Q227.2 264.0 227.2 257.0 L227.2 244.0" stroke="#a0d8a0" stroke-width="1.7"/>
<path d="M536.5 300.0 L536.5 271.0 Q536.5 264.0 529.5 264.0 L415.2 264.0 Q408.2 264.0 408.2 257.0 L408.2 244.0" stroke="#a0d8a0" stroke-width="1.7"/>
<path d="M319.7 300.0 L319.7 244.0" stroke="#db7500" stroke-width="1.7"/>
<path d="M319.7 186.0 L319.7 154.0" stroke="#db7500" stroke-width="1.7"/>
</g>
<g filter="url(#cs)"><rect x="0.0" y="300.0" width="197" height="85" rx="10" fill="#f2f8f2" stroke="#a0d8a0" stroke-width="2"/></g><g transform="translate(6.0,307.16) scale(0.82)"><circle cx="12" cy="12" r="8.4" fill="none" stroke="#605e5c" stroke-width="1.6" stroke-linecap="round" stroke-linejoin="round"/><path d="M3.6 12h16.8M12 3.6c3 3 3 13.8 0 16.8M12 3.6c-3 3-3 13.8 0 16.8" fill="none" stroke="#605e5c" stroke-width="1.6" stroke-linecap="round" stroke-linejoin="round"/></g><text x="34.0" y="320.5" font-size="12.5" font-weight="600" fill="#242424">Web frontend</text><rect x="124.7" y="308.00" width="64.3" height="18" rx="9" fill="#ffffff" stroke="#a0d8a0" stroke-width="1"/><circle cx="135.7" cy="317.0" r="6" fill="#4c9a2a"/><path d="M133.0 317.0 l1.9 1.9 l3.4 -3.9" fill="none" stroke="#ffffff" stroke-width="1.4" stroke-linecap="round" stroke-linejoin="round"/><text x="144.7" y="320.57" font-size="10.5" fill="#323130">Healthy</text><line x1="1.0" y1="337.0" x2="196.0" y2="337.0" stroke="#e6e4e2"/><circle cx="16.0" cy="352.0" r="6" fill="#4c9a2a"/><path d="M13.3 352.0 l1.9 1.9 l3.4 -3.9" fill="none" stroke="#ffffff" stroke-width="1.4" stroke-linecap="round" stroke-linejoin="round"/><g transform="translate(32.0,345.0) scale(0.875)"><rect x="1.5" y="8" width="2.6" height="6" rx="0.6" fill="#8661c5"/><rect x="5.7" y="4.5" width="2.6" height="9.5" rx="0.6" fill="#0078D4"/><rect x="9.9" y="6.5" width="2.6" height="7.5" rx="0.6" fill="#3fb0ac"/></g><text x="52.0" y="355.5" font-size="10.5" fill="#242424">Availability</text><text x="185.0" y="355.5" font-size="10.5" font-weight="400" fill="#605e5c" text-anchor="end">0</text><line x1="10.0" y1="361.0" x2="187.0" y2="361.0" stroke="#e6e4e2" stroke-opacity="0.7"/><circle cx="16.0" cy="370.0" r="6" fill="#4c9a2a"/><path d="M13.3 370.0 l1.9 1.9 l3.4 -3.9" fill="none" stroke="#ffffff" stroke-width="1.4" stroke-linecap="round" stroke-linejoin="round"/><g transform="translate(32.0,363.0) scale(0.875)"><rect x="1.5" y="8" width="2.6" height="6" rx="0.6" fill="#8661c5"/><rect x="5.7" y="4.5" width="2.6" height="9.5" rx="0.6" fill="#0078D4"/><rect x="9.9" y="6.5" width="2.6" height="7.5" rx="0.6" fill="#3fb0ac"/></g><text x="52.0" y="373.5" font-size="10.5" fill="#242424">P95 latency</text><text x="185.0" y="373.5" font-size="10.5" font-weight="400" fill="#605e5c" text-anchor="end">2</text>
<g filter="url(#cs)"><rect x="227.0" y="300.0" width="194" height="85" rx="10" fill="#fbf2e7" stroke="#db7500" stroke-width="2"/></g><g transform="translate(233.0,307.16) scale(0.82)"><path d="M13 2.5 5.5 13.5H11l-1 8 8.5-12H12z" fill="none" stroke="#605e5c" stroke-width="1.6" stroke-linecap="round" stroke-linejoin="round"/></g><text x="261.0" y="320.5" font-size="12.5" font-weight="600" fill="#242424">API service</text><rect x="338.0" y="308.00" width="75.0" height="18" rx="9" fill="#ffffff" stroke="#db7500" stroke-width="1"/><circle cx="349.0" cy="317.0" r="6" fill="#c26a00"/><text x="358.0" y="320.57" font-size="10.5" fill="#323130">Degraded</text><line x1="228.0" y1="337.0" x2="420.0" y2="337.0" stroke="#e6e4e2"/><circle cx="243.0" cy="352.0" r="6" fill="#c26a00"/><g transform="translate(259.0,345.0) scale(0.875)"><rect x="1.5" y="8" width="2.6" height="6" rx="0.6" fill="#8661c5"/><rect x="5.7" y="4.5" width="2.6" height="9.5" rx="0.6" fill="#0078D4"/><rect x="9.9" y="6.5" width="2.6" height="7.5" rx="0.6" fill="#3fb0ac"/></g><text x="279.0" y="355.5" font-size="10.5" fill="#242424">Error rate</text><text x="409.0" y="355.5" font-size="10.5" font-weight="600" fill="#c26a00" text-anchor="end">15</text><line x1="237.0" y1="361.0" x2="411.0" y2="361.0" stroke="#e6e4e2" stroke-opacity="0.7"/><circle cx="243.0" cy="370.0" r="6" fill="#4c9a2a"/><path d="M240.3 370.0 l1.9 1.9 l3.4 -3.9" fill="none" stroke="#ffffff" stroke-width="1.4" stroke-linecap="round" stroke-linejoin="round"/><g transform="translate(259.0,363.0) scale(0.875)"><rect x="1.5" y="8" width="2.6" height="6" rx="0.6" fill="#8661c5"/><rect x="5.7" y="4.5" width="2.6" height="9.5" rx="0.6" fill="#0078D4"/><rect x="9.9" y="6.5" width="2.6" height="7.5" rx="0.6" fill="#3fb0ac"/></g><text x="279.0" y="373.5" font-size="10.5" fill="#242424">Request rate</text><text x="409.0" y="373.5" font-size="10.5" font-weight="400" fill="#605e5c" text-anchor="end">2</text>
<g filter="url(#cs)"><rect x="451.0" y="300.0" width="171" height="85" rx="10" fill="#f2f8f2" stroke="#a0d8a0" stroke-width="2"/></g><g transform="translate(457.0,307.16) scale(0.82)"><ellipse cx="12" cy="6" rx="7" ry="2.8" fill="none" stroke="#605e5c" stroke-width="1.6" stroke-linecap="round" stroke-linejoin="round"/><path d="M5 6v12c0 1.55 3.13 2.8 7 2.8s7-1.25 7-2.8V6" fill="none" stroke="#605e5c" stroke-width="1.6" stroke-linecap="round" stroke-linejoin="round"/><path d="M5 12c0 1.55 3.13 2.8 7 2.8s7-1.25 7-2.8" fill="none" stroke="#605e5c" stroke-width="1.6" stroke-linecap="round" stroke-linejoin="round"/></g><text x="485.0" y="320.5" font-size="12.5" font-weight="600" fill="#242424">Database</text><rect x="549.7" y="308.00" width="64.3" height="18" rx="9" fill="#ffffff" stroke="#a0d8a0" stroke-width="1"/><circle cx="560.7" cy="317.0" r="6" fill="#4c9a2a"/><path d="M558.0 317.0 l1.9 1.9 l3.4 -3.9" fill="none" stroke="#ffffff" stroke-width="1.4" stroke-linecap="round" stroke-linejoin="round"/><text x="569.7" y="320.57" font-size="10.5" fill="#323130">Healthy</text><line x1="452.0" y1="337.0" x2="621.0" y2="337.0" stroke="#e6e4e2"/><circle cx="467.0" cy="352.0" r="6" fill="#4c9a2a"/><path d="M464.3 352.0 l1.9 1.9 l3.4 -3.9" fill="none" stroke="#ffffff" stroke-width="1.4" stroke-linecap="round" stroke-linejoin="round"/><g transform="translate(483.0,345.0) scale(0.875)"><rect x="1.5" y="8" width="2.6" height="6" rx="0.6" fill="#8661c5"/><rect x="5.7" y="4.5" width="2.6" height="9.5" rx="0.6" fill="#0078D4"/><rect x="9.9" y="6.5" width="2.6" height="7.5" rx="0.6" fill="#3fb0ac"/></g><text x="503.0" y="355.5" font-size="10.5" fill="#242424">DTU utilization</text><text x="610.0" y="355.5" font-size="10.5" font-weight="400" fill="#605e5c" text-anchor="end">0</text><line x1="461.0" y1="361.0" x2="612.0" y2="361.0" stroke="#e6e4e2" stroke-opacity="0.7"/><circle cx="467.0" cy="370.0" r="6" fill="#4c9a2a"/><path d="M464.3 370.0 l1.9 1.9 l3.4 -3.9" fill="none" stroke="#ffffff" stroke-width="1.4" stroke-linecap="round" stroke-linejoin="round"/><g transform="translate(483.0,363.0) scale(0.875)"><rect x="1.5" y="8" width="2.6" height="6" rx="0.6" fill="#8661c5"/><rect x="5.7" y="4.5" width="2.6" height="9.5" rx="0.6" fill="#0078D4"/><rect x="9.9" y="6.5" width="2.6" height="7.5" rx="0.6" fill="#3fb0ac"/></g><text x="503.0" y="373.5" font-size="10.5" fill="#242424">Replication lag</text><text x="610.0" y="373.5" font-size="10.5" font-weight="400" fill="#605e5c" text-anchor="end">0</text>
<g filter="url(#cs)"><rect x="213.2" y="186.0" width="213" height="58" rx="10" fill="#fbf2e7" stroke="#db7500" stroke-width="2"/></g><g transform="translate(219.2,205.16) scale(0.82)"><circle cx="5.5" cy="6" r="2" fill="none" stroke="#605e5c" stroke-width="1.6" stroke-linecap="round" stroke-linejoin="round"/><circle cx="5.5" cy="18" r="2" fill="none" stroke="#605e5c" stroke-width="1.6" stroke-linecap="round" stroke-linejoin="round"/><circle cx="18.5" cy="12" r="2" fill="none" stroke="#605e5c" stroke-width="1.6" stroke-linecap="round" stroke-linejoin="round"/><path d="M7.5 6h3a4 4 0 0 1 4 4M7.5 18h3a4 4 0 0 0 4-4" fill="none" stroke="#605e5c" stroke-width="1.6" stroke-linecap="round" stroke-linejoin="round"/></g><text x="247.2" y="218.5" font-size="12.5" font-weight="600" fill="#242424">Checkout flow</text><rect x="343.1" y="206.00" width="75.0" height="18" rx="9" fill="#ffffff" stroke="#db7500" stroke-width="1"/><circle cx="354.1" cy="215.0" r="6" fill="#c26a00"/><text x="363.1" y="218.57" font-size="10.5" fill="#323130">Degraded</text>
<g filter="url(#cs)"><rect x="213.7" y="96.0" width="212" height="58" rx="10" fill="#fbf2e7" stroke="#db7500" stroke-width="2"/></g><g transform="translate(219.7,115.16) scale(0.82)"><circle cx="12" cy="12" r="8.4" fill="none" stroke="#605e5c" stroke-width="1.6" stroke-linecap="round" stroke-linejoin="round"/><path d="M4.2 12h3l2-3.6 2.8 7.2 1.8-3.6h4" fill="none" stroke="#605e5c" stroke-width="1.6" stroke-linecap="round" stroke-linejoin="round"/></g><text x="247.7" y="123.0" font-size="12.5" font-weight="600" fill="#242424">Workload root</text><text x="247.7" y="135.0" font-size="9" fill="#605e5c">worstOf</text><rect x="342.6" y="116.00" width="75.0" height="18" rx="9" fill="#ffffff" stroke="#db7500" stroke-width="1"/><circle cx="353.6" cy="125.0" r="6" fill="#c26a00"/><text x="362.6" y="128.57" font-size="10.5" fill="#323130">Degraded</text>
</g></svg>