<svg xmlns="http://www.w3.org/2000/svg" width="1021" height="1233" viewBox="0 0 1021 1233" font-family="Segoe UI, -apple-system, BlinkMacSystemFont, Helvetica, Arial, sans-serif">
<defs><filter id="cs" x="-20%" y="-20%" width="140%" height="140%"><feDropShadow dx="0" dy="1" stdDeviation="1.3" flood-color="#000" flood-opacity="0.1"/></filter></defs>
<rect width="1021" height="1233" fill="#ffffff"/>
<rect x="0" y="78.0" width="1021" height="149.0" fill="#ffffff"/>
<line x1="0" y1="78.0" x2="1021" y2="78.0" stroke="#e6e4e2"/>
<text x="854.6" y="157.0" font-size="13" font-weight="700" fill="#323130">Workload root</text>
<rect x="0" y="227.0" width="1021" height="302.0" fill="#faf9f8"/>
<line x1="0" y1="227.0" x2="1021" y2="227.0" stroke="#e6e4e2"/>
<text x="854.6" y="382.5" font-size="13" font-weight="700" fill="#323130">Business &amp; user flows</text>
<rect x="0" y="529.0" width="1021" height="686.0" fill="#ffffff"/>
<line x1="0" y1="529.0" x2="1021" y2="529.0" stroke="#e6e4e2"/>
<text x="854.6" y="868.0" font-size="13" font-weight="700" fill="#323130">Application</text>
<text x="854.6" y="885.0" font-size="13" font-weight="700" fill="#323130">components</text>
<line x1="0" y1="1232.5" x2="1021" y2="1232.5" stroke="#e6e4e2"/>
<text x="40" y="34" font-size="18" font-weight="700" fill="#242424">Kitchen sink health model</text>
<text x="40" y="52" font-size="12" fill="#605e5c">Signals live inside each entity; health rolls up to the workload root.</text>
<text x="617.2" y="48" font-size="11.5" font-weight="600" fill="#605e5c" text-anchor="end">Legend</text>
<circle cx="635.2" cy="44" r="4.5" fill="#4c9a2a"/>
<text x="645.2" y="48" font-size="11.5" fill="#323130">Healthy</text>
<circle cx="701.0" cy="44" r="4.5" fill="#c26a00"/>
<text x="711.0" y="48" font-size="11.5" fill="#323130">Degraded</text>
<circle cx="778.5" cy="44" r="4.5" fill="#c50f18"/>
<text x="788.5" y="48" font-size="11.5" fill="#323130">Unhealthy</text>
<circle cx="857.3" cy="44" r="4.5" fill="#8a8886"/>
<text x="867.3" y="48" font-size="11.5" fill="#323130">Unknown</text>
<g transform="translate(926.2,37.0) scale(0.875)"><rect x="1.5" y="8" width="2.6" height="6" rx="0.6" fill="#8661c5"/><rect x="5.7" y="4.5" width="2.6" height="9.5" rx="0.6" fill="#0078D4"/><rect x="9.9" y="6.5" width="2.6" height="7.5" rx="0.6" fill="#3fb0ac"/></g>
<text x="944.2" y="48" font-size="11.5" fill="#323130">Metric</text>
<g transform="translate(40.0,0)">
<g fill="none" stroke-linecap="butt" stroke-linejoin="round">
<path d="M197.6 740.0 L197.6 695.0 Q197.6 688.0 204.6 688.0 L535.6 688.0" stroke="#a0d8a0" stroke-width="1.7"/>
<path d="M535.6 688.0 L535.6 491.0 Q535.6 484.0 528.6 484.0 L434.5 484.0 Q427.5 484.0 427.5 477.0 L427.5 303.0" stroke="#605e5c" stroke-width="1.7"/>
<path d="M203.1 547.0 L203.1 483.0 Q203.1 476.0 210.1 476.0 L427.5 476.0" stroke="#a0d8a0" stroke-width="1.7"/>
<path d="M427.5 476.0 L427.5 303.0" stroke="#605e5c" stroke-width="1.7"/>
<path d="M427.5 547.0 L427.5 303.0" stroke="#605e5c" stroke-width="1.7"/>
<path d="M203.6 740.0 L203.6 699.0 Q203.6 692.0 210.6 692.0 L766.6 692.0" stroke="#a0d8a0" stroke-width="1.7"/>
<path d="M766.6 692.0 L766.6 481.1 Q766.6 476.0 761.6 476.0 L761.6 476.0 Q756.5 476.0 756.5 470.9 L756.5 354.0 Q756.5 350.0 752.5 350.0 L752.5 350.0 Q748.5 350.0 748.5 346.0 L748.5 303.0" stroke="#605e5c" stroke-width="1.7"/>
<path d="M418.1 740.0 L418.1 703.0 Q418.1 696.0 425.1 696.0 L766.6 696.0" stroke="#a0d8a0" stroke-width="1.7"/>
<path d="M766.6 696.0 L766.6 481.1 Q766.6 476.0 761.6 476.0 L761.6 476.0 Q756.5 476.0 756.5 470.9 L756.5 354.0 Q756.5 350.0 752.5 350.0 L752.5 350.0 Q748.5 350.0 748.5 346.0 L748.5 303.0" stroke="#605e5c" stroke-width="1.7"/>
<path d="M295.6 939.0 L295.6 703.0 Q295.6 696.0 302.6 696.0 L304.6 696.0 Q311.6 696.0 311.6 689.0 L311.6 456.0" stroke="#605e5c" stroke-width="1.7"/>
<path d="M607.6 939.0 L607.6 906.0 Q607.6 899.0 600.6 899.0 L295.6 899.0" stroke="#db7500" stroke-width="1.7"/>
<path d="M295.6 899.0 L295.6 703.0 Q295.6 696.0 302.6 696.0 L304.6 696.0 Q311.6 696.0 311.6 689.0 L311.6 456.0" stroke="#605e5c" stroke-width="1.7"/>
<path d="M651.1 740.0 L651.1 711.0 Q651.1 704.0 644.1 704.0 L311.6 704.0" stroke="#db7500" stroke-width="1.7"/>
<path d="M311.6 704.0 L311.6 456.0" stroke="#605e5c" stroke-width="1.7"/>
<path d="M304.1 1098.0 L304.1 1069.0 Q304.1 1062.0 311.1 1062.0 L467.1 1062.0" stroke="#a0d8a0" stroke-width="1.7"/>
<path d="M467.1 1062.0 L467.1 910.0 Q467.1 903.0 460.1 903.0 L311.6 903.0 Q304.6 903.0 304.6 896.0 L304.6 707.0 Q304.6 700.0 311.6 700.0 L311.6 700.0 Q318.6 700.0 318.6 693.0 L318.6 487.0 Q318.6 480.0 325.6 480.0 L442.5 480.0 Q449.5 480.0 449.5 473.0 L449.5 456.0" stroke="#605e5c" stroke-width="1.7"/>
<path d="M467.1 1098.0 L467.1 910.0 Q467.1 903.0 460.1 903.0 L311.6 903.0 Q304.6 903.0 304.6 896.0 L304.6 707.0 Q304.6 700.0 311.6 700.0 L311.6 700.0 Q318.6 700.0 318.6 693.0 L318.6 487.0 Q318.6 480.0 325.6 480.0 L442.5 480.0 Q449.5 480.0 449.5 473.0 L449.5 456.0" stroke="#605e5c" stroke-width="1.7"/>
<path d="M430.5 245.0 L430.5 185.0 Q430.5 178.0 423.5 178.0 L300.5 178.0" stroke="#a0d8a0" stroke-width="1.7"/>
<path d="M300.5 178.0 L300.5 180.0 Q300.5 182.0 302.5 182.0 L315.5 182.0 Q322.5 182.0 322.5 175.0 L322.5 154.0" stroke="#605e5c" stroke-width="1.7"/>
<path d="M168.0 245.0 L168.0 181.0 Q168.0 174.0 175.0 174.0 L300.5 174.0" stroke="#8661c5" stroke-width="1.7"/>
<path d="M300.5 174.0 L300.5 178.0 Q300.5 182.0 304.5 182.0 L315.5 182.0 Q322.5 182.0 322.5 175.0 L322.5 154.0" stroke="#605e5c" stroke-width="1.7"/>
<path d="M562.0 398.0 L562.0 357.0 Q562.0 350.0 555.0 350.0 L300.5 350.0" stroke="#c8c6c4" stroke-width="1.7"/>
<path d="M300.5 350.0 L300.5 189.0 Q300.5 182.0 307.5 182.0 L315.5 182.0 Q322.5 182.0 322.5 175.0 L322.5 154.0" stroke="#605e5c" stroke-width="1.7"/>
<path d="M300.5 398.0 L300.5 189.0 Q300.5 182.0 307.5 182.0 L315.5 182.0 Q322.5 182.0 322.5 175.0 L322.5 154.0" stroke="#605e5c" stroke-width="1.7"/>
<path d="M567.6 547.0 L567.6 512.5 Q567.6 505.5 560.6 505.5 L427.5 505.5 Q420.5 505.5 420.5 498.5 L420.5 367.0 Q420.5 364.0 417.5 364.0 L417.5 364.0 Q414.5 364.0 414.5 361.0 L414.5 303.0" stroke="#ba0d16" stroke-width="1.6" stroke-dasharray="5 4"/>
<path d="M673.5 245.0 L673.5 210.5 Q673.5 203.5 666.5 203.5 L517.5 203.5 Q510.5 203.5 510.5 196.5 L510.5 154.0" stroke="#db7500" stroke-width="1.6" stroke-dasharray="5 4"/>
</g>
<g stroke="none"><rect x="539.1" y="495.5" width="119.4" height="20" rx="10" fill="#ffffff" stroke="#d8d6d4" stroke-width="1"/><text x="598.8" y="509.1" font-size="10.5" font-weight="600" fill="#242424" text-anchor="middle">limited propagation</text></g>
<g stroke="none"><rect x="601.0" y="193.5" width="145.0" height="20" rx="10" fill="#ffffff" stroke="#d8d6d4" stroke-width="1"/><text x="673.5" y="207.1" font-size="10.5" font-weight="600" fill="#242424" text-anchor="middle">suppressed propagation</text></g>
<g filter="url(#cs)"><rect x="104.6" y="547.0" width="197" height="121" rx="10" fill="#f2f8f2" stroke="#a0d8a0" stroke-width="2"/></g><g transform="translate(110.6,554.16) scale(0.82)"><circle cx="12" cy="12" r="8.4" fill="none" stroke="#605e5c" stroke-width="1.6" stroke-linecap="round" stroke-linejoin="round"/><path d="M3.6 12h16.8M12 3.6c3 3 3 13.8 0 16.8M12 3.6c-3 3-3 13.8 0 16.8" fill="none" stroke="#605e5c" stroke-width="1.6" stroke-linecap="round" stroke-linejoin="round"/></g><text x="138.6" y="567.5" font-size="12.5" font-weight="600" fill="#242424">Web frontend</text><rect x="229.3" y="555.00" width="64.3" height="18" rx="9" fill="#ffffff" stroke="#a0d8a0" stroke-width="1"/><circle cx="240.3" cy="564.0" r="6" fill="#4c9a2a"/><path d="M237.6 564.0 l1.9 1.9 l3.4 -3.9" fill="none" stroke="#ffffff" stroke-width="1.4" stroke-linecap="round" stroke-linejoin="round"/><text x="249.3" y="567.57" font-size="10.5" fill="#323130">Healthy</text><line x1="105.6" y1="584.0" x2="300.6" y2="584.0" stroke="#e6e4e2"/><circle cx="120.6" cy="599.0" r="6" fill="#4c9a2a"/><path d="M117.9 599.0 l1.9 1.9 l3.4 -3.9" fill="none" stroke="#ffffff" stroke-width="1.4" stroke-linecap="round" stroke-linejoin="round"/><g transform="translate(136.6,592.0) scale(0.875)"><rect x="1.5" y="8" width="2.6" height="6" rx="0.6" fill="#8661c5"/><rect x="5.7" y="4.5" width="2.6" height="9.5" rx="0.6" fill="#0078D4"/><rect x="9.9" y="6.5" width="2.6" height="7.5" rx="0.6" fill="#3fb0ac"/></g><text x="156.6" y="602.5" font-size="10.5" fill="#242424">Web latency</text><text x="289.6" y="602.5" font-size="10.5" font-weight="400" fill="#605e5c" text-anchor="end">2</text><line x1="114.6" y1="608.0" x2="291.6" y2="608.0" stroke="#e6e4e2" stroke-opacity="0.7"/><circle cx="120.6" cy="617.0" r="6" fill="#4c9a2a"/><path d="M117.9 617.0 l1.9 1.9 l3.4 -3.9" fill="none" stroke="#ffffff" stroke-width="1.4" stroke-linecap="round" stroke-linejoin="round"/><g transform="translate(136.6,610.0) scale(0.875)"><rect x="1.5" y="8" width="2.6" height="6" rx="0.6" fill="#8661c5"/><rect x="5.7" y="4.5" width="2.6" height="9.5" rx="0.6" fill="#0078D4"/><rect x="9.9" y="6.5" width="2.6" height="7.5" rx="0.6" fill="#3fb0ac"/></g><text x="156.6" y="620.5" font-size="10.5" fill="#242424">HTTP 5xx rate</text><text x="289.6" y="620.5" font-size="10.5" font-weight="400" fill="#605e5c" text-anchor="end">1</text><line x1="114.6" y1="626.0" x2="291.6" y2="626.0" stroke="#e6e4e2" stroke-opacity="0.7"/><circle cx="120.6" cy="635.0" r="6" fill="#4c9a2a"/><path d="M117.9 635.0 l1.9 1.9 l3.4 -3.9" fill="none" stroke="#ffffff" stroke-width="1.4" stroke-linecap="round" stroke-linejoin="round"/><g transform="translate(136.6,628.0) scale(0.875)"><rect x="1.5" y="8" width="2.6" height="6" rx="0.6" fill="#8661c5"/><rect x="5.7" y="4.5" width="2.6" height="9.5" rx="0.6" fill="#0078D4"/><rect x="9.9" y="6.5" width="2.6" height="7.5" rx="0.6" fill="#3fb0ac"/></g><text x="156.6" y="638.5" font-size="10.5" fill="#242424">Request rate</text><text x="289.6" y="638.5" font-size="10.5" font-weight="400" fill="#605e5c" text-anchor="end">2</text><line x1="114.6" y1="644.0" x2="291.6" y2="644.0" stroke="#e6e4e2" stroke-opacity="0.7"/><circle cx="120.6" cy="653.0" r="6" fill="#4c9a2a"/><path d="M117.9 653.0 l1.9 1.9 l3.4 -3.9" fill="none" stroke="#ffffff" stroke-width="1.4" stroke-linecap="round" stroke-linejoin="round"/><g transform="translate(136.6,646.0) scale(0.875)"><rect x="1.5" y="8" width="2.6" height="6" rx="0.6" fill="#8661c5"/><rect x="5.7" y="4.5" width="2.6" height="9.5" rx="0.6" fill="#0078D4"/><rect x="9.9" y="6.5" width="2.6" height="7.5" rx="0.6" fill="#3fb0ac"/></g><text x="156.6" y="656.5" font-size="10.5" fill="#242424">Availability</text><text x="289.6" y="656.5" font-size="10.5" font-weight="400" fill="#605e5c" text-anchor="end">0</text>
<g filter="url(#cs)"><rect x="331.6" y="547.0" width="194" height="121" rx="10" fill="#fbf2e7" stroke="#db7500" stroke-width="2"/></g><g transform="translate(337.6,554.16) scale(0.82)"><path d="M13 2.5 5.5 13.5H11l-1 8 8.5-12H12z" fill="none" stroke="#605e5c" stroke-width="1.6" stroke-linecap="round" stroke-linejoin="round"/></g><text x="365.6" y="567.5" font-size="12.5" font-weight="600" fill="#242424">API service</text><rect x="442.6" y="555.00" width="75.0" height="18" rx="9" fill="#ffffff" stroke="#db7500" stroke-width="1"/><circle cx="453.6" cy="564.0" r="6" fill="#c26a00"/><text x="462.6" y="567.57" font-size="10.5" fill="#323130">Degraded</text><line x1="332.6" y1="584.0" x2="524.6" y2="584.0" stroke="#e6e4e2"/><circle cx="347.6" cy="599.0" r="6" fill="#c26a00"/><g transform="translate(363.6,592.0) scale(0.875)"><rect x="1.5" y="8" width="2.6" height="6" rx="0.6" fill="#8661c5"/><rect x="5.7" y="4.5" width="2.6" height="9.5" rx="0.6" fill="#0078D4"/><rect x="9.9" y="6.5" width="2.6" height="7.5" rx="0.6" fill="#3fb0ac"/></g><text x="383.6" y="602.5" font-size="10.5" fill="#242424">Request rate</text><text x="513.6" y="602.5" font-size="10.5" font-weight="600" fill="#c26a00" text-anchor="end">19</text><line x1="341.6" y1="608.0" x2="515.6" y2="608.0" stroke="#e6e4e2" stroke-opacity="0.7"/><circle cx="347.6" cy="617.0" r="6" fill="#4c9a2a"/><path d="M344.9 617.0 l1.9 1.9 l3.4 -3.9" fill="none" stroke="#ffffff" stroke-width="1.4" stroke-linecap="round" stroke-linejoin="round"/><g transform="translate(363.6,610.0) scale(0.875)"><rect x="1.5" y="8" width="2.6" height="6" rx="0.6" fill="#8661c5"/><rect x="5.7" y="4.5" width="2.6" height="9.5" rx="0.6" fill="#0078D4"/><rect x="9.9" y="6.5" width="2.6" height="7.5" rx="0.6" fill="#3fb0ac"/></g><text x="383.6" y="620.5" font-size="10.5" fill="#242424">P95 latency</text><text x="513.6" y="620.5" font-size="10.5" font-weight="400" fill="#605e5c" text-anchor="end">2</text><line x1="341.6" y1="626.0" x2="515.6" y2="626.0" stroke="#e6e4e2" stroke-opacity="0.7"/><circle cx="347.6" cy="635.0" r="6" fill="#4c9a2a"/><path d="M344.9 635.0 l1.9 1.9 l3.4 -3.9" fill="none" stroke="#ffffff" stroke-width="1.4" stroke-linecap="round" stroke-linejoin="round"/><g transform="translate(363.6,628.0) scale(0.875)"><rect x="1.5" y="8" width="2.6" height="6" rx="0.6" fill="#8661c5"/><rect x="5.7" y="4.5" width="2.6" height="9.5" rx="0.6" fill="#0078D4"/><rect x="9.9" y="6.5" width="2.6" height="7.5" rx="0.6" fill="#3fb0ac"/></g><text x="383.6" y="638.5" font-size="10.5" fill="#242424">429 rate</text><text x="513.6" y="638.5" font-size="10.5" font-weight="400" fill="#605e5c" text-anchor="end">0</text><line x1="341.6" y1="644.0" x2="515.6" y2="644.0" stroke="#e6e4e2" stroke-opacity="0.7"/><circle cx="347.6" cy="653.0" r="6" fill="#4c9a2a"/><path d="M344.9 653.0 l1.9 1.9 l3.4 -3.9" fill="none" stroke="#ffffff" stroke-width="1.4" stroke-linecap="round" stroke-linejoin="round"/><g transform="translate(363.6,646.0) scale(0.875)"><rect x="1.5" y="8" width="2.6" height="6" rx="0.6" fill="#8661c5"/><rect x="5.7" y="4.5" width="2.6" height="9.5" rx="0.6" fill="#0078D4"/><rect x="9.9" y="6.5" width="2.6" height="7.5" rx="0.6" fill="#3fb0ac"/></g><text x="383.6" y="656.5" font-size="10.5" fill="#242424">Error rate</text><text x="513.6" y="656.5" font-size="10.5" font-weight="400" fill="#605e5c" text-anchor="end">1</text>
<g filter="url(#cs)"><rect x="109.6" y="740.0" width="176" height="139" rx="10" fill="#f2f8f2" stroke="#a0d8a0" stroke-width="2"/></g><g transform="translate(115.6,747.16) scale(0.82)"><ellipse cx="12" cy="6" rx="7" ry="2.8" fill="none" stroke="#605e5c" stroke-width="1.6" stroke-linecap="round" stroke-linejoin="round"/><path d="M5 6v12c0 1.55 3.13 2.8 7 2.8s7-1.25 7-2.8V6" fill="none" stroke="#605e5c" stroke-width="1.6" stroke-linecap="round" stroke-linejoin="round"/><path d="M5 12c0 1.55 3.13 2.8 7 2.8s7-1.25 7-2.8" fill="none" stroke="#605e5c" stroke-width="1.6" stroke-linecap="round" stroke-linejoin="round"/></g><text x="143.6" y="760.5" font-size="12.5" font-weight="600" fill="#242424">Database</text><rect x="213.3" y="748.00" width="64.3" height="18" rx="9" fill="#ffffff" stroke="#a0d8a0" stroke-width="1"/><circle cx="224.3" cy="757.0" r="6" fill="#4c9a2a"/><path d="M221.6 757.0 l1.9 1.9 l3.4 -3.9" fill="none" stroke="#ffffff" stroke-width="1.4" stroke-linecap="round" stroke-linejoin="round"/><text x="233.3" y="760.57" font-size="10.5" fill="#323130">Healthy</text><line x1="110.6" y1="777.0" x2="284.6" y2="777.0" stroke="#e6e4e2"/><circle cx="125.6" cy="792.0" r="6" fill="#4c9a2a"/><path d="M122.9 792.0 l1.9 1.9 l3.4 -3.9" fill="none" stroke="#ffffff" stroke-width="1.4" stroke-linecap="round" stroke-linejoin="round"/><g transform="translate(141.6,785.0) scale(0.875)"><rect x="1.5" y="8" width="2.6" height="6" rx="0.6" fill="#8661c5"/><rect x="5.7" y="4.5" width="2.6" height="9.5" rx="0.6" fill="#0078D4"/><rect x="9.9" y="6.5" width="2.6" height="7.5" rx="0.6" fill="#3fb0ac"/></g><text x="161.6" y="795.5" font-size="10.5" fill="#242424">Connection pool</text><text x="273.6" y="795.5" font-size="10.5" font-weight="400" fill="#605e5c" text-anchor="end">0</text><line x1="119.6" y1="801.0" x2="275.6" y2="801.0" stroke="#e6e4e2" stroke-opacity="0.7"/><circle cx="125.6" cy="810.0" r="6" fill="#4c9a2a"/><path d="M122.9 810.0 l1.9 1.9 l3.4 -3.9" fill="none" stroke="#ffffff" stroke-width="1.4" stroke-linecap="round" stroke-linejoin="round"/><g transform="translate(141.6,803.0) scale(0.875)"><rect x="1.5" y="8" width="2.6" height="6" rx="0.6" fill="#8661c5"/><rect x="5.7" y="4.5" width="2.6" height="9.5" rx="0.6" fill="#0078D4"/><rect x="9.9" y="6.5" width="2.6" height="7.5" rx="0.6" fill="#3fb0ac"/></g><text x="161.6" y="813.5" font-size="10.5" fill="#242424">DTU utilization</text><text x="273.6" y="813.5" font-size="10.5" font-weight="400" fill="#605e5c" text-anchor="end">0</text><line x1="119.6" y1="819.0" x2="275.6" y2="819.0" stroke="#e6e4e2" stroke-opacity="0.7"/><circle cx="125.6" cy="828.0" r="6" fill="#4c9a2a"/><path d="M122.9 828.0 l1.9 1.9 l3.4 -3.9" fill="none" stroke="#ffffff" stroke-width="1.4" stroke-linecap="round" stroke-linejoin="round"/><g transform="translate(141.6,821.0) scale(0.875)"><rect x="1.5" y="8" width="2.6" height="6" rx="0.6" fill="#8661c5"/><rect x="5.7" y="4.5" width="2.6" height="9.5" rx="0.6" fill="#0078D4"/><rect x="9.9" y="6.5" width="2.6" height="7.5" rx="0.6" fill="#3fb0ac"/></g><text x="161.6" y="831.5" font-size="10.5" fill="#242424">Failed connections</text><text x="273.6" y="831.5" font-size="10.5" font-weight="400" fill="#605e5c" text-anchor="end">2</text><line x1="119.6" y1="837.0" x2="275.6" y2="837.0" stroke="#e6e4e2" stroke-opacity="0.7"/><circle cx="125.6" cy="846.0" r="6" fill="#4c9a2a"/><path d="M122.9 846.0 l1.9 1.9 l3.4 -3.9" fill="none" stroke="#ffffff" stroke-width="1.4" stroke-linecap="round" stroke-linejoin="round"/><g transform="translate(141.6,839.0) scale(0.875)"><rect x="1.5" y="8" width="2.6" height="6" rx="0.6" fill="#8661c5"/><rect x="5.7" y="4.5" width="2.6" height="9.5" rx="0.6" fill="#0078D4"/><rect x="9.9" y="6.5" width="2.6" height="7.5" rx="0.6" fill="#3fb0ac"/></g><text x="161.6" y="849.5" font-size="10.5" fill="#242424">Replication lag</text><text x="273.6" y="849.5" font-size="10.5" font-weight="400" fill="#605e5c" text-anchor="end">0</text><line x1="119.6" y1="855.0" x2="275.6" y2="855.0" stroke="#e6e4e2" stroke-opacity="0.7"/><circle cx="125.6" cy="864.0" r="6" fill="#4c9a2a"/><path d="M122.9 864.0 l1.9 1.9 l3.4 -3.9" fill="none" stroke="#ffffff" stroke-width="1.4" stroke-linecap="round" stroke-linejoin="round"/><g transform="translate(141.6,857.0) scale(0.875)"><rect x="1.5" y="8" width="2.6" height="6" rx="0.6" fill="#8661c5"/><rect x="5.7" y="4.5" width="2.6" height="9.5" rx="0.6" fill="#0078D4"/><rect x="9.9" y="6.5" width="2.6" height="7.5" rx="0.6" fill="#3fb0ac"/></g><text x="161.6" y="867.5" font-size="10.5" fill="#242424">Deadlocks</text><text x="273.6" y="867.5" font-size="10.5" font-weight="400" fill="#605e5c" text-anchor="end">0</text>
<g filter="url(#cs)"><rect x="555.6" y="547.0" width="201" height="103" rx="10" fill="#faeceb" stroke="#ba0d16" stroke-width="2"/></g><g transform="translate(561.6,554.16) scale(0.82)"><rect x="3.5" y="4" width="17" height="16" rx="2" fill="none" stroke="#605e5c" stroke-width="1.6" stroke-linecap="round" stroke-linejoin="round"/><path d="M8 4v16M3.5 9.5h4M3.5 14.5h4" fill="none" stroke="#605e5c" stroke-width="1.6" stroke-linecap="round" stroke-linejoin="round"/></g><text x="589.6" y="567.5" font-size="12.5" font-weight="600" fill="#242424">Redis cache</text><rect x="672.4" y="555.00" width="76.2" height="18" rx="9" fill="#ffffff" stroke="#ba0d16" stroke-width="1"/><circle cx="683.4" cy="564.0" r="6" fill="#c50f18"/><text x="692.4" y="567.57" font-size="10.5" fill="#323130">Unhealthy</text><line x1="556.6" y1="584.0" x2="755.6" y2="584.0" stroke="#e6e4e2"/><circle cx="571.6" cy="599.0" r="6" fill="#c50f18"/><g transform="translate(587.6,592.0) scale(0.875)"><rect x="1.5" y="8" width="2.6" height="6" rx="0.6" fill="#8661c5"/><rect x="5.7" y="4.5" width="2.6" height="9.5" rx="0.6" fill="#0078D4"/><rect x="9.9" y="6.5" width="2.6" height="7.5" rx="0.6" fill="#3fb0ac"/></g><text x="607.6" y="602.5" font-size="10.5" fill="#242424">Hit ratio</text><text x="744.6" y="602.5" font-size="10.5" font-weight="600" fill="#c50f18" text-anchor="end">116</text><line x1="565.6" y1="608.0" x2="746.6" y2="608.0" stroke="#e6e4e2" stroke-opacity="0.7"/><circle cx="571.6" cy="617.0" r="6" fill="#4c9a2a"/><path d="M568.9 617.0 l1.9 1.9 l3.4 -3.9" fill="none" stroke="#ffffff" stroke-width="1.4" stroke-linecap="round" stroke-linejoin="round"/><g transform="translate(587.6,610.0) scale(0.875)"><rect x="1.5" y="8" width="2.6" height="6" rx="0.6" fill="#8661c5"/><rect x="5.7" y="4.5" width="2.6" height="9.5" rx="0.6" fill="#0078D4"/><rect x="9.9" y="6.5" width="2.6" height="7.5" rx="0.6" fill="#3fb0ac"/></g><text x="607.6" y="620.5" font-size="10.5" fill="#242424">Eviction rate</text><text x="744.6" y="620.5" font-size="10.5" font-weight="400" fill="#605e5c" text-anchor="end">1</text><line x1="565.6" y1="626.0" x2="746.6" y2="626.0" stroke="#e6e4e2" stroke-opacity="0.7"/><circle cx="571.6" cy="635.0" r="6" fill="#4c9a2a"/><path d="M568.9 635.0 l1.9 1.9 l3.4 -3.9" fill="none" stroke="#ffffff" stroke-width="1.4" stroke-linecap="round" stroke-linejoin="round"/><g transform="translate(587.6,628.0) scale(0.875)"><rect x="1.5" y="8" width="2.6" height="6" rx="0.6" fill="#8661c5"/><rect x="5.7" y="4.5" width="2.6" height="9.5" rx="0.6" fill="#0078D4"/><rect x="9.9" y="6.5" width="2.6" height="7.5" rx="0.6" fill="#3fb0ac"/></g><text x="607.6" y="638.5" font-size="10.5" fill="#242424">Memory pressure</text><text x="744.6" y="638.5" font-size="10.5" font-weight="400" fill="#605e5c" text-anchor="end">0</text>
<g filter="url(#cs)"><rect x="550.6" y="740.0" width="201" height="103" rx="10" fill="#fbf2e7" stroke="#db7500" stroke-width="2"/></g><g transform="translate(556.6,747.16) scale(0.82)"><rect x="4" y="5" width="16" height="3" rx="1" fill="none" stroke="#605e5c" stroke-width="1.6" stroke-linecap="round" stroke-linejoin="round"/><rect x="4" y="10.5" width="16" height="3" rx="1" fill="none" stroke="#605e5c" stroke-width="1.6" stroke-linecap="round" stroke-linejoin="round"/><rect x="4" y="16" width="10" height="3" rx="1" fill="none" stroke="#605e5c" stroke-width="1.6" stroke-linecap="round" stroke-linejoin="round"/></g><text x="584.6" y="760.5" font-size="12.5" font-weight="600" fill="#242424">Order queue</text><rect x="668.6" y="748.00" width="75.0" height="18" rx="9" fill="#ffffff" stroke="#db7500" stroke-width="1"/><circle cx="679.6" cy="757.0" r="6" fill="#c26a00"/><text x="688.6" y="760.57" font-size="10.5" fill="#323130">Degraded</text><line x1="551.6" y1="777.0" x2="750.6" y2="777.0" stroke="#e6e4e2"/><circle cx="566.6" cy="792.0" r="6" fill="#c26a00"/><g transform="translate(582.6,785.0) scale(0.875)"><rect x="1.5" y="8" width="2.6" height="6" rx="0.6" fill="#8661c5"/><rect x="5.7" y="4.5" width="2.6" height="9.5" rx="0.6" fill="#0078D4"/><rect x="9.9" y="6.5" width="2.6" height="7.5" rx="0.6" fill="#3fb0ac"/></g><text x="602.6" y="795.5" font-size="10.5" fill="#242424">Queue depth</text><text x="739.6" y="795.5" font-size="10.5" font-weight="600" fill="#c26a00" text-anchor="end">18</text><line x1="560.6" y1="801.0" x2="741.6" y2="801.0" stroke="#e6e4e2" stroke-opacity="0.7"/><circle cx="566.6" cy="810.0" r="6" fill="#4c9a2a"/><path d="M563.9 810.0 l1.9 1.9 l3.4 -3.9" fill="none" stroke="#ffffff" stroke-width="1.4" stroke-linecap="round" stroke-linejoin="round"/><g transform="translate(582.6,803.0) scale(0.875)"><rect x="1.5" y="8" width="2.6" height="6" rx="0.6" fill="#8661c5"/><rect x="5.7" y="4.5" width="2.6" height="9.5" rx="0.6" fill="#0078D4"/><rect x="9.9" y="6.5" width="2.6" height="7.5" rx="0.6" fill="#3fb0ac"/></g><text x="602.6" y="813.5" font-size="10.5" fill="#242424">Oldest message age</text><text x="739.6" y="813.5" font-size="10.5" font-weight="400" fill="#605e5c" text-anchor="end">0</text><line x1="560.6" y1="819.0" x2="741.6" y2="819.0" stroke="#e6e4e2" stroke-opacity="0.7"/><circle cx="566.6" cy="828.0" r="6" fill="#4c9a2a"/><path d="M563.9 828.0 l1.9 1.9 l3.4 -3.9" fill="none" stroke="#ffffff" stroke-width="1.4" stroke-linecap="round" stroke-linejoin="round"/><g transform="translate(582.6,821.0) scale(0.875)"><rect x="1.5" y="8" width="2.6" height="6" rx="0.6" fill="#8661c5"/><rect x="5.7" y="4.5" width="2.6" height="9.5" rx="0.6" fill="#0078D4"/><rect x="9.9" y="6.5" width="2.6" height="7.5" rx="0.6" fill="#3fb0ac"/></g><text x="602.6" y="831.5" font-size="10.5" fill="#242424">Dead-letter count</text><text x="739.6" y="831.5" font-size="10.5" font-weight="400" fill="#605e5c" text-anchor="end">2</text>
<g filter="url(#cs)"><rect x="207.6" y="1098.0" width="193" height="85" rx="10" fill="#f2f8f2" stroke="#a0d8a0" stroke-width="2"/></g><g transform="translate(213.6,1105.16) scale(0.82)"><ellipse cx="12" cy="6" rx="7" ry="2.8" fill="none" stroke="#605e5c" stroke-width="1.6" stroke-linecap="round" stroke-linejoin="round"/><path d="M5 6v12c0 1.55 3.13 2.8 7 2.8s7-1.25 7-2.8V6" fill="none" stroke="#605e5c" stroke-width="1.6" stroke-linecap="round" stroke-linejoin="round"/><path d="M5 12c0 1.55 3.13 2.8 7 2.8s7-1.25 7-2.8" fill="none" stroke="#605e5c" stroke-width="1.6" stroke-linecap="round" stroke-linejoin="round"/></g><text x="241.6" y="1118.5" font-size="12.5" font-weight="600" fill="#242424">Blob storage</text><rect x="328.3" y="1106.00" width="64.3" height="18" rx="9" fill="#ffffff" stroke="#a0d8a0" stroke-width="1"/><circle cx="339.3" cy="1115.0" r="6" fill="#4c9a2a"/><path d="M336.6 1115.0 l1.9 1.9 l3.4 -3.9" fill="none" stroke="#ffffff" stroke-width="1.4" stroke-linecap="round" stroke-linejoin="round"/><text x="348.3" y="1118.57" font-size="10.5" fill="#323130">Healthy</text><line x1="208.6" y1="1135.0" x2="399.6" y2="1135.0" stroke="#e6e4e2"/><circle cx="223.6" cy="1150.0" r="6" fill="#4c9a2a"/><path d="M220.9 1150.0 l1.9 1.9 l3.4 -3.9" fill="none" stroke="#ffffff" stroke-width="1.4" stroke-linecap="round" stroke-linejoin="round"/><g transform="translate(239.6,1143.0) scale(0.875)"><rect x="1.5" y="8" width="2.6" height="6" rx="0.6" fill="#8661c5"/><rect x="5.7" y="4.5" width="2.6" height="9.5" rx="0.6" fill="#0078D4"/><rect x="9.9" y="6.5" width="2.6" height="7.5" rx="0.6" fill="#3fb0ac"/></g><text x="259.6" y="1153.5" font-size="10.5" fill="#242424">Availability</text><text x="388.6" y="1153.5" font-size="10.5" font-weight="400" fill="#605e5c" text-anchor="end">0</text><line x1="217.6" y1="1159.0" x2="390.6" y2="1159.0" stroke="#e6e4e2" stroke-opacity="0.7"/><circle cx="223.6" cy="1168.0" r="6" fill="#4c9a2a"/><path d="M220.9 1168.0 l1.9 1.9 l3.4 -3.9" fill="none" stroke="#ffffff" stroke-width="1.4" stroke-linecap="round" stroke-linejoin="round"/><g transform="translate(239.6,1161.0) scale(0.875)"><rect x="1.5" y="8" width="2.6" height="6" rx="0.6" fill="#8661c5"/><rect x="5.7" y="4.5" width="2.6" height="9.5" rx="0.6" fill="#0078D4"/><rect x="9.9" y="6.5" width="2.6" height="7.5" rx="0.6" fill="#3fb0ac"/></g><text x="259.6" y="1171.5" font-size="10.5" fill="#242424">Throttling rate</text><text x="388.6" y="1171.5" font-size="10.5" font-weight="400" fill="#605e5c" text-anchor="end">1</text>
<g filter="url(#cs)"><rect x="430.6" y="1098.0" width="223" height="103" rx="10" fill="#f6f6f5" stroke="#c8c6c4" stroke-width="2" stroke-dasharray="4 3"/></g><g transform="translate(436.6,1105.16) scale(0.82)"><path d="M12 3l7 2.6v5.2c0 4.6-3 7.9-7 9.2-4-1.3-7-4.6-7-9.2V5.6z" fill="none" stroke="#605e5c" stroke-width="1.6" stroke-linecap="round" stroke-linejoin="round"/><path d="M8.8 12.2l2.2 2.2 4-4.6" fill="none" stroke="#605e5c" stroke-width="1.6" stroke-linecap="round" stroke-linejoin="round"/></g><text x="464.6" y="1118.5" font-size="12.5" font-weight="600" fill="#242424">Identity provider</text><rect x="573.0" y="1106.00" width="72.6" height="18" rx="9" fill="#ffffff" stroke="#c8c6c4" stroke-width="1"/><circle cx="584.0" cy="1115.0" r="6" fill="#8a8886"/><text x="593.0" y="1118.57" font-size="10.5" fill="#323130">Unknown</text><line x1="431.6" y1="1135.0" x2="652.6" y2="1135.0" stroke="#e6e4e2"/><circle cx="446.6" cy="1150.0" r="6" fill="#4c9a2a"/><path d="M443.9 1150.0 l1.9 1.9 l3.4 -3.9" fill="none" stroke="#ffffff" stroke-width="1.4" stroke-linecap="round" stroke-linejoin="round"/><g transform="translate(462.6,1143.0) scale(0.875)"><rect x="1.5" y="8" width="2.6" height="6" rx="0.6" fill="#8661c5"/><rect x="5.7" y="4.5" width="2.6" height="9.5" rx="0.6" fill="#0078D4"/><rect x="9.9" y="6.5" width="2.6" height="7.5" rx="0.6" fill="#3fb0ac"/></g><text x="482.6" y="1153.5" font-size="10.5" fill="#242424">Token failures</text><text x="641.6" y="1153.5" font-size="10.5" font-weight="400" fill="#605e5c" text-anchor="end">2</text><line x1="440.6" y1="1159.0" x2="643.6" y2="1159.0" stroke="#e6e4e2" stroke-opacity="0.7"/><circle cx="446.6" cy="1168.0" r="6" fill="#4c9a2a"/><path d="M443.9 1168.0 l1.9 1.9 l3.4 -3.9" fill="none" stroke="#ffffff" stroke-width="1.4" stroke-linecap="round" stroke-linejoin="round"/><g transform="translate(462.6,1161.0) scale(0.875)"><rect x="1.5" y="8" width="2.6" height="6" rx="0.6" fill="#8661c5"/><rect x="5.7" y="4.5" width="2.6" height="9.5" rx="0.6" fill="#0078D4"/><rect x="9.9" y="6.5" width="2.6" height="7.5" rx="0.6" fill="#3fb0ac"/></g><text x="482.6" y="1171.5" font-size="10.5" fill="#242424">MFA challenges</text><text x="641.6" y="1171.5" font-size="10.5" font-weight="400" fill="#605e5c" text-anchor="end">1</text><line x1="440.6" y1="1177.0" x2="643.6" y2="1177.0" stroke="#e6e4e2" stroke-opacity="0.7"/><circle cx="446.6" cy="1186.0" r="6" fill="#4c9a2a"/><path d="M443.9 1186.0 l1.9 1.9 l3.4 -3.9" fill="none" stroke="#ffffff" stroke-width="1.4" stroke-linecap="round" stroke-linejoin="round"/><g transform="translate(462.6,1179.0) scale(0.875)"><rect x="1.5" y="8" width="2.6" height="6" rx="0.6" fill="#8661c5"/><rect x="5.7" y="4.5" width="2.6" height="9.5" rx="0.6" fill="#0078D4"/><rect x="9.9" y="6.5" width="2.6" height="7.5" rx="0.6" fill="#3fb0ac"/></g><text x="482.6" y="1189.5" font-size="10.5" fill="#242424">Sign-in latency</text><text x="641.6" y="1189.5" font-size="10.5" font-weight="400" fill="#605e5c" text-anchor="end">2</text>
<g filter="url(#cs)"><rect x="315.6" y="740.0" width="205" height="103" rx="10" fill="#f2f8f2" stroke="#a0d8a0" stroke-width="2"/></g><g transform="translate(321.6,747.16) scale(0.82)"><path d="M4 20h16" fill="none" stroke="#605e5c" stroke-width="1.6" stroke-linecap="round" stroke-linejoin="round"/><path d="M6.5 20v-6M12 20V6.5M17.5 20v-9" fill="none" stroke="#605e5c" stroke-width="1.6" stroke-linecap="round" stroke-linejoin="round"/></g><text x="349.6" y="760.5" font-size="12.5" font-weight="600" fill="#242424">Search service</text><rect x="448.3" y="748.00" width="64.3" height="18" rx="9" fill="#ffffff" stroke="#a0d8a0" stroke-width="1"/><circle cx="459.3" cy="757.0" r="6" fill="#4c9a2a"/><path d="M456.6 757.0 l1.9 1.9 l3.4 -3.9" fill="none" stroke="#ffffff" stroke-width="1.4" stroke-linecap="round" stroke-linejoin="round"/><text x="468.3" y="760.57" font-size="10.5" fill="#323130">Healthy</text><line x1="316.6" y1="777.0" x2="519.6" y2="777.0" stroke="#e6e4e2"/><circle cx="331.6" cy="792.0" r="6" fill="#4c9a2a"/><path d="M328.9 792.0 l1.9 1.9 l3.4 -3.9" fill="none" stroke="#ffffff" stroke-width="1.4" stroke-linecap="round" stroke-linejoin="round"/><g transform="translate(347.6,785.0) scale(0.875)"><rect x="1.5" y="8" width="2.6" height="6" rx="0.6" fill="#8661c5"/><rect x="5.7" y="4.5" width="2.6" height="9.5" rx="0.6" fill="#0078D4"/><rect x="9.9" y="6.5" width="2.6" height="7.5" rx="0.6" fill="#3fb0ac"/></g><text x="367.6" y="795.5" font-size="10.5" fill="#242424">Index lag</text><text x="508.6" y="795.5" font-size="10.5" font-weight="400" fill="#605e5c" text-anchor="end">0</text><line x1="325.6" y1="801.0" x2="510.6" y2="801.0" stroke="#e6e4e2" stroke-opacity="0.7"/><circle cx="331.6" cy="810.0" r="6" fill="#4c9a2a"/><path d="M328.9 810.0 l1.9 1.9 l3.4 -3.9" fill="none" stroke="#ffffff" stroke-width="1.4" stroke-linecap="round" stroke-linejoin="round"/><g transform="translate(347.6,803.0) scale(0.875)"><rect x="1.5" y="8" width="2.6" height="6" rx="0.6" fill="#8661c5"/><rect x="5.7" y="4.5" width="2.6" height="9.5" rx="0.6" fill="#0078D4"/><rect x="9.9" y="6.5" width="2.6" height="7.5" rx="0.6" fill="#3fb0ac"/></g><text x="367.6" y="813.5" font-size="10.5" fill="#242424">Query latency</text><text x="508.6" y="813.5" font-size="10.5" font-weight="400" fill="#605e5c" text-anchor="end">1</text><line x1="325.6" y1="819.0" x2="510.6" y2="819.0" stroke="#e6e4e2" stroke-opacity="0.7"/><circle cx="331.6" cy="828.0" r="6" fill="#4c9a2a"/><path d="M328.9 828.0 l1.9 1.9 l3.4 -3.9" fill="none" stroke="#ffffff" stroke-width="1.4" stroke-linecap="round" stroke-linejoin="round"/><g transform="translate(347.6,821.0) scale(0.875)"><rect x="1.5" y="8" width="2.6" height="6" rx="0.6" fill="#8661c5"/><rect x="5.7" y="4.5" width="2.6" height="9.5" rx="0.6" fill="#0078D4"/><rect x="9.9" y="6.5" width="2.6" height="7.5" rx="0.6" fill="#3fb0ac"/></g><text x="367.6" y="831.5" font-size="10.5" fill="#242424">Error rate</text><text x="508.6" y="831.5" font-size="10.5" font-weight="400" fill="#605e5c" text-anchor="end">1</text>
<g filter="url(#cs)"><rect x="123.1" y="939.0" width="324" height="103" rx="10" fill="#f2f8f2" stroke="#a0d8a0" stroke-width="2"/></g><g transform="translate(129.1,946.16) scale(0.82)"><path d="M12 3.2l7.6 4.4v8.8L12 20.8l-7.6-4.4V7.6z" fill="none" stroke="#605e5c" stroke-width="1.6" stroke-linecap="round" stroke-linejoin="round"/><path d="M4.6 7.8l7.4 4.3 7.4-4.3M12 12.1v8.6" fill="none" stroke="#605e5c" stroke-width="1.6" stroke-linecap="round" stroke-linejoin="round"/></g><text x="157.1" y="959.5" font-size="12.5" font-weight="600" fill="#242424">Shipping service with a long name</text><rect x="374.8" y="947.00" width="64.3" height="18" rx="9" fill="#ffffff" stroke="#a0d8a0" stroke-width="1"/><circle cx="385.8" cy="956.0" r="6" fill="#4c9a2a"/><path d="M383.1 956.0 l1.9 1.9 l3.4 -3.9" fill="none" stroke="#ffffff" stroke-width="1.4" stroke-linecap="round" stroke-linejoin="round"/><text x="394.8" y="959.57" font-size="10.5" fill="#323130">Healthy</text><line x1="124.1" y1="976.0" x2="446.1" y2="976.0" stroke="#e6e4e2"/><circle cx="139.1" cy="991.0" r="6" fill="#4c9a2a"/><path d="M136.4 991.0 l1.9 1.9 l3.4 -3.9" fill="none" stroke="#ffffff" stroke-width="1.4" stroke-linecap="round" stroke-linejoin="round"/><g transform="translate(155.1,984.0) scale(0.875)"><rect x="1.5" y="8" width="2.6" height="6" rx="0.6" fill="#8661c5"/><rect x="5.7" y="4.5" width="2.6" height="9.5" rx="0.6" fill="#0078D4"/><rect x="9.9" y="6.5" width="2.6" height="7.5" rx="0.6" fill="#3fb0ac"/></g><text x="175.1" y="994.5" font-size="10.5" fill="#242424">Carrier API availability</text><text x="435.1" y="994.5" font-size="10.5" font-weight="400" fill="#605e5c" text-anchor="end">2</text><line x1="133.1" y1="1000.0" x2="437.1" y2="1000.0" stroke="#e6e4e2" stroke-opacity="0.7"/><circle cx="139.1" cy="1009.0" r="6" fill="#4c9a2a"/><path d="M136.4 1009.0 l1.9 1.9 l3.4 -3.9" fill="none" stroke="#ffffff" stroke-width="1.4" stroke-linecap="round" stroke-linejoin="round"/><g transform="translate(155.1,1002.0) scale(0.875)"><rect x="1.5" y="8" width="2.6" height="6" rx="0.6" fill="#8661c5"/><rect x="5.7" y="4.5" width="2.6" height="9.5" rx="0.6" fill="#0078D4"/><rect x="9.9" y="6.5" width="2.6" height="7.5" rx="0.6" fill="#3fb0ac"/></g><text x="175.1" y="1012.5" font-size="10.5" fill="#242424">Carrier API latency</text><text x="435.1" y="1012.5" font-size="10.5" font-weight="400" fill="#605e5c" text-anchor="end">1</text><line x1="133.1" y1="1018.0" x2="437.1" y2="1018.0" stroke="#e6e4e2" stroke-opacity="0.7"/><circle cx="139.1" cy="1027.0" r="6" fill="#4c9a2a"/><path d="M136.4 1027.0 l1.9 1.9 l3.4 -3.9" fill="none" stroke="#ffffff" stroke-width="1.4" stroke-linecap="round" stroke-linejoin="round"/><g transform="translate(155.1,1020.0) scale(0.875)"><rect x="1.5" y="8" width="2.6" height="6" rx="0.6" fill="#8661c5"/><rect x="5.7" y="4.5" width="2.6" height="9.5" rx="0.6" fill="#0078D4"/><rect x="9.9" y="6.5" width="2.6" height="7.5" rx="0.6" fill="#3fb0ac"/></g><text x="175.1" y="1030.5" font-size="10.5" fill="#242424">Error rate</text><text x="435.1" y="1030.5" font-size="10.5" font-weight="400" fill="#605e5c" text-anchor="end">1</text>
<g filter="url(#cs)"><rect x="477.1" y="939.0" width="261" height="103" rx="10" fill="#fbf2e7" stroke="#db7500" stroke-width="2"/></g><g transform="translate(483.1,946.16) scale(0.82)"><path d="M13 2.5 5.5 13.5H11l-1 8 8.5-12H12z" fill="none" stroke="#605e5c" stroke-width="1.6" stroke-linecap="round" stroke-linejoin="round"/></g><text x="511.1" y="959.5" font-size="12.5" font-weight="600" fill="#242424">Background functions</text><rect x="655.1" y="947.00" width="75.0" height="18" rx="9" fill="#ffffff" stroke="#db7500" stroke-width="1"/><circle cx="666.1" cy="956.0" r="6" fill="#c26a00"/><text x="675.1" y="959.57" font-size="10.5" fill="#323130">Degraded</text><line x1="478.1" y1="976.0" x2="737.1" y2="976.0" stroke="#e6e4e2"/><circle cx="493.1" cy="991.0" r="6" fill="#c26a00"/><g transform="translate(509.1,984.0) scale(0.875)"><rect x="1.5" y="8" width="2.6" height="6" rx="0.6" fill="#8661c5"/><rect x="5.7" y="4.5" width="2.6" height="9.5" rx="0.6" fill="#0078D4"/><rect x="9.9" y="6.5" width="2.6" height="7.5" rx="0.6" fill="#3fb0ac"/></g><text x="529.1" y="994.5" font-size="10.5" fill="#242424">Invocation errors</text><text x="726.1" y="994.5" font-size="10.5" font-weight="600" fill="#c26a00" text-anchor="end">9</text><line x1="487.1" y1="1000.0" x2="728.1" y2="1000.0" stroke="#e6e4e2" stroke-opacity="0.7"/><circle cx="493.1" cy="1009.0" r="6" fill="#4c9a2a"/><path d="M490.4 1009.0 l1.9 1.9 l3.4 -3.9" fill="none" stroke="#ffffff" stroke-width="1.4" stroke-linecap="round" stroke-linejoin="round"/><g transform="translate(509.1,1002.0) scale(0.875)"><rect x="1.5" y="8" width="2.6" height="6" rx="0.6" fill="#8661c5"/><rect x="5.7" y="4.5" width="2.6" height="9.5" rx="0.6" fill="#0078D4"/><rect x="9.9" y="6.5" width="2.6" height="7.5" rx="0.6" fill="#3fb0ac"/></g><text x="529.1" y="1012.5" font-size="10.5" fill="#242424">Duration</text><text x="726.1" y="1012.5" font-size="10.5" font-weight="400" fill="#605e5c" text-anchor="end">0</text><line x1="487.1" y1="1018.0" x2="728.1" y2="1018.0" stroke="#e6e4e2" stroke-opacity="0.7"/><circle cx="493.1" cy="1027.0" r="6" fill="#4c9a2a"/><path d="M490.4 1027.0 l1.9 1.9 l3.4 -3.9" fill="none" stroke="#ffffff" stroke-width="1.4" stroke-linecap="round" stroke-linejoin="round"/><g transform="translate(509.1,1020.0) scale(0.875)"><rect x="1.5" y="8" width="2.6" height="6" rx="0.6" fill="#8661c5"/><rect x="5.7" y="4.5" width="2.6" height="9.5" rx="0.6" fill="#0078D4"/><rect x="9.9" y="6.5" width="2.6" height="7.5" rx="0.6" fill="#3fb0ac"/></g><text x="529.1" y="1030.5" font-size="10.5" fill="#242424">Throttles</text><text x="726.1" y="1030.5" font-size="10.5" font-weight="400" fill="#605e5c" text-anchor="end">1</text>
<g filter="url(#cs)"><rect x="310.5" y="245.0" width="240" height="58" rx="10" fill="#f2f8f2" stroke="#a0d8a0" stroke-width="2"/></g><g transform="translate(316.5,264.16) scale(0.82)"><circle cx="5.5" cy="6" r="2" fill="none" stroke="#605e5c" stroke-width="1.6" stroke-linecap="round" stroke-linejoin="round"/><circle cx="5.5" cy="18" r="2" fill="none" stroke="#605e5c" stroke-width="1.6" stroke-linecap="round" stroke-linejoin="round"/><circle cx="18.5" cy="12" r="2" fill="none" stroke="#605e5c" stroke-width="1.6" stroke-linecap="round" stroke-linejoin="round"/><path d="M7.5 6h3a4 4 0 0 1 4 4M7.5 18h3a4 4 0 0 0 4-4" fill="none" stroke="#605e5c" stroke-width="1.6" stroke-linecap="round" stroke-linejoin="round"/></g><text x="344.5" y="272.0" font-size="12.5" font-weight="600" fill="#242424">Shop and commerce</text><text x="344.5" y="284.0" font-size="9" fill="#605e5c">active-active</text><rect x="478.2" y="265.00" width="64.3" height="18" rx="9" fill="#ffffff" stroke="#a0d8a0" stroke-width="1"/><circle cx="489.2" cy="274.0" r="6" fill="#4c9a2a"/><path d="M486.5 274.0 l1.9 1.9 l3.4 -3.9" fill="none" stroke="#ffffff" stroke-width="1.4" stroke-linecap="round" stroke-linejoin="round"/><text x="498.2" y="277.57" font-size="10.5" fill="#323130">Healthy</text>
<g filter="url(#cs)"><rect x="580.5" y="245.0" width="186" height="58" rx="10" fill="#fbf2e7" stroke="#db7500" stroke-width="2"/></g><g transform="translate(586.5,264.16) scale(0.82)"><path d="M4 20h16" fill="none" stroke="#605e5c" stroke-width="1.6" stroke-linecap="round" stroke-linejoin="round"/><path d="M6.5 20v-6M12 20V6.5M17.5 20v-9" fill="none" stroke="#605e5c" stroke-width="1.6" stroke-linecap="round" stroke-linejoin="round"/></g><text x="614.5" y="272.0" font-size="12.5" font-weight="600" fill="#242424">Reporting</text><text x="614.5" y="284.0" font-size="9" fill="#605e5c">single region</text><rect x="683.5" y="265.00" width="75.0" height="18" rx="9" fill="#ffffff" stroke="#db7500" stroke-width="1"/><circle cx="694.5" cy="274.0" r="6" fill="#c26a00"/><text x="703.5" y="277.57" font-size="10.5" fill="#323130">Degraded</text>
<g filter="url(#cs)"><rect x="135.5" y="398.0" width="272" height="58" rx="10" fill="#fbf2e7" stroke="#db7500" stroke-width="2"/></g><g transform="translate(141.5,417.16) scale(0.82)"><path d="M12 3.2l7.6 4.4v8.8L12 20.8l-7.6-4.4V7.6z" fill="none" stroke="#605e5c" stroke-width="1.6" stroke-linecap="round" stroke-linejoin="round"/><path d="M4.6 7.8l7.4 4.3 7.4-4.3M12 12.1v8.6" fill="none" stroke="#605e5c" stroke-width="1.6" stroke-linecap="round" stroke-linejoin="round"/></g><text x="169.5" y="430.5" font-size="12.5" font-weight="600" fill="#242424">Logistics and fulfillment</text><rect x="324.5" y="418.00" width="75.0" height="18" rx="9" fill="#ffffff" stroke="#db7500" stroke-width="1"/><circle cx="335.5" cy="427.0" r="6" fill="#c26a00"/><text x="344.5" y="430.57" font-size="10.5" fill="#323130">Degraded</text>
<g filter="url(#cs)"><rect x="437.5" y="398.0" width="249" height="58" rx="10" fill="#f6f6f5" stroke="#c8c6c4" stroke-width="2" stroke-dasharray="4 3"/></g><g transform="translate(443.5,417.16) scale(0.82)"><path d="M12 3l7 2.6v5.2c0 4.6-3 7.9-7 9.2-4-1.3-7-4.6-7-9.2V5.6z" fill="none" stroke="#605e5c" stroke-width="1.6" stroke-linecap="round" stroke-linejoin="round"/><path d="M8.8 12.2l2.2 2.2 4-4.6" fill="none" stroke="#605e5c" stroke-width="1.6" stroke-linecap="round" stroke-linejoin="round"/></g><text x="471.5" y="430.5" font-size="12.5" font-weight="600" fill="#242424">Account and identity</text><rect x="605.9" y="418.00" width="72.6" height="18" rx="9" fill="#ffffff" stroke="#c8c6c4" stroke-width="1"/><circle cx="616.9" cy="427.0" r="6" fill="#8a8886"/><text x="625.9" y="430.57" font-size="10.5" fill="#323130">Unknown</text>
<g filter="url(#cs)"><rect x="55.5" y="245.0" width="225" height="85" rx="10" fill="#f4f0fb" stroke="#8661c5" stroke-width="2"/></g><g transform="translate(61.5,252.16) scale(0.82)"><path d="M12 3.2l7.6 4.4v8.8L12 20.8l-7.6-4.4V7.6z" fill="none" stroke="#605e5c" stroke-width="1.6" stroke-linecap="round" stroke-linejoin="round"/><path d="M4.6 7.8l7.4 4.3 7.4-4.3M12 12.1v8.6" fill="none" stroke="#605e5c" stroke-width="1.6" stroke-linecap="round" stroke-linejoin="round"/></g><text x="89.5" y="265.5" font-size="12.5" font-weight="600" fill="#242424">Secondary region</text><rect x="205.2" y="253.00" width="67.3" height="18" rx="9" fill="#ffffff" stroke="#8661c5" stroke-width="1"/><circle cx="216.2" cy="262.0" r="6" fill="#8661c5"/><text x="225.2" y="265.57" font-size="10.5" fill="#323130">Standby</text><line x1="56.5" y1="282.0" x2="279.5" y2="282.0" stroke="#e6e4e2"/><circle cx="71.5" cy="297.0" r="6" fill="#4c9a2a"/><path d="M68.8 297.0 l1.9 1.9 l3.4 -3.9" fill="none" stroke="#ffffff" stroke-width="1.4" stroke-linecap="round" stroke-linejoin="round"/><g transform="translate(87.5,290.0) scale(0.875)"><rect x="1.5" y="8" width="2.6" height="6" rx="0.6" fill="#8661c5"/><rect x="5.7" y="4.5" width="2.6" height="9.5" rx="0.6" fill="#0078D4"/><rect x="9.9" y="6.5" width="2.6" height="7.5" rx="0.6" fill="#3fb0ac"/></g><text x="107.5" y="300.5" font-size="10.5" fill="#242424">Replication health</text><text x="268.5" y="300.5" font-size="10.5" font-weight="400" fill="#605e5c" text-anchor="end">0</text><line x1="65.5" y1="306.0" x2="270.5" y2="306.0" stroke="#e6e4e2" stroke-opacity="0.7"/><circle cx="71.5" cy="315.0" r="6" fill="#4c9a2a"/><path d="M68.8 315.0 l1.9 1.9 l3.4 -3.9" fill="none" stroke="#ffffff" stroke-width="1.4" stroke-linecap="round" stroke-linejoin="round"/><g transform="translate(87.5,308.0) scale(0.875)"><rect x="1.5" y="8" width="2.6" height="6" rx="0.6" fill="#8661c5"/><rect x="5.7" y="4.5" width="2.6" height="9.5" rx="0.6" fill="#0078D4"/><rect x="9.9" y="6.5" width="2.6" height="7.5" rx="0.6" fill="#3fb0ac"/></g><text x="107.5" y="318.5" font-size="10.5" fill="#242424">Failover readiness</text><text x="268.5" y="318.5" font-size="10.5" font-weight="400" fill="#605e5c" text-anchor="end">1</text>
<g filter="url(#cs)"><rect x="310.5" y="96.0" width="212" height="58" rx="10" fill="#fbf2e7" stroke="#db7500" stroke-width="2"/></g><g transform="translate(316.5,115.16) scale(0.82)"><circle cx="12" cy="12" r="8.4" fill="none" stroke="#605e5c" stroke-width="1.6" stroke-linecap="round" stroke-linejoin="round"/><path d="M4.2 12h3l2-3.6 2.8 7.2 1.8-3.6h4" fill="none" stroke="#605e5c" stroke-width="1.6" stroke-linecap="round" stroke-linejoin="round"/></g><text x="344.5" y="123.0" font-size="12.5" font-weight="600" fill="#242424">Workload root</text><text x="344.5" y="135.0" font-size="9" fill="#605e5c">worstOf</text><rect x="439.4" y="116.00" width="75.0" height="18" rx="9" fill="#ffffff" stroke="#db7500" stroke-width="1"/><circle cx="450.4" cy="125.0" r="6" fill="#c26a00"/><text x="459.4" y="128.57" font-size="10.5" fill="#323130">Degraded</text>
</g></svg>