<svg xmlns="http://www.w3.org/2000/svg" width="895" height="510" viewBox="0 0 895 510" font-family="Segoe UI, -apple-system, BlinkMacSystemFont, Helvetica, Arial, sans-serif">
<defs><filter id="cs" x="-20%" y="-20%" width="140%" height="140%"><feDropShadow dx="0" dy="1" stdDeviation="1.3" flood-color="#000" flood-opacity="0.1"/></filter></defs>
<rect width="895" height="510" fill="#fffdfa"/>
<rect x="0" y="78.0" width="895" height="90.0" fill="#fffdfa"/>
<line x1="0" y1="78.0" x2="895" y2="78.0" stroke="#f0e4ee"/>
<text x="751.0" y="127.5" font-size="13" font-weight="700" fill="#5b3d5b">Storefront</text>
<rect x="0" y="168.0" width="895" height="141.0" fill="#fdf6fb"/>
<line x1="0" y1="168.0" x2="895" y2="168.0" stroke="#f0e4ee"/>
<text x="751.0" y="243.0" font-size="13" font-weight="700" fill="#5b3d5b">Order flows</text>
<rect x="0" y="309.0" width="895" height="135.0" fill="#fffdfa"/>
<line x1="0" y1="309.0" x2="895" y2="309.0" stroke="#f0e4ee"/>
<text x="751.0" y="381.0" font-size="13" font-weight="700" fill="#5b3d5b">Services</text>
<line x1="0" y1="461.5" x2="895" y2="461.5" stroke="#f0e4ee"/>
<text x="40" y="34" font-size="18" font-weight="700" fill="#3d2b3d">Order pipeline health</text>
<text x="40" y="52" font-size="12" fill="#8a7a8a">Live measurements flow in from the collectors on the left.</text>
<text x="40.0" y="500.0" font-size="11.5" font-weight="600" fill="#8a7a8a">Legend</text>
<circle cx="99.7" cy="496.0" r="4.5" fill="#2eb884"/>
<text x="109.7" y="500.0" font-size="11.5" fill="#5b3d5b">Healthy</text>
<circle cx="165.5" cy="496.0" r="4.5" fill="#f39114"/>
<text x="175.5" y="500.0" font-size="11.5" fill="#5b3d5b">Degraded</text>
<circle cx="243.0" cy="496.0" r="4.5" fill="#ef476f"/>
<text x="253.0" y="500.0" font-size="11.5" fill="#5b3d5b">Unhealthy</text>
<circle cx="321.8" cy="496.0" r="4.5" fill="#9a8f9a"/>
<text x="331.8" y="500.0" font-size="11.5" fill="#5b3d5b">Unknown</text>
<g transform="translate(390.7,489.0) scale(0.875)"><rect x="1.5" y="8" width="2.6" height="6" rx="0.6" fill="#a78bfa"/><rect x="5.7" y="4.5" width="2.6" height="9.5" rx="0.6" fill="#5eb0ef"/><rect x="9.9" y="6.5" width="2.6" height="7.5" rx="0.6" fill="#7fd1ae"/></g>
<text x="408.7" y="500.0" font-size="11.5" fill="#5b3d5b">Metric</text>
<g transform="translate(40.0,0)">
<g fill="none" stroke-linecap="butt" stroke-linejoin="round">
<path d="M317.5 327.0 L317.5 244.0" stroke="#7fd1ae" stroke-width="1.7"/>
<path d="M92.5 327.0 L92.5 271.0 Q92.5 264.0 99.5 264.0 L224.0 264.0 Q231.0 264.0 231.0 257.0 L231.0 244.0" stroke="#ffb454" stroke-width="1.7"/>
<path d="M317.5 186.0 L317.5 154.0" stroke="#ffb454" stroke-width="1.7"/>
<path d="M549.5 327.0 L549.5 292.5 Q549.5 285.5 542.5 285.5 L413.0 285.5 Q406.0 285.5 406.0 278.5 L406.0 244.0" stroke="#ff7d9c" stroke-width="1.6" stroke-dasharray="5 4"/>
</g>
<g stroke="none"><rect x="489.8" y="275.5" width="119.4" height="20" rx="10" fill="#ffffff" stroke="#e8d8e6" stroke-width="1"/><text x="549.5" y="289.1" font-size="10.5" font-weight="600" fill="#3d2b3d" text-anchor="middle">limited propagation</text></g>
<g filter="url(#cs)"><rect x="0.0" y="327.0" width="185" height="103" rx="10" fill="#fff4e4" stroke="#ffb454" stroke-width="2"/></g><g transform="translate(6.0,334.16) scale(0.82)"><path d="M13 2.5 5.5 13.5H11l-1 8 8.5-12H12z" fill="none" stroke="#8a7a8a" stroke-width="1.6" stroke-linecap="round" stroke-linejoin="round"/></g><text x="34.0" y="347.5" font-size="12.5" font-weight="600" fill="#3d2b3d">Order API</text><rect x="102.0" y="335.00" width="75.0" height="18" rx="9" fill="#ffffff" stroke="#ffb454" stroke-width="1"/><circle cx="113.0" cy="344.0" r="6" fill="#f39114"/><text x="122.0" y="347.57" font-size="10.5" fill="#5b3d5b">Degraded</text><line x1="1.0" y1="364.0" x2="184.0" y2="364.0" stroke="#f0e4ee"/><circle cx="16.0" cy="379.0" r="6" fill="#f39114"/><g transform="translate(32.0,372.0) scale(0.875)"><rect x="1.5" y="8" width="2.6" height="6" rx="0.6" fill="#a78bfa"/><rect x="5.7" y="4.5" width="2.6" height="9.5" rx="0.6" fill="#5eb0ef"/><rect x="9.9" y="6.5" width="2.6" height="7.5" rx="0.6" fill="#7fd1ae"/></g><text x="52.0" y="382.5" font-size="10.5" fill="#3d2b3d">P95 latency</text><text x="173.0" y="382.5" font-size="10.5" font-weight="600" fill="#f39114" text-anchor="end">230 ms</text><line x1="10.0" y1="388.0" x2="175.0" y2="388.0" stroke="#f0e4ee" stroke-opacity="0.7"/><circle cx="16.0" cy="397.0" r="6" fill="#2eb884"/><path d="M13.3 397.0 l1.9 1.9 l3.4 -3.9" fill="none" stroke="#fffdfa" stroke-width="1.4" stroke-linecap="round" stroke-linejoin="round"/><g transform="translate(32.0,390.0) scale(0.875)"><rect x="1.5" y="8" width="2.6" height="6" rx="0.6" fill="#a78bfa"/><rect x="5.7" y="4.5" width="2.6" height="9.5" rx="0.6" fill="#5eb0ef"/><rect x="9.9" y="6.5" width="2.6" height="7.5" rx="0.6" fill="#7fd1ae"/></g><text x="52.0" y="400.5" font-size="10.5" fill="#3d2b3d">Error rate</text><text x="173.0" y="400.5" font-size="10.5" font-weight="400" fill="#8a7a8a" text-anchor="end">0.4%</text><line x1="10.0" y1="406.0" x2="175.0" y2="406.0" stroke="#f0e4ee" stroke-opacity="0.7"/><circle cx="16.0" cy="415.0" r="6" fill="#2eb884"/><path d="M13.3 415.0 l1.9 1.9 l3.4 -3.9" fill="none" stroke="#fffdfa" stroke-width="1.4" stroke-linecap="round" stroke-linejoin="round"/><g transform="translate(32.0,408.0) scale(0.875)"><rect x="1.5" y="8" width="2.6" height="6" rx="0.6" fill="#a78bfa"/><rect x="5.7" y="4.5" width="2.6" height="9.5" rx="0.6" fill="#5eb0ef"/><rect x="9.9" y="6.5" width="2.6" height="7.5" rx="0.6" fill="#7fd1ae"/></g><text x="52.0" y="418.5" font-size="10.5" fill="#3d2b3d">Requests</text><text x="173.0" y="418.5" font-size="10.5" font-weight="400" fill="#8a7a8a" text-anchor="end">1.2k/s</text>
<g filter="url(#cs)"><rect x="215.0" y="327.0" width="191" height="85" rx="10" fill="#eefaf4" stroke="#7fd1ae" stroke-width="2"/></g><g transform="translate(221.0,334.16) scale(0.82)"><rect x="4" y="5" width="16" height="3" rx="1" fill="none" stroke="#8a7a8a" stroke-width="1.6" stroke-linecap="round" stroke-linejoin="round"/><rect x="4" y="10.5" width="16" height="3" rx="1" fill="none" stroke="#8a7a8a" stroke-width="1.6" stroke-linecap="round" stroke-linejoin="round"/><rect x="4" y="16" width="10" height="3" rx="1" fill="none" stroke="#8a7a8a" stroke-width="1.6" stroke-linecap="round" stroke-linejoin="round"/></g><text x="249.0" y="347.5" font-size="12.5" font-weight="600" fill="#3d2b3d">Order queue</text><rect x="333.7" y="335.00" width="64.3" height="18" rx="9" fill="#ffffff" stroke="#7fd1ae" stroke-width="1"/><circle cx="344.7" cy="344.0" r="6" fill="#2eb884"/><path d="M342.0 344.0 l1.9 1.9 l3.4 -3.9" fill="none" stroke="#fffdfa" stroke-width="1.4" stroke-linecap="round" stroke-linejoin="round"/><text x="353.7" y="347.57" font-size="10.5" fill="#5b3d5b">Healthy</text><line x1="216.0" y1="364.0" x2="405.0" y2="364.0" stroke="#f0e4ee"/><circle cx="231.0" cy="379.0" r="6" fill="#2eb884"/><path d="M228.3 379.0 l1.9 1.9 l3.4 -3.9" fill="none" stroke="#fffdfa" stroke-width="1.4" stroke-linecap="round" stroke-linejoin="round"/><g transform="translate(247.0,372.0) scale(0.875)"><rect x="1.5" y="8" width="2.6" height="6" rx="0.6" fill="#a78bfa"/><rect x="5.7" y="4.5" width="2.6" height="9.5" rx="0.6" fill="#5eb0ef"/><rect x="9.9" y="6.5" width="2.6" height="7.5" rx="0.6" fill="#7fd1ae"/></g><text x="267.0" y="382.5" font-size="10.5" fill="#3d2b3d">Queue depth</text><text x="394.0" y="382.5" font-size="10.5" font-weight="400" fill="#8a7a8a" text-anchor="end">18</text><line x1="225.0" y1="388.0" x2="396.0" y2="388.0" stroke="#f0e4ee" stroke-opacity="0.7"/><circle cx="231.0" cy="397.0" r="6" fill="#2eb884"/><path d="M228.3 397.0 l1.9 1.9 l3.4 -3.9" fill="none" stroke="#fffdfa" stroke-width="1.4" stroke-linecap="round" stroke-linejoin="round"/><g transform="translate(247.0,390.0) scale(0.875)"><rect x="1.5" y="8" width="2.6" height="6" rx="0.6" fill="#a78bfa"/><rect x="5.7" y="4.5" width="2.6" height="9.5" rx="0.6" fill="#5eb0ef"/><rect x="9.9" y="6.5" width="2.6" height="7.5" rx="0.6" fill="#7fd1ae"/></g><text x="267.0" y="400.5" font-size="10.5" fill="#3d2b3d">Oldest message</text><text x="394.0" y="400.5" font-size="10.5" font-weight="400" fill="#8a7a8a" text-anchor="end">4 s</text>
<g filter="url(#cs)"><rect x="436.0" y="327.0" width="227" height="85" rx="10" fill="#ffeef3" stroke="#ff7d9c" stroke-width="2"/></g><g transform="translate(442.0,334.16) scale(0.82)"><circle cx="5.5" cy="6" r="2" fill="none" stroke="#8a7a8a" stroke-width="1.6" stroke-linecap="round" stroke-linejoin="round"/><circle cx="5.5" cy="18" r="2" fill="none" stroke="#8a7a8a" stroke-width="1.6" stroke-linecap="round" stroke-linejoin="round"/><circle cx="18.5" cy="12" r="2" fill="none" stroke="#8a7a8a" stroke-width="1.6" stroke-linecap="round" stroke-linejoin="round"/><path d="M7.5 6h3a4 4 0 0 1 4 4M7.5 18h3a4 4 0 0 0 4-4" fill="none" stroke="#8a7a8a" stroke-width="1.6" stroke-linecap="round" stroke-linejoin="round"/></g><text x="470.0" y="347.5" font-size="12.5" font-weight="600" fill="#3d2b3d">Payment service</text><rect x="578.8" y="335.00" width="76.2" height="18" rx="9" fill="#ffffff" stroke="#ff7d9c" stroke-width="1"/><circle cx="589.8" cy="344.0" r="6" fill="#ef476f"/><text x="598.8" y="347.57" font-size="10.5" fill="#5b3d5b">Unhealthy</text><line x1="437.0" y1="364.0" x2="662.0" y2="364.0" stroke="#f0e4ee"/><circle cx="452.0" cy="379.0" r="6" fill="#ef476f"/><g transform="translate(468.0,372.0) scale(0.875)"><rect x="1.5" y="8" width="2.6" height="6" rx="0.6" fill="#a78bfa"/><rect x="5.7" y="4.5" width="2.6" height="9.5" rx="0.6" fill="#5eb0ef"/><rect x="9.9" y="6.5" width="2.6" height="7.5" rx="0.6" fill="#7fd1ae"/></g><text x="488.0" y="382.5" font-size="10.5" fill="#3d2b3d">Auth failures</text><text x="651.0" y="382.5" font-size="10.5" font-weight="600" fill="#ef476f" text-anchor="end">7%</text><line x1="446.0" y1="388.0" x2="653.0" y2="388.0" stroke="#f0e4ee" stroke-opacity="0.7"/><circle cx="452.0" cy="397.0" r="6" fill="#f39114"/><g transform="translate(468.0,390.0) scale(0.875)"><rect x="1.5" y="8" width="2.6" height="6" rx="0.6" fill="#a78bfa"/><rect x="5.7" y="4.5" width="2.6" height="9.5" rx="0.6" fill="#5eb0ef"/><rect x="9.9" y="6.5" width="2.6" height="7.5" rx="0.6" fill="#7fd1ae"/></g><text x="488.0" y="400.5" font-size="10.5" fill="#3d2b3d">Settlement lag</text><text x="651.0" y="400.5" font-size="10.5" font-weight="600" fill="#f39114" text-anchor="end">12 min</text>
<g filter="url(#cs)"><rect x="217.0" y="186.0" width="201" height="58" rx="10" fill="#fff4e4" stroke="#ffb454" stroke-width="2"/></g><g transform="translate(223.0,205.16) scale(0.82)"><circle cx="5.5" cy="6" r="2" fill="none" stroke="#8a7a8a" stroke-width="1.6" stroke-linecap="round" stroke-linejoin="round"/><circle cx="5.5" cy="18" r="2" fill="none" stroke="#8a7a8a" stroke-width="1.6" stroke-linecap="round" stroke-linejoin="round"/><circle cx="18.5" cy="12" r="2" fill="none" stroke="#8a7a8a" stroke-width="1.6" stroke-linecap="round" stroke-linejoin="round"/><path d="M7.5 6h3a4 4 0 0 1 4 4M7.5 18h3a4 4 0 0 0 4-4" fill="none" stroke="#8a7a8a" stroke-width="1.6" stroke-linecap="round" stroke-linejoin="round"/></g><text x="251.0" y="218.5" font-size="12.5" font-weight="600" fill="#3d2b3d">Order intake</text><rect x="335.0" y="206.00" width="75.0" height="18" rx="9" fill="#ffffff" stroke="#ffb454" stroke-width="1"/><circle cx="346.0" cy="215.0" r="6" fill="#f39114"/><text x="355.0" y="218.57" font-size="10.5" fill="#5b3d5b">Degraded</text>
<g filter="url(#cs)"><rect x="224.0" y="96.0" width="187" height="58" rx="10" fill="#fff4e4" stroke="#ffb454" stroke-width="2"/></g><g transform="translate(230.0,115.16) scale(0.82)"><ellipse cx="12" cy="6" rx="7" ry="2.8" fill="none" stroke="#8a7a8a" stroke-width="1.6" stroke-linecap="round" stroke-linejoin="round"/><path d="M5 6v12c0 1.55 3.13 2.8 7 2.8s7-1.25 7-2.8V6" fill="none" stroke="#8a7a8a" stroke-width="1.6" stroke-linecap="round" stroke-linejoin="round"/><path d="M5 12c0 1.55 3.13 2.8 7 2.8s7-1.25 7-2.8" fill="none" stroke="#8a7a8a" stroke-width="1.6" stroke-linecap="round" stroke-linejoin="round"/></g><text x="258.0" y="123.0" font-size="12.5" font-weight="600" fill="#3d2b3d">Storefront</text><text x="258.0" y="135.0" font-size="9" fill="#8a7a8a">worstOf</text><rect x="328.0" y="116.00" width="75.0" height="18" rx="9" fill="#ffffff" stroke="#ffb454" stroke-width="1"/><circle cx="339.0" cy="125.0" r="6" fill="#f39114"/><text x="348.0" y="128.57" font-size="10.5" fill="#5b3d5b">Degraded</text>
</g></svg>