<svg xmlns="http://www.w3.org/2000/svg" width="665" height="333" viewBox="0 0 665 333" font-family="Segoe UI, -apple-system, BlinkMacSystemFont, Helvetica, Arial, sans-serif">
<defs><filter id="cs" x="-20%" y="-20%" width="140%" height="140%"><feDropShadow dx="0" dy="1" stdDeviation="1.3" flood-color="#000" flood-opacity="0.1"/></filter></defs>
<rect width="665" height="333" fill="#ffffff"/>
<rect x="0" y="78.0" width="665" height="90.0" fill="#ffffff"/>
<line x1="0" y1="78.0" x2="665" y2="78.0" stroke="#e6e4e2"/>
<text x="521.0" y="127.5" font-size="13" font-weight="700" fill="#323130">Workload root</text>
<rect x="0" y="168.0" width="665" height="99.0" fill="#faf9f8"/>
<line x1="0" y1="168.0" x2="665" y2="168.0" stroke="#e6e4e2"/>
<text x="521.0" y="213.5" font-size="13" font-weight="700" fill="#323130">Application</text>
<text x="521.0" y="230.5" font-size="13" font-weight="700" fill="#323130">components</text>
<line x1="0" y1="284.5" x2="665" y2="284.5" stroke="#e6e4e2"/>
<text x="40" y="34" font-size="18" font-weight="700" fill="#242424">Orphan signal and signal-to-signal</text>
<text x="40" y="52" font-size="12" fill="#605e5c">Signals live inside each entity; health rolls up to the workload root.</text>
<text x="40.0" y="323.0" font-size="11.5" font-weight="600" fill="#605e5c">Legend</text>
<circle cx="99.7" cy="319.0" r="4.5" fill="#4c9a2a"/>
<text x="109.7" y="323.0" font-size="11.5" fill="#323130">Healthy</text>
<circle cx="165.5" cy="319.0" r="4.5" fill="#c26a00"/>
<text x="175.5" y="323.0" font-size="11.5" fill="#323130">Degraded</text>
<circle cx="243.0" cy="319.0" r="4.5" fill="#c50f18"/>
<text x="253.0" y="323.0" font-size="11.5" fill="#323130">Unhealthy</text>
<circle cx="321.8" cy="319.0" r="4.5" fill="#8a8886"/>
<text x="331.8" y="323.0" font-size="11.5" fill="#323130">Unknown</text>
<g transform="translate(390.7,312.0) scale(0.875)"><rect x="1.5" y="8" width="2.6" height="6" rx="0.6" fill="#8661c5"/><rect x="5.7" y="4.5" width="2.6" height="9.5" rx="0.6" fill="#0078D4"/><rect x="9.9" y="6.5" width="2.6" height="7.5" rx="0.6" fill="#3fb0ac"/></g>
<text x="408.7" y="323.0" font-size="11.5" fill="#323130">Metric</text>
<g transform="translate(40.0,0)">
<g fill="none" stroke-linecap="butt" stroke-linejoin="round">
<path d="M106.0 186.0 L106.0 154.0" stroke="#0078D4" stroke-width="1.7"/>
<path d="M337.0 186.0 L337.0 154.0" stroke="#a0d8a0" stroke-width="1.7"/>
</g>
<g filter="url(#cs)"><rect x="1.0" y="186.0" width="210" height="58" rx="10" fill="#eff6fc" stroke="#0078D4" stroke-width="2"/></g><g transform="translate(7.0,205.16) scale(0.82)"><path d="M12 3.2l7.6 4.4v8.8L12 20.8l-7.6-4.4V7.6z" fill="none" stroke="#605e5c" stroke-width="1.6" stroke-linecap="round" stroke-linejoin="round"/><path d="M4.6 7.8l7.4 4.3 7.4-4.3M12 12.1v8.6" fill="none" stroke="#605e5c" stroke-width="1.6" stroke-linecap="round" stroke-linejoin="round"/></g><text x="35.0" y="218.5" font-size="12.5" font-weight="600" fill="#242424">Orphan metric</text><rect x="130.4" y="206.00" width="72.6" height="18" rx="9" fill="#ffffff" stroke="#0078D4" stroke-width="1"/><circle cx="141.4" cy="215.0" r="6" fill="#0078D4"/><text x="150.4" y="218.57" font-size="10.5" fill="#323130">Unknown</text>
<g filter="url(#cs)"><rect x="0.0" y="96.0" width="212" height="58" rx="10" fill="#eff6fc" stroke="#0078D4" stroke-width="2"/></g><g transform="translate(6.0,115.16) scale(0.82)"><path d="M12 3.2l7.6 4.4v8.8L12 20.8l-7.6-4.4V7.6z" fill="none" stroke="#605e5c" stroke-width="1.6" stroke-linecap="round" stroke-linejoin="round"/><path d="M4.6 7.8l7.4 4.3 7.4-4.3M12 12.1v8.6" fill="none" stroke="#605e5c" stroke-width="1.6" stroke-linecap="round" stroke-linejoin="round"/></g><text x="34.0" y="128.5" font-size="12.5" font-weight="600" fill="#242424">Another signal</text><rect x="131.4" y="116.00" width="72.6" height="18" rx="9" fill="#ffffff" stroke="#0078D4" stroke-width="1"/><circle cx="142.4" cy="125.0" r="6" fill="#0078D4"/><text x="151.4" y="128.57" font-size="10.5" fill="#323130">Unknown</text>
<g filter="url(#cs)"><rect x="241.0" y="186.0" width="192" height="67" rx="10" fill="#f2f8f2" stroke="#a0d8a0" stroke-width="2"/></g><g transform="translate(247.0,193.16) scale(0.82)"><path d="M12 3.2l7.6 4.4v8.8L12 20.8l-7.6-4.4V7.6z" fill="none" stroke="#605e5c" stroke-width="1.6" stroke-linecap="round" stroke-linejoin="round"/><path d="M4.6 7.8l7.4 4.3 7.4-4.3M12 12.1v8.6" fill="none" stroke="#605e5c" stroke-width="1.6" stroke-linecap="round" stroke-linejoin="round"/></g><text x="275.0" y="206.5" font-size="12.5" font-weight="600" fill="#242424">Owner entity</text><rect x="360.7" y="194.00" width="64.3" height="18" rx="9" fill="#ffffff" stroke="#a0d8a0" stroke-width="1"/><circle cx="371.7" cy="203.0" r="6" fill="#4c9a2a"/><path d="M369.0 203.0 l1.9 1.9 l3.4 -3.9" fill="none" stroke="#ffffff" stroke-width="1.4" stroke-linecap="round" stroke-linejoin="round"/><text x="380.7" y="206.57" font-size="10.5" fill="#323130">Healthy</text><line x1="242.0" y1="223.0" x2="432.0" y2="223.0" stroke="#e6e4e2"/><circle cx="257.0" cy="238.0" r="6" fill="#4c9a2a"/><path d="M254.3 238.0 l1.9 1.9 l3.4 -3.9" fill="none" stroke="#ffffff" stroke-width="1.4" stroke-linecap="round" stroke-linejoin="round"/><g transform="translate(273.0,231.0) scale(0.875)"><rect x="1.5" y="8" width="2.6" height="6" rx="0.6" fill="#8661c5"/><rect x="5.7" y="4.5" width="2.6" height="9.5" rx="0.6" fill="#0078D4"/><rect x="9.9" y="6.5" width="2.6" height="7.5" rx="0.6" fill="#3fb0ac"/></g><text x="293.0" y="241.5" font-size="10.5" fill="#242424">Owned metric</text><text x="421.0" y="241.5" font-size="10.5" font-weight="400" fill="#605e5c" text-anchor="end">2</text>
<g filter="url(#cs)"><rect x="253.0" y="96.0" width="168" height="58" rx="10" fill="#f2f8f2" stroke="#a0d8a0" stroke-width="2"/></g><g transform="translate(259.0,115.16) scale(0.82)"><circle cx="12" cy="12" r="8.4" fill="none" stroke="#605e5c" stroke-width="1.6" stroke-linecap="round" stroke-linejoin="round"/><path d="M4.2 12h3l2-3.6 2.8 7.2 1.8-3.6h4" fill="none" stroke="#605e5c" stroke-width="1.6" stroke-linecap="round" stroke-linejoin="round"/></g><text x="287.0" y="128.5" font-size="12.5" font-weight="600" fill="#242424">Root</text><rect x="348.7" y="116.00" width="64.3" height="18" rx="9" fill="#ffffff" stroke="#a0d8a0" stroke-width="1"/><circle cx="359.7" cy="125.0" r="6" fill="#4c9a2a"/><path d="M357.0 125.0 l1.9 1.9 l3.4 -3.9" fill="none" stroke="#ffffff" stroke-width="1.4" stroke-linecap="round" stroke-linejoin="round"/><text x="368.7" y="128.57" font-size="10.5" fill="#323130">Healthy</text>
</g></svg>