<svg xmlns="http://www.w3.org/2000/svg" width="2960" height="683" viewBox="0 0 2960 683" font-family="Segoe UI, -apple-system, BlinkMacSystemFont, Helvetica, Arial, sans-serif">
<defs><filter id="cs" x="-20%" y="-20%" width="140%" height="140%"><feDropShadow dx="0" dy="1" stdDeviation="1.3" flood-color="#000" flood-opacity="0.1"/></filter></defs>
<rect width="2960" height="683" fill="#ffffff"/>
<rect x="0" y="78.0" width="2960" height="114.0" fill="#ffffff"/>
<line x1="0" y1="78.0" x2="2960" y2="78.0" stroke="#e6e4e2"/>
<text x="2794.0" y="139.5" font-size="13" font-weight="700" fill="#323130">Workload root</text>
<rect x="0" y="192.0" width="2960" height="335.0" fill="#faf9f8"/>
<line x1="0" y1="192.0" x2="2960" y2="192.0" stroke="#e6e4e2"/>
<text x="2794.0" y="364.0" font-size="13" font-weight="700" fill="#323130">Business &amp; user flows</text>
<rect x="0" y="527.0" width="2960" height="90.0" fill="#ffffff"/>
<line x1="0" y1="527.0" x2="2960" y2="527.0" stroke="#e6e4e2"/>
<text x="2794.0" y="568.0" font-size="13" font-weight="700" fill="#323130">Application</text>
<text x="2794.0" y="585.0" font-size="13" font-weight="700" fill="#323130">components</text>
<line x1="0" y1="634.5" x2="2960" y2="634.5" stroke="#e6e4e2"/>
<text x="40" y="34" font-size="18" font-weight="700" fill="#242424">Pill flood</text>
<text x="40" y="52" font-size="12" fill="#605e5c">Signals live inside each entity; health rolls up to the workload root.</text>
<text x="40.0" y="673.0" font-size="11.5" font-weight="600" fill="#605e5c">Legend</text>
<circle cx="99.7" cy="669.0" r="4.5" fill="#4c9a2a"/>
<text x="109.7" y="673.0" font-size="11.5" fill="#323130">Healthy</text>
<circle cx="165.5" cy="669.0" r="4.5" fill="#c26a00"/>
<text x="175.5" y="673.0" font-size="11.5" fill="#323130">Degraded</text>
<circle cx="243.0" cy="669.0" r="4.5" fill="#c50f18"/>
<text x="253.0" y="673.0" font-size="11.5" fill="#323130">Unhealthy</text>
<circle cx="321.8" cy="669.0" r="4.5" fill="#8a8886"/>
<text x="331.8" y="673.0" font-size="11.5" fill="#323130">Unknown</text>
<g transform="translate(390.7,662.0) scale(0.875)"><rect x="1.5" y="8" width="2.6" height="6" rx="0.6" fill="#8661c5"/><rect x="5.7" y="4.5" width="2.6" height="9.5" rx="0.6" fill="#0078D4"/><rect x="9.9" y="6.5" width="2.6" height="7.5" rx="0.6" fill="#3fb0ac"/></g>
<text x="408.7" y="673.0" font-size="11.5" fill="#323130">Metric</text>
<g transform="translate(40.0,0)">
<g fill="none" stroke-linecap="butt" stroke-linejoin="round">
<path d="M2133.5 210.0 L2133.5 181.0 Q2133.5 174.0 2126.5 174.0 L1843.8 174.0 Q1836.8 174.0 1836.8 167.0 L1836.8 154.0" stroke="#a0d8a0" stroke-width="1.7"/>
<path d="M1364.1 210.0 L1364.1 181.0 Q1364.1 174.0 1371.1 174.0 L1649.8 174.0 Q1656.8 174.0 1656.8 167.0 L1656.8 154.0" stroke="#db7500" stroke-width="1.7"/>
<path d="M1831.0 545.0 L1831.0 416.5 Q1831.0 409.5 1824.0 409.5 L1473.1 409.5 Q1466.1 409.5 1466.1 402.5 L1466.1 268.0" stroke="#a0d8a0" stroke-width="1.7"/>
<path d="M95.0 545.0 L95.0 308.5 Q95.0 301.5 102.0 301.5 L1255.1 301.5 Q1262.1 301.5 1262.1 294.5 L1262.1 268.0" stroke="#a0d8a0" stroke-width="1.7"/>
<path d="M2059.0 545.0 L2059.0 389.5 Q2059.0 382.5 2052.0 382.5 L1467.1 382.5 Q1460.1 382.5 1460.1 375.5 L1460.1 268.0" stroke="#db7500" stroke-width="1.7"/>
<path d="M316.5 545.0 L316.5 335.5 Q316.5 328.5 323.5 328.5 L1261.1 328.5 Q1268.1 328.5 1268.1 321.5 L1268.1 268.0" stroke="#a0d8a0" stroke-width="1.7"/>
<path d="M547.0 545.0 L547.0 362.5 Q547.0 355.5 554.0 355.5 L1267.1 355.5 Q1274.1 355.5 1274.1 348.5 L1274.1 268.0" stroke="#a0d8a0" stroke-width="1.6" stroke-dasharray="5 4"/>
<path d="M2309.0 545.0 L2309.0 335.5 Q2309.0 328.5 2302.0 328.5 L1461.1 328.5 Q1454.1 328.5 1454.1 321.5 L1454.1 268.0" stroke="#ba0d16" stroke-width="1.7"/>
<path d="M772.0 545.0 L772.0 416.5 Q772.0 409.5 779.0 409.5 L1273.1 409.5 Q1280.1 409.5 1280.1 402.5 L1280.1 268.0" stroke="#a0d8a0" stroke-width="1.7"/>
<path d="M991.0 545.0 L991.0 450.0 Q991.0 443.0 998.0 443.0 L1279.1 443.0 Q1286.1 443.0 1286.1 436.0 L1286.1 268.0" stroke="#a0d8a0" stroke-width="1.7"/>
<path d="M1217.0 545.0 L1217.0 510.5 Q1217.0 503.5 1224.0 503.5 L1285.1 503.5 Q1292.1 503.5 1292.1 496.5 L1292.1 268.0" stroke="#db7500" stroke-width="1.6" stroke-dasharray="5 4"/>
<path d="M1439.5 545.0 L1439.5 446.0 Q1439.5 443.0 1442.5 443.0 L1442.5 443.0 Q1445.5 443.0 1445.5 440.0 L1445.5 268.0" stroke="#a0d8a0" stroke-width="1.7"/>
<path d="M1681.5 545.0 L1681.5 483.5 Q1681.5 476.5 1674.5 476.5 L1437.1 476.5 Q1430.1 476.5 1430.1 469.5 L1430.1 268.0" stroke="#a0d8a0" stroke-width="1.7"/>
<path d="M2539.0 545.0 L2539.0 308.5 Q2539.0 301.5 2532.0 301.5 L1431.1 301.5 Q1424.1 301.5 1424.1 294.5 L1424.1 268.0" stroke="#a0d8a0" stroke-width="1.7"/>
<path d="M2001.0 545.0 L2001.0 362.5 Q2001.0 355.5 2008.0 355.5 L2061.0 355.5 Q2068.0 355.5 2068.0 348.5 L2068.0 268.0" stroke="#a0d8a0" stroke-width="1.7"/>
<path d="M2133.5 545.0 L2133.5 450.0 Q2133.5 443.0 2140.5 443.0 L2148.0 443.0 Q2155.0 443.0 2155.0 436.0 L2155.0 268.0" stroke="#db7500" stroke-width="1.7"/>
<path d="M2315.0 545.0 L2315.0 416.5 Q2315.0 409.5 2308.0 409.5 L2218.0 409.5 Q2211.0 409.5 2211.0 402.5 L2211.0 268.0" stroke="#ba0d16" stroke-width="1.7"/>
<path d="M2545.0 545.0 L2545.0 362.5 Q2545.0 355.5 2538.0 355.5 L2212.0 355.5 Q2205.0 355.5 2205.0 348.5 L2205.0 268.0" stroke="#a0d8a0" stroke-width="1.6" stroke-dasharray="5 4"/>
</g>
<g stroke="none"><rect x="1806.7" y="399.5" width="48.6" height="20" rx="10" fill="#ffffff" stroke="#d8d6d4" stroke-width="1"/><text x="1831.0" y="413.1" font-size="10.5" font-weight="600" fill="#242424" text-anchor="middle">reads</text></g>
<g stroke="none"><rect x="69.5" y="291.5" width="51.0" height="20" rx="10" fill="#ffffff" stroke="#d8d6d4" stroke-width="1"/><text x="95.0" y="305.1" font-size="10.5" font-weight="600" fill="#242424" text-anchor="middle">writes</text></g>
<g stroke="none"><rect x="1821.6" y="372.5" width="175.9" height="20" rx="10" fill="#ffffff" stroke="#d8d6d4" stroke-width="1"/><text x="1909.5" y="386.1" font-size="10.5" font-weight="600" fill="#242424" text-anchor="middle">asynchronous replication path</text></g>
<g stroke="none"><rect x="288.3" y="318.5" width="56.3" height="20" rx="10" fill="#ffffff" stroke="#d8d6d4" stroke-width="1"/><text x="316.5" y="332.1" font-size="10.5" font-weight="600" fill="#242424" text-anchor="middle">caches</text></g>
<g stroke="none"><rect x="466.2" y="345.5" width="161.6" height="20" rx="10" fill="#ffffff" stroke="#d8d6d4" stroke-width="1"/><text x="547.0" y="359.1" font-size="10.5" font-weight="600" fill="#242424" text-anchor="middle">limited propagation window</text></g>
<g stroke="none"><rect x="2278.5" y="318.5" width="61.1" height="20" rx="10" fill="#ffffff" stroke="#d8d6d4" stroke-width="1"/><text x="2309.0" y="332.1" font-size="10.5" font-weight="600" fill="#242424" text-anchor="middle">streams</text></g>
<g stroke="none"><rect x="732.8" y="399.5" width="78.3" height="20" rx="10" fill="#ffffff" stroke="#d8d6d4" stroke-width="1"/><text x="772.0" y="413.1" font-size="10.5" font-weight="600" fill="#242424" text-anchor="middle">bulk import</text></g>
<g stroke="none"><rect x="962.0" y="433.0" width="58.1" height="20" rx="10" fill="#ffffff" stroke="#d8d6d4" stroke-width="1"/><text x="991.0" y="446.6" font-size="10.5" font-weight="600" fill="#242424" text-anchor="middle">queries</text></g>
<g stroke="none"><rect x="1160.0" y="493.5" width="114.0" height="20" rx="10" fill="#ffffff" stroke="#d8d6d4" stroke-width="1"/><text x="1217.0" y="507.1" font-size="10.5" font-weight="600" fill="#242424" text-anchor="middle">sampled telemetry</text></g>
<g stroke="none"><rect x="1433.6" y="433.0" width="53.9" height="20" rx="10" fill="#ffffff" stroke="#d8d6d4" stroke-width="1"/><text x="1460.6" y="446.6" font-size="10.5" font-weight="600" fill="#242424" text-anchor="middle">events</text></g>
<g stroke="none"><rect x="1619.4" y="466.5" width="124.2" height="20" rx="10" fill="#ffffff" stroke="#d8d6d4" stroke-width="1"/><text x="1681.5" y="480.1" font-size="10.5" font-weight="600" fill="#242424" text-anchor="middle">change data capture</text></g>
<g stroke="none"><rect x="2513.8" y="291.5" width="50.4" height="20" rx="10" fill="#ffffff" stroke="#d8d6d4" stroke-width="1"/><text x="2539.0" y="305.1" font-size="10.5" font-weight="600" fill="#242424" text-anchor="middle">syncs</text></g>
<g stroke="none"><rect x="1964.8" y="345.5" width="72.4" height="20" rx="10" fill="#ffffff" stroke="#d8d6d4" stroke-width="1"/><text x="2001.0" y="359.1" font-size="10.5" font-weight="600" fill="#242424" text-anchor="middle">also feeds</text></g>
<g stroke="none"><rect x="2062.5" y="426.5" width="186.7" height="33" rx="10" fill="#ffffff" stroke="#d8d6d4" stroke-width="1"/><text x="2155.8" y="440.1" font-size="10.5" font-weight="600" fill="#242424" text-anchor="middle">secondary rollup with an</text><text x="2155.8" y="453.1" font-size="10.5" font-weight="600" fill="#242424" text-anchor="middle">extremely long relationship label</text></g>
<g stroke="none"><rect x="2247.4" y="399.5" width="58.1" height="20" rx="10" fill="#ffffff" stroke="#d8d6d4" stroke-width="1"/><text x="2276.5" y="413.1" font-size="10.5" font-weight="600" fill="#242424" text-anchor="middle">failover</text></g>
<g stroke="none"><rect x="2472.0" y="345.5" width="63.5" height="20" rx="10" fill="#ffffff" stroke="#d8d6d4" stroke-width="1"/><text x="2503.8" y="359.1" font-size="10.5" font-weight="600" fill="#242424" text-anchor="middle">sampled</text></g>
<g filter="url(#cs)"><rect x="1817.0" y="545.0" width="198" height="58" rx="10" fill="#f2f8f2" stroke="#a0d8a0" stroke-width="2"/></g><g transform="translate(1823.0,564.16) scale(0.82)"><path d="M12 3.2l7.6 4.4v8.8L12 20.8l-7.6-4.4V7.6z" fill="none" stroke="#605e5c" stroke-width="1.6" stroke-linecap="round" stroke-linejoin="round"/><path d="M4.6 7.8l7.4 4.3 7.4-4.3M12 12.1v8.6" fill="none" stroke="#605e5c" stroke-width="1.6" stroke-linecap="round" stroke-linejoin="round"/></g><text x="1851.0" y="577.5" font-size="12.5" font-weight="600" fill="#242424">Alpha service</text><rect x="1942.7" y="565.00" width="64.3" height="18" rx="9" fill="#ffffff" stroke="#a0d8a0" stroke-width="1"/><circle cx="1953.7" cy="574.0" r="6" fill="#4c9a2a"/><path d="M1951.0 574.0 l1.9 1.9 l3.4 -3.9" fill="none" stroke="#ffffff" stroke-width="1.4" stroke-linecap="round" stroke-linejoin="round"/><text x="1962.7" y="577.57" font-size="10.5" fill="#323130">Healthy</text>
<g filter="url(#cs)"><rect x="1250.1" y="210.0" width="228" height="58" rx="10" fill="#fbf2e7" stroke="#db7500" stroke-width="2"/></g><g transform="translate(1256.1,229.16) scale(0.82)"><rect x="4" y="5" width="16" height="3" rx="1" fill="none" stroke="#605e5c" stroke-width="1.6" stroke-linecap="round" stroke-linejoin="round"/><rect x="4" y="10.5" width="16" height="3" rx="1" fill="none" stroke="#605e5c" stroke-width="1.6" stroke-linecap="round" stroke-linejoin="round"/><rect x="4" y="16" width="10" height="3" rx="1" fill="none" stroke="#605e5c" stroke-width="1.6" stroke-linecap="round" stroke-linejoin="round"/></g><text x="1284.1" y="242.5" font-size="12.5" font-weight="600" fill="#242424">Aggregation hub</text><rect x="1395.1" y="230.00" width="75.0" height="18" rx="9" fill="#ffffff" stroke="#db7500" stroke-width="1"/><circle cx="1406.1" cy="239.0" r="6" fill="#c26a00"/><text x="1415.1" y="242.57" font-size="10.5" fill="#323130">Degraded</text>
<g filter="url(#cs)"><rect x="0.0" y="545.0" width="190" height="58" rx="10" fill="#f2f8f2" stroke="#a0d8a0" stroke-width="2"/></g><g transform="translate(6.0,564.16) scale(0.82)"><path d="M12 3.2l7.6 4.4v8.8L12 20.8l-7.6-4.4V7.6z" fill="none" stroke="#605e5c" stroke-width="1.6" stroke-linecap="round" stroke-linejoin="round"/><path d="M4.6 7.8l7.4 4.3 7.4-4.3M12 12.1v8.6" fill="none" stroke="#605e5c" stroke-width="1.6" stroke-linecap="round" stroke-linejoin="round"/></g><text x="34.0" y="577.5" font-size="12.5" font-weight="600" fill="#242424">Beta service</text><rect x="117.7" y="565.00" width="64.3" height="18" rx="9" fill="#ffffff" stroke="#a0d8a0" stroke-width="1"/><circle cx="128.7" cy="574.0" r="6" fill="#4c9a2a"/><path d="M126.0 574.0 l1.9 1.9 l3.4 -3.9" fill="none" stroke="#ffffff" stroke-width="1.4" stroke-linecap="round" stroke-linejoin="round"/><text x="137.7" y="577.57" font-size="10.5" fill="#323130">Healthy</text>
<g filter="url(#cs)"><rect x="2045.0" y="545.0" width="220" height="58" rx="10" fill="#fbf2e7" stroke="#db7500" stroke-width="2"/></g><g transform="translate(2051.0,564.16) scale(0.82)"><path d="M12 3.2l7.6 4.4v8.8L12 20.8l-7.6-4.4V7.6z" fill="none" stroke="#605e5c" stroke-width="1.6" stroke-linecap="round" stroke-linejoin="round"/><path d="M4.6 7.8l7.4 4.3 7.4-4.3M12 12.1v8.6" fill="none" stroke="#605e5c" stroke-width="1.6" stroke-linecap="round" stroke-linejoin="round"/></g><text x="2079.0" y="577.5" font-size="12.5" font-weight="600" fill="#242424">Gamma service</text><rect x="2182.0" y="565.00" width="75.0" height="18" rx="9" fill="#ffffff" stroke="#db7500" stroke-width="1"/><circle cx="2193.0" cy="574.0" r="6" fill="#c26a00"/><text x="2202.0" y="577.57" font-size="10.5" fill="#323130">Degraded</text>
<g filter="url(#cs)"><rect x="220.0" y="545.0" width="193" height="58" rx="10" fill="#f2f8f2" stroke="#a0d8a0" stroke-width="2"/></g><g transform="translate(226.0,564.16) scale(0.82)"><path d="M12 3.2l7.6 4.4v8.8L12 20.8l-7.6-4.4V7.6z" fill="none" stroke="#605e5c" stroke-width="1.6" stroke-linecap="round" stroke-linejoin="round"/><path d="M4.6 7.8l7.4 4.3 7.4-4.3M12 12.1v8.6" fill="none" stroke="#605e5c" stroke-width="1.6" stroke-linecap="round" stroke-linejoin="round"/></g><text x="254.0" y="577.5" font-size="12.5" font-weight="600" fill="#242424">Delta service</text><rect x="340.7" y="565.00" width="64.3" height="18" rx="9" fill="#ffffff" stroke="#a0d8a0" stroke-width="1"/><circle cx="351.7" cy="574.0" r="6" fill="#4c9a2a"/><path d="M349.0 574.0 l1.9 1.9 l3.4 -3.9" fill="none" stroke="#ffffff" stroke-width="1.4" stroke-linecap="round" stroke-linejoin="round"/><text x="360.7" y="577.57" font-size="10.5" fill="#323130">Healthy</text>
<g filter="url(#cs)"><rect x="443.0" y="545.0" width="208" height="58" rx="10" fill="#f2f8f2" stroke="#a0d8a0" stroke-width="2"/></g><g transform="translate(449.0,564.16) scale(0.82)"><path d="M12 3.2l7.6 4.4v8.8L12 20.8l-7.6-4.4V7.6z" fill="none" stroke="#605e5c" stroke-width="1.6" stroke-linecap="round" stroke-linejoin="round"/><path d="M4.6 7.8l7.4 4.3 7.4-4.3M12 12.1v8.6" fill="none" stroke="#605e5c" stroke-width="1.6" stroke-linecap="round" stroke-linejoin="round"/></g><text x="477.0" y="577.5" font-size="12.5" font-weight="600" fill="#242424">Epsilon service</text><rect x="578.7" y="565.00" width="64.3" height="18" rx="9" fill="#ffffff" stroke="#a0d8a0" stroke-width="1"/><circle cx="589.7" cy="574.0" r="6" fill="#4c9a2a"/><path d="M587.0 574.0 l1.9 1.9 l3.4 -3.9" fill="none" stroke="#ffffff" stroke-width="1.4" stroke-linecap="round" stroke-linejoin="round"/><text x="598.7" y="577.57" font-size="10.5" fill="#323130">Healthy</text>
<g filter="url(#cs)"><rect x="2295.0" y="545.0" width="200" height="58" rx="10" fill="#faeceb" stroke="#ba0d16" stroke-width="2"/></g><g transform="translate(2301.0,564.16) scale(0.82)"><path d="M12 3.2l7.6 4.4v8.8L12 20.8l-7.6-4.4V7.6z" fill="none" stroke="#605e5c" stroke-width="1.6" stroke-linecap="round" stroke-linejoin="round"/><path d="M4.6 7.8l7.4 4.3 7.4-4.3M12 12.1v8.6" fill="none" stroke="#605e5c" stroke-width="1.6" stroke-linecap="round" stroke-linejoin="round"/></g><text x="2329.0" y="577.5" font-size="12.5" font-weight="600" fill="#242424">Zeta service</text><rect x="2410.8" y="565.00" width="76.2" height="18" rx="9" fill="#ffffff" stroke="#ba0d16" stroke-width="1"/><circle cx="2421.8" cy="574.0" r="6" fill="#c50f18"/><text x="2430.8" y="577.57" font-size="10.5" fill="#323130">Unhealthy</text>
<g filter="url(#cs)"><rect x="681.0" y="545.0" width="182" height="58" rx="10" fill="#f2f8f2" stroke="#a0d8a0" stroke-width="2"/></g><g transform="translate(687.0,564.16) scale(0.82)"><path d="M12 3.2l7.6 4.4v8.8L12 20.8l-7.6-4.4V7.6z" fill="none" stroke="#605e5c" stroke-width="1.6" stroke-linecap="round" stroke-linejoin="round"/><path d="M4.6 7.8l7.4 4.3 7.4-4.3M12 12.1v8.6" fill="none" stroke="#605e5c" stroke-width="1.6" stroke-linecap="round" stroke-linejoin="round"/></g><text x="715.0" y="577.5" font-size="12.5" font-weight="600" fill="#242424">Eta service</text><rect x="790.7" y="565.00" width="64.3" height="18" rx="9" fill="#ffffff" stroke="#a0d8a0" stroke-width="1"/><circle cx="801.7" cy="574.0" r="6" fill="#4c9a2a"/><path d="M799.0 574.0 l1.9 1.9 l3.4 -3.9" fill="none" stroke="#ffffff" stroke-width="1.4" stroke-linecap="round" stroke-linejoin="round"/><text x="810.7" y="577.57" font-size="10.5" fill="#323130">Healthy</text>
<g filter="url(#cs)"><rect x="893.0" y="545.0" width="196" height="58" rx="10" fill="#f2f8f2" stroke="#a0d8a0" stroke-width="2"/></g><g transform="translate(899.0,564.16) scale(0.82)"><path d="M12 3.2l7.6 4.4v8.8L12 20.8l-7.6-4.4V7.6z" fill="none" stroke="#605e5c" stroke-width="1.6" stroke-linecap="round" stroke-linejoin="round"/><path d="M4.6 7.8l7.4 4.3 7.4-4.3M12 12.1v8.6" fill="none" stroke="#605e5c" stroke-width="1.6" stroke-linecap="round" stroke-linejoin="round"/></g><text x="927.0" y="577.5" font-size="12.5" font-weight="600" fill="#242424">Theta service</text><rect x="1016.7" y="565.00" width="64.3" height="18" rx="9" fill="#ffffff" stroke="#a0d8a0" stroke-width="1"/><circle cx="1027.7" cy="574.0" r="6" fill="#4c9a2a"/><path d="M1025.0 574.0 l1.9 1.9 l3.4 -3.9" fill="none" stroke="#ffffff" stroke-width="1.4" stroke-linecap="round" stroke-linejoin="round"/><text x="1036.7" y="577.57" font-size="10.5" fill="#323130">Healthy</text>
<g filter="url(#cs)"><rect x="1119.0" y="545.0" width="196" height="58" rx="10" fill="#fbf2e7" stroke="#db7500" stroke-width="2"/></g><g transform="translate(1125.0,564.16) scale(0.82)"><path d="M12 3.2l7.6 4.4v8.8L12 20.8l-7.6-4.4V7.6z" fill="none" stroke="#605e5c" stroke-width="1.6" stroke-linecap="round" stroke-linejoin="round"/><path d="M4.6 7.8l7.4 4.3 7.4-4.3M12 12.1v8.6" fill="none" stroke="#605e5c" stroke-width="1.6" stroke-linecap="round" stroke-linejoin="round"/></g><text x="1153.0" y="577.5" font-size="12.5" font-weight="600" fill="#242424">Iota service</text><rect x="1232.0" y="565.00" width="75.0" height="18" rx="9" fill="#ffffff" stroke="#db7500" stroke-width="1"/><circle cx="1243.0" cy="574.0" r="6" fill="#c26a00"/><text x="1252.0" y="577.57" font-size="10.5" fill="#323130">Degraded</text>
<g filter="url(#cs)"><rect x="1345.0" y="545.0" width="201" height="58" rx="10" fill="#f2f8f2" stroke="#a0d8a0" stroke-width="2"/></g><g transform="translate(1351.0,564.16) scale(0.82)"><rect x="4" y="4.5" width="16" height="6" rx="1.2" fill="none" stroke="#605e5c" stroke-width="1.6" stroke-linecap="round" stroke-linejoin="round"/><rect x="4" y="13.5" width="16" height="6" rx="1.2" fill="none" stroke="#605e5c" stroke-width="1.6" stroke-linecap="round" stroke-linejoin="round"/><path d="M7.2 7.5h.01M7.2 16.5h.01" fill="none" stroke="#605e5c" stroke-width="1.6" stroke-linecap="round" stroke-linejoin="round"/></g><text x="1379.0" y="577.5" font-size="12.5" font-weight="600" fill="#242424">Kappa service</text><rect x="1473.7" y="565.00" width="64.3" height="18" rx="9" fill="#ffffff" stroke="#a0d8a0" stroke-width="1"/><circle cx="1484.7" cy="574.0" r="6" fill="#4c9a2a"/><path d="M1482.0 574.0 l1.9 1.9 l3.4 -3.9" fill="none" stroke="#ffffff" stroke-width="1.4" stroke-linecap="round" stroke-linejoin="round"/><text x="1493.7" y="577.57" font-size="10.5" fill="#323130">Healthy</text>
<g filter="url(#cs)"><rect x="1576.0" y="545.0" width="211" height="58" rx="10" fill="#f2f8f2" stroke="#a0d8a0" stroke-width="2"/></g><g transform="translate(1582.0,564.16) scale(0.82)"><path d="M12 3.2l7.6 4.4v8.8L12 20.8l-7.6-4.4V7.6z" fill="none" stroke="#605e5c" stroke-width="1.6" stroke-linecap="round" stroke-linejoin="round"/><path d="M4.6 7.8l7.4 4.3 7.4-4.3M12 12.1v8.6" fill="none" stroke="#605e5c" stroke-width="1.6" stroke-linecap="round" stroke-linejoin="round"/></g><text x="1610.0" y="577.5" font-size="12.5" font-weight="600" fill="#242424">Lambda service</text><rect x="1714.7" y="565.00" width="64.3" height="18" rx="9" fill="#ffffff" stroke="#a0d8a0" stroke-width="1"/><circle cx="1725.7" cy="574.0" r="6" fill="#4c9a2a"/><path d="M1723.0 574.0 l1.9 1.9 l3.4 -3.9" fill="none" stroke="#ffffff" stroke-width="1.4" stroke-linecap="round" stroke-linejoin="round"/><text x="1734.7" y="577.57" font-size="10.5" fill="#323130">Healthy</text>
<g filter="url(#cs)"><rect x="2525.0" y="545.0" width="181" height="58" rx="10" fill="#f2f8f2" stroke="#a0d8a0" stroke-width="2"/></g><g transform="translate(2531.0,564.16) scale(0.82)"><path d="M12 3.2l7.6 4.4v8.8L12 20.8l-7.6-4.4V7.6z" fill="none" stroke="#605e5c" stroke-width="1.6" stroke-linecap="round" stroke-linejoin="round"/><path d="M4.6 7.8l7.4 4.3 7.4-4.3M12 12.1v8.6" fill="none" stroke="#605e5c" stroke-width="1.6" stroke-linecap="round" stroke-linejoin="round"/></g><text x="2559.0" y="577.5" font-size="12.5" font-weight="600" fill="#242424">Mu service</text><rect x="2633.7" y="565.00" width="64.3" height="18" rx="9" fill="#ffffff" stroke="#a0d8a0" stroke-width="1"/><circle cx="2644.7" cy="574.0" r="6" fill="#4c9a2a"/><path d="M2642.0 574.0 l1.9 1.9 l3.4 -3.9" fill="none" stroke="#ffffff" stroke-width="1.4" stroke-linecap="round" stroke-linejoin="round"/><text x="2653.7" y="577.57" font-size="10.5" fill="#323130">Healthy</text>
<g filter="url(#cs)"><rect x="2044.0" y="210.0" width="179" height="58" rx="10" fill="#f2f8f2" stroke="#a0d8a0" stroke-width="2"/></g><g transform="translate(2050.0,229.16) scale(0.82)"><rect x="4" y="5" width="16" height="3" rx="1" fill="none" stroke="#605e5c" stroke-width="1.6" stroke-linecap="round" stroke-linejoin="round"/><rect x="4" y="10.5" width="16" height="3" rx="1" fill="none" stroke="#605e5c" stroke-width="1.6" stroke-linecap="round" stroke-linejoin="round"/><rect x="4" y="16" width="10" height="3" rx="1" fill="none" stroke="#605e5c" stroke-width="1.6" stroke-linecap="round" stroke-linejoin="round"/></g><text x="2078.0" y="242.5" font-size="12.5" font-weight="600" fill="#242424">Mirror hub</text><rect x="2150.7" y="230.00" width="64.3" height="18" rx="9" fill="#ffffff" stroke="#a0d8a0" stroke-width="1"/><circle cx="2161.7" cy="239.0" r="6" fill="#4c9a2a"/><path d="M2159.0 239.0 l1.9 1.9 l3.4 -3.9" fill="none" stroke="#ffffff" stroke-width="1.4" stroke-linecap="round" stroke-linejoin="round"/><text x="2170.7" y="242.57" font-size="10.5" fill="#323130">Healthy</text>
<g filter="url(#cs)"><rect x="1642.8" y="96.0" width="212" height="58" rx="10" fill="#fbf2e7" stroke="#db7500" stroke-width="2"/></g><g transform="translate(1648.8,115.16) scale(0.82)"><circle cx="12" cy="12" r="8.4" fill="none" stroke="#605e5c" stroke-width="1.6" stroke-linecap="round" stroke-linejoin="round"/><path d="M4.2 12h3l2-3.6 2.8 7.2 1.8-3.6h4" fill="none" stroke="#605e5c" stroke-width="1.6" stroke-linecap="round" stroke-linejoin="round"/></g><text x="1676.8" y="128.5" font-size="12.5" font-weight="600" fill="#242424">Workload root</text><rect x="1771.8" y="116.00" width="75.0" height="18" rx="9" fill="#ffffff" stroke="#db7500" stroke-width="1"/><circle cx="1782.8" cy="125.0" r="6" fill="#c26a00"/><text x="1791.8" y="128.57" font-size="10.5" fill="#323130">Degraded</text>
</g></svg>