<svg xmlns="http://www.w3.org/2000/svg" width="1740" height="648" viewBox="0 0 1740 648" font-family="Segoe UI, -apple-system, BlinkMacSystemFont, Helvetica, Arial, sans-serif">
<defs><filter id="cs" x="-20%" y="-20%" width="140%" height="140%"><feDropShadow dx="0" dy="1" stdDeviation="1.3" flood-color="#000" flood-opacity="0.1"/></filter></defs>
<rect width="1740" height="648" fill="#ffffff"/>
<rect x="0" y="78.0" width="1740" height="185.0" fill="#ffffff"/>
<line x1="0" y1="78.0" x2="1740" y2="78.0" stroke="#e6e4e2"/>
<text x="1574.0" y="175.0" font-size="13" font-weight="700" fill="#323130">Workload root</text>
<rect x="0" y="263.0" width="1740" height="250.0" fill="#faf9f8"/>
<line x1="0" y1="263.0" x2="1740" y2="263.0" stroke="#e6e4e2"/>
<text x="1574.0" y="392.5" font-size="13" font-weight="700" fill="#323130">Business &amp; user flows</text>
<rect x="0" y="513.0" width="1740" height="117.0" fill="#ffffff"/>
<line x1="0" y1="513.0" x2="1740" y2="513.0" stroke="#e6e4e2"/>
<text x="1574.0" y="567.5" font-size="13" font-weight="700" fill="#323130">Application</text>
<text x="1574.0" y="584.5" font-size="13" font-weight="700" fill="#323130">components</text>
<line x1="0" y1="647.5" x2="1740" y2="647.5" stroke="#e6e4e2"/>
<text x="40" y="34" font-size="18" font-weight="700" fill="#242424">Pills stress test</text>
<text x="40" y="52" font-size="12" fill="#605e5c">Signals live inside each entity; health rolls up to the workload root.</text>
<text x="1336.6" y="48" font-size="11.5" font-weight="600" fill="#605e5c" text-anchor="end">Legend</text>
<circle cx="1354.6" cy="44" r="4.5" fill="#4c9a2a"/>
<text x="1364.6" y="48" font-size="11.5" fill="#323130">Healthy</text>
<circle cx="1420.3" cy="44" r="4.5" fill="#c26a00"/>
<text x="1430.3" y="48" font-size="11.5" fill="#323130">Degraded</text>
<circle cx="1497.9" cy="44" r="4.5" fill="#c50f18"/>
<text x="1507.9" y="48" font-size="11.5" fill="#323130">Unhealthy</text>
<circle cx="1576.7" cy="44" r="4.5" fill="#8a8886"/>
<text x="1586.7" y="48" font-size="11.5" fill="#323130">Unknown</text>
<g transform="translate(1645.6,37.0) scale(0.875)"><rect x="1.5" y="8" width="2.6" height="6" rx="0.6" fill="#8661c5"/><rect x="5.7" y="4.5" width="2.6" height="9.5" rx="0.6" fill="#0078D4"/><rect x="9.9" y="6.5" width="2.6" height="7.5" rx="0.6" fill="#3fb0ac"/></g>
<text x="1663.6" y="48" font-size="11.5" fill="#323130">Metric</text>
<g transform="translate(40.0,0)">
<g fill="none" stroke-linecap="butt" stroke-linejoin="round">
<path d="M86.5 531.0 L86.5 388.5 Q86.5 381.5 93.5 381.5 L658.2 381.5 Q665.2 381.5 665.2 374.5 L665.2 339.0" stroke="#a0d8a0" stroke-width="1.7"/>
<path d="M295.0 531.0 L295.0 415.5 Q295.0 408.5 302.0 408.5 L664.2 408.5 Q671.2 408.5 671.2 401.5 L671.2 339.0" stroke="#db7500" stroke-width="1.7"/>
<path d="M503.5 531.0 L503.5 442.5 Q503.5 435.5 510.5 435.5 L670.2 435.5 Q677.2 435.5 677.2 428.5 L677.2 339.0" stroke="#a0d8a0" stroke-width="1.7"/>
<path d="M712.5 531.0 L712.5 492.5 Q712.5 489.5 709.5 489.5 L709.5 489.5 Q706.5 489.5 706.5 486.5 L706.5 339.0" stroke="#a0d8a0" stroke-width="1.7"/>
<path d="M915.0 531.0 L915.0 469.5 Q915.0 462.5 908.0 462.5 L843.2 462.5 Q836.2 462.5 836.2 455.5 L836.2 339.0" stroke="#ba0d16" stroke-width="1.6" stroke-dasharray="5 4"/>
<path d="M1123.0 531.0 L1123.0 415.5 Q1123.0 408.5 1116.0 408.5 L837.2 408.5 Q830.2 408.5 830.2 401.5 L830.2 339.0" stroke="#a0d8a0" stroke-width="1.7"/>
<path d="M1253.0 531.0 L1253.0 388.5 Q1253.0 381.5 1246.0 381.5 L831.2 381.5 Q824.2 381.5 824.2 374.5 L824.2 339.0" stroke="#db7500" stroke-width="1.7"/>
<path d="M1259.0 531.0 L1259.0 438.5 Q1259.0 435.5 1262.0 435.5 L1262.0 435.5 Q1265.0 435.5 1265.0 432.5 L1265.0 348.0" stroke="#db7500" stroke-width="1.7"/>
<path d="M1287.0 531.0 L1287.0 469.5 Q1287.0 462.5 1287.0 455.5 L1287.0 187.0 Q1287.0 180.0 1280.0 180.0 L1201.4 180.0 Q1194.4 180.0 1194.4 173.0 L1194.4 154.0" stroke="#db7500" stroke-width="1.6" stroke-dasharray="5 4"/>
<path d="M750.7 281.0 L750.7 206.5 Q750.7 199.5 757.7 199.5 L999.4 199.5 Q1006.4 199.5 1006.4 192.5 L1006.4 154.0" stroke="#db7500" stroke-width="1.7"/>
<path d="M1182.0 281.0 L1182.0 236.0 Q1182.0 233.0 1185.0 233.0 L1185.0 233.0 Q1188.0 233.0 1188.0 230.0 L1188.0 154.0" stroke="#a0d8a0" stroke-width="1.7"/>
</g>
<g stroke="none"><rect x="62.2" y="371.5" width="48.6" height="20" rx="10" fill="#ffffff" stroke="#d8d6d4" stroke-width="1"/><text x="86.5" y="385.1" font-size="10.5" font-weight="600" fill="#242424" text-anchor="middle">reads</text></g>
<g stroke="none"><rect x="269.5" y="398.5" width="51.0" height="20" rx="10" fill="#ffffff" stroke="#d8d6d4" stroke-width="1"/><text x="295.0" y="412.1" font-size="10.5" font-weight="600" fill="#242424" text-anchor="middle">writes</text></g>
<g stroke="none"><rect x="475.3" y="425.5" width="56.3" height="20" rx="10" fill="#ffffff" stroke="#d8d6d4" stroke-width="1"/><text x="503.5" y="439.1" font-size="10.5" font-weight="600" fill="#242424" text-anchor="middle">caches</text></g>
<g stroke="none"><rect x="683.5" y="479.5" width="58.1" height="20" rx="10" fill="#ffffff" stroke="#d8d6d4" stroke-width="1"/><text x="712.5" y="493.1" font-size="10.5" font-weight="600" fill="#242424" text-anchor="middle">queries</text></g>
<g stroke="none"><rect x="855.3" y="452.5" width="119.4" height="20" rx="10" fill="#ffffff" stroke="#d8d6d4" stroke-width="1"/><text x="915.0" y="466.1" font-size="10.5" font-weight="600" fill="#242424" text-anchor="middle">limited propagation</text></g>
<g stroke="none"><rect x="1067.5" y="398.5" width="111.1" height="20" rx="10" fill="#ffffff" stroke="#d8d6d4" stroke-width="1"/><text x="1123.0" y="412.1" font-size="10.5" font-weight="600" fill="#242424" text-anchor="middle">streams events to</text></g>
<g stroke="none"><rect x="1201.0" y="371.5" width="60.5" height="20" rx="10" fill="#ffffff" stroke="#d8d6d4" stroke-width="1"/><text x="1231.2" y="385.1" font-size="10.5" font-weight="600" fill="#242424" text-anchor="middle">used by</text></g>
<g stroke="none"><rect x="1211.1" y="425.5" width="72.4" height="20" rx="10" fill="#ffffff" stroke="#d8d6d4" stroke-width="1"/><text x="1247.3" y="439.1" font-size="10.5" font-weight="600" fill="#242424" text-anchor="middle">also feeds</text></g>
<g stroke="none"><rect x="1262.5" y="452.5" width="145.0" height="20" rx="10" fill="#ffffff" stroke="#d8d6d4" stroke-width="1"/><text x="1335.0" y="466.1" font-size="10.5" font-weight="600" fill="#242424" text-anchor="middle">suppressed propagation</text></g>
<g stroke="none"><rect x="704.7" y="189.5" width="92.0" height="20" rx="10" fill="#ffffff" stroke="#d8d6d4" stroke-width="1"/><text x="750.7" y="203.1" font-size="10.5" font-weight="600" fill="#242424" text-anchor="middle">primary rollup</text></g>
<g stroke="none"><rect x="1099.4" y="216.5" width="165.2" height="33" rx="10" fill="#ffffff" stroke="#d8d6d4" stroke-width="1"/><text x="1182.0" y="230.1" font-size="10.5" font-weight="600" fill="#242424" text-anchor="middle">secondary rollup with a long</text><text x="1182.0" y="243.1" font-size="10.5" font-weight="600" fill="#242424" text-anchor="middle">label</text></g>
<g filter="url(#cs)"><rect x="0.0" y="531.0" width="173" height="85" rx="10" fill="#f2f8f2" stroke="#a0d8a0" stroke-width="2"/></g><g transform="translate(6.0,538.16) scale(0.82)"><path d="M12 3.2l7.6 4.4v8.8L12 20.8l-7.6-4.4V7.6z" fill="none" stroke="#605e5c" stroke-width="1.6" stroke-linecap="round" stroke-linejoin="round"/><path d="M4.6 7.8l7.4 4.3 7.4-4.3M12 12.1v8.6" fill="none" stroke="#605e5c" stroke-width="1.6" stroke-linecap="round" stroke-linejoin="round"/></g><text x="34.0" y="551.5" font-size="12.5" font-weight="600" fill="#242424">Service A</text><rect x="100.7" y="539.00" width="64.3" height="18" rx="9" fill="#ffffff" stroke="#a0d8a0" stroke-width="1"/><circle cx="111.7" cy="548.0" r="6" fill="#4c9a2a"/><path d="M109.0 548.0 l1.9 1.9 l3.4 -3.9" fill="none" stroke="#ffffff" stroke-width="1.4" stroke-linecap="round" stroke-linejoin="round"/><text x="120.7" y="551.57" font-size="10.5" fill="#323130">Healthy</text><line x1="1.0" y1="568.0" x2="172.0" y2="568.0" stroke="#e6e4e2"/><circle cx="16.0" cy="583.0" r="6" fill="#4c9a2a"/><path d="M13.3 583.0 l1.9 1.9 l3.4 -3.9" fill="none" stroke="#ffffff" stroke-width="1.4" stroke-linecap="round" stroke-linejoin="round"/><g transform="translate(32.0,576.0) scale(0.875)"><rect x="1.5" y="8" width="2.6" height="6" rx="0.6" fill="#8661c5"/><rect x="5.7" y="4.5" width="2.6" height="9.5" rx="0.6" fill="#0078D4"/><rect x="9.9" y="6.5" width="2.6" height="7.5" rx="0.6" fill="#3fb0ac"/></g><text x="52.0" y="586.5" font-size="10.5" fill="#242424">m1</text><text x="161.0" y="586.5" font-size="10.5" font-weight="400" fill="#605e5c" text-anchor="end">2</text><line x1="10.0" y1="592.0" x2="163.0" y2="592.0" stroke="#e6e4e2" stroke-opacity="0.7"/><circle cx="16.0" cy="601.0" r="6" fill="#4c9a2a"/><path d="M13.3 601.0 l1.9 1.9 l3.4 -3.9" fill="none" stroke="#ffffff" stroke-width="1.4" stroke-linecap="round" stroke-linejoin="round"/><g transform="translate(32.0,594.0) scale(0.875)"><rect x="1.5" y="8" width="2.6" height="6" rx="0.6" fill="#8661c5"/><rect x="5.7" y="4.5" width="2.6" height="9.5" rx="0.6" fill="#0078D4"/><rect x="9.9" y="6.5" width="2.6" height="7.5" rx="0.6" fill="#3fb0ac"/></g><text x="52.0" y="604.5" font-size="10.5" fill="#242424">m2</text><text x="161.0" y="604.5" font-size="10.5" font-weight="400" fill="#605e5c" text-anchor="end">0</text>
<g filter="url(#cs)"><rect x="203.0" y="531.0" width="184" height="85" rx="10" fill="#fbf2e7" stroke="#db7500" stroke-width="2"/></g><g transform="translate(209.0,538.16) scale(0.82)"><path d="M12 3.2l7.6 4.4v8.8L12 20.8l-7.6-4.4V7.6z" fill="none" stroke="#605e5c" stroke-width="1.6" stroke-linecap="round" stroke-linejoin="round"/><path d="M4.6 7.8l7.4 4.3 7.4-4.3M12 12.1v8.6" fill="none" stroke="#605e5c" stroke-width="1.6" stroke-linecap="round" stroke-linejoin="round"/></g><text x="237.0" y="551.5" font-size="12.5" font-weight="600" fill="#242424">Service B</text><rect x="304.0" y="539.00" width="75.0" height="18" rx="9" fill="#ffffff" stroke="#db7500" stroke-width="1"/><circle cx="315.0" cy="548.0" r="6" fill="#c26a00"/><text x="324.0" y="551.57" font-size="10.5" fill="#323130">Degraded</text><line x1="204.0" y1="568.0" x2="386.0" y2="568.0" stroke="#e6e4e2"/><circle cx="219.0" cy="583.0" r="6" fill="#c26a00"/><g transform="translate(235.0,576.0) scale(0.875)"><rect x="1.5" y="8" width="2.6" height="6" rx="0.6" fill="#8661c5"/><rect x="5.7" y="4.5" width="2.6" height="9.5" rx="0.6" fill="#0078D4"/><rect x="9.9" y="6.5" width="2.6" height="7.5" rx="0.6" fill="#3fb0ac"/></g><text x="255.0" y="586.5" font-size="10.5" fill="#242424">m1</text><text x="375.0" y="586.5" font-size="10.5" font-weight="600" fill="#c26a00" text-anchor="end">13</text><line x1="213.0" y1="592.0" x2="377.0" y2="592.0" stroke="#e6e4e2" stroke-opacity="0.7"/><circle cx="219.0" cy="601.0" r="6" fill="#4c9a2a"/><path d="M216.3 601.0 l1.9 1.9 l3.4 -3.9" fill="none" stroke="#ffffff" stroke-width="1.4" stroke-linecap="round" stroke-linejoin="round"/><g transform="translate(235.0,594.0) scale(0.875)"><rect x="1.5" y="8" width="2.6" height="6" rx="0.6" fill="#8661c5"/><rect x="5.7" y="4.5" width="2.6" height="9.5" rx="0.6" fill="#0078D4"/><rect x="9.9" y="6.5" width="2.6" height="7.5" rx="0.6" fill="#3fb0ac"/></g><text x="255.0" y="604.5" font-size="10.5" fill="#242424">m2</text><text x="375.0" y="604.5" font-size="10.5" font-weight="400" fill="#605e5c" text-anchor="end">0</text>
<g filter="url(#cs)"><rect x="417.0" y="531.0" width="173" height="85" rx="10" fill="#f2f8f2" stroke="#a0d8a0" stroke-width="2"/></g><g transform="translate(423.0,538.16) scale(0.82)"><path d="M12 3.2l7.6 4.4v8.8L12 20.8l-7.6-4.4V7.6z" fill="none" stroke="#605e5c" stroke-width="1.6" stroke-linecap="round" stroke-linejoin="round"/><path d="M4.6 7.8l7.4 4.3 7.4-4.3M12 12.1v8.6" fill="none" stroke="#605e5c" stroke-width="1.6" stroke-linecap="round" stroke-linejoin="round"/></g><text x="451.0" y="551.5" font-size="12.5" font-weight="600" fill="#242424">Service C</text><rect x="517.7" y="539.00" width="64.3" height="18" rx="9" fill="#ffffff" stroke="#a0d8a0" stroke-width="1"/><circle cx="528.7" cy="548.0" r="6" fill="#4c9a2a"/><path d="M526.0 548.0 l1.9 1.9 l3.4 -3.9" fill="none" stroke="#ffffff" stroke-width="1.4" stroke-linecap="round" stroke-linejoin="round"/><text x="537.7" y="551.57" font-size="10.5" fill="#323130">Healthy</text><line x1="418.0" y1="568.0" x2="589.0" y2="568.0" stroke="#e6e4e2"/><circle cx="433.0" cy="583.0" r="6" fill="#4c9a2a"/><path d="M430.3 583.0 l1.9 1.9 l3.4 -3.9" fill="none" stroke="#ffffff" stroke-width="1.4" stroke-linecap="round" stroke-linejoin="round"/><g transform="translate(449.0,576.0) scale(0.875)"><rect x="1.5" y="8" width="2.6" height="6" rx="0.6" fill="#8661c5"/><rect x="5.7" y="4.5" width="2.6" height="9.5" rx="0.6" fill="#0078D4"/><rect x="9.9" y="6.5" width="2.6" height="7.5" rx="0.6" fill="#3fb0ac"/></g><text x="469.0" y="586.5" font-size="10.5" fill="#242424">m1</text><text x="578.0" y="586.5" font-size="10.5" font-weight="400" fill="#605e5c" text-anchor="end">2</text><line x1="427.0" y1="592.0" x2="580.0" y2="592.0" stroke="#e6e4e2" stroke-opacity="0.7"/><circle cx="433.0" cy="601.0" r="6" fill="#4c9a2a"/><path d="M430.3 601.0 l1.9 1.9 l3.4 -3.9" fill="none" stroke="#ffffff" stroke-width="1.4" stroke-linecap="round" stroke-linejoin="round"/><g transform="translate(449.0,594.0) scale(0.875)"><rect x="1.5" y="8" width="2.6" height="6" rx="0.6" fill="#8661c5"/><rect x="5.7" y="4.5" width="2.6" height="9.5" rx="0.6" fill="#0078D4"/><rect x="9.9" y="6.5" width="2.6" height="7.5" rx="0.6" fill="#3fb0ac"/></g><text x="469.0" y="604.5" font-size="10.5" fill="#242424">m2</text><text x="578.0" y="604.5" font-size="10.5" font-weight="400" fill="#605e5c" text-anchor="end">0</text>
<g filter="url(#cs)"><rect x="620.0" y="531.0" width="173" height="85" rx="10" fill="#f2f8f2" stroke="#a0d8a0" stroke-width="2"/></g><g transform="translate(626.0,538.16) scale(0.82)"><path d="M12 3.2l7.6 4.4v8.8L12 20.8l-7.6-4.4V7.6z" fill="none" stroke="#605e5c" stroke-width="1.6" stroke-linecap="round" stroke-linejoin="round"/><path d="M4.6 7.8l7.4 4.3 7.4-4.3M12 12.1v8.6" fill="none" stroke="#605e5c" stroke-width="1.6" stroke-linecap="round" stroke-linejoin="round"/></g><text x="654.0" y="551.5" font-size="12.5" font-weight="600" fill="#242424">Service D</text><rect x="720.7" y="539.00" width="64.3" height="18" rx="9" fill="#ffffff" stroke="#a0d8a0" stroke-width="1"/><circle cx="731.7" cy="548.0" r="6" fill="#4c9a2a"/><path d="M729.0 548.0 l1.9 1.9 l3.4 -3.9" fill="none" stroke="#ffffff" stroke-width="1.4" stroke-linecap="round" stroke-linejoin="round"/><text x="740.7" y="551.57" font-size="10.5" fill="#323130">Healthy</text><line x1="621.0" y1="568.0" x2="792.0" y2="568.0" stroke="#e6e4e2"/><circle cx="636.0" cy="583.0" r="6" fill="#4c9a2a"/><path d="M633.3 583.0 l1.9 1.9 l3.4 -3.9" fill="none" stroke="#ffffff" stroke-width="1.4" stroke-linecap="round" stroke-linejoin="round"/><g transform="translate(652.0,576.0) scale(0.875)"><rect x="1.5" y="8" width="2.6" height="6" rx="0.6" fill="#8661c5"/><rect x="5.7" y="4.5" width="2.6" height="9.5" rx="0.6" fill="#0078D4"/><rect x="9.9" y="6.5" width="2.6" height="7.5" rx="0.6" fill="#3fb0ac"/></g><text x="672.0" y="586.5" font-size="10.5" fill="#242424">m1</text><text x="781.0" y="586.5" font-size="10.5" font-weight="400" fill="#605e5c" text-anchor="end">2</text><line x1="630.0" y1="592.0" x2="783.0" y2="592.0" stroke="#e6e4e2" stroke-opacity="0.7"/><circle cx="636.0" cy="601.0" r="6" fill="#4c9a2a"/><path d="M633.3 601.0 l1.9 1.9 l3.4 -3.9" fill="none" stroke="#ffffff" stroke-width="1.4" stroke-linecap="round" stroke-linejoin="round"/><g transform="translate(652.0,594.0) scale(0.875)"><rect x="1.5" y="8" width="2.6" height="6" rx="0.6" fill="#8661c5"/><rect x="5.7" y="4.5" width="2.6" height="9.5" rx="0.6" fill="#0078D4"/><rect x="9.9" y="6.5" width="2.6" height="7.5" rx="0.6" fill="#3fb0ac"/></g><text x="672.0" y="604.5" font-size="10.5" fill="#242424">m2</text><text x="781.0" y="604.5" font-size="10.5" font-weight="400" fill="#605e5c" text-anchor="end">0</text>
<g filter="url(#cs)"><rect x="823.0" y="531.0" width="184" height="85" rx="10" fill="#faeceb" stroke="#ba0d16" stroke-width="2"/></g><g transform="translate(829.0,538.16) scale(0.82)"><path d="M12 3.2l7.6 4.4v8.8L12 20.8l-7.6-4.4V7.6z" fill="none" stroke="#605e5c" stroke-width="1.6" stroke-linecap="round" stroke-linejoin="round"/><path d="M4.6 7.8l7.4 4.3 7.4-4.3M12 12.1v8.6" fill="none" stroke="#605e5c" stroke-width="1.6" stroke-linecap="round" stroke-linejoin="round"/></g><text x="857.0" y="551.5" font-size="12.5" font-weight="600" fill="#242424">Service E</text><rect x="922.8" y="539.00" width="76.2" height="18" rx="9" fill="#ffffff" stroke="#ba0d16" stroke-width="1"/><circle cx="933.8" cy="548.0" r="6" fill="#c50f18"/><text x="942.8" y="551.57" font-size="10.5" fill="#323130">Unhealthy</text><line x1="824.0" y1="568.0" x2="1006.0" y2="568.0" stroke="#e6e4e2"/><circle cx="839.0" cy="583.0" r="6" fill="#c50f18"/><g transform="translate(855.0,576.0) scale(0.875)"><rect x="1.5" y="8" width="2.6" height="6" rx="0.6" fill="#8661c5"/><rect x="5.7" y="4.5" width="2.6" height="9.5" rx="0.6" fill="#0078D4"/><rect x="9.9" y="6.5" width="2.6" height="7.5" rx="0.6" fill="#3fb0ac"/></g><text x="875.0" y="586.5" font-size="10.5" fill="#242424">m1</text><text x="995.0" y="586.5" font-size="10.5" font-weight="600" fill="#c50f18" text-anchor="end">38</text><line x1="833.0" y1="592.0" x2="997.0" y2="592.0" stroke="#e6e4e2" stroke-opacity="0.7"/><circle cx="839.0" cy="601.0" r="6" fill="#4c9a2a"/><path d="M836.3 601.0 l1.9 1.9 l3.4 -3.9" fill="none" stroke="#ffffff" stroke-width="1.4" stroke-linecap="round" stroke-linejoin="round"/><g transform="translate(855.0,594.0) scale(0.875)"><rect x="1.5" y="8" width="2.6" height="6" rx="0.6" fill="#8661c5"/><rect x="5.7" y="4.5" width="2.6" height="9.5" rx="0.6" fill="#0078D4"/><rect x="9.9" y="6.5" width="2.6" height="7.5" rx="0.6" fill="#3fb0ac"/></g><text x="875.0" y="604.5" font-size="10.5" fill="#242424">m2</text><text x="995.0" y="604.5" font-size="10.5" font-weight="400" fill="#605e5c" text-anchor="end">0</text>
<g filter="url(#cs)"><rect x="1037.0" y="531.0" width="172" height="85" rx="10" fill="#f2f8f2" stroke="#a0d8a0" stroke-width="2"/></g><g transform="translate(1043.0,538.16) scale(0.82)"><path d="M12 3.2l7.6 4.4v8.8L12 20.8l-7.6-4.4V7.6z" fill="none" stroke="#605e5c" stroke-width="1.6" stroke-linecap="round" stroke-linejoin="round"/><path d="M4.6 7.8l7.4 4.3 7.4-4.3M12 12.1v8.6" fill="none" stroke="#605e5c" stroke-width="1.6" stroke-linecap="round" stroke-linejoin="round"/></g><text x="1071.0" y="551.5" font-size="12.5" font-weight="600" fill="#242424">Service F</text><rect x="1136.7" y="539.00" width="64.3" height="18" rx="9" fill="#ffffff" stroke="#a0d8a0" stroke-width="1"/><circle cx="1147.7" cy="548.0" r="6" fill="#4c9a2a"/><path d="M1145.0 548.0 l1.9 1.9 l3.4 -3.9" fill="none" stroke="#ffffff" stroke-width="1.4" stroke-linecap="round" stroke-linejoin="round"/><text x="1156.7" y="551.57" font-size="10.5" fill="#323130">Healthy</text><line x1="1038.0" y1="568.0" x2="1208.0" y2="568.0" stroke="#e6e4e2"/><circle cx="1053.0" cy="583.0" r="6" fill="#4c9a2a"/><path d="M1050.3 583.0 l1.9 1.9 l3.4 -3.9" fill="none" stroke="#ffffff" stroke-width="1.4" stroke-linecap="round" stroke-linejoin="round"/><g transform="translate(1069.0,576.0) scale(0.875)"><rect x="1.5" y="8" width="2.6" height="6" rx="0.6" fill="#8661c5"/><rect x="5.7" y="4.5" width="2.6" height="9.5" rx="0.6" fill="#0078D4"/><rect x="9.9" y="6.5" width="2.6" height="7.5" rx="0.6" fill="#3fb0ac"/></g><text x="1089.0" y="586.5" font-size="10.5" fill="#242424">m1</text><text x="1197.0" y="586.5" font-size="10.5" font-weight="400" fill="#605e5c" text-anchor="end">2</text><line x1="1047.0" y1="592.0" x2="1199.0" y2="592.0" stroke="#e6e4e2" stroke-opacity="0.7"/><circle cx="1053.0" cy="601.0" r="6" fill="#4c9a2a"/><path d="M1050.3 601.0 l1.9 1.9 l3.4 -3.9" fill="none" stroke="#ffffff" stroke-width="1.4" stroke-linecap="round" stroke-linejoin="round"/><g transform="translate(1069.0,594.0) scale(0.875)"><rect x="1.5" y="8" width="2.6" height="6" rx="0.6" fill="#8661c5"/><rect x="5.7" y="4.5" width="2.6" height="9.5" rx="0.6" fill="#0078D4"/><rect x="9.9" y="6.5" width="2.6" height="7.5" rx="0.6" fill="#3fb0ac"/></g><text x="1089.0" y="604.5" font-size="10.5" fill="#242424">m2</text><text x="1197.0" y="604.5" font-size="10.5" font-weight="400" fill="#605e5c" text-anchor="end">0</text>
<g filter="url(#cs)"><rect x="653.2" y="281.0" width="195" height="58" rx="10" fill="#fbf2e7" stroke="#db7500" stroke-width="2"/></g><g transform="translate(659.2,300.16) scale(0.82)"><circle cx="5.5" cy="6" r="2" fill="none" stroke="#605e5c" stroke-width="1.6" stroke-linecap="round" stroke-linejoin="round"/><circle cx="5.5" cy="18" r="2" fill="none" stroke="#605e5c" stroke-width="1.6" stroke-linecap="round" stroke-linejoin="round"/><circle cx="18.5" cy="12" r="2" fill="none" stroke="#605e5c" stroke-width="1.6" stroke-linecap="round" stroke-linejoin="round"/><path d="M7.5 6h3a4 4 0 0 1 4 4M7.5 18h3a4 4 0 0 0 4-4" fill="none" stroke="#605e5c" stroke-width="1.6" stroke-linecap="round" stroke-linejoin="round"/></g><text x="687.2" y="313.5" font-size="12.5" font-weight="600" fill="#242424">Middle flow</text><rect x="765.2" y="301.00" width="75.0" height="18" rx="9" fill="#ffffff" stroke="#db7500" stroke-width="1"/><circle cx="776.2" cy="310.0" r="6" fill="#c26a00"/><text x="785.2" y="313.57" font-size="10.5" fill="#323130">Degraded</text>
<g filter="url(#cs)"><rect x="1239.0" y="531.0" width="247" height="67" rx="10" fill="#fbf2e7" stroke="#db7500" stroke-width="2"/></g><g transform="translate(1245.0,538.16) scale(0.82)"><path d="M12 3.2l7.6 4.4v8.8L12 20.8l-7.6-4.4V7.6z" fill="none" stroke="#605e5c" stroke-width="1.6" stroke-linecap="round" stroke-linejoin="round"/><path d="M4.6 7.8l7.4 4.3 7.4-4.3M12 12.1v8.6" fill="none" stroke="#605e5c" stroke-width="1.6" stroke-linecap="round" stroke-linejoin="round"/></g><text x="1273.0" y="551.5" font-size="12.5" font-weight="600" fill="#242424">Shared dependency</text><rect x="1403.0" y="539.00" width="75.0" height="18" rx="9" fill="#ffffff" stroke="#db7500" stroke-width="1"/><circle cx="1414.0" cy="548.0" r="6" fill="#c26a00"/><text x="1423.0" y="551.57" font-size="10.5" fill="#323130">Degraded</text><line x1="1240.0" y1="568.0" x2="1485.0" y2="568.0" stroke="#e6e4e2"/><circle cx="1255.0" cy="583.0" r="6" fill="#c26a00"/><g transform="translate(1271.0,576.0) scale(0.875)"><rect x="1.5" y="8" width="2.6" height="6" rx="0.6" fill="#8661c5"/><rect x="5.7" y="4.5" width="2.6" height="9.5" rx="0.6" fill="#0078D4"/><rect x="9.9" y="6.5" width="2.6" height="7.5" rx="0.6" fill="#3fb0ac"/></g><text x="1291.0" y="586.5" font-size="10.5" fill="#242424">m1</text><text x="1474.0" y="586.5" font-size="10.5" font-weight="600" fill="#c26a00" text-anchor="end">13</text>
<g filter="url(#cs)"><rect x="1099.0" y="281.0" width="178" height="67" rx="10" fill="#f2f8f2" stroke="#a0d8a0" stroke-width="2"/></g><g transform="translate(1105.0,288.16) scale(0.82)"><circle cx="5.5" cy="6" r="2" fill="none" stroke="#605e5c" stroke-width="1.6" stroke-linecap="round" stroke-linejoin="round"/><circle cx="5.5" cy="18" r="2" fill="none" stroke="#605e5c" stroke-width="1.6" stroke-linecap="round" stroke-linejoin="round"/><circle cx="18.5" cy="12" r="2" fill="none" stroke="#605e5c" stroke-width="1.6" stroke-linecap="round" stroke-linejoin="round"/><path d="M7.5 6h3a4 4 0 0 1 4 4M7.5 18h3a4 4 0 0 0 4-4" fill="none" stroke="#605e5c" stroke-width="1.6" stroke-linecap="round" stroke-linejoin="round"/></g><text x="1133.0" y="301.5" font-size="12.5" font-weight="600" fill="#242424">Other flow</text><rect x="1204.7" y="289.00" width="64.3" height="18" rx="9" fill="#ffffff" stroke="#a0d8a0" stroke-width="1"/><circle cx="1215.7" cy="298.0" r="6" fill="#4c9a2a"/><path d="M1213.0 298.0 l1.9 1.9 l3.4 -3.9" fill="none" stroke="#ffffff" stroke-width="1.4" stroke-linecap="round" stroke-linejoin="round"/><text x="1224.7" y="301.57" font-size="10.5" fill="#323130">Healthy</text><line x1="1100.0" y1="318.0" x2="1276.0" y2="318.0" stroke="#e6e4e2"/><circle cx="1115.0" cy="333.0" r="6" fill="#4c9a2a"/><path d="M1112.3 333.0 l1.9 1.9 l3.4 -3.9" fill="none" stroke="#ffffff" stroke-width="1.4" stroke-linecap="round" stroke-linejoin="round"/><g transform="translate(1131.0,326.0) scale(0.875)"><rect x="1.5" y="8" width="2.6" height="6" rx="0.6" fill="#8661c5"/><rect x="5.7" y="4.5" width="2.6" height="9.5" rx="0.6" fill="#0078D4"/><rect x="9.9" y="6.5" width="2.6" height="7.5" rx="0.6" fill="#3fb0ac"/></g><text x="1151.0" y="336.5" font-size="10.5" fill="#242424">m1</text><text x="1265.0" y="336.5" font-size="10.5" font-weight="400" fill="#605e5c" text-anchor="end">2</text>
<g filter="url(#cs)"><rect x="994.4" y="96.0" width="212" height="58" rx="10" fill="#fbf2e7" stroke="#db7500" stroke-width="2"/></g><g transform="translate(1000.4,115.16) scale(0.82)"><circle cx="12" cy="12" r="8.4" fill="none" stroke="#605e5c" stroke-width="1.6" stroke-linecap="round" stroke-linejoin="round"/><path d="M4.2 12h3l2-3.6 2.8 7.2 1.8-3.6h4" fill="none" stroke="#605e5c" stroke-width="1.6" stroke-linecap="round" stroke-linejoin="round"/></g><text x="1028.4" y="128.5" font-size="12.5" font-weight="600" fill="#242424">Workload root</text><rect x="1123.4" y="116.00" width="75.0" height="18" rx="9" fill="#ffffff" stroke="#db7500" stroke-width="1"/><circle cx="1134.4" cy="125.0" r="6" fill="#c26a00"/><text x="1143.4" y="128.57" font-size="10.5" fill="#323130">Degraded</text>
</g></svg>