<svg xmlns="http://www.w3.org/2000/svg" width="979" height="1451" viewBox="0 0 979 1451" font-family="Segoe UI, -apple-system, BlinkMacSystemFont, Helvetica, Arial, sans-serif">
<defs><filter id="cs" x="-20%" y="-20%" width="140%" height="140%"><feDropShadow dx="0" dy="1" stdDeviation="1.3" flood-color="#000" flood-opacity="0.1"/></filter></defs>
<rect width="979" height="1451" fill="#ffffff"/>
<rect x="0" y="78.0" width="979" height="118.0" fill="#ffffff"/>
<line x1="0" y1="78.0" x2="979" y2="78.0" stroke="#e6e4e2"/>
<text x="812.7" y="141.5" font-size="13" font-weight="700" fill="#323130">Workload root</text>
<rect x="0" y="196.0" width="979" height="217.0" fill="#faf9f8"/>
<line x1="0" y1="196.0" x2="979" y2="196.0" stroke="#e6e4e2"/>
<text x="812.7" y="309.0" font-size="13" font-weight="700" fill="#323130">Business &amp; user flows</text>
<rect x="0" y="413.0" width="979" height="1020.0" fill="#ffffff"/>
<line x1="0" y1="413.0" x2="979" y2="413.0" stroke="#e6e4e2"/>
<text x="812.7" y="919.0" font-size="13" font-weight="700" fill="#323130">Application</text>
<text x="812.7" y="936.0" font-size="13" font-weight="700" fill="#323130">components</text>
<line x1="0" y1="1450.5" x2="979" y2="1450.5" stroke="#e6e4e2"/>
<text x="40" y="34" font-size="18" font-weight="700" fill="#242424">Pill flood</text>
<text x="40" y="52" font-size="12" fill="#605e5c">Signals live inside each entity; health rolls up to the workload root.</text>
<text x="575.3" y="48" font-size="11.5" font-weight="600" fill="#605e5c" text-anchor="end">Legend</text>
<circle cx="593.3" cy="44" r="4.5" fill="#4c9a2a"/>
<text x="603.3" y="48" font-size="11.5" fill="#323130">Healthy</text>
<circle cx="659.1" cy="44" r="4.5" fill="#c26a00"/>
<text x="669.1" y="48" font-size="11.5" fill="#323130">Degraded</text>
<circle cx="736.6" cy="44" r="4.5" fill="#c50f18"/>
<text x="746.6" y="48" font-size="11.5" fill="#323130">Unhealthy</text>
<circle cx="815.4" cy="44" r="4.5" fill="#8a8886"/>
<text x="825.4" y="48" font-size="11.5" fill="#323130">Unknown</text>
<g transform="translate(884.3,37.0) scale(0.875)"><rect x="1.5" y="8" width="2.6" height="6" rx="0.6" fill="#8661c5"/><rect x="5.7" y="4.5" width="2.6" height="9.5" rx="0.6" fill="#0078D4"/><rect x="9.9" y="6.5" width="2.6" height="7.5" rx="0.6" fill="#3fb0ac"/></g>
<text x="902.3" y="48" font-size="11.5" fill="#323130">Metric</text>
<g transform="translate(40.0,0)">
<g fill="none" stroke-linecap="butt" stroke-linejoin="round">
<path d="M531.1 214.0 L531.1 185.0 Q531.1 178.0 524.1 178.0 L414.4 178.0" stroke="#a0d8a0" stroke-width="1.7"/>
<path d="M414.4 178.0 L414.4 154.0" stroke="#605e5c" stroke-width="1.7"/>
<path d="M297.6 214.0 L297.6 181.0 Q297.6 174.0 304.6 174.0 L414.4 174.0" stroke="#db7500" stroke-width="1.7"/>
<path d="M414.4 174.0 L414.4 154.0" stroke="#605e5c" stroke-width="1.7"/>
<path d="M429.5 1016.0 L429.5 981.5 Q429.5 974.5 422.5 974.5 L373.2 974.5 Q366.2 974.5 366.2 967.5 L366.2 754.0 Q366.2 747.0 373.2 747.0 L463.7 747.0 Q470.7 747.0 470.7 740.0 L470.7 534.0 Q470.7 527.0 463.7 527.0 L364.2 527.0 Q357.2 527.0 357.2 520.0 L357.2 301.0 Q357.2 298.0 360.2 298.0 L360.2 298.0 Q363.2 298.0 363.2 295.0 L363.2 272.0" stroke="#a0d8a0" stroke-width="1.7"/>
<path d="M258.2 431.0 L258.2 392.5 Q258.2 389.5 255.2 389.5 L255.2 389.5 Q252.2 389.5 252.2 386.5 L252.2 272.0" stroke="#a0d8a0" stroke-width="1.7"/>
<path d="M250.8 1228.0 L250.8 1166.5 Q250.8 1159.5 257.8 1159.5 L366.2 1159.5 Q373.2 1159.5 373.2 1152.5 L373.2 935.0 Q373.2 928.0 366.2 928.0 L363.2 928.0 Q356.2 928.0 356.2 921.0 L356.2 742.0 Q356.2 735.0 349.2 735.0 L275.7 735.0 Q268.7 735.0 268.7 728.0 L268.7 546.0 Q268.7 539.0 261.7 539.0 L154.2 539.0 Q147.2 539.0 147.2 532.0 L147.2 377.0 Q147.2 370.0 154.2 370.0 L188.6 370.0 Q195.6 370.0 195.6 363.0 L195.6 272.0" stroke="#db7500" stroke-width="1.7"/>
<path d="M473.7 431.0 L473.7 396.5 Q473.7 389.5 466.7 389.5 L406.6 389.5 Q399.6 389.5 399.6 382.5 L399.6 272.0" stroke="#a0d8a0" stroke-width="1.7"/>
<path d="M134.2 651.0 L134.2 612.5 Q134.2 609.5 137.2 609.5 L137.2 609.5 Q140.2 609.5 140.2 606.5 L140.2 365.0 Q140.2 358.0 147.2 358.0 L194.6 358.0 Q201.6 358.0 201.6 351.0 L201.6 272.0" stroke="#a0d8a0" stroke-width="1.6" stroke-dasharray="5 4"/>
<path d="M538.2 1228.0 L538.2 1193.5 Q538.2 1186.5 545.2 1186.5 L586.2 1186.5 Q593.2 1186.5 593.2 1179.5 L593.2 931.5 Q593.2 928.0 596.7 928.0 L596.7 928.0 Q600.2 928.0 600.2 924.5 L600.2 742.0 Q600.2 735.0 593.2 735.0 L484.7 735.0 Q477.7 735.0 477.7 728.0 L477.7 522.0 Q477.7 515.0 470.7 515.0 L134.2 515.0 Q127.2 515.0 127.2 508.0 L127.2 353.0 Q127.2 346.0 134.2 346.0 L200.6 346.0 Q207.6 346.0 207.6 339.0 L207.6 272.0" stroke="#ba0d16" stroke-width="1.7"/>
<path d="M290.7 651.0 L290.7 589.5 Q290.7 582.5 283.7 582.5 L127.2 582.5 Q120.2 582.5 120.2 575.5 L120.2 341.0 Q120.2 334.0 127.2 334.0 L206.6 334.0 Q213.6 334.0 213.6 327.0 L213.6 272.0" stroke="#a0d8a0" stroke-width="1.7"/>
<path d="M586.2 651.0 L586.2 585.5 Q586.2 582.5 583.2 582.5 L583.2 582.5 Q580.2 582.5 580.2 579.5 L580.2 317.0 Q580.2 310.0 573.2 310.0 L400.6 310.0 Q393.6 310.0 393.6 303.0 L393.6 272.0" stroke="#a0d8a0" stroke-width="1.7"/>
<path d="M255.7 832.0 L255.7 793.5 Q255.7 790.5 258.7 790.5 L258.7 790.5 Q261.7 790.5 261.7 787.5 L261.7 534.0 Q261.7 527.0 254.7 527.0 L120.2 527.0 Q113.2 527.0 113.2 520.0 L113.2 329.0 Q113.2 322.0 120.2 322.0 L212.6 322.0 Q219.6 322.0 219.6 315.0 L219.6 272.0" stroke="#db7500" stroke-width="1.6" stroke-dasharray="5 4"/>
<path d="M565.2 832.0 L565.2 797.5 Q565.2 790.5 572.2 790.5 L689.7 790.5 Q696.7 790.5 696.7 783.5 L696.7 522.0 Q696.7 515.0 689.7 515.0 L600.2 515.0 Q593.2 515.0 593.2 508.0 L593.2 305.0 Q593.2 298.0 586.2 298.0 L394.6 298.0 Q387.6 298.0 387.6 291.0 L387.6 272.0" stroke="#a0d8a0" stroke-width="1.7"/>
<path d="M156.2 1016.0 L156.2 954.5 Q156.2 947.5 149.2 947.5 L147.2 947.5 Q140.2 947.5 140.2 940.5 L140.2 754.0 Q140.2 747.0 133.2 747.0 L37.7 747.0 Q30.7 747.0 30.7 740.0 L30.7 546.0 Q30.7 539.0 37.7 539.0 L99.2 539.0 Q106.2 539.0 106.2 532.0 L106.2 317.0 Q106.2 310.0 113.2 310.0 L218.6 310.0 Q225.6 310.0 225.6 303.0 L225.6 272.0" stroke="#a0d8a0" stroke-width="1.7"/>
<path d="M285.2 1361.0 L285.2 1326.5 Q285.2 1319.5 278.2 1319.5 L135.7 1319.5 Q128.7 1319.5 128.7 1312.5 L128.7 1103.5 Q128.7 1100.0 125.2 1100.0 L125.2 1100.0 Q121.7 1100.0 121.7 1096.5 L121.7 933.8 Q121.7 928.0 127.5 928.0 L127.5 928.0 Q133.2 928.0 133.2 922.3 L133.2 742.0 Q133.2 735.0 126.2 735.0 L30.7 735.0 Q23.7 735.0 23.7 728.0 L23.7 522.0 Q23.7 515.0 30.7 515.0 L92.2 515.0 Q99.2 515.0 99.2 508.0 L99.2 305.0 Q99.2 298.0 106.2 298.0 L224.6 298.0 Q231.6 298.0 231.6 291.0 L231.6 272.0" stroke="#a0d8a0" stroke-width="1.7"/>
<path d="M527.0 1016.0 L527.0 954.5 Q527.0 947.5 534.0 947.5 L600.2 947.5 Q607.2 947.5 607.2 940.5 L607.2 754.0 Q607.2 747.0 614.2 747.0 L696.7 747.0 Q703.7 747.0 703.7 740.0 L703.7 534.0 Q703.7 527.0 696.7 527.0 L607.2 527.0 Q600.2 527.0 600.2 520.0 L600.2 313.0 Q600.2 310.0 603.2 310.0 L603.2 310.0 Q606.2 310.0 606.2 307.0 L606.2 272.0" stroke="#a0d8a0" stroke-width="1.7"/>
<path d="M150.7 1228.0 L150.7 1133.0 Q150.7 1126.0 143.7 1126.0 L121.7 1126.0 Q114.7 1126.0 114.7 1119.0 L114.7 923.0 Q114.7 916.0 121.7 916.0 L607.2 916.0 Q614.2 916.0 614.2 909.0 L614.2 742.0 Q614.2 735.0 621.2 735.0 L703.7 735.0 Q710.7 735.0 710.7 728.0 L710.7 546.0 Q710.7 539.0 703.7 539.0 L620.2 539.0 Q613.2 539.0 613.2 532.0 L613.2 353.0 Q613.2 346.0 606.2 346.0 L579.6 346.0 Q572.6 346.0 572.6 339.0 L572.6 272.0" stroke="#db7500" stroke-width="1.7"/>
<path d="M465.6 1228.0 L465.6 1133.0 Q465.6 1126.0 472.6 1126.0 L614.2 1126.0 Q621.2 1126.0 621.2 1119.0 L621.2 931.5 Q621.2 928.0 624.7 928.0 L624.7 928.0 Q628.2 928.0 628.2 924.5 L628.2 766.0 Q628.2 759.0 635.2 759.0 L710.7 759.0 Q717.7 759.0 717.7 752.0 L717.7 558.0 Q717.7 551.0 710.7 551.0 L627.2 551.0 Q620.2 551.0 620.2 544.0 L620.2 341.0 Q620.2 334.0 613.2 334.0 L573.6 334.0 Q566.6 334.0 566.6 327.0 L566.6 272.0" stroke="#ba0d16" stroke-width="1.7"/>
<path d="M442.2 1361.0 L442.2 1326.5 Q442.2 1319.5 449.2 1319.5 L593.2 1319.5 Q600.2 1319.5 600.2 1312.5 L600.2 1107.0 Q600.2 1100.0 607.2 1100.0 L628.2 1100.0 Q635.2 1100.0 635.2 1093.0 L635.2 919.5 Q635.2 916.0 638.7 916.0 L638.7 916.0 Q642.2 916.0 642.2 912.5 L642.2 778.0 Q642.2 771.0 649.2 771.0 L717.7 771.0 Q724.7 771.0 724.7 764.0 L724.7 570.0 Q724.7 563.0 717.7 563.0 L634.2 563.0 Q627.2 563.0 627.2 556.0 L627.2 329.0 Q627.2 322.0 620.2 322.0 L567.6 322.0 Q560.6 322.0 560.6 315.0 L560.6 272.0" stroke="#a0d8a0" stroke-width="1.6" stroke-dasharray="5 4"/>
</g>
<g stroke="none"><rect x="405.2" y="964.5" width="48.6" height="20" rx="10" fill="#ffffff" stroke="#d8d6d4" stroke-width="1"/><text x="429.5" y="978.1" font-size="10.5" font-weight="600" fill="#242424" text-anchor="middle">reads</text></g>
<g stroke="none"><rect x="232.8" y="379.5" width="51.0" height="20" rx="10" fill="#ffffff" stroke="#d8d6d4" stroke-width="1"/><text x="258.2" y="393.1" font-size="10.5" font-weight="600" fill="#242424" text-anchor="middle">writes</text></g>
<g stroke="none"><rect x="162.8" y="1149.5" width="175.9" height="20" rx="10" fill="#ffffff" stroke="#d8d6d4" stroke-width="1"/><text x="250.8" y="1163.1" font-size="10.5" font-weight="600" fill="#242424" text-anchor="middle">asynchronous replication path</text></g>
<g stroke="none"><rect x="445.6" y="379.5" width="56.3" height="20" rx="10" fill="#ffffff" stroke="#d8d6d4" stroke-width="1"/><text x="473.7" y="393.1" font-size="10.5" font-weight="600" fill="#242424" text-anchor="middle">caches</text></g>
<g stroke="none"><rect x="53.4" y="599.5" width="161.6" height="20" rx="10" fill="#ffffff" stroke="#d8d6d4" stroke-width="1"/><text x="134.2" y="613.1" font-size="10.5" font-weight="600" fill="#242424" text-anchor="middle">limited propagation window</text></g>
<g stroke="none"><rect x="507.7" y="1176.5" width="61.1" height="20" rx="10" fill="#ffffff" stroke="#d8d6d4" stroke-width="1"/><text x="538.2" y="1190.1" font-size="10.5" font-weight="600" fill="#242424" text-anchor="middle">streams</text></g>
<g stroke="none"><rect x="271.9" y="572.5" width="78.3" height="20" rx="10" fill="#ffffff" stroke="#d8d6d4" stroke-width="1"/><text x="311.1" y="586.1" font-size="10.5" font-weight="600" fill="#242424" text-anchor="middle">bulk import</text></g>
<g stroke="none"><rect x="557.2" y="572.5" width="58.1" height="20" rx="10" fill="#ffffff" stroke="#d8d6d4" stroke-width="1"/><text x="586.2" y="586.1" font-size="10.5" font-weight="600" fill="#242424" text-anchor="middle">queries</text></g>
<g stroke="none"><rect x="198.7" y="780.5" width="114.0" height="20" rx="10" fill="#ffffff" stroke="#d8d6d4" stroke-width="1"/><text x="255.7" y="794.1" font-size="10.5" font-weight="600" fill="#242424" text-anchor="middle">sampled telemetry</text></g>
<g stroke="none"><rect x="538.3" y="780.5" width="53.9" height="20" rx="10" fill="#ffffff" stroke="#d8d6d4" stroke-width="1"/><text x="565.2" y="794.1" font-size="10.5" font-weight="600" fill="#242424" text-anchor="middle">events</text></g>
<g stroke="none"><rect x="125.2" y="937.5" width="124.2" height="20" rx="10" fill="#ffffff" stroke="#d8d6d4" stroke-width="1"/><text x="187.3" y="951.1" font-size="10.5" font-weight="600" fill="#242424" text-anchor="middle">change data capture</text></g>
<g stroke="none"><rect x="260.0" y="1309.5" width="50.4" height="20" rx="10" fill="#ffffff" stroke="#d8d6d4" stroke-width="1"/><text x="285.2" y="1323.1" font-size="10.5" font-weight="600" fill="#242424" text-anchor="middle">syncs</text></g>
<g stroke="none"><rect x="490.8" y="937.5" width="72.4" height="20" rx="10" fill="#ffffff" stroke="#d8d6d4" stroke-width="1"/><text x="527.0" y="951.1" font-size="10.5" font-weight="600" fill="#242424" text-anchor="middle">also feeds</text></g>
<g stroke="none"><rect x="132.2" y="1109.5" width="186.7" height="33" rx="10" fill="#ffffff" stroke="#d8d6d4" stroke-width="1"/><text x="225.6" y="1123.1" font-size="10.5" font-weight="600" fill="#242424" text-anchor="middle">secondary rollup with an</text><text x="225.6" y="1136.1" font-size="10.5" font-weight="600" fill="#242424" text-anchor="middle">extremely long relationship label</text></g>
<g stroke="none"><rect x="436.5" y="1116.0" width="58.1" height="20" rx="10" fill="#ffffff" stroke="#d8d6d4" stroke-width="1"/><text x="465.6" y="1129.6" font-size="10.5" font-weight="600" fill="#242424" text-anchor="middle">failover</text></g>
<g stroke="none"><rect x="410.5" y="1309.5" width="63.5" height="20" rx="10" fill="#ffffff" stroke="#d8d6d4" stroke-width="1"/><text x="442.2" y="1323.1" font-size="10.5" font-weight="600" fill="#242424" text-anchor="middle">sampled</text></g>
<g filter="url(#cs)"><rect x="385.2" y="1016.0" width="198" height="58" rx="10" fill="#f2f8f2" stroke="#a0d8a0" stroke-width="2"/></g><g transform="translate(391.2,1035.16) scale(0.82)"><path d="M12 3.2l7.6 4.4v8.8L12 20.8l-7.6-4.4V7.6z" fill="none" stroke="#605e5c" stroke-width="1.6" stroke-linecap="round" stroke-linejoin="round"/><path d="M4.6 7.8l7.4 4.3 7.4-4.3M12 12.1v8.6" fill="none" stroke="#605e5c" stroke-width="1.6" stroke-linecap="round" stroke-linejoin="round"/></g><text x="419.2" y="1048.5" font-size="12.5" font-weight="600" fill="#242424">Alpha service</text><rect x="510.9" y="1036.00" width="64.3" height="18" rx="9" fill="#ffffff" stroke="#a0d8a0" stroke-width="1"/><circle cx="521.9" cy="1045.0" r="6" fill="#4c9a2a"/><path d="M519.2 1045.0 l1.9 1.9 l3.4 -3.9" fill="none" stroke="#ffffff" stroke-width="1.4" stroke-linecap="round" stroke-linejoin="round"/><text x="530.9" y="1048.57" font-size="10.5" fill="#323130">Healthy</text>
<g filter="url(#cs)"><rect x="183.6" y="214.0" width="228" height="58" rx="10" fill="#fbf2e7" stroke="#db7500" stroke-width="2"/></g><g transform="translate(189.6,233.16) scale(0.82)"><rect x="4" y="5" width="16" height="3" rx="1" fill="none" stroke="#605e5c" stroke-width="1.6" stroke-linecap="round" stroke-linejoin="round"/><rect x="4" y="10.5" width="16" height="3" rx="1" fill="none" stroke="#605e5c" stroke-width="1.6" stroke-linecap="round" stroke-linejoin="round"/><rect x="4" y="16" width="10" height="3" rx="1" fill="none" stroke="#605e5c" stroke-width="1.6" stroke-linecap="round" stroke-linejoin="round"/></g><text x="217.6" y="246.5" font-size="12.5" font-weight="600" fill="#242424">Aggregation hub</text><rect x="328.6" y="234.00" width="75.0" height="18" rx="9" fill="#ffffff" stroke="#db7500" stroke-width="1"/><circle cx="339.6" cy="243.0" r="6" fill="#c26a00"/><text x="348.6" y="246.57" font-size="10.5" fill="#323130">Degraded</text>
<g filter="url(#cs)"><rect x="157.2" y="431.0" width="190" height="58" rx="10" fill="#f2f8f2" stroke="#a0d8a0" stroke-width="2"/></g><g transform="translate(163.2,450.16) scale(0.82)"><path d="M12 3.2l7.6 4.4v8.8L12 20.8l-7.6-4.4V7.6z" fill="none" stroke="#605e5c" stroke-width="1.6" stroke-linecap="round" stroke-linejoin="round"/><path d="M4.6 7.8l7.4 4.3 7.4-4.3M12 12.1v8.6" fill="none" stroke="#605e5c" stroke-width="1.6" stroke-linecap="round" stroke-linejoin="round"/></g><text x="191.2" y="463.5" font-size="12.5" font-weight="600" fill="#242424">Beta service</text><rect x="274.9" y="451.00" width="64.3" height="18" rx="9" fill="#ffffff" stroke="#a0d8a0" stroke-width="1"/><circle cx="285.9" cy="460.0" r="6" fill="#4c9a2a"/><path d="M283.2 460.0 l1.9 1.9 l3.4 -3.9" fill="none" stroke="#ffffff" stroke-width="1.4" stroke-linecap="round" stroke-linejoin="round"/><text x="294.9" y="463.57" font-size="10.5" fill="#323130">Healthy</text>
<g filter="url(#cs)"><rect x="138.7" y="1228.0" width="220" height="58" rx="10" fill="#fbf2e7" stroke="#db7500" stroke-width="2"/></g><g transform="translate(144.7,1247.16) scale(0.82)"><path d="M12 3.2l7.6 4.4v8.8L12 20.8l-7.6-4.4V7.6z" fill="none" stroke="#605e5c" stroke-width="1.6" stroke-linecap="round" stroke-linejoin="round"/><path d="M4.6 7.8l7.4 4.3 7.4-4.3M12 12.1v8.6" fill="none" stroke="#605e5c" stroke-width="1.6" stroke-linecap="round" stroke-linejoin="round"/></g><text x="172.7" y="1260.5" font-size="12.5" font-weight="600" fill="#242424">Gamma service</text><rect x="275.7" y="1248.00" width="75.0" height="18" rx="9" fill="#ffffff" stroke="#db7500" stroke-width="1"/><circle cx="286.7" cy="1257.0" r="6" fill="#c26a00"/><text x="295.7" y="1260.57" font-size="10.5" fill="#323130">Degraded</text>
<g filter="url(#cs)"><rect x="377.2" y="431.0" width="193" height="58" rx="10" fill="#f2f8f2" stroke="#a0d8a0" stroke-width="2"/></g><g transform="translate(383.2,450.16) scale(0.82)"><path d="M12 3.2l7.6 4.4v8.8L12 20.8l-7.6-4.4V7.6z" fill="none" stroke="#605e5c" stroke-width="1.6" stroke-linecap="round" stroke-linejoin="round"/><path d="M4.6 7.8l7.4 4.3 7.4-4.3M12 12.1v8.6" fill="none" stroke="#605e5c" stroke-width="1.6" stroke-linecap="round" stroke-linejoin="round"/></g><text x="411.2" y="463.5" font-size="12.5" font-weight="600" fill="#242424">Delta service</text><rect x="497.9" y="451.00" width="64.3" height="18" rx="9" fill="#ffffff" stroke="#a0d8a0" stroke-width="1"/><circle cx="508.9" cy="460.0" r="6" fill="#4c9a2a"/><path d="M506.2 460.0 l1.9 1.9 l3.4 -3.9" fill="none" stroke="#ffffff" stroke-width="1.4" stroke-linecap="round" stroke-linejoin="round"/><text x="517.9" y="463.57" font-size="10.5" fill="#323130">Healthy</text>
<g filter="url(#cs)"><rect x="40.7" y="651.0" width="208" height="58" rx="10" fill="#f2f8f2" stroke="#a0d8a0" stroke-width="2"/></g><g transform="translate(46.7,670.16) scale(0.82)"><path d="M12 3.2l7.6 4.4v8.8L12 20.8l-7.6-4.4V7.6z" fill="none" stroke="#605e5c" stroke-width="1.6" stroke-linecap="round" stroke-linejoin="round"/><path d="M4.6 7.8l7.4 4.3 7.4-4.3M12 12.1v8.6" fill="none" stroke="#605e5c" stroke-width="1.6" stroke-linecap="round" stroke-linejoin="round"/></g><text x="74.7" y="683.5" font-size="12.5" font-weight="600" fill="#242424">Epsilon service</text><rect x="176.4" y="671.00" width="64.3" height="18" rx="9" fill="#ffffff" stroke="#a0d8a0" stroke-width="1"/><circle cx="187.4" cy="680.0" r="6" fill="#4c9a2a"/><path d="M184.7 680.0 l1.9 1.9 l3.4 -3.9" fill="none" stroke="#ffffff" stroke-width="1.4" stroke-linecap="round" stroke-linejoin="round"/><text x="196.4" y="683.57" font-size="10.5" fill="#323130">Healthy</text>
<g filter="url(#cs)"><rect x="388.7" y="1228.0" width="200" height="58" rx="10" fill="#faeceb" stroke="#ba0d16" stroke-width="2"/></g><g transform="translate(394.7,1247.16) scale(0.82)"><path d="M12 3.2l7.6 4.4v8.8L12 20.8l-7.6-4.4V7.6z" fill="none" stroke="#605e5c" stroke-width="1.6" stroke-linecap="round" stroke-linejoin="round"/><path d="M4.6 7.8l7.4 4.3 7.4-4.3M12 12.1v8.6" fill="none" stroke="#605e5c" stroke-width="1.6" stroke-linecap="round" stroke-linejoin="round"/></g><text x="422.7" y="1260.5" font-size="12.5" font-weight="600" fill="#242424">Zeta service</text><rect x="504.5" y="1248.00" width="76.2" height="18" rx="9" fill="#ffffff" stroke="#ba0d16" stroke-width="1"/><circle cx="515.5" cy="1257.0" r="6" fill="#c50f18"/><text x="524.5" y="1260.57" font-size="10.5" fill="#323130">Unhealthy</text>
<g filter="url(#cs)"><rect x="278.7" y="651.0" width="182" height="58" rx="10" fill="#f2f8f2" stroke="#a0d8a0" stroke-width="2"/></g><g transform="translate(284.7,670.16) scale(0.82)"><path d="M12 3.2l7.6 4.4v8.8L12 20.8l-7.6-4.4V7.6z" fill="none" stroke="#605e5c" stroke-width="1.6" stroke-linecap="round" stroke-linejoin="round"/><path d="M4.6 7.8l7.4 4.3 7.4-4.3M12 12.1v8.6" fill="none" stroke="#605e5c" stroke-width="1.6" stroke-linecap="round" stroke-linejoin="round"/></g><text x="312.7" y="683.5" font-size="12.5" font-weight="600" fill="#242424">Eta service</text><rect x="388.4" y="671.00" width="64.3" height="18" rx="9" fill="#ffffff" stroke="#a0d8a0" stroke-width="1"/><circle cx="399.4" cy="680.0" r="6" fill="#4c9a2a"/><path d="M396.7 680.0 l1.9 1.9 l3.4 -3.9" fill="none" stroke="#ffffff" stroke-width="1.4" stroke-linecap="round" stroke-linejoin="round"/><text x="408.4" y="683.57" font-size="10.5" fill="#323130">Healthy</text>
<g filter="url(#cs)"><rect x="490.7" y="651.0" width="196" height="58" rx="10" fill="#f2f8f2" stroke="#a0d8a0" stroke-width="2"/></g><g transform="translate(496.7,670.16) scale(0.82)"><path d="M12 3.2l7.6 4.4v8.8L12 20.8l-7.6-4.4V7.6z" fill="none" stroke="#605e5c" stroke-width="1.6" stroke-linecap="round" stroke-linejoin="round"/><path d="M4.6 7.8l7.4 4.3 7.4-4.3M12 12.1v8.6" fill="none" stroke="#605e5c" stroke-width="1.6" stroke-linecap="round" stroke-linejoin="round"/></g><text x="524.7" y="683.5" font-size="12.5" font-weight="600" fill="#242424">Theta service</text><rect x="614.4" y="671.00" width="64.3" height="18" rx="9" fill="#ffffff" stroke="#a0d8a0" stroke-width="1"/><circle cx="625.4" cy="680.0" r="6" fill="#4c9a2a"/><path d="M622.7 680.0 l1.9 1.9 l3.4 -3.9" fill="none" stroke="#ffffff" stroke-width="1.4" stroke-linecap="round" stroke-linejoin="round"/><text x="634.4" y="683.57" font-size="10.5" fill="#323130">Healthy</text>
<g filter="url(#cs)"><rect x="150.2" y="832.0" width="196" height="58" rx="10" fill="#fbf2e7" stroke="#db7500" stroke-width="2"/></g><g transform="translate(156.2,851.16) scale(0.82)"><path d="M12 3.2l7.6 4.4v8.8L12 20.8l-7.6-4.4V7.6z" fill="none" stroke="#605e5c" stroke-width="1.6" stroke-linecap="round" stroke-linejoin="round"/><path d="M4.6 7.8l7.4 4.3 7.4-4.3M12 12.1v8.6" fill="none" stroke="#605e5c" stroke-width="1.6" stroke-linecap="round" stroke-linejoin="round"/></g><text x="184.2" y="864.5" font-size="12.5" font-weight="600" fill="#242424">Iota service</text><rect x="263.2" y="852.00" width="75.0" height="18" rx="9" fill="#ffffff" stroke="#db7500" stroke-width="1"/><circle cx="274.2" cy="861.0" r="6" fill="#c26a00"/><text x="283.2" y="864.57" font-size="10.5" fill="#323130">Degraded</text>
<g filter="url(#cs)"><rect x="376.2" y="832.0" width="201" height="58" rx="10" fill="#f2f8f2" stroke="#a0d8a0" stroke-width="2"/></g><g transform="translate(382.2,851.16) scale(0.82)"><rect x="4" y="4.5" width="16" height="6" rx="1.2" fill="none" stroke="#605e5c" stroke-width="1.6" stroke-linecap="round" stroke-linejoin="round"/><rect x="4" y="13.5" width="16" height="6" rx="1.2" fill="none" stroke="#605e5c" stroke-width="1.6" stroke-linecap="round" stroke-linejoin="round"/><path d="M7.2 7.5h.01M7.2 16.5h.01" fill="none" stroke="#605e5c" stroke-width="1.6" stroke-linecap="round" stroke-linejoin="round"/></g><text x="410.2" y="864.5" font-size="12.5" font-weight="600" fill="#242424">Kappa service</text><rect x="504.9" y="852.00" width="64.3" height="18" rx="9" fill="#ffffff" stroke="#a0d8a0" stroke-width="1"/><circle cx="515.9" cy="861.0" r="6" fill="#4c9a2a"/><path d="M513.2 861.0 l1.9 1.9 l3.4 -3.9" fill="none" stroke="#ffffff" stroke-width="1.4" stroke-linecap="round" stroke-linejoin="round"/><text x="524.9" y="864.57" font-size="10.5" fill="#323130">Healthy</text>
<g filter="url(#cs)"><rect x="144.2" y="1016.0" width="211" height="58" rx="10" fill="#f2f8f2" stroke="#a0d8a0" stroke-width="2"/></g><g transform="translate(150.2,1035.16) scale(0.82)"><path d="M12 3.2l7.6 4.4v8.8L12 20.8l-7.6-4.4V7.6z" fill="none" stroke="#605e5c" stroke-width="1.6" stroke-linecap="round" stroke-linejoin="round"/><path d="M4.6 7.8l7.4 4.3 7.4-4.3M12 12.1v8.6" fill="none" stroke="#605e5c" stroke-width="1.6" stroke-linecap="round" stroke-linejoin="round"/></g><text x="178.2" y="1048.5" font-size="12.5" font-weight="600" fill="#242424">Lambda service</text><rect x="282.9" y="1036.00" width="64.3" height="18" rx="9" fill="#ffffff" stroke="#a0d8a0" stroke-width="1"/><circle cx="293.9" cy="1045.0" r="6" fill="#4c9a2a"/><path d="M291.2 1045.0 l1.9 1.9 l3.4 -3.9" fill="none" stroke="#ffffff" stroke-width="1.4" stroke-linecap="round" stroke-linejoin="round"/><text x="302.9" y="1048.57" font-size="10.5" fill="#323130">Healthy</text>
<g filter="url(#cs)"><rect x="273.2" y="1361.0" width="181" height="58" rx="10" fill="#f2f8f2" stroke="#a0d8a0" stroke-width="2"/></g><g transform="translate(279.2,1380.16) scale(0.82)"><path d="M12 3.2l7.6 4.4v8.8L12 20.8l-7.6-4.4V7.6z" fill="none" stroke="#605e5c" stroke-width="1.6" stroke-linecap="round" stroke-linejoin="round"/><path d="M4.6 7.8l7.4 4.3 7.4-4.3M12 12.1v8.6" fill="none" stroke="#605e5c" stroke-width="1.6" stroke-linecap="round" stroke-linejoin="round"/></g><text x="307.2" y="1393.5" font-size="12.5" font-weight="600" fill="#242424">Mu service</text><rect x="381.9" y="1381.00" width="64.3" height="18" rx="9" fill="#ffffff" stroke="#a0d8a0" stroke-width="1"/><circle cx="392.9" cy="1390.0" r="6" fill="#4c9a2a"/><path d="M390.2 1390.0 l1.9 1.9 l3.4 -3.9" fill="none" stroke="#ffffff" stroke-width="1.4" stroke-linecap="round" stroke-linejoin="round"/><text x="401.9" y="1393.57" font-size="10.5" fill="#323130">Healthy</text>
<g filter="url(#cs)"><rect x="441.6" y="214.0" width="179" height="58" rx="10" fill="#f2f8f2" stroke="#a0d8a0" stroke-width="2"/></g><g transform="translate(447.6,233.16) scale(0.82)"><rect x="4" y="5" width="16" height="3" rx="1" fill="none" stroke="#605e5c" stroke-width="1.6" stroke-linecap="round" stroke-linejoin="round"/><rect x="4" y="10.5" width="16" height="3" rx="1" fill="none" stroke="#605e5c" stroke-width="1.6" stroke-linecap="round" stroke-linejoin="round"/><rect x="4" y="16" width="10" height="3" rx="1" fill="none" stroke="#605e5c" stroke-width="1.6" stroke-linecap="round" stroke-linejoin="round"/></g><text x="475.6" y="246.5" font-size="12.5" font-weight="600" fill="#242424">Mirror hub</text><rect x="548.3" y="234.00" width="64.3" height="18" rx="9" fill="#ffffff" stroke="#a0d8a0" stroke-width="1"/><circle cx="559.3" cy="243.0" r="6" fill="#4c9a2a"/><path d="M556.6 243.0 l1.9 1.9 l3.4 -3.9" fill="none" stroke="#ffffff" stroke-width="1.4" stroke-linecap="round" stroke-linejoin="round"/><text x="568.3" y="246.57" font-size="10.5" fill="#323130">Healthy</text>
<g filter="url(#cs)"><rect x="308.4" y="96.0" width="212" height="58" rx="10" fill="#fbf2e7" stroke="#db7500" stroke-width="2"/></g><g transform="translate(314.4,115.16) scale(0.82)"><circle cx="12" cy="12" r="8.4" fill="none" stroke="#605e5c" stroke-width="1.6" stroke-linecap="round" stroke-linejoin="round"/><path d="M4.2 12h3l2-3.6 2.8 7.2 1.8-3.6h4" fill="none" stroke="#605e5c" stroke-width="1.6" stroke-linecap="round" stroke-linejoin="round"/></g><text x="342.4" y="128.5" font-size="12.5" font-weight="600" fill="#242424">Workload root</text><rect x="437.3" y="116.00" width="75.0" height="18" rx="9" fill="#ffffff" stroke="#db7500" stroke-width="1"/><circle cx="448.3" cy="125.0" r="6" fill="#c26a00"/><text x="457.3" y="128.57" font-size="10.5" fill="#323130">Degraded</text>
</g></svg>