<svg xmlns="http://www.w3.org/2000/svg" width="1332" height="638" viewBox="0 0 1332 638" font-family="Segoe UI, -apple-system, BlinkMacSystemFont, Helvetica, Arial, sans-serif">
<defs><filter id="cs" x="-20%" y="-20%" width="140%" height="140%"><feDropShadow dx="0" dy="1" stdDeviation="1.3" flood-color="#000" flood-opacity="0.1"/></filter></defs>
<rect width="1332" height="638" fill="#ffffff"/>
<rect x="0" y="78.0" width="1332" height="90.0" fill="#ffffff"/>
<line x1="0" y1="78.0" x2="1332" y2="78.0" stroke="#e6e4e2"/>
<text x="1166.0" y="127.5" font-size="13" font-weight="700" fill="#323130">Workload root</text>
<rect x="0" y="168.0" width="1332" height="111.0" fill="#faf9f8"/>
<line x1="0" y1="168.0" x2="1332" y2="168.0" stroke="#e6e4e2"/>
<text x="1166.0" y="228.0" font-size="13" font-weight="700" fill="#323130">Business &amp; user flows</text>
<rect x="0" y="279.0" width="1332" height="341.0" fill="#ffffff"/>
<line x1="0" y1="279.0" x2="1332" y2="279.0" stroke="#e6e4e2"/>
<text x="1166.0" y="445.5" font-size="13" font-weight="700" fill="#323130">Application</text>
<text x="1166.0" y="462.5" font-size="13" font-weight="700" fill="#323130">components</text>
<line x1="0" y1="637.5" x2="1332" y2="637.5" stroke="#e6e4e2"/>
<text x="40" y="34" font-size="18" font-weight="700" fill="#242424">Text extremes</text>
<text x="40" y="52" font-size="12" fill="#605e5c">Signals live inside each entity; health rolls up to the workload root.</text>
<text x="928.6" y="48" font-size="11.5" font-weight="600" fill="#605e5c" text-anchor="end">Legend</text>
<circle cx="946.6" cy="44" r="4.5" fill="#4c9a2a"/>
<text x="956.6" y="48" font-size="11.5" fill="#323130">Healthy</text>
<circle cx="1012.3" cy="44" r="4.5" fill="#c26a00"/>
<text x="1022.3" y="48" font-size="11.5" fill="#323130">Degraded</text>
<circle cx="1089.9" cy="44" r="4.5" fill="#c50f18"/>
<text x="1099.9" y="48" font-size="11.5" fill="#323130">Unhealthy</text>
<circle cx="1168.7" cy="44" r="4.5" fill="#8a8886"/>
<text x="1178.7" y="48" font-size="11.5" fill="#323130">Unknown</text>
<g transform="translate(1237.6,37.0) scale(0.875)"><rect x="1.5" y="8" width="2.6" height="6" rx="0.6" fill="#8661c5"/><rect x="5.7" y="4.5" width="2.6" height="9.5" rx="0.6" fill="#0078D4"/><rect x="9.9" y="6.5" width="2.6" height="7.5" rx="0.6" fill="#3fb0ac"/></g>
<text x="1255.6" y="48" font-size="11.5" fill="#323130">Metric</text>
<g transform="translate(40.0,0)">
<g fill="none" stroke-linecap="butt" stroke-linejoin="round">
<path d="M575.7 297.0 L575.7 265.0" stroke="#a0d8a0" stroke-width="1.7"/>
<path d="M720.0 297.0 L720.0 265.0" stroke="#a0d8a0" stroke-width="1.7"/>
<path d="M468.0 297.0 L468.0 265.0" stroke="#db7500" stroke-width="1.7"/>
<path d="M575.7 186.0 L575.7 154.0" stroke="#db7500" stroke-width="1.7"/>
</g>
<g filter="url(#cs)"><rect x="0.0" y="297.0" width="480" height="309" rx="10" fill="#fbf2e7" stroke="#db7500" stroke-width="2"/></g><g transform="translate(6.0,308.16) scale(0.82)"><circle cx="5.5" cy="6" r="2" fill="none" stroke="#605e5c" stroke-width="1.6" stroke-linecap="round" stroke-linejoin="round"/><circle cx="5.5" cy="18" r="2" fill="none" stroke="#605e5c" stroke-width="1.6" stroke-linecap="round" stroke-linejoin="round"/><circle cx="18.5" cy="12" r="2" fill="none" stroke="#605e5c" stroke-width="1.6" stroke-linecap="round" stroke-linejoin="round"/><path d="M7.5 6h3a4 4 0 0 1 4 4M7.5 18h3a4 4 0 0 0 4-4" fill="none" stroke="#605e5c" stroke-width="1.6" stroke-linecap="round" stroke-linejoin="round"/></g><text x="34.0" y="314.5" font-size="12.5" font-weight="600" fill="#242424">Monolithic-order-management-and-fulfillment-subsystem-</text><text x="34.0" y="328.5" font-size="12.5" font-weight="600" fill="#242424">primary</text><rect x="397.0" y="309.00" width="75.0" height="18" rx="9" fill="#ffffff" stroke="#db7500" stroke-width="1"/><circle cx="408.0" cy="318.0" r="6" fill="#c26a00"/><text x="417.0" y="321.57" font-size="10.5" fill="#323130">Degraded</text><line x1="1.0" y1="342.0" x2="479.0" y2="342.0" stroke="#e6e4e2"/><circle cx="16.0" cy="357.0" r="6" fill="#c26a00"/><g transform="translate(32.0,350.0) scale(0.875)"><rect x="1.5" y="8" width="2.6" height="6" rx="0.6" fill="#8661c5"/><rect x="5.7" y="4.5" width="2.6" height="9.5" rx="0.6" fill="#0078D4"/><rect x="9.9" y="6.5" width="2.6" height="7.5" rx="0.6" fill="#3fb0ac"/></g><text x="52.0" y="360.5" font-size="10.5" fill="#242424">End-to-end checkout latency percentile ninety-five</text><text x="468.0" y="360.5" font-size="10.5" font-weight="600" fill="#c26a00" text-anchor="end">2350 ms</text><line x1="10.0" y1="366.0" x2="470.0" y2="366.0" stroke="#e6e4e2" stroke-opacity="0.7"/><circle cx="16.0" cy="375.0" r="6" fill="#c50f18"/><g transform="translate(32.0,368.0) scale(0.875)"><rect x="1.5" y="8" width="2.6" height="6" rx="0.6" fill="#8661c5"/><rect x="5.7" y="4.5" width="2.6" height="9.5" rx="0.6" fill="#0078D4"/><rect x="9.9" y="6.5" width="2.6" height="7.5" rx="0.6" fill="#3fb0ac"/></g><text x="52.0" y="378.5" font-size="10.5" fill="#242424">Payment gateway authorization failure percentage</text><text x="468.0" y="378.5" font-size="10.5" font-weight="600" fill="#c50f18" text-anchor="end">7.25%</text><line x1="10.0" y1="384.0" x2="470.0" y2="384.0" stroke="#e6e4e2" stroke-opacity="0.7"/><circle cx="16.0" cy="393.0" r="6" fill="#4c9a2a"/><path d="M13.3 393.0 l1.9 1.9 l3.4 -3.9" fill="none" stroke="#ffffff" stroke-width="1.4" stroke-linecap="round" stroke-linejoin="round"/><g transform="translate(32.0,386.0) scale(0.875)"><rect x="1.5" y="8" width="2.6" height="6" rx="0.6" fill="#8661c5"/><rect x="5.7" y="4.5" width="2.6" height="9.5" rx="0.6" fill="#0078D4"/><rect x="9.9" y="6.5" width="2.6" height="7.5" rx="0.6" fill="#3fb0ac"/></g><text x="52.0" y="396.5" font-size="10.5" fill="#242424">Inventory reservation optimistic concurrency conflict rate</text><text x="468.0" y="396.5" font-size="10.5" font-weight="400" fill="#605e5c" text-anchor="end">0.02%</text><line x1="10.0" y1="402.0" x2="470.0" y2="402.0" stroke="#e6e4e2" stroke-opacity="0.7"/><circle cx="16.0" cy="411.0" r="6" fill="#4c9a2a"/><path d="M13.3 411.0 l1.9 1.9 l3.4 -3.9" fill="none" stroke="#ffffff" stroke-width="1.4" stroke-linecap="round" stroke-linejoin="round"/><g transform="translate(32.0,404.0) scale(0.875)"><rect x="1.5" y="8" width="2.6" height="6" rx="0.6" fill="#8661c5"/><rect x="5.7" y="4.5" width="2.6" height="9.5" rx="0.6" fill="#0078D4"/><rect x="9.9" y="6.5" width="2.6" height="7.5" rx="0.6" fill="#3fb0ac"/></g><text x="52.0" y="414.5" font-size="10.5" fill="#242424">Row four</text><text x="468.0" y="414.5" font-size="10.5" font-weight="400" fill="#605e5c" text-anchor="end">2</text><line x1="10.0" y1="420.0" x2="470.0" y2="420.0" stroke="#e6e4e2" stroke-opacity="0.7"/><circle cx="16.0" cy="429.0" r="6" fill="#4c9a2a"/><path d="M13.3 429.0 l1.9 1.9 l3.4 -3.9" fill="none" stroke="#ffffff" stroke-width="1.4" stroke-linecap="round" stroke-linejoin="round"/><g transform="translate(32.0,422.0) scale(0.875)"><rect x="1.5" y="8" width="2.6" height="6" rx="0.6" fill="#8661c5"/><rect x="5.7" y="4.5" width="2.6" height="9.5" rx="0.6" fill="#0078D4"/><rect x="9.9" y="6.5" width="2.6" height="7.5" rx="0.6" fill="#3fb0ac"/></g><text x="52.0" y="432.5" font-size="10.5" fill="#242424">Row five</text><text x="468.0" y="432.5" font-size="10.5" font-weight="400" fill="#605e5c" text-anchor="end">2</text><line x1="10.0" y1="438.0" x2="470.0" y2="438.0" stroke="#e6e4e2" stroke-opacity="0.7"/><circle cx="16.0" cy="447.0" r="6" fill="#4c9a2a"/><path d="M13.3 447.0 l1.9 1.9 l3.4 -3.9" fill="none" stroke="#ffffff" stroke-width="1.4" stroke-linecap="round" stroke-linejoin="round"/><g transform="translate(32.0,440.0) scale(0.875)"><rect x="1.5" y="8" width="2.6" height="6" rx="0.6" fill="#8661c5"/><rect x="5.7" y="4.5" width="2.6" height="9.5" rx="0.6" fill="#0078D4"/><rect x="9.9" y="6.5" width="2.6" height="7.5" rx="0.6" fill="#3fb0ac"/></g><text x="52.0" y="450.5" font-size="10.5" fill="#242424">Row six</text><text x="468.0" y="450.5" font-size="10.5" font-weight="400" fill="#605e5c" text-anchor="end">0</text><line x1="10.0" y1="456.0" x2="470.0" y2="456.0" stroke="#e6e4e2" stroke-opacity="0.7"/><circle cx="16.0" cy="465.0" r="6" fill="#4c9a2a"/><path d="M13.3 465.0 l1.9 1.9 l3.4 -3.9" fill="none" stroke="#ffffff" stroke-width="1.4" stroke-linecap="round" stroke-linejoin="round"/><g transform="translate(32.0,458.0) scale(0.875)"><rect x="1.5" y="8" width="2.6" height="6" rx="0.6" fill="#8661c5"/><rect x="5.7" y="4.5" width="2.6" height="9.5" rx="0.6" fill="#0078D4"/><rect x="9.9" y="6.5" width="2.6" height="7.5" rx="0.6" fill="#3fb0ac"/></g><text x="52.0" y="468.5" font-size="10.5" fill="#242424">Row seven</text><text x="468.0" y="468.5" font-size="10.5" font-weight="400" fill="#605e5c" text-anchor="end">1</text><line x1="10.0" y1="474.0" x2="470.0" y2="474.0" stroke="#e6e4e2" stroke-opacity="0.7"/><circle cx="16.0" cy="483.0" r="6" fill="#4c9a2a"/><path d="M13.3 483.0 l1.9 1.9 l3.4 -3.9" fill="none" stroke="#ffffff" stroke-width="1.4" stroke-linecap="round" stroke-linejoin="round"/><g transform="translate(32.0,476.0) scale(0.875)"><rect x="1.5" y="8" width="2.6" height="6" rx="0.6" fill="#8661c5"/><rect x="5.7" y="4.5" width="2.6" height="9.5" rx="0.6" fill="#0078D4"/><rect x="9.9" y="6.5" width="2.6" height="7.5" rx="0.6" fill="#3fb0ac"/></g><text x="52.0" y="486.5" font-size="10.5" fill="#242424">Row eight</text><text x="468.0" y="486.5" font-size="10.5" font-weight="400" fill="#605e5c" text-anchor="end">0</text><line x1="10.0" y1="492.0" x2="470.0" y2="492.0" stroke="#e6e4e2" stroke-opacity="0.7"/><circle cx="16.0" cy="501.0" r="6" fill="#4c9a2a"/><path d="M13.3 501.0 l1.9 1.9 l3.4 -3.9" fill="none" stroke="#ffffff" stroke-width="1.4" stroke-linecap="round" stroke-linejoin="round"/><g transform="translate(32.0,494.0) scale(0.875)"><rect x="1.5" y="8" width="2.6" height="6" rx="0.6" fill="#8661c5"/><rect x="5.7" y="4.5" width="2.6" height="9.5" rx="0.6" fill="#0078D4"/><rect x="9.9" y="6.5" width="2.6" height="7.5" rx="0.6" fill="#3fb0ac"/></g><text x="52.0" y="504.5" font-size="10.5" fill="#242424">Row nine</text><text x="468.0" y="504.5" font-size="10.5" font-weight="400" fill="#605e5c" text-anchor="end">1</text><line x1="10.0" y1="510.0" x2="470.0" y2="510.0" stroke="#e6e4e2" stroke-opacity="0.7"/><circle cx="16.0" cy="519.0" r="6" fill="#4c9a2a"/><path d="M13.3 519.0 l1.9 1.9 l3.4 -3.9" fill="none" stroke="#ffffff" stroke-width="1.4" stroke-linecap="round" stroke-linejoin="round"/><g transform="translate(32.0,512.0) scale(0.875)"><rect x="1.5" y="8" width="2.6" height="6" rx="0.6" fill="#8661c5"/><rect x="5.7" y="4.5" width="2.6" height="9.5" rx="0.6" fill="#0078D4"/><rect x="9.9" y="6.5" width="2.6" height="7.5" rx="0.6" fill="#3fb0ac"/></g><text x="52.0" y="522.5" font-size="10.5" fill="#242424">Row ten</text><text x="468.0" y="522.5" font-size="10.5" font-weight="400" fill="#605e5c" text-anchor="end">2</text><line x1="10.0" y1="528.0" x2="470.0" y2="528.0" stroke="#e6e4e2" stroke-opacity="0.7"/><circle cx="16.0" cy="537.0" r="6" fill="#4c9a2a"/><path d="M13.3 537.0 l1.9 1.9 l3.4 -3.9" fill="none" stroke="#ffffff" stroke-width="1.4" stroke-linecap="round" stroke-linejoin="round"/><g transform="translate(32.0,530.0) scale(0.875)"><rect x="1.5" y="8" width="2.6" height="6" rx="0.6" fill="#8661c5"/><rect x="5.7" y="4.5" width="2.6" height="9.5" rx="0.6" fill="#0078D4"/><rect x="9.9" y="6.5" width="2.6" height="7.5" rx="0.6" fill="#3fb0ac"/></g><text x="52.0" y="540.5" font-size="10.5" fill="#242424">Row eleven</text><text x="468.0" y="540.5" font-size="10.5" font-weight="400" fill="#605e5c" text-anchor="end">0</text><line x1="10.0" y1="546.0" x2="470.0" y2="546.0" stroke="#e6e4e2" stroke-opacity="0.7"/><circle cx="16.0" cy="555.0" r="6" fill="#4c9a2a"/><path d="M13.3 555.0 l1.9 1.9 l3.4 -3.9" fill="none" stroke="#ffffff" stroke-width="1.4" stroke-linecap="round" stroke-linejoin="round"/><g transform="translate(32.0,548.0) scale(0.875)"><rect x="1.5" y="8" width="2.6" height="6" rx="0.6" fill="#8661c5"/><rect x="5.7" y="4.5" width="2.6" height="9.5" rx="0.6" fill="#0078D4"/><rect x="9.9" y="6.5" width="2.6" height="7.5" rx="0.6" fill="#3fb0ac"/></g><text x="52.0" y="558.5" font-size="10.5" fill="#242424">Row twelve</text><text x="468.0" y="558.5" font-size="10.5" font-weight="400" fill="#605e5c" text-anchor="end">0</text><line x1="10.0" y1="564.0" x2="470.0" y2="564.0" stroke="#e6e4e2" stroke-opacity="0.7"/><circle cx="16.0" cy="573.0" r="6" fill="#4c9a2a"/><path d="M13.3 573.0 l1.9 1.9 l3.4 -3.9" fill="none" stroke="#ffffff" stroke-width="1.4" stroke-linecap="round" stroke-linejoin="round"/><g transform="translate(32.0,566.0) scale(0.875)"><rect x="1.5" y="8" width="2.6" height="6" rx="0.6" fill="#8661c5"/><rect x="5.7" y="4.5" width="2.6" height="9.5" rx="0.6" fill="#0078D4"/><rect x="9.9" y="6.5" width="2.6" height="7.5" rx="0.6" fill="#3fb0ac"/></g><text x="52.0" y="576.5" font-size="10.5" fill="#242424">Row thirteen</text><text x="468.0" y="576.5" font-size="10.5" font-weight="400" fill="#605e5c" text-anchor="end">1</text><line x1="10.0" y1="582.0" x2="470.0" y2="582.0" stroke="#e6e4e2" stroke-opacity="0.7"/><circle cx="16.0" cy="591.0" r="6" fill="#4c9a2a"/><path d="M13.3 591.0 l1.9 1.9 l3.4 -3.9" fill="none" stroke="#ffffff" stroke-width="1.4" stroke-linecap="round" stroke-linejoin="round"/><g transform="translate(32.0,584.0) scale(0.875)"><rect x="1.5" y="8" width="2.6" height="6" rx="0.6" fill="#8661c5"/><rect x="5.7" y="4.5" width="2.6" height="9.5" rx="0.6" fill="#0078D4"/><rect x="9.9" y="6.5" width="2.6" height="7.5" rx="0.6" fill="#3fb0ac"/></g><text x="52.0" y="594.5" font-size="10.5" fill="#242424">Row fourteen</text><text x="468.0" y="594.5" font-size="10.5" font-weight="400" fill="#605e5c" text-anchor="end">1</text>
<g filter="url(#cs)"><rect x="510.0" y="297.0" width="168" height="67" rx="10" fill="#f2f8f2" stroke="#a0d8a0" stroke-width="2"/></g><g transform="translate(516.0,304.16) scale(0.82)"><path d="M12 3.2l7.6 4.4v8.8L12 20.8l-7.6-4.4V7.6z" fill="none" stroke="#605e5c" stroke-width="1.6" stroke-linecap="round" stroke-linejoin="round"/><path d="M4.6 7.8l7.4 4.3 7.4-4.3M12 12.1v8.6" fill="none" stroke="#605e5c" stroke-width="1.6" stroke-linecap="round" stroke-linejoin="round"/></g><text x="544.0" y="317.5" font-size="12.5" font-weight="600" fill="#242424">B</text><rect x="605.7" y="305.00" width="64.3" height="18" rx="9" fill="#ffffff" stroke="#a0d8a0" stroke-width="1"/><circle cx="616.7" cy="314.0" r="6" fill="#4c9a2a"/><path d="M614.0 314.0 l1.9 1.9 l3.4 -3.9" fill="none" stroke="#ffffff" stroke-width="1.4" stroke-linecap="round" stroke-linejoin="round"/><text x="625.7" y="317.57" font-size="10.5" fill="#323130">Healthy</text><line x1="511.0" y1="334.0" x2="677.0" y2="334.0" stroke="#e6e4e2"/><circle cx="526.0" cy="349.0" r="6" fill="#4c9a2a"/><path d="M523.3 349.0 l1.9 1.9 l3.4 -3.9" fill="none" stroke="#ffffff" stroke-width="1.4" stroke-linecap="round" stroke-linejoin="round"/><g transform="translate(542.0,342.0) scale(0.875)"><rect x="1.5" y="8" width="2.6" height="6" rx="0.6" fill="#8661c5"/><rect x="5.7" y="4.5" width="2.6" height="9.5" rx="0.6" fill="#0078D4"/><rect x="9.9" y="6.5" width="2.6" height="7.5" rx="0.6" fill="#3fb0ac"/></g><text x="562.0" y="352.5" font-size="10.5" fill="#242424">a</text><text x="666.0" y="352.5" font-size="10.5" font-weight="400" fill="#605e5c" text-anchor="end">1</text>
<g filter="url(#cs)"><rect x="708.0" y="297.0" width="370" height="103" rx="10" fill="#f2f8f2" stroke="#a0d8a0" stroke-width="2"/></g><g transform="translate(714.0,304.16) scale(0.82)"><path d="M12 3.2l7.6 4.4v8.8L12 20.8l-7.6-4.4V7.6z" fill="none" stroke="#605e5c" stroke-width="1.6" stroke-linecap="round" stroke-linejoin="round"/><path d="M4.6 7.8l7.4 4.3 7.4-4.3M12 12.1v8.6" fill="none" stroke="#605e5c" stroke-width="1.6" stroke-linecap="round" stroke-linejoin="round"/></g><text x="742.0" y="317.5" font-size="12.5" font-weight="600" fill="#242424">Ünïcödé &amp; &lt;entities&gt; — 日本語サービス 🚀</text><rect x="1005.7" y="305.00" width="64.3" height="18" rx="9" fill="#ffffff" stroke="#a0d8a0" stroke-width="1"/><circle cx="1016.7" cy="314.0" r="6" fill="#4c9a2a"/><path d="M1014.0 314.0 l1.9 1.9 l3.4 -3.9" fill="none" stroke="#ffffff" stroke-width="1.4" stroke-linecap="round" stroke-linejoin="round"/><text x="1025.7" y="317.57" font-size="10.5" fill="#323130">Healthy</text><line x1="709.0" y1="334.0" x2="1077.0" y2="334.0" stroke="#e6e4e2"/><circle cx="724.0" cy="349.0" r="6" fill="#4c9a2a"/><path d="M721.3 349.0 l1.9 1.9 l3.4 -3.9" fill="none" stroke="#ffffff" stroke-width="1.4" stroke-linecap="round" stroke-linejoin="round"/><g transform="translate(740.0,342.0) scale(0.875)"><rect x="1.5" y="8" width="2.6" height="6" rx="0.6" fill="#8661c5"/><rect x="5.7" y="4.5" width="2.6" height="9.5" rx="0.6" fill="#0078D4"/><rect x="9.9" y="6.5" width="2.6" height="7.5" rx="0.6" fill="#3fb0ac"/></g><text x="760.0" y="352.5" font-size="10.5" fill="#242424">Zeichenkette münchen ütf-8</text><text x="1066.0" y="352.5" font-size="10.5" font-weight="400" fill="#605e5c" text-anchor="end">größe</text><line x1="718.0" y1="358.0" x2="1068.0" y2="358.0" stroke="#e6e4e2" stroke-opacity="0.7"/><circle cx="724.0" cy="367.0" r="6" fill="#4c9a2a"/><path d="M721.3 367.0 l1.9 1.9 l3.4 -3.9" fill="none" stroke="#ffffff" stroke-width="1.4" stroke-linecap="round" stroke-linejoin="round"/><g transform="translate(740.0,360.0) scale(0.875)"><rect x="1.5" y="8" width="2.6" height="6" rx="0.6" fill="#8661c5"/><rect x="5.7" y="4.5" width="2.6" height="9.5" rx="0.6" fill="#0078D4"/><rect x="9.9" y="6.5" width="2.6" height="7.5" rx="0.6" fill="#3fb0ac"/></g><text x="760.0" y="370.5" font-size="10.5" fill="#242424">缓存命中率</text><text x="1066.0" y="370.5" font-size="10.5" font-weight="400" fill="#605e5c" text-anchor="end">99.9%</text><line x1="718.0" y1="376.0" x2="1068.0" y2="376.0" stroke="#e6e4e2" stroke-opacity="0.7"/><circle cx="724.0" cy="385.0" r="6" fill="#4c9a2a"/><path d="M721.3 385.0 l1.9 1.9 l3.4 -3.9" fill="none" stroke="#ffffff" stroke-width="1.4" stroke-linecap="round" stroke-linejoin="round"/><g transform="translate(740.0,378.0) scale(0.875)"><rect x="1.5" y="8" width="2.6" height="6" rx="0.6" fill="#8661c5"/><rect x="5.7" y="4.5" width="2.6" height="9.5" rx="0.6" fill="#0078D4"/><rect x="9.9" y="6.5" width="2.6" height="7.5" rx="0.6" fill="#3fb0ac"/></g><text x="760.0" y="388.5" font-size="10.5" fill="#242424">🚀 deploys per day</text><text x="1066.0" y="388.5" font-size="10.5" font-weight="400" fill="#605e5c" text-anchor="end">12</text>
<g filter="url(#cs)"><rect x="335.7" y="186.0" width="480" height="79" rx="10" fill="#fbf2e7" stroke="#db7500" stroke-width="2"/></g><g transform="translate(341.7,215.66) scale(0.82)"><circle cx="5.5" cy="6" r="2" fill="none" stroke="#605e5c" stroke-width="1.6" stroke-linecap="round" stroke-linejoin="round"/><circle cx="5.5" cy="18" r="2" fill="none" stroke="#605e5c" stroke-width="1.6" stroke-linecap="round" stroke-linejoin="round"/><circle cx="18.5" cy="12" r="2" fill="none" stroke="#605e5c" stroke-width="1.6" stroke-linecap="round" stroke-linejoin="round"/><path d="M7.5 6h3a4 4 0 0 1 4 4M7.5 18h3a4 4 0 0 0 4-4" fill="none" stroke="#605e5c" stroke-width="1.6" stroke-linecap="round" stroke-linejoin="round"/></g><text x="369.7" y="209.5" font-size="12.5" font-weight="600" fill="#242424">A business flow whose name is much longer than any</text><text x="369.7" y="223.5" font-size="12.5" font-weight="600" fill="#242424">reasonable card width should wrap and never truncate</text><text x="369.7" y="237.5" font-size="12.5" font-weight="600" fill="#242424">silently</text><text x="369.7" y="249.5" font-size="9" fill="#605e5c">worst-of evaluated across seventeen regions and four availability zones</text><rect x="732.6" y="216.50" width="75.0" height="18" rx="9" fill="#ffffff" stroke="#db7500" stroke-width="1"/><circle cx="743.6" cy="225.5" r="6" fill="#c26a00"/><text x="752.6" y="229.07" font-size="10.5" fill="#323130">Degraded</text>
<g filter="url(#cs)"><rect x="491.7" y="96.0" width="168" height="58" rx="10" fill="#fbf2e7" stroke="#db7500" stroke-width="2"/></g><g transform="translate(497.7,115.16) scale(0.82)"><path d="M12 3.2l7.6 4.4v8.8L12 20.8l-7.6-4.4V7.6z" fill="none" stroke="#605e5c" stroke-width="1.6" stroke-linecap="round" stroke-linejoin="round"/><path d="M4.6 7.8l7.4 4.3 7.4-4.3M12 12.1v8.6" fill="none" stroke="#605e5c" stroke-width="1.6" stroke-linecap="round" stroke-linejoin="round"/></g><text x="525.7" y="128.5" font-size="12.5" font-weight="600" fill="#242424">R</text><rect x="576.6" y="116.00" width="75.0" height="18" rx="9" fill="#ffffff" stroke="#db7500" stroke-width="1"/><circle cx="587.6" cy="125.0" r="6" fill="#c26a00"/><text x="596.6" y="128.57" font-size="10.5" fill="#323130">Degraded</text>
</g></svg>