<svg xmlns="http://www.w3.org/2000/svg" width="960" height="801" viewBox="0 0 960 801" font-family="Segoe UI, -apple-system, BlinkMacSystemFont, Helvetica, Arial, sans-serif">
<defs><filter id="cs" x="-20%" y="-20%" width="140%" height="140%"><feDropShadow dx="0" dy="1" stdDeviation="1.3" flood-color="#000" flood-opacity="0.1"/></filter></defs>
<rect width="960" height="801" fill="#ffffff"/>
<rect x="0" y="78.0" width="960" height="90.0" fill="#ffffff"/>
<line x1="0" y1="78.0" x2="960" y2="78.0" stroke="#e6e4e2"/>
<text x="793.5" y="127.5" font-size="13" font-weight="700" fill="#323130">Workload root</text>
<rect x="0" y="168.0" width="960" height="139.0" fill="#faf9f8"/>
<line x1="0" y1="168.0" x2="960" y2="168.0" stroke="#e6e4e2"/>
<text x="793.5" y="242.0" font-size="13" font-weight="700" fill="#323130">Business &amp; user flows</text>
<rect x="0" y="307.0" width="960" height="476.0" fill="#ffffff"/>
<line x1="0" y1="307.0" x2="960" y2="307.0" stroke="#e6e4e2"/>
<text x="793.5" y="541.0" font-size="13" font-weight="700" fill="#323130">Application</text>
<text x="793.5" y="558.0" font-size="13" font-weight="700" fill="#323130">components</text>
<line x1="0" y1="800.5" x2="960" y2="800.5" stroke="#e6e4e2"/>
<text x="40" y="34" font-size="18" font-weight="700" fill="#242424">Text extremes</text>
<text x="40" y="52" font-size="12" fill="#605e5c">Signals live inside each entity; health rolls up to the workload root.</text>
<text x="556.1" y="48" font-size="11.5" font-weight="600" fill="#605e5c" text-anchor="end">Legend</text>
<circle cx="574.1" cy="44" r="4.5" fill="#4c9a2a"/>
<text x="584.1" y="48" font-size="11.5" fill="#323130">Healthy</text>
<circle cx="639.9" cy="44" r="4.5" fill="#c26a00"/>
<text x="649.9" y="48" font-size="11.5" fill="#323130">Degraded</text>
<circle cx="717.4" cy="44" r="4.5" fill="#c50f18"/>
<text x="727.4" y="48" font-size="11.5" fill="#323130">Unhealthy</text>
<circle cx="796.2" cy="44" r="4.5" fill="#8a8886"/>
<text x="806.2" y="48" font-size="11.5" fill="#323130">Unknown</text>
<g transform="translate(865.1,37.0) scale(0.875)"><rect x="1.5" y="8" width="2.6" height="6" rx="0.6" fill="#8661c5"/><rect x="5.7" y="4.5" width="2.6" height="9.5" rx="0.6" fill="#0078D4"/><rect x="9.9" y="6.5" width="2.6" height="7.5" rx="0.6" fill="#3fb0ac"/></g>
<text x="883.1" y="48" font-size="11.5" fill="#323130">Metric</text>
<g transform="translate(40.0,0)">
<g fill="none" stroke-linecap="butt" stroke-linejoin="round">
<path d="M517.5 666.0 L517.5 265.0" stroke="#605e5c" stroke-width="1.7"/>
<path d="M621.5 325.0 L621.5 296.0 Q621.5 289.0 614.5 289.0 L517.5 289.0" stroke="#a0d8a0" stroke-width="1.7"/>
<path d="M517.5 289.0 L517.5 265.0" stroke="#605e5c" stroke-width="1.7"/>
<path d="M267.5 325.0 L267.5 292.0 Q267.5 285.0 274.5 285.0 L517.5 285.0" stroke="#db7500" stroke-width="1.7"/>
<path d="M517.5 285.0 L517.5 265.0" stroke="#605e5c" stroke-width="1.7"/>
<path d="M417.0 186.0 L417.0 154.0" stroke="#605e5c" stroke-width="1.7"/>
</g>
<g filter="url(#cs)"><rect x="27.5" y="325.0" width="480" height="309" rx="10" fill="#fbf2e7" stroke="#db7500" stroke-width="2"/></g><g transform="translate(33.5,336.16) scale(0.82)"><circle cx="5.5" cy="6" r="2" fill="none" stroke="#605e5c" stroke-width="1.6" stroke-linecap="round" stroke-linejoin="round"/><circle cx="5.5" cy="18" r="2" fill="none" stroke="#605e5c" stroke-width="1.6" stroke-linecap="round" stroke-linejoin="round"/><circle cx="18.5" cy="12" r="2" fill="none" stroke="#605e5c" stroke-width="1.6" stroke-linecap="round" stroke-linejoin="round"/><path d="M7.5 6h3a4 4 0 0 1 4 4M7.5 18h3a4 4 0 0 0 4-4" fill="none" stroke="#605e5c" stroke-width="1.6" stroke-linecap="round" stroke-linejoin="round"/></g><text x="61.5" y="342.5" font-size="12.5" font-weight="600" fill="#242424">Monolithic-order-management-and-fulfillment-subsystem-</text><text x="61.5" y="356.5" font-size="12.5" font-weight="600" fill="#242424">primary</text><rect x="424.5" y="337.00" width="75.0" height="18" rx="9" fill="#ffffff" stroke="#db7500" stroke-width="1"/><circle cx="435.5" cy="346.0" r="6" fill="#c26a00"/><text x="444.5" y="349.57" font-size="10.5" fill="#323130">Degraded</text><line x1="28.5" y1="370.0" x2="506.5" y2="370.0" stroke="#e6e4e2"/><circle cx="43.5" cy="385.0" r="6" fill="#c26a00"/><g transform="translate(59.5,378.0) scale(0.875)"><rect x="1.5" y="8" width="2.6" height="6" rx="0.6" fill="#8661c5"/><rect x="5.7" y="4.5" width="2.6" height="9.5" rx="0.6" fill="#0078D4"/><rect x="9.9" y="6.5" width="2.6" height="7.5" rx="0.6" fill="#3fb0ac"/></g><text x="79.5" y="388.5" font-size="10.5" fill="#242424">End-to-end checkout latency percentile ninety-five</text><text x="495.5" y="388.5" font-size="10.5" font-weight="600" fill="#c26a00" text-anchor="end">2350 ms</text><line x1="37.5" y1="394.0" x2="497.5" y2="394.0" stroke="#e6e4e2" stroke-opacity="0.7"/><circle cx="43.5" cy="403.0" r="6" fill="#c50f18"/><g transform="translate(59.5,396.0) scale(0.875)"><rect x="1.5" y="8" width="2.6" height="6" rx="0.6" fill="#8661c5"/><rect x="5.7" y="4.5" width="2.6" height="9.5" rx="0.6" fill="#0078D4"/><rect x="9.9" y="6.5" width="2.6" height="7.5" rx="0.6" fill="#3fb0ac"/></g><text x="79.5" y="406.5" font-size="10.5" fill="#242424">Payment gateway authorization failure percentage</text><text x="495.5" y="406.5" font-size="10.5" font-weight="600" fill="#c50f18" text-anchor="end">7.25%</text><line x1="37.5" y1="412.0" x2="497.5" y2="412.0" stroke="#e6e4e2" stroke-opacity="0.7"/><circle cx="43.5" cy="421.0" r="6" fill="#4c9a2a"/><path d="M40.8 421.0 l1.9 1.9 l3.4 -3.9" fill="none" stroke="#ffffff" stroke-width="1.4" stroke-linecap="round" stroke-linejoin="round"/><g transform="translate(59.5,414.0) scale(0.875)"><rect x="1.5" y="8" width="2.6" height="6" rx="0.6" fill="#8661c5"/><rect x="5.7" y="4.5" width="2.6" height="9.5" rx="0.6" fill="#0078D4"/><rect x="9.9" y="6.5" width="2.6" height="7.5" rx="0.6" fill="#3fb0ac"/></g><text x="79.5" y="424.5" font-size="10.5" fill="#242424">Inventory reservation optimistic concurrency conflict rate</text><text x="495.5" y="424.5" font-size="10.5" font-weight="400" fill="#605e5c" text-anchor="end">0.02%</text><line x1="37.5" y1="430.0" x2="497.5" y2="430.0" stroke="#e6e4e2" stroke-opacity="0.7"/><circle cx="43.5" cy="439.0" r="6" fill="#4c9a2a"/><path d="M40.8 439.0 l1.9 1.9 l3.4 -3.9" fill="none" stroke="#ffffff" stroke-width="1.4" stroke-linecap="round" stroke-linejoin="round"/><g transform="translate(59.5,432.0) scale(0.875)"><rect x="1.5" y="8" width="2.6" height="6" rx="0.6" fill="#8661c5"/><rect x="5.7" y="4.5" width="2.6" height="9.5" rx="0.6" fill="#0078D4"/><rect x="9.9" y="6.5" width="2.6" height="7.5" rx="0.6" fill="#3fb0ac"/></g><text x="79.5" y="442.5" font-size="10.5" fill="#242424">Row four</text><text x="495.5" y="442.5" font-size="10.5" font-weight="400" fill="#605e5c" text-anchor="end">2</text><line x1="37.5" y1="448.0" x2="497.5" y2="448.0" stroke="#e6e4e2" stroke-opacity="0.7"/><circle cx="43.5" cy="457.0" r="6" fill="#4c9a2a"/><path d="M40.8 457.0 l1.9 1.9 l3.4 -3.9" fill="none" stroke="#ffffff" stroke-width="1.4" stroke-linecap="round" stroke-linejoin="round"/><g transform="translate(59.5,450.0) scale(0.875)"><rect x="1.5" y="8" width="2.6" height="6" rx="0.6" fill="#8661c5"/><rect x="5.7" y="4.5" width="2.6" height="9.5" rx="0.6" fill="#0078D4"/><rect x="9.9" y="6.5" width="2.6" height="7.5" rx="0.6" fill="#3fb0ac"/></g><text x="79.5" y="460.5" font-size="10.5" fill="#242424">Row five</text><text x="495.5" y="460.5" font-size="10.5" font-weight="400" fill="#605e5c" text-anchor="end">2</text><line x1="37.5" y1="466.0" x2="497.5" y2="466.0" stroke="#e6e4e2" stroke-opacity="0.7"/><circle cx="43.5" cy="475.0" r="6" fill="#4c9a2a"/><path d="M40.8 475.0 l1.9 1.9 l3.4 -3.9" fill="none" stroke="#ffffff" stroke-width="1.4" stroke-linecap="round" stroke-linejoin="round"/><g transform="translate(59.5,468.0) scale(0.875)"><rect x="1.5" y="8" width="2.6" height="6" rx="0.6" fill="#8661c5"/><rect x="5.7" y="4.5" width="2.6" height="9.5" rx="0.6" fill="#0078D4"/><rect x="9.9" y="6.5" width="2.6" height="7.5" rx="0.6" fill="#3fb0ac"/></g><text x="79.5" y="478.5" font-size="10.5" fill="#242424">Row six</text><text x="495.5" y="478.5" font-size="10.5" font-weight="400" fill="#605e5c" text-anchor="end">0</text><line x1="37.5" y1="484.0" x2="497.5" y2="484.0" stroke="#e6e4e2" stroke-opacity="0.7"/><circle cx="43.5" cy="493.0" r="6" fill="#4c9a2a"/><path d="M40.8 493.0 l1.9 1.9 l3.4 -3.9" fill="none" stroke="#ffffff" stroke-width="1.4" stroke-linecap="round" stroke-linejoin="round"/><g transform="translate(59.5,486.0) scale(0.875)"><rect x="1.5" y="8" width="2.6" height="6" rx="0.6" fill="#8661c5"/><rect x="5.7" y="4.5" width="2.6" height="9.5" rx="0.6" fill="#0078D4"/><rect x="9.9" y="6.5" width="2.6" height="7.5" rx="0.6" fill="#3fb0ac"/></g><text x="79.5" y="496.5" font-size="10.5" fill="#242424">Row seven</text><text x="495.5" y="496.5" font-size="10.5" font-weight="400" fill="#605e5c" text-anchor="end">1</text><line x1="37.5" y1="502.0" x2="497.5" y2="502.0" stroke="#e6e4e2" stroke-opacity="0.7"/><circle cx="43.5" cy="511.0" r="6" fill="#4c9a2a"/><path d="M40.8 511.0 l1.9 1.9 l3.4 -3.9" fill="none" stroke="#ffffff" stroke-width="1.4" stroke-linecap="round" stroke-linejoin="round"/><g transform="translate(59.5,504.0) scale(0.875)"><rect x="1.5" y="8" width="2.6" height="6" rx="0.6" fill="#8661c5"/><rect x="5.7" y="4.5" width="2.6" height="9.5" rx="0.6" fill="#0078D4"/><rect x="9.9" y="6.5" width="2.6" height="7.5" rx="0.6" fill="#3fb0ac"/></g><text x="79.5" y="514.5" font-size="10.5" fill="#242424">Row eight</text><text x="495.5" y="514.5" font-size="10.5" font-weight="400" fill="#605e5c" text-anchor="end">0</text><line x1="37.5" y1="520.0" x2="497.5" y2="520.0" stroke="#e6e4e2" stroke-opacity="0.7"/><circle cx="43.5" cy="529.0" r="6" fill="#4c9a2a"/><path d="M40.8 529.0 l1.9 1.9 l3.4 -3.9" fill="none" stroke="#ffffff" stroke-width="1.4" stroke-linecap="round" stroke-linejoin="round"/><g transform="translate(59.5,522.0) scale(0.875)"><rect x="1.5" y="8" width="2.6" height="6" rx="0.6" fill="#8661c5"/><rect x="5.7" y="4.5" width="2.6" height="9.5" rx="0.6" fill="#0078D4"/><rect x="9.9" y="6.5" width="2.6" height="7.5" rx="0.6" fill="#3fb0ac"/></g><text x="79.5" y="532.5" font-size="10.5" fill="#242424">Row nine</text><text x="495.5" y="532.5" font-size="10.5" font-weight="400" fill="#605e5c" text-anchor="end">1</text><line x1="37.5" y1="538.0" x2="497.5" y2="538.0" stroke="#e6e4e2" stroke-opacity="0.7"/><circle cx="43.5" cy="547.0" r="6" fill="#4c9a2a"/><path d="M40.8 547.0 l1.9 1.9 l3.4 -3.9" fill="none" stroke="#ffffff" stroke-width="1.4" stroke-linecap="round" stroke-linejoin="round"/><g transform="translate(59.5,540.0) scale(0.875)"><rect x="1.5" y="8" width="2.6" height="6" rx="0.6" fill="#8661c5"/><rect x="5.7" y="4.5" width="2.6" height="9.5" rx="0.6" fill="#0078D4"/><rect x="9.9" y="6.5" width="2.6" height="7.5" rx="0.6" fill="#3fb0ac"/></g><text x="79.5" y="550.5" font-size="10.5" fill="#242424">Row ten</text><text x="495.5" y="550.5" font-size="10.5" font-weight="400" fill="#605e5c" text-anchor="end">2</text><line x1="37.5" y1="556.0" x2="497.5" y2="556.0" stroke="#e6e4e2" stroke-opacity="0.7"/><circle cx="43.5" cy="565.0" r="6" fill="#4c9a2a"/><path d="M40.8 565.0 l1.9 1.9 l3.4 -3.9" fill="none" stroke="#ffffff" stroke-width="1.4" stroke-linecap="round" stroke-linejoin="round"/><g transform="translate(59.5,558.0) scale(0.875)"><rect x="1.5" y="8" width="2.6" height="6" rx="0.6" fill="#8661c5"/><rect x="5.7" y="4.5" width="2.6" height="9.5" rx="0.6" fill="#0078D4"/><rect x="9.9" y="6.5" width="2.6" height="7.5" rx="0.6" fill="#3fb0ac"/></g><text x="79.5" y="568.5" font-size="10.5" fill="#242424">Row eleven</text><text x="495.5" y="568.5" font-size="10.5" font-weight="400" fill="#605e5c" text-anchor="end">0</text><line x1="37.5" y1="574.0" x2="497.5" y2="574.0" stroke="#e6e4e2" stroke-opacity="0.7"/><circle cx="43.5" cy="583.0" r="6" fill="#4c9a2a"/><path d="M40.8 583.0 l1.9 1.9 l3.4 -3.9" fill="none" stroke="#ffffff" stroke-width="1.4" stroke-linecap="round" stroke-linejoin="round"/><g transform="translate(59.5,576.0) scale(0.875)"><rect x="1.5" y="8" width="2.6" height="6" rx="0.6" fill="#8661c5"/><rect x="5.7" y="4.5" width="2.6" height="9.5" rx="0.6" fill="#0078D4"/><rect x="9.9" y="6.5" width="2.6" height="7.5" rx="0.6" fill="#3fb0ac"/></g><text x="79.5" y="586.5" font-size="10.5" fill="#242424">Row twelve</text><text x="495.5" y="586.5" font-size="10.5" font-weight="400" fill="#605e5c" text-anchor="end">0</text><line x1="37.5" y1="592.0" x2="497.5" y2="592.0" stroke="#e6e4e2" stroke-opacity="0.7"/><circle cx="43.5" cy="601.0" r="6" fill="#4c9a2a"/><path d="M40.8 601.0 l1.9 1.9 l3.4 -3.9" fill="none" stroke="#ffffff" stroke-width="1.4" stroke-linecap="round" stroke-linejoin="round"/><g transform="translate(59.5,594.0) scale(0.875)"><rect x="1.5" y="8" width="2.6" height="6" rx="0.6" fill="#8661c5"/><rect x="5.7" y="4.5" width="2.6" height="9.5" rx="0.6" fill="#0078D4"/><rect x="9.9" y="6.5" width="2.6" height="7.5" rx="0.6" fill="#3fb0ac"/></g><text x="79.5" y="604.5" font-size="10.5" fill="#242424">Row thirteen</text><text x="495.5" y="604.5" font-size="10.5" font-weight="400" fill="#605e5c" text-anchor="end">1</text><line x1="37.5" y1="610.0" x2="497.5" y2="610.0" stroke="#e6e4e2" stroke-opacity="0.7"/><circle cx="43.5" cy="619.0" r="6" fill="#4c9a2a"/><path d="M40.8 619.0 l1.9 1.9 l3.4 -3.9" fill="none" stroke="#ffffff" stroke-width="1.4" stroke-linecap="round" stroke-linejoin="round"/><g transform="translate(59.5,612.0) scale(0.875)"><rect x="1.5" y="8" width="2.6" height="6" rx="0.6" fill="#8661c5"/><rect x="5.7" y="4.5" width="2.6" height="9.5" rx="0.6" fill="#0078D4"/><rect x="9.9" y="6.5" width="2.6" height="7.5" rx="0.6" fill="#3fb0ac"/></g><text x="79.5" y="622.5" font-size="10.5" fill="#242424">Row fourteen</text><text x="495.5" y="622.5" font-size="10.5" font-weight="400" fill="#605e5c" text-anchor="end">1</text>
<g filter="url(#cs)"><rect x="537.5" y="325.0" width="168" height="67" rx="10" fill="#f2f8f2" stroke="#a0d8a0" stroke-width="2"/></g><g transform="translate(543.5,332.16) scale(0.82)"><path d="M12 3.2l7.6 4.4v8.8L12 20.8l-7.6-4.4V7.6z" fill="none" stroke="#605e5c" stroke-width="1.6" stroke-linecap="round" stroke-linejoin="round"/><path d="M4.6 7.8l7.4 4.3 7.4-4.3M12 12.1v8.6" fill="none" stroke="#605e5c" stroke-width="1.6" stroke-linecap="round" stroke-linejoin="round"/></g><text x="571.5" y="345.5" font-size="12.5" font-weight="600" fill="#242424">B</text><rect x="633.2" y="333.00" width="64.3" height="18" rx="9" fill="#ffffff" stroke="#a0d8a0" stroke-width="1"/><circle cx="644.2" cy="342.0" r="6" fill="#4c9a2a"/><path d="M641.5 342.0 l1.9 1.9 l3.4 -3.9" fill="none" stroke="#ffffff" stroke-width="1.4" stroke-linecap="round" stroke-linejoin="round"/><text x="653.2" y="345.57" font-size="10.5" fill="#323130">Healthy</text><line x1="538.5" y1="362.0" x2="704.5" y2="362.0" stroke="#e6e4e2"/><circle cx="553.5" cy="377.0" r="6" fill="#4c9a2a"/><path d="M550.8 377.0 l1.9 1.9 l3.4 -3.9" fill="none" stroke="#ffffff" stroke-width="1.4" stroke-linecap="round" stroke-linejoin="round"/><g transform="translate(569.5,370.0) scale(0.875)"><rect x="1.5" y="8" width="2.6" height="6" rx="0.6" fill="#8661c5"/><rect x="5.7" y="4.5" width="2.6" height="9.5" rx="0.6" fill="#0078D4"/><rect x="9.9" y="6.5" width="2.6" height="7.5" rx="0.6" fill="#3fb0ac"/></g><text x="589.5" y="380.5" font-size="10.5" fill="#242424">a</text><text x="693.5" y="380.5" font-size="10.5" font-weight="400" fill="#605e5c" text-anchor="end">1</text>
<g filter="url(#cs)"><rect x="181.5" y="666.0" width="370" height="103" rx="10" fill="#f2f8f2" stroke="#a0d8a0" stroke-width="2"/></g><g transform="translate(187.5,673.16) scale(0.82)"><path d="M12 3.2l7.6 4.4v8.8L12 20.8l-7.6-4.4V7.6z" fill="none" stroke="#605e5c" stroke-width="1.6" stroke-linecap="round" stroke-linejoin="round"/><path d="M4.6 7.8l7.4 4.3 7.4-4.3M12 12.1v8.6" fill="none" stroke="#605e5c" stroke-width="1.6" stroke-linecap="round" stroke-linejoin="round"/></g><text x="215.5" y="686.5" font-size="12.5" font-weight="600" fill="#242424">Ünïcödé &amp; &lt;entities&gt; — 日本語サービス 🚀</text><rect x="479.2" y="674.00" width="64.3" height="18" rx="9" fill="#ffffff" stroke="#a0d8a0" stroke-width="1"/><circle cx="490.2" cy="683.0" r="6" fill="#4c9a2a"/><path d="M487.5 683.0 l1.9 1.9 l3.4 -3.9" fill="none" stroke="#ffffff" stroke-width="1.4" stroke-linecap="round" stroke-linejoin="round"/><text x="499.2" y="686.57" font-size="10.5" fill="#323130">Healthy</text><line x1="182.5" y1="703.0" x2="550.5" y2="703.0" stroke="#e6e4e2"/><circle cx="197.5" cy="718.0" r="6" fill="#4c9a2a"/><path d="M194.8 718.0 l1.9 1.9 l3.4 -3.9" fill="none" stroke="#ffffff" stroke-width="1.4" stroke-linecap="round" stroke-linejoin="round"/><g transform="translate(213.5,711.0) scale(0.875)"><rect x="1.5" y="8" width="2.6" height="6" rx="0.6" fill="#8661c5"/><rect x="5.7" y="4.5" width="2.6" height="9.5" rx="0.6" fill="#0078D4"/><rect x="9.9" y="6.5" width="2.6" height="7.5" rx="0.6" fill="#3fb0ac"/></g><text x="233.5" y="721.5" font-size="10.5" fill="#242424">Zeichenkette münchen ütf-8</text><text x="539.5" y="721.5" font-size="10.5" font-weight="400" fill="#605e5c" text-anchor="end">größe</text><line x1="191.5" y1="727.0" x2="541.5" y2="727.0" stroke="#e6e4e2" stroke-opacity="0.7"/><circle cx="197.5" cy="736.0" r="6" fill="#4c9a2a"/><path d="M194.8 736.0 l1.9 1.9 l3.4 -3.9" fill="none" stroke="#ffffff" stroke-width="1.4" stroke-linecap="round" stroke-linejoin="round"/><g transform="translate(213.5,729.0) scale(0.875)"><rect x="1.5" y="8" width="2.6" height="6" rx="0.6" fill="#8661c5"/><rect x="5.7" y="4.5" width="2.6" height="9.5" rx="0.6" fill="#0078D4"/><rect x="9.9" y="6.5" width="2.6" height="7.5" rx="0.6" fill="#3fb0ac"/></g><text x="233.5" y="739.5" font-size="10.5" fill="#242424">缓存命中率</text><text x="539.5" y="739.5" font-size="10.5" font-weight="400" fill="#605e5c" text-anchor="end">99.9%</text><line x1="191.5" y1="745.0" x2="541.5" y2="745.0" stroke="#e6e4e2" stroke-opacity="0.7"/><circle cx="197.5" cy="754.0" r="6" fill="#4c9a2a"/><path d="M194.8 754.0 l1.9 1.9 l3.4 -3.9" fill="none" stroke="#ffffff" stroke-width="1.4" stroke-linecap="round" stroke-linejoin="round"/><g transform="translate(213.5,747.0) scale(0.875)"><rect x="1.5" y="8" width="2.6" height="6" rx="0.6" fill="#8661c5"/><rect x="5.7" y="4.5" width="2.6" height="9.5" rx="0.6" fill="#0078D4"/><rect x="9.9" y="6.5" width="2.6" height="7.5" rx="0.6" fill="#3fb0ac"/></g><text x="233.5" y="757.5" font-size="10.5" fill="#242424">🚀 deploys per day</text><text x="539.5" y="757.5" font-size="10.5" font-weight="400" fill="#605e5c" text-anchor="end">12</text>
<g filter="url(#cs)"><rect x="177.0" y="186.0" width="480" height="79" rx="10" fill="#fbf2e7" stroke="#db7500" stroke-width="2"/></g><g transform="translate(183.0,215.66) scale(0.82)"><circle cx="5.5" cy="6" r="2" fill="none" stroke="#605e5c" stroke-width="1.6" stroke-linecap="round" stroke-linejoin="round"/><circle cx="5.5" cy="18" r="2" fill="none" stroke="#605e5c" stroke-width="1.6" stroke-linecap="round" stroke-linejoin="round"/><circle cx="18.5" cy="12" r="2" fill="none" stroke="#605e5c" stroke-width="1.6" stroke-linecap="round" stroke-linejoin="round"/><path d="M7.5 6h3a4 4 0 0 1 4 4M7.5 18h3a4 4 0 0 0 4-4" fill="none" stroke="#605e5c" stroke-width="1.6" stroke-linecap="round" stroke-linejoin="round"/></g><text x="211.0" y="209.5" font-size="12.5" font-weight="600" fill="#242424">A business flow whose name is much longer than any</text><text x="211.0" y="223.5" font-size="12.5" font-weight="600" fill="#242424">reasonable card width should wrap and never truncate</text><text x="211.0" y="237.5" font-size="12.5" font-weight="600" fill="#242424">silently</text><text x="211.0" y="249.5" font-size="9" fill="#605e5c">worst-of evaluated across seventeen regions and four availability zones</text><rect x="574.0" y="216.50" width="75.0" height="18" rx="9" fill="#ffffff" stroke="#db7500" stroke-width="1"/><circle cx="585.0" cy="225.5" r="6" fill="#c26a00"/><text x="594.0" y="229.07" font-size="10.5" fill="#323130">Degraded</text>
<g filter="url(#cs)"><rect x="333.0" y="96.0" width="168" height="58" rx="10" fill="#fbf2e7" stroke="#db7500" stroke-width="2"/></g><g transform="translate(339.0,115.16) scale(0.82)"><path d="M12 3.2l7.6 4.4v8.8L12 20.8l-7.6-4.4V7.6z" fill="none" stroke="#605e5c" stroke-width="1.6" stroke-linecap="round" stroke-linejoin="round"/><path d="M4.6 7.8l7.4 4.3 7.4-4.3M12 12.1v8.6" fill="none" stroke="#605e5c" stroke-width="1.6" stroke-linecap="round" stroke-linejoin="round"/></g><text x="367.0" y="128.5" font-size="12.5" font-weight="600" fill="#242424">R</text><rect x="418.0" y="116.00" width="75.0" height="18" rx="9" fill="#ffffff" stroke="#db7500" stroke-width="1"/><circle cx="429.0" cy="125.0" r="6" fill="#c26a00"/><text x="438.0" y="128.57" font-size="10.5" fill="#323130">Degraded</text>
</g></svg>