<svg xmlns="http://www.w3.org/2000/svg" width="954" height="436" viewBox="0 0 954 436" font-family="Segoe UI, -apple-system, BlinkMacSystemFont, Helvetica, Arial, sans-serif">
<defs><filter id="cs" x="-20%" y="-20%" width="140%" height="140%"><feDropShadow dx="0" dy="1" stdDeviation="1.3" flood-color="#000" flood-opacity="0.1"/></filter></defs>
<rect width="954" height="436" fill="#ffffff"/>
<rect x="0" y="78.0" width="954" height="90.0" fill="#ffffff"/>
<line x1="0" y1="78.0" x2="954" y2="78.0" stroke="#e6e4e2"/>
<text x="788.0" y="127.5" font-size="13" font-weight="700" fill="#323130">Workload root</text>
<rect x="0" y="168.0" width="954" height="133.0" fill="#faf9f8"/>
<line x1="0" y1="168.0" x2="954" y2="168.0" stroke="#e6e4e2"/>
<text x="788.0" y="239.0" font-size="13" font-weight="700" fill="#323130">Business &amp; user flows</text>
<rect x="0" y="301.0" width="954" height="117.0" fill="#ffffff"/>
<line x1="0" y1="301.0" x2="954" y2="301.0" stroke="#e6e4e2"/>
<text x="788.0" y="355.5" font-size="13" font-weight="700" fill="#323130">Application</text>
<text x="788.0" y="372.5" font-size="13" font-weight="700" fill="#323130">components</text>
<line x1="0" y1="435.5" x2="954" y2="435.5" stroke="#e6e4e2"/>
<text x="40" y="34" font-size="18" font-weight="700" fill="#242424">6. Dashed propagation edges and relationship pills</text>
<text x="40" y="52" font-size="12" fill="#605e5c">Signals live inside each entity; health rolls up to the workload root.</text>
<text x="550.6" y="48" font-size="11.5" font-weight="600" fill="#605e5c" text-anchor="end">Legend</text>
<circle cx="568.6" cy="44" r="4.5" fill="#4c9a2a"/>
<text x="578.6" y="48" font-size="11.5" fill="#323130">Healthy</text>
<circle cx="634.3" cy="44" r="4.5" fill="#c26a00"/>
<text x="644.3" y="48" font-size="11.5" fill="#323130">Degraded</text>
<circle cx="711.8" cy="44" r="4.5" fill="#c50f18"/>
<text x="721.8" y="48" font-size="11.5" fill="#323130">Unhealthy</text>
<circle cx="790.6" cy="44" r="4.5" fill="#8a8886"/>
<text x="800.6" y="48" font-size="11.5" fill="#323130">Unknown</text>
<g transform="translate(859.5,37.0) scale(0.875)"><rect x="1.5" y="8" width="2.6" height="6" rx="0.6" fill="#8661c5"/><rect x="5.7" y="4.5" width="2.6" height="9.5" rx="0.6" fill="#0078D4"/><rect x="9.9" y="6.5" width="2.6" height="7.5" rx="0.6" fill="#3fb0ac"/></g>
<text x="877.5" y="48" font-size="11.5" fill="#323130">Metric</text>
<g transform="translate(40.0,0)">
<g fill="none" stroke-linecap="butt" stroke-linejoin="round">
<path d="M161.0 319.0 L161.0 244.0" stroke="#a0d8a0" stroke-width="1.7"/>
<path d="M191.0 186.0 L191.0 154.0" stroke="#db7500" stroke-width="1.7"/>
<path d="M295.5 319.0 L295.5 282.5 Q295.5 277.5 290.5 277.5 L290.5 277.5 Q285.5 277.5 285.5 272.5 L285.5 244.0" stroke="#ba0d16" stroke-width="1.6" stroke-dasharray="5 4"/>
</g>
<g stroke="none"><rect x="235.8" y="267.5" width="119.4" height="20" rx="10" fill="#ffffff" stroke="#d8d6d4" stroke-width="1"/><text x="295.5" y="281.1" font-size="10.5" font-weight="600" fill="#242424" text-anchor="middle">limited propagation</text></g>
<g filter="url(#cs)"><rect x="0.0" y="319.0" width="173" height="85" rx="10" fill="#f2f8f2" stroke="#a0d8a0" stroke-width="2"/></g><g transform="translate(6.0,326.16) scale(0.82)"><path d="M12 3.2l7.6 4.4v8.8L12 20.8l-7.6-4.4V7.6z" fill="none" stroke="#605e5c" stroke-width="1.6" stroke-linecap="round" stroke-linejoin="round"/><path d="M4.6 7.8l7.4 4.3 7.4-4.3M12 12.1v8.6" fill="none" stroke="#605e5c" stroke-width="1.6" stroke-linecap="round" stroke-linejoin="round"/></g><text x="34.0" y="339.5" font-size="12.5" font-weight="600" fill="#242424">Service A</text><rect x="100.7" y="327.00" width="64.3" height="18" rx="9" fill="#ffffff" stroke="#a0d8a0" stroke-width="1"/><circle cx="111.7" cy="336.0" r="6" fill="#4c9a2a"/><path d="M109.0 336.0 l1.9 1.9 l3.4 -3.9" fill="none" stroke="#ffffff" stroke-width="1.4" stroke-linecap="round" stroke-linejoin="round"/><text x="120.7" y="339.57" font-size="10.5" fill="#323130">Healthy</text><line x1="1.0" y1="356.0" x2="172.0" y2="356.0" stroke="#e6e4e2"/><circle cx="16.0" cy="371.0" r="6" fill="#4c9a2a"/><path d="M13.3 371.0 l1.9 1.9 l3.4 -3.9" fill="none" stroke="#ffffff" stroke-width="1.4" stroke-linecap="round" stroke-linejoin="round"/><g transform="translate(32.0,364.0) scale(0.875)"><rect x="1.5" y="8" width="2.6" height="6" rx="0.6" fill="#8661c5"/><rect x="5.7" y="4.5" width="2.6" height="9.5" rx="0.6" fill="#0078D4"/><rect x="9.9" y="6.5" width="2.6" height="7.5" rx="0.6" fill="#3fb0ac"/></g><text x="52.0" y="374.5" font-size="10.5" fill="#242424">Latency</text><text x="161.0" y="374.5" font-size="10.5" font-weight="400" fill="#605e5c" text-anchor="end">0</text><line x1="10.0" y1="380.0" x2="163.0" y2="380.0" stroke="#e6e4e2" stroke-opacity="0.7"/><circle cx="16.0" cy="389.0" r="6" fill="#4c9a2a"/><path d="M13.3 389.0 l1.9 1.9 l3.4 -3.9" fill="none" stroke="#ffffff" stroke-width="1.4" stroke-linecap="round" stroke-linejoin="round"/><g transform="translate(32.0,382.0) scale(0.875)"><rect x="1.5" y="8" width="2.6" height="6" rx="0.6" fill="#8661c5"/><rect x="5.7" y="4.5" width="2.6" height="9.5" rx="0.6" fill="#0078D4"/><rect x="9.9" y="6.5" width="2.6" height="7.5" rx="0.6" fill="#3fb0ac"/></g><text x="52.0" y="392.5" font-size="10.5" fill="#242424">Retries</text><text x="161.0" y="392.5" font-size="10.5" font-weight="400" fill="#605e5c" text-anchor="end">2</text>
<g filter="url(#cs)"><rect x="203.0" y="319.0" width="185" height="85" rx="10" fill="#faeceb" stroke="#ba0d16" stroke-width="2"/></g><g transform="translate(209.0,326.16) scale(0.82)"><path d="M12 3.2l7.6 4.4v8.8L12 20.8l-7.6-4.4V7.6z" fill="none" stroke="#605e5c" stroke-width="1.6" stroke-linecap="round" stroke-linejoin="round"/><path d="M4.6 7.8l7.4 4.3 7.4-4.3M12 12.1v8.6" fill="none" stroke="#605e5c" stroke-width="1.6" stroke-linecap="round" stroke-linejoin="round"/></g><text x="237.0" y="339.5" font-size="12.5" font-weight="600" fill="#242424">Service B</text><rect x="303.8" y="327.00" width="76.2" height="18" rx="9" fill="#ffffff" stroke="#ba0d16" stroke-width="1"/><circle cx="314.8" cy="336.0" r="6" fill="#c50f18"/><text x="323.8" y="339.57" font-size="10.5" fill="#323130">Unhealthy</text><line x1="204.0" y1="356.0" x2="387.0" y2="356.0" stroke="#e6e4e2"/><circle cx="219.0" cy="371.0" r="6" fill="#c50f18"/><g transform="translate(235.0,364.0) scale(0.875)"><rect x="1.5" y="8" width="2.6" height="6" rx="0.6" fill="#8661c5"/><rect x="5.7" y="4.5" width="2.6" height="9.5" rx="0.6" fill="#0078D4"/><rect x="9.9" y="6.5" width="2.6" height="7.5" rx="0.6" fill="#3fb0ac"/></g><text x="255.0" y="374.5" font-size="10.5" fill="#242424">Error burst</text><text x="376.0" y="374.5" font-size="10.5" font-weight="600" fill="#c50f18" text-anchor="end">50</text><line x1="213.0" y1="380.0" x2="378.0" y2="380.0" stroke="#e6e4e2" stroke-opacity="0.7"/><circle cx="219.0" cy="389.0" r="6" fill="#4c9a2a"/><path d="M216.3 389.0 l1.9 1.9 l3.4 -3.9" fill="none" stroke="#ffffff" stroke-width="1.4" stroke-linecap="round" stroke-linejoin="round"/><g transform="translate(235.0,382.0) scale(0.875)"><rect x="1.5" y="8" width="2.6" height="6" rx="0.6" fill="#8661c5"/><rect x="5.7" y="4.5" width="2.6" height="9.5" rx="0.6" fill="#0078D4"/><rect x="9.9" y="6.5" width="2.6" height="7.5" rx="0.6" fill="#3fb0ac"/></g><text x="255.0" y="392.5" font-size="10.5" fill="#242424">Circuit open</text><text x="376.0" y="392.5" font-size="10.5" font-weight="400" fill="#605e5c" text-anchor="end">0</text>
<g filter="url(#cs)"><rect x="84.5" y="186.0" width="213" height="58" rx="10" fill="#fbf2e7" stroke="#db7500" stroke-width="2"/></g><g transform="translate(90.5,205.16) scale(0.82)"><circle cx="5.5" cy="6" r="2" fill="none" stroke="#605e5c" stroke-width="1.6" stroke-linecap="round" stroke-linejoin="round"/><circle cx="5.5" cy="18" r="2" fill="none" stroke="#605e5c" stroke-width="1.6" stroke-linecap="round" stroke-linejoin="round"/><circle cx="18.5" cy="12" r="2" fill="none" stroke="#605e5c" stroke-width="1.6" stroke-linecap="round" stroke-linejoin="round"/><path d="M7.5 6h3a4 4 0 0 1 4 4M7.5 18h3a4 4 0 0 0 4-4" fill="none" stroke="#605e5c" stroke-width="1.6" stroke-linecap="round" stroke-linejoin="round"/></g><text x="118.5" y="218.5" font-size="12.5" font-weight="600" fill="#242424">Checkout flow</text><rect x="214.5" y="206.00" width="75.0" height="18" rx="9" fill="#ffffff" stroke="#db7500" stroke-width="1"/><circle cx="225.5" cy="215.0" r="6" fill="#c26a00"/><text x="234.5" y="218.57" font-size="10.5" fill="#323130">Degraded</text>
<g filter="url(#cs)"><rect x="85.0" y="96.0" width="212" height="58" rx="10" fill="#fbf2e7" stroke="#db7500" stroke-width="2"/></g><g transform="translate(91.0,115.16) scale(0.82)"><circle cx="12" cy="12" r="8.4" fill="none" stroke="#605e5c" stroke-width="1.6" stroke-linecap="round" stroke-linejoin="round"/><path d="M4.2 12h3l2-3.6 2.8 7.2 1.8-3.6h4" fill="none" stroke="#605e5c" stroke-width="1.6" stroke-linecap="round" stroke-linejoin="round"/></g><text x="119.0" y="128.5" font-size="12.5" font-weight="600" fill="#242424">Workload root</text><rect x="214.0" y="116.00" width="75.0" height="18" rx="9" fill="#ffffff" stroke="#db7500" stroke-width="1"/><circle cx="225.0" cy="125.0" r="6" fill="#c26a00"/><text x="234.0" y="128.57" font-size="10.5" fill="#323130">Degraded</text>
</g></svg>