<svg xmlns="http://www.w3.org/2000/svg" width="882" height="393" viewBox="0 0 882 393" font-family="Segoe UI, -apple-system, BlinkMacSystemFont, Helvetica, Arial, sans-serif">
<defs><filter id="cs" x="-20%" y="-20%" width="140%" height="140%"><feDropShadow dx="0" dy="1" stdDeviation="1.3" flood-color="#000" flood-opacity="0.35"/></filter></defs>
<rect width="882" height="393" fill="#1b1a19"/>
<rect x="0" y="78.0" width="882" height="90.0" fill="#1b1a19"/>
<line x1="0" y1="78.0" x2="882" y2="78.0" stroke="#3b3a39"/>
<text x="716.5" y="127.5" font-size="13" font-weight="700" fill="#d2d0ce">Workload root</text>
<rect x="0" y="168.0" width="882" height="90.0" fill="#232120"/>
<line x1="0" y1="168.0" x2="882" y2="168.0" stroke="#3b3a39"/>
<text x="716.5" y="217.5" font-size="13" font-weight="700" fill="#d2d0ce">Business &amp; user flows</text>
<rect x="0" y="258.0" width="882" height="117.0" fill="#1b1a19"/>
<line x1="0" y1="258.0" x2="882" y2="258.0" stroke="#3b3a39"/>
<text x="716.5" y="312.5" font-size="13" font-weight="700" fill="#d2d0ce">Application</text>
<text x="716.5" y="329.5" font-size="13" font-weight="700" fill="#d2d0ce">components</text>
<line x1="0" y1="392.5" x2="882" y2="392.5" stroke="#3b3a39"/>
<text x="40" y="34" font-size="18" font-weight="700" fill="#f3f2f1">2. Fence-info options (`mermaid midnight`)</text>
<text x="40" y="52" font-size="12" fill="#a19f9d">Signals live inside each entity; health rolls up to the workload root.</text>
<text x="479.1" y="48" font-size="11.5" font-weight="600" fill="#a19f9d" text-anchor="end">Legend</text>
<circle cx="497.1" cy="44" r="4.5" fill="#6ccb5f"/>
<text x="507.1" y="48" font-size="11.5" fill="#d2d0ce">Healthy</text>
<circle cx="562.8" cy="44" r="4.5" fill="#f7a350"/>
<text x="572.8" y="48" font-size="11.5" fill="#d2d0ce">Degraded</text>
<circle cx="640.3" cy="44" r="4.5" fill="#f1707b"/>
<text x="650.3" y="48" font-size="11.5" fill="#d2d0ce">Unhealthy</text>
<circle cx="719.1" cy="44" r="4.5" fill="#979593"/>
<text x="729.1" y="48" font-size="11.5" fill="#d2d0ce">Unknown</text>
<g transform="translate(788.0,37.0) scale(0.875)"><rect x="1.5" y="8" width="2.6" height="6" rx="0.6" fill="#a58fd8"/><rect x="5.7" y="4.5" width="2.6" height="9.5" rx="0.6" fill="#4ba3e3"/><rect x="9.9" y="6.5" width="2.6" height="7.5" rx="0.6" fill="#57c3bf"/></g>
<text x="806.0" y="48" font-size="11.5" fill="#d2d0ce">Metric</text>
<g transform="translate(40.0,0)">
<g fill="none" stroke-linecap="butt" stroke-linejoin="round">
<path d="M185.0 276.0 L185.0 244.0" stroke="#6ccb5f" stroke-width="1.7"/>
<path d="M239.0 276.0 L239.0 244.0" stroke="#f1707b" stroke-width="1.7"/>
<path d="M211.5 186.0 L211.5 154.0" stroke="#f1707b" stroke-width="1.7"/>
</g>
<g filter="url(#cs)"><rect x="0.0" y="276.0" width="197" height="85" rx="10" fill="#1e2d1c" stroke="#6ccb5f" stroke-width="2"/></g><g transform="translate(6.0,283.16) scale(0.82)"><circle cx="12" cy="12" r="8.4" fill="none" stroke="#a19f9d" stroke-width="1.6" stroke-linecap="round" stroke-linejoin="round"/><path d="M3.6 12h16.8M12 3.6c3 3 3 13.8 0 16.8M12 3.6c-3 3-3 13.8 0 16.8" fill="none" stroke="#a19f9d" stroke-width="1.6" stroke-linecap="round" stroke-linejoin="round"/></g><text x="34.0" y="296.5" font-size="12.5" font-weight="600" fill="#f3f2f1">Web frontend</text><rect x="124.7" y="284.00" width="64.3" height="18" rx="9" fill="#2b2a29" stroke="#6ccb5f" stroke-width="1"/><circle cx="135.7" cy="293.0" r="6" fill="#6ccb5f"/><path d="M133.0 293.0 l1.9 1.9 l3.4 -3.9" fill="none" stroke="#1b1a19" stroke-width="1.4" stroke-linecap="round" stroke-linejoin="round"/><text x="144.7" y="296.57" font-size="10.5" fill="#d2d0ce">Healthy</text><line x1="1.0" y1="313.0" x2="196.0" y2="313.0" stroke="#3b3a39"/><circle cx="16.0" cy="328.0" r="6" fill="#6ccb5f"/><path d="M13.3 328.0 l1.9 1.9 l3.4 -3.9" fill="none" stroke="#1b1a19" stroke-width="1.4" stroke-linecap="round" stroke-linejoin="round"/><g transform="translate(32.0,321.0) scale(0.875)"><rect x="1.5" y="8" width="2.6" height="6" rx="0.6" fill="#a58fd8"/><rect x="5.7" y="4.5" width="2.6" height="9.5" rx="0.6" fill="#4ba3e3"/><rect x="9.9" y="6.5" width="2.6" height="7.5" rx="0.6" fill="#57c3bf"/></g><text x="52.0" y="331.5" font-size="10.5" fill="#f3f2f1">Availability</text><text x="185.0" y="331.5" font-size="10.5" font-weight="400" fill="#a19f9d" text-anchor="end">0</text><line x1="10.0" y1="337.0" x2="187.0" y2="337.0" stroke="#3b3a39" stroke-opacity="0.7"/><circle cx="16.0" cy="346.0" r="6" fill="#6ccb5f"/><path d="M13.3 346.0 l1.9 1.9 l3.4 -3.9" fill="none" stroke="#1b1a19" stroke-width="1.4" stroke-linecap="round" stroke-linejoin="round"/><g transform="translate(32.0,339.0) scale(0.875)"><rect x="1.5" y="8" width="2.6" height="6" rx="0.6" fill="#a58fd8"/><rect x="5.7" y="4.5" width="2.6" height="9.5" rx="0.6" fill="#4ba3e3"/><rect x="9.9" y="6.5" width="2.6" height="7.5" rx="0.6" fill="#57c3bf"/></g><text x="52.0" y="349.5" font-size="10.5" fill="#f3f2f1">P95 latency</text><text x="185.0" y="349.5" font-size="10.5" font-weight="400" fill="#a19f9d" text-anchor="end">2</text>
<g filter="url(#cs)"><rect x="227.0" y="276.0" width="195" height="85" rx="10" fill="#331d1f" stroke="#f1707b" stroke-width="2"/></g><g transform="translate(233.0,283.16) scale(0.82)"><path d="M13 2.5 5.5 13.5H11l-1 8 8.5-12H12z" fill="none" stroke="#a19f9d" stroke-width="1.6" stroke-linecap="round" stroke-linejoin="round"/></g><text x="261.0" y="296.5" font-size="12.5" font-weight="600" fill="#f3f2f1">API service</text><rect x="337.8" y="284.00" width="76.2" height="18" rx="9" fill="#2b2a29" stroke="#f1707b" stroke-width="1"/><circle cx="348.8" cy="293.0" r="6" fill="#f1707b"/><text x="357.8" y="296.57" font-size="10.5" fill="#d2d0ce">Unhealthy</text><line x1="228.0" y1="313.0" x2="421.0" y2="313.0" stroke="#3b3a39"/><circle cx="243.0" cy="328.0" r="6" fill="#f1707b"/><g transform="translate(259.0,321.0) scale(0.875)"><rect x="1.5" y="8" width="2.6" height="6" rx="0.6" fill="#a58fd8"/><rect x="5.7" y="4.5" width="2.6" height="9.5" rx="0.6" fill="#4ba3e3"/><rect x="9.9" y="6.5" width="2.6" height="7.5" rx="0.6" fill="#57c3bf"/></g><text x="279.0" y="331.5" font-size="10.5" fill="#f3f2f1">Error rate</text><text x="410.0" y="331.5" font-size="10.5" font-weight="600" fill="#f1707b" text-anchor="end">70</text><line x1="237.0" y1="337.0" x2="412.0" y2="337.0" stroke="#3b3a39" stroke-opacity="0.7"/><circle cx="243.0" cy="346.0" r="6" fill="#6ccb5f"/><path d="M240.3 346.0 l1.9 1.9 l3.4 -3.9" fill="none" stroke="#1b1a19" stroke-width="1.4" stroke-linecap="round" stroke-linejoin="round"/><g transform="translate(259.0,339.0) scale(0.875)"><rect x="1.5" y="8" width="2.6" height="6" rx="0.6" fill="#a58fd8"/><rect x="5.7" y="4.5" width="2.6" height="9.5" rx="0.6" fill="#4ba3e3"/><rect x="9.9" y="6.5" width="2.6" height="7.5" rx="0.6" fill="#57c3bf"/></g><text x="279.0" y="349.5" font-size="10.5" fill="#f3f2f1">Request rate</text><text x="410.0" y="349.5" font-size="10.5" font-weight="400" fill="#a19f9d" text-anchor="end">2</text>
<g filter="url(#cs)"><rect x="104.5" y="186.0" width="214" height="58" rx="10" fill="#331d1f" stroke="#f1707b" stroke-width="2"/></g><g transform="translate(110.5,205.16) scale(0.82)"><circle cx="5.5" cy="6" r="2" fill="none" stroke="#a19f9d" stroke-width="1.6" stroke-linecap="round" stroke-linejoin="round"/><circle cx="5.5" cy="18" r="2" fill="none" stroke="#a19f9d" stroke-width="1.6" stroke-linecap="round" stroke-linejoin="round"/><circle cx="18.5" cy="12" r="2" fill="none" stroke="#a19f9d" stroke-width="1.6" stroke-linecap="round" stroke-linejoin="round"/><path d="M7.5 6h3a4 4 0 0 1 4 4M7.5 18h3a4 4 0 0 0 4-4" fill="none" stroke="#a19f9d" stroke-width="1.6" stroke-linecap="round" stroke-linejoin="round"/></g><text x="138.5" y="218.5" font-size="12.5" font-weight="600" fill="#f3f2f1">Checkout flow</text><rect x="234.3" y="206.00" width="76.2" height="18" rx="9" fill="#2b2a29" stroke="#f1707b" stroke-width="1"/><circle cx="245.3" cy="215.0" r="6" fill="#f1707b"/><text x="254.3" y="218.57" font-size="10.5" fill="#d2d0ce">Unhealthy</text>
<g filter="url(#cs)"><rect x="105.0" y="96.0" width="213" height="58" rx="10" fill="#331d1f" stroke="#f1707b" stroke-width="2"/></g><g transform="translate(111.0,115.16) scale(0.82)"><circle cx="12" cy="12" r="8.4" fill="none" stroke="#a19f9d" stroke-width="1.6" stroke-linecap="round" stroke-linejoin="round"/><path d="M4.2 12h3l2-3.6 2.8 7.2 1.8-3.6h4" fill="none" stroke="#a19f9d" stroke-width="1.6" stroke-linecap="round" stroke-linejoin="round"/></g><text x="139.0" y="128.5" font-size="12.5" font-weight="600" fill="#f3f2f1">Workload root</text><rect x="233.8" y="116.00" width="76.2" height="18" rx="9" fill="#2b2a29" stroke="#f1707b" stroke-width="1"/><circle cx="244.8" cy="125.0" r="6" fill="#f1707b"/><text x="253.8" y="128.57" font-size="10.5" fill="#d2d0ce">Unhealthy</text>
</g></svg>