<svg xmlns="http://www.w3.org/2000/svg" width="819" height="321" viewBox="0 0 819 321" font-family="Segoe UI, -apple-system, BlinkMacSystemFont, Helvetica, Arial, sans-serif">
<defs><filter id="cs" x="-20%" y="-20%" width="140%" height="140%"><feDropShadow dx="0" dy="1" stdDeviation="1.3" flood-color="#000" flood-opacity="0.1"/></filter></defs>
<rect width="819" height="321" fill="#ffffff"/>
<rect x="0" y="78.0" width="819" height="90.0" fill="#ffffff"/>
<line x1="0" y1="78.0" x2="819" y2="78.0" stroke="#e6e4e2"/>
<text x="674.8" y="127.5" font-size="13" font-weight="700" fill="#323130">Workload root</text>
<rect x="0" y="168.0" width="819" height="135.0" fill="#faf9f8"/>
<line x1="0" y1="168.0" x2="819" y2="168.0" stroke="#e6e4e2"/>
<text x="674.8" y="231.5" font-size="13" font-weight="700" fill="#323130">Application</text>
<text x="674.8" y="248.5" font-size="13" font-weight="700" fill="#323130">components</text>
<line x1="0" y1="320.5" x2="819" y2="320.5" stroke="#e6e4e2"/>
<text x="40" y="34" font-size="18" font-weight="700" fill="#242424">5. Signal-row values and row states</text>
<text x="40" y="52" font-size="12" fill="#605e5c">Signals live inside each entity; health rolls up to the workload root.</text>
<text x="415.9" y="48" font-size="11.5" font-weight="600" fill="#605e5c" text-anchor="end">Legend</text>
<circle cx="433.9" cy="44" r="4.5" fill="#4c9a2a"/>
<text x="443.9" y="48" font-size="11.5" fill="#323130">Healthy</text>
<circle cx="499.7" cy="44" r="4.5" fill="#c26a00"/>
<text x="509.7" y="48" font-size="11.5" fill="#323130">Degraded</text>
<circle cx="577.2" cy="44" r="4.5" fill="#c50f18"/>
<text x="587.2" y="48" font-size="11.5" fill="#323130">Unhealthy</text>
<circle cx="656.0" cy="44" r="4.5" fill="#8a8886"/>
<text x="666.0" y="48" font-size="11.5" fill="#323130">Unknown</text>
<g transform="translate(724.9,37.0) scale(0.875)"><rect x="1.5" y="8" width="2.6" height="6" rx="0.6" fill="#8661c5"/><rect x="5.7" y="4.5" width="2.6" height="9.5" rx="0.6" fill="#0078D4"/><rect x="9.9" y="6.5" width="2.6" height="7.5" rx="0.6" fill="#3fb0ac"/></g>
<text x="742.9" y="48" font-size="11.5" fill="#323130">Metric</text>
<g transform="translate(40.0,0)">
<g fill="none" stroke-linecap="butt" stroke-linejoin="round">
<path d="M104.0 186.0 L104.0 154.0" stroke="#db7500" stroke-width="1.7"/>
</g>
<g filter="url(#cs)"><rect x="0.0" y="186.0" width="208" height="103" rx="10" fill="#fbf2e7" stroke="#db7500" stroke-width="2"/></g><g transform="translate(6.0,193.16) scale(0.82)"><path d="M13 2.5 5.5 13.5H11l-1 8 8.5-12H12z" fill="none" stroke="#605e5c" stroke-width="1.6" stroke-linecap="round" stroke-linejoin="round"/></g><text x="34.0" y="206.5" font-size="12.5" font-weight="600" fill="#242424">Checkout API</text><rect x="125.0" y="194.00" width="75.0" height="18" rx="9" fill="#ffffff" stroke="#db7500" stroke-width="1"/><circle cx="136.0" cy="203.0" r="6" fill="#c26a00"/><text x="145.0" y="206.57" font-size="10.5" fill="#323130">Degraded</text><line x1="1.0" y1="223.0" x2="207.0" y2="223.0" stroke="#e6e4e2"/><circle cx="16.0" cy="238.0" r="6" fill="#4c9a2a"/><path d="M13.3 238.0 l1.9 1.9 l3.4 -3.9" fill="none" stroke="#ffffff" stroke-width="1.4" stroke-linecap="round" stroke-linejoin="round"/><g transform="translate(32.0,231.0) scale(0.875)"><rect x="1.5" y="8" width="2.6" height="6" rx="0.6" fill="#8661c5"/><rect x="5.7" y="4.5" width="2.6" height="9.5" rx="0.6" fill="#0078D4"/><rect x="9.9" y="6.5" width="2.6" height="7.5" rx="0.6" fill="#3fb0ac"/></g><text x="52.0" y="241.5" font-size="10.5" fill="#242424">Availability</text><text x="196.0" y="241.5" font-size="10.5" font-weight="400" fill="#605e5c" text-anchor="end">99.98%</text><line x1="10.0" y1="247.0" x2="198.0" y2="247.0" stroke="#e6e4e2" stroke-opacity="0.7"/><circle cx="16.0" cy="256.0" r="6" fill="#c50f18"/><g transform="translate(32.0,249.0) scale(0.875)"><rect x="1.5" y="8" width="2.6" height="6" rx="0.6" fill="#8661c5"/><rect x="5.7" y="4.5" width="2.6" height="9.5" rx="0.6" fill="#0078D4"/><rect x="9.9" y="6.5" width="2.6" height="7.5" rx="0.6" fill="#3fb0ac"/></g><text x="52.0" y="259.5" font-size="10.5" fill="#242424">Error rate</text><text x="196.0" y="259.5" font-size="10.5" font-weight="600" fill="#c50f18" text-anchor="end">3.1%</text><line x1="10.0" y1="265.0" x2="198.0" y2="265.0" stroke="#e6e4e2" stroke-opacity="0.7"/><circle cx="16.0" cy="274.0" r="6" fill="#c26a00"/><g transform="translate(32.0,267.0) scale(0.875)"><rect x="1.5" y="8" width="2.6" height="6" rx="0.6" fill="#8661c5"/><rect x="5.7" y="4.5" width="2.6" height="9.5" rx="0.6" fill="#0078D4"/><rect x="9.9" y="6.5" width="2.6" height="7.5" rx="0.6" fill="#3fb0ac"/></g><text x="52.0" y="277.5" font-size="10.5" fill="#242424">Latency p95</text><text x="196.0" y="277.5" font-size="10.5" font-weight="600" fill="#c26a00" text-anchor="end">240 ms</text>
<g filter="url(#cs)"><rect x="10.5" y="96.0" width="187" height="58" rx="10" fill="#fbf2e7" stroke="#db7500" stroke-width="2"/></g><g transform="translate(16.5,115.16) scale(0.82)"><ellipse cx="12" cy="6" rx="7" ry="2.8" fill="none" stroke="#605e5c" stroke-width="1.6" stroke-linecap="round" stroke-linejoin="round"/><path d="M5 6v12c0 1.55 3.13 2.8 7 2.8s7-1.25 7-2.8V6" fill="none" stroke="#605e5c" stroke-width="1.6" stroke-linecap="round" stroke-linejoin="round"/><path d="M5 12c0 1.55 3.13 2.8 7 2.8s7-1.25 7-2.8" fill="none" stroke="#605e5c" stroke-width="1.6" stroke-linecap="round" stroke-linejoin="round"/></g><text x="44.5" y="128.5" font-size="12.5" font-weight="600" fill="#242424">Storefront</text><rect x="114.5" y="116.00" width="75.0" height="18" rx="9" fill="#ffffff" stroke="#db7500" stroke-width="1"/><circle cx="125.5" cy="125.0" r="6" fill="#c26a00"/><text x="134.5" y="128.57" font-size="10.5" fill="#323130">Degraded</text>
</g></svg>