<svg xmlns="http://www.w3.org/2000/svg" width="1428" height="530" viewBox="0 0 1428 530" font-family="Segoe UI, -apple-system, BlinkMacSystemFont, Helvetica, Arial, sans-serif">
<defs><filter id="cs" x="-20%" y="-20%" width="140%" height="140%"><feDropShadow dx="0" dy="1" stdDeviation="1.3" flood-color="#000" flood-opacity="0.1"/></filter></defs>
<rect width="1428" height="530" fill="#ffffff"/>
<rect x="0" y="78.0" width="1428" height="114.0" fill="#ffffff"/>
<line x1="0" y1="78.0" x2="1428" y2="78.0" stroke="#e6e4e2"/>
<text x="1262.0" y="139.5" font-size="13" font-weight="700" fill="#323130">Workload root</text>
<rect x="0" y="192.0" width="1428" height="185.0" fill="#faf9f8"/>
<line x1="0" y1="192.0" x2="1428" y2="192.0" stroke="#e6e4e2"/>
<text x="1262.0" y="289.0" font-size="13" font-weight="700" fill="#323130">Business &amp; user flows</text>
<rect x="0" y="377.0" width="1428" height="135.0" fill="#ffffff"/>
<line x1="0" y1="377.0" x2="1428" y2="377.0" stroke="#e6e4e2"/>
<text x="1262.0" y="440.5" font-size="13" font-weight="700" fill="#323130">Application</text>
<text x="1262.0" y="457.5" font-size="13" font-weight="700" fill="#323130">components</text>
<line x1="0" y1="529.5" x2="1428" y2="529.5" stroke="#e6e4e2"/>
<text x="40" y="34" font-size="18" font-weight="700" fill="#242424">Notification delivery platform health</text>
<text x="40" y="52" font-size="12" fill="#605e5c">Signals live inside each entity; health rolls up to the workload root.</text>
<text x="1024.6" y="48" font-size="11.5" font-weight="600" fill="#605e5c" text-anchor="end">Legend</text>
<circle cx="1042.6" cy="44" r="4.5" fill="#4c9a2a"/>
<text x="1052.6" y="48" font-size="11.5" fill="#323130">Healthy</text>
<circle cx="1108.3" cy="44" r="4.5" fill="#c26a00"/>
<text x="1118.3" y="48" font-size="11.5" fill="#323130">Degraded</text>
<circle cx="1185.9" cy="44" r="4.5" fill="#c50f18"/>
<text x="1195.9" y="48" font-size="11.5" fill="#323130">Unhealthy</text>
<circle cx="1264.7" cy="44" r="4.5" fill="#8a8886"/>
<text x="1274.7" y="48" font-size="11.5" fill="#323130">Unknown</text>
<g transform="translate(1333.6,37.0) scale(0.875)"><rect x="1.5" y="8" width="2.6" height="6" rx="0.6" fill="#8661c5"/><rect x="5.7" y="4.5" width="2.6" height="9.5" rx="0.6" fill="#0078D4"/><rect x="9.9" y="6.5" width="2.6" height="7.5" rx="0.6" fill="#3fb0ac"/></g>
<text x="1351.6" y="48" font-size="11.5" fill="#323130">Metric</text>
<g transform="translate(40.0,0)">
<g fill="none" stroke-linecap="butt" stroke-linejoin="round">
<path d="M100.0 395.0 L100.0 322.0 Q100.0 315.0 107.0 315.0 L460.7 315.0 Q467.7 315.0 467.7 308.0 L467.7 268.0" stroke="#a0d8a0" stroke-width="1.7"/>
<path d="M336.5 395.0 L336.5 326.0 Q336.5 319.0 343.5 319.0 L470.7 319.0 Q477.7 319.0 477.7 312.0 L477.7 268.0" stroke="#db7500" stroke-width="1.7"/>
<path d="M567.2 395.0 L567.2 268.0" stroke="#ba0d16" stroke-width="1.7"/>
<path d="M1070.5 395.0 L1070.5 322.0 Q1070.5 315.0 1063.5 315.0 L957.7 315.0 Q950.7 315.0 950.7 308.0 L950.7 268.0" stroke="#c8c6c4" stroke-width="1.7"/>
<path d="M319.2 210.0 L319.2 181.0 Q319.2 174.0 326.2 174.0 L446.2 174.0 Q453.2 174.0 453.2 167.0 L453.2 154.0" stroke="#8661c5" stroke-width="1.7"/>
<path d="M837.7 210.0 L837.7 181.0 Q837.7 174.0 830.7 174.0 L707.2 174.0 Q700.2 174.0 700.2 167.0 L700.2 154.0" stroke="#c8c6c4" stroke-width="1.7"/>
<path d="M574.7 210.0 L574.7 154.0" stroke="#db7500" stroke-width="1.7"/>
<path d="M824.0 395.0 L824.0 354.0 Q824.0 347.0 817.0 347.0 L675.7 347.0 Q668.7 347.0 668.7 340.0 L668.7 268.0" stroke="#a0d8a0" stroke-width="1.6" stroke-dasharray="5 4"/>
</g>
<g stroke="none"><rect x="750.3" y="330.5" width="147.4" height="33" rx="10" fill="#ffffff" stroke="#d8d6d4" stroke-width="1"/><text x="824.0" y="344.1" font-size="10.5" font-weight="600" fill="#242424" text-anchor="middle">cached templates limited</text><text x="824.0" y="357.1" font-size="10.5" font-weight="600" fill="#242424" text-anchor="middle">propagation</text></g>
<g filter="url(#cs)"><rect x="0.0" y="395.0" width="200" height="103" rx="10" fill="#f2f8f2" stroke="#a0d8a0" stroke-width="2"/></g><g transform="translate(6.0,402.16) scale(0.82)"><circle cx="5.5" cy="6" r="2" fill="none" stroke="#605e5c" stroke-width="1.6" stroke-linecap="round" stroke-linejoin="round"/><circle cx="5.5" cy="18" r="2" fill="none" stroke="#605e5c" stroke-width="1.6" stroke-linecap="round" stroke-linejoin="round"/><circle cx="18.5" cy="12" r="2" fill="none" stroke="#605e5c" stroke-width="1.6" stroke-linecap="round" stroke-linejoin="round"/><path d="M7.5 6h3a4 4 0 0 1 4 4M7.5 18h3a4 4 0 0 0 4-4" fill="none" stroke="#605e5c" stroke-width="1.6" stroke-linecap="round" stroke-linejoin="round"/></g><text x="34.0" y="415.5" font-size="12.5" font-weight="600" fill="#242424">Push gateway</text><rect x="127.7" y="403.00" width="64.3" height="18" rx="9" fill="#ffffff" stroke="#a0d8a0" stroke-width="1"/><circle cx="138.7" cy="412.0" r="6" fill="#4c9a2a"/><path d="M136.0 412.0 l1.9 1.9 l3.4 -3.9" fill="none" stroke="#ffffff" stroke-width="1.4" stroke-linecap="round" stroke-linejoin="round"/><text x="147.7" y="415.57" font-size="10.5" fill="#323130">Healthy</text><line x1="1.0" y1="432.0" x2="199.0" y2="432.0" stroke="#e6e4e2"/><circle cx="16.0" cy="447.0" r="6" fill="#4c9a2a"/><path d="M13.3 447.0 l1.9 1.9 l3.4 -3.9" fill="none" stroke="#ffffff" stroke-width="1.4" stroke-linecap="round" stroke-linejoin="round"/><g transform="translate(32.0,440.0) scale(0.875)"><rect x="1.5" y="8" width="2.6" height="6" rx="0.6" fill="#8661c5"/><rect x="5.7" y="4.5" width="2.6" height="9.5" rx="0.6" fill="#0078D4"/><rect x="9.9" y="6.5" width="2.6" height="7.5" rx="0.6" fill="#3fb0ac"/></g><text x="52.0" y="450.5" font-size="10.5" fill="#242424">Push token errors</text><text x="188.0" y="450.5" font-size="10.5" font-weight="400" fill="#605e5c" text-anchor="end">2</text><line x1="10.0" y1="456.0" x2="190.0" y2="456.0" stroke="#e6e4e2" stroke-opacity="0.7"/><circle cx="16.0" cy="465.0" r="6" fill="#4c9a2a"/><path d="M13.3 465.0 l1.9 1.9 l3.4 -3.9" fill="none" stroke="#ffffff" stroke-width="1.4" stroke-linecap="round" stroke-linejoin="round"/><g transform="translate(32.0,458.0) scale(0.875)"><rect x="1.5" y="8" width="2.6" height="6" rx="0.6" fill="#8661c5"/><rect x="5.7" y="4.5" width="2.6" height="9.5" rx="0.6" fill="#0078D4"/><rect x="9.9" y="6.5" width="2.6" height="7.5" rx="0.6" fill="#3fb0ac"/></g><text x="52.0" y="468.5" font-size="10.5" fill="#242424">Delivery latency</text><text x="188.0" y="468.5" font-size="10.5" font-weight="400" fill="#605e5c" text-anchor="end">1</text><line x1="10.0" y1="474.0" x2="190.0" y2="474.0" stroke="#e6e4e2" stroke-opacity="0.7"/><circle cx="16.0" cy="483.0" r="6" fill="#4c9a2a"/><path d="M13.3 483.0 l1.9 1.9 l3.4 -3.9" fill="none" stroke="#ffffff" stroke-width="1.4" stroke-linecap="round" stroke-linejoin="round"/><g transform="translate(32.0,476.0) scale(0.875)"><rect x="1.5" y="8" width="2.6" height="6" rx="0.6" fill="#8661c5"/><rect x="5.7" y="4.5" width="2.6" height="9.5" rx="0.6" fill="#0078D4"/><rect x="9.9" y="6.5" width="2.6" height="7.5" rx="0.6" fill="#3fb0ac"/></g><text x="52.0" y="486.5" font-size="10.5" fill="#242424">Throttled sends</text><text x="188.0" y="486.5" font-size="10.5" font-weight="400" fill="#605e5c" text-anchor="end">0</text>
<g filter="url(#cs)"><rect x="230.0" y="395.0" width="213" height="103" rx="10" fill="#fbf2e7" stroke="#db7500" stroke-width="2"/></g><g transform="translate(236.0,402.16) scale(0.82)"><circle cx="5.5" cy="6" r="2" fill="none" stroke="#605e5c" stroke-width="1.6" stroke-linecap="round" stroke-linejoin="round"/><circle cx="5.5" cy="18" r="2" fill="none" stroke="#605e5c" stroke-width="1.6" stroke-linecap="round" stroke-linejoin="round"/><circle cx="18.5" cy="12" r="2" fill="none" stroke="#605e5c" stroke-width="1.6" stroke-linecap="round" stroke-linejoin="round"/><path d="M7.5 6h3a4 4 0 0 1 4 4M7.5 18h3a4 4 0 0 0 4-4" fill="none" stroke="#605e5c" stroke-width="1.6" stroke-linecap="round" stroke-linejoin="round"/></g><text x="264.0" y="415.5" font-size="12.5" font-weight="600" fill="#242424">Email gateway</text><rect x="360.0" y="403.00" width="75.0" height="18" rx="9" fill="#ffffff" stroke="#db7500" stroke-width="1"/><circle cx="371.0" cy="412.0" r="6" fill="#c26a00"/><text x="380.0" y="415.57" font-size="10.5" fill="#323130">Degraded</text><line x1="231.0" y1="432.0" x2="442.0" y2="432.0" stroke="#e6e4e2"/><circle cx="246.0" cy="447.0" r="6" fill="#c26a00"/><g transform="translate(262.0,440.0) scale(0.875)"><rect x="1.5" y="8" width="2.6" height="6" rx="0.6" fill="#8661c5"/><rect x="5.7" y="4.5" width="2.6" height="9.5" rx="0.6" fill="#0078D4"/><rect x="9.9" y="6.5" width="2.6" height="7.5" rx="0.6" fill="#3fb0ac"/></g><text x="282.0" y="450.5" font-size="10.5" fill="#242424">Bounce rate</text><text x="431.0" y="450.5" font-size="10.5" font-weight="600" fill="#c26a00" text-anchor="end">18</text><line x1="240.0" y1="456.0" x2="433.0" y2="456.0" stroke="#e6e4e2" stroke-opacity="0.7"/><circle cx="246.0" cy="465.0" r="6" fill="#4c9a2a"/><path d="M243.3 465.0 l1.9 1.9 l3.4 -3.9" fill="none" stroke="#ffffff" stroke-width="1.4" stroke-linecap="round" stroke-linejoin="round"/><g transform="translate(262.0,458.0) scale(0.875)"><rect x="1.5" y="8" width="2.6" height="6" rx="0.6" fill="#8661c5"/><rect x="5.7" y="4.5" width="2.6" height="9.5" rx="0.6" fill="#0078D4"/><rect x="9.9" y="6.5" width="2.6" height="7.5" rx="0.6" fill="#3fb0ac"/></g><text x="282.0" y="468.5" font-size="10.5" fill="#242424">Send latency</text><text x="431.0" y="468.5" font-size="10.5" font-weight="400" fill="#605e5c" text-anchor="end">0</text><line x1="240.0" y1="474.0" x2="433.0" y2="474.0" stroke="#e6e4e2" stroke-opacity="0.7"/><circle cx="246.0" cy="483.0" r="6" fill="#4c9a2a"/><path d="M243.3 483.0 l1.9 1.9 l3.4 -3.9" fill="none" stroke="#ffffff" stroke-width="1.4" stroke-linecap="round" stroke-linejoin="round"/><g transform="translate(262.0,476.0) scale(0.875)"><rect x="1.5" y="8" width="2.6" height="6" rx="0.6" fill="#8661c5"/><rect x="5.7" y="4.5" width="2.6" height="9.5" rx="0.6" fill="#0078D4"/><rect x="9.9" y="6.5" width="2.6" height="7.5" rx="0.6" fill="#3fb0ac"/></g><text x="282.0" y="486.5" font-size="10.5" fill="#242424">Bulk queue depth</text><text x="431.0" y="486.5" font-size="10.5" font-weight="400" fill="#605e5c" text-anchor="end">0</text>
<g filter="url(#cs)"><rect x="473.0" y="395.0" width="208" height="103" rx="10" fill="#faeceb" stroke="#ba0d16" stroke-width="2"/></g><g transform="translate(479.0,402.16) scale(0.82)"><circle cx="5.5" cy="6" r="2" fill="none" stroke="#605e5c" stroke-width="1.6" stroke-linecap="round" stroke-linejoin="round"/><circle cx="5.5" cy="18" r="2" fill="none" stroke="#605e5c" stroke-width="1.6" stroke-linecap="round" stroke-linejoin="round"/><circle cx="18.5" cy="12" r="2" fill="none" stroke="#605e5c" stroke-width="1.6" stroke-linecap="round" stroke-linejoin="round"/><path d="M7.5 6h3a4 4 0 0 1 4 4M7.5 18h3a4 4 0 0 0 4-4" fill="none" stroke="#605e5c" stroke-width="1.6" stroke-linecap="round" stroke-linejoin="round"/></g><text x="507.0" y="415.5" font-size="12.5" font-weight="600" fill="#242424">SMS gateway</text><rect x="596.8" y="403.00" width="76.2" height="18" rx="9" fill="#ffffff" stroke="#ba0d16" stroke-width="1"/><circle cx="607.8" cy="412.0" r="6" fill="#c50f18"/><text x="616.8" y="415.57" font-size="10.5" fill="#323130">Unhealthy</text><line x1="474.0" y1="432.0" x2="680.0" y2="432.0" stroke="#e6e4e2"/><circle cx="489.0" cy="447.0" r="6" fill="#c50f18"/><g transform="translate(505.0,440.0) scale(0.875)"><rect x="1.5" y="8" width="2.6" height="6" rx="0.6" fill="#8661c5"/><rect x="5.7" y="4.5" width="2.6" height="9.5" rx="0.6" fill="#0078D4"/><rect x="9.9" y="6.5" width="2.6" height="7.5" rx="0.6" fill="#3fb0ac"/></g><text x="525.0" y="450.5" font-size="10.5" fill="#242424">Carrier NACK rate</text><text x="669.0" y="450.5" font-size="10.5" font-weight="600" fill="#c50f18" text-anchor="end">105</text><line x1="483.0" y1="456.0" x2="671.0" y2="456.0" stroke="#e6e4e2" stroke-opacity="0.7"/><circle cx="489.0" cy="465.0" r="6" fill="#4c9a2a"/><path d="M486.3 465.0 l1.9 1.9 l3.4 -3.9" fill="none" stroke="#ffffff" stroke-width="1.4" stroke-linecap="round" stroke-linejoin="round"/><g transform="translate(505.0,458.0) scale(0.875)"><rect x="1.5" y="8" width="2.6" height="6" rx="0.6" fill="#8661c5"/><rect x="5.7" y="4.5" width="2.6" height="9.5" rx="0.6" fill="#0078D4"/><rect x="9.9" y="6.5" width="2.6" height="7.5" rx="0.6" fill="#3fb0ac"/></g><text x="525.0" y="468.5" font-size="10.5" fill="#242424">Send latency</text><text x="669.0" y="468.5" font-size="10.5" font-weight="400" fill="#605e5c" text-anchor="end">0</text><line x1="483.0" y1="474.0" x2="671.0" y2="474.0" stroke="#e6e4e2" stroke-opacity="0.7"/><circle cx="489.0" cy="483.0" r="6" fill="#4c9a2a"/><path d="M486.3 483.0 l1.9 1.9 l3.4 -3.9" fill="none" stroke="#ffffff" stroke-width="1.4" stroke-linecap="round" stroke-linejoin="round"/><g transform="translate(505.0,476.0) scale(0.875)"><rect x="1.5" y="8" width="2.6" height="6" rx="0.6" fill="#8661c5"/><rect x="5.7" y="4.5" width="2.6" height="9.5" rx="0.6" fill="#0078D4"/><rect x="9.9" y="6.5" width="2.6" height="7.5" rx="0.6" fill="#3fb0ac"/></g><text x="525.0" y="486.5" font-size="10.5" fill="#242424">Balance remaining</text><text x="669.0" y="486.5" font-size="10.5" font-weight="400" fill="#605e5c" text-anchor="end">0</text>
<g filter="url(#cs)"><rect x="711.0" y="395.0" width="226" height="103" rx="10" fill="#f2f8f2" stroke="#a0d8a0" stroke-width="2"/></g><g transform="translate(717.0,402.16) scale(0.82)"><path d="M12 3.2l7.6 4.4v8.8L12 20.8l-7.6-4.4V7.6z" fill="none" stroke="#605e5c" stroke-width="1.6" stroke-linecap="round" stroke-linejoin="round"/><path d="M4.6 7.8l7.4 4.3 7.4-4.3M12 12.1v8.6" fill="none" stroke="#605e5c" stroke-width="1.6" stroke-linecap="round" stroke-linejoin="round"/></g><text x="745.0" y="415.5" font-size="12.5" font-weight="600" fill="#242424">Template renderer</text><rect x="864.7" y="403.00" width="64.3" height="18" rx="9" fill="#ffffff" stroke="#a0d8a0" stroke-width="1"/><circle cx="875.7" cy="412.0" r="6" fill="#4c9a2a"/><path d="M873.0 412.0 l1.9 1.9 l3.4 -3.9" fill="none" stroke="#ffffff" stroke-width="1.4" stroke-linecap="round" stroke-linejoin="round"/><text x="884.7" y="415.57" font-size="10.5" fill="#323130">Healthy</text><line x1="712.0" y1="432.0" x2="936.0" y2="432.0" stroke="#e6e4e2"/><circle cx="727.0" cy="447.0" r="6" fill="#4c9a2a"/><path d="M724.3 447.0 l1.9 1.9 l3.4 -3.9" fill="none" stroke="#ffffff" stroke-width="1.4" stroke-linecap="round" stroke-linejoin="round"/><g transform="translate(743.0,440.0) scale(0.875)"><rect x="1.5" y="8" width="2.6" height="6" rx="0.6" fill="#8661c5"/><rect x="5.7" y="4.5" width="2.6" height="9.5" rx="0.6" fill="#0078D4"/><rect x="9.9" y="6.5" width="2.6" height="7.5" rx="0.6" fill="#3fb0ac"/></g><text x="763.0" y="450.5" font-size="10.5" fill="#242424">Render errors</text><text x="925.0" y="450.5" font-size="10.5" font-weight="400" fill="#605e5c" text-anchor="end">1</text><line x1="721.0" y1="456.0" x2="927.0" y2="456.0" stroke="#e6e4e2" stroke-opacity="0.7"/><circle cx="727.0" cy="465.0" r="6" fill="#4c9a2a"/><path d="M724.3 465.0 l1.9 1.9 l3.4 -3.9" fill="none" stroke="#ffffff" stroke-width="1.4" stroke-linecap="round" stroke-linejoin="round"/><g transform="translate(743.0,458.0) scale(0.875)"><rect x="1.5" y="8" width="2.6" height="6" rx="0.6" fill="#8661c5"/><rect x="5.7" y="4.5" width="2.6" height="9.5" rx="0.6" fill="#0078D4"/><rect x="9.9" y="6.5" width="2.6" height="7.5" rx="0.6" fill="#3fb0ac"/></g><text x="763.0" y="468.5" font-size="10.5" fill="#242424">Render latency</text><text x="925.0" y="468.5" font-size="10.5" font-weight="400" fill="#605e5c" text-anchor="end">1</text><line x1="721.0" y1="474.0" x2="927.0" y2="474.0" stroke="#e6e4e2" stroke-opacity="0.7"/><circle cx="727.0" cy="483.0" r="6" fill="#4c9a2a"/><path d="M724.3 483.0 l1.9 1.9 l3.4 -3.9" fill="none" stroke="#ffffff" stroke-width="1.4" stroke-linecap="round" stroke-linejoin="round"/><g transform="translate(743.0,476.0) scale(0.875)"><rect x="1.5" y="8" width="2.6" height="6" rx="0.6" fill="#8661c5"/><rect x="5.7" y="4.5" width="2.6" height="9.5" rx="0.6" fill="#0078D4"/><rect x="9.9" y="6.5" width="2.6" height="7.5" rx="0.6" fill="#3fb0ac"/></g><text x="763.0" y="486.5" font-size="10.5" fill="#242424">Cache hit ratio</text><text x="925.0" y="486.5" font-size="10.5" font-weight="400" fill="#605e5c" text-anchor="end">0</text>
<g filter="url(#cs)"><rect x="967.0" y="395.0" width="207" height="85" rx="10" fill="#f6f6f5" stroke="#c8c6c4" stroke-width="2" stroke-dasharray="4 3"/></g><g transform="translate(973.0,402.16) scale(0.82)"><path d="M12 3.2l7.6 4.4v8.8L12 20.8l-7.6-4.4V7.6z" fill="none" stroke="#605e5c" stroke-width="1.6" stroke-linecap="round" stroke-linejoin="round"/><path d="M4.6 7.8l7.4 4.3 7.4-4.3M12 12.1v8.6" fill="none" stroke="#605e5c" stroke-width="1.6" stroke-linecap="round" stroke-linejoin="round"/></g><text x="1001.0" y="415.5" font-size="12.5" font-weight="600" fill="#242424">Quota service</text><rect x="1093.4" y="403.00" width="72.6" height="18" rx="9" fill="#ffffff" stroke="#c8c6c4" stroke-width="1"/><circle cx="1104.4" cy="412.0" r="6" fill="#8a8886"/><text x="1113.4" y="415.57" font-size="10.5" fill="#323130">Unknown</text><line x1="968.0" y1="432.0" x2="1173.0" y2="432.0" stroke="#e6e4e2"/><circle cx="983.0" cy="447.0" r="6" fill="#4c9a2a"/><path d="M980.3 447.0 l1.9 1.9 l3.4 -3.9" fill="none" stroke="#ffffff" stroke-width="1.4" stroke-linecap="round" stroke-linejoin="round"/><g transform="translate(999.0,440.0) scale(0.875)"><rect x="1.5" y="8" width="2.6" height="6" rx="0.6" fill="#8661c5"/><rect x="5.7" y="4.5" width="2.6" height="9.5" rx="0.6" fill="#0078D4"/><rect x="9.9" y="6.5" width="2.6" height="7.5" rx="0.6" fill="#3fb0ac"/></g><text x="1019.0" y="450.5" font-size="10.5" fill="#242424">Rate-limit hits</text><text x="1162.0" y="450.5" font-size="10.5" font-weight="400" fill="#605e5c" text-anchor="end">0</text><line x1="977.0" y1="456.0" x2="1164.0" y2="456.0" stroke="#e6e4e2" stroke-opacity="0.7"/><circle cx="983.0" cy="465.0" r="6" fill="#4c9a2a"/><path d="M980.3 465.0 l1.9 1.9 l3.4 -3.9" fill="none" stroke="#ffffff" stroke-width="1.4" stroke-linecap="round" stroke-linejoin="round"/><g transform="translate(999.0,458.0) scale(0.875)"><rect x="1.5" y="8" width="2.6" height="6" rx="0.6" fill="#8661c5"/><rect x="5.7" y="4.5" width="2.6" height="9.5" rx="0.6" fill="#0078D4"/><rect x="9.9" y="6.5" width="2.6" height="7.5" rx="0.6" fill="#3fb0ac"/></g><text x="1019.0" y="468.5" font-size="10.5" fill="#242424">Quota utilization</text><text x="1162.0" y="468.5" font-size="10.5" font-weight="400" fill="#605e5c" text-anchor="end">1</text>
<g filter="url(#cs)"><rect x="214.7" y="210.0" width="209" height="85" rx="10" fill="#f4f0fb" stroke="#8661c5" stroke-width="2"/></g><g transform="translate(220.7,217.16) scale(0.82)"><path d="M12 3.2l7.6 4.4v8.8L12 20.8l-7.6-4.4V7.6z" fill="none" stroke="#605e5c" stroke-width="1.6" stroke-linecap="round" stroke-linejoin="round"/><path d="M4.6 7.8l7.4 4.3 7.4-4.3M12 12.1v8.6" fill="none" stroke="#605e5c" stroke-width="1.6" stroke-linecap="round" stroke-linejoin="round"/></g><text x="248.7" y="230.5" font-size="12.5" font-weight="600" fill="#242424">Failover region</text><rect x="348.4" y="218.00" width="67.3" height="18" rx="9" fill="#ffffff" stroke="#8661c5" stroke-width="1"/><circle cx="359.4" cy="227.0" r="6" fill="#8661c5"/><text x="368.4" y="230.57" font-size="10.5" fill="#323130">Standby</text><line x1="215.7" y1="247.0" x2="422.7" y2="247.0" stroke="#e6e4e2"/><circle cx="230.7" cy="262.0" r="6" fill="#4c9a2a"/><path d="M228.0 262.0 l1.9 1.9 l3.4 -3.9" fill="none" stroke="#ffffff" stroke-width="1.4" stroke-linecap="round" stroke-linejoin="round"/><g transform="translate(246.7,255.0) scale(0.875)"><rect x="1.5" y="8" width="2.6" height="6" rx="0.6" fill="#8661c5"/><rect x="5.7" y="4.5" width="2.6" height="9.5" rx="0.6" fill="#0078D4"/><rect x="9.9" y="6.5" width="2.6" height="7.5" rx="0.6" fill="#3fb0ac"/></g><text x="266.7" y="265.5" font-size="10.5" fill="#242424">Replication health</text><text x="411.7" y="265.5" font-size="10.5" font-weight="400" fill="#605e5c" text-anchor="end">0</text><line x1="224.7" y1="271.0" x2="413.7" y2="271.0" stroke="#e6e4e2" stroke-opacity="0.7"/><circle cx="230.7" cy="280.0" r="6" fill="#4c9a2a"/><path d="M228.0 280.0 l1.9 1.9 l3.4 -3.9" fill="none" stroke="#ffffff" stroke-width="1.4" stroke-linecap="round" stroke-linejoin="round"/><g transform="translate(246.7,273.0) scale(0.875)"><rect x="1.5" y="8" width="2.6" height="6" rx="0.6" fill="#8661c5"/><rect x="5.7" y="4.5" width="2.6" height="9.5" rx="0.6" fill="#0078D4"/><rect x="9.9" y="6.5" width="2.6" height="7.5" rx="0.6" fill="#3fb0ac"/></g><text x="266.7" y="283.5" font-size="10.5" fill="#242424">Failover readiness</text><text x="411.7" y="283.5" font-size="10.5" font-weight="400" fill="#605e5c" text-anchor="end">1</text>
<g filter="url(#cs)"><rect x="453.7" y="210.0" width="227" height="58" rx="10" fill="#fbf2e7" stroke="#db7500" stroke-width="2"/></g><g transform="translate(459.7,229.16) scale(0.82)"><path d="M12 3.2l7.6 4.4v8.8L12 20.8l-7.6-4.4V7.6z" fill="none" stroke="#605e5c" stroke-width="1.6" stroke-linecap="round" stroke-linejoin="round"/><path d="M4.6 7.8l7.4 4.3 7.4-4.3M12 12.1v8.6" fill="none" stroke="#605e5c" stroke-width="1.6" stroke-linecap="round" stroke-linejoin="round"/></g><text x="487.7" y="237.0" font-size="12.5" font-weight="600" fill="#242424">Delivery pipeline</text><text x="487.7" y="249.0" font-size="9" fill="#605e5c">active-active</text><rect x="597.7" y="230.00" width="75.0" height="18" rx="9" fill="#ffffff" stroke="#db7500" stroke-width="1"/><circle cx="608.7" cy="239.0" r="6" fill="#c26a00"/><text x="617.7" y="242.57" font-size="10.5" fill="#323130">Degraded</text>
<g filter="url(#cs)"><rect x="710.7" y="210.0" width="254" height="58" rx="10" fill="#f6f6f5" stroke="#c8c6c4" stroke-width="2" stroke-dasharray="4 3"/></g><g transform="translate(716.7,229.16) scale(0.82)"><path d="M12 3.2l7.6 4.4v8.8L12 20.8l-7.6-4.4V7.6z" fill="none" stroke="#605e5c" stroke-width="1.6" stroke-linecap="round" stroke-linejoin="round"/><path d="M4.6 7.8l7.4 4.3 7.4-4.3M12 12.1v8.6" fill="none" stroke="#605e5c" stroke-width="1.6" stroke-linecap="round" stroke-linejoin="round"/></g><text x="744.7" y="242.5" font-size="12.5" font-weight="600" fill="#242424">Throttling and quotas</text><rect x="884.0" y="230.00" width="72.6" height="18" rx="9" fill="#ffffff" stroke="#c8c6c4" stroke-width="1"/><circle cx="895.0" cy="239.0" r="6" fill="#8a8886"/><text x="904.0" y="242.57" font-size="10.5" fill="#323130">Unknown</text>
<g filter="url(#cs)"><rect x="435.2" y="96.0" width="279" height="58" rx="10" fill="#fbf2e7" stroke="#db7500" stroke-width="2"/></g><g transform="translate(441.2,115.16) scale(0.82)"><circle cx="12" cy="12" r="8.4" fill="none" stroke="#605e5c" stroke-width="1.6" stroke-linecap="round" stroke-linejoin="round"/><path d="M4.2 12h3l2-3.6 2.8 7.2 1.8-3.6h4" fill="none" stroke="#605e5c" stroke-width="1.6" stroke-linecap="round" stroke-linejoin="round"/></g><text x="469.2" y="123.0" font-size="12.5" font-weight="600" fill="#242424">Notification platform root</text><text x="469.2" y="135.0" font-size="9" fill="#605e5c">worstOf</text><rect x="631.2" y="116.00" width="75.0" height="18" rx="9" fill="#ffffff" stroke="#db7500" stroke-width="1"/><circle cx="642.2" cy="125.0" r="6" fill="#c26a00"/><text x="651.2" y="128.57" font-size="10.5" fill="#323130">Degraded</text>
</g></svg>