<svg xmlns="http://www.w3.org/2000/svg" width="1013" height="705" viewBox="0 0 1013 705" font-family="Segoe UI, -apple-system, BlinkMacSystemFont, Helvetica, Arial, sans-serif">
<defs><filter id="cs" x="-20%" y="-20%" width="140%" height="140%"><feDropShadow dx="0" dy="1" stdDeviation="1.3" flood-color="#000" flood-opacity="0.1"/></filter></defs>
<rect width="1013" height="705" fill="#ffffff"/>
<rect x="0" y="78.0" width="1013" height="118.0" fill="#ffffff"/>
<line x1="0" y1="78.0" x2="1013" y2="78.0" stroke="#e6e4e2"/>
<text x="847.4" y="141.5" font-size="13" font-weight="700" fill="#323130">Workload root</text>
<rect x="0" y="196.0" width="1013" height="157.0" fill="#faf9f8"/>
<line x1="0" y1="196.0" x2="1013" y2="196.0" stroke="#e6e4e2"/>
<text x="847.4" y="279.0" font-size="13" font-weight="700" fill="#323130">Business &amp; user flows</text>
<rect x="0" y="353.0" width="1013" height="334.0" fill="#ffffff"/>
<line x1="0" y1="353.0" x2="1013" y2="353.0" stroke="#e6e4e2"/>
<text x="847.4" y="516.0" font-size="13" font-weight="700" fill="#323130">Application</text>
<text x="847.4" y="533.0" font-size="13" font-weight="700" fill="#323130">components</text>
<line x1="0" y1="704.5" x2="1013" y2="704.5" stroke="#e6e4e2"/>
<text x="40" y="34" font-size="18" font-weight="700" fill="#242424">Notification delivery platform health</text>
<text x="40" y="52" font-size="12" fill="#605e5c">Signals live inside each entity; health rolls up to the workload root.</text>
<text x="609.9" y="48" font-size="11.5" font-weight="600" fill="#605e5c" text-anchor="end">Legend</text>
<circle cx="627.9" cy="44" r="4.5" fill="#4c9a2a"/>
<text x="637.9" y="48" font-size="11.5" fill="#323130">Healthy</text>
<circle cx="693.7" cy="44" r="4.5" fill="#c26a00"/>
<text x="703.7" y="48" font-size="11.5" fill="#323130">Degraded</text>
<circle cx="771.2" cy="44" r="4.5" fill="#c50f18"/>
<text x="781.2" y="48" font-size="11.5" fill="#323130">Unhealthy</text>
<circle cx="850.0" cy="44" r="4.5" fill="#8a8886"/>
<text x="860.0" y="48" font-size="11.5" fill="#323130">Unknown</text>
<g transform="translate(918.9,37.0) scale(0.875)"><rect x="1.5" y="8" width="2.6" height="6" rx="0.6" fill="#8661c5"/><rect x="5.7" y="4.5" width="2.6" height="9.5" rx="0.6" fill="#0078D4"/><rect x="9.9" y="6.5" width="2.6" height="7.5" rx="0.6" fill="#3fb0ac"/></g>
<text x="936.9" y="48" font-size="11.5" fill="#323130">Metric</text>
<g transform="translate(40.0,0)">
<g fill="none" stroke-linecap="butt" stroke-linejoin="round">
<path d="M153.3 371.0 L153.3 326.0 Q153.3 319.0 160.3 319.0 L361.9 319.0" stroke="#a0d8a0" stroke-width="1.7"/>
<path d="M361.9 319.0 L361.9 272.0" stroke="#605e5c" stroke-width="1.7"/>
<path d="M361.9 371.0 L361.9 272.0" stroke="#605e5c" stroke-width="1.7"/>
<path d="M630.3 371.0 L630.3 330.0 Q630.3 323.0 623.3 323.0 L361.9 323.0" stroke="#ba0d16" stroke-width="1.7"/>
<path d="M361.9 323.0 L361.9 272.0" stroke="#605e5c" stroke-width="1.7"/>
<path d="M533.8 570.0 L533.8 501.0 Q533.8 494.0 540.8 494.0 L744.3 494.0" stroke="#c8c6c4" stroke-width="1.7"/>
<path d="M744.3 494.0 L744.3 272.0" stroke="#605e5c" stroke-width="1.7"/>
<path d="M113.9 214.0 L113.9 181.0 Q113.9 174.0 120.9 174.0 L369.4 174.0" stroke="#8661c5" stroke-width="1.7"/>
<path d="M369.4 174.0 L369.4 154.0" stroke="#605e5c" stroke-width="1.7"/>
<path d="M632.4 214.0 L632.4 185.0 Q632.4 178.0 625.4 178.0 L369.4 178.0" stroke="#c8c6c4" stroke-width="1.7"/>
<path d="M369.4 178.0 L369.4 154.0" stroke="#605e5c" stroke-width="1.7"/>
<path d="M369.4 214.0 L369.4 154.0" stroke="#605e5c" stroke-width="1.7"/>
<path d="M279.3 570.0 L279.3 525.0 Q279.3 522.0 276.3 522.0 L276.3 522.0 Q273.3 522.0 273.3 519.0 L273.3 340.0 Q273.3 337.0 276.3 337.0 L276.3 337.0 Q279.3 337.0 279.3 334.0 L279.3 272.0" stroke="#a0d8a0" stroke-width="1.6" stroke-dasharray="5 4"/>
</g>
<g stroke="none"><rect x="205.6" y="505.5" width="147.4" height="33" rx="10" fill="#ffffff" stroke="#d8d6d4" stroke-width="1"/><text x="279.3" y="519.1" font-size="10.5" font-weight="600" fill="#242424" text-anchor="middle">cached templates limited</text><text x="279.3" y="532.1" font-size="10.5" font-weight="600" fill="#242424" text-anchor="middle">propagation</text></g>
<g filter="url(#cs)"><rect x="53.3" y="371.0" width="200" height="103" rx="10" fill="#f2f8f2" stroke="#a0d8a0" stroke-width="2"/></g><g transform="translate(59.3,378.16) scale(0.82)"><circle cx="5.5" cy="6" r="2" fill="none" stroke="#605e5c" stroke-width="1.6" stroke-linecap="round" stroke-linejoin="round"/><circle cx="5.5" cy="18" r="2" fill="none" stroke="#605e5c" stroke-width="1.6" stroke-linecap="round" stroke-linejoin="round"/><circle cx="18.5" cy="12" r="2" fill="none" stroke="#605e5c" stroke-width="1.6" stroke-linecap="round" stroke-linejoin="round"/><path d="M7.5 6h3a4 4 0 0 1 4 4M7.5 18h3a4 4 0 0 0 4-4" fill="none" stroke="#605e5c" stroke-width="1.6" stroke-linecap="round" stroke-linejoin="round"/></g><text x="87.3" y="391.5" font-size="12.5" font-weight="600" fill="#242424">Push gateway</text><rect x="181.0" y="379.00" width="64.3" height="18" rx="9" fill="#ffffff" stroke="#a0d8a0" stroke-width="1"/><circle cx="192.0" cy="388.0" r="6" fill="#4c9a2a"/><path d="M189.3 388.0 l1.9 1.9 l3.4 -3.9" fill="none" stroke="#ffffff" stroke-width="1.4" stroke-linecap="round" stroke-linejoin="round"/><text x="201.0" y="391.57" font-size="10.5" fill="#323130">Healthy</text><line x1="54.3" y1="408.0" x2="252.3" y2="408.0" stroke="#e6e4e2"/><circle cx="69.3" cy="423.0" r="6" fill="#4c9a2a"/><path d="M66.6 423.0 l1.9 1.9 l3.4 -3.9" fill="none" stroke="#ffffff" stroke-width="1.4" stroke-linecap="round" stroke-linejoin="round"/><g transform="translate(85.3,416.0) scale(0.875)"><rect x="1.5" y="8" width="2.6" height="6" rx="0.6" fill="#8661c5"/><rect x="5.7" y="4.5" width="2.6" height="9.5" rx="0.6" fill="#0078D4"/><rect x="9.9" y="6.5" width="2.6" height="7.5" rx="0.6" fill="#3fb0ac"/></g><text x="105.3" y="426.5" font-size="10.5" fill="#242424">Push token errors</text><text x="241.3" y="426.5" font-size="10.5" font-weight="400" fill="#605e5c" text-anchor="end">2</text><line x1="63.3" y1="432.0" x2="243.3" y2="432.0" stroke="#e6e4e2" stroke-opacity="0.7"/><circle cx="69.3" cy="441.0" r="6" fill="#4c9a2a"/><path d="M66.6 441.0 l1.9 1.9 l3.4 -3.9" fill="none" stroke="#ffffff" stroke-width="1.4" stroke-linecap="round" stroke-linejoin="round"/><g transform="translate(85.3,434.0) scale(0.875)"><rect x="1.5" y="8" width="2.6" height="6" rx="0.6" fill="#8661c5"/><rect x="5.7" y="4.5" width="2.6" height="9.5" rx="0.6" fill="#0078D4"/><rect x="9.9" y="6.5" width="2.6" height="7.5" rx="0.6" fill="#3fb0ac"/></g><text x="105.3" y="444.5" font-size="10.5" fill="#242424">Delivery latency</text><text x="241.3" y="444.5" font-size="10.5" font-weight="400" fill="#605e5c" text-anchor="end">1</text><line x1="63.3" y1="450.0" x2="243.3" y2="450.0" stroke="#e6e4e2" stroke-opacity="0.7"/><circle cx="69.3" cy="459.0" r="6" fill="#4c9a2a"/><path d="M66.6 459.0 l1.9 1.9 l3.4 -3.9" fill="none" stroke="#ffffff" stroke-width="1.4" stroke-linecap="round" stroke-linejoin="round"/><g transform="translate(85.3,452.0) scale(0.875)"><rect x="1.5" y="8" width="2.6" height="6" rx="0.6" fill="#8661c5"/><rect x="5.7" y="4.5" width="2.6" height="9.5" rx="0.6" fill="#0078D4"/><rect x="9.9" y="6.5" width="2.6" height="7.5" rx="0.6" fill="#3fb0ac"/></g><text x="105.3" y="462.5" font-size="10.5" fill="#242424">Throttled sends</text><text x="241.3" y="462.5" font-size="10.5" font-weight="400" fill="#605e5c" text-anchor="end">0</text>
<g filter="url(#cs)"><rect x="283.3" y="371.0" width="213" height="103" rx="10" fill="#fbf2e7" stroke="#db7500" stroke-width="2"/></g><g transform="translate(289.3,378.16) scale(0.82)"><circle cx="5.5" cy="6" r="2" fill="none" stroke="#605e5c" stroke-width="1.6" stroke-linecap="round" stroke-linejoin="round"/><circle cx="5.5" cy="18" r="2" fill="none" stroke="#605e5c" stroke-width="1.6" stroke-linecap="round" stroke-linejoin="round"/><circle cx="18.5" cy="12" r="2" fill="none" stroke="#605e5c" stroke-width="1.6" stroke-linecap="round" stroke-linejoin="round"/><path d="M7.5 6h3a4 4 0 0 1 4 4M7.5 18h3a4 4 0 0 0 4-4" fill="none" stroke="#605e5c" stroke-width="1.6" stroke-linecap="round" stroke-linejoin="round"/></g><text x="317.3" y="391.5" font-size="12.5" font-weight="600" fill="#242424">Email gateway</text><rect x="413.3" y="379.00" width="75.0" height="18" rx="9" fill="#ffffff" stroke="#db7500" stroke-width="1"/><circle cx="424.3" cy="388.0" r="6" fill="#c26a00"/><text x="433.3" y="391.57" font-size="10.5" fill="#323130">Degraded</text><line x1="284.3" y1="408.0" x2="495.3" y2="408.0" stroke="#e6e4e2"/><circle cx="299.3" cy="423.0" r="6" fill="#c26a00"/><g transform="translate(315.3,416.0) scale(0.875)"><rect x="1.5" y="8" width="2.6" height="6" rx="0.6" fill="#8661c5"/><rect x="5.7" y="4.5" width="2.6" height="9.5" rx="0.6" fill="#0078D4"/><rect x="9.9" y="6.5" width="2.6" height="7.5" rx="0.6" fill="#3fb0ac"/></g><text x="335.3" y="426.5" font-size="10.5" fill="#242424">Bounce rate</text><text x="484.3" y="426.5" font-size="10.5" font-weight="600" fill="#c26a00" text-anchor="end">18</text><line x1="293.3" y1="432.0" x2="486.3" y2="432.0" stroke="#e6e4e2" stroke-opacity="0.7"/><circle cx="299.3" cy="441.0" r="6" fill="#4c9a2a"/><path d="M296.6 441.0 l1.9 1.9 l3.4 -3.9" fill="none" stroke="#ffffff" stroke-width="1.4" stroke-linecap="round" stroke-linejoin="round"/><g transform="translate(315.3,434.0) scale(0.875)"><rect x="1.5" y="8" width="2.6" height="6" rx="0.6" fill="#8661c5"/><rect x="5.7" y="4.5" width="2.6" height="9.5" rx="0.6" fill="#0078D4"/><rect x="9.9" y="6.5" width="2.6" height="7.5" rx="0.6" fill="#3fb0ac"/></g><text x="335.3" y="444.5" font-size="10.5" fill="#242424">Send latency</text><text x="484.3" y="444.5" font-size="10.5" font-weight="400" fill="#605e5c" text-anchor="end">0</text><line x1="293.3" y1="450.0" x2="486.3" y2="450.0" stroke="#e6e4e2" stroke-opacity="0.7"/><circle cx="299.3" cy="459.0" r="6" fill="#4c9a2a"/><path d="M296.6 459.0 l1.9 1.9 l3.4 -3.9" fill="none" stroke="#ffffff" stroke-width="1.4" stroke-linecap="round" stroke-linejoin="round"/><g transform="translate(315.3,452.0) scale(0.875)"><rect x="1.5" y="8" width="2.6" height="6" rx="0.6" fill="#8661c5"/><rect x="5.7" y="4.5" width="2.6" height="9.5" rx="0.6" fill="#0078D4"/><rect x="9.9" y="6.5" width="2.6" height="7.5" rx="0.6" fill="#3fb0ac"/></g><text x="335.3" y="462.5" font-size="10.5" fill="#242424">Bulk queue depth</text><text x="484.3" y="462.5" font-size="10.5" font-weight="400" fill="#605e5c" text-anchor="end">0</text>
<g filter="url(#cs)"><rect x="526.3" y="371.0" width="208" height="103" rx="10" fill="#faeceb" stroke="#ba0d16" stroke-width="2"/></g><g transform="translate(532.3,378.16) scale(0.82)"><circle cx="5.5" cy="6" r="2" fill="none" stroke="#605e5c" stroke-width="1.6" stroke-linecap="round" stroke-linejoin="round"/><circle cx="5.5" cy="18" r="2" fill="none" stroke="#605e5c" stroke-width="1.6" stroke-linecap="round" stroke-linejoin="round"/><circle cx="18.5" cy="12" r="2" fill="none" stroke="#605e5c" stroke-width="1.6" stroke-linecap="round" stroke-linejoin="round"/><path d="M7.5 6h3a4 4 0 0 1 4 4M7.5 18h3a4 4 0 0 0 4-4" fill="none" stroke="#605e5c" stroke-width="1.6" stroke-linecap="round" stroke-linejoin="round"/></g><text x="560.3" y="391.5" font-size="12.5" font-weight="600" fill="#242424">SMS gateway</text><rect x="650.1" y="379.00" width="76.2" height="18" rx="9" fill="#ffffff" stroke="#ba0d16" stroke-width="1"/><circle cx="661.1" cy="388.0" r="6" fill="#c50f18"/><text x="670.1" y="391.57" font-size="10.5" fill="#323130">Unhealthy</text><line x1="527.3" y1="408.0" x2="733.3" y2="408.0" stroke="#e6e4e2"/><circle cx="542.3" cy="423.0" r="6" fill="#c50f18"/><g transform="translate(558.3,416.0) scale(0.875)"><rect x="1.5" y="8" width="2.6" height="6" rx="0.6" fill="#8661c5"/><rect x="5.7" y="4.5" width="2.6" height="9.5" rx="0.6" fill="#0078D4"/><rect x="9.9" y="6.5" width="2.6" height="7.5" rx="0.6" fill="#3fb0ac"/></g><text x="578.3" y="426.5" font-size="10.5" fill="#242424">Carrier NACK rate</text><text x="722.3" y="426.5" font-size="10.5" font-weight="600" fill="#c50f18" text-anchor="end">105</text><line x1="536.3" y1="432.0" x2="724.3" y2="432.0" stroke="#e6e4e2" stroke-opacity="0.7"/><circle cx="542.3" cy="441.0" r="6" fill="#4c9a2a"/><path d="M539.6 441.0 l1.9 1.9 l3.4 -3.9" fill="none" stroke="#ffffff" stroke-width="1.4" stroke-linecap="round" stroke-linejoin="round"/><g transform="translate(558.3,434.0) scale(0.875)"><rect x="1.5" y="8" width="2.6" height="6" rx="0.6" fill="#8661c5"/><rect x="5.7" y="4.5" width="2.6" height="9.5" rx="0.6" fill="#0078D4"/><rect x="9.9" y="6.5" width="2.6" height="7.5" rx="0.6" fill="#3fb0ac"/></g><text x="578.3" y="444.5" font-size="10.5" fill="#242424">Send latency</text><text x="722.3" y="444.5" font-size="10.5" font-weight="400" fill="#605e5c" text-anchor="end">0</text><line x1="536.3" y1="450.0" x2="724.3" y2="450.0" stroke="#e6e4e2" stroke-opacity="0.7"/><circle cx="542.3" cy="459.0" r="6" fill="#4c9a2a"/><path d="M539.6 459.0 l1.9 1.9 l3.4 -3.9" fill="none" stroke="#ffffff" stroke-width="1.4" stroke-linecap="round" stroke-linejoin="round"/><g transform="translate(558.3,452.0) scale(0.875)"><rect x="1.5" y="8" width="2.6" height="6" rx="0.6" fill="#8661c5"/><rect x="5.7" y="4.5" width="2.6" height="9.5" rx="0.6" fill="#0078D4"/><rect x="9.9" y="6.5" width="2.6" height="7.5" rx="0.6" fill="#3fb0ac"/></g><text x="578.3" y="462.5" font-size="10.5" fill="#242424">Balance remaining</text><text x="722.3" y="462.5" font-size="10.5" font-weight="400" fill="#605e5c" text-anchor="end">0</text>
<g filter="url(#cs)"><rect x="150.3" y="570.0" width="226" height="103" rx="10" fill="#f2f8f2" stroke="#a0d8a0" stroke-width="2"/></g><g transform="translate(156.3,577.16) scale(0.82)"><path d="M12 3.2l7.6 4.4v8.8L12 20.8l-7.6-4.4V7.6z" fill="none" stroke="#605e5c" stroke-width="1.6" stroke-linecap="round" stroke-linejoin="round"/><path d="M4.6 7.8l7.4 4.3 7.4-4.3M12 12.1v8.6" fill="none" stroke="#605e5c" stroke-width="1.6" stroke-linecap="round" stroke-linejoin="round"/></g><text x="184.3" y="590.5" font-size="12.5" font-weight="600" fill="#242424">Template renderer</text><rect x="304.0" y="578.00" width="64.3" height="18" rx="9" fill="#ffffff" stroke="#a0d8a0" stroke-width="1"/><circle cx="315.0" cy="587.0" r="6" fill="#4c9a2a"/><path d="M312.3 587.0 l1.9 1.9 l3.4 -3.9" fill="none" stroke="#ffffff" stroke-width="1.4" stroke-linecap="round" stroke-linejoin="round"/><text x="324.0" y="590.57" font-size="10.5" fill="#323130">Healthy</text><line x1="151.3" y1="607.0" x2="375.3" y2="607.0" stroke="#e6e4e2"/><circle cx="166.3" cy="622.0" r="6" fill="#4c9a2a"/><path d="M163.6 622.0 l1.9 1.9 l3.4 -3.9" fill="none" stroke="#ffffff" stroke-width="1.4" stroke-linecap="round" stroke-linejoin="round"/><g transform="translate(182.3,615.0) scale(0.875)"><rect x="1.5" y="8" width="2.6" height="6" rx="0.6" fill="#8661c5"/><rect x="5.7" y="4.5" width="2.6" height="9.5" rx="0.6" fill="#0078D4"/><rect x="9.9" y="6.5" width="2.6" height="7.5" rx="0.6" fill="#3fb0ac"/></g><text x="202.3" y="625.5" font-size="10.5" fill="#242424">Render errors</text><text x="364.3" y="625.5" font-size="10.5" font-weight="400" fill="#605e5c" text-anchor="end">1</text><line x1="160.3" y1="631.0" x2="366.3" y2="631.0" stroke="#e6e4e2" stroke-opacity="0.7"/><circle cx="166.3" cy="640.0" r="6" fill="#4c9a2a"/><path d="M163.6 640.0 l1.9 1.9 l3.4 -3.9" fill="none" stroke="#ffffff" stroke-width="1.4" stroke-linecap="round" stroke-linejoin="round"/><g transform="translate(182.3,633.0) scale(0.875)"><rect x="1.5" y="8" width="2.6" height="6" rx="0.6" fill="#8661c5"/><rect x="5.7" y="4.5" width="2.6" height="9.5" rx="0.6" fill="#0078D4"/><rect x="9.9" y="6.5" width="2.6" height="7.5" rx="0.6" fill="#3fb0ac"/></g><text x="202.3" y="643.5" font-size="10.5" fill="#242424">Render latency</text><text x="364.3" y="643.5" font-size="10.5" font-weight="400" fill="#605e5c" text-anchor="end">1</text><line x1="160.3" y1="649.0" x2="366.3" y2="649.0" stroke="#e6e4e2" stroke-opacity="0.7"/><circle cx="166.3" cy="658.0" r="6" fill="#4c9a2a"/><path d="M163.6 658.0 l1.9 1.9 l3.4 -3.9" fill="none" stroke="#ffffff" stroke-width="1.4" stroke-linecap="round" stroke-linejoin="round"/><g transform="translate(182.3,651.0) scale(0.875)"><rect x="1.5" y="8" width="2.6" height="6" rx="0.6" fill="#8661c5"/><rect x="5.7" y="4.5" width="2.6" height="9.5" rx="0.6" fill="#0078D4"/><rect x="9.9" y="6.5" width="2.6" height="7.5" rx="0.6" fill="#3fb0ac"/></g><text x="202.3" y="661.5" font-size="10.5" fill="#242424">Cache hit ratio</text><text x="364.3" y="661.5" font-size="10.5" font-weight="400" fill="#605e5c" text-anchor="end">0</text>
<g filter="url(#cs)"><rect x="430.3" y="570.0" width="207" height="85" rx="10" fill="#f6f6f5" stroke="#c8c6c4" stroke-width="2" stroke-dasharray="4 3"/></g><g transform="translate(436.3,577.16) scale(0.82)"><path d="M12 3.2l7.6 4.4v8.8L12 20.8l-7.6-4.4V7.6z" fill="none" stroke="#605e5c" stroke-width="1.6" stroke-linecap="round" stroke-linejoin="round"/><path d="M4.6 7.8l7.4 4.3 7.4-4.3M12 12.1v8.6" fill="none" stroke="#605e5c" stroke-width="1.6" stroke-linecap="round" stroke-linejoin="round"/></g><text x="464.3" y="590.5" font-size="12.5" font-weight="600" fill="#242424">Quota service</text><rect x="556.7" y="578.00" width="72.6" height="18" rx="9" fill="#ffffff" stroke="#c8c6c4" stroke-width="1"/><circle cx="567.7" cy="587.0" r="6" fill="#8a8886"/><text x="576.7" y="590.57" font-size="10.5" fill="#323130">Unknown</text><line x1="431.3" y1="607.0" x2="636.3" y2="607.0" stroke="#e6e4e2"/><circle cx="446.3" cy="622.0" r="6" fill="#4c9a2a"/><path d="M443.6 622.0 l1.9 1.9 l3.4 -3.9" fill="none" stroke="#ffffff" stroke-width="1.4" stroke-linecap="round" stroke-linejoin="round"/><g transform="translate(462.3,615.0) scale(0.875)"><rect x="1.5" y="8" width="2.6" height="6" rx="0.6" fill="#8661c5"/><rect x="5.7" y="4.5" width="2.6" height="9.5" rx="0.6" fill="#0078D4"/><rect x="9.9" y="6.5" width="2.6" height="7.5" rx="0.6" fill="#3fb0ac"/></g><text x="482.3" y="625.5" font-size="10.5" fill="#242424">Rate-limit hits</text><text x="625.3" y="625.5" font-size="10.5" font-weight="400" fill="#605e5c" text-anchor="end">0</text><line x1="440.3" y1="631.0" x2="627.3" y2="631.0" stroke="#e6e4e2" stroke-opacity="0.7"/><circle cx="446.3" cy="640.0" r="6" fill="#4c9a2a"/><path d="M443.6 640.0 l1.9 1.9 l3.4 -3.9" fill="none" stroke="#ffffff" stroke-width="1.4" stroke-linecap="round" stroke-linejoin="round"/><g transform="translate(462.3,633.0) scale(0.875)"><rect x="1.5" y="8" width="2.6" height="6" rx="0.6" fill="#8661c5"/><rect x="5.7" y="4.5" width="2.6" height="9.5" rx="0.6" fill="#0078D4"/><rect x="9.9" y="6.5" width="2.6" height="7.5" rx="0.6" fill="#3fb0ac"/></g><text x="482.3" y="643.5" font-size="10.5" fill="#242424">Quota utilization</text><text x="625.3" y="643.5" font-size="10.5" font-weight="400" fill="#605e5c" text-anchor="end">1</text>
<g filter="url(#cs)"><rect x="9.4" y="214.0" width="209" height="85" rx="10" fill="#f4f0fb" stroke="#8661c5" stroke-width="2"/></g><g transform="translate(15.4,221.16) scale(0.82)"><path d="M12 3.2l7.6 4.4v8.8L12 20.8l-7.6-4.4V7.6z" fill="none" stroke="#605e5c" stroke-width="1.6" stroke-linecap="round" stroke-linejoin="round"/><path d="M4.6 7.8l7.4 4.3 7.4-4.3M12 12.1v8.6" fill="none" stroke="#605e5c" stroke-width="1.6" stroke-linecap="round" stroke-linejoin="round"/></g><text x="43.4" y="234.5" font-size="12.5" font-weight="600" fill="#242424">Failover region</text><rect x="143.1" y="222.00" width="67.3" height="18" rx="9" fill="#ffffff" stroke="#8661c5" stroke-width="1"/><circle cx="154.1" cy="231.0" r="6" fill="#8661c5"/><text x="163.1" y="234.57" font-size="10.5" fill="#323130">Standby</text><line x1="10.4" y1="251.0" x2="217.4" y2="251.0" stroke="#e6e4e2"/><circle cx="25.4" cy="266.0" r="6" fill="#4c9a2a"/><path d="M22.7 266.0 l1.9 1.9 l3.4 -3.9" fill="none" stroke="#ffffff" stroke-width="1.4" stroke-linecap="round" stroke-linejoin="round"/><g transform="translate(41.4,259.0) scale(0.875)"><rect x="1.5" y="8" width="2.6" height="6" rx="0.6" fill="#8661c5"/><rect x="5.7" y="4.5" width="2.6" height="9.5" rx="0.6" fill="#0078D4"/><rect x="9.9" y="6.5" width="2.6" height="7.5" rx="0.6" fill="#3fb0ac"/></g><text x="61.4" y="269.5" font-size="10.5" fill="#242424">Replication health</text><text x="206.4" y="269.5" font-size="10.5" font-weight="400" fill="#605e5c" text-anchor="end">0</text><line x1="19.4" y1="275.0" x2="208.4" y2="275.0" stroke="#e6e4e2" stroke-opacity="0.7"/><circle cx="25.4" cy="284.0" r="6" fill="#4c9a2a"/><path d="M22.7 284.0 l1.9 1.9 l3.4 -3.9" fill="none" stroke="#ffffff" stroke-width="1.4" stroke-linecap="round" stroke-linejoin="round"/><g transform="translate(41.4,277.0) scale(0.875)"><rect x="1.5" y="8" width="2.6" height="6" rx="0.6" fill="#8661c5"/><rect x="5.7" y="4.5" width="2.6" height="9.5" rx="0.6" fill="#0078D4"/><rect x="9.9" y="6.5" width="2.6" height="7.5" rx="0.6" fill="#3fb0ac"/></g><text x="61.4" y="287.5" font-size="10.5" fill="#242424">Failover readiness</text><text x="206.4" y="287.5" font-size="10.5" font-weight="400" fill="#605e5c" text-anchor="end">1</text>
<g filter="url(#cs)"><rect x="248.4" y="214.0" width="227" height="58" rx="10" fill="#fbf2e7" stroke="#db7500" stroke-width="2"/></g><g transform="translate(254.4,233.16) scale(0.82)"><path d="M12 3.2l7.6 4.4v8.8L12 20.8l-7.6-4.4V7.6z" fill="none" stroke="#605e5c" stroke-width="1.6" stroke-linecap="round" stroke-linejoin="round"/><path d="M4.6 7.8l7.4 4.3 7.4-4.3M12 12.1v8.6" fill="none" stroke="#605e5c" stroke-width="1.6" stroke-linecap="round" stroke-linejoin="round"/></g><text x="282.4" y="241.0" font-size="12.5" font-weight="600" fill="#242424">Delivery pipeline</text><text x="282.4" y="253.0" font-size="9" fill="#605e5c">active-active</text><rect x="392.3" y="234.00" width="75.0" height="18" rx="9" fill="#ffffff" stroke="#db7500" stroke-width="1"/><circle cx="403.3" cy="243.0" r="6" fill="#c26a00"/><text x="412.3" y="246.57" font-size="10.5" fill="#323130">Degraded</text>
<g filter="url(#cs)"><rect x="505.4" y="214.0" width="254" height="58" rx="10" fill="#f6f6f5" stroke="#c8c6c4" stroke-width="2" stroke-dasharray="4 3"/></g><g transform="translate(511.4,233.16) scale(0.82)"><path d="M12 3.2l7.6 4.4v8.8L12 20.8l-7.6-4.4V7.6z" fill="none" stroke="#605e5c" stroke-width="1.6" stroke-linecap="round" stroke-linejoin="round"/><path d="M4.6 7.8l7.4 4.3 7.4-4.3M12 12.1v8.6" fill="none" stroke="#605e5c" stroke-width="1.6" stroke-linecap="round" stroke-linejoin="round"/></g><text x="539.4" y="246.5" font-size="12.5" font-weight="600" fill="#242424">Throttling and quotas</text><rect x="678.7" y="234.00" width="72.6" height="18" rx="9" fill="#ffffff" stroke="#c8c6c4" stroke-width="1"/><circle cx="689.7" cy="243.0" r="6" fill="#8a8886"/><text x="698.7" y="246.57" font-size="10.5" fill="#323130">Unknown</text>
<g filter="url(#cs)"><rect x="229.9" y="96.0" width="279" height="58" rx="10" fill="#fbf2e7" stroke="#db7500" stroke-width="2"/></g><g transform="translate(235.9,115.16) scale(0.82)"><circle cx="12" cy="12" r="8.4" fill="none" stroke="#605e5c" stroke-width="1.6" stroke-linecap="round" stroke-linejoin="round"/><path d="M4.2 12h3l2-3.6 2.8 7.2 1.8-3.6h4" fill="none" stroke="#605e5c" stroke-width="1.6" stroke-linecap="round" stroke-linejoin="round"/></g><text x="263.9" y="123.0" font-size="12.5" font-weight="600" fill="#242424">Notification platform root</text><text x="263.9" y="135.0" font-size="9" fill="#605e5c">worstOf</text><rect x="425.8" y="116.00" width="75.0" height="18" rx="9" fill="#ffffff" stroke="#db7500" stroke-width="1"/><circle cx="436.8" cy="125.0" r="6" fill="#c26a00"/><text x="445.8" y="128.57" font-size="10.5" fill="#323130">Degraded</text>
</g></svg>