<svg xmlns="http://www.w3.org/2000/svg" width="1344" height="423" viewBox="0 0 1344 423" font-family="Segoe UI, -apple-system, BlinkMacSystemFont, Helvetica, Arial, sans-serif">
<defs><filter id="cs" x="-20%" y="-20%" width="140%" height="140%"><feDropShadow dx="0" dy="1" stdDeviation="1.3" flood-color="#000" flood-opacity="0.10"/></filter>
<marker id="ar-healthy" viewBox="0 0 10 10" refX="8" refY="5" markerWidth="7" markerHeight="7" orient="auto-start-reverse"><path d="M1 1 L9 5 L1 9" fill="none" stroke="#a0d8a0" stroke-width="1.6" stroke-linecap="round" stroke-linejoin="round"/></marker><marker id="ar-degraded" viewBox="0 0 10 10" refX="8" refY="5" markerWidth="7" markerHeight="7" orient="auto-start-reverse"><path d="M1 1 L9 5 L1 9" fill="none" stroke="#db7500" stroke-width="1.6" stroke-linecap="round" stroke-linejoin="round"/></marker><marker id="ar-unhealthy" viewBox="0 0 10 10" refX="8" refY="5" markerWidth="7" markerHeight="7" orient="auto-start-reverse"><path d="M1 1 L9 5 L1 9" fill="none" stroke="#ba0d16" stroke-width="1.6" stroke-linecap="round" stroke-linejoin="round"/></marker><marker id="ar-unknown" viewBox="0 0 10 10" refX="8" refY="5" markerWidth="7" markerHeight="7" orient="auto-start-reverse"><path d="M1 1 L9 5 L1 9" fill="none" stroke="#c8c6c4" stroke-width="1.6" stroke-linecap="round" stroke-linejoin="round"/></marker><marker id="ar-alt" viewBox="0 0 10 10" refX="8" refY="5" markerWidth="7" markerHeight="7" orient="auto-start-reverse"><path d="M1 1 L9 5 L1 9" fill="none" stroke="#8661c5" stroke-width="1.6" stroke-linecap="round" stroke-linejoin="round"/></marker><marker id="ar-signal" viewBox="0 0 10 10" refX="8" refY="5" markerWidth="7" markerHeight="7" orient="auto-start-reverse"><path d="M1 1 L9 5 L1 9" fill="none" stroke="#0078D4" stroke-width="1.6" stroke-linecap="round" stroke-linejoin="round"/></marker>
</defs><rect width="1344" height="423" fill="#ffffff"/>
<rect x="0" y="78" width="1344" height="146" fill="#ffffff"/>
<line x1="0" y1="78" x2="1344" y2="78" stroke="#e6e4e2"/>
<text x="1168" y="156" font-size="13" font-weight="700" fill="#323130">Workload root</text>
<rect x="0" y="224" width="1344" height="181" fill="#faf9f8"/>
<line x1="0" y1="224" x2="1344" y2="224" stroke="#e6e4e2"/>
<text x="1168" y="312.5" font-size="13" font-weight="700" fill="#323130">Application</text>
<text x="1168" y="329.5" font-size="13" font-weight="700" fill="#323130">components</text>
<line x1="0" y1="422.5" x2="1344" y2="422.5" stroke="#e6e4e2"/>
<text x="40" y="34" font-size="18" font-weight="700" fill="#242424">Add security signals to your platform health model</text>
<text x="40" y="52" font-size="12" fill="#605e5c">Signals live inside each entity; health rolls up to the workload root.</text>
<text x="929.2" y="48" font-size="11.5" font-weight="600" fill="#605e5c" text-anchor="end">Legend</text><circle cx="947.2" cy="44" r="4.5" fill="#4c9a2a"/><text x="957.2" y="48" font-size="11.5" fill="#323130">Healthy</text><circle cx="1018" cy="44" r="4.5" fill="#c26a00"/><text x="1028" y="48" font-size="11.5" fill="#323130">Degraded</text><circle cx="1095.2" cy="44" r="4.5" fill="#c50f18"/><text x="1105.2" y="48" font-size="11.5" fill="#323130">Unhealthy</text><circle cx="1178.8" cy="44" r="4.5" fill="#8a8886"/><text x="1188.8" y="48" font-size="11.5" fill="#323130">Unknown</text><g transform="translate(1243.6,37) scale(0.875)">
    <rect x="1.5" y="8" width="2.6" height="6" rx="0.6" fill="#8661c5"/>
    <rect x="5.7" y="4.5" width="2.6" height="9.5" rx="0.6" fill="#0078D4"/>
    <rect x="9.9" y="6.5" width="2.6" height="7.5" rx="0.6" fill="#3fb0ac"/>
  </g><text x="1261.6" y="48" font-size="11.5" fill="#323130">Metric</text>
<g fill="none" stroke-linecap="butt" stroke-linejoin="round">
<path d="M567.0 242 V154" stroke="#a0d8a0" stroke-width="1.7"/>
<path d="M617.0 242 V154" stroke="#a0d8a0" stroke-width="1.7"/>
<path d="M1006 242 L1006.0 236.0 Q1006 230 1000.0 230.0 L708.0 230.0 Q701 230 701.0 223.0 L701 154" stroke="#a0d8a0" stroke-width="1.7"/>
<path d="M178 242 L178.0 177.0 Q178 170 185.0 170.0 L585.0 170.0 Q592 170 592.0 163.0 L592 154" stroke="#ba0d16" stroke-width="1.6" stroke-dasharray="5 4"/>
<g stroke="none"><rect x="112.1" y="160.0" width="131.7" height="20" rx="10" fill="#ffffff" stroke="#d8d6d4" stroke-width="1"/><text x="178.0" y="173.6" font-size="10.5" font-weight="600" fill="#242424" text-anchor="middle">limited propagation</text></g>
</g>
<g filter="url(#cs)"><rect x="55" y="242" width="246" height="119" rx="10" fill="#faeceb" stroke="#ba0d16" stroke-width="2"/></g><g transform="translate(61,249.16) scale(0.82)"><path d="M12 3.2l7.6 4.4v8.8L12 20.8l-7.6-4.4V7.6z" fill="none" stroke="#605e5c" stroke-width="1.6" stroke-linecap="round" stroke-linejoin="round"/><path d="M4.6 7.8l7.4 4.3 7.4-4.3M12 12.1v8.6" fill="none" stroke="#605e5c" stroke-width="1.6" stroke-linecap="round" stroke-linejoin="round"/></g><text x="89" y="263.25" font-size="12.5" font-weight="600" fill="#242424">Container</text><rect x="213.2" y="250.00" width="79.80000000000001" height="18" rx="9" fill="#ffffff" stroke="#ba0d16" stroke-width="1"/><circle cx="224.2" cy="259" r="6" fill="#c50f18"/><text x="233.2" y="262.57" font-size="10.5" fill="#323130">Unhealthy</text><line x1="56" y1="279" x2="300" y2="279" stroke="#e6e4e2"/><circle cx="71" cy="294" r="6" fill="#c50f18"/><g transform="translate(87,287) scale(0.875)">
    <rect x="1.5" y="8" width="2.6" height="6" rx="0.6" fill="#8661c5"/>
    <rect x="5.7" y="4.5" width="2.6" height="9.5" rx="0.6" fill="#0078D4"/>
    <rect x="9.9" y="6.5" width="2.6" height="7.5" rx="0.6" fill="#3fb0ac"/>
  </g><text x="107" y="297.5" font-size="10.5" fill="#242424">Defender for</text><text x="289" y="297.5" font-size="10.5" font-weight="600" fill="#c50f18" text-anchor="end">106</text><line x1="65" y1="303" x2="291" y2="303" stroke="#e6e4e2" stroke-opacity="0.7"/><circle cx="71" cy="312" r="6" fill="#4c9a2a"/><path d="M68.3 312 l1.9 1.9 l3.4 -3.9" fill="none" stroke="#fff" stroke-width="1.4" stroke-linecap="round" stroke-linejoin="round"/><g transform="translate(87,305) scale(0.875)">
    <rect x="1.5" y="8" width="2.6" height="6" rx="0.6" fill="#8661c5"/>
    <rect x="5.7" y="4.5" width="2.6" height="9.5" rx="0.6" fill="#0078D4"/>
    <rect x="9.9" y="6.5" width="2.6" height="7.5" rx="0.6" fill="#3fb0ac"/>
  </g><text x="107" y="315.5" font-size="10.5" fill="#242424">Containers alerts</text><text x="289" y="315.5" font-size="10.5" font-weight="400" fill="#605e5c" text-anchor="end">0</text><line x1="65" y1="321" x2="291" y2="321" stroke="#e6e4e2" stroke-opacity="0.7"/><circle cx="71" cy="330" r="6" fill="#4c9a2a"/><path d="M68.3 330 l1.9 1.9 l3.4 -3.9" fill="none" stroke="#fff" stroke-width="1.4" stroke-linecap="round" stroke-linejoin="round"/><g transform="translate(87,323) scale(0.875)">
    <rect x="1.5" y="8" width="2.6" height="6" rx="0.6" fill="#8661c5"/>
    <rect x="5.7" y="4.5" width="2.6" height="9.5" rx="0.6" fill="#0078D4"/>
    <rect x="9.9" y="6.5" width="2.6" height="7.5" rx="0.6" fill="#3fb0ac"/>
  </g><text x="107" y="333.5" font-size="10.5" fill="#242424">Image vulnerability</text><text x="289" y="333.5" font-size="10.5" font-weight="400" fill="#605e5c" text-anchor="end">1</text><line x1="65" y1="339" x2="291" y2="339" stroke="#e6e4e2" stroke-opacity="0.7"/><circle cx="71" cy="348" r="6" fill="#4c9a2a"/><path d="M68.3 348 l1.9 1.9 l3.4 -3.9" fill="none" stroke="#fff" stroke-width="1.4" stroke-linecap="round" stroke-linejoin="round"/><g transform="translate(87,341) scale(0.875)">
    <rect x="1.5" y="8" width="2.6" height="6" rx="0.6" fill="#8661c5"/>
    <rect x="5.7" y="4.5" width="2.6" height="9.5" rx="0.6" fill="#0078D4"/>
    <rect x="9.9" y="6.5" width="2.6" height="7.5" rx="0.6" fill="#3fb0ac"/>
  </g><text x="107" y="351.5" font-size="10.5" fill="#242424">Runtime threat</text><text x="289" y="351.5" font-size="10.5" font-weight="400" fill="#605e5c" text-anchor="end">1</text>
<g filter="url(#cs)"><rect x="331" y="242" width="246" height="83" rx="10" fill="#f2f8f2" stroke="#a0d8a0" stroke-width="2"/></g><g transform="translate(337,249.16) scale(0.82)"><path d="M12 3l7 2.6v5.2c0 4.6-3 7.9-7 9.2-4-1.3-7-4.6-7-9.2V5.6z" fill="none" stroke="#605e5c" stroke-width="1.6" stroke-linecap="round" stroke-linejoin="round"/><path d="M8.8 12.2l2.2 2.2 4-4.6" fill="none" stroke="#605e5c" stroke-width="1.6" stroke-linecap="round" stroke-linejoin="round"/></g><text x="365" y="263.25" font-size="12.5" font-weight="600" fill="#242424">Shared WAF</text><rect x="501.6" y="250.00" width="67.4" height="18" rx="9" fill="#ffffff" stroke="#a0d8a0" stroke-width="1"/><circle cx="512.6" cy="259" r="6" fill="#4c9a2a"/><path d="M509.90000000000003 259 l1.9 1.9 l3.4 -3.9" fill="none" stroke="#fff" stroke-width="1.4" stroke-linecap="round" stroke-linejoin="round"/><text x="521.6" y="262.57" font-size="10.5" fill="#323130">Healthy</text><line x1="332" y1="279" x2="576" y2="279" stroke="#e6e4e2"/><circle cx="347" cy="294" r="6" fill="#4c9a2a"/><path d="M344.3 294 l1.9 1.9 l3.4 -3.9" fill="none" stroke="#fff" stroke-width="1.4" stroke-linecap="round" stroke-linejoin="round"/><g transform="translate(363,287) scale(0.875)">
    <rect x="1.5" y="8" width="2.6" height="6" rx="0.6" fill="#8661c5"/>
    <rect x="5.7" y="4.5" width="2.6" height="9.5" rx="0.6" fill="#0078D4"/>
    <rect x="9.9" y="6.5" width="2.6" height="7.5" rx="0.6" fill="#3fb0ac"/>
  </g><text x="383" y="297.5" font-size="10.5" fill="#242424">WAF block-rate</text><text x="565" y="297.5" font-size="10.5" font-weight="400" fill="#605e5c" text-anchor="end">1</text><line x1="341" y1="303" x2="567" y2="303" stroke="#e6e4e2" stroke-opacity="0.7"/><circle cx="347" cy="312" r="6" fill="#4c9a2a"/><path d="M344.3 312 l1.9 1.9 l3.4 -3.9" fill="none" stroke="#fff" stroke-width="1.4" stroke-linecap="round" stroke-linejoin="round"/><g transform="translate(363,305) scale(0.875)">
    <rect x="1.5" y="8" width="2.6" height="6" rx="0.6" fill="#8661c5"/>
    <rect x="5.7" y="4.5" width="2.6" height="9.5" rx="0.6" fill="#0078D4"/>
    <rect x="9.9" y="6.5" width="2.6" height="7.5" rx="0.6" fill="#3fb0ac"/>
  </g><text x="383" y="315.5" font-size="10.5" fill="#242424">+ ruleset signal</text><text x="565" y="315.5" font-size="10.5" font-weight="400" fill="#605e5c" text-anchor="end">0</text>
<g filter="url(#cs)"><rect x="607" y="242" width="246" height="119" rx="10" fill="#f2f8f2" stroke="#a0d8a0" stroke-width="2"/></g><g transform="translate(613,249.16) scale(0.82)"><path d="M12 3l7 2.6v5.2c0 4.6-3 7.9-7 9.2-4-1.3-7-4.6-7-9.2V5.6z" fill="none" stroke="#605e5c" stroke-width="1.6" stroke-linecap="round" stroke-linejoin="round"/><path d="M8.8 12.2l2.2 2.2 4-4.6" fill="none" stroke="#605e5c" stroke-width="1.6" stroke-linecap="round" stroke-linejoin="round"/></g><text x="641" y="263.25" font-size="12.5" font-weight="600" fill="#242424">Shared firewall</text><rect x="777.6" y="250.00" width="67.4" height="18" rx="9" fill="#ffffff" stroke="#a0d8a0" stroke-width="1"/><circle cx="788.6" cy="259" r="6" fill="#4c9a2a"/><path d="M785.9 259 l1.9 1.9 l3.4 -3.9" fill="none" stroke="#fff" stroke-width="1.4" stroke-linecap="round" stroke-linejoin="round"/><text x="797.6" y="262.57" font-size="10.5" fill="#323130">Healthy</text><line x1="608" y1="279" x2="852" y2="279" stroke="#e6e4e2"/><circle cx="623" cy="294" r="6" fill="#4c9a2a"/><path d="M620.3 294 l1.9 1.9 l3.4 -3.9" fill="none" stroke="#fff" stroke-width="1.4" stroke-linecap="round" stroke-linejoin="round"/><g transform="translate(639,287) scale(0.875)">
    <rect x="1.5" y="8" width="2.6" height="6" rx="0.6" fill="#8661c5"/>
    <rect x="5.7" y="4.5" width="2.6" height="9.5" rx="0.6" fill="#0078D4"/>
    <rect x="9.9" y="6.5" width="2.6" height="7.5" rx="0.6" fill="#3fb0ac"/>
  </g><text x="659" y="297.5" font-size="10.5" fill="#242424">Azure Firewall</text><text x="841" y="297.5" font-size="10.5" font-weight="400" fill="#605e5c" text-anchor="end">0</text><line x1="617" y1="303" x2="843" y2="303" stroke="#e6e4e2" stroke-opacity="0.7"/><circle cx="623" cy="312" r="6" fill="#4c9a2a"/><path d="M620.3 312 l1.9 1.9 l3.4 -3.9" fill="none" stroke="#fff" stroke-width="1.4" stroke-linecap="round" stroke-linejoin="round"/><g transform="translate(639,305) scale(0.875)">
    <rect x="1.5" y="8" width="2.6" height="6" rx="0.6" fill="#8661c5"/>
    <rect x="5.7" y="4.5" width="2.6" height="9.5" rx="0.6" fill="#0078D4"/>
    <rect x="9.9" y="6.5" width="2.6" height="7.5" rx="0.6" fill="#3fb0ac"/>
  </g><text x="659" y="315.5" font-size="10.5" fill="#242424">FirewallHealth</text><text x="841" y="315.5" font-size="10.5" font-weight="400" fill="#605e5c" text-anchor="end">2</text><line x1="617" y1="321" x2="843" y2="321" stroke="#e6e4e2" stroke-opacity="0.7"/><circle cx="623" cy="330" r="6" fill="#4c9a2a"/><path d="M620.3 330 l1.9 1.9 l3.4 -3.9" fill="none" stroke="#fff" stroke-width="1.4" stroke-linecap="round" stroke-linejoin="round"/><g transform="translate(639,323) scale(0.875)">
    <rect x="1.5" y="8" width="2.6" height="6" rx="0.6" fill="#8661c5"/>
    <rect x="5.7" y="4.5" width="2.6" height="9.5" rx="0.6" fill="#0078D4"/>
    <rect x="9.9" y="6.5" width="2.6" height="7.5" rx="0.6" fill="#3fb0ac"/>
  </g><text x="659" y="333.5" font-size="10.5" fill="#242424">SNAT port</text><text x="841" y="333.5" font-size="10.5" font-weight="400" fill="#605e5c" text-anchor="end">0</text><line x1="617" y1="339" x2="843" y2="339" stroke="#e6e4e2" stroke-opacity="0.7"/><circle cx="623" cy="348" r="6" fill="#4c9a2a"/><path d="M620.3 348 l1.9 1.9 l3.4 -3.9" fill="none" stroke="#fff" stroke-width="1.4" stroke-linecap="round" stroke-linejoin="round"/><g transform="translate(639,341) scale(0.875)">
    <rect x="1.5" y="8" width="2.6" height="6" rx="0.6" fill="#8661c5"/>
    <rect x="5.7" y="4.5" width="2.6" height="9.5" rx="0.6" fill="#0078D4"/>
    <rect x="9.9" y="6.5" width="2.6" height="7.5" rx="0.6" fill="#3fb0ac"/>
  </g><text x="659" y="351.5" font-size="10.5" fill="#242424">utilization signal</text><text x="841" y="351.5" font-size="10.5" font-weight="400" fill="#605e5c" text-anchor="end">0</text>
<g filter="url(#cs)"><rect x="883" y="242" width="246" height="58" rx="10" fill="#f2f8f2" stroke="#a0d8a0" stroke-width="2"/></g><g transform="translate(889,261.16) scale(0.82)"><path d="M12 3.2l7.6 4.4v8.8L12 20.8l-7.6-4.4V7.6z" fill="none" stroke="#605e5c" stroke-width="1.6" stroke-linecap="round" stroke-linejoin="round"/><path d="M4.6 7.8l7.4 4.3 7.4-4.3M12 12.1v8.6" fill="none" stroke="#605e5c" stroke-width="1.6" stroke-linecap="round" stroke-linejoin="round"/></g><text x="917" y="275.25" font-size="12.5" font-weight="600" fill="#242424">Kubernetes cluster</text><rect x="1053.6" y="262.00" width="67.4" height="18" rx="9" fill="#ffffff" stroke="#a0d8a0" stroke-width="1"/><circle cx="1064.6" cy="271" r="6" fill="#4c9a2a"/><path d="M1061.8999999999999 271 l1.9 1.9 l3.4 -3.9" fill="none" stroke="#fff" stroke-width="1.4" stroke-linecap="round" stroke-linejoin="round"/><text x="1073.6" y="274.57" font-size="10.5" fill="#323130">Healthy</text>
<g filter="url(#cs)"><rect x="469" y="96" width="246" height="58" rx="10" fill="#fbf2e7" stroke="#db7500" stroke-width="2"/></g><g transform="translate(475,115.16) scale(0.82)"><circle cx="12" cy="12" r="8.4" fill="none" stroke="#605e5c" stroke-width="1.6" stroke-linecap="round" stroke-linejoin="round"/><path d="M4.2 12h3l2-3.6 2.8 7.2 1.8-3.6h4" fill="none" stroke="#605e5c" stroke-width="1.6" stroke-linecap="round" stroke-linejoin="round"/></g><text x="503" y="124.25" font-size="12.5" font-weight="600" fill="#242424">Platform root</text><text x="503" y="135.06" font-size="9" fill="#605e5c">shared K8s offering</text><rect x="633.4" y="116.00" width="73.6" height="18" rx="9" fill="#ffffff" stroke="#db7500" stroke-width="1"/><circle cx="644.4" cy="125" r="6" fill="#c26a00"/><text x="653.4" y="128.57" font-size="10.5" fill="#323130">Degraded</text>
</svg>