<svg xmlns="http://www.w3.org/2000/svg" width="1620" height="550" viewBox="0 0 1620 550" font-family="Segoe UI, -apple-system, BlinkMacSystemFont, Helvetica, Arial, sans-serif">
<defs><filter id="cs" x="-20%" y="-20%" width="140%" height="140%"><feDropShadow dx="0" dy="1" stdDeviation="1.3" flood-color="#000" flood-opacity="0.10"/></filter>
<marker id="ar-healthy" viewBox="0 0 10 10" refX="8" refY="5" markerWidth="7" markerHeight="7" orient="auto-start-reverse"><path d="M1 1 L9 5 L1 9" fill="none" stroke="#a0d8a0" stroke-width="1.6" stroke-linecap="round" stroke-linejoin="round"/></marker><marker id="ar-degraded" viewBox="0 0 10 10" refX="8" refY="5" markerWidth="7" markerHeight="7" orient="auto-start-reverse"><path d="M1 1 L9 5 L1 9" fill="none" stroke="#db7500" stroke-width="1.6" stroke-linecap="round" stroke-linejoin="round"/></marker><marker id="ar-unhealthy" viewBox="0 0 10 10" refX="8" refY="5" markerWidth="7" markerHeight="7" orient="auto-start-reverse"><path d="M1 1 L9 5 L1 9" fill="none" stroke="#ba0d16" stroke-width="1.6" stroke-linecap="round" stroke-linejoin="round"/></marker><marker id="ar-unknown" viewBox="0 0 10 10" refX="8" refY="5" markerWidth="7" markerHeight="7" orient="auto-start-reverse"><path d="M1 1 L9 5 L1 9" fill="none" stroke="#c8c6c4" stroke-width="1.6" stroke-linecap="round" stroke-linejoin="round"/></marker><marker id="ar-alt" viewBox="0 0 10 10" refX="8" refY="5" markerWidth="7" markerHeight="7" orient="auto-start-reverse"><path d="M1 1 L9 5 L1 9" fill="none" stroke="#8661c5" stroke-width="1.6" stroke-linecap="round" stroke-linejoin="round"/></marker><marker id="ar-signal" viewBox="0 0 10 10" refX="8" refY="5" markerWidth="7" markerHeight="7" orient="auto-start-reverse"><path d="M1 1 L9 5 L1 9" fill="none" stroke="#0078D4" stroke-width="1.6" stroke-linecap="round" stroke-linejoin="round"/></marker>
</defs><rect width="1620" height="550" fill="#ffffff"/>
<rect x="0" y="78" width="1620" height="146" fill="#ffffff"/>
<line x1="0" y1="78" x2="1620" y2="78" stroke="#e6e4e2"/>
<text x="1444" y="156" font-size="13" font-weight="700" fill="#323130">Workload root</text>
<rect x="0" y="224" width="1620" height="181" fill="#faf9f8"/>
<line x1="0" y1="224" x2="1620" y2="224" stroke="#e6e4e2"/>
<text x="1444" y="312.5" font-size="13" font-weight="700" fill="#323130">Business &amp;</text>
<text x="1444" y="329.5" font-size="13" font-weight="700" fill="#323130">user flows</text>
<rect x="0" y="405" width="1620" height="127" fill="#ffffff"/>
<line x1="0" y1="405" x2="1620" y2="405" stroke="#e6e4e2"/>
<text x="1444" y="466.5" font-size="13" font-weight="700" fill="#323130">Application</text>
<text x="1444" y="483.5" font-size="13" font-weight="700" fill="#323130">components</text>
<line x1="0" y1="549.5" x2="1620" y2="549.5" stroke="#e6e4e2"/>
<text x="40" y="34" font-size="18" font-weight="700" fill="#242424">Add operational quality signals to the workload model</text>
<text x="40" y="52" font-size="12" fill="#605e5c">Signals live inside each entity; health rolls up to the workload root.</text>
<text x="1205.2" y="48" font-size="11.5" font-weight="600" fill="#605e5c" text-anchor="end">Legend</text><circle cx="1223.2" cy="44" r="4.5" fill="#4c9a2a"/><text x="1233.2" y="48" font-size="11.5" fill="#323130">Healthy</text><circle cx="1294" cy="44" r="4.5" fill="#c26a00"/><text x="1304" y="48" font-size="11.5" fill="#323130">Degraded</text><circle cx="1371.2" cy="44" r="4.5" fill="#c50f18"/><text x="1381.2" y="48" font-size="11.5" fill="#323130">Unhealthy</text><circle cx="1454.8" cy="44" r="4.5" fill="#8a8886"/><text x="1464.8" y="48" font-size="11.5" fill="#323130">Unknown</text><g transform="translate(1519.6,37) scale(0.875)">
    <rect x="1.5" y="8" width="2.6" height="6" rx="0.6" fill="#8661c5"/>
    <rect x="5.7" y="4.5" width="2.6" height="9.5" rx="0.6" fill="#0078D4"/>
    <rect x="9.9" y="6.5" width="2.6" height="7.5" rx="0.6" fill="#3fb0ac"/>
  </g><text x="1537.6" y="48" font-size="11.5" fill="#323130">Metric</text>
<g fill="none" stroke-linecap="butt" stroke-linejoin="round">
<path d="M268.5 423 V300" stroke="#a0d8a0" stroke-width="1.7"/>
<path d="M341.0 423 V300" stroke="#a0d8a0" stroke-width="1.7"/>
<path d="M730 423 L730.0 417.0 Q730 411 724.0 411.0 L386.0 411.0 Q379 411 379.0 404.0 L379 300" stroke="#a0d8a0" stroke-width="1.7"/>
<path d="M1119.0 423 V300" stroke="#a0d8a0" stroke-width="1.7"/>
<path d="M1191.5 423 V300" stroke="#a0d8a0" stroke-width="1.7"/>
<path d="M270 242 L270.0 236.0 Q270 230 276.0 230.0 L614.0 230.0 Q621 230 621.0 223.0 L621 154" stroke="#a0d8a0" stroke-width="1.7"/>
<path d="M1190 242 L1190.0 237.5 Q1190 233 1185.5 233.0 L843.0 233.0 Q836 233 836.0 226.0 L836 154" stroke="#a0d8a0" stroke-width="1.7"/>
<path d="M730 242 V154" stroke="#db7500" stroke-width="1.6" stroke-dasharray="5 4"/>
<g stroke="none"><rect x="655.3" y="160.0" width="149.4" height="20" rx="10" fill="#ffffff" stroke="#d8d6d4" stroke-width="1"/><text x="730.0" y="173.6" font-size="10.5" font-weight="600" fill="#242424" text-anchor="middle">suppressed propagation</text></g>
</g>
<g filter="url(#cs)"><rect x="55" y="423" width="246" height="65" rx="10" fill="#f2f8f2" stroke="#a0d8a0" stroke-width="2"/></g><g transform="translate(61,430.16) scale(0.82)"><circle cx="12" cy="12" r="8.4" fill="none" stroke="#605e5c" stroke-width="1.6" stroke-linecap="round" stroke-linejoin="round"/><path d="M3.6 12h16.8M12 3.6c3 3 3 13.8 0 16.8M12 3.6c-3 3-3 13.8 0 16.8" fill="none" stroke="#605e5c" stroke-width="1.6" stroke-linecap="round" stroke-linejoin="round"/></g><text x="89" y="444.25" font-size="12.5" font-weight="600" fill="#242424">Web frontend</text><rect x="225.6" y="431.00" width="67.4" height="18" rx="9" fill="#ffffff" stroke="#a0d8a0" stroke-width="1"/><circle cx="236.6" cy="440" r="6" fill="#4c9a2a"/><path d="M233.9 440 l1.9 1.9 l3.4 -3.9" fill="none" stroke="#fff" stroke-width="1.4" stroke-linecap="round" stroke-linejoin="round"/><text x="245.6" y="443.57" font-size="10.5" fill="#323130">Healthy</text><line x1="56" y1="460" x2="300" y2="460" stroke="#e6e4e2"/><circle cx="71" cy="475" r="6" fill="#4c9a2a"/><path d="M68.3 475 l1.9 1.9 l3.4 -3.9" fill="none" stroke="#fff" stroke-width="1.4" stroke-linecap="round" stroke-linejoin="round"/><g transform="translate(87,468) scale(0.875)">
    <rect x="1.5" y="8" width="2.6" height="6" rx="0.6" fill="#8661c5"/>
    <rect x="5.7" y="4.5" width="2.6" height="9.5" rx="0.6" fill="#0078D4"/>
    <rect x="9.9" y="6.5" width="2.6" height="7.5" rx="0.6" fill="#3fb0ac"/>
  </g><text x="107" y="478.5" font-size="10.5" fill="#242424">Web latency</text><text x="289" y="478.5" font-size="10.5" font-weight="400" fill="#605e5c" text-anchor="end">2</text>
<g filter="url(#cs)"><rect x="331" y="423" width="246" height="65" rx="10" fill="#f2f8f2" stroke="#a0d8a0" stroke-width="2"/></g><g transform="translate(337,430.16) scale(0.82)"><rect x="4" y="4.5" width="16" height="6" rx="1.2" fill="none" stroke="#605e5c" stroke-width="1.6" stroke-linecap="round" stroke-linejoin="round"/><rect x="4" y="13.5" width="16" height="6" rx="1.2" fill="none" stroke="#605e5c" stroke-width="1.6" stroke-linecap="round" stroke-linejoin="round"/><path d="M7.2 7.5h.01M7.2 16.5h.01" fill="none" stroke="#605e5c" stroke-width="1.6" stroke-linecap="round" stroke-linejoin="round"/></g><text x="365" y="444.25" font-size="12.5" font-weight="600" fill="#242424">App hosting</text><rect x="501.6" y="431.00" width="67.4" height="18" rx="9" fill="#ffffff" stroke="#a0d8a0" stroke-width="1"/><circle cx="512.6" cy="440" r="6" fill="#4c9a2a"/><path d="M509.90000000000003 440 l1.9 1.9 l3.4 -3.9" fill="none" stroke="#fff" stroke-width="1.4" stroke-linecap="round" stroke-linejoin="round"/><text x="521.6" y="443.57" font-size="10.5" fill="#323130">Healthy</text><line x1="332" y1="460" x2="576" y2="460" stroke="#e6e4e2"/><circle cx="347" cy="475" r="6" fill="#4c9a2a"/><path d="M344.3 475 l1.9 1.9 l3.4 -3.9" fill="none" stroke="#fff" stroke-width="1.4" stroke-linecap="round" stroke-linejoin="round"/><g transform="translate(363,468) scale(0.875)">
    <rect x="1.5" y="8" width="2.6" height="6" rx="0.6" fill="#8661c5"/>
    <rect x="5.7" y="4.5" width="2.6" height="9.5" rx="0.6" fill="#0078D4"/>
    <rect x="9.9" y="6.5" width="2.6" height="7.5" rx="0.6" fill="#3fb0ac"/>
  </g><text x="383" y="478.5" font-size="10.5" fill="#242424">CPU</text><text x="565" y="478.5" font-size="10.5" font-weight="400" fill="#605e5c" text-anchor="end">0</text>
<g filter="url(#cs)"><rect x="607" y="423" width="246" height="65" rx="10" fill="#f2f8f2" stroke="#a0d8a0" stroke-width="2"/></g><g transform="translate(613,430.16) scale(0.82)"><ellipse cx="12" cy="6" rx="7" ry="2.8" fill="none" stroke="#605e5c" stroke-width="1.6" stroke-linecap="round" stroke-linejoin="round"/><path d="M5 6v12c0 1.55 3.13 2.8 7 2.8s7-1.25 7-2.8V6" fill="none" stroke="#605e5c" stroke-width="1.6" stroke-linecap="round" stroke-linejoin="round"/><path d="M5 12c0 1.55 3.13 2.8 7 2.8s7-1.25 7-2.8" fill="none" stroke="#605e5c" stroke-width="1.6" stroke-linecap="round" stroke-linejoin="round"/></g><text x="641" y="444.25" font-size="12.5" font-weight="600" fill="#242424">Database</text><rect x="777.6" y="431.00" width="67.4" height="18" rx="9" fill="#ffffff" stroke="#a0d8a0" stroke-width="1"/><circle cx="788.6" cy="440" r="6" fill="#4c9a2a"/><path d="M785.9 440 l1.9 1.9 l3.4 -3.9" fill="none" stroke="#fff" stroke-width="1.4" stroke-linecap="round" stroke-linejoin="round"/><text x="797.6" y="443.57" font-size="10.5" fill="#323130">Healthy</text><line x1="608" y1="460" x2="852" y2="460" stroke="#e6e4e2"/><circle cx="623" cy="475" r="6" fill="#4c9a2a"/><path d="M620.3 475 l1.9 1.9 l3.4 -3.9" fill="none" stroke="#fff" stroke-width="1.4" stroke-linecap="round" stroke-linejoin="round"/><g transform="translate(639,468) scale(0.875)">
    <rect x="1.5" y="8" width="2.6" height="6" rx="0.6" fill="#8661c5"/>
    <rect x="5.7" y="4.5" width="2.6" height="9.5" rx="0.6" fill="#0078D4"/>
    <rect x="9.9" y="6.5" width="2.6" height="7.5" rx="0.6" fill="#3fb0ac"/>
  </g><text x="659" y="478.5" font-size="10.5" fill="#242424">Connection</text><text x="841" y="478.5" font-size="10.5" font-weight="400" fill="#605e5c" text-anchor="end">2</text>
<g filter="url(#cs)"><rect x="883" y="423" width="246" height="65" rx="10" fill="#f2f8f2" stroke="#a0d8a0" stroke-width="2"/></g><g transform="translate(889,430.16) scale(0.82)"><rect x="4" y="5" width="16" height="3" rx="1" fill="none" stroke="#605e5c" stroke-width="1.6" stroke-linecap="round" stroke-linejoin="round"/><rect x="4" y="10.5" width="16" height="3" rx="1" fill="none" stroke="#605e5c" stroke-width="1.6" stroke-linecap="round" stroke-linejoin="round"/><rect x="4" y="16" width="10" height="3" rx="1" fill="none" stroke="#605e5c" stroke-width="1.6" stroke-linecap="round" stroke-linejoin="round"/></g><text x="917" y="444.25" font-size="12.5" font-weight="600" fill="#242424">Order queue</text><rect x="1053.6" y="431.00" width="67.4" height="18" rx="9" fill="#ffffff" stroke="#a0d8a0" stroke-width="1"/><circle cx="1064.6" cy="440" r="6" fill="#4c9a2a"/><path d="M1061.8999999999999 440 l1.9 1.9 l3.4 -3.9" fill="none" stroke="#fff" stroke-width="1.4" stroke-linecap="round" stroke-linejoin="round"/><text x="1073.6" y="443.57" font-size="10.5" fill="#323130">Healthy</text><line x1="884" y1="460" x2="1128" y2="460" stroke="#e6e4e2"/><circle cx="899" cy="475" r="6" fill="#4c9a2a"/><path d="M896.3 475 l1.9 1.9 l3.4 -3.9" fill="none" stroke="#fff" stroke-width="1.4" stroke-linecap="round" stroke-linejoin="round"/><g transform="translate(915,468) scale(0.875)">
    <rect x="1.5" y="8" width="2.6" height="6" rx="0.6" fill="#8661c5"/>
    <rect x="5.7" y="4.5" width="2.6" height="9.5" rx="0.6" fill="#0078D4"/>
    <rect x="9.9" y="6.5" width="2.6" height="7.5" rx="0.6" fill="#3fb0ac"/>
  </g><text x="935" y="478.5" font-size="10.5" fill="#242424">Queue depth</text><text x="1117" y="478.5" font-size="10.5" font-weight="400" fill="#605e5c" text-anchor="end">1</text>
<g filter="url(#cs)"><rect x="1159" y="423" width="246" height="65" rx="10" fill="#f2f8f2" stroke="#a0d8a0" stroke-width="2"/></g><g transform="translate(1165,430.16) scale(0.82)"><path d="M12 3.2l7.6 4.4v8.8L12 20.8l-7.6-4.4V7.6z" fill="none" stroke="#605e5c" stroke-width="1.6" stroke-linecap="round" stroke-linejoin="round"/><path d="M4.6 7.8l7.4 4.3 7.4-4.3M12 12.1v8.6" fill="none" stroke="#605e5c" stroke-width="1.6" stroke-linecap="round" stroke-linejoin="round"/></g><text x="1193" y="444.25" font-size="12.5" font-weight="600" fill="#242424">Shipping service</text><rect x="1329.6" y="431.00" width="67.4" height="18" rx="9" fill="#ffffff" stroke="#a0d8a0" stroke-width="1"/><circle cx="1340.6" cy="440" r="6" fill="#4c9a2a"/><path d="M1337.8999999999999 440 l1.9 1.9 l3.4 -3.9" fill="none" stroke="#fff" stroke-width="1.4" stroke-linecap="round" stroke-linejoin="round"/><text x="1349.6" y="443.57" font-size="10.5" fill="#323130">Healthy</text><line x1="1160" y1="460" x2="1404" y2="460" stroke="#e6e4e2"/><circle cx="1175" cy="475" r="6" fill="#4c9a2a"/><path d="M1172.3 475 l1.9 1.9 l3.4 -3.9" fill="none" stroke="#fff" stroke-width="1.4" stroke-linecap="round" stroke-linejoin="round"/><g transform="translate(1191,468) scale(0.875)">
    <rect x="1.5" y="8" width="2.6" height="6" rx="0.6" fill="#8661c5"/>
    <rect x="5.7" y="4.5" width="2.6" height="9.5" rx="0.6" fill="#0078D4"/>
    <rect x="9.9" y="6.5" width="2.6" height="7.5" rx="0.6" fill="#3fb0ac"/>
  </g><text x="1211" y="478.5" font-size="10.5" fill="#242424">Carrier API</text><text x="1393" y="478.5" font-size="10.5" font-weight="400" fill="#605e5c" text-anchor="end">0</text>
<g filter="url(#cs)"><rect x="147" y="242" width="246" height="58" rx="10" fill="#f2f8f2" stroke="#a0d8a0" stroke-width="2"/></g><g transform="translate(153,261.16) scale(0.82)"><circle cx="5.5" cy="6" r="2" fill="none" stroke="#605e5c" stroke-width="1.6" stroke-linecap="round" stroke-linejoin="round"/><circle cx="5.5" cy="18" r="2" fill="none" stroke="#605e5c" stroke-width="1.6" stroke-linecap="round" stroke-linejoin="round"/><circle cx="18.5" cy="12" r="2" fill="none" stroke="#605e5c" stroke-width="1.6" stroke-linecap="round" stroke-linejoin="round"/><path d="M7.5 6h3a4 4 0 0 1 4 4M7.5 18h3a4 4 0 0 0 4-4" fill="none" stroke="#605e5c" stroke-width="1.6" stroke-linecap="round" stroke-linejoin="round"/></g><text x="181" y="275.25" font-size="12.5" font-weight="600" fill="#242424">Shop and commerce</text><rect x="317.6" y="262.00" width="67.4" height="18" rx="9" fill="#ffffff" stroke="#a0d8a0" stroke-width="1"/><circle cx="328.6" cy="271" r="6" fill="#4c9a2a"/><path d="M325.90000000000003 271 l1.9 1.9 l3.4 -3.9" fill="none" stroke="#fff" stroke-width="1.4" stroke-linecap="round" stroke-linejoin="round"/><text x="337.6" y="274.57" font-size="10.5" fill="#323130">Healthy</text>
<g filter="url(#cs)"><rect x="1067" y="242" width="246" height="58" rx="10" fill="#f2f8f2" stroke="#a0d8a0" stroke-width="2"/></g><g transform="translate(1073,261.16) scale(0.82)"><path d="M12 3.2l7.6 4.4v8.8L12 20.8l-7.6-4.4V7.6z" fill="none" stroke="#605e5c" stroke-width="1.6" stroke-linecap="round" stroke-linejoin="round"/><path d="M4.6 7.8l7.4 4.3 7.4-4.3M12 12.1v8.6" fill="none" stroke="#605e5c" stroke-width="1.6" stroke-linecap="round" stroke-linejoin="round"/></g><text x="1101" y="275.25" font-size="12.5" font-weight="600" fill="#242424">Logistics</text><rect x="1237.6" y="262.00" width="67.4" height="18" rx="9" fill="#ffffff" stroke="#a0d8a0" stroke-width="1"/><circle cx="1248.6" cy="271" r="6" fill="#4c9a2a"/><path d="M1245.8999999999999 271 l1.9 1.9 l3.4 -3.9" fill="none" stroke="#fff" stroke-width="1.4" stroke-linecap="round" stroke-linejoin="round"/><text x="1257.6" y="274.57" font-size="10.5" fill="#323130">Healthy</text>
<g filter="url(#cs)"><rect x="607" y="242" width="246" height="119" rx="10" fill="#fbf2e7" stroke="#db7500" stroke-width="2"/></g><g transform="translate(613,249.16) scale(0.82)"><path d="M12 3.2l7.6 4.4v8.8L12 20.8l-7.6-4.4V7.6z" fill="none" stroke="#605e5c" stroke-width="1.6" stroke-linecap="round" stroke-linejoin="round"/><path d="M4.6 7.8l7.4 4.3 7.4-4.3M12 12.1v8.6" fill="none" stroke="#605e5c" stroke-width="1.6" stroke-linecap="round" stroke-linejoin="round"/></g><text x="641" y="263.25" font-size="12.5" font-weight="600" fill="#242424">Load tests</text><rect x="771.4" y="250.00" width="73.6" height="18" rx="9" fill="#ffffff" stroke="#db7500" stroke-width="1"/><circle cx="782.4" cy="259" r="6" fill="#c26a00"/><text x="791.4" y="262.57" font-size="10.5" fill="#323130">Degraded</text><line x1="608" y1="279" x2="852" y2="279" stroke="#e6e4e2"/><circle cx="623" cy="294" r="6" fill="#c26a00"/><g transform="translate(639,287) scale(0.875)">
    <rect x="1.5" y="8" width="2.6" height="6" rx="0.6" fill="#8661c5"/>
    <rect x="5.7" y="4.5" width="2.6" height="9.5" rx="0.6" fill="#0078D4"/>
    <rect x="9.9" y="6.5" width="2.6" height="7.5" rx="0.6" fill="#3fb0ac"/>
  </g><text x="659" y="297.5" font-size="10.5" fill="#242424">Nightly load test</text><text x="841" y="297.5" font-size="10.5" font-weight="600" fill="#c26a00" text-anchor="end">9</text><line x1="617" y1="303" x2="843" y2="303" stroke="#e6e4e2" stroke-opacity="0.7"/><circle cx="623" cy="312" r="6" fill="#4c9a2a"/><path d="M620.3 312 l1.9 1.9 l3.4 -3.9" fill="none" stroke="#fff" stroke-width="1.4" stroke-linecap="round" stroke-linejoin="round"/><g transform="translate(639,305) scale(0.875)">
    <rect x="1.5" y="8" width="2.6" height="6" rx="0.6" fill="#8661c5"/>
    <rect x="5.7" y="4.5" width="2.6" height="9.5" rx="0.6" fill="#0078D4"/>
    <rect x="9.9" y="6.5" width="2.6" height="7.5" rx="0.6" fill="#3fb0ac"/>
  </g><text x="659" y="315.5" font-size="10.5" fill="#242424">latency signal</text><text x="841" y="315.5" font-size="10.5" font-weight="400" fill="#605e5c" text-anchor="end">1</text><line x1="617" y1="321" x2="843" y2="321" stroke="#e6e4e2" stroke-opacity="0.7"/><circle cx="623" cy="330" r="6" fill="#4c9a2a"/><path d="M620.3 330 l1.9 1.9 l3.4 -3.9" fill="none" stroke="#fff" stroke-width="1.4" stroke-linecap="round" stroke-linejoin="round"/><g transform="translate(639,323) scale(0.875)">
    <rect x="1.5" y="8" width="2.6" height="6" rx="0.6" fill="#8661c5"/>
    <rect x="5.7" y="4.5" width="2.6" height="9.5" rx="0.6" fill="#0078D4"/>
    <rect x="9.9" y="6.5" width="2.6" height="7.5" rx="0.6" fill="#3fb0ac"/>
  </g><text x="659" y="333.5" font-size="10.5" fill="#242424">Nightly load test</text><text x="841" y="333.5" font-size="10.5" font-weight="400" fill="#605e5c" text-anchor="end">1</text><line x1="617" y1="339" x2="843" y2="339" stroke="#e6e4e2" stroke-opacity="0.7"/><circle cx="623" cy="348" r="6" fill="#4c9a2a"/><path d="M620.3 348 l1.9 1.9 l3.4 -3.9" fill="none" stroke="#fff" stroke-width="1.4" stroke-linecap="round" stroke-linejoin="round"/><g transform="translate(639,341) scale(0.875)">
    <rect x="1.5" y="8" width="2.6" height="6" rx="0.6" fill="#8661c5"/>
    <rect x="5.7" y="4.5" width="2.6" height="9.5" rx="0.6" fill="#0078D4"/>
    <rect x="9.9" y="6.5" width="2.6" height="7.5" rx="0.6" fill="#3fb0ac"/>
  </g><text x="659" y="351.5" font-size="10.5" fill="#242424">throughput signal</text><text x="841" y="351.5" font-size="10.5" font-weight="400" fill="#605e5c" text-anchor="end">2</text>
<g filter="url(#cs)"><rect x="607" y="96" width="246" height="58" rx="10" fill="#f2f8f2" stroke="#a0d8a0" stroke-width="2"/></g><g transform="translate(613,115.16) scale(0.82)"><circle cx="12" cy="12" r="8.4" fill="none" stroke="#605e5c" stroke-width="1.6" stroke-linecap="round" stroke-linejoin="round"/><path d="M4.2 12h3l2-3.6 2.8 7.2 1.8-3.6h4" fill="none" stroke="#605e5c" stroke-width="1.6" stroke-linecap="round" stroke-linejoin="round"/></g><text x="641" y="129.25" font-size="12.5" font-weight="600" fill="#242424">Workload root</text><rect x="777.6" y="116.00" width="67.4" height="18" rx="9" fill="#ffffff" stroke="#a0d8a0" stroke-width="1"/><circle cx="788.6" cy="125" r="6" fill="#4c9a2a"/><path d="M785.9 125 l1.9 1.9 l3.4 -3.9" fill="none" stroke="#fff" stroke-width="1.4" stroke-linecap="round" stroke-linejoin="round"/><text x="797.6" y="128.57" font-size="10.5" fill="#323130">Healthy</text>
</svg>