<svg xmlns="http://www.w3.org/2000/svg" width="1620" height="611" viewBox="0 0 1620 611" font-family="Segoe UI, -apple-system, BlinkMacSystemFont, Helvetica, Arial, sans-serif">
<defs><filter id="cs" x="-20%" y="-20%" width="140%" height="140%"><feDropShadow dx="0" dy="1" stdDeviation="1.3" flood-color="#000" flood-opacity="0.10"/></filter>
<marker id="ar-healthy" viewBox="0 0 10 10" refX="8" refY="5" markerWidth="7" markerHeight="7" orient="auto-start-reverse"><path d="M1 1 L9 5 L1 9" fill="none" stroke="#a0d8a0" stroke-width="1.6" stroke-linecap="round" stroke-linejoin="round"/></marker><marker id="ar-degraded" viewBox="0 0 10 10" refX="8" refY="5" markerWidth="7" markerHeight="7" orient="auto-start-reverse"><path d="M1 1 L9 5 L1 9" fill="none" stroke="#db7500" stroke-width="1.6" stroke-linecap="round" stroke-linejoin="round"/></marker><marker id="ar-unhealthy" viewBox="0 0 10 10" refX="8" refY="5" markerWidth="7" markerHeight="7" orient="auto-start-reverse"><path d="M1 1 L9 5 L1 9" fill="none" stroke="#ba0d16" stroke-width="1.6" stroke-linecap="round" stroke-linejoin="round"/></marker><marker id="ar-unknown" viewBox="0 0 10 10" refX="8" refY="5" markerWidth="7" markerHeight="7" orient="auto-start-reverse"><path d="M1 1 L9 5 L1 9" fill="none" stroke="#c8c6c4" stroke-width="1.6" stroke-linecap="round" stroke-linejoin="round"/></marker><marker id="ar-alt" viewBox="0 0 10 10" refX="8" refY="5" markerWidth="7" markerHeight="7" orient="auto-start-reverse"><path d="M1 1 L9 5 L1 9" fill="none" stroke="#8661c5" stroke-width="1.6" stroke-linecap="round" stroke-linejoin="round"/></marker><marker id="ar-signal" viewBox="0 0 10 10" refX="8" refY="5" markerWidth="7" markerHeight="7" orient="auto-start-reverse"><path d="M1 1 L9 5 L1 9" fill="none" stroke="#0078D4" stroke-width="1.6" stroke-linecap="round" stroke-linejoin="round"/></marker>
</defs><rect width="1620" height="611" fill="#ffffff"/>
<rect x="0" y="78" width="1620" height="146" fill="#ffffff"/>
<line x1="0" y1="78" x2="1620" y2="78" stroke="#e6e4e2"/>
<text x="1444" y="156" font-size="13" font-weight="700" fill="#323130">Workload root</text>
<rect x="0" y="224" width="1620" height="249" fill="#faf9f8"/>
<line x1="0" y1="224" x2="1620" y2="224" stroke="#e6e4e2"/>
<text x="1444" y="346.5" font-size="13" font-weight="700" fill="#323130">Business &amp;</text>
<text x="1444" y="363.5" font-size="13" font-weight="700" fill="#323130">user flows</text>
<rect x="0" y="473" width="1620" height="120" fill="#ffffff"/>
<line x1="0" y1="473" x2="1620" y2="473" stroke="#e6e4e2"/>
<text x="1444" y="531" font-size="13" font-weight="700" fill="#323130">Application</text>
<text x="1444" y="548" font-size="13" font-weight="700" fill="#323130">components</text>
<line x1="0" y1="610.5" x2="1620" y2="610.5" stroke="#e6e4e2"/>
<text x="40" y="34" font-size="18" font-weight="700" fill="#242424">Aggregate health across the workload portfolio</text>
<text x="40" y="52" font-size="12" fill="#605e5c">Signals live inside each entity; health rolls up to the workload root.</text>
<text x="1205.2" y="48" font-size="11.5" font-weight="600" fill="#605e5c" text-anchor="end">Legend</text><circle cx="1223.2" cy="44" r="4.5" fill="#4c9a2a"/><text x="1233.2" y="48" font-size="11.5" fill="#323130">Healthy</text><circle cx="1294" cy="44" r="4.5" fill="#c26a00"/><text x="1304" y="48" font-size="11.5" fill="#323130">Degraded</text><circle cx="1371.2" cy="44" r="4.5" fill="#c50f18"/><text x="1381.2" y="48" font-size="11.5" fill="#323130">Unhealthy</text><circle cx="1454.8" cy="44" r="4.5" fill="#8a8886"/><text x="1464.8" y="48" font-size="11.5" fill="#323130">Unknown</text><g transform="translate(1519.6,37) scale(0.875)">
    <rect x="1.5" y="8" width="2.6" height="6" rx="0.6" fill="#8661c5"/>
    <rect x="5.7" y="4.5" width="2.6" height="9.5" rx="0.6" fill="#0078D4"/>
    <rect x="9.9" y="6.5" width="2.6" height="7.5" rx="0.6" fill="#3fb0ac"/>
  </g><text x="1537.6" y="48" font-size="11.5" fill="#323130">Metric</text>
<g fill="none" stroke-linecap="butt" stroke-linejoin="round">
<path d="M178 242 L178.0 236.0 Q178 230 184.0 230.0 L614.0 230.0 Q621 230 621.0 223.0 L621 154" stroke="#a0d8a0" stroke-width="1.7"/>
<path d="M730.0 242 V154" stroke="#a0d8a0" stroke-width="1.7"/>
<path d="M1282 242 L1282.0 237.5 Q1282 233 1277.5 233.0 L840.0 233.0 Q833 233 833.0 226.0 L833 154" stroke="#a0d8a0" stroke-width="1.7"/>
<path d="M1006 242 L1006.0 238.0 Q1006 234 1002.0 234.0 L843.0 234.0 Q836 234 836.0 227.0 L836 154" stroke="#db7500" stroke-width="1.7"/>
<path d="M557.5 491 L557.5 374.0 Q557.5 367 550.5 367.0 L461.0 367.0 Q454 367 454.0 360.0 L454 300" stroke="#a0d8a0" stroke-width="1.6" stroke-dasharray="5 4"/>
<path d="M902.5 491 L902.5 400.0 Q902.5 393 895.5 393.0 L461.0 393.0 Q454 393 454.0 386.0 L454 300" stroke="#a0d8a0" stroke-width="1.6" stroke-dasharray="5 4"/>
<path d="M1247.5 491 L1247.5 426.0 Q1247.5 419 1240.5 419.0 L461.0 419.0 Q454 419 454.0 412.0 L454 300" stroke="#a0d8a0" stroke-width="1.6" stroke-dasharray="5 4"/>
<path d="M212.5 491 L212.5 348.0 Q212.5 341 219.5 341.0 L447.0 341.0 Q454 341 454.0 334.0 L454 300" stroke="#db7500" stroke-width="1.6" stroke-dasharray="5 4"/>
<path d="M454 242 L454.0 177.0 Q454 170 461.0 170.0 L723.0 170.0 Q730 170 730.0 163.0 L730 154" stroke="#8661c5" stroke-width="1.6" stroke-dasharray="5 4"/>
<g stroke="none"><rect x="518.1" y="357.0" width="78.8" height="20" rx="10" fill="#ffffff" stroke="#d8d6d4" stroke-width="1"/><text x="557.5" y="370.6" font-size="10.5" font-weight="600" fill="#242424" text-anchor="middle">discovered</text></g>
<g stroke="none"><rect x="863.1" y="383.0" width="78.8" height="20" rx="10" fill="#ffffff" stroke="#d8d6d4" stroke-width="1"/><text x="902.5" y="396.6" font-size="10.5" font-weight="600" fill="#242424" text-anchor="middle">discovered</text></g>
<g stroke="none"><rect x="1208.1" y="409.0" width="78.8" height="20" rx="10" fill="#ffffff" stroke="#d8d6d4" stroke-width="1"/><text x="1247.5" y="422.6" font-size="10.5" font-weight="600" fill="#242424" text-anchor="middle">discovered</text></g>
<g stroke="none"><rect x="173.1" y="331.0" width="78.8" height="20" rx="10" fill="#ffffff" stroke="#d8d6d4" stroke-width="1"/><text x="212.5" y="344.6" font-size="10.5" font-weight="600" fill="#242424" text-anchor="middle">discovered</text></g>
<g stroke="none"><rect x="388.1" y="160.0" width="131.7" height="20" rx="10" fill="#ffffff" stroke="#d8d6d4" stroke-width="1"/><text x="454.0" y="173.6" font-size="10.5" font-weight="600" fill="#242424" text-anchor="middle">limited propagation</text></g>
</g>
<g filter="url(#cs)"><rect x="89.5" y="491" width="246" height="58" rx="10" fill="#fbf2e7" stroke="#db7500" stroke-width="2"/></g><g transform="translate(95.5,510.16) scale(0.82)"><circle cx="5.5" cy="6" r="2" fill="none" stroke="#605e5c" stroke-width="1.6" stroke-linecap="round" stroke-linejoin="round"/><circle cx="5.5" cy="18" r="2" fill="none" stroke="#605e5c" stroke-width="1.6" stroke-linecap="round" stroke-linejoin="round"/><circle cx="18.5" cy="12" r="2" fill="none" stroke="#605e5c" stroke-width="1.6" stroke-linecap="round" stroke-linejoin="round"/><path d="M7.5 6h3a4 4 0 0 1 4 4M7.5 18h3a4 4 0 0 0 4-4" fill="none" stroke="#605e5c" stroke-width="1.6" stroke-linecap="round" stroke-linejoin="round"/></g><text x="123.5" y="519.25" font-size="12.5" font-weight="600" fill="#242424">E-commerce</text><text x="123.5" y="530.06" font-size="9" fill="#605e5c">app team</text><rect x="253.89999999999998" y="511.00" width="73.6" height="18" rx="9" fill="#ffffff" stroke="#db7500" stroke-width="1"/><circle cx="264.9" cy="520" r="6" fill="#c26a00"/><text x="273.9" y="523.57" font-size="10.5" fill="#323130">Degraded</text>
<g filter="url(#cs)"><rect x="331" y="242" width="246" height="58" rx="10" fill="#f4f0fb" stroke="#8661c5" stroke-width="2"/></g><g transform="translate(337,261.16) scale(0.82)"><path d="M12 3.2l7.6 4.4v8.8L12 20.8l-7.6-4.4V7.6z" fill="none" stroke="#605e5c" stroke-width="1.6" stroke-linecap="round" stroke-linejoin="round"/><path d="M4.6 7.8l7.4 4.3 7.4-4.3M12 12.1v8.6" fill="none" stroke="#605e5c" stroke-width="1.6" stroke-linecap="round" stroke-linejoin="round"/></g><text x="365" y="275.25" font-size="12.5" font-weight="600" fill="#242424">Discovery rule</text><rect x="501.6" y="262.00" width="67.4" height="18" rx="9" fill="#ffffff" stroke="#8661c5" stroke-width="1"/><circle cx="512.6" cy="271" r="6" fill="#8661c5"/><text x="521.6" y="274.57" font-size="10.5" fill="#323130">Standby</text>
<g filter="url(#cs)"><rect x="434.5" y="491" width="246" height="58" rx="10" fill="#f2f8f2" stroke="#a0d8a0" stroke-width="2"/></g><g transform="translate(440.5,510.16) scale(0.82)"><path d="M12 3.2l7.6 4.4v8.8L12 20.8l-7.6-4.4V7.6z" fill="none" stroke="#605e5c" stroke-width="1.6" stroke-linecap="round" stroke-linejoin="round"/><path d="M4.6 7.8l7.4 4.3 7.4-4.3M12 12.1v8.6" fill="none" stroke="#605e5c" stroke-width="1.6" stroke-linecap="round" stroke-linejoin="round"/></g><text x="468.5" y="519.25" font-size="12.5" font-weight="600" fill="#242424">Inventory</text><text x="468.5" y="530.06" font-size="9" fill="#605e5c">app team</text><rect x="605.1" y="511.00" width="67.4" height="18" rx="9" fill="#ffffff" stroke="#a0d8a0" stroke-width="1"/><circle cx="616.1" cy="520" r="6" fill="#4c9a2a"/><path d="M613.4 520 l1.9 1.9 l3.4 -3.9" fill="none" stroke="#fff" stroke-width="1.4" stroke-linecap="round" stroke-linejoin="round"/><text x="625.1" y="523.57" font-size="10.5" fill="#323130">Healthy</text>
<g filter="url(#cs)"><rect x="779.5" y="491" width="246" height="58" rx="10" fill="#f2f8f2" stroke="#a0d8a0" stroke-width="2"/></g><g transform="translate(785.5,510.16) scale(0.82)"><path d="M12 3.2l7.6 4.4v8.8L12 20.8l-7.6-4.4V7.6z" fill="none" stroke="#605e5c" stroke-width="1.6" stroke-linecap="round" stroke-linejoin="round"/><path d="M4.6 7.8l7.4 4.3 7.4-4.3M12 12.1v8.6" fill="none" stroke="#605e5c" stroke-width="1.6" stroke-linecap="round" stroke-linejoin="round"/></g><text x="813.5" y="519.25" font-size="12.5" font-weight="600" fill="#242424">Loyalty</text><text x="813.5" y="530.06" font-size="9" fill="#605e5c">app team</text><rect x="950.1" y="511.00" width="67.4" height="18" rx="9" fill="#ffffff" stroke="#a0d8a0" stroke-width="1"/><circle cx="961.1" cy="520" r="6" fill="#4c9a2a"/><path d="M958.4 520 l1.9 1.9 l3.4 -3.9" fill="none" stroke="#fff" stroke-width="1.4" stroke-linecap="round" stroke-linejoin="round"/><text x="970.1" y="523.57" font-size="10.5" fill="#323130">Healthy</text>
<g filter="url(#cs)"><rect x="1124.5" y="491" width="246" height="58" rx="10" fill="#f2f8f2" stroke="#a0d8a0" stroke-width="2"/></g><g transform="translate(1130.5,510.16) scale(0.82)"><rect x="4" y="4.5" width="16" height="6" rx="1.2" fill="none" stroke="#605e5c" stroke-width="1.6" stroke-linecap="round" stroke-linejoin="round"/><rect x="4" y="13.5" width="16" height="6" rx="1.2" fill="none" stroke="#605e5c" stroke-width="1.6" stroke-linecap="round" stroke-linejoin="round"/><path d="M7.2 7.5h.01M7.2 16.5h.01" fill="none" stroke="#605e5c" stroke-width="1.6" stroke-linecap="round" stroke-linejoin="round"/></g><text x="1158.5" y="519.25" font-size="12.5" font-weight="600" fill="#242424">New app</text><text x="1158.5" y="530.06" font-size="9" fill="#605e5c">auto-added</text><rect x="1295.1" y="511.00" width="67.4" height="18" rx="9" fill="#ffffff" stroke="#a0d8a0" stroke-width="1"/><circle cx="1306.1" cy="520" r="6" fill="#4c9a2a"/><path d="M1303.3999999999999 520 l1.9 1.9 l3.4 -3.9" fill="none" stroke="#fff" stroke-width="1.4" stroke-linecap="round" stroke-linejoin="round"/><text x="1315.1" y="523.57" font-size="10.5" fill="#323130">Healthy</text>
<g filter="url(#cs)"><rect x="607" y="96" width="246" height="58" rx="10" fill="#fbf2e7" stroke="#db7500" stroke-width="2"/></g><g transform="translate(613,115.16) scale(0.82)"><circle cx="12" cy="12" r="8.4" fill="none" stroke="#605e5c" stroke-width="1.6" stroke-linecap="round" stroke-linejoin="round"/><path d="M4.2 12h3l2-3.6 2.8 7.2 1.8-3.6h4" fill="none" stroke="#605e5c" stroke-width="1.6" stroke-linecap="round" stroke-linejoin="round"/></g><text x="641" y="129.25" font-size="12.5" font-weight="600" fill="#242424">Platform root</text><rect x="771.4" y="116.00" width="73.6" height="18" rx="9" fill="#ffffff" stroke="#db7500" stroke-width="1"/><circle cx="782.4" cy="125" r="6" fill="#c26a00"/><text x="791.4" y="128.57" font-size="10.5" fill="#323130">Degraded</text>
<g filter="url(#cs)"><rect x="55" y="242" width="246" height="83" rx="10" fill="#f2f8f2" stroke="#a0d8a0" stroke-width="2"/></g><g transform="translate(61,249.16) scale(0.82)"><path d="M12 3.2l7.6 4.4v8.8L12 20.8l-7.6-4.4V7.6z" fill="none" stroke="#605e5c" stroke-width="1.6" stroke-linecap="round" stroke-linejoin="round"/><path d="M4.6 7.8l7.4 4.3 7.4-4.3M12 12.1v8.6" fill="none" stroke="#605e5c" stroke-width="1.6" stroke-linecap="round" stroke-linejoin="round"/></g><text x="89" y="263.25" font-size="12.5" font-weight="600" fill="#242424">AKS control plane</text><rect x="225.6" y="250.00" width="67.4" height="18" rx="9" fill="#ffffff" stroke="#a0d8a0" stroke-width="1"/><circle cx="236.6" cy="259" r="6" fill="#4c9a2a"/><path d="M233.9 259 l1.9 1.9 l3.4 -3.9" fill="none" stroke="#fff" stroke-width="1.4" stroke-linecap="round" stroke-linejoin="round"/><text x="245.6" y="262.57" font-size="10.5" fill="#323130">Healthy</text><line x1="56" y1="279" x2="300" y2="279" stroke="#e6e4e2"/><circle cx="71" cy="294" r="6" fill="#4c9a2a"/><path d="M68.3 294 l1.9 1.9 l3.4 -3.9" fill="none" stroke="#fff" stroke-width="1.4" stroke-linecap="round" stroke-linejoin="round"/><g transform="translate(87,287) scale(0.875)">
    <rect x="1.5" y="8" width="2.6" height="6" rx="0.6" fill="#8661c5"/>
    <rect x="5.7" y="4.5" width="2.6" height="9.5" rx="0.6" fill="#0078D4"/>
    <rect x="9.9" y="6.5" width="2.6" height="7.5" rx="0.6" fill="#3fb0ac"/>
  </g><text x="107" y="297.5" font-size="10.5" fill="#242424">API server</text><text x="289" y="297.5" font-size="10.5" font-weight="400" fill="#605e5c" text-anchor="end">2</text><line x1="65" y1="303" x2="291" y2="303" stroke="#e6e4e2" stroke-opacity="0.7"/><circle cx="71" cy="312" r="6" fill="#4c9a2a"/><path d="M68.3 312 l1.9 1.9 l3.4 -3.9" fill="none" stroke="#fff" stroke-width="1.4" stroke-linecap="round" stroke-linejoin="round"/><g transform="translate(87,305) scale(0.875)">
    <rect x="1.5" y="8" width="2.6" height="6" rx="0.6" fill="#8661c5"/>
    <rect x="5.7" y="4.5" width="2.6" height="9.5" rx="0.6" fill="#0078D4"/>
    <rect x="9.9" y="6.5" width="2.6" height="7.5" rx="0.6" fill="#3fb0ac"/>
  </g><text x="107" y="315.5" font-size="10.5" fill="#242424">availability signal</text><text x="289" y="315.5" font-size="10.5" font-weight="400" fill="#605e5c" text-anchor="end">1</text>
<g filter="url(#cs)"><rect x="607" y="242" width="246" height="83" rx="10" fill="#f2f8f2" stroke="#a0d8a0" stroke-width="2"/></g><g transform="translate(613,249.16) scale(0.82)"><path d="M12 3.2l7.6 4.4v8.8L12 20.8l-7.6-4.4V7.6z" fill="none" stroke="#605e5c" stroke-width="1.6" stroke-linecap="round" stroke-linejoin="round"/><path d="M4.6 7.8l7.4 4.3 7.4-4.3M12 12.1v8.6" fill="none" stroke="#605e5c" stroke-width="1.6" stroke-linecap="round" stroke-linejoin="round"/></g><text x="641" y="263.25" font-size="12.5" font-weight="600" fill="#242424">System node pool</text><rect x="777.6" y="250.00" width="67.4" height="18" rx="9" fill="#ffffff" stroke="#a0d8a0" stroke-width="1"/><circle cx="788.6" cy="259" r="6" fill="#4c9a2a"/><path d="M785.9 259 l1.9 1.9 l3.4 -3.9" fill="none" stroke="#fff" stroke-width="1.4" stroke-linecap="round" stroke-linejoin="round"/><text x="797.6" y="262.57" font-size="10.5" fill="#323130">Healthy</text><line x1="608" y1="279" x2="852" y2="279" stroke="#e6e4e2"/><circle cx="623" cy="294" r="6" fill="#4c9a2a"/><path d="M620.3 294 l1.9 1.9 l3.4 -3.9" fill="none" stroke="#fff" stroke-width="1.4" stroke-linecap="round" stroke-linejoin="round"/><g transform="translate(639,287) scale(0.875)">
    <rect x="1.5" y="8" width="2.6" height="6" rx="0.6" fill="#8661c5"/>
    <rect x="5.7" y="4.5" width="2.6" height="9.5" rx="0.6" fill="#0078D4"/>
    <rect x="9.9" y="6.5" width="2.6" height="7.5" rx="0.6" fill="#3fb0ac"/>
  </g><text x="659" y="297.5" font-size="10.5" fill="#242424">System node pool</text><text x="841" y="297.5" font-size="10.5" font-weight="400" fill="#605e5c" text-anchor="end">0</text><line x1="617" y1="303" x2="843" y2="303" stroke="#e6e4e2" stroke-opacity="0.7"/><circle cx="623" cy="312" r="6" fill="#4c9a2a"/><path d="M620.3 312 l1.9 1.9 l3.4 -3.9" fill="none" stroke="#fff" stroke-width="1.4" stroke-linecap="round" stroke-linejoin="round"/><g transform="translate(639,305) scale(0.875)">
    <rect x="1.5" y="8" width="2.6" height="6" rx="0.6" fill="#8661c5"/>
    <rect x="5.7" y="4.5" width="2.6" height="9.5" rx="0.6" fill="#0078D4"/>
    <rect x="9.9" y="6.5" width="2.6" height="7.5" rx="0.6" fill="#3fb0ac"/>
  </g><text x="659" y="315.5" font-size="10.5" fill="#242424">readiness signal</text><text x="841" y="315.5" font-size="10.5" font-weight="400" fill="#605e5c" text-anchor="end">0</text>
<g filter="url(#cs)"><rect x="883" y="242" width="246" height="83" rx="10" fill="#fbf2e7" stroke="#db7500" stroke-width="2"/></g><g transform="translate(889,249.16) scale(0.82)"><path d="M12 3.2l7.6 4.4v8.8L12 20.8l-7.6-4.4V7.6z" fill="none" stroke="#605e5c" stroke-width="1.6" stroke-linecap="round" stroke-linejoin="round"/><path d="M4.6 7.8l7.4 4.3 7.4-4.3M12 12.1v8.6" fill="none" stroke="#605e5c" stroke-width="1.6" stroke-linecap="round" stroke-linejoin="round"/></g><text x="917" y="263.25" font-size="12.5" font-weight="600" fill="#242424">User node pool</text><rect x="1047.4" y="250.00" width="73.6" height="18" rx="9" fill="#ffffff" stroke="#db7500" stroke-width="1"/><circle cx="1058.4" cy="259" r="6" fill="#c26a00"/><text x="1067.4" y="262.57" font-size="10.5" fill="#323130">Degraded</text><line x1="884" y1="279" x2="1128" y2="279" stroke="#e6e4e2"/><circle cx="899" cy="294" r="6" fill="#c26a00"/><g transform="translate(915,287) scale(0.875)">
    <rect x="1.5" y="8" width="2.6" height="6" rx="0.6" fill="#8661c5"/>
    <rect x="5.7" y="4.5" width="2.6" height="9.5" rx="0.6" fill="#0078D4"/>
    <rect x="9.9" y="6.5" width="2.6" height="7.5" rx="0.6" fill="#3fb0ac"/>
  </g><text x="935" y="297.5" font-size="10.5" fill="#242424">User node pool</text><text x="1117" y="297.5" font-size="10.5" font-weight="600" fill="#c26a00" text-anchor="end">10</text><line x1="893" y1="303" x2="1119" y2="303" stroke="#e6e4e2" stroke-opacity="0.7"/><circle cx="899" cy="312" r="6" fill="#4c9a2a"/><path d="M896.3 312 l1.9 1.9 l3.4 -3.9" fill="none" stroke="#fff" stroke-width="1.4" stroke-linecap="round" stroke-linejoin="round"/><g transform="translate(915,305) scale(0.875)">
    <rect x="1.5" y="8" width="2.6" height="6" rx="0.6" fill="#8661c5"/>
    <rect x="5.7" y="4.5" width="2.6" height="9.5" rx="0.6" fill="#0078D4"/>
    <rect x="9.9" y="6.5" width="2.6" height="7.5" rx="0.6" fill="#3fb0ac"/>
  </g><text x="935" y="315.5" font-size="10.5" fill="#242424">capacity signal</text><text x="1117" y="315.5" font-size="10.5" font-weight="400" fill="#605e5c" text-anchor="end">0</text>
<g filter="url(#cs)"><rect x="1159" y="242" width="246" height="83" rx="10" fill="#f2f8f2" stroke="#a0d8a0" stroke-width="2"/></g><g transform="translate(1165,249.16) scale(0.82)"><path d="M12 3.2l7.6 4.4v8.8L12 20.8l-7.6-4.4V7.6z" fill="none" stroke="#605e5c" stroke-width="1.6" stroke-linecap="round" stroke-linejoin="round"/><path d="M4.6 7.8l7.4 4.3 7.4-4.3M12 12.1v8.6" fill="none" stroke="#605e5c" stroke-width="1.6" stroke-linecap="round" stroke-linejoin="round"/></g><text x="1193" y="263.25" font-size="12.5" font-weight="600" fill="#242424">Ingress controller</text><rect x="1329.6" y="250.00" width="67.4" height="18" rx="9" fill="#ffffff" stroke="#a0d8a0" stroke-width="1"/><circle cx="1340.6" cy="259" r="6" fill="#4c9a2a"/><path d="M1337.8999999999999 259 l1.9 1.9 l3.4 -3.9" fill="none" stroke="#fff" stroke-width="1.4" stroke-linecap="round" stroke-linejoin="round"/><text x="1349.6" y="262.57" font-size="10.5" fill="#323130">Healthy</text><line x1="1160" y1="279" x2="1404" y2="279" stroke="#e6e4e2"/><circle cx="1175" cy="294" r="6" fill="#4c9a2a"/><path d="M1172.3 294 l1.9 1.9 l3.4 -3.9" fill="none" stroke="#fff" stroke-width="1.4" stroke-linecap="round" stroke-linejoin="round"/><g transform="translate(1191,287) scale(0.875)">
    <rect x="1.5" y="8" width="2.6" height="6" rx="0.6" fill="#8661c5"/>
    <rect x="5.7" y="4.5" width="2.6" height="9.5" rx="0.6" fill="#0078D4"/>
    <rect x="9.9" y="6.5" width="2.6" height="7.5" rx="0.6" fill="#3fb0ac"/>
  </g><text x="1211" y="297.5" font-size="10.5" fill="#242424">Ingress 5xx</text><text x="1393" y="297.5" font-size="10.5" font-weight="400" fill="#605e5c" text-anchor="end">1</text><line x1="1169" y1="303" x2="1395" y2="303" stroke="#e6e4e2" stroke-opacity="0.7"/><circle cx="1175" cy="312" r="6" fill="#4c9a2a"/><path d="M1172.3 312 l1.9 1.9 l3.4 -3.9" fill="none" stroke="#fff" stroke-width="1.4" stroke-linecap="round" stroke-linejoin="round"/><g transform="translate(1191,305) scale(0.875)">
    <rect x="1.5" y="8" width="2.6" height="6" rx="0.6" fill="#8661c5"/>
    <rect x="5.7" y="4.5" width="2.6" height="9.5" rx="0.6" fill="#0078D4"/>
    <rect x="9.9" y="6.5" width="2.6" height="7.5" rx="0.6" fill="#3fb0ac"/>
  </g><text x="1211" y="315.5" font-size="10.5" fill="#242424">+ cert signal</text><text x="1393" y="315.5" font-size="10.5" font-weight="400" fill="#605e5c" text-anchor="end">2</text>
</svg>