<svg xmlns="http://www.w3.org/2000/svg" width="1896" height="499" viewBox="0 0 1896 499" font-family="Segoe UI, -apple-system, BlinkMacSystemFont, Helvetica, Arial, sans-serif">
<defs><filter id="cs" x="-20%" y="-20%" width="140%" height="140%"><feDropShadow dx="0" dy="1" stdDeviation="1.3" flood-color="#000" flood-opacity="0.10"/></filter>
<marker id="ar-healthy" viewBox="0 0 10 10" refX="8" refY="5" markerWidth="7" markerHeight="7" orient="auto-start-reverse"><path d="M1 1 L9 5 L1 9" fill="none" stroke="#a0d8a0" stroke-width="1.6" stroke-linecap="round" stroke-linejoin="round"/></marker><marker id="ar-degraded" viewBox="0 0 10 10" refX="8" refY="5" markerWidth="7" markerHeight="7" orient="auto-start-reverse"><path d="M1 1 L9 5 L1 9" fill="none" stroke="#db7500" stroke-width="1.6" stroke-linecap="round" stroke-linejoin="round"/></marker><marker id="ar-unhealthy" viewBox="0 0 10 10" refX="8" refY="5" markerWidth="7" markerHeight="7" orient="auto-start-reverse"><path d="M1 1 L9 5 L1 9" fill="none" stroke="#ba0d16" stroke-width="1.6" stroke-linecap="round" stroke-linejoin="round"/></marker><marker id="ar-unknown" viewBox="0 0 10 10" refX="8" refY="5" markerWidth="7" markerHeight="7" orient="auto-start-reverse"><path d="M1 1 L9 5 L1 9" fill="none" stroke="#c8c6c4" stroke-width="1.6" stroke-linecap="round" stroke-linejoin="round"/></marker><marker id="ar-alt" viewBox="0 0 10 10" refX="8" refY="5" markerWidth="7" markerHeight="7" orient="auto-start-reverse"><path d="M1 1 L9 5 L1 9" fill="none" stroke="#8661c5" stroke-width="1.6" stroke-linecap="round" stroke-linejoin="round"/></marker><marker id="ar-signal" viewBox="0 0 10 10" refX="8" refY="5" markerWidth="7" markerHeight="7" orient="auto-start-reverse"><path d="M1 1 L9 5 L1 9" fill="none" stroke="#0078D4" stroke-width="1.6" stroke-linecap="round" stroke-linejoin="round"/></marker>
</defs><rect width="1896" height="499" fill="#ffffff"/>
<rect x="0" y="78" width="1896" height="120" fill="#ffffff"/>
<line x1="0" y1="78" x2="1896" y2="78" stroke="#e6e4e2"/>
<text x="1720" y="143" font-size="13" font-weight="700" fill="#323130">Workload root</text>
<rect x="0" y="198" width="1896" height="120" fill="#faf9f8"/>
<line x1="0" y1="198" x2="1896" y2="198" stroke="#e6e4e2"/>
<text x="1720" y="256" font-size="13" font-weight="700" fill="#323130">Business &amp;</text>
<text x="1720" y="273" font-size="13" font-weight="700" fill="#323130">user flows</text>
<rect x="0" y="318" width="1896" height="163" fill="#ffffff"/>
<line x1="0" y1="318" x2="1896" y2="318" stroke="#e6e4e2"/>
<text x="1720" y="397.5" font-size="13" font-weight="700" fill="#323130">Application</text>
<text x="1720" y="414.5" font-size="13" font-weight="700" fill="#323130">components</text>
<line x1="0" y1="498.5" x2="1896" y2="498.5" stroke="#e6e4e2"/>
<text x="40" y="34" font-size="18" font-weight="700" fill="#242424">diagram</text>
<text x="40" y="52" font-size="12" fill="#605e5c">Signals live inside each entity; health rolls up to the workload root.</text>
<text x="1481.2" y="48" font-size="11.5" font-weight="600" fill="#605e5c" text-anchor="end">Legend</text><circle cx="1499.2" cy="44" r="4.5" fill="#4c9a2a"/><text x="1509.2" y="48" font-size="11.5" fill="#323130">Healthy</text><circle cx="1570" cy="44" r="4.5" fill="#c26a00"/><text x="1580" y="48" font-size="11.5" fill="#323130">Degraded</text><circle cx="1647.2" cy="44" r="4.5" fill="#c50f18"/><text x="1657.2" y="48" font-size="11.5" fill="#323130">Unhealthy</text><circle cx="1730.8" cy="44" r="4.5" fill="#8a8886"/><text x="1740.8" y="48" font-size="11.5" fill="#323130">Unknown</text><g transform="translate(1795.6,37) scale(0.875)">
    <rect x="1.5" y="8" width="2.6" height="6" rx="0.6" fill="#8661c5"/>
    <rect x="5.7" y="4.5" width="2.6" height="9.5" rx="0.6" fill="#0078D4"/>
    <rect x="9.9" y="6.5" width="2.6" height="7.5" rx="0.6" fill="#3fb0ac"/>
  </g><text x="1813.6" y="48" font-size="11.5" fill="#323130">Metric</text>
<g fill="none" stroke-linecap="butt" stroke-linejoin="round">
<path d="M291.0 336 V274" stroke="#a0d8a0" stroke-width="1.7"/>
<path d="M341.0 336 V274" stroke="#a0d8a0" stroke-width="1.7"/>
<path d="M730 336 L730.0 330.0 Q730 324 724.0 324.0 L432.0 324.0 Q425 324 425.0 317.0 L425 274" stroke="#a0d8a0" stroke-width="1.7"/>
<path d="M843.0 336 V274" stroke="#a0d8a0" stroke-width="1.7"/>
<path d="M893.0 336 V274" stroke="#a0d8a0" stroke-width="1.7"/>
<path d="M1445.0 336 V274" stroke="#a0d8a0" stroke-width="1.7"/>
<path d="M1395.0 336 V274" stroke="#db7500" stroke-width="1.7"/>
<path d="M316 216 L316.0 210.0 Q316 204 322.0 204.0 L752.0 204.0 Q759 204 759.0 197.0 L759 154" stroke="#a0d8a0" stroke-width="1.7"/>
<path d="M868.0 216 V154" stroke="#a0d8a0" stroke-width="1.7"/>
<path d="M1420 216 L1420.0 211.5 Q1420 207 1415.5 207.0 L981.0 207.0 Q974 207 974.0 200.0 L974 154" stroke="#db7500" stroke-width="1.7"/>
</g>
<g filter="url(#cs)"><rect x="55" y="336" width="246" height="101" rx="10" fill="#f2f8f2" stroke="#a0d8a0" stroke-width="2"/></g><g transform="translate(61,343.16) scale(0.82)"><circle cx="12" cy="12" r="8.4" fill="none" stroke="#605e5c" stroke-width="1.6" stroke-linecap="round" stroke-linejoin="round"/><path d="M3.6 12h16.8M12 3.6c3 3 3 13.8 0 16.8M12 3.6c-3 3-3 13.8 0 16.8" fill="none" stroke="#605e5c" stroke-width="1.6" stroke-linecap="round" stroke-linejoin="round"/></g><text x="89" y="357.25" font-size="12.5" font-weight="600" fill="#242424">Web frontend</text><rect x="225.6" y="344.00" width="67.4" height="18" rx="9" fill="#ffffff" stroke="#a0d8a0" stroke-width="1"/><circle cx="236.6" cy="353" r="6" fill="#4c9a2a"/><path d="M233.9 353 l1.9 1.9 l3.4 -3.9" fill="none" stroke="#fff" stroke-width="1.4" stroke-linecap="round" stroke-linejoin="round"/><text x="245.6" y="356.57" font-size="10.5" fill="#323130">Healthy</text><line x1="56" y1="373" x2="300" y2="373" stroke="#e6e4e2"/><circle cx="71" cy="388" r="6" fill="#4c9a2a"/><path d="M68.3 388 l1.9 1.9 l3.4 -3.9" fill="none" stroke="#fff" stroke-width="1.4" stroke-linecap="round" stroke-linejoin="round"/><g transform="translate(87,381) scale(0.875)">
    <rect x="1.5" y="8" width="2.6" height="6" rx="0.6" fill="#8661c5"/>
    <rect x="5.7" y="4.5" width="2.6" height="9.5" rx="0.6" fill="#0078D4"/>
    <rect x="9.9" y="6.5" width="2.6" height="7.5" rx="0.6" fill="#3fb0ac"/>
  </g><text x="107" y="391.5" font-size="10.5" fill="#242424">Web latency</text><text x="289" y="391.5" font-size="10.5" font-weight="400" fill="#605e5c" text-anchor="end">2</text><line x1="65" y1="397" x2="291" y2="397" stroke="#e6e4e2" stroke-opacity="0.7"/><circle cx="71" cy="406" r="6" fill="#4c9a2a"/><path d="M68.3 406 l1.9 1.9 l3.4 -3.9" fill="none" stroke="#fff" stroke-width="1.4" stroke-linecap="round" stroke-linejoin="round"/><g transform="translate(87,399) scale(0.875)">
    <rect x="1.5" y="8" width="2.6" height="6" rx="0.6" fill="#8661c5"/>
    <rect x="5.7" y="4.5" width="2.6" height="9.5" rx="0.6" fill="#0078D4"/>
    <rect x="9.9" y="6.5" width="2.6" height="7.5" rx="0.6" fill="#3fb0ac"/>
  </g><text x="107" y="409.5" font-size="10.5" fill="#242424">HTTP 5xx rate</text><text x="289" y="409.5" font-size="10.5" font-weight="400" fill="#605e5c" text-anchor="end">1</text><line x1="65" y1="415" x2="291" y2="415" stroke="#e6e4e2" stroke-opacity="0.7"/><circle cx="71" cy="424" r="6" fill="#4c9a2a"/><path d="M68.3 424 l1.9 1.9 l3.4 -3.9" fill="none" stroke="#fff" stroke-width="1.4" stroke-linecap="round" stroke-linejoin="round"/><g transform="translate(87,417) scale(0.875)">
    <rect x="1.5" y="8" width="2.6" height="6" rx="0.6" fill="#8661c5"/>
    <rect x="5.7" y="4.5" width="2.6" height="9.5" rx="0.6" fill="#0078D4"/>
    <rect x="9.9" y="6.5" width="2.6" height="7.5" rx="0.6" fill="#3fb0ac"/>
  </g><text x="107" y="427.5" font-size="10.5" fill="#242424">Request rate</text><text x="289" y="427.5" font-size="10.5" font-weight="400" fill="#605e5c" text-anchor="end">2</text>
<g filter="url(#cs)"><rect x="331" y="336" width="246" height="101" rx="10" fill="#f2f8f2" stroke="#a0d8a0" stroke-width="2"/></g><g transform="translate(337,343.16) scale(0.82)"><rect x="4" y="4.5" width="16" height="6" rx="1.2" fill="none" stroke="#605e5c" stroke-width="1.6" stroke-linecap="round" stroke-linejoin="round"/><rect x="4" y="13.5" width="16" height="6" rx="1.2" fill="none" stroke="#605e5c" stroke-width="1.6" stroke-linecap="round" stroke-linejoin="round"/><path d="M7.2 7.5h.01M7.2 16.5h.01" fill="none" stroke="#605e5c" stroke-width="1.6" stroke-linecap="round" stroke-linejoin="round"/></g><text x="365" y="357.25" font-size="12.5" font-weight="600" fill="#242424">App hosting</text><rect x="501.6" y="344.00" width="67.4" height="18" rx="9" fill="#ffffff" stroke="#a0d8a0" stroke-width="1"/><circle cx="512.6" cy="353" r="6" fill="#4c9a2a"/><path d="M509.90000000000003 353 l1.9 1.9 l3.4 -3.9" fill="none" stroke="#fff" stroke-width="1.4" stroke-linecap="round" stroke-linejoin="round"/><text x="521.6" y="356.57" font-size="10.5" fill="#323130">Healthy</text><line x1="332" y1="373" x2="576" y2="373" stroke="#e6e4e2"/><circle cx="347" cy="388" r="6" fill="#4c9a2a"/><path d="M344.3 388 l1.9 1.9 l3.4 -3.9" fill="none" stroke="#fff" stroke-width="1.4" stroke-linecap="round" stroke-linejoin="round"/><g transform="translate(363,381) scale(0.875)">
    <rect x="1.5" y="8" width="2.6" height="6" rx="0.6" fill="#8661c5"/>
    <rect x="5.7" y="4.5" width="2.6" height="9.5" rx="0.6" fill="#0078D4"/>
    <rect x="9.9" y="6.5" width="2.6" height="7.5" rx="0.6" fill="#3fb0ac"/>
  </g><text x="383" y="391.5" font-size="10.5" fill="#242424">CPU</text><text x="565" y="391.5" font-size="10.5" font-weight="400" fill="#605e5c" text-anchor="end">0</text><line x1="341" y1="397" x2="567" y2="397" stroke="#e6e4e2" stroke-opacity="0.7"/><circle cx="347" cy="406" r="6" fill="#4c9a2a"/><path d="M344.3 406 l1.9 1.9 l3.4 -3.9" fill="none" stroke="#fff" stroke-width="1.4" stroke-linecap="round" stroke-linejoin="round"/><g transform="translate(363,399) scale(0.875)">
    <rect x="1.5" y="8" width="2.6" height="6" rx="0.6" fill="#8661c5"/>
    <rect x="5.7" y="4.5" width="2.6" height="9.5" rx="0.6" fill="#0078D4"/>
    <rect x="9.9" y="6.5" width="2.6" height="7.5" rx="0.6" fill="#3fb0ac"/>
  </g><text x="383" y="409.5" font-size="10.5" fill="#242424">Memory</text><text x="565" y="409.5" font-size="10.5" font-weight="400" fill="#605e5c" text-anchor="end">1</text><line x1="341" y1="415" x2="567" y2="415" stroke="#e6e4e2" stroke-opacity="0.7"/><circle cx="347" cy="424" r="6" fill="#4c9a2a"/><path d="M344.3 424 l1.9 1.9 l3.4 -3.9" fill="none" stroke="#fff" stroke-width="1.4" stroke-linecap="round" stroke-linejoin="round"/><g transform="translate(363,417) scale(0.875)">
    <rect x="1.5" y="8" width="2.6" height="6" rx="0.6" fill="#8661c5"/>
    <rect x="5.7" y="4.5" width="2.6" height="9.5" rx="0.6" fill="#0078D4"/>
    <rect x="9.9" y="6.5" width="2.6" height="7.5" rx="0.6" fill="#3fb0ac"/>
  </g><text x="383" y="427.5" font-size="10.5" fill="#242424">Restart count</text><text x="565" y="427.5" font-size="10.5" font-weight="400" fill="#605e5c" text-anchor="end">0</text>
<g filter="url(#cs)"><rect x="607" y="336" width="246" height="101" rx="10" fill="#f2f8f2" stroke="#a0d8a0" stroke-width="2"/></g><g transform="translate(613,343.16) scale(0.82)"><ellipse cx="12" cy="6" rx="7" ry="2.8" fill="none" stroke="#605e5c" stroke-width="1.6" stroke-linecap="round" stroke-linejoin="round"/><path d="M5 6v12c0 1.55 3.13 2.8 7 2.8s7-1.25 7-2.8V6" fill="none" stroke="#605e5c" stroke-width="1.6" stroke-linecap="round" stroke-linejoin="round"/><path d="M5 12c0 1.55 3.13 2.8 7 2.8s7-1.25 7-2.8" fill="none" stroke="#605e5c" stroke-width="1.6" stroke-linecap="round" stroke-linejoin="round"/></g><text x="641" y="357.25" font-size="12.5" font-weight="600" fill="#242424">Database</text><rect x="777.6" y="344.00" width="67.4" height="18" rx="9" fill="#ffffff" stroke="#a0d8a0" stroke-width="1"/><circle cx="788.6" cy="353" r="6" fill="#4c9a2a"/><path d="M785.9 353 l1.9 1.9 l3.4 -3.9" fill="none" stroke="#fff" stroke-width="1.4" stroke-linecap="round" stroke-linejoin="round"/><text x="797.6" y="356.57" font-size="10.5" fill="#323130">Healthy</text><line x1="608" y1="373" x2="852" y2="373" stroke="#e6e4e2"/><circle cx="623" cy="388" r="6" fill="#4c9a2a"/><path d="M620.3 388 l1.9 1.9 l3.4 -3.9" fill="none" stroke="#fff" stroke-width="1.4" stroke-linecap="round" stroke-linejoin="round"/><g transform="translate(639,381) scale(0.875)">
    <rect x="1.5" y="8" width="2.6" height="6" rx="0.6" fill="#8661c5"/>
    <rect x="5.7" y="4.5" width="2.6" height="9.5" rx="0.6" fill="#0078D4"/>
    <rect x="9.9" y="6.5" width="2.6" height="7.5" rx="0.6" fill="#3fb0ac"/>
  </g><text x="659" y="391.5" font-size="10.5" fill="#242424">Connection</text><text x="841" y="391.5" font-size="10.5" font-weight="400" fill="#605e5c" text-anchor="end">2</text><line x1="617" y1="397" x2="843" y2="397" stroke="#e6e4e2" stroke-opacity="0.7"/><circle cx="623" cy="406" r="6" fill="#4c9a2a"/><path d="M620.3 406 l1.9 1.9 l3.4 -3.9" fill="none" stroke="#fff" stroke-width="1.4" stroke-linecap="round" stroke-linejoin="round"/><g transform="translate(639,399) scale(0.875)">
    <rect x="1.5" y="8" width="2.6" height="6" rx="0.6" fill="#8661c5"/>
    <rect x="5.7" y="4.5" width="2.6" height="9.5" rx="0.6" fill="#0078D4"/>
    <rect x="9.9" y="6.5" width="2.6" height="7.5" rx="0.6" fill="#3fb0ac"/>
  </g><text x="659" y="409.5" font-size="10.5" fill="#242424">DTU utilization</text><text x="841" y="409.5" font-size="10.5" font-weight="400" fill="#605e5c" text-anchor="end">0</text><line x1="617" y1="415" x2="843" y2="415" stroke="#e6e4e2" stroke-opacity="0.7"/><circle cx="623" cy="424" r="6" fill="#4c9a2a"/><path d="M620.3 424 l1.9 1.9 l3.4 -3.9" fill="none" stroke="#fff" stroke-width="1.4" stroke-linecap="round" stroke-linejoin="round"/><g transform="translate(639,417) scale(0.875)">
    <rect x="1.5" y="8" width="2.6" height="6" rx="0.6" fill="#8661c5"/>
    <rect x="5.7" y="4.5" width="2.6" height="9.5" rx="0.6" fill="#0078D4"/>
    <rect x="9.9" y="6.5" width="2.6" height="7.5" rx="0.6" fill="#3fb0ac"/>
  </g><text x="659" y="427.5" font-size="10.5" fill="#242424">Failed connections</text><text x="841" y="427.5" font-size="10.5" font-weight="400" fill="#605e5c" text-anchor="end">2</text>
<g filter="url(#cs)"><rect x="1159" y="336" width="246" height="101" rx="10" fill="#fbf2e7" stroke="#db7500" stroke-width="2"/></g><g transform="translate(1165,343.16) scale(0.82)"><rect x="4" y="5" width="16" height="3" rx="1" fill="none" stroke="#605e5c" stroke-width="1.6" stroke-linecap="round" stroke-linejoin="round"/><rect x="4" y="10.5" width="16" height="3" rx="1" fill="none" stroke="#605e5c" stroke-width="1.6" stroke-linecap="round" stroke-linejoin="round"/><rect x="4" y="16" width="10" height="3" rx="1" fill="none" stroke="#605e5c" stroke-width="1.6" stroke-linecap="round" stroke-linejoin="round"/></g><text x="1193" y="357.25" font-size="12.5" font-weight="600" fill="#242424">Order queue</text><rect x="1323.4" y="344.00" width="73.6" height="18" rx="9" fill="#ffffff" stroke="#db7500" stroke-width="1"/><circle cx="1334.4" cy="353" r="6" fill="#c26a00"/><text x="1343.4" y="356.57" font-size="10.5" fill="#323130">Degraded</text><line x1="1160" y1="373" x2="1404" y2="373" stroke="#e6e4e2"/><circle cx="1175" cy="388" r="6" fill="#c26a00"/><g transform="translate(1191,381) scale(0.875)">
    <rect x="1.5" y="8" width="2.6" height="6" rx="0.6" fill="#8661c5"/>
    <rect x="5.7" y="4.5" width="2.6" height="9.5" rx="0.6" fill="#0078D4"/>
    <rect x="9.9" y="6.5" width="2.6" height="7.5" rx="0.6" fill="#3fb0ac"/>
  </g><text x="1211" y="391.5" font-size="10.5" fill="#242424">Queue depth</text><text x="1393" y="391.5" font-size="10.5" font-weight="600" fill="#c26a00" text-anchor="end">18</text><line x1="1169" y1="397" x2="1395" y2="397" stroke="#e6e4e2" stroke-opacity="0.7"/><circle cx="1175" cy="406" r="6" fill="#4c9a2a"/><path d="M1172.3 406 l1.9 1.9 l3.4 -3.9" fill="none" stroke="#fff" stroke-width="1.4" stroke-linecap="round" stroke-linejoin="round"/><g transform="translate(1191,399) scale(0.875)">
    <rect x="1.5" y="8" width="2.6" height="6" rx="0.6" fill="#8661c5"/>
    <rect x="5.7" y="4.5" width="2.6" height="9.5" rx="0.6" fill="#0078D4"/>
    <rect x="9.9" y="6.5" width="2.6" height="7.5" rx="0.6" fill="#3fb0ac"/>
  </g><text x="1211" y="409.5" font-size="10.5" fill="#242424">Oldest message age</text><text x="1393" y="409.5" font-size="10.5" font-weight="400" fill="#605e5c" text-anchor="end">0</text><line x1="1169" y1="415" x2="1395" y2="415" stroke="#e6e4e2" stroke-opacity="0.7"/><circle cx="1175" cy="424" r="6" fill="#4c9a2a"/><path d="M1172.3 424 l1.9 1.9 l3.4 -3.9" fill="none" stroke="#fff" stroke-width="1.4" stroke-linecap="round" stroke-linejoin="round"/><g transform="translate(1191,417) scale(0.875)">
    <rect x="1.5" y="8" width="2.6" height="6" rx="0.6" fill="#8661c5"/>
    <rect x="5.7" y="4.5" width="2.6" height="9.5" rx="0.6" fill="#0078D4"/>
    <rect x="9.9" y="6.5" width="2.6" height="7.5" rx="0.6" fill="#3fb0ac"/>
  </g><text x="1211" y="427.5" font-size="10.5" fill="#242424">Dead-letter count</text><text x="1393" y="427.5" font-size="10.5" font-weight="400" fill="#605e5c" text-anchor="end">2</text>
<g filter="url(#cs)"><rect x="1435" y="336" width="246" height="101" rx="10" fill="#f2f8f2" stroke="#a0d8a0" stroke-width="2"/></g><g transform="translate(1441,343.16) scale(0.82)"><path d="M12 3.2l7.6 4.4v8.8L12 20.8l-7.6-4.4V7.6z" fill="none" stroke="#605e5c" stroke-width="1.6" stroke-linecap="round" stroke-linejoin="round"/><path d="M4.6 7.8l7.4 4.3 7.4-4.3M12 12.1v8.6" fill="none" stroke="#605e5c" stroke-width="1.6" stroke-linecap="round" stroke-linejoin="round"/></g><text x="1469" y="357.25" font-size="12.5" font-weight="600" fill="#242424">Shipping service</text><rect x="1605.6" y="344.00" width="67.4" height="18" rx="9" fill="#ffffff" stroke="#a0d8a0" stroke-width="1"/><circle cx="1616.6" cy="353" r="6" fill="#4c9a2a"/><path d="M1613.8999999999999 353 l1.9 1.9 l3.4 -3.9" fill="none" stroke="#fff" stroke-width="1.4" stroke-linecap="round" stroke-linejoin="round"/><text x="1625.6" y="356.57" font-size="10.5" fill="#323130">Healthy</text><line x1="1436" y1="373" x2="1680" y2="373" stroke="#e6e4e2"/><circle cx="1451" cy="388" r="6" fill="#4c9a2a"/><path d="M1448.3 388 l1.9 1.9 l3.4 -3.9" fill="none" stroke="#fff" stroke-width="1.4" stroke-linecap="round" stroke-linejoin="round"/><g transform="translate(1467,381) scale(0.875)">
    <rect x="1.5" y="8" width="2.6" height="6" rx="0.6" fill="#8661c5"/>
    <rect x="5.7" y="4.5" width="2.6" height="9.5" rx="0.6" fill="#0078D4"/>
    <rect x="9.9" y="6.5" width="2.6" height="7.5" rx="0.6" fill="#3fb0ac"/>
  </g><text x="1487" y="391.5" font-size="10.5" fill="#242424">Carrier API availability</text><text x="1669" y="391.5" font-size="10.5" font-weight="400" fill="#605e5c" text-anchor="end">2</text><line x1="1445" y1="397" x2="1671" y2="397" stroke="#e6e4e2" stroke-opacity="0.7"/><circle cx="1451" cy="406" r="6" fill="#4c9a2a"/><path d="M1448.3 406 l1.9 1.9 l3.4 -3.9" fill="none" stroke="#fff" stroke-width="1.4" stroke-linecap="round" stroke-linejoin="round"/><g transform="translate(1467,399) scale(0.875)">
    <rect x="1.5" y="8" width="2.6" height="6" rx="0.6" fill="#8661c5"/>
    <rect x="5.7" y="4.5" width="2.6" height="9.5" rx="0.6" fill="#0078D4"/>
    <rect x="9.9" y="6.5" width="2.6" height="7.5" rx="0.6" fill="#3fb0ac"/>
  </g><text x="1487" y="409.5" font-size="10.5" fill="#242424">Carrier API latency</text><text x="1669" y="409.5" font-size="10.5" font-weight="400" fill="#605e5c" text-anchor="end">1</text><line x1="1445" y1="415" x2="1671" y2="415" stroke="#e6e4e2" stroke-opacity="0.7"/><circle cx="1451" cy="424" r="6" fill="#4c9a2a"/><path d="M1448.3 424 l1.9 1.9 l3.4 -3.9" fill="none" stroke="#fff" stroke-width="1.4" stroke-linecap="round" stroke-linejoin="round"/><g transform="translate(1467,417) scale(0.875)">
    <rect x="1.5" y="8" width="2.6" height="6" rx="0.6" fill="#8661c5"/>
    <rect x="5.7" y="4.5" width="2.6" height="9.5" rx="0.6" fill="#0078D4"/>
    <rect x="9.9" y="6.5" width="2.6" height="7.5" rx="0.6" fill="#3fb0ac"/>
  </g><text x="1487" y="427.5" font-size="10.5" fill="#242424">Error rate</text><text x="1669" y="427.5" font-size="10.5" font-weight="400" fill="#605e5c" text-anchor="end">1</text>
<g filter="url(#cs)"><rect x="883" y="336" width="246" height="101" rx="10" fill="#f2f8f2" stroke="#a0d8a0" stroke-width="2"/></g><g transform="translate(889,343.16) scale(0.82)"><ellipse cx="12" cy="6" rx="7" ry="2.8" fill="none" stroke="#605e5c" stroke-width="1.6" stroke-linecap="round" stroke-linejoin="round"/><path d="M5 6v12c0 1.55 3.13 2.8 7 2.8s7-1.25 7-2.8V6" fill="none" stroke="#605e5c" stroke-width="1.6" stroke-linecap="round" stroke-linejoin="round"/><path d="M5 12c0 1.55 3.13 2.8 7 2.8s7-1.25 7-2.8" fill="none" stroke="#605e5c" stroke-width="1.6" stroke-linecap="round" stroke-linejoin="round"/></g><text x="917" y="357.25" font-size="12.5" font-weight="600" fill="#242424">Analytics store</text><rect x="1053.6" y="344.00" width="67.4" height="18" rx="9" fill="#ffffff" stroke="#a0d8a0" stroke-width="1"/><circle cx="1064.6" cy="353" r="6" fill="#4c9a2a"/><path d="M1061.8999999999999 353 l1.9 1.9 l3.4 -3.9" fill="none" stroke="#fff" stroke-width="1.4" stroke-linecap="round" stroke-linejoin="round"/><text x="1073.6" y="356.57" font-size="10.5" fill="#323130">Healthy</text><line x1="884" y1="373" x2="1128" y2="373" stroke="#e6e4e2"/><circle cx="899" cy="388" r="6" fill="#4c9a2a"/><path d="M896.3 388 l1.9 1.9 l3.4 -3.9" fill="none" stroke="#fff" stroke-width="1.4" stroke-linecap="round" stroke-linejoin="round"/><g transform="translate(915,381) scale(0.875)">
    <rect x="1.5" y="8" width="2.6" height="6" rx="0.6" fill="#8661c5"/>
    <rect x="5.7" y="4.5" width="2.6" height="9.5" rx="0.6" fill="#0078D4"/>
    <rect x="9.9" y="6.5" width="2.6" height="7.5" rx="0.6" fill="#3fb0ac"/>
  </g><text x="935" y="391.5" font-size="10.5" fill="#242424">Pipeline lag</text><text x="1117" y="391.5" font-size="10.5" font-weight="400" fill="#605e5c" text-anchor="end">0</text><line x1="893" y1="397" x2="1119" y2="397" stroke="#e6e4e2" stroke-opacity="0.7"/><circle cx="899" cy="406" r="6" fill="#4c9a2a"/><path d="M896.3 406 l1.9 1.9 l3.4 -3.9" fill="none" stroke="#fff" stroke-width="1.4" stroke-linecap="round" stroke-linejoin="round"/><g transform="translate(915,399) scale(0.875)">
    <rect x="1.5" y="8" width="2.6" height="6" rx="0.6" fill="#8661c5"/>
    <rect x="5.7" y="4.5" width="2.6" height="9.5" rx="0.6" fill="#0078D4"/>
    <rect x="9.9" y="6.5" width="2.6" height="7.5" rx="0.6" fill="#3fb0ac"/>
  </g><text x="935" y="409.5" font-size="10.5" fill="#242424">Ingestion errors</text><text x="1117" y="409.5" font-size="10.5" font-weight="400" fill="#605e5c" text-anchor="end">0</text><line x1="893" y1="415" x2="1119" y2="415" stroke="#e6e4e2" stroke-opacity="0.7"/><circle cx="899" cy="424" r="6" fill="#4c9a2a"/><path d="M896.3 424 l1.9 1.9 l3.4 -3.9" fill="none" stroke="#fff" stroke-width="1.4" stroke-linecap="round" stroke-linejoin="round"/><g transform="translate(915,417) scale(0.875)">
    <rect x="1.5" y="8" width="2.6" height="6" rx="0.6" fill="#8661c5"/>
    <rect x="5.7" y="4.5" width="2.6" height="9.5" rx="0.6" fill="#0078D4"/>
    <rect x="9.9" y="6.5" width="2.6" height="7.5" rx="0.6" fill="#3fb0ac"/>
  </g><text x="935" y="427.5" font-size="10.5" fill="#242424">Data freshness</text><text x="1117" y="427.5" font-size="10.5" font-weight="400" fill="#605e5c" text-anchor="end">1</text>
<g filter="url(#cs)"><rect x="193" y="216" width="246" height="58" rx="10" fill="#f2f8f2" stroke="#a0d8a0" stroke-width="2"/></g><g transform="translate(199,235.16) scale(0.82)"><circle cx="5.5" cy="6" r="2" fill="none" stroke="#605e5c" stroke-width="1.6" stroke-linecap="round" stroke-linejoin="round"/><circle cx="5.5" cy="18" r="2" fill="none" stroke="#605e5c" stroke-width="1.6" stroke-linecap="round" stroke-linejoin="round"/><circle cx="18.5" cy="12" r="2" fill="none" stroke="#605e5c" stroke-width="1.6" stroke-linecap="round" stroke-linejoin="round"/><path d="M7.5 6h3a4 4 0 0 1 4 4M7.5 18h3a4 4 0 0 0 4-4" fill="none" stroke="#605e5c" stroke-width="1.6" stroke-linecap="round" stroke-linejoin="round"/></g><text x="227" y="249.25" font-size="12.5" font-weight="600" fill="#242424">Shop and commerce</text><rect x="363.6" y="236.00" width="67.4" height="18" rx="9" fill="#ffffff" stroke="#a0d8a0" stroke-width="1"/><circle cx="374.6" cy="245" r="6" fill="#4c9a2a"/><path d="M371.90000000000003 245 l1.9 1.9 l3.4 -3.9" fill="none" stroke="#fff" stroke-width="1.4" stroke-linecap="round" stroke-linejoin="round"/><text x="383.6" y="248.57" font-size="10.5" fill="#323130">Healthy</text>
<g filter="url(#cs)"><rect x="745" y="216" width="246" height="58" rx="10" fill="#f2f8f2" stroke="#a0d8a0" stroke-width="2"/></g><g transform="translate(751,235.16) scale(0.82)"><path d="M4 20h16" fill="none" stroke="#605e5c" stroke-width="1.6" stroke-linecap="round" stroke-linejoin="round"/><path d="M6.5 20v-6M12 20V6.5M17.5 20v-9" fill="none" stroke="#605e5c" stroke-width="1.6" stroke-linecap="round" stroke-linejoin="round"/></g><text x="779" y="249.25" font-size="12.5" font-weight="600" fill="#242424">Reporting</text><rect x="915.6" y="236.00" width="67.4" height="18" rx="9" fill="#ffffff" stroke="#a0d8a0" stroke-width="1"/><circle cx="926.6" cy="245" r="6" fill="#4c9a2a"/><path d="M923.9 245 l1.9 1.9 l3.4 -3.9" fill="none" stroke="#fff" stroke-width="1.4" stroke-linecap="round" stroke-linejoin="round"/><text x="935.6" y="248.57" font-size="10.5" fill="#323130">Healthy</text>
<g filter="url(#cs)"><rect x="1297" y="216" width="246" height="58" rx="10" fill="#fbf2e7" stroke="#db7500" stroke-width="2"/></g><g transform="translate(1303,235.16) scale(0.82)"><path d="M12 3.2l7.6 4.4v8.8L12 20.8l-7.6-4.4V7.6z" fill="none" stroke="#605e5c" stroke-width="1.6" stroke-linecap="round" stroke-linejoin="round"/><path d="M4.6 7.8l7.4 4.3 7.4-4.3M12 12.1v8.6" fill="none" stroke="#605e5c" stroke-width="1.6" stroke-linecap="round" stroke-linejoin="round"/></g><text x="1331" y="249.25" font-size="12.5" font-weight="600" fill="#242424">Logistics</text><rect x="1461.4" y="236.00" width="73.6" height="18" rx="9" fill="#ffffff" stroke="#db7500" stroke-width="1"/><circle cx="1472.4" cy="245" r="6" fill="#c26a00"/><text x="1481.4" y="248.57" font-size="10.5" fill="#323130">Degraded</text>
<g filter="url(#cs)"><rect x="745" y="96" width="246" height="58" rx="10" fill="#fbf2e7" stroke="#db7500" stroke-width="2"/></g><g transform="translate(751,115.16) scale(0.82)"><circle cx="12" cy="12" r="8.4" fill="none" stroke="#605e5c" stroke-width="1.6" stroke-linecap="round" stroke-linejoin="round"/><path d="M4.2 12h3l2-3.6 2.8 7.2 1.8-3.6h4" fill="none" stroke="#605e5c" stroke-width="1.6" stroke-linecap="round" stroke-linejoin="round"/></g><text x="779" y="129.25" font-size="12.5" font-weight="600" fill="#242424">Workload root</text><rect x="909.4" y="116.00" width="73.6" height="18" rx="9" fill="#ffffff" stroke="#db7500" stroke-width="1"/><circle cx="920.4" cy="125" r="6" fill="#c26a00"/><text x="929.4" y="128.57" font-size="10.5" fill="#323130">Degraded</text>
</svg>