<svg xmlns="http://www.w3.org/2000/svg" width="1620" height="361" viewBox="0 0 1620 361" font-family="Segoe UI, -apple-system, BlinkMacSystemFont, Helvetica, Arial, sans-serif">
<defs><filter id="cs" x="-20%" y="-20%" width="140%" height="140%"><feDropShadow dx="0" dy="1" stdDeviation="1.3" flood-color="#000" flood-opacity="0.10"/></filter>
<marker id="ar-healthy" viewBox="0 0 10 10" refX="8" refY="5" markerWidth="7" markerHeight="7" orient="auto-start-reverse"><path d="M1 1 L9 5 L1 9" fill="none" stroke="#a0d8a0" stroke-width="1.6" stroke-linecap="round" stroke-linejoin="round"/></marker><marker id="ar-degraded" viewBox="0 0 10 10" refX="8" refY="5" markerWidth="7" markerHeight="7" orient="auto-start-reverse"><path d="M1 1 L9 5 L1 9" fill="none" stroke="#db7500" stroke-width="1.6" stroke-linecap="round" stroke-linejoin="round"/></marker><marker id="ar-unhealthy" viewBox="0 0 10 10" refX="8" refY="5" markerWidth="7" markerHeight="7" orient="auto-start-reverse"><path d="M1 1 L9 5 L1 9" fill="none" stroke="#ba0d16" stroke-width="1.6" stroke-linecap="round" stroke-linejoin="round"/></marker><marker id="ar-unknown" viewBox="0 0 10 10" refX="8" refY="5" markerWidth="7" markerHeight="7" orient="auto-start-reverse"><path d="M1 1 L9 5 L1 9" fill="none" stroke="#c8c6c4" stroke-width="1.6" stroke-linecap="round" stroke-linejoin="round"/></marker><marker id="ar-alt" viewBox="0 0 10 10" refX="8" refY="5" markerWidth="7" markerHeight="7" orient="auto-start-reverse"><path d="M1 1 L9 5 L1 9" fill="none" stroke="#8661c5" stroke-width="1.6" stroke-linecap="round" stroke-linejoin="round"/></marker><marker id="ar-signal" viewBox="0 0 10 10" refX="8" refY="5" markerWidth="7" markerHeight="7" orient="auto-start-reverse"><path d="M1 1 L9 5 L1 9" fill="none" stroke="#0078D4" stroke-width="1.6" stroke-linecap="round" stroke-linejoin="round"/></marker>
</defs><rect width="1620" height="361" fill="#ffffff"/>
<rect x="0" y="78" width="1620" height="120" fill="#ffffff"/>
<line x1="0" y1="78" x2="1620" y2="78" stroke="#e6e4e2"/>
<text x="1444" y="143" font-size="13" font-weight="700" fill="#323130">Workload root</text>
<rect x="0" y="198" width="1620" height="145" fill="#faf9f8"/>
<line x1="0" y1="198" x2="1620" y2="198" stroke="#e6e4e2"/>
<text x="1444" y="268.5" font-size="13" font-weight="700" fill="#323130">Application</text>
<text x="1444" y="285.5" font-size="13" font-weight="700" fill="#323130">components</text>
<line x1="0" y1="360.5" x2="1620" y2="360.5" stroke="#e6e4e2"/>
<text x="40" y="34" font-size="18" font-weight="700" fill="#242424">Event-driven serverless API</text>
<text x="40" y="52" font-size="12" fill="#605e5c">Signals live inside each entity; health rolls up to the workload root.</text>
<text x="1205.2" y="48" font-size="11.5" font-weight="600" fill="#605e5c" text-anchor="end">Legend</text><circle cx="1223.2" cy="44" r="4.5" fill="#4c9a2a"/><text x="1233.2" y="48" font-size="11.5" fill="#323130">Healthy</text><circle cx="1294" cy="44" r="4.5" fill="#c26a00"/><text x="1304" y="48" font-size="11.5" fill="#323130">Degraded</text><circle cx="1371.2" cy="44" r="4.5" fill="#c50f18"/><text x="1381.2" y="48" font-size="11.5" fill="#323130">Unhealthy</text><circle cx="1454.8" cy="44" r="4.5" fill="#8a8886"/><text x="1464.8" y="48" font-size="11.5" fill="#323130">Unknown</text><g transform="translate(1519.6,37) scale(0.875)">
    <rect x="1.5" y="8" width="2.6" height="6" rx="0.6" fill="#8661c5"/>
    <rect x="5.7" y="4.5" width="2.6" height="9.5" rx="0.6" fill="#0078D4"/>
    <rect x="9.9" y="6.5" width="2.6" height="7.5" rx="0.6" fill="#3fb0ac"/>
  </g><text x="1537.6" y="48" font-size="11.5" fill="#323130">Metric</text>
<g fill="none" stroke-linecap="butt" stroke-linejoin="round">
<path d="M178 216 L178.0 210.0 Q178 204 184.0 204.0 L614.0 204.0 Q621 204 621.0 197.0 L621 154" stroke="#a0d8a0" stroke-width="1.7"/>
<path d="M454 216 L454.0 212.0 Q454 208 458.0 208.0 L617.0 208.0 Q624 208 624.0 201.0 L624 154" stroke="#a0d8a0" stroke-width="1.7"/>
<path d="M1006 216 L1006.0 212.0 Q1006 208 1002.0 208.0 L840.0 208.0 Q833 208 833.0 201.0 L833 154" stroke="#a0d8a0" stroke-width="1.7"/>
<path d="M1282 216 L1282.0 211.5 Q1282 207 1277.5 207.0 L837.0 207.0 Q830 207 830.0 200.0 L830 154" stroke="#a0d8a0" stroke-width="1.7"/>
<path d="M730.0 216 V154" stroke="#db7500" stroke-width="1.7"/>
</g>
<g filter="url(#cs)"><rect x="55" y="216" width="246" height="65" rx="10" fill="#f2f8f2" stroke="#a0d8a0" stroke-width="2"/></g><g transform="translate(61,223.16) scale(0.82)"><path d="M13 2.5 5.5 13.5H11l-1 8 8.5-12H12z" fill="none" stroke="#605e5c" stroke-width="1.6" stroke-linecap="round" stroke-linejoin="round"/></g><text x="89" y="237.25" font-size="12.5" font-weight="600" fill="#242424">APIM</text><rect x="225.6" y="224.00" width="67.4" height="18" rx="9" fill="#ffffff" stroke="#a0d8a0" stroke-width="1"/><circle cx="236.6" cy="233" r="6" fill="#4c9a2a"/><path d="M233.9 233 l1.9 1.9 l3.4 -3.9" fill="none" stroke="#fff" stroke-width="1.4" stroke-linecap="round" stroke-linejoin="round"/><text x="245.6" y="236.57" font-size="10.5" fill="#323130">Healthy</text><line x1="56" y1="253" x2="300" y2="253" stroke="#e6e4e2"/><circle cx="71" cy="268" r="6" fill="#4c9a2a"/><path d="M68.3 268 l1.9 1.9 l3.4 -3.9" fill="none" stroke="#fff" stroke-width="1.4" stroke-linecap="round" stroke-linejoin="round"/><g transform="translate(87,261) scale(0.875)">
    <rect x="1.5" y="8" width="2.6" height="6" rx="0.6" fill="#8661c5"/>
    <rect x="5.7" y="4.5" width="2.6" height="9.5" rx="0.6" fill="#0078D4"/>
    <rect x="9.9" y="6.5" width="2.6" height="7.5" rx="0.6" fill="#3fb0ac"/>
  </g><text x="107" y="271.5" font-size="10.5" fill="#242424">Auth/route</text><text x="289" y="271.5" font-size="10.5" font-weight="400" fill="#605e5c" text-anchor="end">2</text>
<g filter="url(#cs)"><rect x="331" y="216" width="246" height="83" rx="10" fill="#f2f8f2" stroke="#a0d8a0" stroke-width="2"/></g><g transform="translate(337,223.16) scale(0.82)"><path d="M13 2.5 5.5 13.5H11l-1 8 8.5-12H12z" fill="none" stroke="#605e5c" stroke-width="1.6" stroke-linecap="round" stroke-linejoin="round"/></g><text x="365" y="237.25" font-size="12.5" font-weight="600" fill="#242424">API functions</text><rect x="501.6" y="224.00" width="67.4" height="18" rx="9" fill="#ffffff" stroke="#a0d8a0" stroke-width="1"/><circle cx="512.6" cy="233" r="6" fill="#4c9a2a"/><path d="M509.90000000000003 233 l1.9 1.9 l3.4 -3.9" fill="none" stroke="#fff" stroke-width="1.4" stroke-linecap="round" stroke-linejoin="round"/><text x="521.6" y="236.57" font-size="10.5" fill="#323130">Healthy</text><line x1="332" y1="253" x2="576" y2="253" stroke="#e6e4e2"/><circle cx="347" cy="268" r="6" fill="#4c9a2a"/><path d="M344.3 268 l1.9 1.9 l3.4 -3.9" fill="none" stroke="#fff" stroke-width="1.4" stroke-linecap="round" stroke-linejoin="round"/><g transform="translate(363,261) scale(0.875)">
    <rect x="1.5" y="8" width="2.6" height="6" rx="0.6" fill="#8661c5"/>
    <rect x="5.7" y="4.5" width="2.6" height="9.5" rx="0.6" fill="#0078D4"/>
    <rect x="9.9" y="6.5" width="2.6" height="7.5" rx="0.6" fill="#3fb0ac"/>
  </g><text x="383" y="271.5" font-size="10.5" fill="#242424">Invocation</text><text x="565" y="271.5" font-size="10.5" font-weight="400" fill="#605e5c" text-anchor="end">2</text><line x1="341" y1="277" x2="567" y2="277" stroke="#e6e4e2" stroke-opacity="0.7"/><circle cx="347" cy="286" r="6" fill="#4c9a2a"/><path d="M344.3 286 l1.9 1.9 l3.4 -3.9" fill="none" stroke="#fff" stroke-width="1.4" stroke-linecap="round" stroke-linejoin="round"/><g transform="translate(363,279) scale(0.875)">
    <rect x="1.5" y="8" width="2.6" height="6" rx="0.6" fill="#8661c5"/>
    <rect x="5.7" y="4.5" width="2.6" height="9.5" rx="0.6" fill="#0078D4"/>
    <rect x="9.9" y="6.5" width="2.6" height="7.5" rx="0.6" fill="#3fb0ac"/>
  </g><text x="383" y="289.5" font-size="10.5" fill="#242424">success signal</text><text x="565" y="289.5" font-size="10.5" font-weight="400" fill="#605e5c" text-anchor="end">1</text>
<g filter="url(#cs)"><rect x="607" y="216" width="246" height="65" rx="10" fill="#fbf2e7" stroke="#db7500" stroke-width="2"/></g><g transform="translate(613,223.16) scale(0.82)"><ellipse cx="12" cy="6" rx="7" ry="2.8" fill="none" stroke="#605e5c" stroke-width="1.6" stroke-linecap="round" stroke-linejoin="round"/><path d="M5 6v12c0 1.55 3.13 2.8 7 2.8s7-1.25 7-2.8V6" fill="none" stroke="#605e5c" stroke-width="1.6" stroke-linecap="round" stroke-linejoin="round"/><path d="M5 12c0 1.55 3.13 2.8 7 2.8s7-1.25 7-2.8" fill="none" stroke="#605e5c" stroke-width="1.6" stroke-linecap="round" stroke-linejoin="round"/></g><text x="641" y="237.25" font-size="12.5" font-weight="600" fill="#242424">Cosmos DB</text><rect x="771.4" y="224.00" width="73.6" height="18" rx="9" fill="#ffffff" stroke="#db7500" stroke-width="1"/><circle cx="782.4" cy="233" r="6" fill="#c26a00"/><text x="791.4" y="236.57" font-size="10.5" fill="#323130">Degraded</text><line x1="608" y1="253" x2="852" y2="253" stroke="#e6e4e2"/><circle cx="623" cy="268" r="6" fill="#c26a00"/><g transform="translate(639,261) scale(0.875)">
    <rect x="1.5" y="8" width="2.6" height="6" rx="0.6" fill="#8661c5"/>
    <rect x="5.7" y="4.5" width="2.6" height="9.5" rx="0.6" fill="#0078D4"/>
    <rect x="9.9" y="6.5" width="2.6" height="7.5" rx="0.6" fill="#3fb0ac"/>
  </g><text x="659" y="271.5" font-size="10.5" fill="#242424">RU + 429</text><text x="841" y="271.5" font-size="10.5" font-weight="600" fill="#c26a00" text-anchor="end">11</text>
<g filter="url(#cs)"><rect x="883" y="216" width="246" height="65" rx="10" fill="#f2f8f2" stroke="#a0d8a0" stroke-width="2"/></g><g transform="translate(889,223.16) scale(0.82)"><path d="M13 2.5 5.5 13.5H11l-1 8 8.5-12H12z" fill="none" stroke="#605e5c" stroke-width="1.6" stroke-linecap="round" stroke-linejoin="round"/></g><text x="917" y="237.25" font-size="12.5" font-weight="600" fill="#242424">Event Grid</text><rect x="1053.6" y="224.00" width="67.4" height="18" rx="9" fill="#ffffff" stroke="#a0d8a0" stroke-width="1"/><circle cx="1064.6" cy="233" r="6" fill="#4c9a2a"/><path d="M1061.8999999999999 233 l1.9 1.9 l3.4 -3.9" fill="none" stroke="#fff" stroke-width="1.4" stroke-linecap="round" stroke-linejoin="round"/><text x="1073.6" y="236.57" font-size="10.5" fill="#323130">Healthy</text><line x1="884" y1="253" x2="1128" y2="253" stroke="#e6e4e2"/><circle cx="899" cy="268" r="6" fill="#4c9a2a"/><path d="M896.3 268 l1.9 1.9 l3.4 -3.9" fill="none" stroke="#fff" stroke-width="1.4" stroke-linecap="round" stroke-linejoin="round"/><g transform="translate(915,261) scale(0.875)">
    <rect x="1.5" y="8" width="2.6" height="6" rx="0.6" fill="#8661c5"/>
    <rect x="5.7" y="4.5" width="2.6" height="9.5" rx="0.6" fill="#0078D4"/>
    <rect x="9.9" y="6.5" width="2.6" height="7.5" rx="0.6" fill="#3fb0ac"/>
  </g><text x="935" y="271.5" font-size="10.5" fill="#242424">Delivery + DLQ</text><text x="1117" y="271.5" font-size="10.5" font-weight="400" fill="#605e5c" text-anchor="end">2</text>
<g filter="url(#cs)"><rect x="1159" y="216" width="246" height="83" rx="10" fill="#f2f8f2" stroke="#a0d8a0" stroke-width="2"/></g><g transform="translate(1165,223.16) scale(0.82)"><path d="M13 2.5 5.5 13.5H11l-1 8 8.5-12H12z" fill="none" stroke="#605e5c" stroke-width="1.6" stroke-linecap="round" stroke-linejoin="round"/></g><text x="1193" y="237.25" font-size="12.5" font-weight="600" fill="#242424">Worker functions</text><rect x="1329.6" y="224.00" width="67.4" height="18" rx="9" fill="#ffffff" stroke="#a0d8a0" stroke-width="1"/><circle cx="1340.6" cy="233" r="6" fill="#4c9a2a"/><path d="M1337.8999999999999 233 l1.9 1.9 l3.4 -3.9" fill="none" stroke="#fff" stroke-width="1.4" stroke-linecap="round" stroke-linejoin="round"/><text x="1349.6" y="236.57" font-size="10.5" fill="#323130">Healthy</text><line x1="1160" y1="253" x2="1404" y2="253" stroke="#e6e4e2"/><circle cx="1175" cy="268" r="6" fill="#4c9a2a"/><path d="M1172.3 268 l1.9 1.9 l3.4 -3.9" fill="none" stroke="#fff" stroke-width="1.4" stroke-linecap="round" stroke-linejoin="round"/><g transform="translate(1191,261) scale(0.875)">
    <rect x="1.5" y="8" width="2.6" height="6" rx="0.6" fill="#8661c5"/>
    <rect x="5.7" y="4.5" width="2.6" height="9.5" rx="0.6" fill="#0078D4"/>
    <rect x="9.9" y="6.5" width="2.6" height="7.5" rx="0.6" fill="#3fb0ac"/>
  </g><text x="1211" y="271.5" font-size="10.5" fill="#242424">Worker</text><text x="1393" y="271.5" font-size="10.5" font-weight="400" fill="#605e5c" text-anchor="end">2</text><line x1="1169" y1="277" x2="1395" y2="277" stroke="#e6e4e2" stroke-opacity="0.7"/><circle cx="1175" cy="286" r="6" fill="#4c9a2a"/><path d="M1172.3 286 l1.9 1.9 l3.4 -3.9" fill="none" stroke="#fff" stroke-width="1.4" stroke-linecap="round" stroke-linejoin="round"/><g transform="translate(1191,279) scale(0.875)">
    <rect x="1.5" y="8" width="2.6" height="6" rx="0.6" fill="#8661c5"/>
    <rect x="5.7" y="4.5" width="2.6" height="9.5" rx="0.6" fill="#0078D4"/>
    <rect x="9.9" y="6.5" width="2.6" height="7.5" rx="0.6" fill="#3fb0ac"/>
  </g><text x="1211" y="289.5" font-size="10.5" fill="#242424">success signal</text><text x="1393" y="289.5" font-size="10.5" font-weight="400" fill="#605e5c" text-anchor="end">1</text>
<g filter="url(#cs)"><rect x="607" y="96" width="246" height="58" rx="10" fill="#fbf2e7" stroke="#db7500" stroke-width="2"/></g><g transform="translate(613,115.16) scale(0.82)"><path d="M13 2.5 5.5 13.5H11l-1 8 8.5-12H12z" fill="none" stroke="#605e5c" stroke-width="1.6" stroke-linecap="round" stroke-linejoin="round"/></g><text x="641" y="129.25" font-size="12.5" font-weight="600" fill="#242424">API service</text><rect x="771.4" y="116.00" width="73.6" height="18" rx="9" fill="#ffffff" stroke="#db7500" stroke-width="1"/><circle cx="782.4" cy="125" r="6" fill="#c26a00"/><text x="791.4" y="128.57" font-size="10.5" fill="#323130">Degraded</text>
</svg>