<svg xmlns="http://www.w3.org/2000/svg" width="1280" height="482" viewBox="0 0 1280 482" font-family="Segoe UI, -apple-system, BlinkMacSystemFont, Helvetica, Arial, sans-serif">
<defs><filter id="cs" x="-20%" y="-20%" width="140%" height="140%"><feDropShadow dx="0" dy="1" stdDeviation="1.3" flood-color="#000" flood-opacity="0.10"/></filter>
<marker id="ar-healthy" viewBox="0 0 10 10" refX="8" refY="5" markerWidth="7" markerHeight="7" orient="auto-start-reverse"><path d="M1 1 L9 5 L1 9" fill="none" stroke="#a0d8a0" stroke-width="1.6" stroke-linecap="round" stroke-linejoin="round"/></marker><marker id="ar-degraded" viewBox="0 0 10 10" refX="8" refY="5" markerWidth="7" markerHeight="7" orient="auto-start-reverse"><path d="M1 1 L9 5 L1 9" fill="none" stroke="#db7500" stroke-width="1.6" stroke-linecap="round" stroke-linejoin="round"/></marker><marker id="ar-unhealthy" viewBox="0 0 10 10" refX="8" refY="5" markerWidth="7" markerHeight="7" orient="auto-start-reverse"><path d="M1 1 L9 5 L1 9" fill="none" stroke="#ba0d16" stroke-width="1.6" stroke-linecap="round" stroke-linejoin="round"/></marker><marker id="ar-unknown" viewBox="0 0 10 10" refX="8" refY="5" markerWidth="7" markerHeight="7" orient="auto-start-reverse"><path d="M1 1 L9 5 L1 9" fill="none" stroke="#c8c6c4" stroke-width="1.6" stroke-linecap="round" stroke-linejoin="round"/></marker><marker id="ar-alt" viewBox="0 0 10 10" refX="8" refY="5" markerWidth="7" markerHeight="7" orient="auto-start-reverse"><path d="M1 1 L9 5 L1 9" fill="none" stroke="#8661c5" stroke-width="1.6" stroke-linecap="round" stroke-linejoin="round"/></marker><marker id="ar-signal" viewBox="0 0 10 10" refX="8" refY="5" markerWidth="7" markerHeight="7" orient="auto-start-reverse"><path d="M1 1 L9 5 L1 9" fill="none" stroke="#0078D4" stroke-width="1.6" stroke-linecap="round" stroke-linejoin="round"/></marker>
</defs><rect width="1280" height="482" fill="#ffffff"/>
<rect x="0" y="78" width="1280" height="120" fill="#ffffff"/>
<line x1="0" y1="78" x2="1280" y2="78" stroke="#e6e4e2"/>
<text x="1104" y="143" font-size="13" font-weight="700" fill="#323130">Workload root</text>
<rect x="0" y="198" width="1280" height="146" fill="#faf9f8"/>
<line x1="0" y1="198" x2="1280" y2="198" stroke="#e6e4e2"/>
<text x="1104" y="269" font-size="13" font-weight="700" fill="#323130">Business &amp;</text>
<text x="1104" y="286" font-size="13" font-weight="700" fill="#323130">user flows</text>
<rect x="0" y="344" width="1280" height="120" fill="#ffffff"/>
<line x1="0" y1="344" x2="1280" y2="344" stroke="#e6e4e2"/>
<text x="1104" y="402" font-size="13" font-weight="700" fill="#323130">Application</text>
<text x="1104" y="419" font-size="13" font-weight="700" fill="#323130">components</text>
<line x1="0" y1="481.5" x2="1280" y2="481.5" stroke="#e6e4e2"/>
<text x="40" y="34" font-size="18" font-weight="700" fill="#242424">Keep the model navigable: one large model vs nested models</text>
<text x="40" y="52" font-size="12" fill="#605e5c">Signals live inside each entity; health rolls up to the workload root.</text>
<text x="865.2" y="48" font-size="11.5" font-weight="600" fill="#605e5c" text-anchor="end">Legend</text><circle cx="883.2" cy="44" r="4.5" fill="#4c9a2a"/><text x="893.2" y="48" font-size="11.5" fill="#323130">Healthy</text><circle cx="954" cy="44" r="4.5" fill="#c26a00"/><text x="964" y="48" font-size="11.5" fill="#323130">Degraded</text><circle cx="1031.2" cy="44" r="4.5" fill="#c50f18"/><text x="1041.2" y="48" font-size="11.5" fill="#323130">Unhealthy</text><circle cx="1114.8" cy="44" r="4.5" fill="#8a8886"/><text x="1124.8" y="48" font-size="11.5" fill="#323130">Unknown</text><g transform="translate(1179.6,37) scale(0.875)">
    <rect x="1.5" y="8" width="2.6" height="6" rx="0.6" fill="#8661c5"/>
    <rect x="5.7" y="4.5" width="2.6" height="9.5" rx="0.6" fill="#0078D4"/>
    <rect x="9.9" y="6.5" width="2.6" height="7.5" rx="0.6" fill="#3fb0ac"/>
  </g><text x="1197.6" y="48" font-size="11.5" fill="#323130">Metric</text>
<g fill="none" stroke-linecap="butt" stroke-linejoin="round">
<path d="M144 216 L144.0 210.0 Q144 204 150.0 204.0 L483.0 204.0 Q490 204 490.0 197.0 L490 154" stroke="#a0d8a0" stroke-width="1.7"/>
<path d="M352 216 L352.0 212.0 Q352 208 356.0 208.0 L486.0 208.0 Q493 208 493.0 201.0 L493 154" stroke="#a0d8a0" stroke-width="1.7"/>
<path d="M768 216 L768.0 212.0 Q768 208 764.0 208.0 L631.0 208.0 Q624 208 624.0 201.0 L624 154" stroke="#a0d8a0" stroke-width="1.7"/>
<path d="M976 216 L976.0 211.5 Q976 207 971.5 207.0 L628.0 207.0 Q621 207 621.0 200.0 L621 154" stroke="#a0d8a0" stroke-width="1.7"/>
<path d="M560.0 216 V154" stroke="#db7500" stroke-width="1.7"/>
<path d="M144 362 V274" stroke="#a0d8a0" stroke-width="1.6" stroke-dasharray="5 4"/>
<path d="M352 362 V274" stroke="#a0d8a0" stroke-width="1.6" stroke-dasharray="5 4"/>
<path d="M768 362 V274" stroke="#a0d8a0" stroke-width="1.6" stroke-dasharray="5 4"/>
<path d="M976 362 V274" stroke="#a0d8a0" stroke-width="1.6" stroke-dasharray="5 4"/>
<path d="M560 362 V274" stroke="#db7500" stroke-width="1.6" stroke-dasharray="5 4"/>
<g stroke="none"><rect x="104.6" y="280.0" width="78.8" height="20" rx="10" fill="#ffffff" stroke="#d8d6d4" stroke-width="1"/><text x="144.0" y="293.6" font-size="10.5" font-weight="600" fill="#242424" text-anchor="middle">referenced</text></g>
<g stroke="none"><rect x="312.6" y="280.0" width="78.8" height="20" rx="10" fill="#ffffff" stroke="#d8d6d4" stroke-width="1"/><text x="352.0" y="293.6" font-size="10.5" font-weight="600" fill="#242424" text-anchor="middle">referenced</text></g>
<g stroke="none"><rect x="728.6" y="280.0" width="78.8" height="20" rx="10" fill="#ffffff" stroke="#d8d6d4" stroke-width="1"/><text x="768.0" y="293.6" font-size="10.5" font-weight="600" fill="#242424" text-anchor="middle">referenced</text></g>
<g stroke="none"><rect x="936.6" y="280.0" width="78.8" height="20" rx="10" fill="#ffffff" stroke="#d8d6d4" stroke-width="1"/><text x="976.0" y="293.6" font-size="10.5" font-weight="600" fill="#242424" text-anchor="middle">referenced</text></g>
<g stroke="none"><rect x="520.6" y="280.0" width="78.8" height="20" rx="10" fill="#ffffff" stroke="#d8d6d4" stroke-width="1"/><text x="560.0" y="293.6" font-size="10.5" font-weight="600" fill="#242424" text-anchor="middle">referenced</text></g>
</g>
<g filter="url(#cs)"><rect x="60" y="362" width="168" height="58" rx="10" fill="#f2f8f2" stroke="#a0d8a0" stroke-width="2"/></g><g transform="translate(66,381.16) scale(0.82)"><circle cx="12" cy="12" r="8.4" fill="none" stroke="#605e5c" stroke-width="1.6" stroke-linecap="round" stroke-linejoin="round"/><path d="M3.6 12h16.8M12 3.6c3 3 3 13.8 0 16.8M12 3.6c-3 3-3 13.8 0 16.8" fill="none" stroke="#605e5c" stroke-width="1.6" stroke-linecap="round" stroke-linejoin="round"/></g><text x="94" y="394.57" font-size="10.5" font-weight="600" fill="#242424">Frontend</text><rect x="152.6" y="382.00" width="67.4" height="18" rx="9" fill="#ffffff" stroke="#a0d8a0" stroke-width="1"/><circle cx="163.6" cy="391" r="6" fill="#4c9a2a"/><path d="M160.9 391 l1.9 1.9 l3.4 -3.9" fill="none" stroke="#fff" stroke-width="1.4" stroke-linecap="round" stroke-linejoin="round"/><text x="172.6" y="394.57" font-size="10.5" fill="#323130">Healthy</text>
<g filter="url(#cs)"><rect x="60" y="216" width="168" height="58" rx="10" fill="#f2f8f2" stroke="#a0d8a0" stroke-width="2"/></g><g transform="translate(66,235.16) scale(0.82)"><circle cx="12" cy="12" r="8.4" fill="none" stroke="#605e5c" stroke-width="1.6" stroke-linecap="round" stroke-linejoin="round"/><path d="M3.6 12h16.8M12 3.6c3 3 3 13.8 0 16.8M12 3.6c-3 3-3 13.8 0 16.8" fill="none" stroke="#605e5c" stroke-width="1.6" stroke-linecap="round" stroke-linejoin="round"/></g><text x="94" y="248.57" font-size="10.5" font-weight="600" fill="#242424">Frontend</text><rect x="152.6" y="236.00" width="67.4" height="18" rx="9" fill="#ffffff" stroke="#a0d8a0" stroke-width="1"/><circle cx="163.6" cy="245" r="6" fill="#4c9a2a"/><path d="M160.9 245 l1.9 1.9 l3.4 -3.9" fill="none" stroke="#fff" stroke-width="1.4" stroke-linecap="round" stroke-linejoin="round"/><text x="172.6" y="248.57" font-size="10.5" fill="#323130">Healthy</text>
<g filter="url(#cs)"><rect x="268" y="362" width="168" height="58" rx="10" fill="#f2f8f2" stroke="#a0d8a0" stroke-width="2"/></g><g transform="translate(274,381.16) scale(0.82)"><circle cx="5.5" cy="6" r="2" fill="none" stroke="#605e5c" stroke-width="1.6" stroke-linecap="round" stroke-linejoin="round"/><circle cx="5.5" cy="18" r="2" fill="none" stroke="#605e5c" stroke-width="1.6" stroke-linecap="round" stroke-linejoin="round"/><circle cx="18.5" cy="12" r="2" fill="none" stroke="#605e5c" stroke-width="1.6" stroke-linecap="round" stroke-linejoin="round"/><path d="M7.5 6h3a4 4 0 0 1 4 4M7.5 18h3a4 4 0 0 0 4-4" fill="none" stroke="#605e5c" stroke-width="1.6" stroke-linecap="round" stroke-linejoin="round"/></g><text x="302" y="394.57" font-size="10.5" font-weight="600" fill="#242424">Ordering</text><rect x="360.6" y="382.00" width="67.4" height="18" rx="9" fill="#ffffff" stroke="#a0d8a0" stroke-width="1"/><circle cx="371.6" cy="391" r="6" fill="#4c9a2a"/><path d="M368.90000000000003 391 l1.9 1.9 l3.4 -3.9" fill="none" stroke="#fff" stroke-width="1.4" stroke-linecap="round" stroke-linejoin="round"/><text x="380.6" y="394.57" font-size="10.5" fill="#323130">Healthy</text>
<g filter="url(#cs)"><rect x="268" y="216" width="168" height="58" rx="10" fill="#f2f8f2" stroke="#a0d8a0" stroke-width="2"/></g><g transform="translate(274,235.16) scale(0.82)"><circle cx="5.5" cy="6" r="2" fill="none" stroke="#605e5c" stroke-width="1.6" stroke-linecap="round" stroke-linejoin="round"/><circle cx="5.5" cy="18" r="2" fill="none" stroke="#605e5c" stroke-width="1.6" stroke-linecap="round" stroke-linejoin="round"/><circle cx="18.5" cy="12" r="2" fill="none" stroke="#605e5c" stroke-width="1.6" stroke-linecap="round" stroke-linejoin="round"/><path d="M7.5 6h3a4 4 0 0 1 4 4M7.5 18h3a4 4 0 0 0 4-4" fill="none" stroke="#605e5c" stroke-width="1.6" stroke-linecap="round" stroke-linejoin="round"/></g><text x="302" y="248.57" font-size="10.5" font-weight="600" fill="#242424">Ordering</text><rect x="360.6" y="236.00" width="67.4" height="18" rx="9" fill="#ffffff" stroke="#a0d8a0" stroke-width="1"/><circle cx="371.6" cy="245" r="6" fill="#4c9a2a"/><path d="M368.90000000000003 245 l1.9 1.9 l3.4 -3.9" fill="none" stroke="#fff" stroke-width="1.4" stroke-linecap="round" stroke-linejoin="round"/><text x="380.6" y="248.57" font-size="10.5" fill="#323130">Healthy</text>
<g filter="url(#cs)"><rect x="476" y="362" width="168" height="58" rx="10" fill="#fbf2e7" stroke="#db7500" stroke-width="2"/></g><g transform="translate(482,381.16) scale(0.82)"><circle cx="5.5" cy="6" r="2" fill="none" stroke="#605e5c" stroke-width="1.6" stroke-linecap="round" stroke-linejoin="round"/><circle cx="5.5" cy="18" r="2" fill="none" stroke="#605e5c" stroke-width="1.6" stroke-linecap="round" stroke-linejoin="round"/><circle cx="18.5" cy="12" r="2" fill="none" stroke="#605e5c" stroke-width="1.6" stroke-linecap="round" stroke-linejoin="round"/><path d="M7.5 6h3a4 4 0 0 1 4 4M7.5 18h3a4 4 0 0 0 4-4" fill="none" stroke="#605e5c" stroke-width="1.6" stroke-linecap="round" stroke-linejoin="round"/></g><text x="510" y="394.57" font-size="10.5" font-weight="600" fill="#242424">Payment</text><rect x="562.4" y="382.00" width="73.6" height="18" rx="9" fill="#ffffff" stroke="#db7500" stroke-width="1"/><circle cx="573.4" cy="391" r="6" fill="#c26a00"/><text x="582.4" y="394.57" font-size="10.5" fill="#323130">Degraded</text>
<g filter="url(#cs)"><rect x="476" y="216" width="168" height="58" rx="10" fill="#fbf2e7" stroke="#db7500" stroke-width="2"/></g><g transform="translate(482,235.16) scale(0.82)"><circle cx="5.5" cy="6" r="2" fill="none" stroke="#605e5c" stroke-width="1.6" stroke-linecap="round" stroke-linejoin="round"/><circle cx="5.5" cy="18" r="2" fill="none" stroke="#605e5c" stroke-width="1.6" stroke-linecap="round" stroke-linejoin="round"/><circle cx="18.5" cy="12" r="2" fill="none" stroke="#605e5c" stroke-width="1.6" stroke-linecap="round" stroke-linejoin="round"/><path d="M7.5 6h3a4 4 0 0 1 4 4M7.5 18h3a4 4 0 0 0 4-4" fill="none" stroke="#605e5c" stroke-width="1.6" stroke-linecap="round" stroke-linejoin="round"/></g><text x="510" y="248.57" font-size="10.5" font-weight="600" fill="#242424">Payment</text><rect x="562.4" y="236.00" width="73.6" height="18" rx="9" fill="#ffffff" stroke="#db7500" stroke-width="1"/><circle cx="573.4" cy="245" r="6" fill="#c26a00"/><text x="582.4" y="248.57" font-size="10.5" fill="#323130">Degraded</text>
<g filter="url(#cs)"><rect x="684" y="362" width="168" height="58" rx="10" fill="#f2f8f2" stroke="#a0d8a0" stroke-width="2"/></g><g transform="translate(690,381.16) scale(0.82)"><path d="M12 3.2l7.6 4.4v8.8L12 20.8l-7.6-4.4V7.6z" fill="none" stroke="#605e5c" stroke-width="1.6" stroke-linecap="round" stroke-linejoin="round"/><path d="M4.6 7.8l7.4 4.3 7.4-4.3M12 12.1v8.6" fill="none" stroke="#605e5c" stroke-width="1.6" stroke-linecap="round" stroke-linejoin="round"/></g><text x="718" y="394.23" font-size="9.5" font-weight="600" fill="#242424">Fulfillm…</text><rect x="776.6" y="382.00" width="67.4" height="18" rx="9" fill="#ffffff" stroke="#a0d8a0" stroke-width="1"/><circle cx="787.6" cy="391" r="6" fill="#4c9a2a"/><path d="M784.9 391 l1.9 1.9 l3.4 -3.9" fill="none" stroke="#fff" stroke-width="1.4" stroke-linecap="round" stroke-linejoin="round"/><text x="796.6" y="394.57" font-size="10.5" fill="#323130">Healthy</text>
<g filter="url(#cs)"><rect x="684" y="216" width="168" height="58" rx="10" fill="#f2f8f2" stroke="#a0d8a0" stroke-width="2"/></g><g transform="translate(690,235.16) scale(0.82)"><path d="M12 3.2l7.6 4.4v8.8L12 20.8l-7.6-4.4V7.6z" fill="none" stroke="#605e5c" stroke-width="1.6" stroke-linecap="round" stroke-linejoin="round"/><path d="M4.6 7.8l7.4 4.3 7.4-4.3M12 12.1v8.6" fill="none" stroke="#605e5c" stroke-width="1.6" stroke-linecap="round" stroke-linejoin="round"/></g><text x="718" y="248.23" font-size="9.5" font-weight="600" fill="#242424">Fulfillm…</text><rect x="776.6" y="236.00" width="67.4" height="18" rx="9" fill="#ffffff" stroke="#a0d8a0" stroke-width="1"/><circle cx="787.6" cy="245" r="6" fill="#4c9a2a"/><path d="M784.9 245 l1.9 1.9 l3.4 -3.9" fill="none" stroke="#fff" stroke-width="1.4" stroke-linecap="round" stroke-linejoin="round"/><text x="796.6" y="248.57" font-size="10.5" fill="#323130">Healthy</text>
<g filter="url(#cs)"><rect x="892" y="362" width="168" height="58" rx="10" fill="#f2f8f2" stroke="#a0d8a0" stroke-width="2"/></g><g transform="translate(898,381.16) scale(0.82)"><path d="M12 3.2l7.6 4.4v8.8L12 20.8l-7.6-4.4V7.6z" fill="none" stroke="#605e5c" stroke-width="1.6" stroke-linecap="round" stroke-linejoin="round"/><path d="M4.6 7.8l7.4 4.3 7.4-4.3M12 12.1v8.6" fill="none" stroke="#605e5c" stroke-width="1.6" stroke-linecap="round" stroke-linejoin="round"/></g><text x="926" y="394.23" font-size="9.5" font-weight="600" fill="#242424">Notifica…</text><rect x="984.6" y="382.00" width="67.4" height="18" rx="9" fill="#ffffff" stroke="#a0d8a0" stroke-width="1"/><circle cx="995.6" cy="391" r="6" fill="#4c9a2a"/><path d="M992.9 391 l1.9 1.9 l3.4 -3.9" fill="none" stroke="#fff" stroke-width="1.4" stroke-linecap="round" stroke-linejoin="round"/><text x="1004.6" y="394.57" font-size="10.5" fill="#323130">Healthy</text>
<g filter="url(#cs)"><rect x="892" y="216" width="168" height="58" rx="10" fill="#f2f8f2" stroke="#a0d8a0" stroke-width="2"/></g><g transform="translate(898,235.16) scale(0.82)"><path d="M12 3.2l7.6 4.4v8.8L12 20.8l-7.6-4.4V7.6z" fill="none" stroke="#605e5c" stroke-width="1.6" stroke-linecap="round" stroke-linejoin="round"/><path d="M4.6 7.8l7.4 4.3 7.4-4.3M12 12.1v8.6" fill="none" stroke="#605e5c" stroke-width="1.6" stroke-linecap="round" stroke-linejoin="round"/></g><text x="926" y="248.23" font-size="9.5" font-weight="600" fill="#242424">Notifica…</text><rect x="984.6" y="236.00" width="67.4" height="18" rx="9" fill="#ffffff" stroke="#a0d8a0" stroke-width="1"/><circle cx="995.6" cy="245" r="6" fill="#4c9a2a"/><path d="M992.9 245 l1.9 1.9 l3.4 -3.9" fill="none" stroke="#fff" stroke-width="1.4" stroke-linecap="round" stroke-linejoin="round"/><text x="1004.6" y="248.57" font-size="10.5" fill="#323130">Healthy</text>
<g filter="url(#cs)"><rect x="476" y="96" width="168" height="58" rx="10" fill="#fbf2e7" stroke="#db7500" stroke-width="2"/></g><g transform="translate(482,115.16) scale(0.82)"><circle cx="5.5" cy="6" r="2" fill="none" stroke="#605e5c" stroke-width="1.6" stroke-linecap="round" stroke-linejoin="round"/><circle cx="5.5" cy="18" r="2" fill="none" stroke="#605e5c" stroke-width="1.6" stroke-linecap="round" stroke-linejoin="round"/><circle cx="18.5" cy="12" r="2" fill="none" stroke="#605e5c" stroke-width="1.6" stroke-linecap="round" stroke-linejoin="round"/><path d="M7.5 6h3a4 4 0 0 1 4 4M7.5 18h3a4 4 0 0 0 4-4" fill="none" stroke="#605e5c" stroke-width="1.6" stroke-linecap="round" stroke-linejoin="round"/></g><text x="510" y="128.23" font-size="9.5" font-weight="600" fill="#242424">E-comme…</text><rect x="562.4" y="116.00" width="73.6" height="18" rx="9" fill="#ffffff" stroke="#db7500" stroke-width="1"/><circle cx="573.4" cy="125" r="6" fill="#c26a00"/><text x="582.4" y="128.57" font-size="10.5" fill="#323130">Degraded</text>
</svg>