<svg xmlns="http://www.w3.org/2000/svg" width="3552" height="463" viewBox="0 0 3552 463" font-family="Segoe UI, -apple-system, BlinkMacSystemFont, Helvetica, Arial, sans-serif">
<defs><filter id="cs" x="-20%" y="-20%" width="140%" height="140%"><feDropShadow dx="0" dy="1" stdDeviation="1.3" flood-color="#000" flood-opacity="0.10"/></filter>
<marker id="ar-healthy" viewBox="0 0 10 10" refX="8" refY="5" markerWidth="7" markerHeight="7" orient="auto-start-reverse"><path d="M1 1 L9 5 L1 9" fill="none" stroke="#a0d8a0" stroke-width="1.6" stroke-linecap="round" stroke-linejoin="round"/></marker><marker id="ar-degraded" viewBox="0 0 10 10" refX="8" refY="5" markerWidth="7" markerHeight="7" orient="auto-start-reverse"><path d="M1 1 L9 5 L1 9" fill="none" stroke="#db7500" stroke-width="1.6" stroke-linecap="round" stroke-linejoin="round"/></marker><marker id="ar-unhealthy" viewBox="0 0 10 10" refX="8" refY="5" markerWidth="7" markerHeight="7" orient="auto-start-reverse"><path d="M1 1 L9 5 L1 9" fill="none" stroke="#ba0d16" stroke-width="1.6" stroke-linecap="round" stroke-linejoin="round"/></marker><marker id="ar-unknown" viewBox="0 0 10 10" refX="8" refY="5" markerWidth="7" markerHeight="7" orient="auto-start-reverse"><path d="M1 1 L9 5 L1 9" fill="none" stroke="#c8c6c4" stroke-width="1.6" stroke-linecap="round" stroke-linejoin="round"/></marker><marker id="ar-alt" viewBox="0 0 10 10" refX="8" refY="5" markerWidth="7" markerHeight="7" orient="auto-start-reverse"><path d="M1 1 L9 5 L1 9" fill="none" stroke="#8661c5" stroke-width="1.6" stroke-linecap="round" stroke-linejoin="round"/></marker><marker id="ar-signal" viewBox="0 0 10 10" refX="8" refY="5" markerWidth="7" markerHeight="7" orient="auto-start-reverse"><path d="M1 1 L9 5 L1 9" fill="none" stroke="#0078D4" stroke-width="1.6" stroke-linecap="round" stroke-linejoin="round"/></marker>
</defs><rect width="3552" height="463" fill="#ffffff"/>
<rect x="0" y="78" width="3552" height="120" fill="#ffffff"/>
<line x1="0" y1="78" x2="3552" y2="78" stroke="#e6e4e2"/>
<text x="3376" y="143" font-size="13" font-weight="700" fill="#323130">Workload root</text>
<rect x="0" y="198" width="3552" height="120" fill="#faf9f8"/>
<line x1="0" y1="198" x2="3552" y2="198" stroke="#e6e4e2"/>
<text x="3376" y="256" font-size="13" font-weight="700" fill="#323130">Business &amp;</text>
<text x="3376" y="273" font-size="13" font-weight="700" fill="#323130">user flows</text>
<rect x="0" y="318" width="3552" height="127" fill="#ffffff"/>
<line x1="0" y1="318" x2="3552" y2="318" stroke="#e6e4e2"/>
<text x="3376" y="379.5" font-size="13" font-weight="700" fill="#323130">Application</text>
<text x="3376" y="396.5" font-size="13" font-weight="700" fill="#323130">components</text>
<line x1="0" y1="462.5" x2="3552" y2="462.5" stroke="#e6e4e2"/>
<text x="40" y="34" font-size="18" font-weight="700" fill="#242424">Keep the model navigable: one large model vs nested models</text>
<text x="40" y="52" font-size="12" fill="#605e5c">Signals live inside each entity; health rolls up to the workload root.</text>
<text x="3137.2" y="48" font-size="11.5" font-weight="600" fill="#605e5c" text-anchor="end">Legend</text><circle cx="3155.2" cy="44" r="4.5" fill="#4c9a2a"/><text x="3165.2" y="48" font-size="11.5" fill="#323130">Healthy</text><circle cx="3226" cy="44" r="4.5" fill="#c26a00"/><text x="3236" y="48" font-size="11.5" fill="#323130">Degraded</text><circle cx="3303.2" cy="44" r="4.5" fill="#c50f18"/><text x="3313.2" y="48" font-size="11.5" fill="#323130">Unhealthy</text><circle cx="3386.7999999999997" cy="44" r="4.5" fill="#8a8886"/><text x="3396.7999999999997" y="48" font-size="11.5" fill="#323130">Unknown</text><g transform="translate(3451.6,37) scale(0.875)">
    <rect x="1.5" y="8" width="2.6" height="6" rx="0.6" fill="#8661c5"/>
    <rect x="5.7" y="4.5" width="2.6" height="9.5" rx="0.6" fill="#0078D4"/>
    <rect x="9.9" y="6.5" width="2.6" height="7.5" rx="0.6" fill="#3fb0ac"/>
  </g><text x="3469.6" y="48" font-size="11.5" fill="#323130">Metric</text>
<g fill="none" stroke-linecap="butt" stroke-linejoin="round">
<path d="M291.0 336 V274" stroke="#a0d8a0" stroke-width="1.7"/>
<path d="M372.7 336 V274" stroke="#a0d8a0" stroke-width="1.7"/>
<path d="M730 336 L730.0 330.0 Q730 324 724.0 324.0 L487.2 324.0 Q480.2 324 480.2 317.0 L480.2 274" stroke="#a0d8a0" stroke-width="1.7"/>
<path d="M1033.6 336 V274" stroke="#a0d8a0" stroke-width="1.7"/>
<path d="M1282 336 L1282.0 331.5 Q1282 327 1277.5 327.0 L1149.6 327.0 Q1142.6 327 1142.6 320.0 L1142.6 274" stroke="#a0d8a0" stroke-width="1.7"/>
<path d="M1558 336 L1558.0 330.0 Q1558 324 1552.0 324.0 L1146.6 324.0 Q1139.6 324 1139.6 317.0 L1139.6 274" stroke="#a0d8a0" stroke-width="1.7"/>
<path d="M2110 336 L2110.0 330.0 Q2110 324 2104.0 324.0 L1812.0 324.0 Q1805 324 1805.0 317.0 L1805 274" stroke="#a0d8a0" stroke-width="1.7"/>
<path d="M1721.0 336 V274" stroke="#ba0d16" stroke-width="1.7"/>
<path d="M2358.4 336 V274" stroke="#a0d8a0" stroke-width="1.7"/>
<path d="M2662 336 L2662.0 330.0 Q2662 324 2656.0 324.0 L2474.4 324.0 Q2467.4 324 2467.4 317.0 L2467.4 274" stroke="#a0d8a0" stroke-width="1.7"/>
<path d="M3019.3 336 V274" stroke="#a0d8a0" stroke-width="1.7"/>
<path d="M3101.0 336 V274" stroke="#a0d8a0" stroke-width="1.7"/>
<path d="M371.2 216 L371.2 210.0 Q371.2 204 377.2 204.0 L1580.0 204.0 Q1587 204 1587.0 197.0 L1587 154" stroke="#a0d8a0" stroke-width="1.7"/>
<path d="M1033.6 216 L1033.6 212.0 Q1033.6 208 1037.6 208.0 L1583.0 208.0 Q1590 208 1590.0 201.0 L1590 154" stroke="#a0d8a0" stroke-width="1.7"/>
<path d="M2358.4 216 L2358.4 212.0 Q2358.4 208 2354.4 208.0 L1806.0 208.0 Q1799 208 1799.0 201.0 L1799 154" stroke="#a0d8a0" stroke-width="1.7"/>
<path d="M3020.7999999999997 216 L3020.8 211.5 Q3020.7999999999997 207 3016.3 207.0 L1803.0 207.0 Q1796 207 1796.0 200.0 L1796 154" stroke="#a0d8a0" stroke-width="1.7"/>
<path d="M1696.0 216 V154" stroke="#db7500" stroke-width="1.7"/>
</g>
<g filter="url(#cs)"><rect x="55" y="336" width="246" height="65" rx="10" fill="#f2f8f2" stroke="#a0d8a0" stroke-width="2"/></g><g transform="translate(61,343.16) scale(0.82)"><circle cx="12" cy="12" r="8.4" fill="none" stroke="#605e5c" stroke-width="1.6" stroke-linecap="round" stroke-linejoin="round"/><path d="M3.6 12h16.8M12 3.6c3 3 3 13.8 0 16.8M12 3.6c-3 3-3 13.8 0 16.8" fill="none" stroke="#605e5c" stroke-width="1.6" stroke-linecap="round" stroke-linejoin="round"/></g><text x="89" y="357.25" font-size="12.5" font-weight="600" fill="#242424">CDN</text><rect x="225.6" y="344.00" width="67.4" height="18" rx="9" fill="#ffffff" stroke="#a0d8a0" stroke-width="1"/><circle cx="236.6" cy="353" r="6" fill="#4c9a2a"/><path d="M233.9 353 l1.9 1.9 l3.4 -3.9" fill="none" stroke="#fff" stroke-width="1.4" stroke-linecap="round" stroke-linejoin="round"/><text x="245.6" y="356.57" font-size="10.5" fill="#323130">Healthy</text><line x1="56" y1="373" x2="300" y2="373" stroke="#e6e4e2"/><circle cx="71" cy="388" r="6" fill="#4c9a2a"/><path d="M68.3 388 l1.9 1.9 l3.4 -3.9" fill="none" stroke="#fff" stroke-width="1.4" stroke-linecap="round" stroke-linejoin="round"/><g transform="translate(87,381) scale(0.875)">
    <rect x="1.5" y="8" width="2.6" height="6" rx="0.6" fill="#8661c5"/>
    <rect x="5.7" y="4.5" width="2.6" height="9.5" rx="0.6" fill="#0078D4"/>
    <rect x="9.9" y="6.5" width="2.6" height="7.5" rx="0.6" fill="#3fb0ac"/>
  </g><text x="107" y="391.5" font-size="10.5" fill="#242424">CDN signal</text><text x="289" y="391.5" font-size="10.5" font-weight="400" fill="#605e5c" text-anchor="end">1</text>
<g filter="url(#cs)"><rect x="331" y="336" width="246" height="65" rx="10" fill="#f2f8f2" stroke="#a0d8a0" stroke-width="2"/></g><g transform="translate(337,343.16) scale(0.82)"><circle cx="12" cy="12" r="8.4" fill="none" stroke="#605e5c" stroke-width="1.6" stroke-linecap="round" stroke-linejoin="round"/><path d="M3.6 12h16.8M12 3.6c3 3 3 13.8 0 16.8M12 3.6c-3 3-3 13.8 0 16.8" fill="none" stroke="#605e5c" stroke-width="1.6" stroke-linecap="round" stroke-linejoin="round"/></g><text x="365" y="357.25" font-size="12.5" font-weight="600" fill="#242424">Web app</text><rect x="501.6" y="344.00" width="67.4" height="18" rx="9" fill="#ffffff" stroke="#a0d8a0" stroke-width="1"/><circle cx="512.6" cy="353" r="6" fill="#4c9a2a"/><path d="M509.90000000000003 353 l1.9 1.9 l3.4 -3.9" fill="none" stroke="#fff" stroke-width="1.4" stroke-linecap="round" stroke-linejoin="round"/><text x="521.6" y="356.57" font-size="10.5" fill="#323130">Healthy</text><line x1="332" y1="373" x2="576" y2="373" stroke="#e6e4e2"/><circle cx="347" cy="388" r="6" fill="#4c9a2a"/><path d="M344.3 388 l1.9 1.9 l3.4 -3.9" fill="none" stroke="#fff" stroke-width="1.4" stroke-linecap="round" stroke-linejoin="round"/><g transform="translate(363,381) scale(0.875)">
    <rect x="1.5" y="8" width="2.6" height="6" rx="0.6" fill="#8661c5"/>
    <rect x="5.7" y="4.5" width="2.6" height="9.5" rx="0.6" fill="#0078D4"/>
    <rect x="9.9" y="6.5" width="2.6" height="7.5" rx="0.6" fill="#3fb0ac"/>
  </g><text x="383" y="391.5" font-size="10.5" fill="#242424">Web app signal</text><text x="565" y="391.5" font-size="10.5" font-weight="400" fill="#605e5c" text-anchor="end">2</text>
<g filter="url(#cs)"><rect x="607" y="336" width="246" height="65" rx="10" fill="#f2f8f2" stroke="#a0d8a0" stroke-width="2"/></g><g transform="translate(613,343.16) scale(0.82)"><path d="M12 3l7 2.6v5.2c0 4.6-3 7.9-7 9.2-4-1.3-7-4.6-7-9.2V5.6z" fill="none" stroke="#605e5c" stroke-width="1.6" stroke-linecap="round" stroke-linejoin="round"/><path d="M8.8 12.2l2.2 2.2 4-4.6" fill="none" stroke="#605e5c" stroke-width="1.6" stroke-linecap="round" stroke-linejoin="round"/></g><text x="641" y="357.25" font-size="12.5" font-weight="600" fill="#242424">Auth</text><rect x="777.6" y="344.00" width="67.4" height="18" rx="9" fill="#ffffff" stroke="#a0d8a0" stroke-width="1"/><circle cx="788.6" cy="353" r="6" fill="#4c9a2a"/><path d="M785.9 353 l1.9 1.9 l3.4 -3.9" fill="none" stroke="#fff" stroke-width="1.4" stroke-linecap="round" stroke-linejoin="round"/><text x="797.6" y="356.57" font-size="10.5" fill="#323130">Healthy</text><line x1="608" y1="373" x2="852" y2="373" stroke="#e6e4e2"/><circle cx="623" cy="388" r="6" fill="#4c9a2a"/><path d="M620.3 388 l1.9 1.9 l3.4 -3.9" fill="none" stroke="#fff" stroke-width="1.4" stroke-linecap="round" stroke-linejoin="round"/><g transform="translate(639,381) scale(0.875)">
    <rect x="1.5" y="8" width="2.6" height="6" rx="0.6" fill="#8661c5"/>
    <rect x="5.7" y="4.5" width="2.6" height="9.5" rx="0.6" fill="#0078D4"/>
    <rect x="9.9" y="6.5" width="2.6" height="7.5" rx="0.6" fill="#3fb0ac"/>
  </g><text x="659" y="391.5" font-size="10.5" fill="#242424">Auth signal</text><text x="841" y="391.5" font-size="10.5" font-weight="400" fill="#605e5c" text-anchor="end">2</text>
<g filter="url(#cs)"><rect x="883" y="336" width="246" height="65" rx="10" fill="#f2f8f2" stroke="#a0d8a0" stroke-width="2"/></g><g transform="translate(889,343.16) scale(0.82)"><path d="M13 2.5 5.5 13.5H11l-1 8 8.5-12H12z" fill="none" stroke="#605e5c" stroke-width="1.6" stroke-linecap="round" stroke-linejoin="round"/></g><text x="917" y="357.25" font-size="12.5" font-weight="600" fill="#242424">Order API</text><rect x="1053.6" y="344.00" width="67.4" height="18" rx="9" fill="#ffffff" stroke="#a0d8a0" stroke-width="1"/><circle cx="1064.6" cy="353" r="6" fill="#4c9a2a"/><path d="M1061.8999999999999 353 l1.9 1.9 l3.4 -3.9" fill="none" stroke="#fff" stroke-width="1.4" stroke-linecap="round" stroke-linejoin="round"/><text x="1073.6" y="356.57" font-size="10.5" fill="#323130">Healthy</text><line x1="884" y1="373" x2="1128" y2="373" stroke="#e6e4e2"/><circle cx="899" cy="388" r="6" fill="#4c9a2a"/><path d="M896.3 388 l1.9 1.9 l3.4 -3.9" fill="none" stroke="#fff" stroke-width="1.4" stroke-linecap="round" stroke-linejoin="round"/><g transform="translate(915,381) scale(0.875)">
    <rect x="1.5" y="8" width="2.6" height="6" rx="0.6" fill="#8661c5"/>
    <rect x="5.7" y="4.5" width="2.6" height="9.5" rx="0.6" fill="#0078D4"/>
    <rect x="9.9" y="6.5" width="2.6" height="7.5" rx="0.6" fill="#3fb0ac"/>
  </g><text x="935" y="391.5" font-size="10.5" fill="#242424">API signal</text><text x="1117" y="391.5" font-size="10.5" font-weight="400" fill="#605e5c" text-anchor="end">0</text>
<g filter="url(#cs)"><rect x="1159" y="336" width="246" height="65" rx="10" fill="#f2f8f2" stroke="#a0d8a0" stroke-width="2"/></g><g transform="translate(1165,343.16) scale(0.82)"><rect x="4" y="5" width="16" height="3" rx="1" fill="none" stroke="#605e5c" stroke-width="1.6" stroke-linecap="round" stroke-linejoin="round"/><rect x="4" y="10.5" width="16" height="3" rx="1" fill="none" stroke="#605e5c" stroke-width="1.6" stroke-linecap="round" stroke-linejoin="round"/><rect x="4" y="16" width="10" height="3" rx="1" fill="none" stroke="#605e5c" stroke-width="1.6" stroke-linecap="round" stroke-linejoin="round"/></g><text x="1193" y="357.25" font-size="12.5" font-weight="600" fill="#242424">Order queue</text><rect x="1329.6" y="344.00" width="67.4" height="18" rx="9" fill="#ffffff" stroke="#a0d8a0" stroke-width="1"/><circle cx="1340.6" cy="353" r="6" fill="#4c9a2a"/><path d="M1337.8999999999999 353 l1.9 1.9 l3.4 -3.9" fill="none" stroke="#fff" stroke-width="1.4" stroke-linecap="round" stroke-linejoin="round"/><text x="1349.6" y="356.57" font-size="10.5" fill="#323130">Healthy</text><line x1="1160" y1="373" x2="1404" y2="373" stroke="#e6e4e2"/><circle cx="1175" cy="388" r="6" fill="#4c9a2a"/><path d="M1172.3 388 l1.9 1.9 l3.4 -3.9" fill="none" stroke="#fff" stroke-width="1.4" stroke-linecap="round" stroke-linejoin="round"/><g transform="translate(1191,381) scale(0.875)">
    <rect x="1.5" y="8" width="2.6" height="6" rx="0.6" fill="#8661c5"/>
    <rect x="5.7" y="4.5" width="2.6" height="9.5" rx="0.6" fill="#0078D4"/>
    <rect x="9.9" y="6.5" width="2.6" height="7.5" rx="0.6" fill="#3fb0ac"/>
  </g><text x="1211" y="391.5" font-size="10.5" fill="#242424">Queue depth signal</text><text x="1393" y="391.5" font-size="10.5" font-weight="400" fill="#605e5c" text-anchor="end">1</text>
<g filter="url(#cs)"><rect x="1435" y="336" width="246" height="65" rx="10" fill="#f2f8f2" stroke="#a0d8a0" stroke-width="2"/></g><g transform="translate(1441,343.16) scale(0.82)"><ellipse cx="12" cy="6" rx="7" ry="2.8" fill="none" stroke="#605e5c" stroke-width="1.6" stroke-linecap="round" stroke-linejoin="round"/><path d="M5 6v12c0 1.55 3.13 2.8 7 2.8s7-1.25 7-2.8V6" fill="none" stroke="#605e5c" stroke-width="1.6" stroke-linecap="round" stroke-linejoin="round"/><path d="M5 12c0 1.55 3.13 2.8 7 2.8s7-1.25 7-2.8" fill="none" stroke="#605e5c" stroke-width="1.6" stroke-linecap="round" stroke-linejoin="round"/></g><text x="1469" y="357.25" font-size="12.5" font-weight="600" fill="#242424">Order DB</text><rect x="1605.6" y="344.00" width="67.4" height="18" rx="9" fill="#ffffff" stroke="#a0d8a0" stroke-width="1"/><circle cx="1616.6" cy="353" r="6" fill="#4c9a2a"/><path d="M1613.8999999999999 353 l1.9 1.9 l3.4 -3.9" fill="none" stroke="#fff" stroke-width="1.4" stroke-linecap="round" stroke-linejoin="round"/><text x="1625.6" y="356.57" font-size="10.5" fill="#323130">Healthy</text><line x1="1436" y1="373" x2="1680" y2="373" stroke="#e6e4e2"/><circle cx="1451" cy="388" r="6" fill="#4c9a2a"/><path d="M1448.3 388 l1.9 1.9 l3.4 -3.9" fill="none" stroke="#fff" stroke-width="1.4" stroke-linecap="round" stroke-linejoin="round"/><g transform="translate(1467,381) scale(0.875)">
    <rect x="1.5" y="8" width="2.6" height="6" rx="0.6" fill="#8661c5"/>
    <rect x="5.7" y="4.5" width="2.6" height="9.5" rx="0.6" fill="#0078D4"/>
    <rect x="9.9" y="6.5" width="2.6" height="7.5" rx="0.6" fill="#3fb0ac"/>
  </g><text x="1487" y="391.5" font-size="10.5" fill="#242424">Order DB signal</text><text x="1669" y="391.5" font-size="10.5" font-weight="400" fill="#605e5c" text-anchor="end">2</text>
<g filter="url(#cs)"><rect x="1711" y="336" width="246" height="65" rx="10" fill="#faeceb" stroke="#ba0d16" stroke-width="2"/></g><g transform="translate(1717,343.16) scale(0.82)"><circle cx="5.5" cy="6" r="2" fill="none" stroke="#605e5c" stroke-width="1.6" stroke-linecap="round" stroke-linejoin="round"/><circle cx="5.5" cy="18" r="2" fill="none" stroke="#605e5c" stroke-width="1.6" stroke-linecap="round" stroke-linejoin="round"/><circle cx="18.5" cy="12" r="2" fill="none" stroke="#605e5c" stroke-width="1.6" stroke-linecap="round" stroke-linejoin="round"/><path d="M7.5 6h3a4 4 0 0 1 4 4M7.5 18h3a4 4 0 0 0 4-4" fill="none" stroke="#605e5c" stroke-width="1.6" stroke-linecap="round" stroke-linejoin="round"/></g><text x="1745" y="357.25" font-size="12.5" font-weight="600" fill="#242424">Payment gateway</text><rect x="1869.2" y="344.00" width="79.80000000000001" height="18" rx="9" fill="#ffffff" stroke="#ba0d16" stroke-width="1"/><circle cx="1880.2" cy="353" r="6" fill="#c50f18"/><text x="1889.2" y="356.57" font-size="10.5" fill="#323130">Unhealthy</text><line x1="1712" y1="373" x2="1956" y2="373" stroke="#e6e4e2"/><circle cx="1727" cy="388" r="6" fill="#c50f18"/><g transform="translate(1743,381) scale(0.875)">
    <rect x="1.5" y="8" width="2.6" height="6" rx="0.6" fill="#8661c5"/>
    <rect x="5.7" y="4.5" width="2.6" height="9.5" rx="0.6" fill="#0078D4"/>
    <rect x="9.9" y="6.5" width="2.6" height="7.5" rx="0.6" fill="#3fb0ac"/>
  </g><text x="1763" y="391.5" font-size="10.5" fill="#242424">Gateway signal</text><text x="1945" y="391.5" font-size="10.5" font-weight="600" fill="#c50f18" text-anchor="end">52</text>
<g filter="url(#cs)"><rect x="1987" y="336" width="246" height="65" rx="10" fill="#f2f8f2" stroke="#a0d8a0" stroke-width="2"/></g><g transform="translate(1993,343.16) scale(0.82)"><circle cx="5.5" cy="6" r="2" fill="none" stroke="#605e5c" stroke-width="1.6" stroke-linecap="round" stroke-linejoin="round"/><circle cx="5.5" cy="18" r="2" fill="none" stroke="#605e5c" stroke-width="1.6" stroke-linecap="round" stroke-linejoin="round"/><circle cx="18.5" cy="12" r="2" fill="none" stroke="#605e5c" stroke-width="1.6" stroke-linecap="round" stroke-linejoin="round"/><path d="M7.5 6h3a4 4 0 0 1 4 4M7.5 18h3a4 4 0 0 0 4-4" fill="none" stroke="#605e5c" stroke-width="1.6" stroke-linecap="round" stroke-linejoin="round"/></g><text x="2021" y="357.25" font-size="12.5" font-weight="600" fill="#242424">Fraud check</text><rect x="2157.6" y="344.00" width="67.4" height="18" rx="9" fill="#ffffff" stroke="#a0d8a0" stroke-width="1"/><circle cx="2168.6" cy="353" r="6" fill="#4c9a2a"/><path d="M2165.9 353 l1.9 1.9 l3.4 -3.9" fill="none" stroke="#fff" stroke-width="1.4" stroke-linecap="round" stroke-linejoin="round"/><text x="2177.6" y="356.57" font-size="10.5" fill="#323130">Healthy</text><line x1="1988" y1="373" x2="2232" y2="373" stroke="#e6e4e2"/><circle cx="2003" cy="388" r="6" fill="#4c9a2a"/><path d="M2000.3 388 l1.9 1.9 l3.4 -3.9" fill="none" stroke="#fff" stroke-width="1.4" stroke-linecap="round" stroke-linejoin="round"/><g transform="translate(2019,381) scale(0.875)">
    <rect x="1.5" y="8" width="2.6" height="6" rx="0.6" fill="#8661c5"/>
    <rect x="5.7" y="4.5" width="2.6" height="9.5" rx="0.6" fill="#0078D4"/>
    <rect x="9.9" y="6.5" width="2.6" height="7.5" rx="0.6" fill="#3fb0ac"/>
  </g><text x="2039" y="391.5" font-size="10.5" fill="#242424">Fraud signal</text><text x="2221" y="391.5" font-size="10.5" font-weight="400" fill="#605e5c" text-anchor="end">0</text>
<g filter="url(#cs)"><rect x="2263" y="336" width="246" height="65" rx="10" fill="#f2f8f2" stroke="#a0d8a0" stroke-width="2"/></g><g transform="translate(2269,343.16) scale(0.82)"><path d="M12 3.2l7.6 4.4v8.8L12 20.8l-7.6-4.4V7.6z" fill="none" stroke="#605e5c" stroke-width="1.6" stroke-linecap="round" stroke-linejoin="round"/><path d="M4.6 7.8l7.4 4.3 7.4-4.3M12 12.1v8.6" fill="none" stroke="#605e5c" stroke-width="1.6" stroke-linecap="round" stroke-linejoin="round"/></g><text x="2297" y="357.25" font-size="12.5" font-weight="600" fill="#242424">Warehouse</text><rect x="2433.6" y="344.00" width="67.4" height="18" rx="9" fill="#ffffff" stroke="#a0d8a0" stroke-width="1"/><circle cx="2444.6" cy="353" r="6" fill="#4c9a2a"/><path d="M2441.9 353 l1.9 1.9 l3.4 -3.9" fill="none" stroke="#fff" stroke-width="1.4" stroke-linecap="round" stroke-linejoin="round"/><text x="2453.6" y="356.57" font-size="10.5" fill="#323130">Healthy</text><line x1="2264" y1="373" x2="2508" y2="373" stroke="#e6e4e2"/><circle cx="2279" cy="388" r="6" fill="#4c9a2a"/><path d="M2276.3 388 l1.9 1.9 l3.4 -3.9" fill="none" stroke="#fff" stroke-width="1.4" stroke-linecap="round" stroke-linejoin="round"/><g transform="translate(2295,381) scale(0.875)">
    <rect x="1.5" y="8" width="2.6" height="6" rx="0.6" fill="#8661c5"/>
    <rect x="5.7" y="4.5" width="2.6" height="9.5" rx="0.6" fill="#0078D4"/>
    <rect x="9.9" y="6.5" width="2.6" height="7.5" rx="0.6" fill="#3fb0ac"/>
  </g><text x="2315" y="391.5" font-size="10.5" fill="#242424">Warehouse signal</text><text x="2497" y="391.5" font-size="10.5" font-weight="400" fill="#605e5c" text-anchor="end">1</text>
<g filter="url(#cs)"><rect x="2539" y="336" width="246" height="65" rx="10" fill="#f2f8f2" stroke="#a0d8a0" stroke-width="2"/></g><g transform="translate(2545,343.16) scale(0.82)"><path d="M12 3.2l7.6 4.4v8.8L12 20.8l-7.6-4.4V7.6z" fill="none" stroke="#605e5c" stroke-width="1.6" stroke-linecap="round" stroke-linejoin="round"/><path d="M4.6 7.8l7.4 4.3 7.4-4.3M12 12.1v8.6" fill="none" stroke="#605e5c" stroke-width="1.6" stroke-linecap="round" stroke-linejoin="round"/></g><text x="2573" y="357.25" font-size="12.5" font-weight="600" fill="#242424">Shipping</text><rect x="2709.6" y="344.00" width="67.4" height="18" rx="9" fill="#ffffff" stroke="#a0d8a0" stroke-width="1"/><circle cx="2720.6" cy="353" r="6" fill="#4c9a2a"/><path d="M2717.9 353 l1.9 1.9 l3.4 -3.9" fill="none" stroke="#fff" stroke-width="1.4" stroke-linecap="round" stroke-linejoin="round"/><text x="2729.6" y="356.57" font-size="10.5" fill="#323130">Healthy</text><line x1="2540" y1="373" x2="2784" y2="373" stroke="#e6e4e2"/><circle cx="2555" cy="388" r="6" fill="#4c9a2a"/><path d="M2552.3 388 l1.9 1.9 l3.4 -3.9" fill="none" stroke="#fff" stroke-width="1.4" stroke-linecap="round" stroke-linejoin="round"/><g transform="translate(2571,381) scale(0.875)">
    <rect x="1.5" y="8" width="2.6" height="6" rx="0.6" fill="#8661c5"/>
    <rect x="5.7" y="4.5" width="2.6" height="9.5" rx="0.6" fill="#0078D4"/>
    <rect x="9.9" y="6.5" width="2.6" height="7.5" rx="0.6" fill="#3fb0ac"/>
  </g><text x="2591" y="391.5" font-size="10.5" fill="#242424">Shipping signal</text><text x="2773" y="391.5" font-size="10.5" font-weight="400" fill="#605e5c" text-anchor="end">2</text>
<g filter="url(#cs)"><rect x="2815" y="336" width="246" height="65" rx="10" fill="#f2f8f2" stroke="#a0d8a0" stroke-width="2"/></g><g transform="translate(2821,343.16) scale(0.82)"><path d="M12 3.2l7.6 4.4v8.8L12 20.8l-7.6-4.4V7.6z" fill="none" stroke="#605e5c" stroke-width="1.6" stroke-linecap="round" stroke-linejoin="round"/><path d="M4.6 7.8l7.4 4.3 7.4-4.3M12 12.1v8.6" fill="none" stroke="#605e5c" stroke-width="1.6" stroke-linecap="round" stroke-linejoin="round"/></g><text x="2849" y="357.25" font-size="12.5" font-weight="600" fill="#242424">Email</text><rect x="2985.6" y="344.00" width="67.4" height="18" rx="9" fill="#ffffff" stroke="#a0d8a0" stroke-width="1"/><circle cx="2996.6" cy="353" r="6" fill="#4c9a2a"/><path d="M2993.9 353 l1.9 1.9 l3.4 -3.9" fill="none" stroke="#fff" stroke-width="1.4" stroke-linecap="round" stroke-linejoin="round"/><text x="3005.6" y="356.57" font-size="10.5" fill="#323130">Healthy</text><line x1="2816" y1="373" x2="3060" y2="373" stroke="#e6e4e2"/><circle cx="2831" cy="388" r="6" fill="#4c9a2a"/><path d="M2828.3 388 l1.9 1.9 l3.4 -3.9" fill="none" stroke="#fff" stroke-width="1.4" stroke-linecap="round" stroke-linejoin="round"/><g transform="translate(2847,381) scale(0.875)">
    <rect x="1.5" y="8" width="2.6" height="6" rx="0.6" fill="#8661c5"/>
    <rect x="5.7" y="4.5" width="2.6" height="9.5" rx="0.6" fill="#0078D4"/>
    <rect x="9.9" y="6.5" width="2.6" height="7.5" rx="0.6" fill="#3fb0ac"/>
  </g><text x="2867" y="391.5" font-size="10.5" fill="#242424">Email signal</text><text x="3049" y="391.5" font-size="10.5" font-weight="400" fill="#605e5c" text-anchor="end">2</text>
<g filter="url(#cs)"><rect x="3091" y="336" width="246" height="65" rx="10" fill="#f2f8f2" stroke="#a0d8a0" stroke-width="2"/></g><g transform="translate(3097,343.16) scale(0.82)"><path d="M12 3.2l7.6 4.4v8.8L12 20.8l-7.6-4.4V7.6z" fill="none" stroke="#605e5c" stroke-width="1.6" stroke-linecap="round" stroke-linejoin="round"/><path d="M4.6 7.8l7.4 4.3 7.4-4.3M12 12.1v8.6" fill="none" stroke="#605e5c" stroke-width="1.6" stroke-linecap="round" stroke-linejoin="round"/></g><text x="3125" y="357.25" font-size="12.5" font-weight="600" fill="#242424">SMS</text><rect x="3261.6" y="344.00" width="67.4" height="18" rx="9" fill="#ffffff" stroke="#a0d8a0" stroke-width="1"/><circle cx="3272.6" cy="353" r="6" fill="#4c9a2a"/><path d="M3269.9 353 l1.9 1.9 l3.4 -3.9" fill="none" stroke="#fff" stroke-width="1.4" stroke-linecap="round" stroke-linejoin="round"/><text x="3281.6" y="356.57" font-size="10.5" fill="#323130">Healthy</text><line x1="3092" y1="373" x2="3336" y2="373" stroke="#e6e4e2"/><circle cx="3107" cy="388" r="6" fill="#4c9a2a"/><path d="M3104.3 388 l1.9 1.9 l3.4 -3.9" fill="none" stroke="#fff" stroke-width="1.4" stroke-linecap="round" stroke-linejoin="round"/><g transform="translate(3123,381) scale(0.875)">
    <rect x="1.5" y="8" width="2.6" height="6" rx="0.6" fill="#8661c5"/>
    <rect x="5.7" y="4.5" width="2.6" height="9.5" rx="0.6" fill="#0078D4"/>
    <rect x="9.9" y="6.5" width="2.6" height="7.5" rx="0.6" fill="#3fb0ac"/>
  </g><text x="3143" y="391.5" font-size="10.5" fill="#242424">SMS signal</text><text x="3325" y="391.5" font-size="10.5" font-weight="400" fill="#605e5c" text-anchor="end">1</text>
<g filter="url(#cs)"><rect x="248.2" y="216" width="246" height="58" rx="10" fill="#f2f8f2" stroke="#a0d8a0" stroke-width="2"/></g><g transform="translate(254.2,235.16) scale(0.82)"><circle cx="12" cy="12" r="8.4" fill="none" stroke="#605e5c" stroke-width="1.6" stroke-linecap="round" stroke-linejoin="round"/><path d="M3.6 12h16.8M12 3.6c3 3 3 13.8 0 16.8M12 3.6c-3 3-3 13.8 0 16.8" fill="none" stroke="#605e5c" stroke-width="1.6" stroke-linecap="round" stroke-linejoin="round"/></g><text x="282.2" y="249.25" font-size="12.5" font-weight="600" fill="#242424">Frontend</text><rect x="418.79999999999995" y="236.00" width="67.4" height="18" rx="9" fill="#ffffff" stroke="#a0d8a0" stroke-width="1"/><circle cx="429.79999999999995" cy="245" r="6" fill="#4c9a2a"/><path d="M427.09999999999997 245 l1.9 1.9 l3.4 -3.9" fill="none" stroke="#fff" stroke-width="1.4" stroke-linecap="round" stroke-linejoin="round"/><text x="438.79999999999995" y="248.57" font-size="10.5" fill="#323130">Healthy</text>
<g filter="url(#cs)"><rect x="910.5999999999999" y="216" width="246" height="58" rx="10" fill="#f2f8f2" stroke="#a0d8a0" stroke-width="2"/></g><g transform="translate(916.5999999999999,235.16) scale(0.82)"><circle cx="5.5" cy="6" r="2" fill="none" stroke="#605e5c" stroke-width="1.6" stroke-linecap="round" stroke-linejoin="round"/><circle cx="5.5" cy="18" r="2" fill="none" stroke="#605e5c" stroke-width="1.6" stroke-linecap="round" stroke-linejoin="round"/><circle cx="18.5" cy="12" r="2" fill="none" stroke="#605e5c" stroke-width="1.6" stroke-linecap="round" stroke-linejoin="round"/><path d="M7.5 6h3a4 4 0 0 1 4 4M7.5 18h3a4 4 0 0 0 4-4" fill="none" stroke="#605e5c" stroke-width="1.6" stroke-linecap="round" stroke-linejoin="round"/></g><text x="944.5999999999999" y="249.25" font-size="12.5" font-weight="600" fill="#242424">Ordering</text><rect x="1081.1999999999998" y="236.00" width="67.4" height="18" rx="9" fill="#ffffff" stroke="#a0d8a0" stroke-width="1"/><circle cx="1092.1999999999998" cy="245" r="6" fill="#4c9a2a"/><path d="M1089.4999999999998 245 l1.9 1.9 l3.4 -3.9" fill="none" stroke="#fff" stroke-width="1.4" stroke-linecap="round" stroke-linejoin="round"/><text x="1101.1999999999998" y="248.57" font-size="10.5" fill="#323130">Healthy</text>
<g filter="url(#cs)"><rect x="1573" y="216" width="246" height="58" rx="10" fill="#fbf2e7" stroke="#db7500" stroke-width="2"/></g><g transform="translate(1579,235.16) scale(0.82)"><circle cx="5.5" cy="6" r="2" fill="none" stroke="#605e5c" stroke-width="1.6" stroke-linecap="round" stroke-linejoin="round"/><circle cx="5.5" cy="18" r="2" fill="none" stroke="#605e5c" stroke-width="1.6" stroke-linecap="round" stroke-linejoin="round"/><circle cx="18.5" cy="12" r="2" fill="none" stroke="#605e5c" stroke-width="1.6" stroke-linecap="round" stroke-linejoin="round"/><path d="M7.5 6h3a4 4 0 0 1 4 4M7.5 18h3a4 4 0 0 0 4-4" fill="none" stroke="#605e5c" stroke-width="1.6" stroke-linecap="round" stroke-linejoin="round"/></g><text x="1607" y="249.25" font-size="12.5" font-weight="600" fill="#242424">Payment</text><rect x="1737.4" y="236.00" width="73.6" height="18" rx="9" fill="#ffffff" stroke="#db7500" stroke-width="1"/><circle cx="1748.4" cy="245" r="6" fill="#c26a00"/><text x="1757.4" y="248.57" font-size="10.5" fill="#323130">Degraded</text>
<g filter="url(#cs)"><rect x="2235.4" y="216" width="246" height="58" rx="10" fill="#f2f8f2" stroke="#a0d8a0" stroke-width="2"/></g><g transform="translate(2241.4,235.16) scale(0.82)"><path d="M12 3.2l7.6 4.4v8.8L12 20.8l-7.6-4.4V7.6z" fill="none" stroke="#605e5c" stroke-width="1.6" stroke-linecap="round" stroke-linejoin="round"/><path d="M4.6 7.8l7.4 4.3 7.4-4.3M12 12.1v8.6" fill="none" stroke="#605e5c" stroke-width="1.6" stroke-linecap="round" stroke-linejoin="round"/></g><text x="2269.4" y="249.25" font-size="12.5" font-weight="600" fill="#242424">Fulfillment</text><rect x="2406" y="236.00" width="67.4" height="18" rx="9" fill="#ffffff" stroke="#a0d8a0" stroke-width="1"/><circle cx="2417" cy="245" r="6" fill="#4c9a2a"/><path d="M2414.3 245 l1.9 1.9 l3.4 -3.9" fill="none" stroke="#fff" stroke-width="1.4" stroke-linecap="round" stroke-linejoin="round"/><text x="2426" y="248.57" font-size="10.5" fill="#323130">Healthy</text>
<g filter="url(#cs)"><rect x="2897.7999999999997" y="216" width="246" height="58" rx="10" fill="#f2f8f2" stroke="#a0d8a0" stroke-width="2"/></g><g transform="translate(2903.7999999999997,235.16) scale(0.82)"><path d="M12 3.2l7.6 4.4v8.8L12 20.8l-7.6-4.4V7.6z" fill="none" stroke="#605e5c" stroke-width="1.6" stroke-linecap="round" stroke-linejoin="round"/><path d="M4.6 7.8l7.4 4.3 7.4-4.3M12 12.1v8.6" fill="none" stroke="#605e5c" stroke-width="1.6" stroke-linecap="round" stroke-linejoin="round"/></g><text x="2931.7999999999997" y="249.25" font-size="12.5" font-weight="600" fill="#242424">Notifications</text><rect x="3068.3999999999996" y="236.00" width="67.4" height="18" rx="9" fill="#ffffff" stroke="#a0d8a0" stroke-width="1"/><circle cx="3079.3999999999996" cy="245" r="6" fill="#4c9a2a"/><path d="M3076.7 245 l1.9 1.9 l3.4 -3.9" fill="none" stroke="#fff" stroke-width="1.4" stroke-linecap="round" stroke-linejoin="round"/><text x="3088.3999999999996" y="248.57" font-size="10.5" fill="#323130">Healthy</text>
<g filter="url(#cs)"><rect x="1573" y="96" width="246" height="58" rx="10" fill="#fbf2e7" stroke="#db7500" stroke-width="2"/></g><g transform="translate(1579,115.16) scale(0.82)"><circle cx="5.5" cy="6" r="2" fill="none" stroke="#605e5c" stroke-width="1.6" stroke-linecap="round" stroke-linejoin="round"/><circle cx="5.5" cy="18" r="2" fill="none" stroke="#605e5c" stroke-width="1.6" stroke-linecap="round" stroke-linejoin="round"/><circle cx="18.5" cy="12" r="2" fill="none" stroke="#605e5c" stroke-width="1.6" stroke-linecap="round" stroke-linejoin="round"/><path d="M7.5 6h3a4 4 0 0 1 4 4M7.5 18h3a4 4 0 0 0 4-4" fill="none" stroke="#605e5c" stroke-width="1.6" stroke-linecap="round" stroke-linejoin="round"/></g><text x="1607" y="129.25" font-size="12.5" font-weight="600" fill="#242424">E-commerce</text><rect x="1737.4" y="116.00" width="73.6" height="18" rx="9" fill="#ffffff" stroke="#db7500" stroke-width="1"/><circle cx="1748.4" cy="125" r="6" fill="#c26a00"/><text x="1757.4" y="128.57" font-size="10.5" fill="#323130">Degraded</text>
</svg>