<svg xmlns="http://www.w3.org/2000/svg" width="1280" height="489" viewBox="0 0 1280 489" font-family="Segoe UI, -apple-system, BlinkMacSystemFont, Helvetica, Arial, sans-serif">
<defs><filter id="cs" x="-20%" y="-20%" width="140%" height="140%"><feDropShadow dx="0" dy="1" stdDeviation="1.3" flood-color="#000" flood-opacity="0.10"/></filter>
<marker id="ar-healthy" viewBox="0 0 10 10" refX="8" refY="5" markerWidth="7" markerHeight="7" orient="auto-start-reverse"><path d="M1 1 L9 5 L1 9" fill="none" stroke="#a0d8a0" stroke-width="1.6" stroke-linecap="round" stroke-linejoin="round"/></marker><marker id="ar-degraded" viewBox="0 0 10 10" refX="8" refY="5" markerWidth="7" markerHeight="7" orient="auto-start-reverse"><path d="M1 1 L9 5 L1 9" fill="none" stroke="#db7500" stroke-width="1.6" stroke-linecap="round" stroke-linejoin="round"/></marker><marker id="ar-unhealthy" viewBox="0 0 10 10" refX="8" refY="5" markerWidth="7" markerHeight="7" orient="auto-start-reverse"><path d="M1 1 L9 5 L1 9" fill="none" stroke="#ba0d16" stroke-width="1.6" stroke-linecap="round" stroke-linejoin="round"/></marker><marker id="ar-unknown" viewBox="0 0 10 10" refX="8" refY="5" markerWidth="7" markerHeight="7" orient="auto-start-reverse"><path d="M1 1 L9 5 L1 9" fill="none" stroke="#c8c6c4" stroke-width="1.6" stroke-linecap="round" stroke-linejoin="round"/></marker><marker id="ar-alt" viewBox="0 0 10 10" refX="8" refY="5" markerWidth="7" markerHeight="7" orient="auto-start-reverse"><path d="M1 1 L9 5 L1 9" fill="none" stroke="#8661c5" stroke-width="1.6" stroke-linecap="round" stroke-linejoin="round"/></marker><marker id="ar-signal" viewBox="0 0 10 10" refX="8" refY="5" markerWidth="7" markerHeight="7" orient="auto-start-reverse"><path d="M1 1 L9 5 L1 9" fill="none" stroke="#0078D4" stroke-width="1.6" stroke-linecap="round" stroke-linejoin="round"/></marker>
</defs><rect width="1280" height="489" fill="#ffffff"/>
<rect x="0" y="78" width="1280" height="120" fill="#ffffff"/>
<line x1="0" y1="78" x2="1280" y2="78" stroke="#e6e4e2"/>
<text x="1104" y="143" font-size="13" font-weight="700" fill="#323130">Workload root</text>
<rect x="0" y="198" width="1280" height="153" fill="#faf9f8"/>
<line x1="0" y1="198" x2="1280" y2="198" stroke="#e6e4e2"/>
<text x="1104" y="272.5" font-size="13" font-weight="700" fill="#323130">Business &amp;</text>
<text x="1104" y="289.5" font-size="13" font-weight="700" fill="#323130">user flows</text>
<rect x="0" y="351" width="1280" height="120" fill="#ffffff"/>
<line x1="0" y1="351" x2="1280" y2="351" stroke="#e6e4e2"/>
<text x="1104" y="409" font-size="13" font-weight="700" fill="#323130">Application</text>
<text x="1104" y="426" font-size="13" font-weight="700" fill="#323130">components</text>
<line x1="0" y1="488.5" x2="1280" y2="488.5" stroke="#e6e4e2"/>
<text x="40" y="34" font-size="18" font-weight="700" fill="#242424">Provide a platform health model for application teams to con…</text>
<text x="40" y="52" font-size="12" fill="#605e5c">Signals live inside each entity; health rolls up to the workload root.</text>
<text x="865.2" y="48" font-size="11.5" font-weight="600" fill="#605e5c" text-anchor="end">Legend</text><circle cx="883.2" cy="44" r="4.5" fill="#4c9a2a"/><text x="893.2" y="48" font-size="11.5" fill="#323130">Healthy</text><circle cx="954" cy="44" r="4.5" fill="#c26a00"/><text x="964" y="48" font-size="11.5" fill="#323130">Degraded</text><circle cx="1031.2" cy="44" r="4.5" fill="#c50f18"/><text x="1041.2" y="48" font-size="11.5" fill="#323130">Unhealthy</text><circle cx="1114.8" cy="44" r="4.5" fill="#8a8886"/><text x="1124.8" y="48" font-size="11.5" fill="#323130">Unknown</text><g transform="translate(1179.6,37) scale(0.875)">
    <rect x="1.5" y="8" width="2.6" height="6" rx="0.6" fill="#8661c5"/>
    <rect x="5.7" y="4.5" width="2.6" height="9.5" rx="0.6" fill="#0078D4"/>
    <rect x="9.9" y="6.5" width="2.6" height="7.5" rx="0.6" fill="#3fb0ac"/>
  </g><text x="1197.6" y="48" font-size="11.5" fill="#323130">Metric</text>
<g fill="none" stroke-linecap="butt" stroke-linejoin="round">
<path d="M213.33333333333334 216 L213.3 211.5 Q213.33333333333334 207 217.8 207.0 L444.0 207.0 Q451 207 451.0 200.0 L451 154" stroke="#a0d8a0" stroke-width="1.7"/>
<path d="M560.0 216 V154" stroke="#a0d8a0" stroke-width="1.7"/>
<path d="M906.6666666666667 216 L906.7 210.0 Q906.6666666666667 204 900.7 204.0 L673.0 204.0 Q666 204 666.0 197.0 L666 154" stroke="#a0d8a0" stroke-width="1.7"/>
<path d="M560 369 V274" stroke="#a0d8a0" stroke-width="1.6" stroke-dasharray="5 4"/>
<g stroke="none"><rect x="520.6" y="287.0" width="78.8" height="20" rx="10" fill="#ffffff" stroke="#d8d6d4" stroke-width="1"/><text x="560.0" y="300.6" font-size="10.5" font-weight="600" fill="#242424" text-anchor="middle">referenced</text></g>
</g>
<g filter="url(#cs)"><rect x="90.33333333333334" y="216" width="246" height="65" rx="10" fill="#f2f8f2" stroke="#a0d8a0" stroke-width="2"/></g><g transform="translate(96.33333333333334,223.16) scale(0.82)"><rect x="4" y="4.5" width="16" height="6" rx="1.2" fill="none" stroke="#605e5c" stroke-width="1.6" stroke-linecap="round" stroke-linejoin="round"/><rect x="4" y="13.5" width="16" height="6" rx="1.2" fill="none" stroke="#605e5c" stroke-width="1.6" stroke-linecap="round" stroke-linejoin="round"/><path d="M7.2 7.5h.01M7.2 16.5h.01" fill="none" stroke="#605e5c" stroke-width="1.6" stroke-linecap="round" stroke-linejoin="round"/></g><text x="124.33333333333334" y="237.25" font-size="12.5" font-weight="600" fill="#242424">App Service</text><rect x="260.9333333333334" y="224.00" width="67.4" height="18" rx="9" fill="#ffffff" stroke="#a0d8a0" stroke-width="1"/><circle cx="271.9333333333334" cy="233" r="6" fill="#4c9a2a"/><path d="M269.2333333333334 233 l1.9 1.9 l3.4 -3.9" fill="none" stroke="#fff" stroke-width="1.4" stroke-linecap="round" stroke-linejoin="round"/><text x="280.9333333333334" y="236.57" font-size="10.5" fill="#323130">Healthy</text><line x1="91.33333333333334" y1="253" x2="335.33333333333337" y2="253" stroke="#e6e4e2"/><circle cx="106.33333333333334" cy="268" r="6" fill="#4c9a2a"/><path d="M103.63333333333334 268 l1.9 1.9 l3.4 -3.9" fill="none" stroke="#fff" stroke-width="1.4" stroke-linecap="round" stroke-linejoin="round"/><g transform="translate(122.33333333333334,261) scale(0.875)">
    <rect x="1.5" y="8" width="2.6" height="6" rx="0.6" fill="#8661c5"/>
    <rect x="5.7" y="4.5" width="2.6" height="9.5" rx="0.6" fill="#0078D4"/>
    <rect x="9.9" y="6.5" width="2.6" height="7.5" rx="0.6" fill="#3fb0ac"/>
  </g><text x="142.33333333333334" y="271.5" font-size="10.5" fill="#242424">App availability</text><text x="324.33333333333337" y="271.5" font-size="10.5" font-weight="400" fill="#605e5c" text-anchor="end">2</text>
<g filter="url(#cs)"><rect x="783.6666666666667" y="216" width="246" height="65" rx="10" fill="#f2f8f2" stroke="#a0d8a0" stroke-width="2"/></g><g transform="translate(789.6666666666667,223.16) scale(0.82)"><ellipse cx="12" cy="6" rx="7" ry="2.8" fill="none" stroke="#605e5c" stroke-width="1.6" stroke-linecap="round" stroke-linejoin="round"/><path d="M5 6v12c0 1.55 3.13 2.8 7 2.8s7-1.25 7-2.8V6" fill="none" stroke="#605e5c" stroke-width="1.6" stroke-linecap="round" stroke-linejoin="round"/><path d="M5 12c0 1.55 3.13 2.8 7 2.8s7-1.25 7-2.8" fill="none" stroke="#605e5c" stroke-width="1.6" stroke-linecap="round" stroke-linejoin="round"/></g><text x="817.6666666666667" y="237.25" font-size="12.5" font-weight="600" fill="#242424">Database</text><rect x="954.2666666666668" y="224.00" width="67.4" height="18" rx="9" fill="#ffffff" stroke="#a0d8a0" stroke-width="1"/><circle cx="965.2666666666668" cy="233" r="6" fill="#4c9a2a"/><path d="M962.5666666666667 233 l1.9 1.9 l3.4 -3.9" fill="none" stroke="#fff" stroke-width="1.4" stroke-linecap="round" stroke-linejoin="round"/><text x="974.2666666666668" y="236.57" font-size="10.5" fill="#323130">Healthy</text><line x1="784.6666666666667" y1="253" x2="1028.6666666666667" y2="253" stroke="#e6e4e2"/><circle cx="799.6666666666667" cy="268" r="6" fill="#4c9a2a"/><path d="M796.9666666666667 268 l1.9 1.9 l3.4 -3.9" fill="none" stroke="#fff" stroke-width="1.4" stroke-linecap="round" stroke-linejoin="round"/><g transform="translate(815.6666666666667,261) scale(0.875)">
    <rect x="1.5" y="8" width="2.6" height="6" rx="0.6" fill="#8661c5"/>
    <rect x="5.7" y="4.5" width="2.6" height="9.5" rx="0.6" fill="#0078D4"/>
    <rect x="9.9" y="6.5" width="2.6" height="7.5" rx="0.6" fill="#3fb0ac"/>
  </g><text x="835.6666666666667" y="271.5" font-size="10.5" fill="#242424">DB availability</text><text x="1017.6666666666667" y="271.5" font-size="10.5" font-weight="400" fill="#605e5c" text-anchor="end">1</text>
<g filter="url(#cs)"><rect x="437" y="369" width="246" height="58" rx="10" fill="#f2f8f2" stroke="#a0d8a0" stroke-width="2"/></g><g transform="translate(443,388.16) scale(0.82)"><path d="M12 3.2l7.6 4.4v8.8L12 20.8l-7.6-4.4V7.6z" fill="none" stroke="#605e5c" stroke-width="1.6" stroke-linecap="round" stroke-linejoin="round"/><path d="M4.6 7.8l7.4 4.3 7.4-4.3M12 12.1v8.6" fill="none" stroke="#605e5c" stroke-width="1.6" stroke-linecap="round" stroke-linejoin="round"/></g><text x="471" y="402.25" font-size="12.5" font-weight="600" fill="#242424">Platform team's</text><rect x="607.6" y="389.00" width="67.4" height="18" rx="9" fill="#ffffff" stroke="#a0d8a0" stroke-width="1"/><circle cx="618.6" cy="398" r="6" fill="#4c9a2a"/><path d="M615.9 398 l1.9 1.9 l3.4 -3.9" fill="none" stroke="#fff" stroke-width="1.4" stroke-linecap="round" stroke-linejoin="round"/><text x="627.6" y="401.57" font-size="10.5" fill="#323130">Healthy</text>
<g filter="url(#cs)"><rect x="437" y="216" width="246" height="58" rx="10" fill="#f2f8f2" stroke="#a0d8a0" stroke-width="2"/></g><g transform="translate(443,235.16) scale(0.82)"><rect x="4" y="4.5" width="16" height="6" rx="1.2" fill="none" stroke="#605e5c" stroke-width="1.6" stroke-linecap="round" stroke-linejoin="round"/><rect x="4" y="13.5" width="16" height="6" rx="1.2" fill="none" stroke="#605e5c" stroke-width="1.6" stroke-linecap="round" stroke-linejoin="round"/><path d="M7.2 7.5h.01M7.2 16.5h.01" fill="none" stroke="#605e5c" stroke-width="1.6" stroke-linecap="round" stroke-linejoin="round"/></g><text x="471" y="249.25" font-size="12.5" font-weight="600" fill="#242424">Compute</text><rect x="607.6" y="236.00" width="67.4" height="18" rx="9" fill="#ffffff" stroke="#a0d8a0" stroke-width="1"/><circle cx="618.6" cy="245" r="6" fill="#4c9a2a"/><path d="M615.9 245 l1.9 1.9 l3.4 -3.9" fill="none" stroke="#fff" stroke-width="1.4" stroke-linecap="round" stroke-linejoin="round"/><text x="627.6" y="248.57" font-size="10.5" fill="#323130">Healthy</text>
<g filter="url(#cs)"><rect x="437" y="96" width="246" height="58" rx="10" fill="#f2f8f2" stroke="#a0d8a0" stroke-width="2"/></g><g transform="translate(443,115.16) scale(0.82)"><circle cx="12" cy="12" r="8.4" fill="none" stroke="#605e5c" stroke-width="1.6" stroke-linecap="round" stroke-linejoin="round"/><path d="M4.2 12h3l2-3.6 2.8 7.2 1.8-3.6h4" fill="none" stroke="#605e5c" stroke-width="1.6" stroke-linecap="round" stroke-linejoin="round"/></g><text x="471" y="124.25" font-size="12.5" font-weight="600" fill="#242424">Application root</text><text x="471" y="135.06" font-size="9" fill="#605e5c">application team</text><rect x="607.6" y="116.00" width="67.4" height="18" rx="9" fill="#ffffff" stroke="#a0d8a0" stroke-width="1"/><circle cx="618.6" cy="125" r="6" fill="#4c9a2a"/><path d="M615.9 125 l1.9 1.9 l3.4 -3.9" fill="none" stroke="#fff" stroke-width="1.4" stroke-linecap="round" stroke-linejoin="round"/><text x="627.6" y="128.57" font-size="10.5" fill="#323130">Healthy</text>
</svg>