<svg xmlns="http://www.w3.org/2000/svg" width="1280" height="361" viewBox="0 0 1280 361" font-family="Segoe UI, -apple-system, BlinkMacSystemFont, Helvetica, Arial, sans-serif">
<defs><filter id="cs" x="-20%" y="-20%" width="140%" height="140%"><feDropShadow dx="0" dy="1" stdDeviation="1.3" flood-color="#000" flood-opacity="0.10"/></filter>
<marker id="ar-healthy" viewBox="0 0 10 10" refX="8" refY="5" markerWidth="7" markerHeight="7" orient="auto-start-reverse"><path d="M1 1 L9 5 L1 9" fill="none" stroke="#a0d8a0" stroke-width="1.6" stroke-linecap="round" stroke-linejoin="round"/></marker><marker id="ar-degraded" viewBox="0 0 10 10" refX="8" refY="5" markerWidth="7" markerHeight="7" orient="auto-start-reverse"><path d="M1 1 L9 5 L1 9" fill="none" stroke="#db7500" stroke-width="1.6" stroke-linecap="round" stroke-linejoin="round"/></marker><marker id="ar-unhealthy" viewBox="0 0 10 10" refX="8" refY="5" markerWidth="7" markerHeight="7" orient="auto-start-reverse"><path d="M1 1 L9 5 L1 9" fill="none" stroke="#ba0d16" stroke-width="1.6" stroke-linecap="round" stroke-linejoin="round"/></marker><marker id="ar-unknown" viewBox="0 0 10 10" refX="8" refY="5" markerWidth="7" markerHeight="7" orient="auto-start-reverse"><path d="M1 1 L9 5 L1 9" fill="none" stroke="#c8c6c4" stroke-width="1.6" stroke-linecap="round" stroke-linejoin="round"/></marker><marker id="ar-alt" viewBox="0 0 10 10" refX="8" refY="5" markerWidth="7" markerHeight="7" orient="auto-start-reverse"><path d="M1 1 L9 5 L1 9" fill="none" stroke="#8661c5" stroke-width="1.6" stroke-linecap="round" stroke-linejoin="round"/></marker><marker id="ar-signal" viewBox="0 0 10 10" refX="8" refY="5" markerWidth="7" markerHeight="7" orient="auto-start-reverse"><path d="M1 1 L9 5 L1 9" fill="none" stroke="#0078D4" stroke-width="1.6" stroke-linecap="round" stroke-linejoin="round"/></marker>
</defs><rect width="1280" height="361" fill="#ffffff"/>
<rect x="0" y="78" width="1280" height="120" fill="#ffffff"/>
<line x1="0" y1="78" x2="1280" y2="78" stroke="#e6e4e2"/>
<text x="1104" y="143" font-size="13" font-weight="700" fill="#323130">Workload root</text>
<rect x="0" y="198" width="1280" height="145" fill="#faf9f8"/>
<line x1="0" y1="198" x2="1280" y2="198" stroke="#e6e4e2"/>
<text x="1104" y="268.5" font-size="13" font-weight="700" fill="#323130">Application</text>
<text x="1104" y="285.5" font-size="13" font-weight="700" fill="#323130">components</text>
<line x1="0" y1="360.5" x2="1280" y2="360.5" stroke="#e6e4e2"/>
<text x="40" y="34" font-size="18" font-weight="700" fill="#242424">Queue with stuck vs dead-letter signals</text>
<text x="40" y="52" font-size="12" fill="#605e5c">Signals live inside each entity; health rolls up to the workload root.</text>
<text x="865.2" y="48" font-size="11.5" font-weight="600" fill="#605e5c" text-anchor="end">Legend</text><circle cx="883.2" cy="44" r="4.5" fill="#4c9a2a"/><text x="893.2" y="48" font-size="11.5" fill="#323130">Healthy</text><circle cx="954" cy="44" r="4.5" fill="#c26a00"/><text x="964" y="48" font-size="11.5" fill="#323130">Degraded</text><circle cx="1031.2" cy="44" r="4.5" fill="#c50f18"/><text x="1041.2" y="48" font-size="11.5" fill="#323130">Unhealthy</text><circle cx="1114.8" cy="44" r="4.5" fill="#8a8886"/><text x="1124.8" y="48" font-size="11.5" fill="#323130">Unknown</text><g transform="translate(1179.6,37) scale(0.875)">
    <rect x="1.5" y="8" width="2.6" height="6" rx="0.6" fill="#8661c5"/>
    <rect x="5.7" y="4.5" width="2.6" height="9.5" rx="0.6" fill="#0078D4"/>
    <rect x="9.9" y="6.5" width="2.6" height="7.5" rx="0.6" fill="#3fb0ac"/>
  </g><text x="1197.6" y="48" font-size="11.5" fill="#323130">Metric</text>
<g fill="none" stroke-linecap="butt" stroke-linejoin="round">
<path d="M300 216 L300.0 210.0 Q300 204 306.0 204.0 L444.0 204.0 Q451 204 451.0 197.0 L451 154" stroke="#db7500" stroke-width="1.7"/>
<path d="M820 216 L820.0 211.5 Q820 207 815.5 207.0 L673.0 207.0 Q666 207 666.0 200.0 L666 154" stroke="#ba0d16" stroke-width="1.7"/>
</g>
<g filter="url(#cs)"><rect x="177" y="216" width="246" height="83" rx="10" fill="#fbf2e7" stroke="#db7500" stroke-width="2"/></g><g transform="translate(183,223.16) scale(0.82)"><rect x="4" y="5" width="16" height="3" rx="1" fill="none" stroke="#605e5c" stroke-width="1.6" stroke-linecap="round" stroke-linejoin="round"/><rect x="4" y="10.5" width="16" height="3" rx="1" fill="none" stroke="#605e5c" stroke-width="1.6" stroke-linecap="round" stroke-linejoin="round"/><rect x="4" y="16" width="10" height="3" rx="1" fill="none" stroke="#605e5c" stroke-width="1.6" stroke-linecap="round" stroke-linejoin="round"/></g><text x="211" y="237.25" font-size="12.5" font-weight="600" fill="#242424">Main queue</text><rect x="341.4" y="224.00" width="73.6" height="18" rx="9" fill="#ffffff" stroke="#db7500" stroke-width="1"/><circle cx="352.4" cy="233" r="6" fill="#c26a00"/><text x="361.4" y="236.57" font-size="10.5" fill="#323130">Degraded</text><line x1="178" y1="253" x2="422" y2="253" stroke="#e6e4e2"/><circle cx="193" cy="268" r="6" fill="#c26a00"/><g transform="translate(209,261) scale(0.875)">
    <rect x="1.5" y="8" width="2.6" height="6" rx="0.6" fill="#8661c5"/>
    <rect x="5.7" y="4.5" width="2.6" height="9.5" rx="0.6" fill="#0078D4"/>
    <rect x="9.9" y="6.5" width="2.6" height="7.5" rx="0.6" fill="#3fb0ac"/>
  </g><text x="229" y="271.5" font-size="10.5" fill="#242424">Queue depth</text><text x="411" y="271.5" font-size="10.5" font-weight="600" fill="#c26a00" text-anchor="end">18</text><line x1="187" y1="277" x2="413" y2="277" stroke="#e6e4e2" stroke-opacity="0.7"/><circle cx="193" cy="286" r="6" fill="#4c9a2a"/><path d="M190.3 286 l1.9 1.9 l3.4 -3.9" fill="none" stroke="#fff" stroke-width="1.4" stroke-linecap="round" stroke-linejoin="round"/><g transform="translate(209,279) scale(0.875)">
    <rect x="1.5" y="8" width="2.6" height="6" rx="0.6" fill="#8661c5"/>
    <rect x="5.7" y="4.5" width="2.6" height="9.5" rx="0.6" fill="#0078D4"/>
    <rect x="9.9" y="6.5" width="2.6" height="7.5" rx="0.6" fill="#3fb0ac"/>
  </g><text x="229" y="289.5" font-size="10.5" fill="#242424">Oldest message age</text><text x="411" y="289.5" font-size="10.5" font-weight="400" fill="#605e5c" text-anchor="end">0</text>
<g filter="url(#cs)"><rect x="697" y="216" width="246" height="83" rx="10" fill="#faeceb" stroke="#ba0d16" stroke-width="2"/></g><g transform="translate(703,223.16) scale(0.82)"><rect x="4" y="5" width="16" height="3" rx="1" fill="none" stroke="#605e5c" stroke-width="1.6" stroke-linecap="round" stroke-linejoin="round"/><rect x="4" y="10.5" width="16" height="3" rx="1" fill="none" stroke="#605e5c" stroke-width="1.6" stroke-linecap="round" stroke-linejoin="round"/><rect x="4" y="16" width="10" height="3" rx="1" fill="none" stroke="#605e5c" stroke-width="1.6" stroke-linecap="round" stroke-linejoin="round"/></g><text x="731" y="236.91" font-size="11.5" font-weight="600" fill="#242424">Dead-letter queue</text><rect x="855.2" y="224.00" width="79.80000000000001" height="18" rx="9" fill="#ffffff" stroke="#ba0d16" stroke-width="1"/><circle cx="866.2" cy="233" r="6" fill="#c50f18"/><text x="875.2" y="236.57" font-size="10.5" fill="#323130">Unhealthy</text><line x1="698" y1="253" x2="942" y2="253" stroke="#e6e4e2"/><circle cx="713" cy="268" r="6" fill="#c50f18"/><g transform="translate(729,261) scale(0.875)">
    <rect x="1.5" y="8" width="2.6" height="6" rx="0.6" fill="#8661c5"/>
    <rect x="5.7" y="4.5" width="2.6" height="9.5" rx="0.6" fill="#0078D4"/>
    <rect x="9.9" y="6.5" width="2.6" height="7.5" rx="0.6" fill="#3fb0ac"/>
  </g><text x="749" y="271.5" font-size="10.5" fill="#242424">DLQ depth</text><text x="931" y="271.5" font-size="10.5" font-weight="600" fill="#c50f18" text-anchor="end">40</text><line x1="707" y1="277" x2="933" y2="277" stroke="#e6e4e2" stroke-opacity="0.7"/><circle cx="713" cy="286" r="6" fill="#4c9a2a"/><path d="M710.3 286 l1.9 1.9 l3.4 -3.9" fill="none" stroke="#fff" stroke-width="1.4" stroke-linecap="round" stroke-linejoin="round"/><g transform="translate(729,279) scale(0.875)">
    <rect x="1.5" y="8" width="2.6" height="6" rx="0.6" fill="#8661c5"/>
    <rect x="5.7" y="4.5" width="2.6" height="9.5" rx="0.6" fill="#0078D4"/>
    <rect x="9.9" y="6.5" width="2.6" height="7.5" rx="0.6" fill="#3fb0ac"/>
  </g><text x="749" y="289.5" font-size="10.5" fill="#242424">DLQ rate</text><text x="931" y="289.5" font-size="10.5" font-weight="400" fill="#605e5c" text-anchor="end">0</text>
<g filter="url(#cs)"><rect x="437" y="96" width="246" height="58" rx="10" fill="#fbf2e7" stroke="#db7500" stroke-width="2"/></g><g transform="translate(443,115.16) scale(0.82)"><circle cx="5.5" cy="6" r="2" fill="none" stroke="#605e5c" stroke-width="1.6" stroke-linecap="round" stroke-linejoin="round"/><circle cx="5.5" cy="18" r="2" fill="none" stroke="#605e5c" stroke-width="1.6" stroke-linecap="round" stroke-linejoin="round"/><circle cx="18.5" cy="12" r="2" fill="none" stroke="#605e5c" stroke-width="1.6" stroke-linecap="round" stroke-linejoin="round"/><path d="M7.5 6h3a4 4 0 0 1 4 4M7.5 18h3a4 4 0 0 0 4-4" fill="none" stroke="#605e5c" stroke-width="1.6" stroke-linecap="round" stroke-linejoin="round"/></g><text x="471" y="129.25" font-size="12.5" font-weight="600" fill="#242424">Async flow</text><rect x="601.4" y="116.00" width="73.6" height="18" rx="9" fill="#ffffff" stroke="#db7500" stroke-width="1"/><circle cx="612.4" cy="125" r="6" fill="#c26a00"/><text x="621.4" y="128.57" font-size="10.5" fill="#323130">Degraded</text>
</svg>