<svg xmlns="http://www.w3.org/2000/svg" width="1344" height="369" viewBox="0 0 1344 369" font-family="Segoe UI, -apple-system, BlinkMacSystemFont, Helvetica, Arial, sans-serif">
<defs><filter id="cs" x="-20%" y="-20%" width="140%" height="140%"><feDropShadow dx="0" dy="1" stdDeviation="1.3" flood-color="#000" flood-opacity="0.10"/></filter>
<marker id="ar-healthy" viewBox="0 0 10 10" refX="8" refY="5" markerWidth="7" markerHeight="7" orient="auto-start-reverse"><path d="M1 1 L9 5 L1 9" fill="none" stroke="#a0d8a0" stroke-width="1.6" stroke-linecap="round" stroke-linejoin="round"/></marker><marker id="ar-degraded" viewBox="0 0 10 10" refX="8" refY="5" markerWidth="7" markerHeight="7" orient="auto-start-reverse"><path d="M1 1 L9 5 L1 9" fill="none" stroke="#db7500" stroke-width="1.6" stroke-linecap="round" stroke-linejoin="round"/></marker><marker id="ar-unhealthy" viewBox="0 0 10 10" refX="8" refY="5" markerWidth="7" markerHeight="7" orient="auto-start-reverse"><path d="M1 1 L9 5 L1 9" fill="none" stroke="#ba0d16" stroke-width="1.6" stroke-linecap="round" stroke-linejoin="round"/></marker><marker id="ar-unknown" viewBox="0 0 10 10" refX="8" refY="5" markerWidth="7" markerHeight="7" orient="auto-start-reverse"><path d="M1 1 L9 5 L1 9" fill="none" stroke="#c8c6c4" stroke-width="1.6" stroke-linecap="round" stroke-linejoin="round"/></marker><marker id="ar-alt" viewBox="0 0 10 10" refX="8" refY="5" markerWidth="7" markerHeight="7" orient="auto-start-reverse"><path d="M1 1 L9 5 L1 9" fill="none" stroke="#8661c5" stroke-width="1.6" stroke-linecap="round" stroke-linejoin="round"/></marker><marker id="ar-signal" viewBox="0 0 10 10" refX="8" refY="5" markerWidth="7" markerHeight="7" orient="auto-start-reverse"><path d="M1 1 L9 5 L1 9" fill="none" stroke="#0078D4" stroke-width="1.6" stroke-linecap="round" stroke-linejoin="round"/></marker>
</defs><rect width="1344" height="369" fill="#ffffff"/>
<rect x="0" y="78" width="1344" height="146" fill="#ffffff"/>
<line x1="0" y1="78" x2="1344" y2="78" stroke="#e6e4e2"/>
<text x="1168" y="156" font-size="13" font-weight="700" fill="#323130">Workload root</text>
<rect x="0" y="224" width="1344" height="127" fill="#faf9f8"/>
<line x1="0" y1="224" x2="1344" y2="224" stroke="#e6e4e2"/>
<text x="1168" y="285.5" font-size="13" font-weight="700" fill="#323130">Application</text>
<text x="1168" y="302.5" font-size="13" font-weight="700" fill="#323130">components</text>
<line x1="0" y1="368.5" x2="1344" y2="368.5" stroke="#e6e4e2"/>
<text x="40" y="34" font-size="18" font-weight="700" fill="#242424">Web application: 3-tier with caching</text>
<text x="40" y="52" font-size="12" fill="#605e5c">Signals live inside each entity; health rolls up to the workload root.</text>
<text x="929.2" y="48" font-size="11.5" font-weight="600" fill="#605e5c" text-anchor="end">Legend</text><circle cx="947.2" cy="44" r="4.5" fill="#4c9a2a"/><text x="957.2" y="48" font-size="11.5" fill="#323130">Healthy</text><circle cx="1018" cy="44" r="4.5" fill="#c26a00"/><text x="1028" y="48" font-size="11.5" fill="#323130">Degraded</text><circle cx="1095.2" cy="44" r="4.5" fill="#c50f18"/><text x="1105.2" y="48" font-size="11.5" fill="#323130">Unhealthy</text><circle cx="1178.8" cy="44" r="4.5" fill="#8a8886"/><text x="1188.8" y="48" font-size="11.5" fill="#323130">Unknown</text><g transform="translate(1243.6,37) scale(0.875)">
    <rect x="1.5" y="8" width="2.6" height="6" rx="0.6" fill="#8661c5"/>
    <rect x="5.7" y="4.5" width="2.6" height="9.5" rx="0.6" fill="#0078D4"/>
    <rect x="9.9" y="6.5" width="2.6" height="7.5" rx="0.6" fill="#3fb0ac"/>
  </g><text x="1261.6" y="48" font-size="11.5" fill="#323130">Metric</text>
<g fill="none" stroke-linecap="butt" stroke-linejoin="round">
<path d="M178 242 L178.0 236.0 Q178 230 184.0 230.0 L476.0 230.0 Q483 230 483.0 223.0 L483 154" stroke="#a0d8a0" stroke-width="1.7"/>
<path d="M567.0 242 V154" stroke="#a0d8a0" stroke-width="1.7"/>
<path d="M1006 242 L1006.0 237.5 Q1006 233 1001.5 233.0 L705.0 233.0 Q698 233 698.0 226.0 L698 154" stroke="#a0d8a0" stroke-width="1.7"/>
<path d="M730 242 L730.0 177.0 Q730 170 723.0 170.0 L599.0 170.0 Q592 170 592.0 163.0 L592 154" stroke="#db7500" stroke-width="1.6" stroke-dasharray="5 4"/>
<g stroke="none"><rect x="664.1" y="160.0" width="131.7" height="20" rx="10" fill="#ffffff" stroke="#d8d6d4" stroke-width="1"/><text x="730.0" y="173.6" font-size="10.5" font-weight="600" fill="#242424" text-anchor="middle">limited propagation</text></g>
</g>
<g filter="url(#cs)"><rect x="55" y="242" width="246" height="65" rx="10" fill="#f2f8f2" stroke="#a0d8a0" stroke-width="2"/></g><g transform="translate(61,249.16) scale(0.82)"><circle cx="12" cy="12" r="8.4" fill="none" stroke="#605e5c" stroke-width="1.6" stroke-linecap="round" stroke-linejoin="round"/><path d="M3.6 12h16.8M12 3.6c3 3 3 13.8 0 16.8M12 3.6c-3 3-3 13.8 0 16.8" fill="none" stroke="#605e5c" stroke-width="1.6" stroke-linecap="round" stroke-linejoin="round"/></g><text x="89" y="263.25" font-size="12.5" font-weight="600" fill="#242424">Front Door</text><rect x="225.6" y="250.00" width="67.4" height="18" rx="9" fill="#ffffff" stroke="#a0d8a0" stroke-width="1"/><circle cx="236.6" cy="259" r="6" fill="#4c9a2a"/><path d="M233.9 259 l1.9 1.9 l3.4 -3.9" fill="none" stroke="#fff" stroke-width="1.4" stroke-linecap="round" stroke-linejoin="round"/><text x="245.6" y="262.57" font-size="10.5" fill="#323130">Healthy</text><line x1="56" y1="279" x2="300" y2="279" stroke="#e6e4e2"/><circle cx="71" cy="294" r="6" fill="#4c9a2a"/><path d="M68.3 294 l1.9 1.9 l3.4 -3.9" fill="none" stroke="#fff" stroke-width="1.4" stroke-linecap="round" stroke-linejoin="round"/><g transform="translate(87,287) scale(0.875)">
    <rect x="1.5" y="8" width="2.6" height="6" rx="0.6" fill="#8661c5"/>
    <rect x="5.7" y="4.5" width="2.6" height="9.5" rx="0.6" fill="#0078D4"/>
    <rect x="9.9" y="6.5" width="2.6" height="7.5" rx="0.6" fill="#3fb0ac"/>
  </g><text x="107" y="297.5" font-size="10.5" fill="#242424">Backend probe</text><text x="289" y="297.5" font-size="10.5" font-weight="400" fill="#605e5c" text-anchor="end">2</text>
<g filter="url(#cs)"><rect x="331" y="242" width="246" height="65" rx="10" fill="#f2f8f2" stroke="#a0d8a0" stroke-width="2"/></g><g transform="translate(337,249.16) scale(0.82)"><rect x="4" y="4.5" width="16" height="6" rx="1.2" fill="none" stroke="#605e5c" stroke-width="1.6" stroke-linecap="round" stroke-linejoin="round"/><rect x="4" y="13.5" width="16" height="6" rx="1.2" fill="none" stroke="#605e5c" stroke-width="1.6" stroke-linecap="round" stroke-linejoin="round"/><path d="M7.2 7.5h.01M7.2 16.5h.01" fill="none" stroke="#605e5c" stroke-width="1.6" stroke-linecap="round" stroke-linejoin="round"/></g><text x="365" y="263.25" font-size="12.5" font-weight="600" fill="#242424">App Service</text><rect x="501.6" y="250.00" width="67.4" height="18" rx="9" fill="#ffffff" stroke="#a0d8a0" stroke-width="1"/><circle cx="512.6" cy="259" r="6" fill="#4c9a2a"/><path d="M509.90000000000003 259 l1.9 1.9 l3.4 -3.9" fill="none" stroke="#fff" stroke-width="1.4" stroke-linecap="round" stroke-linejoin="round"/><text x="521.6" y="262.57" font-size="10.5" fill="#323130">Healthy</text><line x1="332" y1="279" x2="576" y2="279" stroke="#e6e4e2"/><circle cx="347" cy="294" r="6" fill="#4c9a2a"/><path d="M344.3 294 l1.9 1.9 l3.4 -3.9" fill="none" stroke="#fff" stroke-width="1.4" stroke-linecap="round" stroke-linejoin="round"/><g transform="translate(363,287) scale(0.875)">
    <rect x="1.5" y="8" width="2.6" height="6" rx="0.6" fill="#8661c5"/>
    <rect x="5.7" y="4.5" width="2.6" height="9.5" rx="0.6" fill="#0078D4"/>
    <rect x="9.9" y="6.5" width="2.6" height="7.5" rx="0.6" fill="#3fb0ac"/>
  </g><text x="383" y="297.5" font-size="10.5" fill="#242424">Availability</text><text x="565" y="297.5" font-size="10.5" font-weight="400" fill="#605e5c" text-anchor="end">0</text>
<g filter="url(#cs)"><rect x="607" y="242" width="246" height="65" rx="10" fill="#fbf2e7" stroke="#db7500" stroke-width="2"/></g><g transform="translate(613,249.16) scale(0.82)"><rect x="3.5" y="4" width="17" height="16" rx="2" fill="none" stroke="#605e5c" stroke-width="1.6" stroke-linecap="round" stroke-linejoin="round"/><path d="M8 4v16M3.5 9.5h4M3.5 14.5h4" fill="none" stroke="#605e5c" stroke-width="1.6" stroke-linecap="round" stroke-linejoin="round"/></g><text x="641" y="263.25" font-size="12.5" font-weight="600" fill="#242424">Redis cache</text><rect x="771.4" y="250.00" width="73.6" height="18" rx="9" fill="#ffffff" stroke="#db7500" stroke-width="1"/><circle cx="782.4" cy="259" r="6" fill="#c26a00"/><text x="791.4" y="262.57" font-size="10.5" fill="#323130">Degraded</text><line x1="608" y1="279" x2="852" y2="279" stroke="#e6e4e2"/><circle cx="623" cy="294" r="6" fill="#c26a00"/><g transform="translate(639,287) scale(0.875)">
    <rect x="1.5" y="8" width="2.6" height="6" rx="0.6" fill="#8661c5"/>
    <rect x="5.7" y="4.5" width="2.6" height="9.5" rx="0.6" fill="#0078D4"/>
    <rect x="9.9" y="6.5" width="2.6" height="7.5" rx="0.6" fill="#3fb0ac"/>
  </g><text x="659" y="297.5" font-size="10.5" fill="#242424">Hit ratio</text><text x="841" y="297.5" font-size="10.5" font-weight="600" fill="#c26a00" text-anchor="end">16</text>
<g filter="url(#cs)"><rect x="883" y="242" width="246" height="65" rx="10" fill="#f2f8f2" stroke="#a0d8a0" stroke-width="2"/></g><g transform="translate(889,249.16) scale(0.82)"><ellipse cx="12" cy="6" rx="7" ry="2.8" fill="none" stroke="#605e5c" stroke-width="1.6" stroke-linecap="round" stroke-linejoin="round"/><path d="M5 6v12c0 1.55 3.13 2.8 7 2.8s7-1.25 7-2.8V6" fill="none" stroke="#605e5c" stroke-width="1.6" stroke-linecap="round" stroke-linejoin="round"/><path d="M5 12c0 1.55 3.13 2.8 7 2.8s7-1.25 7-2.8" fill="none" stroke="#605e5c" stroke-width="1.6" stroke-linecap="round" stroke-linejoin="round"/></g><text x="917" y="263.25" font-size="12.5" font-weight="600" fill="#242424">SQL Database</text><rect x="1053.6" y="250.00" width="67.4" height="18" rx="9" fill="#ffffff" stroke="#a0d8a0" stroke-width="1"/><circle cx="1064.6" cy="259" r="6" fill="#4c9a2a"/><path d="M1061.8999999999999 259 l1.9 1.9 l3.4 -3.9" fill="none" stroke="#fff" stroke-width="1.4" stroke-linecap="round" stroke-linejoin="round"/><text x="1073.6" y="262.57" font-size="10.5" fill="#323130">Healthy</text><line x1="884" y1="279" x2="1128" y2="279" stroke="#e6e4e2"/><circle cx="899" cy="294" r="6" fill="#4c9a2a"/><path d="M896.3 294 l1.9 1.9 l3.4 -3.9" fill="none" stroke="#fff" stroke-width="1.4" stroke-linecap="round" stroke-linejoin="round"/><g transform="translate(915,287) scale(0.875)">
    <rect x="1.5" y="8" width="2.6" height="6" rx="0.6" fill="#8661c5"/>
    <rect x="5.7" y="4.5" width="2.6" height="9.5" rx="0.6" fill="#0078D4"/>
    <rect x="9.9" y="6.5" width="2.6" height="7.5" rx="0.6" fill="#3fb0ac"/>
  </g><text x="935" y="297.5" font-size="10.5" fill="#242424">Failover state</text><text x="1117" y="297.5" font-size="10.5" font-weight="400" fill="#605e5c" text-anchor="end">0</text>
<g filter="url(#cs)"><rect x="469" y="96" width="246" height="58" rx="10" fill="#f2f8f2" stroke="#a0d8a0" stroke-width="2"/></g><g transform="translate(475,115.16) scale(0.82)"><circle cx="12" cy="12" r="8.4" fill="none" stroke="#605e5c" stroke-width="1.6" stroke-linecap="round" stroke-linejoin="round"/><path d="M3.6 12h16.8M12 3.6c3 3 3 13.8 0 16.8M12 3.6c-3 3-3 13.8 0 16.8" fill="none" stroke="#605e5c" stroke-width="1.6" stroke-linecap="round" stroke-linejoin="round"/></g><text x="503" y="129.25" font-size="12.5" font-weight="600" fill="#242424">Web app</text><rect x="639.6" y="116.00" width="67.4" height="18" rx="9" fill="#ffffff" stroke="#a0d8a0" stroke-width="1"/><circle cx="650.6" cy="125" r="6" fill="#4c9a2a"/><path d="M647.9 125 l1.9 1.9 l3.4 -3.9" fill="none" stroke="#fff" stroke-width="1.4" stroke-linecap="round" stroke-linejoin="round"/><text x="659.6" y="128.57" font-size="10.5" fill="#323130">Healthy</text>
</svg>