<svg xmlns="http://www.w3.org/2000/svg" width="2107" height="304" viewBox="0 0 2107 304" font-family="Segoe UI, -apple-system, BlinkMacSystemFont, Helvetica, Arial, sans-serif">
<defs><filter id="cs" x="-20%" y="-20%" width="140%" height="140%"><feDropShadow dx="0" dy="1" stdDeviation="1.3" flood-color="#000" flood-opacity="0.1"/></filter></defs>
<rect width="2107" height="304" fill="#ffffff"/>
<rect x="0" y="78.0" width="2107" height="118.0" fill="#ffffff"/>
<line x1="0" y1="78.0" x2="2107" y2="78.0" stroke="#e6e4e2"/>
<text x="1963.0" y="141.5" font-size="13" font-weight="700" fill="#323130">Health Model root</text>
<rect x="0" y="196.0" width="2107" height="90.0" fill="#faf9f8"/>
<line x1="0" y1="196.0" x2="2107" y2="196.0" stroke="#e6e4e2"/>
<text x="1963.0" y="245.5" font-size="13" font-weight="700" fill="#323130">Top-level rollups</text>
<line x1="0" y1="303.5" x2="2107" y2="303.5" stroke="#e6e4e2"/>
<text x="40" y="34" font-size="18" font-weight="700" fill="#242424">AKS Health Model — aks-anbksto2dassie89</text>
<text x="40" y="52" font-size="12" fill="#605e5c">Verified top-level rollup and live state immediately after apply.</text>
<text x="1704.1" y="48" font-size="11.5" font-weight="600" fill="#605e5c" text-anchor="end">Legend</text>
<circle cx="1722.1" cy="44" r="4.5" fill="#4c9a2a"/>
<text x="1732.1" y="48" font-size="11.5" fill="#323130">Healthy</text>
<circle cx="1787.9" cy="44" r="4.5" fill="#c26a00"/>
<text x="1797.9" y="48" font-size="11.5" fill="#323130">Degraded</text>
<circle cx="1865.4" cy="44" r="4.5" fill="#c50f18"/>
<text x="1875.4" y="48" font-size="11.5" fill="#323130">Unhealthy</text>
<circle cx="1944.2" cy="44" r="4.5" fill="#8a8886"/>
<text x="1954.2" y="48" font-size="11.5" fill="#323130">Unknown</text>
<g transform="translate(2013.1,37.0) scale(0.875)"><rect x="1.5" y="8" width="2.6" height="6" rx="0.6" fill="#8661c5"/><rect x="5.7" y="4.5" width="2.6" height="9.5" rx="0.6" fill="#0078D4"/><rect x="9.9" y="6.5" width="2.6" height="7.5" rx="0.6" fill="#3fb0ac"/></g>
<text x="2031.1" y="48" font-size="11.5" fill="#323130">Metric</text>
<g transform="translate(40.0,0)">
<g fill="none" stroke-linecap="butt" stroke-linejoin="round">
<path d="M176.5 214.0 L176.5 181.0 Q176.5 174.0 183.5 174.0 L806.1 174.0 Q813.1 174.0 813.1 167.0 L813.1 154.0" stroke="#c8c6c4" stroke-width="1.7"/>
<path d="M556.0 214.0 L556.0 185.0 Q556.0 178.0 563.0 178.0 L816.1 178.0 Q823.1 178.0 823.1 171.0 L823.1 154.0" stroke="#c8c6c4" stroke-width="1.7"/>
<path d="M1318.0 214.0 L1318.0 181.0 Q1318.0 174.0 1311.0 174.0 L1060.1 174.0 Q1053.1 174.0 1053.1 167.0 L1053.1 154.0" stroke="#c8c6c4" stroke-width="1.7"/>
<path d="M1698.5 214.0 L1698.5 185.0 Q1698.5 178.0 1691.5 178.0 L1072.1 178.0 Q1065.1 178.0 1065.1 171.0 L1065.1 154.0" stroke="#c8c6c4" stroke-width="1.7"/>
<path d="M937.1 214.0 L937.1 154.0" stroke="#db7500" stroke-width="1.7"/>
</g>
<g filter="url(#cs)"><rect x="0.0" y="214.0" width="353" height="58" rx="10" fill="#f6f6f5" stroke="#c8c6c4" stroke-width="2" stroke-dasharray="4 3"/></g><g transform="translate(6.0,233.16) scale(0.82)"><ellipse cx="12" cy="6" rx="7" ry="2.8" fill="none" stroke="#605e5c" stroke-width="1.6" stroke-linecap="round" stroke-linejoin="round"/><path d="M5 6v12c0 1.55 3.13 2.8 7 2.8s7-1.25 7-2.8V6" fill="none" stroke="#605e5c" stroke-width="1.6" stroke-linecap="round" stroke-linejoin="round"/><path d="M5 12c0 1.55 3.13 2.8 7 2.8s7-1.25 7-2.8" fill="none" stroke="#605e5c" stroke-width="1.6" stroke-linecap="round" stroke-linejoin="round"/></g><text x="34.0" y="241.0" font-size="12.5" font-weight="600" fill="#242424">Storage</text><text x="34.0" y="253.0" font-size="9" fill="#605e5c">ahmk-203baed5497878cd09226ae4 · health = Unknown</text><rect x="272.4" y="234.00" width="72.6" height="18" rx="9" fill="#ffffff" stroke="#c8c6c4" stroke-width="1"/><circle cx="283.4" cy="243.0" r="6" fill="#8a8886"/><text x="292.4" y="246.57" font-size="10.5" fill="#323130">Unknown</text>
<g filter="url(#cs)"><rect x="795.1" y="96.0" width="284" height="58" rx="10" fill="#fbf2e7" stroke="#db7500" stroke-width="2"/></g><g transform="translate(801.1,115.16) scale(0.82)"><path d="M12 3.2l7.6 4.4v8.8L12 20.8l-7.6-4.4V7.6z" fill="none" stroke="#605e5c" stroke-width="1.6" stroke-linecap="round" stroke-linejoin="round"/><path d="M4.6 7.8l7.4 4.3 7.4-4.3M12 12.1v8.6" fill="none" stroke="#605e5c" stroke-width="1.6" stroke-linecap="round" stroke-linejoin="round"/></g><text x="829.1" y="123.0" font-size="12.5" font-weight="600" fill="#242424">hm-anbksto2dassie89</text><text x="829.1" y="135.0" font-size="9" fill="#605e5c">model-named root · health = Degraded</text><rect x="996.1" y="116.00" width="75.0" height="18" rx="9" fill="#ffffff" stroke="#db7500" stroke-width="1"/><circle cx="1007.1" cy="125.0" r="6" fill="#c26a00"/><text x="1016.1" y="128.57" font-size="10.5" fill="#323130">Degraded</text>
<g filter="url(#cs)"><rect x="383.0" y="214.0" width="346" height="58" rx="10" fill="#f6f6f5" stroke="#c8c6c4" stroke-width="2" stroke-dasharray="4 3"/></g><g transform="translate(389.0,233.16) scale(0.82)"><path d="M12 3.2l7.6 4.4v8.8L12 20.8l-7.6-4.4V7.6z" fill="none" stroke="#605e5c" stroke-width="1.6" stroke-linecap="round" stroke-linejoin="round"/><path d="M4.6 7.8l7.4 4.3 7.4-4.3M12 12.1v8.6" fill="none" stroke="#605e5c" stroke-width="1.6" stroke-linecap="round" stroke-linejoin="round"/></g><text x="417.0" y="241.0" font-size="12.5" font-weight="600" fill="#242424">Namespaces</text><text x="417.0" y="253.0" font-size="9" fill="#605e5c">ahmk-f0b21784ecb7ef7aecb51b1c · health = Unknown</text><rect x="648.4" y="234.00" width="72.6" height="18" rx="9" fill="#ffffff" stroke="#c8c6c4" stroke-width="1"/><circle cx="659.4" cy="243.0" r="6" fill="#8a8886"/><text x="668.4" y="246.57" font-size="10.5" fill="#323130">Unknown</text>
<g filter="url(#cs)"><rect x="759.0" y="214.0" width="355" height="58" rx="10" fill="#fbf2e7" stroke="#db7500" stroke-width="2"/></g><g transform="translate(765.0,233.16) scale(0.82)"><path d="M12 3.2l7.6 4.4v8.8L12 20.8l-7.6-4.4V7.6z" fill="none" stroke="#605e5c" stroke-width="1.6" stroke-linecap="round" stroke-linejoin="round"/><path d="M4.6 7.8l7.4 4.3 7.4-4.3M12 12.1v8.6" fill="none" stroke="#605e5c" stroke-width="1.6" stroke-linecap="round" stroke-linejoin="round"/></g><text x="793.0" y="241.0" font-size="12.5" font-weight="600" fill="#242424">AKS Platform</text><text x="793.0" y="253.0" font-size="9" fill="#605e5c">ahmk-aa6e5e254e68f995e7e47b82 · health = Degraded</text><rect x="1031.0" y="234.00" width="75.0" height="18" rx="9" fill="#ffffff" stroke="#db7500" stroke-width="1"/><circle cx="1042.0" cy="243.0" r="6" fill="#c26a00"/><text x="1051.0" y="246.57" font-size="10.5" fill="#323130">Degraded</text>
<g filter="url(#cs)"><rect x="1144.0" y="214.0" width="348" height="58" rx="10" fill="#f6f6f5" stroke="#c8c6c4" stroke-width="2" stroke-dasharray="4 3"/></g><g transform="translate(1150.0,233.16) scale(0.82)"><path d="M12 3.2l7.6 4.4v8.8L12 20.8l-7.6-4.4V7.6z" fill="none" stroke="#605e5c" stroke-width="1.6" stroke-linecap="round" stroke-linejoin="round"/><path d="M4.6 7.8l7.4 4.3 7.4-4.3M12 12.1v8.6" fill="none" stroke="#605e5c" stroke-width="1.6" stroke-linecap="round" stroke-linejoin="round"/></g><text x="1178.0" y="241.0" font-size="12.5" font-weight="600" fill="#242424">Traffic</text><text x="1178.0" y="253.0" font-size="9" fill="#605e5c">ahmk-aee61a33404ff7438ed34655 · health = Unknown</text><rect x="1411.4" y="234.00" width="72.6" height="18" rx="9" fill="#ffffff" stroke="#c8c6c4" stroke-width="1"/><circle cx="1422.4" cy="243.0" r="6" fill="#8a8886"/><text x="1431.4" y="246.57" font-size="10.5" fill="#323130">Unknown</text>
<g filter="url(#cs)"><rect x="1522.0" y="214.0" width="353" height="58" rx="10" fill="#f6f6f5" stroke="#c8c6c4" stroke-width="2" stroke-dasharray="4 3"/></g><g transform="translate(1528.0,233.16) scale(0.82)"><path d="M12 3.2l7.6 4.4v8.8L12 20.8l-7.6-4.4V7.6z" fill="none" stroke="#605e5c" stroke-width="1.6" stroke-linecap="round" stroke-linejoin="round"/><path d="M4.6 7.8l7.4 4.3 7.4-4.3M12 12.1v8.6" fill="none" stroke="#605e5c" stroke-width="1.6" stroke-linecap="round" stroke-linejoin="round"/></g><text x="1556.0" y="241.0" font-size="12.5" font-weight="600" fill="#242424">Autoscaling</text><text x="1556.0" y="253.0" font-size="9" fill="#605e5c">ahmk-0688ac9771852b9e0ed91614 · health = Unknown</text><rect x="1794.4" y="234.00" width="72.6" height="18" rx="9" fill="#ffffff" stroke="#c8c6c4" stroke-width="1"/><circle cx="1805.4" cy="243.0" r="6" fill="#8a8886"/><text x="1814.4" y="246.57" font-size="10.5" fill="#323130">Unknown</text>
</g></svg>