<svg xmlns="http://www.w3.org/2000/svg" width="763" height="853" viewBox="0 0 763 853" font-family="Segoe UI, -apple-system, BlinkMacSystemFont, Helvetica, Arial, sans-serif">
<defs><filter id="cs" x="-20%" y="-20%" width="140%" height="140%"><feDropShadow dx="0" dy="1" stdDeviation="1.3" flood-color="#000" flood-opacity="0.1"/></filter></defs>
<rect width="763" height="853" fill="#ffffff"/>
<rect x="0" y="78.0" width="763" height="153.0" fill="#ffffff"/>
<line x1="0" y1="78.0" x2="763" y2="78.0" stroke="#e6e4e2"/>
<text x="619.0" y="159.0" font-size="13" font-weight="700" fill="#323130">Output bundle</text>
<rect x="0" y="231.0" width="763" height="241.0" fill="#faf9f8"/>
<line x1="0" y1="231.0" x2="763" y2="231.0" stroke="#e6e4e2"/>
<text x="619.0" y="356.0" font-size="13" font-weight="700" fill="#323130">Renderers</text>
<rect x="0" y="472.0" width="763" height="90.0" fill="#ffffff"/>
<line x1="0" y1="472.0" x2="763" y2="472.0" stroke="#e6e4e2"/>
<text x="619.0" y="521.5" font-size="13" font-weight="700" fill="#323130">Selection</text>
<rect x="0" y="562.0" width="763" height="135.0" fill="#faf9f8"/>
<line x1="0" y1="562.0" x2="763" y2="562.0" stroke="#e6e4e2"/>
<text x="619.0" y="634.0" font-size="13" font-weight="700" fill="#323130">Extraction</text>
<rect x="0" y="697.0" width="763" height="90.0" fill="#ffffff"/>
<line x1="0" y1="697.0" x2="763" y2="697.0" stroke="#e6e4e2"/>
<text x="619.0" y="746.5" font-size="13" font-weight="700" fill="#323130">Markdown input</text>
<line x1="0" y1="804.5" x2="763" y2="804.5" stroke="#e6e4e2"/>
<text x="40" y="34" font-size="18" font-weight="700" fill="#242424">How ahm-diagrammo renders one Markdown file</text>
<text x="40" y="52" font-size="12" fill="#605e5c">Read bottom-up, from Markdown input to the output bundle.</text>
<text x="40.0" y="843.0" font-size="11.5" font-weight="600" fill="#605e5c">Legend</text>
<circle cx="99.7" cy="839.0" r="4.5" fill="#4c9a2a"/>
<text x="109.7" y="843.0" font-size="11.5" fill="#323130">Healthy</text>
<circle cx="165.5" cy="839.0" r="4.5" fill="#c26a00"/>
<text x="175.5" y="843.0" font-size="11.5" fill="#323130">Degraded</text>
<circle cx="243.0" cy="839.0" r="4.5" fill="#c50f18"/>
<text x="253.0" y="843.0" font-size="11.5" fill="#323130">Unhealthy</text>
<circle cx="321.8" cy="839.0" r="4.5" fill="#8a8886"/>
<text x="331.8" y="843.0" font-size="11.5" fill="#323130">Unknown</text>
<g transform="translate(390.7,832.0) scale(0.875)"><rect x="1.5" y="8" width="2.6" height="6" rx="0.6" fill="#8661c5"/><rect x="5.7" y="4.5" width="2.6" height="9.5" rx="0.6" fill="#0078D4"/><rect x="9.9" y="6.5" width="2.6" height="7.5" rx="0.6" fill="#3fb0ac"/></g>
<text x="408.7" y="843.0" font-size="11.5" fill="#323130">Metric</text>
<g transform="translate(40.0,0)">
<g fill="none" stroke-linecap="butt" stroke-linejoin="round">
<path d="M249.2 715.0 L249.2 683.0" stroke="#a0d8a0" stroke-width="1.7"/>
<path d="M249.2 580.0 L249.2 548.0" stroke="#a0d8a0" stroke-width="1.7"/>
<path d="M206.0 249.0 L206.0 217.0" stroke="#a0d8a0" stroke-width="1.7"/>
<path d="M260.0 249.0 L260.0 217.0" stroke="#a0d8a0" stroke-width="1.7"/>
<path d="M165.2 490.0 L165.2 455.5 Q165.2 448.5 172.2 448.5 L199.0 448.5 Q206.0 448.5 206.0 441.5 L206.0 388.0" stroke="#a0d8a0" stroke-width="1.7"/>
<path d="M333.2 490.0 L333.2 428.5 Q333.2 421.5 326.2 421.5 L267.0 421.5 Q260.0 421.5 260.0 414.5 L260.0 352.0" stroke="#a0d8a0" stroke-width="1.7"/>
</g>
<g stroke="none"><rect x="86.1" y="438.5" width="158.4" height="20" rx="10" fill="#ffffff" stroke="#d8d6d4" stroke-width="1"/><text x="165.2" y="452.1" font-size="10.5" font-weight="600" fill="#242424" text-anchor="middle">flowchart BT + health class</text></g>
<g stroke="none"><rect x="276.8" y="411.5" width="112.8" height="20" rx="10" fill="#ffffff" stroke="#d8d6d4" stroke-width="1"/><text x="333.2" y="425.1" font-size="10.5" font-weight="600" fill="#242424" text-anchor="middle">any other diagram</text></g>
<g filter="url(#cs)"><rect x="119.2" y="580.0" width="260" height="103" rx="10" fill="#f2f8f2" stroke="#a0d8a0" stroke-width="2"/></g><g transform="translate(125.2,587.16) scale(0.82)"><path d="M12 3.2l7.6 4.4v8.8L12 20.8l-7.6-4.4V7.6z" fill="none" stroke="#605e5c" stroke-width="1.6" stroke-linecap="round" stroke-linejoin="round"/><path d="M4.6 7.8l7.4 4.3 7.4-4.3M12 12.1v8.6" fill="none" stroke="#605e5c" stroke-width="1.6" stroke-linecap="round" stroke-linejoin="round"/></g><text x="153.2" y="600.5" font-size="12.5" font-weight="600" fill="#242424">extractBlocks</text><rect x="306.9" y="588.00" width="64.3" height="18" rx="9" fill="#ffffff" stroke="#a0d8a0" stroke-width="1"/><circle cx="317.9" cy="597.0" r="6" fill="#4c9a2a"/><path d="M315.2 597.0 l1.9 1.9 l3.4 -3.9" fill="none" stroke="#ffffff" stroke-width="1.4" stroke-linecap="round" stroke-linejoin="round"/><text x="326.9" y="600.57" font-size="10.5" fill="#323130">Healthy</text><line x1="120.2" y1="617.0" x2="378.2" y2="617.0" stroke="#e6e4e2"/><circle cx="135.2" cy="632.0" r="6" fill="#4c9a2a"/><path d="M132.5 632.0 l1.9 1.9 l3.4 -3.9" fill="none" stroke="#ffffff" stroke-width="1.4" stroke-linecap="round" stroke-linejoin="round"/><g transform="translate(151.2,625.0) scale(0.875)"><rect x="1.5" y="8" width="2.6" height="6" rx="0.6" fill="#8661c5"/><rect x="5.7" y="4.5" width="2.6" height="9.5" rx="0.6" fill="#0078D4"/><rect x="9.9" y="6.5" width="2.6" height="7.5" rx="0.6" fill="#3fb0ac"/></g><text x="171.2" y="635.5" font-size="10.5" fill="#242424">fence info</text><text x="367.2" y="635.5" font-size="10.5" font-weight="400" fill="#605e5c" text-anchor="end">precedence 1</text><line x1="129.2" y1="641.0" x2="369.2" y2="641.0" stroke="#e6e4e2" stroke-opacity="0.7"/><circle cx="135.2" cy="650.0" r="6" fill="#4c9a2a"/><path d="M132.5 650.0 l1.9 1.9 l3.4 -3.9" fill="none" stroke="#ffffff" stroke-width="1.4" stroke-linecap="round" stroke-linejoin="round"/><g transform="translate(151.2,643.0) scale(0.875)"><rect x="1.5" y="8" width="2.6" height="6" rx="0.6" fill="#8661c5"/><rect x="5.7" y="4.5" width="2.6" height="9.5" rx="0.6" fill="#0078D4"/><rect x="9.9" y="6.5" width="2.6" height="7.5" rx="0.6" fill="#3fb0ac"/></g><text x="171.2" y="653.5" font-size="10.5" fill="#242424">frontmatter diagrammo:</text><text x="367.2" y="653.5" font-size="10.5" font-weight="400" fill="#605e5c" text-anchor="end">precedence 2</text><line x1="129.2" y1="659.0" x2="369.2" y2="659.0" stroke="#e6e4e2" stroke-opacity="0.7"/><circle cx="135.2" cy="668.0" r="6" fill="#4c9a2a"/><path d="M132.5 668.0 l1.9 1.9 l3.4 -3.9" fill="none" stroke="#ffffff" stroke-width="1.4" stroke-linecap="round" stroke-linejoin="round"/><g transform="translate(151.2,661.0) scale(0.875)"><rect x="1.5" y="8" width="2.6" height="6" rx="0.6" fill="#8661c5"/><rect x="5.7" y="4.5" width="2.6" height="9.5" rx="0.6" fill="#0078D4"/><rect x="9.9" y="6.5" width="2.6" height="7.5" rx="0.6" fill="#3fb0ac"/></g><text x="171.2" y="671.5" font-size="10.5" fill="#242424">directive comments</text><text x="367.2" y="671.5" font-size="10.5" font-weight="400" fill="#605e5c" text-anchor="end">precedence 3</text>
<g filter="url(#cs)"><rect x="133.7" y="715.0" width="231" height="58" rx="10" fill="#f2f8f2" stroke="#a0d8a0" stroke-width="2"/></g><g transform="translate(139.7,734.16) scale(0.82)"><path d="M12 3.2l7.6 4.4v8.8L12 20.8l-7.6-4.4V7.6z" fill="none" stroke="#605e5c" stroke-width="1.6" stroke-linecap="round" stroke-linejoin="round"/><path d="M4.6 7.8l7.4 4.3 7.4-4.3M12 12.1v8.6" fill="none" stroke="#605e5c" stroke-width="1.6" stroke-linecap="round" stroke-linejoin="round"/></g><text x="167.7" y="742.0" font-size="12.5" font-weight="600" fill="#242424">Markdown file</text><text x="167.7" y="754.0" font-size="9" fill="#605e5c">one or more mermaid blocks</text><rect x="292.4" y="735.00" width="64.3" height="18" rx="9" fill="#ffffff" stroke="#a0d8a0" stroke-width="1"/><circle cx="303.4" cy="744.0" r="6" fill="#4c9a2a"/><path d="M300.7 744.0 l1.9 1.9 l3.4 -3.9" fill="none" stroke="#ffffff" stroke-width="1.4" stroke-linecap="round" stroke-linejoin="round"/><text x="312.4" y="747.57" font-size="10.5" fill="#323130">Healthy</text>
<g filter="url(#cs)"><rect x="151.2" y="490.0" width="196" height="58" rx="10" fill="#f2f8f2" stroke="#a0d8a0" stroke-width="2"/></g><g transform="translate(157.2,509.16) scale(0.82)"><path d="M12 3.2l7.6 4.4v8.8L12 20.8l-7.6-4.4V7.6z" fill="none" stroke="#605e5c" stroke-width="1.6" stroke-linecap="round" stroke-linejoin="round"/><path d="M4.6 7.8l7.4 4.3 7.4-4.3M12 12.1v8.6" fill="none" stroke="#605e5c" stroke-width="1.6" stroke-linecap="round" stroke-linejoin="round"/></g><text x="185.2" y="517.0" font-size="12.5" font-weight="600" fill="#242424">pickRenderer</text><text x="185.2" y="529.0" font-size="9" fill="#605e5c">auto</text><rect x="274.9" y="510.00" width="64.3" height="18" rx="9" fill="#ffffff" stroke="#a0d8a0" stroke-width="1"/><circle cx="285.9" cy="519.0" r="6" fill="#4c9a2a"/><path d="M283.2 519.0 l1.9 1.9 l3.4 -3.9" fill="none" stroke="#ffffff" stroke-width="1.4" stroke-linecap="round" stroke-linejoin="round"/><text x="294.9" y="522.57" font-size="10.5" fill="#323130">Healthy</text>
<g filter="url(#cs)"><rect x="0.0" y="249.0" width="218" height="139" rx="10" fill="#f2f8f2" stroke="#a0d8a0" stroke-width="2"/></g><g transform="translate(6.0,256.16) scale(0.82)"><path d="M12 3.2l7.6 4.4v8.8L12 20.8l-7.6-4.4V7.6z" fill="none" stroke="#605e5c" stroke-width="1.6" stroke-linecap="round" stroke-linejoin="round"/><path d="M4.6 7.8l7.4 4.3 7.4-4.3M12 12.1v8.6" fill="none" stroke="#605e5c" stroke-width="1.6" stroke-linecap="round" stroke-linejoin="round"/></g><text x="34.0" y="269.5" font-size="12.5" font-weight="600" fill="#242424">Swimlane engine</text><rect x="145.7" y="257.00" width="64.3" height="18" rx="9" fill="#ffffff" stroke="#a0d8a0" stroke-width="1"/><circle cx="156.7" cy="266.0" r="6" fill="#4c9a2a"/><path d="M154.0 266.0 l1.9 1.9 l3.4 -3.9" fill="none" stroke="#ffffff" stroke-width="1.4" stroke-linecap="round" stroke-linejoin="round"/><text x="165.7" y="269.57" font-size="10.5" fill="#323130">Healthy</text><line x1="1.0" y1="286.0" x2="217.0" y2="286.0" stroke="#e6e4e2"/><circle cx="16.0" cy="301.0" r="6" fill="#4c9a2a"/><path d="M13.3 301.0 l1.9 1.9 l3.4 -3.9" fill="none" stroke="#ffffff" stroke-width="1.4" stroke-linecap="round" stroke-linejoin="round"/><g transform="translate(32.0,294.0) scale(0.875)"><rect x="1.5" y="8" width="2.6" height="6" rx="0.6" fill="#8661c5"/><rect x="5.7" y="4.5" width="2.6" height="9.5" rx="0.6" fill="#0078D4"/><rect x="9.9" y="6.5" width="2.6" height="7.5" rx="0.6" fill="#3fb0ac"/></g><text x="52.0" y="304.5" font-size="10.5" fill="#242424">parse</text><text x="206.0" y="304.5" font-size="10.5" font-weight="400" fill="#605e5c" text-anchor="end">flowchart BT</text><line x1="10.0" y1="310.0" x2="208.0" y2="310.0" stroke="#e6e4e2" stroke-opacity="0.7"/><circle cx="16.0" cy="319.0" r="6" fill="#4c9a2a"/><path d="M13.3 319.0 l1.9 1.9 l3.4 -3.9" fill="none" stroke="#ffffff" stroke-width="1.4" stroke-linecap="round" stroke-linejoin="round"/><g transform="translate(32.0,312.0) scale(0.875)"><rect x="1.5" y="8" width="2.6" height="6" rx="0.6" fill="#8661c5"/><rect x="5.7" y="4.5" width="2.6" height="9.5" rx="0.6" fill="#0078D4"/><rect x="9.9" y="6.5" width="2.6" height="7.5" rx="0.6" fill="#3fb0ac"/></g><text x="52.0" y="322.5" font-size="10.5" fill="#242424">fold</text><text x="206.0" y="322.5" font-size="10.5" font-weight="400" fill="#605e5c" text-anchor="end">signals to tables</text><line x1="10.0" y1="328.0" x2="208.0" y2="328.0" stroke="#e6e4e2" stroke-opacity="0.7"/><circle cx="16.0" cy="337.0" r="6" fill="#4c9a2a"/><path d="M13.3 337.0 l1.9 1.9 l3.4 -3.9" fill="none" stroke="#ffffff" stroke-width="1.4" stroke-linecap="round" stroke-linejoin="round"/><g transform="translate(32.0,330.0) scale(0.875)"><rect x="1.5" y="8" width="2.6" height="6" rx="0.6" fill="#8661c5"/><rect x="5.7" y="4.5" width="2.6" height="9.5" rx="0.6" fill="#0078D4"/><rect x="9.9" y="6.5" width="2.6" height="7.5" rx="0.6" fill="#3fb0ac"/></g><text x="52.0" y="340.5" font-size="10.5" fill="#242424">layer</text><text x="206.0" y="340.5" font-size="10.5" font-weight="400" fill="#605e5c" text-anchor="end">order + measure</text><line x1="10.0" y1="346.0" x2="208.0" y2="346.0" stroke="#e6e4e2" stroke-opacity="0.7"/><circle cx="16.0" cy="355.0" r="6" fill="#4c9a2a"/><path d="M13.3 355.0 l1.9 1.9 l3.4 -3.9" fill="none" stroke="#ffffff" stroke-width="1.4" stroke-linecap="round" stroke-linejoin="round"/><g transform="translate(32.0,348.0) scale(0.875)"><rect x="1.5" y="8" width="2.6" height="6" rx="0.6" fill="#8661c5"/><rect x="5.7" y="4.5" width="2.6" height="9.5" rx="0.6" fill="#0078D4"/><rect x="9.9" y="6.5" width="2.6" height="7.5" rx="0.6" fill="#3fb0ac"/></g><text x="52.0" y="358.5" font-size="10.5" fill="#242424">route</text><text x="206.0" y="358.5" font-size="10.5" font-weight="400" fill="#605e5c" text-anchor="end">pills + corridors</text><line x1="10.0" y1="364.0" x2="208.0" y2="364.0" stroke="#e6e4e2" stroke-opacity="0.7"/><circle cx="16.0" cy="373.0" r="6" fill="#4c9a2a"/><path d="M13.3 373.0 l1.9 1.9 l3.4 -3.9" fill="none" stroke="#ffffff" stroke-width="1.4" stroke-linecap="round" stroke-linejoin="round"/><g transform="translate(32.0,366.0) scale(0.875)"><rect x="1.5" y="8" width="2.6" height="6" rx="0.6" fill="#8661c5"/><rect x="5.7" y="4.5" width="2.6" height="9.5" rx="0.6" fill="#0078D4"/><rect x="9.9" y="6.5" width="2.6" height="7.5" rx="0.6" fill="#3fb0ac"/></g><text x="52.0" y="376.5" font-size="10.5" fill="#242424">emit</text><text x="206.0" y="376.5" font-size="10.5" font-weight="400" fill="#605e5c" text-anchor="end">native text SVG</text>
<g filter="url(#cs)"><rect x="248.0" y="249.0" width="283" height="103" rx="10" fill="#f2f8f2" stroke="#a0d8a0" stroke-width="2"/></g><g transform="translate(254.0,256.16) scale(0.82)"><path d="M12 3.2l7.6 4.4v8.8L12 20.8l-7.6-4.4V7.6z" fill="none" stroke="#605e5c" stroke-width="1.6" stroke-linecap="round" stroke-linejoin="round"/><path d="M4.6 7.8l7.4 4.3 7.4-4.3M12 12.1v8.6" fill="none" stroke="#605e5c" stroke-width="1.6" stroke-linecap="round" stroke-linejoin="round"/></g><text x="282.0" y="269.5" font-size="12.5" font-weight="600" fill="#242424">Themed mermaid via mmdc</text><rect x="458.7" y="257.00" width="64.3" height="18" rx="9" fill="#ffffff" stroke="#a0d8a0" stroke-width="1"/><circle cx="469.7" cy="266.0" r="6" fill="#4c9a2a"/><path d="M467.0 266.0 l1.9 1.9 l3.4 -3.9" fill="none" stroke="#ffffff" stroke-width="1.4" stroke-linecap="round" stroke-linejoin="round"/><text x="478.7" y="269.57" font-size="10.5" fill="#323130">Healthy</text><line x1="249.0" y1="286.0" x2="530.0" y2="286.0" stroke="#e6e4e2"/><circle cx="264.0" cy="301.0" r="6" fill="#4c9a2a"/><path d="M261.3 301.0 l1.9 1.9 l3.4 -3.9" fill="none" stroke="#ffffff" stroke-width="1.4" stroke-linecap="round" stroke-linejoin="round"/><g transform="translate(280.0,294.0) scale(0.875)"><rect x="1.5" y="8" width="2.6" height="6" rx="0.6" fill="#8661c5"/><rect x="5.7" y="4.5" width="2.6" height="9.5" rx="0.6" fill="#0078D4"/><rect x="9.9" y="6.5" width="2.6" height="7.5" rx="0.6" fill="#3fb0ac"/></g><text x="300.0" y="304.5" font-size="10.5" fill="#242424">renderer</text><text x="519.0" y="304.5" font-size="10.5" font-weight="400" fill="#605e5c" text-anchor="end">mermaid-cli</text><line x1="258.0" y1="310.0" x2="521.0" y2="310.0" stroke="#e6e4e2" stroke-opacity="0.7"/><circle cx="264.0" cy="319.0" r="6" fill="#4c9a2a"/><path d="M261.3 319.0 l1.9 1.9 l3.4 -3.9" fill="none" stroke="#ffffff" stroke-width="1.4" stroke-linecap="round" stroke-linejoin="round"/><g transform="translate(280.0,312.0) scale(0.875)"><rect x="1.5" y="8" width="2.6" height="6" rx="0.6" fill="#8661c5"/><rect x="5.7" y="4.5" width="2.6" height="9.5" rx="0.6" fill="#0078D4"/><rect x="9.9" y="6.5" width="2.6" height="7.5" rx="0.6" fill="#3fb0ac"/></g><text x="300.0" y="322.5" font-size="10.5" fill="#242424">runtime</text><text x="519.0" y="322.5" font-size="10.5" font-weight="400" fill="#605e5c" text-anchor="end">Chrome + mmdc</text><line x1="258.0" y1="328.0" x2="521.0" y2="328.0" stroke="#e6e4e2" stroke-opacity="0.7"/><circle cx="264.0" cy="337.0" r="6" fill="#4c9a2a"/><path d="M261.3 337.0 l1.9 1.9 l3.4 -3.9" fill="none" stroke="#ffffff" stroke-width="1.4" stroke-linecap="round" stroke-linejoin="round"/><g transform="translate(280.0,330.0) scale(0.875)"><rect x="1.5" y="8" width="2.6" height="6" rx="0.6" fill="#8661c5"/><rect x="5.7" y="4.5" width="2.6" height="9.5" rx="0.6" fill="#0078D4"/><rect x="9.9" y="6.5" width="2.6" height="7.5" rx="0.6" fill="#3fb0ac"/></g><text x="300.0" y="340.5" font-size="10.5" fill="#242424">emit</text><text x="519.0" y="340.5" font-size="10.5" font-weight="400" fill="#605e5c" text-anchor="end">themed native text SVG</text>
<g filter="url(#cs)"><rect x="134.3" y="96.0" width="230" height="121" rx="10" fill="#f2f8f2" stroke="#a0d8a0" stroke-width="2"/></g><g transform="translate(140.3,103.16) scale(0.82)"><path d="M12 3.2l7.6 4.4v8.8L12 20.8l-7.6-4.4V7.6z" fill="none" stroke="#605e5c" stroke-width="1.6" stroke-linecap="round" stroke-linejoin="round"/><path d="M4.6 7.8l7.4 4.3 7.4-4.3M12 12.1v8.6" fill="none" stroke="#605e5c" stroke-width="1.6" stroke-linecap="round" stroke-linejoin="round"/></g><text x="168.3" y="116.5" font-size="12.5" font-weight="600" fill="#242424">Output bundle</text><rect x="291.9" y="104.00" width="64.3" height="18" rx="9" fill="#ffffff" stroke="#a0d8a0" stroke-width="1"/><circle cx="302.9" cy="113.0" r="6" fill="#4c9a2a"/><path d="M300.2 113.0 l1.9 1.9 l3.4 -3.9" fill="none" stroke="#ffffff" stroke-width="1.4" stroke-linecap="round" stroke-linejoin="round"/><text x="311.9" y="116.57" font-size="10.5" fill="#323130">Healthy</text><line x1="135.3" y1="133.0" x2="363.3" y2="133.0" stroke="#e6e4e2"/><circle cx="150.3" cy="148.0" r="6" fill="#4c9a2a"/><path d="M147.6 148.0 l1.9 1.9 l3.4 -3.9" fill="none" stroke="#ffffff" stroke-width="1.4" stroke-linecap="round" stroke-linejoin="round"/><g transform="translate(166.3,141.0) scale(0.875)"><rect x="1.5" y="8" width="2.6" height="6" rx="0.6" fill="#8661c5"/><rect x="5.7" y="4.5" width="2.6" height="9.5" rx="0.6" fill="#0078D4"/><rect x="9.9" y="6.5" width="2.6" height="7.5" rx="0.6" fill="#3fb0ac"/></g><text x="186.3" y="151.5" font-size="10.5" fill="#242424">per block</text><text x="352.3" y="151.5" font-size="10.5" font-weight="400" fill="#605e5c" text-anchor="end">one .svg</text><line x1="144.3" y1="157.0" x2="354.3" y2="157.0" stroke="#e6e4e2" stroke-opacity="0.7"/><circle cx="150.3" cy="166.0" r="6" fill="#4c9a2a"/><path d="M147.6 166.0 l1.9 1.9 l3.4 -3.9" fill="none" stroke="#ffffff" stroke-width="1.4" stroke-linecap="round" stroke-linejoin="round"/><g transform="translate(166.3,159.0) scale(0.875)"><rect x="1.5" y="8" width="2.6" height="6" rx="0.6" fill="#8661c5"/><rect x="5.7" y="4.5" width="2.6" height="9.5" rx="0.6" fill="#0078D4"/><rect x="9.9" y="6.5" width="2.6" height="7.5" rx="0.6" fill="#3fb0ac"/></g><text x="186.3" y="169.5" font-size="10.5" fill="#242424">manifest.json</text><text x="352.3" y="169.5" font-size="10.5" font-weight="400" fill="#605e5c" text-anchor="end">slug + metadata</text><line x1="144.3" y1="175.0" x2="354.3" y2="175.0" stroke="#e6e4e2" stroke-opacity="0.7"/><circle cx="150.3" cy="184.0" r="6" fill="#4c9a2a"/><path d="M147.6 184.0 l1.9 1.9 l3.4 -3.9" fill="none" stroke="#ffffff" stroke-width="1.4" stroke-linecap="round" stroke-linejoin="round"/><g transform="translate(166.3,177.0) scale(0.875)"><rect x="1.5" y="8" width="2.6" height="6" rx="0.6" fill="#8661c5"/><rect x="5.7" y="4.5" width="2.6" height="9.5" rx="0.6" fill="#0078D4"/><rect x="9.9" y="6.5" width="2.6" height="7.5" rx="0.6" fill="#3fb0ac"/></g><text x="186.3" y="187.5" font-size="10.5" fill="#242424">gallery.html</text><text x="352.3" y="187.5" font-size="10.5" font-weight="400" fill="#605e5c" text-anchor="end">browse everything</text><line x1="144.3" y1="193.0" x2="354.3" y2="193.0" stroke="#e6e4e2" stroke-opacity="0.7"/><circle cx="150.3" cy="202.0" r="6" fill="#4c9a2a"/><path d="M147.6 202.0 l1.9 1.9 l3.4 -3.9" fill="none" stroke="#ffffff" stroke-width="1.4" stroke-linecap="round" stroke-linejoin="round"/><g transform="translate(166.3,195.0) scale(0.875)"><rect x="1.5" y="8" width="2.6" height="6" rx="0.6" fill="#8661c5"/><rect x="5.7" y="4.5" width="2.6" height="9.5" rx="0.6" fill="#0078D4"/><rect x="9.9" y="6.5" width="2.6" height="7.5" rx="0.6" fill="#3fb0ac"/></g><text x="186.3" y="205.5" font-size="10.5" fill="#242424">validation</text><text x="352.3" y="205.5" font-size="10.5" font-weight="400" fill="#605e5c" text-anchor="end">native text only</text>
</g></svg>